<?xml version="1.0"?>
<svg xmlns="http://www.w3.org/2000/svg"
xmlns:xlink="http://www.w3.org/1999/xlink" xmlns:cml="http://www.xml-cml.org/schema" width="537.676" height="360" x="0" y="0" font-family="sans-serif" stroke="rgb(0,0,0)" stroke-width="1"  stroke-linecap="round">
<rect x="0%" y="0%" width="100%" height="100%" stroke-width="0" fill="rgb(255,255,255)"  />
<polygon points="359.112 160 363.112 186.8 355.112 186.8 " stroke-width="1" fill="rgb(0,0,0)"  stroke="rgb(0,0,0)" />
<polygon points="393.753 220 368.543 210.064 372.543 203.136 " stroke-width="1" fill="rgb(0,0,0)"  stroke="rgb(0,0,0)" />
<polygon points="393.753 260 372.543 276.864 368.543 269.936 " stroke-width="1" fill="rgb(0,0,0)"  stroke="rgb(0,0,0)" />
<line x1="429.2" y1="285.4" x2="427.6" y2="285.4" stroke="rgb(0,0,0)"  stroke-width="1.0"/>
<line x1="429.8" y1="289.6" x2="427.0" y2="289.6" stroke="rgb(0,0,0)"  stroke-width="1.0"/>
<line x1="430.5" y1="293.9" x2="426.3" y2="293.9" stroke="rgb(0,0,0)"  stroke-width="1.0"/>
<line x1="431.1" y1="298.2" x2="425.7" y2="298.2" stroke="rgb(0,0,0)"  stroke-width="1.0"/>
<line x1="431.8" y1="302.5" x2="425.0" y2="302.5" stroke="rgb(0,0,0)"  stroke-width="1.0"/>
<line x1="432.4" y1="306.8" x2="424.4" y2="306.8" stroke="rgb(0,0,0)"  stroke-width="1.0"/>
<polygon points="463.034698 260.000000 488.244179 269.935898 484.244179 276.864102 " stroke-width="1.000000" fill="rgb(0,0,0)"  stroke="rgb(0,0,0)" />
<line x1="497.7" y1="200.0" x2="497.7" y2="173.0" stroke="rgb(0,0,0)"  stroke-width="1.0"/>
<line x1="469.6" y1="215.3" x2="470.4" y2="216.7" stroke="rgb(0,0,0)"  stroke-width="1.0"/>
<line x1="474.8" y1="211.6" x2="476.2" y2="214.0" stroke="rgb(0,0,0)"  stroke-width="1.0"/>
<line x1="480.0" y1="207.8" x2="482.1" y2="211.4" stroke="rgb(0,0,0)"  stroke-width="1.0"/>
<line x1="485.2" y1="204.0" x2="488.0" y2="208.8" stroke="rgb(0,0,0)"  stroke-width="1.0"/>
<line x1="490.5" y1="200.3" x2="493.8" y2="206.1" stroke="rgb(0,0,0)"  stroke-width="1.0"/>
<line x1="495.7" y1="196.5" x2="499.7" y2="203.5" stroke="rgb(0,0,0)"  stroke-width="1.0"/>
<line x1="358.3" y1="74.6" x2="359.9" y2="74.6" stroke="rgb(0,0,0)"  stroke-width="1.0"/>
<line x1="357.7" y1="70.4" x2="360.6" y2="70.4" stroke="rgb(0,0,0)"  stroke-width="1.0"/>
<line x1="357.0" y1="66.1" x2="361.2" y2="66.1" stroke="rgb(0,0,0)"  stroke-width="1.0"/>
<line x1="356.4" y1="61.8" x2="361.8" y2="61.8" stroke="rgb(0,0,0)"  stroke-width="1.0"/>
<line x1="355.8" y1="57.5" x2="362.5" y2="57.5" stroke="rgb(0,0,0)"  stroke-width="1.0"/>
<line x1="355.1" y1="53.2" x2="363.1" y2="53.2" stroke="rgb(0,0,0)"  stroke-width="1.0"/>
<line x1="398.8" y1="142.0" x2="398.0" y2="143.4" stroke="rgb(0,0,0)"  stroke-width="1.0"/>
<line x1="402.8" y1="143.6" x2="401.4" y2="146.1" stroke="rgb(0,0,0)"  stroke-width="1.0"/>
<line x1="406.9" y1="145.2" x2="404.8" y2="148.8" stroke="rgb(0,0,0)"  stroke-width="1.0"/>
<line x1="410.9" y1="146.8" x2="408.2" y2="151.5" stroke="rgb(0,0,0)"  stroke-width="1.0"/>
<line x1="414.9" y1="148.3" x2="411.6" y2="154.2" stroke="rgb(0,0,0)"  stroke-width="1.0"/>
<line x1="419.0" y1="149.9" x2="415.0" y2="156.9" stroke="rgb(0,0,0)"  stroke-width="1.0"/>
<line x1="320.2" y1="143.4" x2="319.4" y2="142.0" stroke="rgb(0,0,0)"  stroke-width="1.0"/>
<line x1="316.8" y1="146.1" x2="315.4" y2="143.6" stroke="rgb(0,0,0)"  stroke-width="1.0"/>
<line x1="313.4" y1="148.8" x2="311.4" y2="145.2" stroke="rgb(0,0,0)"  stroke-width="1.0"/>
<line x1="310.0" y1="151.5" x2="307.3" y2="146.8" stroke="rgb(0,0,0)"  stroke-width="1.0"/>
<line x1="306.7" y1="154.2" x2="303.3" y2="148.3" stroke="rgb(0,0,0)"  stroke-width="1.0"/>
<line x1="303.3" y1="156.9" x2="299.3" y2="149.9" stroke="rgb(0,0,0)"  stroke-width="1.0"/>
<polygon points="255.188601 140.000000 280.398082 149.935898 276.398082 156.864102 " stroke-width="1.000000" fill="rgb(0,0,0)"  stroke="rgb(0,0,0)" />
<polygon points="324.470634 100.000000 299.261153 90.064102 303.261153 83.135898 " stroke-width="1.000000" fill="rgb(0,0,0)"  stroke="rgb(0,0,0)" />
<line x1="218.3" y1="161.7" x2="216.7" y2="161.3" stroke="rgb(0,0,0)"  stroke-width="1.0"/>
<line x1="218.0" y1="166.0" x2="215.2" y2="165.4" stroke="rgb(0,0,0)"  stroke-width="1.0"/>
<line x1="217.8" y1="170.3" x2="213.7" y2="169.5" stroke="rgb(0,0,0)"  stroke-width="1.0"/>
<line x1="217.5" y1="174.7" x2="212.2" y2="173.5" stroke="rgb(0,0,0)"  stroke-width="1.0"/>
<line x1="217.3" y1="179.0" x2="210.7" y2="177.6" stroke="rgb(0,0,0)"  stroke-width="1.0"/>
<line x1="217.0" y1="183.3" x2="209.2" y2="181.7" stroke="rgb(0,0,0)"  stroke-width="1.0"/>
<line x1="186.6" y1="127.9" x2="186.5" y2="126.3" stroke="rgb(0,0,0)"  stroke-width="1.0"/>
<line x1="182.4" y1="129.0" x2="182.1" y2="126.1" stroke="rgb(0,0,0)"  stroke-width="1.0"/>
<line x1="178.2" y1="130.1" x2="177.8" y2="125.9" stroke="rgb(0,0,0)"  stroke-width="1.0"/>
<line x1="174.0" y1="131.2" x2="173.5" y2="125.7" stroke="rgb(0,0,0)"  stroke-width="1.0"/>
<line x1="169.8" y1="132.2" x2="169.1" y2="125.6" stroke="rgb(0,0,0)"  stroke-width="1.0"/>
<line x1="165.6" y1="133.3" x2="164.8" y2="125.4" stroke="rgb(0,0,0)"  stroke-width="1.0"/>
<polygon points="135.831217 167.266630 143.077578 141.156665 150.385941 144.410558 " stroke-width="1.000000" fill="rgb(0,0,0)"  stroke="rgb(0,0,0)" />
<polygon points="211.881559 91.902657 191.957911 56.987785 199.266275 53.733892 " stroke-width="1.000000" fill="rgb(0,0,0)"  stroke="rgb(0,0,0)" />
<line x1="195.6" y1="55.4" x2="168.8" y2="52.5" stroke="rgb(0,0,0)"  stroke-width="1.0"/>
<polygon points="96.050342 171.447768 77.061629 152.117254 83.533765 147.414972 " stroke-width="1.000000" fill="rgb(0,0,0)"  stroke="rgb(0,0,0)" />
<line x1="74.5" y1="209.3" x2="74.4" y2="207.8" stroke="rgb(0,0,0)"  stroke-width="1.0"/>
<line x1="70.3" y1="210.4" x2="70.0" y2="207.6" stroke="rgb(0,0,0)"  stroke-width="1.0"/>
<line x1="66.1" y1="211.5" x2="65.7" y2="207.4" stroke="rgb(0,0,0)"  stroke-width="1.0"/>
<line x1="61.9" y1="212.6" x2="61.4" y2="207.2" stroke="rgb(0,0,0)"  stroke-width="1.0"/>
<line x1="57.7" y1="213.7" x2="57.0" y2="207.0" stroke="rgb(0,0,0)"  stroke-width="1.0"/>
<line x1="53.5" y1="214.8" x2="52.7" y2="206.8" stroke="rgb(0,0,0)"  stroke-width="1.0"/>
<polygon points="103.292286 240.350266 96.045926 266.460231 88.737562 263.206338 " stroke-width="1.000000" fill="rgb(0,0,0)"  stroke="rgb(0,0,0)" />
<polygon points="143.073162 236.169128 169.820640 266.178666 163.348504 270.880948 " stroke-width="1.000000" fill="rgb(0,0,0)"  stroke="rgb(0,0,0)" />
<line x1="155.6" y1="293.2" x2="166.6" y2="268.5" stroke="rgb(0,0,0)"  stroke-width="1.0"/>
<line x1="255.2" y1="140.0" x2="252.4" y2="113.1" stroke="rgb(0,0,0)"  stroke-width="1.0"/>
<line x1="238.3" y1="97.5" x2="211.9" y2="91.9" stroke="rgb(0,0,0)"  stroke-width="1.0"/>
<line x1="211.9" y1="91.9" x2="191.9" y2="126.5" stroke="rgb(0,0,0)"  stroke-width="1.0"/>
<line x1="191.9" y1="126.5" x2="218.6" y2="156.3" stroke="rgb(0,0,0)"  stroke-width="1.0"/>
<line x1="218.6" y1="156.3" x2="255.2" y2="140.0" stroke="rgb(0,0,0)"  stroke-width="1.0"/>
<line x1="393.8" y1="220.0" x2="393.8" y2="260.0" stroke="rgb(0,0,0)"  stroke-width="1.0"/>
<line x1="393.8" y1="260.0" x2="428.4" y2="280.0" stroke="rgb(0,0,0)"  stroke-width="1.0"/>
<line x1="428.4" y1="280.0" x2="463.0" y2="260.0" stroke="rgb(0,0,0)"  stroke-width="1.0"/>
<line x1="463.0" y1="260.0" x2="463.0" y2="220.0" stroke="rgb(0,0,0)"  stroke-width="1.0"/>
<line x1="463.0" y1="220.0" x2="439.7" y2="206.5" stroke="rgb(0,0,0)"  stroke-width="1.0"/>
<line x1="417.1" y1="206.5" x2="393.8" y2="220.0" stroke="rgb(0,0,0)"  stroke-width="1.0"/>
<line x1="393.8" y1="100.0" x2="359.1" y2="80.0" stroke="rgb(0,0,0)"  stroke-width="1.0"/>
<line x1="359.1" y1="80.0" x2="324.5" y2="100.0" stroke="rgb(0,0,0)"  stroke-width="1.0"/>
<line x1="324.5" y1="100.0" x2="324.5" y2="140.0" stroke="rgb(0,0,0)"  stroke-width="1.0"/>
<line x1="324.5" y1="140.0" x2="359.1" y2="160.0" stroke="rgb(0,0,0)"  stroke-width="1.0"/>
<line x1="359.1" y1="160.0" x2="393.8" y2="140.0" stroke="rgb(0,0,0)"  stroke-width="1.0"/>
<line x1="393.8" y1="140.0" x2="393.8" y2="100.0" stroke="rgb(0,0,0)"  stroke-width="1.0"/>
<line x1="135.8" y1="167.3" x2="96.1" y2="171.4" stroke="rgb(0,0,0)"  stroke-width="1.0"/>
<line x1="96.1" y1="171.4" x2="79.8" y2="208.0" stroke="rgb(0,0,0)"  stroke-width="1.0"/>
<line x1="79.8" y1="208.0" x2="103.3" y2="240.4" stroke="rgb(0,0,0)"  stroke-width="1.0"/>
<line x1="103.3" y1="240.4" x2="143.1" y2="236.2" stroke="rgb(0,0,0)"  stroke-width="1.0"/>
<line x1="143.1" y1="236.2" x2="154.1" y2="211.5" stroke="rgb(0,0,0)"  stroke-width="1.0"/>
<line x1="151.7" y1="189.1" x2="135.8" y2="167.3" stroke="rgb(0,0,0)"  stroke-width="1.0"/>
<text x="353.111650" y="208.000000" fill="rgb(255,12,12)"  stroke="rgb(255,12,12)" stroke-width="1" font-size="16" >O</text>
<text x="333.111650" y="288.000000" fill="rgb(12,12,255)"  stroke="rgb(12,12,255)" stroke-width="1" font-size="16" >H</text>
<text x="345.111650" y="291.680000" fill="rgb(12,12,255)"  stroke="rgb(12,12,255)" stroke-width="1" font-size="13" >2</text>
<text x="351.611650" y="288.000000" fill="rgb(12,12,255)"  stroke="rgb(12,12,255)" stroke-width="1" font-size="16" >N</text>
<text x="422.393682" y="328.000000" fill="rgb(255,12,12)"  stroke="rgb(255,12,12)" stroke-width="1" font-size="16" >OH</text>
<text x="491.675715" y="288.000000" fill="rgb(255,12,12)"  stroke="rgb(255,12,12)" stroke-width="1" font-size="16" >OH</text>
<text x="422.393682" y="208.000000" fill="rgb(255,12,12)"  stroke="rgb(255,12,12)" stroke-width="1" font-size="16" >O</text>
<text x="491.675715" y="168.000000" fill="rgb(255,12,12)"  stroke="rgb(255,12,12)" stroke-width="1" font-size="16" >OH</text>
<text x="355.111650" y="48.000000" fill="rgb(12,12,255)"  stroke="rgb(12,12,255)" stroke-width="1" font-size="16" >NH</text>
<text x="379.111650" y="51.680000" fill="rgb(12,12,255)"  stroke="rgb(12,12,255)" stroke-width="1" font-size="13" >2</text>
<text x="424.393682" y="168.000000" fill="rgb(12,12,255)"  stroke="rgb(12,12,255)" stroke-width="1" font-size="16" >NH</text>
<text x="448.393682" y="171.680000" fill="rgb(12,12,255)"  stroke="rgb(12,12,255)" stroke-width="1" font-size="13" >2</text>
<text x="283.829618" y="168.000000" fill="rgb(255,12,12)"  stroke="rgb(255,12,12)" stroke-width="1" font-size="16" >O</text>
<text x="271.829618" y="88.000000" fill="rgb(255,12,12)"  stroke="rgb(255,12,12)" stroke-width="1" font-size="16" >HO</text>
<text x="192.330316" y="203.395370" fill="rgb(255,12,12)"  stroke="rgb(255,12,12)" stroke-width="1" font-size="16" >HO</text>
<text x="146.100683" y="138.724811" fill="rgb(255,12,12)"  stroke="rgb(255,12,12)" stroke-width="1" font-size="16" >O</text>
<text x="245.007463" y="108.219124" fill="rgb(255,12,12)"  stroke="rgb(255,12,12)" stroke-width="1" font-size="16" >O</text>
<text x="137.831217" y="59.179700" fill="rgb(255,12,12)"  stroke="rgb(255,12,12)" stroke-width="1" font-size="16" >HO</text>
<text x="46.538931" y="147.087088" fill="rgb(12,12,255)"  stroke="rgb(12,12,255)" stroke-width="1" font-size="16" >H</text>
<text x="58.538931" y="150.767088" fill="rgb(12,12,255)"  stroke="rgb(12,12,255)" stroke-width="1" font-size="13" >2</text>
<text x="65.038931" y="147.087088" fill="rgb(12,12,255)"  stroke="rgb(12,12,255)" stroke-width="1" font-size="16" >N</text>
<text x="22.000000" y="220.170725" fill="rgb(255,12,12)"  stroke="rgb(255,12,12)" stroke-width="1" font-size="16" >HO</text>
<text x="69.022820" y="284.892084" fill="rgb(255,12,12)"  stroke="rgb(255,12,12)" stroke-width="1" font-size="16" >HO</text>
<text x="153.342627" y="207.627309" fill="rgb(255,12,12)"  stroke="rgb(255,12,12)" stroke-width="1" font-size="16" >O</text>
<text x="124.315106" y="313.071626" fill="rgb(12,12,255)"  stroke="rgb(12,12,255)" stroke-width="1" font-size="16" >H</text>
<text x="136.315106" y="316.751626" fill="rgb(12,12,255)"  stroke="rgb(12,12,255)" stroke-width="1" font-size="13" >2</text>
<text x="142.815106" y="313.071626" fill="rgb(12,12,255)"  stroke="rgb(12,12,255)" stroke-width="1" font-size="16" >N</text>
<text font-size="18.000000" fill ="black" font-family="sans-serif"
x="10.000000" y="20.000000" >lig.pdb</text>
<title>lig.pdb - OBDepict</title>
</svg>
