<?xml version="1.0"?>
<svg xmlns="http://www.w3.org/2000/svg"
xmlns:xlink="http://www.w3.org/1999/xlink" xmlns:cml="http://www.xml-cml.org/schema" width="518" height="358.369" x="0" y="0" font-family="sans-serif" stroke="rgb(0,0,0)" stroke-width="1"  stroke-linecap="round">
<rect x="0%" y="0%" width="100%" height="100%" stroke-width="0" fill="rgb(255,255,255)"  />
<line x1="440.0" y1="238.1" x2="434.3" y2="211.7" stroke="rgb(0,0,0)"  stroke-width="1.0"/>
<line x1="440.0" y1="238.1" x2="465.6" y2="246.4" stroke="rgb(0,0,0)"  stroke-width="1.0"/>
<line x1="205.0" y1="82.2" x2="178.6" y2="76.6" stroke="rgb(0,0,0)"  stroke-width="1.0"/>
<line x1="347.2" y1="135.1" x2="341.6" y2="108.7" stroke="rgb(0,0,0)"  stroke-width="1.0"/>
<line x1="347.2" y1="135.1" x2="372.9" y2="143.4" stroke="rgb(0,0,0)"  stroke-width="1.0"/>
<polygon points="372.190149 252.477409 398.914531 256.954838 396.442395 264.563291 " stroke-width="1.000000" fill="rgb(0,0,0)"  stroke="rgb(0,0,0)" />
<line x1="419.9" y1="256.1" x2="440.0" y2="238.1" stroke="rgb(0,0,0)"  stroke-width="1.0"/>
<polygon points="249.746899 176.269466 259.231523 201.652175 251.406342 203.315468 " stroke-width="1.000000" fill="rgb(0,0,0)"  stroke="rgb(0,0,0)" />
<polygon points="143.923048 160.000000 169.132529 169.935898 165.132529 176.864102 " stroke-width="1.000000" fill="rgb(0,0,0)"  stroke="rgb(0,0,0)" />
<line x1="367.3" y1="209.2" x2="368.4" y2="210.4" stroke="rgb(0,0,0)"  stroke-width="1.0"/>
<line x1="370.1" y1="205.8" x2="372.0" y2="208.0" stroke="rgb(0,0,0)"  stroke-width="1.0"/>
<line x1="372.8" y1="202.5" x2="375.6" y2="205.6" stroke="rgb(0,0,0)"  stroke-width="1.0"/>
<line x1="375.6" y1="199.1" x2="379.2" y2="203.2" stroke="rgb(0,0,0)"  stroke-width="1.0"/>
<line x1="378.4" y1="195.8" x2="382.9" y2="200.8" stroke="rgb(0,0,0)"  stroke-width="1.0"/>
<line x1="381.1" y1="192.4" x2="386.5" y2="198.4" stroke="rgb(0,0,0)"  stroke-width="1.0"/>
<line x1="209.0" y1="163.4" x2="208.2" y2="162.0" stroke="rgb(0,0,0)"  stroke-width="1.0"/>
<line x1="205.6" y1="166.1" x2="204.1" y2="163.6" stroke="rgb(0,0,0)"  stroke-width="1.0"/>
<line x1="202.2" y1="168.8" x2="200.1" y2="165.2" stroke="rgb(0,0,0)"  stroke-width="1.0"/>
<line x1="198.8" y1="171.5" x2="196.1" y2="166.8" stroke="rgb(0,0,0)"  stroke-width="1.0"/>
<line x1="195.4" y1="174.2" x2="192.0" y2="168.3" stroke="rgb(0,0,0)"  stroke-width="1.0"/>
<line x1="192.0" y1="176.9" x2="188.0" y2="169.9" stroke="rgb(0,0,0)"  stroke-width="1.0"/>
<polygon points="109.282032 180.000000 113.282032 206.800000 105.282032 206.800000 " stroke-width="1.000000" fill="rgb(0,0,0)"  stroke="rgb(0,0,0)" />
<line x1="98.0" y1="226.5" x2="85.9" y2="233.5" stroke="rgb(0,0,0)"  stroke-width="1.0"/>
<polygon points="325.831420 200.990825 316.346797 175.608116 324.171977 173.944823 " stroke-width="1.000000" fill="rgb(0,0,0)"  stroke="rgb(0,0,0)" />
<line x1="327.2" y1="153.2" x2="347.2" y2="135.1" stroke="rgb(0,0,0)"  stroke-width="1.0"/>
<polygon points="217.386219 120.219124 201.221313 83.412932 208.829766 80.940796 " stroke-width="1.000000" fill="rgb(0,0,0)"  stroke="rgb(0,0,0)" />
<line x1="217.4" y1="120.2" x2="191.0" y2="114.6" stroke="rgb(0,0,0)"  stroke-width="1.0"/>
<line x1="70.4" y1="163.4" x2="69.6" y2="162.0" stroke="rgb(0,0,0)"  stroke-width="1.0"/>
<line x1="67.0" y1="166.1" x2="65.6" y2="163.6" stroke="rgb(0,0,0)"  stroke-width="1.0"/>
<line x1="63.6" y1="168.8" x2="61.5" y2="165.2" stroke="rgb(0,0,0)"  stroke-width="1.0"/>
<line x1="60.2" y1="171.5" x2="57.5" y2="166.8" stroke="rgb(0,0,0)"  stroke-width="1.0"/>
<line x1="56.8" y1="174.2" x2="53.5" y2="168.3" stroke="rgb(0,0,0)"  stroke-width="1.0"/>
<line x1="53.4" y1="176.9" x2="49.4" y2="169.9" stroke="rgb(0,0,0)"  stroke-width="1.0"/>
<line x1="290.8" y1="226.9" x2="291.3" y2="225.3" stroke="rgb(0,0,0)"  stroke-width="1.0"/>
<line x1="286.5" y1="226.1" x2="287.4" y2="223.4" stroke="rgb(0,0,0)"  stroke-width="1.0"/>
<line x1="282.2" y1="225.4" x2="283.5" y2="221.5" stroke="rgb(0,0,0)"  stroke-width="1.0"/>
<line x1="277.9" y1="224.7" x2="279.6" y2="219.5" stroke="rgb(0,0,0)"  stroke-width="1.0"/>
<line x1="273.7" y1="224.0" x2="275.7" y2="217.6" stroke="rgb(0,0,0)"  stroke-width="1.0"/>
<line x1="269.4" y1="223.3" x2="271.9" y2="215.7" stroke="rgb(0,0,0)"  stroke-width="1.0"/>
<line x1="258.0" y1="106.7" x2="259.4" y2="107.3" stroke="rgb(0,0,0)"  stroke-width="1.0"/>
<line x1="259.1" y1="102.5" x2="261.8" y2="103.7" stroke="rgb(0,0,0)"  stroke-width="1.0"/>
<line x1="260.3" y1="98.3" x2="264.1" y2="100.0" stroke="rgb(0,0,0)"  stroke-width="1.0"/>
<line x1="261.4" y1="94.1" x2="266.4" y2="96.4" stroke="rgb(0,0,0)"  stroke-width="1.0"/>
<line x1="262.6" y1="90.0" x2="268.7" y2="92.7" stroke="rgb(0,0,0)"  stroke-width="1.0"/>
<line x1="263.8" y1="85.8" x2="271.1" y2="89.0" stroke="rgb(0,0,0)"  stroke-width="1.0"/>
<polygon points="74.641016 120.000000 49.431535 110.064102 53.431535 103.135898 " stroke-width="1.000000" fill="rgb(0,0,0)"  stroke="rgb(0,0,0)" />
<polygon points="304.422095 266.881954 287.182336 287.787233 281.829291 281.842075 " stroke-width="1.000000" fill="rgb(0,0,0)"  stroke="rgb(0,0,0)" />
<line x1="108.5" y1="92.0" x2="110.1" y2="92.0" stroke="rgb(0,0,0)"  stroke-width="1.0"/>
<line x1="107.8" y1="85.6" x2="110.7" y2="85.6" stroke="rgb(0,0,0)"  stroke-width="1.0"/>
<line x1="107.2" y1="79.2" x2="111.4" y2="79.2" stroke="rgb(0,0,0)"  stroke-width="1.0"/>
<line x1="106.6" y1="72.8" x2="112.0" y2="72.8" stroke="rgb(0,0,0)"  stroke-width="1.0"/>
<line x1="105.9" y1="66.4" x2="112.6" y2="66.4" stroke="rgb(0,0,0)"  stroke-width="1.0"/>
<line x1="105.3" y1="60.0" x2="113.3" y2="60.0" stroke="rgb(0,0,0)"  stroke-width="1.0"/>
<line x1="344.4" y1="284.3" x2="342.8" y2="284.7" stroke="rgb(0,0,0)"  stroke-width="1.0"/>
<line x1="345.9" y1="288.4" x2="343.1" y2="289.0" stroke="rgb(0,0,0)"  stroke-width="1.0"/>
<line x1="347.4" y1="292.4" x2="343.3" y2="293.3" stroke="rgb(0,0,0)"  stroke-width="1.0"/>
<line x1="348.9" y1="296.5" x2="343.6" y2="297.6" stroke="rgb(0,0,0)"  stroke-width="1.0"/>
<line x1="350.4" y1="300.6" x2="343.9" y2="302.0" stroke="rgb(0,0,0)"  stroke-width="1.0"/>
<line x1="351.9" y1="304.6" x2="344.1" y2="306.3" stroke="rgb(0,0,0)"  stroke-width="1.0"/>
<line x1="109.3" y1="60.0" x2="85.9" y2="46.5" stroke="rgb(0,0,0)"  stroke-width="1.0"/>
<line x1="249.7" y1="176.3" x2="213.2" y2="160.0" stroke="rgb(0,0,0)"  stroke-width="1.0"/>
<line x1="213.2" y1="160.0" x2="217.4" y2="120.2" stroke="rgb(0,0,0)"  stroke-width="1.0"/>
<line x1="217.4" y1="120.2" x2="256.5" y2="111.9" stroke="rgb(0,0,0)"  stroke-width="1.0"/>
<line x1="256.5" y1="111.9" x2="270.0" y2="135.3" stroke="rgb(0,0,0)"  stroke-width="1.0"/>
<line x1="267.8" y1="156.2" x2="249.7" y2="176.3" stroke="rgb(0,0,0)"  stroke-width="1.0"/>
<line x1="372.2" y1="252.5" x2="363.9" y2="213.4" stroke="rgb(0,0,0)"  stroke-width="1.0"/>
<line x1="363.9" y1="213.4" x2="325.8" y2="201.0" stroke="rgb(0,0,0)"  stroke-width="1.0"/>
<line x1="325.8" y1="201.0" x2="296.1" y2="227.8" stroke="rgb(0,0,0)"  stroke-width="1.0"/>
<line x1="296.1" y1="227.8" x2="304.4" y2="266.9" stroke="rgb(0,0,0)"  stroke-width="1.0"/>
<line x1="304.4" y1="266.9" x2="342.5" y2="279.2" stroke="rgb(0,0,0)"  stroke-width="1.0"/>
<line x1="342.5" y1="279.2" x2="372.2" y2="252.5" stroke="rgb(0,0,0)"  stroke-width="1.0"/>
<line x1="143.9" y1="160.0" x2="109.3" y2="180.0" stroke="rgb(0,0,0)"  stroke-width="1.0"/>
<line x1="109.3" y1="180.0" x2="74.6" y2="160.0" stroke="rgb(0,0,0)"  stroke-width="1.0"/>
<line x1="74.6" y1="160.0" x2="74.6" y2="120.0" stroke="rgb(0,0,0)"  stroke-width="1.0"/>
<line x1="74.6" y1="120.0" x2="109.3" y2="100.0" stroke="rgb(0,0,0)"  stroke-width="1.0"/>
<line x1="109.3" y1="100.0" x2="132.7" y2="113.5" stroke="rgb(0,0,0)"  stroke-width="1.0"/>
<line x1="143.9" y1="133.0" x2="143.9" y2="160.0" stroke="rgb(0,0,0)"  stroke-width="1.0"/>
<text x="405.641735" y="206.946961" fill="rgb(12,12,255)"  stroke="rgb(12,12,255)" stroke-width="1" font-size="16" >H</text>
<text x="417.641735" y="210.626961" fill="rgb(12,12,255)"  stroke="rgb(12,12,255)" stroke-width="1" font-size="13" >2</text>
<text x="424.141735" y="206.946961" fill="rgb(12,12,255)"  stroke="rgb(12,12,255)" stroke-width="1" font-size="16" >N</text>
<text x="147.899635" y="81.860396" fill="rgb(255,12,12)"  stroke="rgb(255,12,12)" stroke-width="1" font-size="16" >HO</text>
<text x="312.924278" y="103.973793" fill="rgb(12,12,255)"  stroke="rgb(12,12,255)" stroke-width="1" font-size="16" >H</text>
<text x="324.924278" y="107.653793" fill="rgb(12,12,255)"  stroke="rgb(12,12,255)" stroke-width="1" font-size="13" >2</text>
<text x="331.424278" y="103.973793" fill="rgb(12,12,255)"  stroke="rgb(12,12,255)" stroke-width="1" font-size="16" >N</text>
<text x="268.781589" y="83.360838" fill="rgb(102,102,102)"  stroke="rgb(102,102,102)" stroke-width="1" font-size="16" >CH</text>
<text x="292.781589" y="87.040838" fill="rgb(102,102,102)"  stroke="rgb(102,102,102)" stroke-width="1" font-size="13" >3</text>
<text x="48.641016" y="248.000000" fill="rgb(102,102,102)"  stroke="rgb(102,102,102)" stroke-width="1" font-size="16" >H</text>
<text x="60.641016" y="251.680000" fill="rgb(102,102,102)"  stroke="rgb(102,102,102)" stroke-width="1" font-size="13" >3</text>
<text x="67.141016" y="248.000000" fill="rgb(102,102,102)"  stroke="rgb(102,102,102)" stroke-width="1" font-size="16" >C</text>
<text x="404.232409" y="272.838089" fill="rgb(12,12,255)"  stroke="rgb(12,12,255)" stroke-width="1" font-size="16" >N</text>
<text x="404.232409" y="288.838089" fill="rgb(12,12,255)"  stroke="rgb(12,12,255)" stroke-width="1" font-size="16" >H</text>
<text x="172.564065" y="188.000000" fill="rgb(255,12,12)"  stroke="rgb(255,12,12)" stroke-width="1" font-size="16" >O</text>
<text x="387.599474" y="194.586281" fill="rgb(255,12,12)"  stroke="rgb(255,12,12)" stroke-width="1" font-size="16" >OH</text>
<text x="103.282032" y="228.000000" fill="rgb(12,12,255)"  stroke="rgb(12,12,255)" stroke-width="1" font-size="16" >NH</text>
<text x="299.514953" y="169.864921" fill="rgb(12,12,255)"  stroke="rgb(12,12,255)" stroke-width="1" font-size="16" >HN</text>
<text x="160.260315" y="119.902657" fill="rgb(255,12,12)"  stroke="rgb(255,12,12)" stroke-width="1" font-size="16" >HO</text>
<text x="22.000000" y="188.000000" fill="rgb(255,12,12)"  stroke="rgb(255,12,12)" stroke-width="1" font-size="16" >HO</text>
<text x="252.063367" y="223.395370" fill="rgb(255,12,12)"  stroke="rgb(255,12,12)" stroke-width="1" font-size="16" >O</text>
<text x="270.512123" y="154.543673" fill="rgb(255,12,12)"  stroke="rgb(255,12,12)" stroke-width="1" font-size="16" >O</text>
<text x="22.000000" y="108.000000" fill="rgb(255,12,12)"  stroke="rgb(255,12,12)" stroke-width="1" font-size="16" >HO</text>
<text x="256.696302" y="301.647178" fill="rgb(255,12,12)"  stroke="rgb(255,12,12)" stroke-width="1" font-size="16" >HO</text>
<text x="137.923048" y="128.000000" fill="rgb(255,12,12)"  stroke="rgb(255,12,12)" stroke-width="1" font-size="16" >O</text>
<text x="344.780823" y="326.368537" fill="rgb(255,12,12)"  stroke="rgb(255,12,12)" stroke-width="1" font-size="16" >OH</text>
<text x="56.641016" y="48.000000" fill="rgb(255,12,12)"  stroke="rgb(255,12,12)" stroke-width="1" font-size="16" >HO</text>
<text x="474.000463" y="258.433544" fill="rgb(12,12,255)"  stroke="rgb(12,12,255)" stroke-width="1" font-size="16" >NH</text>
<text x="498.000463" y="262.113544" fill="rgb(12,12,255)"  stroke="rgb(12,12,255)" stroke-width="1" font-size="13" >2</text>
<text x="381.283006" y="155.460377" fill="rgb(12,12,255)"  stroke="rgb(12,12,255)" stroke-width="1" font-size="16" >NH</text>
<text x="405.283006" y="159.140377" fill="rgb(12,12,255)"  stroke="rgb(12,12,255)" stroke-width="1" font-size="13" >2</text>
<text font-size="18.000000" fill ="black" font-family="sans-serif"
x="10.000000" y="20.000000" ></text>
<title> - OBDepict</title>
</svg>
