<?xml version="1.0"?>
<svg xmlns="http://www.w3.org/2000/svg"
xmlns:xlink="http://www.w3.org/1999/xlink" xmlns:cml="http://www.xml-cml.org/schema" width="410.809" height="398.315" x="0" y="0" font-family="sans-serif" stroke="rgb(0,0,0)" stroke-width="1"  stroke-linecap="round">
<rect x="0%" y="0%" width="100%" height="100%" stroke-width="0" fill="rgb(255,255,255)"  />
<line x1="160.8" y1="95.9" x2="159.2" y2="95.9" stroke="rgb(0,0,0)"  stroke-width="1.0"/>
<line x1="161.4" y1="98.1" x2="158.6" y2="98.1" stroke="rgb(0,0,0)"  stroke-width="1.0"/>
<line x1="162.1" y1="100.3" x2="157.9" y2="100.3" stroke="rgb(0,0,0)"  stroke-width="1.0"/>
<line x1="162.7" y1="102.4" x2="157.3" y2="102.4" stroke="rgb(0,0,0)"  stroke-width="1.0"/>
<line x1="163.4" y1="104.6" x2="156.6" y2="104.6" stroke="rgb(0,0,0)"  stroke-width="1.0"/>
<line x1="164.0" y1="106.8" x2="156.0" y2="106.8" stroke="rgb(0,0,0)"  stroke-width="1.0"/>
<line x1="173.0" y1="80.0" x2="187.0" y2="80.0" stroke="rgb(0,0,0)"  stroke-width="1.0"/>
<line x1="157.0" y1="67.0" x2="157.0" y2="53.0" stroke="rgb(0,0,0)"  stroke-width="1.0"/>
<line x1="163.0" y1="67.0" x2="163.0" y2="53.0" stroke="rgb(0,0,0)"  stroke-width="1.0"/>
<line x1="79.2" y1="64.1" x2="80.8" y2="64.1" stroke="rgb(0,0,0)"  stroke-width="1.0"/>
<line x1="78.6" y1="61.9" x2="81.4" y2="61.9" stroke="rgb(0,0,0)"  stroke-width="1.0"/>
<line x1="77.9" y1="59.7" x2="82.1" y2="59.7" stroke="rgb(0,0,0)"  stroke-width="1.0"/>
<line x1="77.3" y1="57.6" x2="82.7" y2="57.6" stroke="rgb(0,0,0)"  stroke-width="1.0"/>
<line x1="76.6" y1="55.4" x2="83.4" y2="55.4" stroke="rgb(0,0,0)"  stroke-width="1.0"/>
<line x1="76.0" y1="53.2" x2="84.0" y2="53.2" stroke="rgb(0,0,0)"  stroke-width="1.0"/>
<line x1="67.0" y1="83.0" x2="53.0" y2="83.0" stroke="rgb(0,0,0)"  stroke-width="1.0"/>
<line x1="67.0" y1="77.0" x2="53.0" y2="77.0" stroke="rgb(0,0,0)"  stroke-width="1.0"/>
<line x1="93.0" y1="80.0" x2="107.0" y2="80.0" stroke="rgb(0,0,0)"  stroke-width="1.0"/>
<polygon points="66.800000 160.000000 53.200000 164.000000 53.200000 156.000000 " stroke-width="1.000000" fill="rgb(0,0,0)"  stroke="rgb(0,0,0)" />
<line x1="80.0" y1="173.0" x2="80.0" y2="187.0" stroke="rgb(0,0,0)"  stroke-width="1.0"/>
<line x1="80.0" y1="147.0" x2="80.0" y2="133.0" stroke="rgb(0,0,0)"  stroke-width="1.0"/>
<line x1="93.0" y1="157.0" x2="107.0" y2="157.0" stroke="rgb(0,0,0)"  stroke-width="1.0"/>
<line x1="93.0" y1="163.0" x2="107.0" y2="163.0" stroke="rgb(0,0,0)"  stroke-width="1.0"/>
<polygon points="194.641016 180.000000 190.641016 140.000000 198.641016 140.000000 " stroke-width="1.000000" fill="rgb(0,0,0)"  stroke="rgb(0,0,0)" />
<line x1="194.6" y1="140.0" x2="171.3" y2="126.5" stroke="rgb(0,0,0)"  stroke-width="1.0"/>
<line x1="156.9" y1="202.6" x2="157.4" y2="201.1" stroke="rgb(0,0,0)"  stroke-width="1.0"/>
<line x1="152.7" y1="201.9" x2="153.5" y2="199.2" stroke="rgb(0,0,0)"  stroke-width="1.0"/>
<line x1="148.4" y1="201.2" x2="149.7" y2="197.2" stroke="rgb(0,0,0)"  stroke-width="1.0"/>
<line x1="144.1" y1="200.5" x2="145.8" y2="195.3" stroke="rgb(0,0,0)"  stroke-width="1.0"/>
<line x1="139.8" y1="199.8" x2="141.9" y2="193.4" stroke="rgb(0,0,0)"  stroke-width="1.0"/>
<line x1="135.6" y1="199.0" x2="138.0" y2="191.4" stroke="rgb(0,0,0)"  stroke-width="1.0"/>
<line x1="172.1" y1="246.4" x2="170.8" y2="245.4" stroke="rgb(0,0,0)"  stroke-width="1.0"/>
<line x1="170.1" y1="250.2" x2="167.8" y2="248.5" stroke="rgb(0,0,0)"  stroke-width="1.0"/>
<line x1="168.1" y1="254.1" x2="164.8" y2="251.6" stroke="rgb(0,0,0)"  stroke-width="1.0"/>
<line x1="166.1" y1="257.9" x2="161.7" y2="254.7" stroke="rgb(0,0,0)"  stroke-width="1.0"/>
<line x1="164.1" y1="261.7" x2="158.7" y2="257.8" stroke="rgb(0,0,0)"  stroke-width="1.0"/>
<line x1="162.1" y1="265.6" x2="155.7" y2="260.9" stroke="rgb(0,0,0)"  stroke-width="1.0"/>
<polygon points="214.641016 241.553671 233.629729 260.884185 227.157593 265.586467 " stroke-width="1.000000" fill="rgb(0,0,0)"  stroke="rgb(0,0,0)" />
<line x1="344.0" y1="252.5" x2="362.1" y2="232.4" stroke="rgb(0,0,0)"  stroke-width="1.0"/>
<line x1="147.0" y1="80.0" x2="133.0" y2="80.0" stroke="rgb(0,0,0)"  stroke-width="1.0"/>
<line x1="80.0" y1="93.0" x2="80.0" y2="107.0" stroke="rgb(0,0,0)"  stroke-width="1.0"/>
<line x1="329.6" y1="320.3" x2="338.0" y2="346.0" stroke="rgb(0,0,0)"  stroke-width="1.0"/>
<line x1="194.6" y1="180.0" x2="162.3" y2="203.5" stroke="rgb(0,0,0)"  stroke-width="1.0"/>
<line x1="162.3" y1="203.5" x2="174.6" y2="241.6" stroke="rgb(0,0,0)"  stroke-width="1.0"/>
<line x1="174.6" y1="241.6" x2="214.6" y2="241.6" stroke="rgb(0,0,0)"  stroke-width="1.0"/>
<line x1="214.6" y1="241.6" x2="223.0" y2="215.9" stroke="rgb(0,0,0)"  stroke-width="1.0"/>
<line x1="216.5" y1="195.9" x2="194.6" y2="180.0" stroke="rgb(0,0,0)"  stroke-width="1.0"/>
<line x1="225.8" y1="312.0" x2="234.1" y2="286.3" stroke="rgb(0,0,0)"  stroke-width="1.0"/>
<line x1="251.2" y1="273.9" x2="278.2" y2="273.9" stroke="rgb(0,0,0)"  stroke-width="1.0"/>
<line x1="278.2" y1="273.9" x2="290.5" y2="312.0" stroke="rgb(0,0,0)"  stroke-width="1.0"/>
<line x1="290.5" y1="312.0" x2="268.7" y2="327.8" stroke="rgb(0,0,0)"  stroke-width="1.0"/>
<line x1="247.5" y1="327.7" x2="225.8" y2="312.0" stroke="rgb(0,0,0)"  stroke-width="1.0"/>
<line x1="250.1" y1="320.7" x2="234.9" y2="309.7" stroke="rgb(0,0,0)"  stroke-width="1.0"/>
<line x1="344.0" y1="252.5" x2="352.3" y2="278.0" stroke="rgb(0,0,0)"  stroke-width="1.0"/>
<line x1="339.1" y1="260.4" x2="344.9" y2="278.3" stroke="rgb(0,0,0)"  stroke-width="1.0"/>
<line x1="347.7" y1="300.2" x2="329.6" y2="320.3" stroke="rgb(0,0,0)"  stroke-width="1.0"/>
<line x1="329.6" y1="320.3" x2="290.5" y2="312.0" stroke="rgb(0,0,0)"  stroke-width="1.0"/>
<line x1="325.3" y1="312.0" x2="297.9" y2="306.2" stroke="rgb(0,0,0)"  stroke-width="1.0"/>
<line x1="278.2" y1="273.9" x2="296.1" y2="254.0" stroke="rgb(0,0,0)"  stroke-width="1.0"/>
<line x1="287.5" y1="274.3" x2="300.1" y2="260.3" stroke="rgb(0,0,0)"  stroke-width="1.0"/>
<line x1="317.6" y1="246.9" x2="344.0" y2="252.5" stroke="rgb(0,0,0)"  stroke-width="1.0"/>
<text x="154.000000" y="88.000000" fill="rgb(255,127,0)"  stroke="rgb(255,127,0)" stroke-width="1" font-size="16" >P</text>
<text x="74.000000" y="88.000000" fill="rgb(255,127,0)"  stroke="rgb(255,127,0)" stroke-width="1" font-size="16" >P</text>
<text x="74.000000" y="168.000000" fill="rgb(255,127,0)"  stroke="rgb(255,127,0)" stroke-width="1" font-size="16" >P</text>
<text x="154.000000" y="128.000000" fill="rgb(255,12,12)"  stroke="rgb(255,12,12)" stroke-width="1" font-size="16" >O</text>
<text x="221.001696" y="211.511410" fill="rgb(255,12,12)"  stroke="rgb(255,12,12)" stroke-width="1" font-size="16" >O</text>
<text x="106.238076" y="199.150730" fill="rgb(255,12,12)"  stroke="rgb(255,12,12)" stroke-width="1" font-size="16" >HO</text>
<text x="133.129606" y="281.914351" fill="rgb(255,12,12)"  stroke="rgb(255,12,12)" stroke-width="1" font-size="16" >HO</text>
<text x="350.404234" y="298.547286" fill="rgb(12,12,255)"  stroke="rgb(12,12,255)" stroke-width="1" font-size="16" >N</text>
<text x="204.800000" y="75.968000" fill="rgb(255,12,12)"  stroke="rgb(255,12,12)" stroke-width="1" font-size="32" >-</text>
<text x="194.000000" y="88.000000" fill="rgb(255,12,12)"  stroke="rgb(255,12,12)" stroke-width="1" font-size="16" >O</text>
<text x="84.800000" y="35.968000" fill="rgb(255,12,12)"  stroke="rgb(255,12,12)" stroke-width="1" font-size="32" >-</text>
<text x="74.000000" y="48.000000" fill="rgb(255,12,12)"  stroke="rgb(255,12,12)" stroke-width="1" font-size="16" >O</text>
<text x="22.000000" y="168.000000" fill="rgb(255,12,12)"  stroke="rgb(255,12,12)" stroke-width="1" font-size="16" >HO</text>
<text x="366.808779" y="230.779232" fill="rgb(12,12,255)"  stroke="rgb(12,12,255)" stroke-width="1" font-size="16" >NH</text>
<text x="390.808779" y="234.459232" fill="rgb(12,12,255)"  stroke="rgb(12,12,255)" stroke-width="1" font-size="13" >2</text>
<text x="154.000000" y="48.000000" fill="rgb(255,12,12)"  stroke="rgb(255,12,12)" stroke-width="1" font-size="16" >O</text>
<text x="34.000000" y="88.000000" fill="rgb(255,12,12)"  stroke="rgb(255,12,12)" stroke-width="1" font-size="16" >O</text>
<text x="84.800000" y="195.968000" fill="rgb(255,12,12)"  stroke="rgb(255,12,12)" stroke-width="1" font-size="32" >-</text>
<text x="74.000000" y="208.000000" fill="rgb(255,12,12)"  stroke="rgb(255,12,12)" stroke-width="1" font-size="16" >O</text>
<text x="298.917650" y="252.188557" fill="rgb(12,12,255)"  stroke="rgb(12,12,255)" stroke-width="1" font-size="16" >N</text>
<text x="114.000000" y="88.000000" fill="rgb(255,12,12)"  stroke="rgb(255,12,12)" stroke-width="1" font-size="16" >O</text>
<text x="74.000000" y="128.000000" fill="rgb(255,12,12)"  stroke="rgb(255,12,12)" stroke-width="1" font-size="16" >O</text>
<text x="114.000000" y="168.000000" fill="rgb(255,12,12)"  stroke="rgb(255,12,12)" stroke-width="1" font-size="16" >O</text>
<text x="335.999690" y="366.315339" fill="rgb(255,12,12)"  stroke="rgb(255,12,12)" stroke-width="1" font-size="16" >OH</text>
<text x="252.152426" y="343.468021" fill="rgb(12,12,255)"  stroke="rgb(12,12,255)" stroke-width="1" font-size="16" >N</text>
<text x="232.152426" y="281.914351" fill="rgb(12,12,255)"  stroke="rgb(12,12,255)" stroke-width="1" font-size="16" >N</text>
<text font-size="18.000000" fill ="black" font-family="sans-serif"
x="10.000000" y="20.000000" ></text>
<title> - OBDepict</title>
</svg>
