<?xml version="1.0"?>
<svg xmlns="http://www.w3.org/2000/svg"
xmlns:xlink="http://www.w3.org/1999/xlink" xmlns:cml="http://www.xml-cml.org/schema" width="467.373" height="276.401" x="0" y="0" font-family="sans-serif" stroke="rgb(0,0,0)" stroke-width="1"  stroke-linecap="round">
<rect x="0%" y="0%" width="100%" height="100%" stroke-width="0" fill="rgb(255,255,255)"  />
<polygon points="105.891 190.042 120.851 167.449 126.796 172.802 " stroke-width="1" fill="rgb(0,0,0)"  stroke="rgb(0,0,0)" />
<line x1="105.9" y1="190.0" x2="66.8" y2="181.7" stroke="rgb(0,0,0)"  stroke-width="1.0"/>
<line x1="105.9" y1="190.0" x2="118.3" y2="228.1" stroke="rgb(0,0,0)"  stroke-width="1.0"/>
<line x1="66.8" y1="181.7" x2="58.4" y2="156.0" stroke="rgb(0,0,0)"  stroke-width="1.0"/>
<line x1="66.8" y1="181.7" x2="48.7" y2="201.8" stroke="rgb(0,0,0)"  stroke-width="1.0"/>
<line x1="118.3" y1="228.1" x2="157.4" y2="236.4" stroke="rgb(0,0,0)"  stroke-width="1.0"/>
<line x1="157.4" y1="236.4" x2="175.4" y2="216.3" stroke="rgb(0,0,0)"  stroke-width="1.0"/>
<line x1="180.1" y1="194.3" x2="171.8" y2="168.6" stroke="rgb(0,0,0)"  stroke-width="1.0"/>
<line x1="193.8" y1="145.4" x2="192.6" y2="144.3" stroke="rgb(0,0,0)"  stroke-width="1.0"/>
<line x1="190.0" y1="150.6" x2="187.8" y2="148.6" stroke="rgb(0,0,0)"  stroke-width="1.0"/>
<line x1="186.2" y1="155.8" x2="183.1" y2="153.0" stroke="rgb(0,0,0)"  stroke-width="1.0"/>
<line x1="182.4" y1="160.9" x2="178.3" y2="157.3" stroke="rgb(0,0,0)"  stroke-width="1.0"/>
<line x1="178.6" y1="166.1" x2="173.6" y2="161.6" stroke="rgb(0,0,0)"  stroke-width="1.0"/>
<line x1="174.8" y1="171.3" x2="168.8" y2="166.0" stroke="rgb(0,0,0)"  stroke-width="1.0"/>
<polygon points="190.231013 99.780876 164.121048 92.534516 167.374941 85.226152 " stroke-width="1.000000" fill="rgb(0,0,0)"  stroke="rgb(0,0,0)" />
<polygon points="224.872029 79.780876 223.695305 52.709575 231.651480 53.545803 " stroke-width="1.000000" fill="rgb(0,0,0)"  stroke="rgb(0,0,0)" />
<line x1="259.7" y1="104.6" x2="260.0" y2="106.2" stroke="rgb(0,0,0)"  stroke-width="1.0"/>
<line x1="263.7" y1="103.1" x2="264.3" y2="105.9" stroke="rgb(0,0,0)"  stroke-width="1.0"/>
<line x1="267.8" y1="101.6" x2="268.7" y2="105.7" stroke="rgb(0,0,0)"  stroke-width="1.0"/>
<line x1="271.9" y1="100.1" x2="273.0" y2="105.4" stroke="rgb(0,0,0)"  stroke-width="1.0"/>
<line x1="275.9" y1="98.6" x2="277.3" y2="105.2" stroke="rgb(0,0,0)"  stroke-width="1.0"/>
<line x1="280.0" y1="97.1" x2="281.6" y2="104.9" stroke="rgb(0,0,0)"  stroke-width="1.0"/>
<line x1="392.7" y1="125.0" x2="416.1" y2="111.5" stroke="rgb(0,0,0)"  stroke-width="1.0"/>
<line x1="198.5" y1="138.9" x2="190.2" y2="99.8" stroke="rgb(0,0,0)"  stroke-width="1.0"/>
<line x1="190.2" y1="99.8" x2="224.9" y2="79.8" stroke="rgb(0,0,0)"  stroke-width="1.0"/>
<line x1="224.9" y1="79.8" x2="254.6" y2="106.5" stroke="rgb(0,0,0)"  stroke-width="1.0"/>
<line x1="254.6" y1="106.5" x2="243.6" y2="131.2" stroke="rgb(0,0,0)"  stroke-width="1.0"/>
<line x1="225.4" y1="141.7" x2="198.5" y2="138.9" stroke="rgb(0,0,0)"  stroke-width="1.0"/>
<line x1="310.0" y1="61.7" x2="299.0" y2="86.4" stroke="rgb(0,0,0)"  stroke-width="1.0"/>
<line x1="303.4" y1="106.9" x2="323.4" y2="125.0" stroke="rgb(0,0,0)"  stroke-width="1.0"/>
<line x1="323.4" y1="125.0" x2="358.1" y2="105.0" stroke="rgb(0,0,0)"  stroke-width="1.0"/>
<line x1="358.1" y1="105.0" x2="352.5" y2="78.6" stroke="rgb(0,0,0)"  stroke-width="1.0"/>
<line x1="336.6" y1="64.5" x2="310.0" y2="61.7" stroke="rgb(0,0,0)"  stroke-width="1.0"/>
<line x1="333.9" y1="71.4" x2="315.2" y2="69.5" stroke="rgb(0,0,0)"  stroke-width="1.0"/>
<line x1="358.1" y1="185.0" x2="381.3" y2="171.6" stroke="rgb(0,0,0)"  stroke-width="1.0"/>
<line x1="359.7" y1="175.8" x2="376.0" y2="166.4" stroke="rgb(0,0,0)"  stroke-width="1.0"/>
<line x1="392.7" y1="152.0" x2="392.7" y2="125.0" stroke="rgb(0,0,0)"  stroke-width="1.0"/>
<line x1="392.7" y1="125.0" x2="358.1" y2="105.0" stroke="rgb(0,0,0)"  stroke-width="1.0"/>
<line x1="383.9" y1="128.2" x2="359.7" y2="114.2" stroke="rgb(0,0,0)"  stroke-width="1.0"/>
<line x1="323.4" y1="125.0" x2="323.4" y2="151.8" stroke="rgb(0,0,0)"  stroke-width="1.0"/>
<line x1="330.6" y1="131.0" x2="330.6" y2="149.8" stroke="rgb(0,0,0)"  stroke-width="1.0"/>
<line x1="334.7" y1="171.5" x2="358.1" y2="185.0" stroke="rgb(0,0,0)"  stroke-width="1.0"/>
<text x="128.656353" y="168.316105" fill="rgb(12,12,255)"  stroke="rgb(12,12,255)" stroke-width="1" font-size="16" >NH</text>
<text x="152.656353" y="171.996105" fill="rgb(12,12,255)"  stroke="rgb(12,12,255)" stroke-width="1" font-size="13" >2</text>
<text x="36.404544" y="151.683170" fill="rgb(255,12,12)"  stroke="rgb(255,12,12)" stroke-width="1" font-size="16" >HO</text>
<text x="178.142936" y="214.674834" fill="rgb(178,178,0)"  stroke="rgb(178,178,0)" stroke-width="1" font-size="16" >S</text>
<text x="232.328357" y="151.087918" fill="rgb(255,12,12)"  stroke="rgb(255,12,12)" stroke-width="1" font-size="16" >O</text>
<text x="135.689195" y="91.511410" fill="rgb(255,12,12)"  stroke="rgb(255,12,12)" stroke-width="1" font-size="16" >HO</text>
<text x="223.053168" y="48.000000" fill="rgb(255,12,12)"  stroke="rgb(255,12,12)" stroke-width="1" font-size="16" >OH</text>
<text x="22.000000" y="219.451224" fill="rgb(255,12,12)"  stroke="rgb(255,12,12)" stroke-width="1" font-size="16" >HO</text>
<text x="386.731552" y="172.994857" fill="rgb(12,12,255)"  stroke="rgb(12,12,255)" stroke-width="1" font-size="16" >N</text>
<text x="317.449519" y="172.994857" fill="rgb(12,12,255)"  stroke="rgb(12,12,255)" stroke-width="1" font-size="16" >N</text>
<text x="423.372568" y="112.994857" fill="rgb(12,12,255)"  stroke="rgb(12,12,255)" stroke-width="1" font-size="16" >NH</text>
<text x="447.372568" y="116.674857" fill="rgb(12,12,255)"  stroke="rgb(12,12,255)" stroke-width="1" font-size="13" >2</text>
<text x="343.774068" y="73.868953" fill="rgb(12,12,255)"  stroke="rgb(12,12,255)" stroke-width="1" font-size="16" >N</text>
<text x="287.723726" y="106.229632" fill="rgb(12,12,255)"  stroke="rgb(12,12,255)" stroke-width="1" font-size="16" >N</text>
<text font-size="18.000000" fill ="black" font-family="sans-serif"
x="10.000000" y="20.000000" ></text>
<title> - OBDepict</title>
</svg>
