<?xml version="1.0"?>
<svg xmlns="http://www.w3.org/2000/svg"
xmlns:xlink="http://www.w3.org/1999/xlink" xmlns:cml="http://www.xml-cml.org/schema" width="293.205" height="240" x="0" y="0" font-family="sans-serif" stroke="rgb(0,0,0)" stroke-width="1"  stroke-linecap="round">
<rect x="0%" y="0%" width="100%" height="100%" stroke-width="0" fill="rgb(255,255,255)"  />
<polygon points="200.005 140 186.405 144 186.405 136 " stroke-width="1" fill="rgb(0,0,0)"  stroke="rgb(0,0,0)" />
<line x1="213.2" y1="153.0" x2="213.2" y2="167.0" stroke="rgb(0,0,0)"  stroke-width="1.0"/>
<line x1="226.2" y1="137.0" x2="240.2" y2="137.0" stroke="rgb(0,0,0)"  stroke-width="1.0"/>
<line x1="226.2" y1="143.0" x2="240.2" y2="143.0" stroke="rgb(0,0,0)"  stroke-width="1.0"/>
<line x1="110.1" y1="165.4" x2="108.5" y2="165.4" stroke="rgb(0,0,0)"  stroke-width="1.0"/>
<line x1="110.7" y1="169.6" x2="107.8" y2="169.6" stroke="rgb(0,0,0)"  stroke-width="1.0"/>
<line x1="111.4" y1="173.9" x2="107.2" y2="173.9" stroke="rgb(0,0,0)"  stroke-width="1.0"/>
<line x1="112.0" y1="178.2" x2="106.6" y2="178.2" stroke="rgb(0,0,0)"  stroke-width="1.0"/>
<line x1="112.6" y1="182.5" x2="105.9" y2="182.5" stroke="rgb(0,0,0)"  stroke-width="1.0"/>
<line x1="113.3" y1="186.8" x2="105.3" y2="186.8" stroke="rgb(0,0,0)"  stroke-width="1.0"/>
<line x1="70.4" y1="143.4" x2="69.6" y2="142.0" stroke="rgb(0,0,0)"  stroke-width="1.0"/>
<line x1="67.0" y1="146.1" x2="65.6" y2="143.6" stroke="rgb(0,0,0)"  stroke-width="1.0"/>
<line x1="63.6" y1="148.8" x2="61.5" y2="145.2" stroke="rgb(0,0,0)"  stroke-width="1.0"/>
<line x1="60.2" y1="151.5" x2="57.5" y2="146.8" stroke="rgb(0,0,0)"  stroke-width="1.0"/>
<line x1="56.8" y1="154.2" x2="53.5" y2="148.3" stroke="rgb(0,0,0)"  stroke-width="1.0"/>
<line x1="53.4" y1="156.9" x2="49.4" y2="149.9" stroke="rgb(0,0,0)"  stroke-width="1.0"/>
<polygon points="74.641016 100.000000 49.431535 90.064102 53.431535 83.135898 " stroke-width="1.000000" fill="rgb(0,0,0)"  stroke="rgb(0,0,0)" />
<line x1="108.5" y1="74.6" x2="110.1" y2="74.6" stroke="rgb(0,0,0)"  stroke-width="1.0"/>
<line x1="107.8" y1="70.4" x2="110.7" y2="70.4" stroke="rgb(0,0,0)"  stroke-width="1.0"/>
<line x1="107.2" y1="66.1" x2="111.4" y2="66.1" stroke="rgb(0,0,0)"  stroke-width="1.0"/>
<line x1="106.6" y1="61.8" x2="112.0" y2="61.8" stroke="rgb(0,0,0)"  stroke-width="1.0"/>
<line x1="105.9" y1="57.5" x2="112.6" y2="57.5" stroke="rgb(0,0,0)"  stroke-width="1.0"/>
<line x1="105.3" y1="53.2" x2="113.3" y2="53.2" stroke="rgb(0,0,0)"  stroke-width="1.0"/>
<polygon points="143.923048 100.000000 176.564065 76.535898 180.564065 83.464102 " stroke-width="1.000000" fill="rgb(0,0,0)"  stroke="rgb(0,0,0)" />
<line x1="178.6" y1="80.0" x2="201.9" y2="93.5" stroke="rgb(0,0,0)"  stroke-width="1.0"/>
<line x1="213.2" y1="127.0" x2="213.2" y2="113.0" stroke="rgb(0,0,0)"  stroke-width="1.0"/>
<line x1="74.6" y1="100.0" x2="109.3" y2="80.0" stroke="rgb(0,0,0)"  stroke-width="1.0"/>
<line x1="109.3" y1="80.0" x2="143.9" y2="100.0" stroke="rgb(0,0,0)"  stroke-width="1.0"/>
<line x1="143.9" y1="100.0" x2="143.9" y2="127.0" stroke="rgb(0,0,0)"  stroke-width="1.0"/>
<line x1="132.7" y1="146.5" x2="109.3" y2="160.0" stroke="rgb(0,0,0)"  stroke-width="1.0"/>
<line x1="109.3" y1="160.0" x2="74.6" y2="140.0" stroke="rgb(0,0,0)"  stroke-width="1.0"/>
<line x1="74.6" y1="140.0" x2="74.6" y2="100.0" stroke="rgb(0,0,0)"  stroke-width="1.0"/>
<text x="207.205081" y="148.000000" fill="rgb(255,127,0)"  stroke="rgb(255,127,0)" stroke-width="1" font-size="16" >P</text>
<text x="155.205081" y="148.000000" fill="rgb(255,12,12)"  stroke="rgb(255,12,12)" stroke-width="1" font-size="16" >HO</text>
<text x="218.005081" y="175.968000" fill="rgb(255,12,12)"  stroke="rgb(255,12,12)" stroke-width="1" font-size="32" >-</text>
<text x="207.205081" y="188.000000" fill="rgb(255,12,12)"  stroke="rgb(255,12,12)" stroke-width="1" font-size="16" >O</text>
<text x="247.205081" y="148.000000" fill="rgb(255,12,12)"  stroke="rgb(255,12,12)" stroke-width="1" font-size="16" >O</text>
<text x="103.282032" y="208.000000" fill="rgb(255,12,12)"  stroke="rgb(255,12,12)" stroke-width="1" font-size="16" >OH</text>
<text x="22.000000" y="168.000000" fill="rgb(255,12,12)"  stroke="rgb(255,12,12)" stroke-width="1" font-size="16" >HO</text>
<text x="22.000000" y="88.000000" fill="rgb(255,12,12)"  stroke="rgb(255,12,12)" stroke-width="1" font-size="16" >HO</text>
<text x="103.282032" y="48.000000" fill="rgb(255,12,12)"  stroke="rgb(255,12,12)" stroke-width="1" font-size="16" >OH</text>
<text x="137.923048" y="148.000000" fill="rgb(255,12,12)"  stroke="rgb(255,12,12)" stroke-width="1" font-size="16" >O</text>
<text x="207.205081" y="108.000000" fill="rgb(255,12,12)"  stroke="rgb(255,12,12)" stroke-width="1" font-size="16" >O</text>
<text font-size="18.000000" fill ="black" font-family="sans-serif"
x="10.000000" y="20.000000" ></text>
<title> - OBDepict</title>
</svg>
