<?xml version="1.0"?>
<svg xmlns="http://www.w3.org/2000/svg"
xmlns:xlink="http://www.w3.org/1999/xlink" xmlns:cml="http://www.xml-cml.org/schema" width="586.801" height="439.441" x="0" y="0" font-family="sans-serif" stroke="rgb(0,0,0)" stroke-width="1"  stroke-linecap="round">
<rect x="0%" y="0%" width="100%" height="100%" stroke-width="0" fill="rgb(255,255,255)"  />
<polygon points="408.237 299.441 383.027 289.505 387.027 282.577 " stroke-width="1" fill="rgb(0,0,0)"  stroke="rgb(0,0,0)" />
<polygon points="373.596 239.441 377.596 266.241 369.596 266.241 " stroke-width="1" fill="rgb(0,0,0)"  stroke="rgb(0,0,0)" />
<polygon points="408.237 339.441 387.027 356.305 383.027 349.377 " stroke-width="1" fill="rgb(0,0,0)"  stroke="rgb(0,0,0)" />
<line x1="443.7" y1="364.8" x2="442.1" y2="364.8" stroke="rgb(0,0,0)"  stroke-width="1.0"/>
<line x1="444.3" y1="369.1" x2="441.4" y2="369.1" stroke="rgb(0,0,0)"  stroke-width="1.0"/>
<line x1="445.0" y1="373.4" x2="440.8" y2="373.4" stroke="rgb(0,0,0)"  stroke-width="1.0"/>
<line x1="445.6" y1="377.7" x2="440.2" y2="377.7" stroke="rgb(0,0,0)"  stroke-width="1.0"/>
<line x1="446.2" y1="382.0" x2="439.5" y2="382.0" stroke="rgb(0,0,0)"  stroke-width="1.0"/>
<line x1="446.9" y1="386.2" x2="438.9" y2="386.2" stroke="rgb(0,0,0)"  stroke-width="1.0"/>
<polygon points="477.518587 339.440865 502.728068 349.376763 498.728068 356.304966 " stroke-width="1.000000" fill="rgb(0,0,0)"  stroke="rgb(0,0,0)" />
<line x1="484.0" y1="294.7" x2="484.8" y2="296.1" stroke="rgb(0,0,0)"  stroke-width="1.0"/>
<line x1="489.3" y1="291.0" x2="490.7" y2="293.5" stroke="rgb(0,0,0)"  stroke-width="1.0"/>
<line x1="494.5" y1="287.2" x2="496.6" y2="290.8" stroke="rgb(0,0,0)"  stroke-width="1.0"/>
<line x1="499.7" y1="283.5" x2="502.4" y2="288.2" stroke="rgb(0,0,0)"  stroke-width="1.0"/>
<line x1="504.9" y1="279.7" x2="508.3" y2="285.6" stroke="rgb(0,0,0)"  stroke-width="1.0"/>
<line x1="510.2" y1="276.0" x2="514.2" y2="282.9" stroke="rgb(0,0,0)"  stroke-width="1.0"/>
<line x1="512.2" y1="279.4" x2="535.5" y2="292.9" stroke="rgb(0,0,0)"  stroke-width="1.0"/>
<line x1="372.8" y1="154.1" x2="374.4" y2="154.1" stroke="rgb(0,0,0)"  stroke-width="1.0"/>
<line x1="372.2" y1="149.8" x2="375.0" y2="149.8" stroke="rgb(0,0,0)"  stroke-width="1.0"/>
<line x1="371.5" y1="145.5" x2="375.7" y2="145.5" stroke="rgb(0,0,0)"  stroke-width="1.0"/>
<line x1="370.9" y1="141.2" x2="376.3" y2="141.2" stroke="rgb(0,0,0)"  stroke-width="1.0"/>
<line x1="370.2" y1="136.9" x2="377.0" y2="136.9" stroke="rgb(0,0,0)"  stroke-width="1.0"/>
<line x1="369.6" y1="132.6" x2="377.6" y2="132.6" stroke="rgb(0,0,0)"  stroke-width="1.0"/>
<polygon points="338.954522 179.440865 313.745042 169.504966 317.745042 162.576763 " stroke-width="1.000000" fill="rgb(0,0,0)"  stroke="rgb(0,0,0)" />
<line x1="334.7" y1="222.8" x2="333.9" y2="221.4" stroke="rgb(0,0,0)"  stroke-width="1.0"/>
<line x1="331.3" y1="225.5" x2="329.9" y2="223.0" stroke="rgb(0,0,0)"  stroke-width="1.0"/>
<line x1="327.9" y1="228.2" x2="325.8" y2="224.6" stroke="rgb(0,0,0)"  stroke-width="1.0"/>
<line x1="324.5" y1="230.9" x2="321.8" y2="226.2" stroke="rgb(0,0,0)"  stroke-width="1.0"/>
<line x1="321.1" y1="233.6" x2="317.8" y2="227.8" stroke="rgb(0,0,0)"  stroke-width="1.0"/>
<line x1="317.7" y1="236.3" x2="313.7" y2="229.4" stroke="rgb(0,0,0)"  stroke-width="1.0"/>
<polygon points="269.672490 219.440865 294.881971 229.376763 290.881971 236.304966 " stroke-width="1.000000" fill="rgb(0,0,0)"  stroke="rgb(0,0,0)" />
<line x1="413.3" y1="221.4" x2="412.5" y2="222.8" stroke="rgb(0,0,0)"  stroke-width="1.0"/>
<line x1="417.3" y1="223.0" x2="415.9" y2="225.5" stroke="rgb(0,0,0)"  stroke-width="1.0"/>
<line x1="421.3" y1="224.6" x2="419.3" y2="228.2" stroke="rgb(0,0,0)"  stroke-width="1.0"/>
<line x1="425.4" y1="226.2" x2="422.7" y2="230.9" stroke="rgb(0,0,0)"  stroke-width="1.0"/>
<line x1="429.4" y1="227.8" x2="426.1" y2="233.6" stroke="rgb(0,0,0)"  stroke-width="1.0"/>
<line x1="433.4" y1="229.4" x2="429.4" y2="236.3" stroke="rgb(0,0,0)"  stroke-width="1.0"/>
<line x1="232.8" y1="241.1" x2="231.2" y2="240.8" stroke="rgb(0,0,0)"  stroke-width="1.0"/>
<line x1="232.5" y1="245.4" x2="229.7" y2="244.8" stroke="rgb(0,0,0)"  stroke-width="1.0"/>
<line x1="232.3" y1="249.8" x2="228.2" y2="248.9" stroke="rgb(0,0,0)"  stroke-width="1.0"/>
<line x1="232.0" y1="254.1" x2="226.7" y2="253.0" stroke="rgb(0,0,0)"  stroke-width="1.0"/>
<line x1="231.7" y1="258.4" x2="225.2" y2="257.0" stroke="rgb(0,0,0)"  stroke-width="1.0"/>
<line x1="231.5" y1="262.8" x2="223.6" y2="261.1" stroke="rgb(0,0,0)"  stroke-width="1.0"/>
<line x1="201.1" y1="207.3" x2="201.0" y2="205.7" stroke="rgb(0,0,0)"  stroke-width="1.0"/>
<line x1="196.9" y1="208.4" x2="196.6" y2="205.6" stroke="rgb(0,0,0)"  stroke-width="1.0"/>
<line x1="192.7" y1="209.5" x2="192.3" y2="205.4" stroke="rgb(0,0,0)"  stroke-width="1.0"/>
<line x1="188.5" y1="210.6" x2="188.0" y2="205.2" stroke="rgb(0,0,0)"  stroke-width="1.0"/>
<line x1="184.3" y1="211.7" x2="183.6" y2="205.0" stroke="rgb(0,0,0)"  stroke-width="1.0"/>
<line x1="180.1" y1="212.8" x2="179.3" y2="204.8" stroke="rgb(0,0,0)"  stroke-width="1.0"/>
<polygon points="226.365448 171.343521 206.441800 136.428650 213.750164 133.174756 " stroke-width="1.000000" fill="rgb(0,0,0)"  stroke="rgb(0,0,0)" />
<line x1="210.1" y1="134.8" x2="226.0" y2="113.0" stroke="rgb(0,0,0)"  stroke-width="1.0"/>
<line x1="92.3" y1="109.2" x2="93.5" y2="108.3" stroke="rgb(0,0,0)"  stroke-width="1.0"/>
<line x1="89.2" y1="106.1" x2="91.5" y2="104.4" stroke="rgb(0,0,0)"  stroke-width="1.0"/>
<line x1="86.2" y1="103.0" x2="89.5" y2="100.6" stroke="rgb(0,0,0)"  stroke-width="1.0"/>
<line x1="83.1" y1="99.9" x2="87.5" y2="96.7" stroke="rgb(0,0,0)"  stroke-width="1.0"/>
<line x1="80.1" y1="96.8" x2="85.5" y2="92.9" stroke="rgb(0,0,0)"  stroke-width="1.0"/>
<line x1="77.1" y1="93.8" x2="83.5" y2="89.1" stroke="rgb(0,0,0)"  stroke-width="1.0"/>
<polygon points="79.780876 149.625455 53.545803 156.404905 52.709575 148.448730 " stroke-width="1.000000" fill="rgb(0,0,0)"  stroke="rgb(0,0,0)" />
<line x1="101.8" y1="187.2" x2="100.4" y2="186.6" stroke="rgb(0,0,0)"  stroke-width="1.0"/>
<line x1="100.7" y1="191.4" x2="98.1" y2="190.2" stroke="rgb(0,0,0)"  stroke-width="1.0"/>
<line x1="99.5" y1="195.6" x2="95.7" y2="193.9" stroke="rgb(0,0,0)"  stroke-width="1.0"/>
<line x1="98.4" y1="199.7" x2="93.4" y2="197.5" stroke="rgb(0,0,0)"  stroke-width="1.0"/>
<line x1="97.2" y1="203.9" x2="91.1" y2="201.2" stroke="rgb(0,0,0)"  stroke-width="1.0"/>
<line x1="96.0" y1="208.1" x2="88.7" y2="204.8" stroke="rgb(0,0,0)"  stroke-width="1.0"/>
<line x1="146.9" y1="181.7" x2="145.6" y2="182.6" stroke="rgb(0,0,0)"  stroke-width="1.0"/>
<line x1="149.9" y1="184.8" x2="147.6" y2="186.5" stroke="rgb(0,0,0)"  stroke-width="1.0"/>
<line x1="152.9" y1="187.9" x2="149.6" y2="190.3" stroke="rgb(0,0,0)"  stroke-width="1.0"/>
<line x1="156.0" y1="190.9" x2="151.6" y2="194.1" stroke="rgb(0,0,0)"  stroke-width="1.0"/>
<line x1="159.0" y1="194.0" x2="153.6" y2="198.0" stroke="rgb(0,0,0)"  stroke-width="1.0"/>
<line x1="162.1" y1="197.1" x2="155.6" y2="201.8" stroke="rgb(0,0,0)"  stroke-width="1.0"/>
<line x1="138.4" y1="101.3" x2="139.8" y2="101.9" stroke="rgb(0,0,0)"  stroke-width="1.0"/>
<line x1="140.4" y1="95.2" x2="143.0" y2="96.3" stroke="rgb(0,0,0)"  stroke-width="1.0"/>
<line x1="142.4" y1="89.1" x2="146.2" y2="90.7" stroke="rgb(0,0,0)"  stroke-width="1.0"/>
<line x1="144.4" y1="82.9" x2="149.4" y2="85.2" stroke="rgb(0,0,0)"  stroke-width="1.0"/>
<line x1="146.4" y1="76.8" x2="152.6" y2="79.6" stroke="rgb(0,0,0)"  stroke-width="1.0"/>
<line x1="148.4" y1="70.7" x2="155.8" y2="74.0" stroke="rgb(0,0,0)"  stroke-width="1.0"/>
<line x1="152.1" y1="72.4" x2="136.2" y2="50.5" stroke="rgb(0,0,0)"  stroke-width="1.0"/>
<line x1="269.7" y1="219.4" x2="233.1" y2="235.7" stroke="rgb(0,0,0)"  stroke-width="1.0"/>
<line x1="233.1" y1="235.7" x2="206.4" y2="206.0" stroke="rgb(0,0,0)"  stroke-width="1.0"/>
<line x1="206.4" y1="206.0" x2="226.4" y2="171.3" stroke="rgb(0,0,0)"  stroke-width="1.0"/>
<line x1="226.4" y1="171.3" x2="252.8" y2="177.0" stroke="rgb(0,0,0)"  stroke-width="1.0"/>
<line x1="266.9" y1="192.6" x2="269.7" y2="219.4" stroke="rgb(0,0,0)"  stroke-width="1.0"/>
<line x1="408.2" y1="299.4" x2="408.2" y2="339.4" stroke="rgb(0,0,0)"  stroke-width="1.0"/>
<line x1="408.2" y1="339.4" x2="442.9" y2="359.4" stroke="rgb(0,0,0)"  stroke-width="1.0"/>
<line x1="442.9" y1="359.4" x2="477.5" y2="339.4" stroke="rgb(0,0,0)"  stroke-width="1.0"/>
<line x1="477.5" y1="339.4" x2="477.5" y2="299.4" stroke="rgb(0,0,0)"  stroke-width="1.0"/>
<line x1="477.5" y1="299.4" x2="454.1" y2="285.9" stroke="rgb(0,0,0)"  stroke-width="1.0"/>
<line x1="431.6" y1="285.9" x2="408.2" y2="299.4" stroke="rgb(0,0,0)"  stroke-width="1.0"/>
<line x1="339.0" y1="179.4" x2="373.6" y2="159.4" stroke="rgb(0,0,0)"  stroke-width="1.0"/>
<line x1="373.6" y1="159.4" x2="408.2" y2="179.4" stroke="rgb(0,0,0)"  stroke-width="1.0"/>
<line x1="408.2" y1="179.4" x2="408.2" y2="219.4" stroke="rgb(0,0,0)"  stroke-width="1.0"/>
<line x1="408.2" y1="219.4" x2="373.6" y2="239.4" stroke="rgb(0,0,0)"  stroke-width="1.0"/>
<line x1="373.6" y1="239.4" x2="339.0" y2="219.4" stroke="rgb(0,0,0)"  stroke-width="1.0"/>
<line x1="339.0" y1="219.4" x2="339.0" y2="179.4" stroke="rgb(0,0,0)"  stroke-width="1.0"/>
<line x1="79.8" y1="149.6" x2="96.1" y2="113.1" stroke="rgb(0,0,0)"  stroke-width="1.0"/>
<line x1="96.1" y1="113.1" x2="135.8" y2="108.9" stroke="rgb(0,0,0)"  stroke-width="1.0"/>
<line x1="135.8" y1="108.9" x2="151.7" y2="130.7" stroke="rgb(0,0,0)"  stroke-width="1.0"/>
<line x1="154.1" y1="153.1" x2="143.1" y2="177.8" stroke="rgb(0,0,0)"  stroke-width="1.0"/>
<line x1="143.1" y1="177.8" x2="103.3" y2="182.0" stroke="rgb(0,0,0)"  stroke-width="1.0"/>
<line x1="103.3" y1="182.0" x2="79.8" y2="149.6" stroke="rgb(0,0,0)"  stroke-width="1.0"/>
<text x="367.595539" y="287.440865" fill="rgb(255,12,12)"  stroke="rgb(255,12,12)" stroke-width="1" font-size="16" >O</text>
<text x="378.395539" y="355.408865" fill="rgb(12,12,255)"  stroke="rgb(12,12,255)" stroke-width="1" font-size="16" >+</text>
<text x="347.595539" y="367.440865" fill="rgb(12,12,255)"  stroke="rgb(12,12,255)" stroke-width="1" font-size="16" >H</text>
<text x="359.595539" y="371.120865" fill="rgb(12,12,255)"  stroke="rgb(12,12,255)" stroke-width="1" font-size="13" >3</text>
<text x="366.095539" y="367.440865" fill="rgb(12,12,255)"  stroke="rgb(12,12,255)" stroke-width="1" font-size="16" >N</text>
<text x="436.877571" y="407.440865" fill="rgb(255,12,12)"  stroke="rgb(255,12,12)" stroke-width="1" font-size="16" >OH</text>
<text x="506.159603" y="367.440865" fill="rgb(255,12,12)"  stroke="rgb(255,12,12)" stroke-width="1" font-size="16" >OH</text>
<text x="436.877571" y="287.440865" fill="rgb(255,12,12)"  stroke="rgb(255,12,12)" stroke-width="1" font-size="16" >O</text>
<text x="540.800619" y="307.440865" fill="rgb(255,12,12)"  stroke="rgb(255,12,12)" stroke-width="1" font-size="16" >OH</text>
<text x="378.395539" y="115.408865" fill="rgb(12,12,255)"  stroke="rgb(12,12,255)" stroke-width="1" font-size="16" >+</text>
<text x="369.595539" y="127.440865" fill="rgb(12,12,255)"  stroke="rgb(12,12,255)" stroke-width="1" font-size="16" >NH</text>
<text x="393.595539" y="131.120865" fill="rgb(12,12,255)"  stroke="rgb(12,12,255)" stroke-width="1" font-size="13" >3</text>
<text x="286.313506" y="167.440865" fill="rgb(255,12,12)"  stroke="rgb(255,12,12)" stroke-width="1" font-size="16" >HO</text>
<text x="298.313506" y="247.440865" fill="rgb(255,12,12)"  stroke="rgb(255,12,12)" stroke-width="1" font-size="16" >O</text>
<text x="447.677571" y="235.408865" fill="rgb(12,12,255)"  stroke="rgb(12,12,255)" stroke-width="1" font-size="16" >+</text>
<text x="438.877571" y="247.440865" fill="rgb(12,12,255)"  stroke="rgb(12,12,255)" stroke-width="1" font-size="16" >NH</text>
<text x="462.877571" y="251.120865" fill="rgb(12,12,255)"  stroke="rgb(12,12,255)" stroke-width="1" font-size="13" >3</text>
<text x="206.814204" y="282.836234" fill="rgb(255,12,12)"  stroke="rgb(255,12,12)" stroke-width="1" font-size="16" >HO</text>
<text x="259.491352" y="187.659989" fill="rgb(255,12,12)"  stroke="rgb(255,12,12)" stroke-width="1" font-size="16" >O</text>
<text x="227.607392" y="110.441023" fill="rgb(255,12,12)"  stroke="rgb(255,12,12)" stroke-width="1" font-size="16" >OH</text>
<text x="54.538931" y="88.722957" fill="rgb(255,12,12)"  stroke="rgb(255,12,12)" stroke-width="1" font-size="16" >HO</text>
<text x="22.000000" y="161.806593" fill="rgb(255,12,12)"  stroke="rgb(255,12,12)" stroke-width="1" font-size="16" >HO</text>
<text x="91.822820" y="214.495953" fill="rgb(12,12,255)"  stroke="rgb(12,12,255)" stroke-width="1" font-size="16" >+</text>
<text x="61.022820" y="226.527953" fill="rgb(12,12,255)"  stroke="rgb(12,12,255)" stroke-width="1" font-size="16" >H</text>
<text x="73.022820" y="230.207953" fill="rgb(12,12,255)"  stroke="rgb(12,12,255)" stroke-width="1" font-size="13" >3</text>
<text x="79.522820" y="226.527953" fill="rgb(12,12,255)"  stroke="rgb(12,12,255)" stroke-width="1" font-size="16" >N</text>
<text x="160.584572" y="218.165676" fill="rgb(255,12,12)"  stroke="rgb(255,12,12)" stroke-width="1" font-size="16" >O</text>
<text x="153.342627" y="149.263178" fill="rgb(255,12,12)"  stroke="rgb(255,12,12)" stroke-width="1" font-size="16" >O</text>
<text x="133.389273" y="35.968000" fill="rgb(12,12,255)"  stroke="rgb(12,12,255)" stroke-width="1" font-size="16" >+</text>
<text x="102.589273" y="48.000000" fill="rgb(12,12,255)"  stroke="rgb(12,12,255)" stroke-width="1" font-size="16" >H</text>
<text x="114.589273" y="51.680000" fill="rgb(12,12,255)"  stroke="rgb(12,12,255)" stroke-width="1" font-size="13" >3</text>
<text x="121.089273" y="48.000000" fill="rgb(12,12,255)"  stroke="rgb(12,12,255)" stroke-width="1" font-size="16" >N</text>
<text font-size="18.000000" fill ="black" font-family="sans-serif"
x="10.000000" y="20.000000" >1pbr</text>
<title>1pbr - OBDepict</title>
</svg>
