<?xml version="1.0"?>
<svg xmlns="http://www.w3.org/2000/svg"
xmlns:xlink="http://www.w3.org/1999/xlink" xmlns:cml="http://www.xml-cml.org/schema" width="490.916" height="286.179" x="0" y="0" font-family="sans-serif" stroke="rgb(0,0,0)" stroke-width="1"  stroke-linecap="round">
<rect x="0%" y="0%" width="100%" height="100%" stroke-width="0" fill="rgb(255,255,255)"  />
<polygon points="338.124 65.9121 325.984 58.5927 331.88 53.1854 " stroke-width="1" fill="rgb(0,0,0)"  stroke="rgb(0,0,0)" />
<polygon points="418.16 96.8354 428.922 106.063 422.213 110.42 " stroke-width="1" fill="rgb(0,0,0)"  stroke="rgb(0,0,0)" />
<line x1="423.8" y1="82.1" x2="437.8" y2="81.4" stroke="rgb(0,0,0)"  stroke-width="1.0"/>
<line x1="424.1" y1="88.1" x2="438.1" y2="87.3" stroke="rgb(0,0,0)"  stroke-width="1.0"/>
<line x1="178.6" y1="206.2" x2="201.9" y2="192.7" stroke="rgb(0,0,0)"  stroke-width="1.0"/>
<line x1="178.6" y1="206.2" x2="143.9" y2="186.2" stroke="rgb(0,0,0)"  stroke-width="1.0"/>
<line x1="109.3" y1="206.2" x2="109.3" y2="233.2" stroke="rgb(0,0,0)"  stroke-width="1.0"/>
<line x1="51.3" y1="132.7" x2="74.6" y2="146.2" stroke="rgb(0,0,0)"  stroke-width="1.0"/>
<line x1="251.6" y1="207.5" x2="250.1" y2="207.9" stroke="rgb(0,0,0)"  stroke-width="1.0"/>
<line x1="253.2" y1="211.6" x2="250.3" y2="212.2" stroke="rgb(0,0,0)"  stroke-width="1.0"/>
<line x1="254.7" y1="215.6" x2="250.6" y2="216.5" stroke="rgb(0,0,0)"  stroke-width="1.0"/>
<line x1="256.2" y1="219.7" x2="250.9" y2="220.8" stroke="rgb(0,0,0)"  stroke-width="1.0"/>
<line x1="257.7" y1="223.8" x2="251.1" y2="225.2" stroke="rgb(0,0,0)"  stroke-width="1.0"/>
<line x1="259.2" y1="227.8" x2="251.4" y2="229.5" stroke="rgb(0,0,0)"  stroke-width="1.0"/>
<polygon points="276.512123 172.722300 316.711113 172.925351 315.874885 180.881526 " stroke-width="1.000000" fill="rgb(0,0,0)"  stroke="rgb(0,0,0)" />
<line x1="316.3" y1="176.9" x2="339.8" y2="144.5" stroke="rgb(0,0,0)"  stroke-width="1.0"/>
<line x1="339.8" y1="144.5" x2="328.8" y2="119.9" stroke="rgb(0,0,0)"  stroke-width="1.0"/>
<line x1="339.4" y1="86.2" x2="331.2" y2="97.5" stroke="rgb(0,0,0)"  stroke-width="1.0"/>
<line x1="356.2" y1="84.8" x2="366.1" y2="94.7" stroke="rgb(0,0,0)"  stroke-width="1.0"/>
<line x1="386.9" y1="98.0" x2="399.4" y2="91.7" stroke="rgb(0,0,0)"  stroke-width="1.0"/>
<line x1="408.9" y1="72.9" x2="406.7" y2="59.1" stroke="rgb(0,0,0)"  stroke-width="1.0"/>
<line x1="391.9" y1="44.2" x2="378.0" y2="42.0" stroke="rgb(0,0,0)"  stroke-width="1.0"/>
<line x1="359.3" y1="51.6" x2="352.9" y2="64.1" stroke="rgb(0,0,0)"  stroke-width="1.0"/>
<line x1="217.4" y1="146.4" x2="243.8" y2="140.8" stroke="rgb(0,0,0)"  stroke-width="1.0"/>
<line x1="263.0" y1="149.3" x2="276.5" y2="172.7" stroke="rgb(0,0,0)"  stroke-width="1.0"/>
<line x1="276.5" y1="172.7" x2="249.7" y2="202.4" stroke="rgb(0,0,0)"  stroke-width="1.0"/>
<line x1="249.7" y1="202.4" x2="225.1" y2="191.5" stroke="rgb(0,0,0)"  stroke-width="1.0"/>
<line x1="214.6" y1="173.2" x2="217.4" y2="146.4" stroke="rgb(0,0,0)"  stroke-width="1.0"/>
<line x1="109.3" y1="206.2" x2="86.1" y2="192.8" stroke="rgb(0,0,0)"  stroke-width="1.0"/>
<line x1="107.7" y1="196.9" x2="91.4" y2="187.5" stroke="rgb(0,0,0)"  stroke-width="1.0"/>
<line x1="74.6" y1="173.2" x2="74.6" y2="146.2" stroke="rgb(0,0,0)"  stroke-width="1.0"/>
<line x1="74.6" y1="146.2" x2="97.9" y2="132.8" stroke="rgb(0,0,0)"  stroke-width="1.0"/>
<line x1="83.4" y1="149.4" x2="99.7" y2="140.0" stroke="rgb(0,0,0)"  stroke-width="1.0"/>
<line x1="120.5" y1="132.7" x2="143.9" y2="146.2" stroke="rgb(0,0,0)"  stroke-width="1.0"/>
<line x1="143.9" y1="146.2" x2="143.9" y2="186.2" stroke="rgb(0,0,0)"  stroke-width="1.0"/>
<line x1="136.7" y1="152.2" x2="136.7" y2="180.2" stroke="rgb(0,0,0)"  stroke-width="1.0"/>
<line x1="143.9" y1="186.2" x2="109.3" y2="206.2" stroke="rgb(0,0,0)"  stroke-width="1.0"/>
<text x="14.000000" y="134.178628" fill="rgb(102,102,102)"  stroke="rgb(102,102,102)" stroke-width="1" font-size="16" >H</text>
<text x="26.000000" y="137.858628" fill="rgb(102,102,102)"  stroke="rgb(102,102,102)" stroke-width="1" font-size="13" >3</text>
<text x="32.500000" y="134.178628" fill="rgb(102,102,102)"  stroke="rgb(102,102,102)" stroke-width="1" font-size="16" >C</text>
<text x="254.063367" y="249.573997" fill="rgb(102,102,102)"  stroke="rgb(102,102,102)" stroke-width="1" font-size="16" >CH</text>
<text x="278.063367" y="253.253997" fill="rgb(102,102,102)"  stroke="rgb(102,102,102)" stroke-width="1" font-size="13" >3</text>
<text x="341.046354" y="83.640261" fill="rgb(255,127,0)"  stroke="rgb(255,127,0)" stroke-width="1" font-size="16" >P</text>
<text x="404.970886" y="93.764912" fill="rgb(255,127,0)"  stroke="rgb(255,127,0)" stroke-width="1" font-size="16" >P</text>
<text x="105.282032" y="254.178628" fill="rgb(12,12,255)"  stroke="rgb(12,12,255)" stroke-width="1" font-size="16" >NH</text>
<text x="129.282032" y="257.858628" fill="rgb(12,12,255)"  stroke="rgb(12,12,255)" stroke-width="1" font-size="13" >2</text>
<text x="68.641016" y="194.178628" fill="rgb(12,12,255)"  stroke="rgb(12,12,255)" stroke-width="1" font-size="16" >N</text>
<text x="103.282032" y="134.178628" fill="rgb(12,12,255)"  stroke="rgb(12,12,255)" stroke-width="1" font-size="16" >N</text>
<text x="302.009992" y="54.160859" fill="rgb(255,12,12)"  stroke="rgb(255,12,12)" stroke-width="1" font-size="16" >HO</text>
<text x="398.713507" y="54.257379" fill="rgb(255,12,12)"  stroke="rgb(255,12,12)" stroke-width="1" font-size="16" >O</text>
<text x="250.512123" y="146.081284" fill="rgb(178,178,0)"  stroke="rgb(178,178,0)" stroke-width="1" font-size="16" >S</text>
<text x="359.205974" y="48.000000" fill="rgb(255,12,12)"  stroke="rgb(255,12,12)" stroke-width="1" font-size="16" >O</text>
<text x="437.556447" y="115.279735" fill="rgb(255,12,12)"  stroke="rgb(255,12,12)" stroke-width="1" font-size="32" >-</text>
<text x="426.756447" y="127.311735" fill="rgb(255,12,12)"  stroke="rgb(255,12,12)" stroke-width="1" font-size="16" >O</text>
<text x="207.205081" y="194.178628" fill="rgb(12,12,255)"  stroke="rgb(12,12,255)" stroke-width="1" font-size="16" >N</text>
<text x="369.330625" y="111.924532" fill="rgb(255,12,12)"  stroke="rgb(255,12,12)" stroke-width="1" font-size="16" >O</text>
<text x="444.916067" y="91.671474" fill="rgb(255,12,12)"  stroke="rgb(255,12,12)" stroke-width="1" font-size="16" >O</text>
<text x="317.534944" y="116.000941" fill="rgb(255,12,12)"  stroke="rgb(255,12,12)" stroke-width="1" font-size="16" >O</text>
<text font-size="18.000000" fill ="black" font-family="sans-serif"
x="10.000000" y="20.000000" >ligand</text>
<title>ligand - OBDepict</title>
</svg>
