<?xml version="1.0"?>
<svg xmlns="http://www.w3.org/2000/svg"
xmlns:xlink="http://www.w3.org/1999/xlink" xmlns:cml="http://www.xml-cml.org/schema" width="552.16" height="500" x="0" y="0" font-family="sans-serif" stroke="rgb(0,0,0)" stroke-width="1"  stroke-linecap="round">
<rect x="0%" y="0%" width="100%" height="100%" stroke-width="0" fill="rgb(255,255,255)"  />
<polygon points="408.237 360 383.027 350.064 387.027 343.136 " stroke-width="1" fill="rgb(0,0,0)"  stroke="rgb(0,0,0)" />
<polygon points="373.596 300 377.596 326.8 369.596 326.8 " stroke-width="1" fill="rgb(0,0,0)"  stroke="rgb(0,0,0)" />
<polygon points="408.237 400 387.027 416.864 383.027 409.936 " stroke-width="1" fill="rgb(0,0,0)"  stroke="rgb(0,0,0)" />
<line x1="430.1" y1="176.1" x2="406.7" y2="162.6" stroke="rgb(0,0,0)"  stroke-width="1.0"/>
<line x1="433.1" y1="170.9" x2="409.7" y2="157.4" stroke="rgb(0,0,0)"  stroke-width="1.0"/>
<line x1="443.7" y1="425.4" x2="442.1" y2="425.4" stroke="rgb(0,0,0)"  stroke-width="1.0"/>
<line x1="444.3" y1="429.6" x2="441.4" y2="429.6" stroke="rgb(0,0,0)"  stroke-width="1.0"/>
<line x1="445.0" y1="433.9" x2="440.8" y2="433.9" stroke="rgb(0,0,0)"  stroke-width="1.0"/>
<line x1="445.6" y1="438.2" x2="440.2" y2="438.2" stroke="rgb(0,0,0)"  stroke-width="1.0"/>
<line x1="446.2" y1="442.5" x2="439.5" y2="442.5" stroke="rgb(0,0,0)"  stroke-width="1.0"/>
<line x1="446.9" y1="446.8" x2="438.9" y2="446.8" stroke="rgb(0,0,0)"  stroke-width="1.0"/>
<line x1="482.6" y1="402.0" x2="481.8" y2="403.4" stroke="rgb(0,0,0)"  stroke-width="1.0"/>
<line x1="486.6" y1="403.6" x2="485.2" y2="406.1" stroke="rgb(0,0,0)"  stroke-width="1.0"/>
<line x1="490.6" y1="405.2" x2="488.5" y2="408.8" stroke="rgb(0,0,0)"  stroke-width="1.0"/>
<line x1="494.7" y1="406.8" x2="491.9" y2="411.5" stroke="rgb(0,0,0)"  stroke-width="1.0"/>
<line x1="498.7" y1="408.3" x2="495.3" y2="414.2" stroke="rgb(0,0,0)"  stroke-width="1.0"/>
<line x1="502.7" y1="409.9" x2="498.7" y2="416.9" stroke="rgb(0,0,0)"  stroke-width="1.0"/>
<line x1="484.0" y1="355.3" x2="484.8" y2="356.7" stroke="rgb(0,0,0)"  stroke-width="1.0"/>
<line x1="489.3" y1="351.6" x2="490.7" y2="354.0" stroke="rgb(0,0,0)"  stroke-width="1.0"/>
<line x1="494.5" y1="347.8" x2="496.6" y2="351.4" stroke="rgb(0,0,0)"  stroke-width="1.0"/>
<line x1="499.7" y1="344.0" x2="502.4" y2="348.8" stroke="rgb(0,0,0)"  stroke-width="1.0"/>
<line x1="504.9" y1="340.3" x2="508.3" y2="346.1" stroke="rgb(0,0,0)"  stroke-width="1.0"/>
<line x1="510.2" y1="336.5" x2="514.2" y2="343.5" stroke="rgb(0,0,0)"  stroke-width="1.0"/>
<line x1="512.2" y1="340.0" x2="512.2" y2="313.0" stroke="rgb(0,0,0)"  stroke-width="1.0"/>
<line x1="372.8" y1="214.6" x2="374.4" y2="214.6" stroke="rgb(0,0,0)"  stroke-width="1.0"/>
<line x1="372.2" y1="210.4" x2="375.0" y2="210.4" stroke="rgb(0,0,0)"  stroke-width="1.0"/>
<line x1="371.5" y1="206.1" x2="375.7" y2="206.1" stroke="rgb(0,0,0)"  stroke-width="1.0"/>
<line x1="370.9" y1="201.8" x2="376.3" y2="201.8" stroke="rgb(0,0,0)"  stroke-width="1.0"/>
<line x1="370.2" y1="197.5" x2="377.0" y2="197.5" stroke="rgb(0,0,0)"  stroke-width="1.0"/>
<line x1="369.6" y1="193.2" x2="377.6" y2="193.2" stroke="rgb(0,0,0)"  stroke-width="1.0"/>
<line x1="413.3" y1="282.0" x2="412.5" y2="283.4" stroke="rgb(0,0,0)"  stroke-width="1.0"/>
<line x1="417.3" y1="283.6" x2="415.9" y2="286.1" stroke="rgb(0,0,0)"  stroke-width="1.0"/>
<line x1="421.3" y1="285.2" x2="419.3" y2="288.8" stroke="rgb(0,0,0)"  stroke-width="1.0"/>
<line x1="425.4" y1="286.8" x2="422.7" y2="291.5" stroke="rgb(0,0,0)"  stroke-width="1.0"/>
<line x1="429.4" y1="288.3" x2="426.1" y2="294.2" stroke="rgb(0,0,0)"  stroke-width="1.0"/>
<line x1="433.4" y1="289.9" x2="429.4" y2="296.9" stroke="rgb(0,0,0)"  stroke-width="1.0"/>
<line x1="334.7" y1="283.4" x2="333.9" y2="282.0" stroke="rgb(0,0,0)"  stroke-width="1.0"/>
<line x1="331.3" y1="286.1" x2="329.9" y2="283.6" stroke="rgb(0,0,0)"  stroke-width="1.0"/>
<line x1="327.9" y1="288.8" x2="325.8" y2="285.2" stroke="rgb(0,0,0)"  stroke-width="1.0"/>
<line x1="324.5" y1="291.5" x2="321.8" y2="286.8" stroke="rgb(0,0,0)"  stroke-width="1.0"/>
<line x1="321.1" y1="294.2" x2="317.8" y2="288.3" stroke="rgb(0,0,0)"  stroke-width="1.0"/>
<line x1="317.7" y1="296.9" x2="313.7" y2="289.9" stroke="rgb(0,0,0)"  stroke-width="1.0"/>
<polygon points="338.954522 240.000000 313.745042 230.064102 317.745042 223.135898 " stroke-width="1.000000" fill="rgb(0,0,0)"  stroke="rgb(0,0,0)" />
<polygon points="269.672490 280.000000 294.881971 289.935898 290.881971 296.864102 " stroke-width="1.000000" fill="rgb(0,0,0)"  stroke="rgb(0,0,0)" />
<line x1="232.8" y1="301.7" x2="231.2" y2="301.3" stroke="rgb(0,0,0)"  stroke-width="1.0"/>
<line x1="232.5" y1="306.0" x2="229.7" y2="305.4" stroke="rgb(0,0,0)"  stroke-width="1.0"/>
<line x1="232.3" y1="310.3" x2="228.2" y2="309.5" stroke="rgb(0,0,0)"  stroke-width="1.0"/>
<line x1="232.0" y1="314.7" x2="226.7" y2="313.5" stroke="rgb(0,0,0)"  stroke-width="1.0"/>
<line x1="231.7" y1="319.0" x2="225.2" y2="317.6" stroke="rgb(0,0,0)"  stroke-width="1.0"/>
<line x1="231.5" y1="323.3" x2="223.6" y2="321.7" stroke="rgb(0,0,0)"  stroke-width="1.0"/>
<line x1="201.1" y1="267.9" x2="201.0" y2="266.3" stroke="rgb(0,0,0)"  stroke-width="1.0"/>
<line x1="196.9" y1="269.0" x2="196.6" y2="266.1" stroke="rgb(0,0,0)"  stroke-width="1.0"/>
<line x1="192.7" y1="270.1" x2="192.3" y2="265.9" stroke="rgb(0,0,0)"  stroke-width="1.0"/>
<line x1="188.5" y1="271.2" x2="188.0" y2="265.7" stroke="rgb(0,0,0)"  stroke-width="1.0"/>
<line x1="184.3" y1="272.2" x2="183.6" y2="265.6" stroke="rgb(0,0,0)"  stroke-width="1.0"/>
<line x1="180.1" y1="273.3" x2="179.3" y2="265.4" stroke="rgb(0,0,0)"  stroke-width="1.0"/>
<polygon points="226.365448 231.902657 206.441800 196.987785 213.750164 193.733892 " stroke-width="1.000000" fill="rgb(0,0,0)"  stroke="rgb(0,0,0)" />
<line x1="210.1" y1="195.4" x2="226.0" y2="173.5" stroke="rgb(0,0,0)"  stroke-width="1.0"/>
<line x1="146.9" y1="242.2" x2="145.6" y2="243.2" stroke="rgb(0,0,0)"  stroke-width="1.0"/>
<line x1="149.9" y1="245.3" x2="147.6" y2="247.0" stroke="rgb(0,0,0)"  stroke-width="1.0"/>
<line x1="152.9" y1="248.4" x2="149.6" y2="250.9" stroke="rgb(0,0,0)"  stroke-width="1.0"/>
<line x1="156.0" y1="251.5" x2="151.6" y2="254.7" stroke="rgb(0,0,0)"  stroke-width="1.0"/>
<line x1="159.0" y1="254.6" x2="153.6" y2="258.6" stroke="rgb(0,0,0)"  stroke-width="1.0"/>
<line x1="162.1" y1="257.7" x2="155.6" y2="262.4" stroke="rgb(0,0,0)"  stroke-width="1.0"/>
<line x1="101.8" y1="247.8" x2="100.4" y2="247.1" stroke="rgb(0,0,0)"  stroke-width="1.0"/>
<line x1="100.7" y1="251.9" x2="98.1" y2="250.8" stroke="rgb(0,0,0)"  stroke-width="1.0"/>
<line x1="99.5" y1="256.1" x2="95.7" y2="254.4" stroke="rgb(0,0,0)"  stroke-width="1.0"/>
<line x1="98.4" y1="260.3" x2="93.4" y2="258.1" stroke="rgb(0,0,0)"  stroke-width="1.0"/>
<line x1="97.2" y1="264.5" x2="91.1" y2="261.7" stroke="rgb(0,0,0)"  stroke-width="1.0"/>
<line x1="96.0" y1="268.7" x2="88.7" y2="265.4" stroke="rgb(0,0,0)"  stroke-width="1.0"/>
<polygon points="79.780876 210.184590 53.545803 216.964041 52.709575 209.007865 " stroke-width="1.000000" fill="rgb(0,0,0)"  stroke="rgb(0,0,0)" />
<line x1="92.3" y1="169.8" x2="93.5" y2="168.8" stroke="rgb(0,0,0)"  stroke-width="1.0"/>
<line x1="89.2" y1="166.7" x2="91.5" y2="165.0" stroke="rgb(0,0,0)"  stroke-width="1.0"/>
<line x1="86.2" y1="163.6" x2="89.5" y2="161.1" stroke="rgb(0,0,0)"  stroke-width="1.0"/>
<line x1="83.1" y1="160.5" x2="87.5" y2="157.3" stroke="rgb(0,0,0)"  stroke-width="1.0"/>
<line x1="80.1" y1="157.4" x2="85.5" y2="153.5" stroke="rgb(0,0,0)"  stroke-width="1.0"/>
<line x1="77.1" y1="154.3" x2="83.5" y2="149.6" stroke="rgb(0,0,0)"  stroke-width="1.0"/>
<line x1="138.4" y1="161.8" x2="139.8" y2="162.5" stroke="rgb(0,0,0)"  stroke-width="1.0"/>
<line x1="140.4" y1="155.7" x2="143.0" y2="156.9" stroke="rgb(0,0,0)"  stroke-width="1.0"/>
<line x1="142.4" y1="149.6" x2="146.2" y2="151.3" stroke="rgb(0,0,0)"  stroke-width="1.0"/>
<line x1="144.4" y1="143.5" x2="149.4" y2="145.7" stroke="rgb(0,0,0)"  stroke-width="1.0"/>
<line x1="146.4" y1="137.4" x2="152.6" y2="140.1" stroke="rgb(0,0,0)"  stroke-width="1.0"/>
<line x1="148.4" y1="131.3" x2="155.8" y2="134.5" stroke="rgb(0,0,0)"  stroke-width="1.0"/>
<line x1="179.0" y1="130.1" x2="152.1" y2="132.9" stroke="rgb(0,0,0)"  stroke-width="1.0"/>
<line x1="373.6" y1="100.0" x2="373.6" y2="60.0" stroke="rgb(0,0,0)"  stroke-width="1.0"/>
<line x1="400.9" y1="116.7" x2="401.7" y2="115.3" stroke="rgb(0,0,0)"  stroke-width="1.0"/>
<line x1="395.0" y1="114.0" x2="396.5" y2="111.6" stroke="rgb(0,0,0)"  stroke-width="1.0"/>
<line x1="389.2" y1="111.4" x2="391.3" y2="107.8" stroke="rgb(0,0,0)"  stroke-width="1.0"/>
<line x1="383.3" y1="108.8" x2="386.0" y2="104.0" stroke="rgb(0,0,0)"  stroke-width="1.0"/>
<line x1="377.5" y1="106.1" x2="380.8" y2="100.3" stroke="rgb(0,0,0)"  stroke-width="1.0"/>
<line x1="371.6" y1="103.5" x2="375.6" y2="96.5" stroke="rgb(0,0,0)"  stroke-width="1.0"/>
<line x1="384.9" y1="173.5" x2="408.2" y2="160.0" stroke="rgb(0,0,0)"  stroke-width="1.0"/>
<line x1="408.2" y1="160.0" x2="408.2" y2="120.0" stroke="rgb(0,0,0)"  stroke-width="1.0"/>
<line x1="397.0" y1="46.5" x2="373.6" y2="60.0" stroke="rgb(0,0,0)"  stroke-width="1.0"/>
<line x1="431.6" y1="106.5" x2="408.2" y2="120.0" stroke="rgb(0,0,0)"  stroke-width="1.0"/>
<line x1="269.7" y1="280.0" x2="233.1" y2="296.3" stroke="rgb(0,0,0)"  stroke-width="1.0"/>
<line x1="233.1" y1="296.3" x2="206.4" y2="266.5" stroke="rgb(0,0,0)"  stroke-width="1.0"/>
<line x1="206.4" y1="266.5" x2="226.4" y2="231.9" stroke="rgb(0,0,0)"  stroke-width="1.0"/>
<line x1="226.4" y1="231.9" x2="252.8" y2="237.5" stroke="rgb(0,0,0)"  stroke-width="1.0"/>
<line x1="266.9" y1="253.1" x2="269.7" y2="280.0" stroke="rgb(0,0,0)"  stroke-width="1.0"/>
<line x1="408.2" y1="360.0" x2="408.2" y2="400.0" stroke="rgb(0,0,0)"  stroke-width="1.0"/>
<line x1="408.2" y1="400.0" x2="442.9" y2="420.0" stroke="rgb(0,0,0)"  stroke-width="1.0"/>
<line x1="442.9" y1="420.0" x2="477.5" y2="400.0" stroke="rgb(0,0,0)"  stroke-width="1.0"/>
<line x1="477.5" y1="400.0" x2="477.5" y2="360.0" stroke="rgb(0,0,0)"  stroke-width="1.0"/>
<line x1="477.5" y1="360.0" x2="454.1" y2="346.5" stroke="rgb(0,0,0)"  stroke-width="1.0"/>
<line x1="431.6" y1="346.5" x2="408.2" y2="360.0" stroke="rgb(0,0,0)"  stroke-width="1.0"/>
<line x1="408.2" y1="240.0" x2="373.6" y2="220.0" stroke="rgb(0,0,0)"  stroke-width="1.0"/>
<line x1="373.6" y1="220.0" x2="339.0" y2="240.0" stroke="rgb(0,0,0)"  stroke-width="1.0"/>
<line x1="339.0" y1="240.0" x2="339.0" y2="280.0" stroke="rgb(0,0,0)"  stroke-width="1.0"/>
<line x1="339.0" y1="280.0" x2="373.6" y2="300.0" stroke="rgb(0,0,0)"  stroke-width="1.0"/>
<line x1="373.6" y1="300.0" x2="408.2" y2="280.0" stroke="rgb(0,0,0)"  stroke-width="1.0"/>
<line x1="408.2" y1="280.0" x2="408.2" y2="240.0" stroke="rgb(0,0,0)"  stroke-width="1.0"/>
<line x1="143.1" y1="238.4" x2="103.3" y2="242.5" stroke="rgb(0,0,0)"  stroke-width="1.0"/>
<line x1="103.3" y1="242.5" x2="79.8" y2="210.2" stroke="rgb(0,0,0)"  stroke-width="1.0"/>
<line x1="79.8" y1="210.2" x2="96.1" y2="173.6" stroke="rgb(0,0,0)"  stroke-width="1.0"/>
<line x1="96.1" y1="173.6" x2="135.8" y2="169.5" stroke="rgb(0,0,0)"  stroke-width="1.0"/>
<line x1="135.8" y1="169.5" x2="151.7" y2="191.3" stroke="rgb(0,0,0)"  stroke-width="1.0"/>
<line x1="154.1" y1="213.7" x2="143.1" y2="238.4" stroke="rgb(0,0,0)"  stroke-width="1.0"/>
<text x="367.595539" y="348.000000" fill="rgb(255,12,12)"  stroke="rgb(255,12,12)" stroke-width="1" font-size="16" >O</text>
<text x="347.595539" y="428.000000" fill="rgb(12,12,255)"  stroke="rgb(12,12,255)" stroke-width="1" font-size="16" >H</text>
<text x="359.595539" y="431.680000" fill="rgb(12,12,255)"  stroke="rgb(12,12,255)" stroke-width="1" font-size="13" >2</text>
<text x="366.095539" y="428.000000" fill="rgb(12,12,255)"  stroke="rgb(12,12,255)" stroke-width="1" font-size="16" >N</text>
<text x="436.877571" y="188.000000" fill="rgb(255,12,12)"  stroke="rgb(255,12,12)" stroke-width="1" font-size="16" >O</text>
<text x="404.236555" y="48.000000" fill="rgb(12,12,255)"  stroke="rgb(12,12,255)" stroke-width="1" font-size="16" >NH</text>
<text x="428.236555" y="51.680000" fill="rgb(12,12,255)"  stroke="rgb(12,12,255)" stroke-width="1" font-size="13" >2</text>
<text x="436.877571" y="348.000000" fill="rgb(255,12,12)"  stroke="rgb(255,12,12)" stroke-width="1" font-size="16" >O</text>
<text x="508.159603" y="308.000000" fill="rgb(12,12,255)"  stroke="rgb(12,12,255)" stroke-width="1" font-size="16" >NH</text>
<text x="532.159603" y="311.680000" fill="rgb(12,12,255)"  stroke="rgb(12,12,255)" stroke-width="1" font-size="13" >2</text>
<text x="355.595539" y="188.000000" fill="rgb(12,12,255)"  stroke="rgb(12,12,255)" stroke-width="1" font-size="16" >HN</text>
<text x="438.877571" y="308.000000" fill="rgb(12,12,255)"  stroke="rgb(12,12,255)" stroke-width="1" font-size="16" >NH</text>
<text x="462.877571" y="311.680000" fill="rgb(12,12,255)"  stroke="rgb(12,12,255)" stroke-width="1" font-size="13" >2</text>
<text x="298.313506" y="308.000000" fill="rgb(255,12,12)"  stroke="rgb(255,12,12)" stroke-width="1" font-size="16" >O</text>
<text x="286.313506" y="228.000000" fill="rgb(255,12,12)"  stroke="rgb(255,12,12)" stroke-width="1" font-size="16" >HO</text>
<text x="206.814204" y="343.395370" fill="rgb(255,12,12)"  stroke="rgb(255,12,12)" stroke-width="1" font-size="16" >HO</text>
<text x="259.491352" y="248.219124" fill="rgb(255,12,12)"  stroke="rgb(255,12,12)" stroke-width="1" font-size="16" >O</text>
<text x="227.607392" y="171.000158" fill="rgb(255,12,12)"  stroke="rgb(255,12,12)" stroke-width="1" font-size="16" >OH</text>
<text x="160.584572" y="278.724811" fill="rgb(255,12,12)"  stroke="rgb(255,12,12)" stroke-width="1" font-size="16" >O</text>
<text x="187.881559" y="136.738677" fill="rgb(12,12,255)"  stroke="rgb(12,12,255)" stroke-width="1" font-size="16" >NH</text>
<text x="211.881559" y="140.418677" fill="rgb(12,12,255)"  stroke="rgb(12,12,255)" stroke-width="1" font-size="13" >2</text>
<text x="436.877571" y="108.000000" fill="rgb(255,12,12)"  stroke="rgb(255,12,12)" stroke-width="1" font-size="16" >OH</text>
<text x="153.342627" y="209.822313" fill="rgb(255,12,12)"  stroke="rgb(255,12,12)" stroke-width="1" font-size="16" >O</text>
<text x="61.022820" y="287.087088" fill="rgb(12,12,255)"  stroke="rgb(12,12,255)" stroke-width="1" font-size="16" >H</text>
<text x="73.022820" y="290.767088" fill="rgb(12,12,255)"  stroke="rgb(12,12,255)" stroke-width="1" font-size="13" >2</text>
<text x="79.522820" y="287.087088" fill="rgb(12,12,255)"  stroke="rgb(12,12,255)" stroke-width="1" font-size="16" >N</text>
<text x="436.877571" y="468.000000" fill="rgb(255,12,12)"  stroke="rgb(255,12,12)" stroke-width="1" font-size="16" >OH</text>
<text x="54.538931" y="149.282092" fill="rgb(255,12,12)"  stroke="rgb(255,12,12)" stroke-width="1" font-size="16" >HO</text>
<text x="22.000000" y="222.365729" fill="rgb(255,12,12)"  stroke="rgb(255,12,12)" stroke-width="1" font-size="16" >HO</text>
<text x="506.159603" y="428.000000" fill="rgb(127,178,255)"  stroke="rgb(127,178,255)" stroke-width="1" font-size="16" >F</text>
<text font-size="18.000000" fill ="black" font-family="sans-serif"
x="10.000000" y="20.000000" ></text>
<title> - OBDepict</title>
</svg>
