<?xml version="1.0"?>
<svg xmlns="http://www.w3.org/2000/svg"
xmlns:xlink="http://www.w3.org/1999/xlink" xmlns:cml="http://www.xml-cml.org/schema" width="461.051" height="420" x="0" y="0" font-family="sans-serif" stroke="rgb(0,0,0)" stroke-width="1"  stroke-linecap="round">
<rect x="0%" y="0%" width="100%" height="100%" stroke-width="0" fill="rgb(255,255,255)"  />
<line x1="149.0" y1="322.0" x2="148.2" y2="323.4" stroke="rgb(0,0,0)"  stroke-width="1.0"/>
<line x1="153.0" y1="323.6" x2="151.6" y2="326.1" stroke="rgb(0,0,0)"  stroke-width="1.0"/>
<line x1="157.0" y1="325.2" x2="155.0" y2="328.8" stroke="rgb(0,0,0)"  stroke-width="1.0"/>
<line x1="161.1" y1="326.8" x2="158.3" y2="331.5" stroke="rgb(0,0,0)"  stroke-width="1.0"/>
<line x1="165.1" y1="328.3" x2="161.7" y2="334.2" stroke="rgb(0,0,0)"  stroke-width="1.0"/>
<line x1="169.1" y1="329.9" x2="165.1" y2="336.9" stroke="rgb(0,0,0)"  stroke-width="1.0"/>
<line x1="286.7" y1="276.6" x2="287.5" y2="278.0" stroke="rgb(0,0,0)"  stroke-width="1.0"/>
<line x1="290.1" y1="273.9" x2="291.6" y2="276.4" stroke="rgb(0,0,0)"  stroke-width="1.0"/>
<line x1="293.5" y1="271.2" x2="295.6" y2="274.8" stroke="rgb(0,0,0)"  stroke-width="1.0"/>
<line x1="296.9" y1="268.5" x2="299.6" y2="273.2" stroke="rgb(0,0,0)"  stroke-width="1.0"/>
<line x1="300.3" y1="265.8" x2="303.7" y2="271.7" stroke="rgb(0,0,0)"  stroke-width="1.0"/>
<line x1="303.7" y1="263.1" x2="307.7" y2="270.1" stroke="rgb(0,0,0)"  stroke-width="1.0"/>
<line x1="110.1" y1="345.4" x2="108.5" y2="345.4" stroke="rgb(0,0,0)"  stroke-width="1.0"/>
<line x1="110.7" y1="349.6" x2="107.8" y2="349.6" stroke="rgb(0,0,0)"  stroke-width="1.0"/>
<line x1="111.4" y1="353.9" x2="107.2" y2="353.9" stroke="rgb(0,0,0)"  stroke-width="1.0"/>
<line x1="112.0" y1="358.2" x2="106.6" y2="358.2" stroke="rgb(0,0,0)"  stroke-width="1.0"/>
<line x1="112.6" y1="362.5" x2="105.9" y2="362.5" stroke="rgb(0,0,0)"  stroke-width="1.0"/>
<line x1="113.3" y1="366.8" x2="105.3" y2="366.8" stroke="rgb(0,0,0)"  stroke-width="1.0"/>
<line x1="317.1" y1="220.0" x2="317.1" y2="247.0" stroke="rgb(0,0,0)"  stroke-width="1.0"/>
<line x1="315.6" y1="222.6" x2="292.2" y2="209.1" stroke="rgb(0,0,0)"  stroke-width="1.0"/>
<line x1="318.6" y1="217.4" x2="295.2" y2="203.9" stroke="rgb(0,0,0)"  stroke-width="1.0"/>
<line x1="345.2" y1="204.7" x2="344.4" y2="203.3" stroke="rgb(0,0,0)"  stroke-width="1.0"/>
<line x1="340.0" y1="208.4" x2="338.6" y2="206.0" stroke="rgb(0,0,0)"  stroke-width="1.0"/>
<line x1="334.8" y1="212.2" x2="332.7" y2="208.6" stroke="rgb(0,0,0)"  stroke-width="1.0"/>
<line x1="329.6" y1="216.0" x2="326.9" y2="211.2" stroke="rgb(0,0,0)"  stroke-width="1.0"/>
<line x1="324.4" y1="219.7" x2="321.0" y2="213.9" stroke="rgb(0,0,0)"  stroke-width="1.0"/>
<line x1="319.1" y1="223.5" x2="315.1" y2="216.5" stroke="rgb(0,0,0)"  stroke-width="1.0"/>
<line x1="351.8" y1="200.0" x2="386.4" y2="220.0" stroke="rgb(0,0,0)"  stroke-width="1.0"/>
<line x1="351.8" y1="200.0" x2="351.8" y2="173.0" stroke="rgb(0,0,0)"  stroke-width="1.0"/>
<line x1="386.4" y1="220.0" x2="421.1" y2="200.0" stroke="rgb(0,0,0)"  stroke-width="1.0"/>
<line x1="421.1" y1="200.0" x2="421.1" y2="173.0" stroke="rgb(0,0,0)"  stroke-width="1.0"/>
<line x1="213.2" y1="200.0" x2="213.2" y2="160.0" stroke="rgb(0,0,0)"  stroke-width="1.0"/>
<line x1="213.2" y1="200.0" x2="236.6" y2="213.5" stroke="rgb(0,0,0)"  stroke-width="1.0"/>
<line x1="213.2" y1="160.0" x2="189.8" y2="146.5" stroke="rgb(0,0,0)"  stroke-width="1.0"/>
<polygon points="74.641016 320.000000 53.431535 336.864102 49.431535 329.935898 " stroke-width="1.000000" fill="rgb(0,0,0)"  stroke="rgb(0,0,0)" />
<line x1="248.6" y1="345.4" x2="247.0" y2="345.4" stroke="rgb(0,0,0)"  stroke-width="1.0"/>
<line x1="249.3" y1="349.6" x2="246.4" y2="349.6" stroke="rgb(0,0,0)"  stroke-width="1.0"/>
<line x1="249.9" y1="353.9" x2="245.8" y2="353.9" stroke="rgb(0,0,0)"  stroke-width="1.0"/>
<line x1="250.6" y1="358.2" x2="245.1" y2="358.2" stroke="rgb(0,0,0)"  stroke-width="1.0"/>
<line x1="251.2" y1="362.5" x2="244.5" y2="362.5" stroke="rgb(0,0,0)"  stroke-width="1.0"/>
<line x1="251.8" y1="366.8" x2="243.8" y2="366.8" stroke="rgb(0,0,0)"  stroke-width="1.0"/>
<line x1="143.9" y1="80.0" x2="143.9" y2="53.0" stroke="rgb(0,0,0)"  stroke-width="1.0"/>
<line x1="143.9" y1="80.0" x2="178.6" y2="100.0" stroke="rgb(0,0,0)"  stroke-width="1.0"/>
<line x1="178.6" y1="100.0" x2="178.6" y2="127.0" stroke="rgb(0,0,0)"  stroke-width="1.0"/>
<line x1="69.6" y1="278.0" x2="70.4" y2="276.6" stroke="rgb(0,0,0)"  stroke-width="1.0"/>
<line x1="65.6" y1="276.4" x2="67.0" y2="273.9" stroke="rgb(0,0,0)"  stroke-width="1.0"/>
<line x1="61.5" y1="274.8" x2="63.6" y2="271.2" stroke="rgb(0,0,0)"  stroke-width="1.0"/>
<line x1="57.5" y1="273.2" x2="60.2" y2="268.5" stroke="rgb(0,0,0)"  stroke-width="1.0"/>
<line x1="53.5" y1="271.7" x2="56.8" y2="265.8" stroke="rgb(0,0,0)"  stroke-width="1.0"/>
<line x1="49.4" y1="270.1" x2="53.4" y2="263.1" stroke="rgb(0,0,0)"  stroke-width="1.0"/>
<polygon points="213.205081 320.000000 191.995600 336.864102 187.995600 329.935898 " stroke-width="1.000000" fill="rgb(0,0,0)"  stroke="rgb(0,0,0)" />
<polygon points="109.282032 260.000000 105.282032 220.000000 113.282032 220.000000 " stroke-width="1.000000" fill="rgb(0,0,0)"  stroke="rgb(0,0,0)" />
<line x1="208.2" y1="278.0" x2="209.0" y2="276.6" stroke="rgb(0,0,0)"  stroke-width="1.0"/>
<line x1="204.1" y1="276.4" x2="205.6" y2="273.9" stroke="rgb(0,0,0)"  stroke-width="1.0"/>
<line x1="200.1" y1="274.8" x2="202.2" y2="271.2" stroke="rgb(0,0,0)"  stroke-width="1.0"/>
<line x1="196.1" y1="273.2" x2="198.8" y2="268.5" stroke="rgb(0,0,0)"  stroke-width="1.0"/>
<line x1="192.0" y1="271.7" x2="195.4" y2="265.8" stroke="rgb(0,0,0)"  stroke-width="1.0"/>
<line x1="188.0" y1="270.1" x2="192.0" y2="263.1" stroke="rgb(0,0,0)"  stroke-width="1.0"/>
<line x1="107.8" y1="222.6" x2="84.4" y2="209.1" stroke="rgb(0,0,0)"  stroke-width="1.0"/>
<line x1="110.8" y1="217.4" x2="87.4" y2="203.9" stroke="rgb(0,0,0)"  stroke-width="1.0"/>
<polygon points="247.846097 260.000000 243.846097 233.200000 251.846097 233.200000 " stroke-width="1.000000" fill="rgb(0,0,0)"  stroke="rgb(0,0,0)" />
<line x1="282.5" y1="320.0" x2="282.5" y2="280.0" stroke="rgb(0,0,0)"  stroke-width="1.0"/>
<line x1="282.5" y1="280.0" x2="247.8" y2="260.0" stroke="rgb(0,0,0)"  stroke-width="1.0"/>
<line x1="247.8" y1="260.0" x2="213.2" y2="280.0" stroke="rgb(0,0,0)"  stroke-width="1.0"/>
<line x1="213.2" y1="280.0" x2="213.2" y2="320.0" stroke="rgb(0,0,0)"  stroke-width="1.0"/>
<line x1="213.2" y1="320.0" x2="247.8" y2="340.0" stroke="rgb(0,0,0)"  stroke-width="1.0"/>
<line x1="247.8" y1="340.0" x2="282.5" y2="320.0" stroke="rgb(0,0,0)"  stroke-width="1.0"/>
<line x1="143.9" y1="320.0" x2="109.3" y2="340.0" stroke="rgb(0,0,0)"  stroke-width="1.0"/>
<line x1="109.3" y1="340.0" x2="74.6" y2="320.0" stroke="rgb(0,0,0)"  stroke-width="1.0"/>
<line x1="74.6" y1="320.0" x2="74.6" y2="280.0" stroke="rgb(0,0,0)"  stroke-width="1.0"/>
<line x1="74.6" y1="280.0" x2="109.3" y2="260.0" stroke="rgb(0,0,0)"  stroke-width="1.0"/>
<line x1="109.3" y1="260.0" x2="132.7" y2="273.5" stroke="rgb(0,0,0)"  stroke-width="1.0"/>
<line x1="143.9" y1="293.0" x2="143.9" y2="320.0" stroke="rgb(0,0,0)"  stroke-width="1.0"/>
<text x="172.564065" y="348.000000" fill="rgb(255,12,12)"  stroke="rgb(255,12,12)" stroke-width="1" font-size="16" >O</text>
<text x="311.128129" y="268.000000" fill="rgb(12,12,255)"  stroke="rgb(12,12,255)" stroke-width="1" font-size="16" >NH</text>
<text x="105.282032" y="388.000000" fill="rgb(12,12,255)"  stroke="rgb(12,12,255)" stroke-width="1" font-size="16" >NH</text>
<text x="129.282032" y="391.680000" fill="rgb(12,12,255)"  stroke="rgb(12,12,255)" stroke-width="1" font-size="13" >2</text>
<text x="417.051178" y="168.000000" fill="rgb(12,12,255)"  stroke="rgb(12,12,255)" stroke-width="1" font-size="16" >NH</text>
<text x="441.051178" y="171.680000" fill="rgb(12,12,255)"  stroke="rgb(12,12,255)" stroke-width="1" font-size="13" >2</text>
<text x="345.769145" y="168.000000" fill="rgb(255,12,12)"  stroke="rgb(255,12,12)" stroke-width="1" font-size="16" >OH</text>
<text x="160.564065" y="148.000000" fill="rgb(12,12,255)"  stroke="rgb(12,12,255)" stroke-width="1" font-size="16" >HN</text>
<text x="22.000000" y="348.000000" fill="rgb(255,12,12)"  stroke="rgb(255,12,12)" stroke-width="1" font-size="16" >HO</text>
<text x="243.846097" y="388.000000" fill="rgb(12,12,255)"  stroke="rgb(12,12,255)" stroke-width="1" font-size="16" >NH</text>
<text x="267.846097" y="391.680000" fill="rgb(12,12,255)"  stroke="rgb(12,12,255)" stroke-width="1" font-size="13" >2</text>
<text x="139.923048" y="48.000000" fill="rgb(12,12,255)"  stroke="rgb(12,12,255)" stroke-width="1" font-size="16" >NH</text>
<text x="163.923048" y="51.680000" fill="rgb(12,12,255)"  stroke="rgb(12,12,255)" stroke-width="1" font-size="13" >2</text>
<text x="276.487113" y="208.000000" fill="rgb(255,12,12)"  stroke="rgb(255,12,12)" stroke-width="1" font-size="16" >O</text>
<text x="22.000000" y="268.000000" fill="rgb(255,12,12)"  stroke="rgb(255,12,12)" stroke-width="1" font-size="16" >HO</text>
<text x="137.923048" y="288.000000" fill="rgb(255,12,12)"  stroke="rgb(255,12,12)" stroke-width="1" font-size="16" >O</text>
<text x="160.564065" y="268.000000" fill="rgb(255,12,12)"  stroke="rgb(255,12,12)" stroke-width="1" font-size="16" >HO</text>
<text x="56.641016" y="208.000000" fill="rgb(12,12,255)"  stroke="rgb(12,12,255)" stroke-width="1" font-size="16" >HN</text>
<text x="241.846097" y="228.000000" fill="rgb(255,12,12)"  stroke="rgb(255,12,12)" stroke-width="1" font-size="16" >O</text>
<text font-size="18.000000" fill ="black" font-family="sans-serif"
x="10.000000" y="20.000000" >2f4t_lig</text>
<title>2f4t_lig - OBDepict</title>
</svg>
