<?xml version="1.0"?>
<svg xmlns="http://www.w3.org/2000/svg"
xmlns:xlink="http://www.w3.org/1999/xlink" xmlns:cml="http://www.xml-cml.org/schema" width="564.974" height="320" x="0" y="0" font-family="sans-serif" stroke="rgb(0,0,0)" stroke-width="1"  stroke-linecap="round">
<rect x="0%" y="0%" width="100%" height="100%" stroke-width="0" fill="rgb(255,255,255)"  />
<polygon points="317.128 80 313.128 53.2 321.128 53.2 " stroke-width="1" fill="rgb(0,0,0)"  stroke="rgb(0,0,0)" />
<polygon points="282.487 140 261.278 156.864 257.278 149.936 " stroke-width="1" fill="rgb(0,0,0)"  stroke="rgb(0,0,0)" />
<polygon points="247.846 200 226.637 216.864 222.637 209.936 " stroke-width="1" fill="rgb(0,0,0)"  stroke="rgb(0,0,0)" />
<line x1="305.9" y1="273.5" x2="293.7" y2="266.5" stroke="rgb(0,0,0)"  stroke-width="1.0"/>
<line x1="321.4" y1="156.6" x2="322.2" y2="158.0" stroke="rgb(0,0,0)"  stroke-width="1.0"/>
<line x1="324.8" y1="153.9" x2="326.2" y2="156.4" stroke="rgb(0,0,0)"  stroke-width="1.0"/>
<line x1="328.2" y1="151.2" x2="330.2" y2="154.8" stroke="rgb(0,0,0)"  stroke-width="1.0"/>
<line x1="331.6" y1="148.5" x2="334.3" y2="153.2" stroke="rgb(0,0,0)"  stroke-width="1.0"/>
<line x1="334.9" y1="145.8" x2="338.3" y2="151.7" stroke="rgb(0,0,0)"  stroke-width="1.0"/>
<line x1="338.3" y1="143.1" x2="342.3" y2="150.1" stroke="rgb(0,0,0)"  stroke-width="1.0"/>
<line x1="283.3" y1="225.4" x2="281.7" y2="225.4" stroke="rgb(0,0,0)"  stroke-width="1.0"/>
<line x1="283.9" y1="229.6" x2="281.0" y2="229.6" stroke="rgb(0,0,0)"  stroke-width="1.0"/>
<line x1="284.6" y1="233.9" x2="280.4" y2="233.9" stroke="rgb(0,0,0)"  stroke-width="1.0"/>
<line x1="285.2" y1="238.2" x2="279.8" y2="238.2" stroke="rgb(0,0,0)"  stroke-width="1.0"/>
<line x1="285.8" y1="242.5" x2="279.1" y2="242.5" stroke="rgb(0,0,0)"  stroke-width="1.0"/>
<line x1="286.5" y1="246.8" x2="278.5" y2="246.8" stroke="rgb(0,0,0)"  stroke-width="1.0"/>
<line x1="322.2" y1="202.0" x2="321.4" y2="203.4" stroke="rgb(0,0,0)"  stroke-width="1.0"/>
<line x1="326.2" y1="203.6" x2="324.8" y2="206.1" stroke="rgb(0,0,0)"  stroke-width="1.0"/>
<line x1="330.2" y1="205.2" x2="328.2" y2="208.8" stroke="rgb(0,0,0)"  stroke-width="1.0"/>
<line x1="334.3" y1="206.8" x2="331.6" y2="211.5" stroke="rgb(0,0,0)"  stroke-width="1.0"/>
<line x1="338.3" y1="208.3" x2="334.9" y2="214.2" stroke="rgb(0,0,0)"  stroke-width="1.0"/>
<line x1="342.3" y1="209.9" x2="338.3" y2="216.9" stroke="rgb(0,0,0)"  stroke-width="1.0"/>
<polygon points="178.564065 200.000000 203.773545 209.935898 199.773545 216.864102 " stroke-width="1.000000" fill="rgb(0,0,0)"  stroke="rgb(0,0,0)" />
<polygon points="351.769145 100.000000 372.978626 83.135898 376.978626 90.064102 " stroke-width="1.000000" fill="rgb(0,0,0)"  stroke="rgb(0,0,0)" />
<polygon points="178.564065 160.000000 199.773545 143.135898 203.773545 150.064102 " stroke-width="1.000000" fill="rgb(0,0,0)"  stroke="rgb(0,0,0)" />
<line x1="143.1" y1="134.6" x2="144.7" y2="134.6" stroke="rgb(0,0,0)"  stroke-width="1.0"/>
<line x1="142.5" y1="130.4" x2="145.4" y2="130.4" stroke="rgb(0,0,0)"  stroke-width="1.0"/>
<line x1="141.8" y1="126.1" x2="146.0" y2="126.1" stroke="rgb(0,0,0)"  stroke-width="1.0"/>
<line x1="141.2" y1="121.8" x2="146.6" y2="121.8" stroke="rgb(0,0,0)"  stroke-width="1.0"/>
<line x1="140.6" y1="117.5" x2="147.3" y2="117.5" stroke="rgb(0,0,0)"  stroke-width="1.0"/>
<line x1="139.9" y1="113.2" x2="147.9" y2="113.2" stroke="rgb(0,0,0)"  stroke-width="1.0"/>
<line x1="102.8" y1="204.7" x2="102.0" y2="203.3" stroke="rgb(0,0,0)"  stroke-width="1.0"/>
<line x1="97.5" y1="208.4" x2="96.1" y2="206.0" stroke="rgb(0,0,0)"  stroke-width="1.0"/>
<line x1="92.3" y1="212.2" x2="90.2" y2="208.6" stroke="rgb(0,0,0)"  stroke-width="1.0"/>
<line x1="87.1" y1="216.0" x2="84.4" y2="211.2" stroke="rgb(0,0,0)"  stroke-width="1.0"/>
<line x1="81.9" y1="219.7" x2="78.5" y2="213.9" stroke="rgb(0,0,0)"  stroke-width="1.0"/>
<line x1="76.6" y1="223.5" x2="72.6" y2="216.5" stroke="rgb(0,0,0)"  stroke-width="1.0"/>
<polygon points="109.282032 160.000000 84.072551 150.064102 88.072551 143.135898 " stroke-width="1.000000" fill="rgb(0,0,0)"  stroke="rgb(0,0,0)" />
<line x1="51.3" y1="206.5" x2="74.6" y2="220.0" stroke="rgb(0,0,0)"  stroke-width="1.0"/>
<polygon points="421.051178 100.000000 395.841697 90.064102 399.841697 83.135898 " stroke-width="1.000000" fill="rgb(0,0,0)"  stroke="rgb(0,0,0)" />
<line x1="454.9" y1="74.6" x2="456.5" y2="74.6" stroke="rgb(0,0,0)"  stroke-width="1.0"/>
<line x1="454.3" y1="70.4" x2="457.1" y2="70.4" stroke="rgb(0,0,0)"  stroke-width="1.0"/>
<line x1="453.6" y1="66.1" x2="457.8" y2="66.1" stroke="rgb(0,0,0)"  stroke-width="1.0"/>
<line x1="453.0" y1="61.8" x2="458.4" y2="61.8" stroke="rgb(0,0,0)"  stroke-width="1.0"/>
<line x1="452.3" y1="57.5" x2="459.1" y2="57.5" stroke="rgb(0,0,0)"  stroke-width="1.0"/>
<line x1="451.7" y1="53.2" x2="459.7" y2="53.2" stroke="rgb(0,0,0)"  stroke-width="1.0"/>
<polygon points="490.333210 100.000000 511.542691 83.135898 515.542691 90.064102 " stroke-width="1.000000" fill="rgb(0,0,0)"  stroke="rgb(0,0,0)" />
<line x1="495.4" y1="142.0" x2="494.6" y2="143.4" stroke="rgb(0,0,0)"  stroke-width="1.0"/>
<line x1="499.4" y1="143.6" x2="498.0" y2="146.1" stroke="rgb(0,0,0)"  stroke-width="1.0"/>
<line x1="503.4" y1="145.2" x2="501.4" y2="148.8" stroke="rgb(0,0,0)"  stroke-width="1.0"/>
<line x1="507.5" y1="146.8" x2="504.8" y2="151.5" stroke="rgb(0,0,0)"  stroke-width="1.0"/>
<line x1="511.5" y1="148.3" x2="508.1" y2="154.2" stroke="rgb(0,0,0)"  stroke-width="1.0"/>
<line x1="515.5" y1="149.9" x2="511.5" y2="156.9" stroke="rgb(0,0,0)"  stroke-width="1.0"/>
<line x1="416.8" y1="143.4" x2="416.0" y2="142.0" stroke="rgb(0,0,0)"  stroke-width="1.0"/>
<line x1="413.4" y1="146.1" x2="412.0" y2="143.6" stroke="rgb(0,0,0)"  stroke-width="1.0"/>
<line x1="410.0" y1="148.8" x2="407.9" y2="145.2" stroke="rgb(0,0,0)"  stroke-width="1.0"/>
<line x1="406.6" y1="151.5" x2="403.9" y2="146.8" stroke="rgb(0,0,0)"  stroke-width="1.0"/>
<line x1="403.2" y1="154.2" x2="399.9" y2="148.3" stroke="rgb(0,0,0)"  stroke-width="1.0"/>
<line x1="399.8" y1="156.9" x2="395.8" y2="149.9" stroke="rgb(0,0,0)"  stroke-width="1.0"/>
<line x1="351.8" y1="100.0" x2="351.8" y2="127.0" stroke="rgb(0,0,0)"  stroke-width="1.0"/>
<line x1="340.5" y1="146.5" x2="317.1" y2="160.0" stroke="rgb(0,0,0)"  stroke-width="1.0"/>
<line x1="317.1" y1="160.0" x2="282.5" y2="140.0" stroke="rgb(0,0,0)"  stroke-width="1.0"/>
<line x1="282.5" y1="140.0" x2="282.5" y2="100.0" stroke="rgb(0,0,0)"  stroke-width="1.0"/>
<line x1="282.5" y1="100.0" x2="317.1" y2="80.0" stroke="rgb(0,0,0)"  stroke-width="1.0"/>
<line x1="317.1" y1="80.0" x2="351.8" y2="100.0" stroke="rgb(0,0,0)"  stroke-width="1.0"/>
<line x1="317.1" y1="200.0" x2="317.1" y2="160.0" stroke="rgb(0,0,0)"  stroke-width="1.0"/>
<line x1="282.5" y1="140.0" x2="259.1" y2="153.5" stroke="rgb(0,0,0)"  stroke-width="1.0"/>
<line x1="247.8" y1="173.0" x2="247.8" y2="200.0" stroke="rgb(0,0,0)"  stroke-width="1.0"/>
<line x1="247.8" y1="200.0" x2="282.5" y2="220.0" stroke="rgb(0,0,0)"  stroke-width="1.0"/>
<line x1="282.5" y1="220.0" x2="317.1" y2="200.0" stroke="rgb(0,0,0)"  stroke-width="1.0"/>
<line x1="178.6" y1="200.0" x2="155.2" y2="213.5" stroke="rgb(0,0,0)"  stroke-width="1.0"/>
<line x1="132.7" y1="213.5" x2="109.3" y2="200.0" stroke="rgb(0,0,0)"  stroke-width="1.0"/>
<line x1="109.3" y1="200.0" x2="109.3" y2="160.0" stroke="rgb(0,0,0)"  stroke-width="1.0"/>
<line x1="109.3" y1="160.0" x2="143.9" y2="140.0" stroke="rgb(0,0,0)"  stroke-width="1.0"/>
<line x1="143.9" y1="140.0" x2="178.6" y2="160.0" stroke="rgb(0,0,0)"  stroke-width="1.0"/>
<line x1="178.6" y1="160.0" x2="178.6" y2="200.0" stroke="rgb(0,0,0)"  stroke-width="1.0"/>
<line x1="421.1" y1="100.0" x2="421.1" y2="140.0" stroke="rgb(0,0,0)"  stroke-width="1.0"/>
<line x1="421.1" y1="140.0" x2="455.7" y2="160.0" stroke="rgb(0,0,0)"  stroke-width="1.0"/>
<line x1="455.7" y1="160.0" x2="490.3" y2="140.0" stroke="rgb(0,0,0)"  stroke-width="1.0"/>
<line x1="490.3" y1="140.0" x2="490.3" y2="100.0" stroke="rgb(0,0,0)"  stroke-width="1.0"/>
<line x1="490.3" y1="100.0" x2="455.7" y2="80.0" stroke="rgb(0,0,0)"  stroke-width="1.0"/>
<line x1="455.7" y1="80.0" x2="421.1" y2="100.0" stroke="rgb(0,0,0)"  stroke-width="1.0"/>
<text x="313.128129" y="288.000000" fill="rgb(102,102,102)"  stroke="rgb(102,102,102)" stroke-width="1" font-size="16" >CH</text>
<text x="337.128129" y="291.680000" fill="rgb(102,102,102)"  stroke="rgb(102,102,102)" stroke-width="1" font-size="13" >3</text>
<text x="345.769145" y="148.000000" fill="rgb(255,12,12)"  stroke="rgb(255,12,12)" stroke-width="1" font-size="16" >O</text>
<text x="241.846097" y="168.000000" fill="rgb(255,12,12)"  stroke="rgb(255,12,12)" stroke-width="1" font-size="16" >O</text>
<text x="313.128129" y="48.000000" fill="rgb(12,12,255)"  stroke="rgb(12,12,255)" stroke-width="1" font-size="16" >NH</text>
<text x="337.128129" y="51.680000" fill="rgb(12,12,255)"  stroke="rgb(12,12,255)" stroke-width="1" font-size="13" >2</text>
<text x="264.487113" y="268.000000" fill="rgb(12,12,255)"  stroke="rgb(12,12,255)" stroke-width="1" font-size="16" >HN</text>
<text x="345.769145" y="228.000000" fill="rgb(255,12,12)"  stroke="rgb(255,12,12)" stroke-width="1" font-size="16" >OH</text>
<text x="207.205081" y="228.000000" fill="rgb(255,12,12)"  stroke="rgb(255,12,12)" stroke-width="1" font-size="16" >O</text>
<text x="380.410162" y="88.000000" fill="rgb(255,12,12)"  stroke="rgb(255,12,12)" stroke-width="1" font-size="16" >O</text>
<text x="137.923048" y="228.000000" fill="rgb(255,12,12)"  stroke="rgb(255,12,12)" stroke-width="1" font-size="16" >O</text>
<text x="48.641016" y="148.000000" fill="rgb(12,12,255)"  stroke="rgb(12,12,255)" stroke-width="1" font-size="16" >H</text>
<text x="60.641016" y="151.680000" fill="rgb(12,12,255)"  stroke="rgb(12,12,255)" stroke-width="1" font-size="13" >2</text>
<text x="67.141016" y="148.000000" fill="rgb(12,12,255)"  stroke="rgb(12,12,255)" stroke-width="1" font-size="16" >N</text>
<text x="207.205081" y="148.000000" fill="rgb(255,12,12)"  stroke="rgb(255,12,12)" stroke-width="1" font-size="16" >OH</text>
<text x="137.923048" y="108.000000" fill="rgb(255,12,12)"  stroke="rgb(255,12,12)" stroke-width="1" font-size="16" >OH</text>
<text x="22.000000" y="208.000000" fill="rgb(255,12,12)"  stroke="rgb(255,12,12)" stroke-width="1" font-size="16" >HO</text>
<text x="520.974226" y="168.000000" fill="rgb(12,12,255)"  stroke="rgb(12,12,255)" stroke-width="1" font-size="16" >NH</text>
<text x="544.974226" y="171.680000" fill="rgb(12,12,255)"  stroke="rgb(12,12,255)" stroke-width="1" font-size="13" >2</text>
<text x="360.410162" y="168.000000" fill="rgb(12,12,255)"  stroke="rgb(12,12,255)" stroke-width="1" font-size="16" >H</text>
<text x="372.410162" y="171.680000" fill="rgb(12,12,255)"  stroke="rgb(12,12,255)" stroke-width="1" font-size="13" >2</text>
<text x="378.910162" y="168.000000" fill="rgb(12,12,255)"  stroke="rgb(12,12,255)" stroke-width="1" font-size="16" >N</text>
<text x="449.692194" y="48.000000" fill="rgb(255,12,12)"  stroke="rgb(255,12,12)" stroke-width="1" font-size="16" >OH</text>
<text x="518.974226" y="88.000000" fill="rgb(255,12,12)"  stroke="rgb(255,12,12)" stroke-width="1" font-size="16" >OH</text>
<text font-size="18.000000" fill ="black" font-family="sans-serif"
x="10.000000" y="20.000000" >lig.pdb</text>
<title>lig.pdb - OBDepict</title>
</svg>
