<?xml version="1.0"?>
<svg xmlns="http://www.w3.org/2000/svg"
xmlns:xlink="http://www.w3.org/1999/xlink" xmlns:cml="http://www.xml-cml.org/schema" width="518" height="358.369" x="0" y="0" font-family="sans-serif" stroke="rgb(0,0,0)" stroke-width="1"  stroke-linecap="round">
<rect x="0%" y="0%" width="100%" height="100%" stroke-width="0" fill="rgb(255,255,255)"  />
<line x1="78.0" y1="120.3" x2="83.7" y2="146.7" stroke="rgb(0,0,0)"  stroke-width="1.0"/>
<line x1="78.0" y1="120.3" x2="52.4" y2="112.0" stroke="rgb(0,0,0)"  stroke-width="1.0"/>
<line x1="313.0" y1="276.2" x2="339.4" y2="281.8" stroke="rgb(0,0,0)"  stroke-width="1.0"/>
<line x1="170.8" y1="223.3" x2="176.4" y2="249.7" stroke="rgb(0,0,0)"  stroke-width="1.0"/>
<line x1="170.8" y1="223.3" x2="145.1" y2="214.9" stroke="rgb(0,0,0)"  stroke-width="1.0"/>
<polygon points="145.810314 105.891128 119.085932 101.413699 121.558068 93.805247 " stroke-width="1.000000" fill="rgb(0,0,0)"  stroke="rgb(0,0,0)" />
<line x1="98.1" y1="102.2" x2="78.0" y2="120.3" stroke="rgb(0,0,0)"  stroke-width="1.0"/>
<polygon points="268.253564 182.099072 258.768940 156.716363 266.594121 155.053069 " stroke-width="1.000000" fill="rgb(0,0,0)"  stroke="rgb(0,0,0)" />
<polygon points="374.077415 198.368537 348.867934 188.432639 352.867934 181.504436 " stroke-width="1.000000" fill="rgb(0,0,0)"  stroke="rgb(0,0,0)" />
<line x1="150.7" y1="149.2" x2="149.6" y2="148.0" stroke="rgb(0,0,0)"  stroke-width="1.0"/>
<line x1="147.9" y1="152.5" x2="146.0" y2="150.4" stroke="rgb(0,0,0)"  stroke-width="1.0"/>
<line x1="145.2" y1="155.9" x2="142.4" y2="152.8" stroke="rgb(0,0,0)"  stroke-width="1.0"/>
<line x1="142.4" y1="159.2" x2="138.8" y2="155.2" stroke="rgb(0,0,0)"  stroke-width="1.0"/>
<line x1="139.6" y1="162.6" x2="135.1" y2="157.6" stroke="rgb(0,0,0)"  stroke-width="1.0"/>
<line x1="136.9" y1="165.9" x2="131.5" y2="160.0" stroke="rgb(0,0,0)"  stroke-width="1.0"/>
<line x1="309.0" y1="195.0" x2="309.8" y2="196.4" stroke="rgb(0,0,0)"  stroke-width="1.0"/>
<line x1="312.4" y1="192.3" x2="313.9" y2="194.8" stroke="rgb(0,0,0)"  stroke-width="1.0"/>
<line x1="315.8" y1="189.6" x2="317.9" y2="193.2" stroke="rgb(0,0,0)"  stroke-width="1.0"/>
<line x1="319.2" y1="186.9" x2="321.9" y2="191.6" stroke="rgb(0,0,0)"  stroke-width="1.0"/>
<line x1="322.6" y1="184.2" x2="326.0" y2="190.0" stroke="rgb(0,0,0)"  stroke-width="1.0"/>
<line x1="326.0" y1="181.5" x2="330.0" y2="188.4" stroke="rgb(0,0,0)"  stroke-width="1.0"/>
<polygon points="408.718431 178.368537 404.718431 151.568537 412.718431 151.568537 " stroke-width="1.000000" fill="rgb(0,0,0)"  stroke="rgb(0,0,0)" />
<line x1="420.0" y1="131.9" x2="432.1" y2="124.9" stroke="rgb(0,0,0)"  stroke-width="1.0"/>
<polygon points="192.169043 157.377712 201.653666 182.760421 193.828486 184.423715 " stroke-width="1.000000" fill="rgb(0,0,0)"  stroke="rgb(0,0,0)" />
<line x1="190.8" y1="205.2" x2="170.8" y2="223.3" stroke="rgb(0,0,0)"  stroke-width="1.0"/>
<polygon points="300.614244 238.149413 316.779150 274.955606 309.170697 277.427742 " stroke-width="1.000000" fill="rgb(0,0,0)"  stroke="rgb(0,0,0)" />
<line x1="300.6" y1="238.1" x2="327.0" y2="243.8" stroke="rgb(0,0,0)"  stroke-width="1.0"/>
<line x1="447.6" y1="195.0" x2="448.4" y2="196.4" stroke="rgb(0,0,0)"  stroke-width="1.0"/>
<line x1="451.0" y1="192.3" x2="452.4" y2="194.8" stroke="rgb(0,0,0)"  stroke-width="1.0"/>
<line x1="454.4" y1="189.6" x2="456.5" y2="193.2" stroke="rgb(0,0,0)"  stroke-width="1.0"/>
<line x1="457.8" y1="186.9" x2="460.5" y2="191.6" stroke="rgb(0,0,0)"  stroke-width="1.0"/>
<line x1="461.2" y1="184.2" x2="464.5" y2="190.0" stroke="rgb(0,0,0)"  stroke-width="1.0"/>
<line x1="464.6" y1="181.5" x2="468.6" y2="188.4" stroke="rgb(0,0,0)"  stroke-width="1.0"/>
<line x1="227.2" y1="131.5" x2="226.7" y2="133.0" stroke="rgb(0,0,0)"  stroke-width="1.0"/>
<line x1="231.5" y1="132.2" x2="230.6" y2="135.0" stroke="rgb(0,0,0)"  stroke-width="1.0"/>
<line x1="235.8" y1="132.9" x2="234.5" y2="136.9" stroke="rgb(0,0,0)"  stroke-width="1.0"/>
<line x1="240.1" y1="133.7" x2="238.4" y2="138.8" stroke="rgb(0,0,0)"  stroke-width="1.0"/>
<line x1="244.3" y1="134.4" x2="242.3" y2="140.8" stroke="rgb(0,0,0)"  stroke-width="1.0"/>
<line x1="248.6" y1="135.1" x2="246.1" y2="142.7" stroke="rgb(0,0,0)"  stroke-width="1.0"/>
<line x1="260.0" y1="251.7" x2="258.6" y2="251.0" stroke="rgb(0,0,0)"  stroke-width="1.0"/>
<line x1="258.9" y1="255.9" x2="256.2" y2="254.7" stroke="rgb(0,0,0)"  stroke-width="1.0"/>
<line x1="257.7" y1="260.0" x2="253.9" y2="258.4" stroke="rgb(0,0,0)"  stroke-width="1.0"/>
<line x1="256.6" y1="264.2" x2="251.6" y2="262.0" stroke="rgb(0,0,0)"  stroke-width="1.0"/>
<line x1="255.4" y1="268.4" x2="249.3" y2="265.7" stroke="rgb(0,0,0)"  stroke-width="1.0"/>
<line x1="254.2" y1="272.6" x2="246.9" y2="269.3" stroke="rgb(0,0,0)"  stroke-width="1.0"/>
<polygon points="443.359447 238.368537 468.568928 248.304436 464.568928 255.232639 " stroke-width="1.000000" fill="rgb(0,0,0)"  stroke="rgb(0,0,0)" />
<polygon points="213.578368 91.486584 230.818127 70.581304 236.171172 76.526463 " stroke-width="1.000000" fill="rgb(0,0,0)"  stroke="rgb(0,0,0)" />
<line x1="409.5" y1="266.4" x2="407.9" y2="266.4" stroke="rgb(0,0,0)"  stroke-width="1.0"/>
<line x1="410.2" y1="272.8" x2="407.3" y2="272.8" stroke="rgb(0,0,0)"  stroke-width="1.0"/>
<line x1="410.8" y1="279.2" x2="406.6" y2="279.2" stroke="rgb(0,0,0)"  stroke-width="1.0"/>
<line x1="411.4" y1="285.6" x2="406.0" y2="285.6" stroke="rgb(0,0,0)"  stroke-width="1.0"/>
<line x1="412.1" y1="292.0" x2="405.4" y2="292.0" stroke="rgb(0,0,0)"  stroke-width="1.0"/>
<line x1="412.7" y1="298.4" x2="404.7" y2="298.4" stroke="rgb(0,0,0)"  stroke-width="1.0"/>
<line x1="173.6" y1="74.0" x2="175.2" y2="73.7" stroke="rgb(0,0,0)"  stroke-width="1.0"/>
<line x1="172.1" y1="70.0" x2="174.9" y2="69.4" stroke="rgb(0,0,0)"  stroke-width="1.0"/>
<line x1="170.6" y1="65.9" x2="174.7" y2="65.1" stroke="rgb(0,0,0)"  stroke-width="1.0"/>
<line x1="169.1" y1="61.9" x2="174.4" y2="60.7" stroke="rgb(0,0,0)"  stroke-width="1.0"/>
<line x1="167.6" y1="57.8" x2="174.1" y2="56.4" stroke="rgb(0,0,0)"  stroke-width="1.0"/>
<line x1="166.1" y1="53.7" x2="173.9" y2="52.1" stroke="rgb(0,0,0)"  stroke-width="1.0"/>
<line x1="408.7" y1="298.4" x2="432.1" y2="311.9" stroke="rgb(0,0,0)"  stroke-width="1.0"/>
<line x1="268.3" y1="182.1" x2="304.8" y2="198.4" stroke="rgb(0,0,0)"  stroke-width="1.0"/>
<line x1="304.8" y1="198.4" x2="300.6" y2="238.1" stroke="rgb(0,0,0)"  stroke-width="1.0"/>
<line x1="300.6" y1="238.1" x2="261.5" y2="246.5" stroke="rgb(0,0,0)"  stroke-width="1.0"/>
<line x1="261.5" y1="246.5" x2="248.0" y2="223.1" stroke="rgb(0,0,0)"  stroke-width="1.0"/>
<line x1="250.2" y1="202.2" x2="268.3" y2="182.1" stroke="rgb(0,0,0)"  stroke-width="1.0"/>
<line x1="145.8" y1="105.9" x2="154.1" y2="145.0" stroke="rgb(0,0,0)"  stroke-width="1.0"/>
<line x1="154.1" y1="145.0" x2="192.2" y2="157.4" stroke="rgb(0,0,0)"  stroke-width="1.0"/>
<line x1="192.2" y1="157.4" x2="221.9" y2="130.6" stroke="rgb(0,0,0)"  stroke-width="1.0"/>
<line x1="221.9" y1="130.6" x2="213.6" y2="91.5" stroke="rgb(0,0,0)"  stroke-width="1.0"/>
<line x1="213.6" y1="91.5" x2="175.5" y2="79.1" stroke="rgb(0,0,0)"  stroke-width="1.0"/>
<line x1="175.5" y1="79.1" x2="145.8" y2="105.9" stroke="rgb(0,0,0)"  stroke-width="1.0"/>
<line x1="374.1" y1="198.4" x2="408.7" y2="178.4" stroke="rgb(0,0,0)"  stroke-width="1.0"/>
<line x1="408.7" y1="178.4" x2="443.4" y2="198.4" stroke="rgb(0,0,0)"  stroke-width="1.0"/>
<line x1="443.4" y1="198.4" x2="443.4" y2="238.4" stroke="rgb(0,0,0)"  stroke-width="1.0"/>
<line x1="443.4" y1="238.4" x2="408.7" y2="258.4" stroke="rgb(0,0,0)"  stroke-width="1.0"/>
<line x1="408.7" y1="258.4" x2="385.3" y2="244.9" stroke="rgb(0,0,0)"  stroke-width="1.0"/>
<line x1="374.1" y1="225.4" x2="374.1" y2="198.4" stroke="rgb(0,0,0)"  stroke-width="1.0"/>
<text x="82.358728" y="167.421577" fill="rgb(12,12,255)"  stroke="rgb(12,12,255)" stroke-width="1" font-size="16" >NH</text>
<text x="106.358728" y="171.101577" fill="rgb(12,12,255)"  stroke="rgb(12,12,255)" stroke-width="1" font-size="13" >2</text>
<text x="346.100827" y="292.508141" fill="rgb(255,12,12)"  stroke="rgb(255,12,12)" stroke-width="1" font-size="16" >OH</text>
<text x="175.076185" y="270.394744" fill="rgb(12,12,255)"  stroke="rgb(12,12,255)" stroke-width="1" font-size="16" >NH</text>
<text x="199.076185" y="274.074744" fill="rgb(12,12,255)"  stroke="rgb(12,12,255)" stroke-width="1" font-size="13" >2</text>
<text x="219.218874" y="291.007699" fill="rgb(102,102,102)"  stroke="rgb(102,102,102)" stroke-width="1" font-size="16" >H</text>
<text x="231.218874" y="294.687699" fill="rgb(102,102,102)"  stroke="rgb(102,102,102)" stroke-width="1" font-size="13" >3</text>
<text x="237.718874" y="291.007699" fill="rgb(102,102,102)"  stroke="rgb(102,102,102)" stroke-width="1" font-size="16" >C</text>
<text x="439.359447" y="126.368537" fill="rgb(102,102,102)"  stroke="rgb(102,102,102)" stroke-width="1" font-size="16" >CH</text>
<text x="463.359447" y="130.048537" fill="rgb(102,102,102)"  stroke="rgb(102,102,102)" stroke-width="1" font-size="13" >3</text>
<text x="101.768054" y="101.530449" fill="rgb(12,12,255)"  stroke="rgb(12,12,255)" stroke-width="1" font-size="16" >N</text>
<text x="101.768054" y="85.530449" fill="rgb(12,12,255)"  stroke="rgb(12,12,255)" stroke-width="1" font-size="16" >H</text>
<text x="333.436398" y="186.368537" fill="rgb(255,12,12)"  stroke="rgb(255,12,12)" stroke-width="1" font-size="16" >O</text>
<text x="106.400989" y="179.782257" fill="rgb(255,12,12)"  stroke="rgb(255,12,12)" stroke-width="1" font-size="16" >HO</text>
<text x="390.718431" y="146.368537" fill="rgb(12,12,255)"  stroke="rgb(12,12,255)" stroke-width="1" font-size="16" >HN</text>
<text x="194.485510" y="204.503616" fill="rgb(12,12,255)"  stroke="rgb(12,12,255)" stroke-width="1" font-size="16" >NH</text>
<text x="333.740148" y="254.465881" fill="rgb(255,12,12)"  stroke="rgb(255,12,12)" stroke-width="1" font-size="16" >OH</text>
<text x="472.000463" y="186.368537" fill="rgb(255,12,12)"  stroke="rgb(255,12,12)" stroke-width="1" font-size="16" >OH</text>
<text x="253.937096" y="150.973168" fill="rgb(255,12,12)"  stroke="rgb(255,12,12)" stroke-width="1" font-size="16" >O</text>
<text x="235.488340" y="219.824865" fill="rgb(255,12,12)"  stroke="rgb(255,12,12)" stroke-width="1" font-size="16" >O</text>
<text x="472.000463" y="266.368537" fill="rgb(255,12,12)"  stroke="rgb(255,12,12)" stroke-width="1" font-size="16" >OH</text>
<text x="237.304161" y="72.721360" fill="rgb(255,12,12)"  stroke="rgb(255,12,12)" stroke-width="1" font-size="16" >OH</text>
<text x="368.077415" y="246.368537" fill="rgb(255,12,12)"  stroke="rgb(255,12,12)" stroke-width="1" font-size="16" >O</text>
<text x="149.219640" y="48.000000" fill="rgb(255,12,12)"  stroke="rgb(255,12,12)" stroke-width="1" font-size="16" >HO</text>
<text x="437.359447" y="326.368537" fill="rgb(255,12,12)"  stroke="rgb(255,12,12)" stroke-width="1" font-size="16" >OH</text>
<text x="14.000000" y="115.934993" fill="rgb(12,12,255)"  stroke="rgb(12,12,255)" stroke-width="1" font-size="16" >H</text>
<text x="26.000000" y="119.614993" fill="rgb(12,12,255)"  stroke="rgb(12,12,255)" stroke-width="1" font-size="13" >2</text>
<text x="32.500000" y="115.934993" fill="rgb(12,12,255)"  stroke="rgb(12,12,255)" stroke-width="1" font-size="16" >N</text>
<text x="106.717457" y="218.908161" fill="rgb(12,12,255)"  stroke="rgb(12,12,255)" stroke-width="1" font-size="16" >H</text>
<text x="118.717457" y="222.588161" fill="rgb(12,12,255)"  stroke="rgb(12,12,255)" stroke-width="1" font-size="13" >2</text>
<text x="125.217457" y="218.908161" fill="rgb(12,12,255)"  stroke="rgb(12,12,255)" stroke-width="1" font-size="16" >N</text>
<text font-size="18.000000" fill ="black" font-family="sans-serif"
x="10.000000" y="20.000000" ></text>
<title> - OBDepict</title>
</svg>
