<?xml version="1.0"?>
<svg xmlns="http://www.w3.org/2000/svg"
xmlns:xlink="http://www.w3.org/1999/xlink" xmlns:cml="http://www.xml-cml.org/schema" width="530.333" height="260" x="0" y="0" font-family="sans-serif" stroke="rgb(0,0,0)" stroke-width="1"  stroke-linecap="round">
<rect x="0%" y="0%" width="100%" height="100%" stroke-width="0" fill="rgb(255,255,255)"  />
<line x1="149.0" y1="162.0" x2="148.2" y2="163.4" stroke="rgb(0,0,0)"  stroke-width="1.0"/>
<line x1="153.0" y1="163.6" x2="151.6" y2="166.1" stroke="rgb(0,0,0)"  stroke-width="1.0"/>
<line x1="157.0" y1="165.2" x2="155.0" y2="168.8" stroke="rgb(0,0,0)"  stroke-width="1.0"/>
<line x1="161.1" y1="166.8" x2="158.3" y2="171.5" stroke="rgb(0,0,0)"  stroke-width="1.0"/>
<line x1="165.1" y1="168.3" x2="161.7" y2="174.2" stroke="rgb(0,0,0)"  stroke-width="1.0"/>
<line x1="169.1" y1="169.9" x2="165.1" y2="176.9" stroke="rgb(0,0,0)"  stroke-width="1.0"/>
<line x1="110.1" y1="185.4" x2="108.5" y2="185.4" stroke="rgb(0,0,0)"  stroke-width="1.0"/>
<line x1="110.7" y1="189.6" x2="107.8" y2="189.6" stroke="rgb(0,0,0)"  stroke-width="1.0"/>
<line x1="111.4" y1="193.9" x2="107.2" y2="193.9" stroke="rgb(0,0,0)"  stroke-width="1.0"/>
<line x1="112.0" y1="198.2" x2="106.6" y2="198.2" stroke="rgb(0,0,0)"  stroke-width="1.0"/>
<line x1="112.6" y1="202.5" x2="105.9" y2="202.5" stroke="rgb(0,0,0)"  stroke-width="1.0"/>
<line x1="113.3" y1="206.8" x2="105.3" y2="206.8" stroke="rgb(0,0,0)"  stroke-width="1.0"/>
<polygon points="74.641016 160.000000 53.431535 176.864102 49.431535 169.935898 " stroke-width="1.000000" fill="rgb(0,0,0)"  stroke="rgb(0,0,0)" />
<line x1="69.6" y1="118.0" x2="70.4" y2="116.6" stroke="rgb(0,0,0)"  stroke-width="1.0"/>
<line x1="65.6" y1="116.4" x2="67.0" y2="113.9" stroke="rgb(0,0,0)"  stroke-width="1.0"/>
<line x1="61.5" y1="114.8" x2="63.6" y2="111.2" stroke="rgb(0,0,0)"  stroke-width="1.0"/>
<line x1="57.5" y1="113.2" x2="60.2" y2="108.5" stroke="rgb(0,0,0)"  stroke-width="1.0"/>
<line x1="53.5" y1="111.7" x2="56.8" y2="105.8" stroke="rgb(0,0,0)"  stroke-width="1.0"/>
<line x1="49.4" y1="110.1" x2="53.4" y2="103.1" stroke="rgb(0,0,0)"  stroke-width="1.0"/>
<polygon points="109.282032 100.000000 134.491513 109.935898 130.491513 116.864102 " stroke-width="1.000000" fill="rgb(0,0,0)"  stroke="rgb(0,0,0)" />
<polygon points="109.282032 60.000000 84.072551 50.064102 88.072551 43.135898 " stroke-width="1.000000" fill="rgb(0,0,0)"  stroke="rgb(0,0,0)" />
<line x1="109.3" y1="60.0" x2="109.3" y2="100.0" stroke="rgb(0,0,0)"  stroke-width="1.0"/>
<line x1="132.7" y1="46.5" x2="109.3" y2="60.0" stroke="rgb(0,0,0)"  stroke-width="1.0"/>
<polygon points="282.487113 120.000000 303.696594 103.135898 307.696594 110.064102 " stroke-width="1.000000" fill="rgb(0,0,0)"  stroke="rgb(0,0,0)" />
<polygon points="213.205081 120.000000 187.995600 110.064102 191.995600 103.135898 " stroke-width="1.000000" fill="rgb(0,0,0)"  stroke="rgb(0,0,0)" />
<line x1="209.0" y1="163.4" x2="208.2" y2="162.0" stroke="rgb(0,0,0)"  stroke-width="1.0"/>
<line x1="205.6" y1="166.1" x2="204.1" y2="163.6" stroke="rgb(0,0,0)"  stroke-width="1.0"/>
<line x1="202.2" y1="168.8" x2="200.1" y2="165.2" stroke="rgb(0,0,0)"  stroke-width="1.0"/>
<line x1="198.8" y1="171.5" x2="196.1" y2="166.8" stroke="rgb(0,0,0)"  stroke-width="1.0"/>
<line x1="195.4" y1="174.2" x2="192.0" y2="168.3" stroke="rgb(0,0,0)"  stroke-width="1.0"/>
<line x1="192.0" y1="176.9" x2="188.0" y2="169.9" stroke="rgb(0,0,0)"  stroke-width="1.0"/>
<polygon points="247.846097 180.000000 251.846097 206.800000 243.846097 206.800000 " stroke-width="1.000000" fill="rgb(0,0,0)"  stroke="rgb(0,0,0)" />
<line x1="287.5" y1="162.0" x2="286.7" y2="163.4" stroke="rgb(0,0,0)"  stroke-width="1.0"/>
<line x1="291.6" y1="163.6" x2="290.1" y2="166.1" stroke="rgb(0,0,0)"  stroke-width="1.0"/>
<line x1="295.6" y1="165.2" x2="293.5" y2="168.8" stroke="rgb(0,0,0)"  stroke-width="1.0"/>
<line x1="299.6" y1="166.8" x2="296.9" y2="171.5" stroke="rgb(0,0,0)"  stroke-width="1.0"/>
<line x1="303.7" y1="168.3" x2="300.3" y2="174.2" stroke="rgb(0,0,0)"  stroke-width="1.0"/>
<line x1="307.7" y1="169.9" x2="303.7" y2="176.9" stroke="rgb(0,0,0)"  stroke-width="1.0"/>
<polygon points="351.769145 160.000000 330.559665 176.864102 326.559665 169.935898 " stroke-width="1.000000" fill="rgb(0,0,0)"  stroke="rgb(0,0,0)" />
<polygon points="386.410162 180.000000 390.410162 206.800000 382.410162 206.800000 " stroke-width="1.000000" fill="rgb(0,0,0)"  stroke="rgb(0,0,0)" />
<line x1="426.1" y1="162.0" x2="425.3" y2="163.4" stroke="rgb(0,0,0)"  stroke-width="1.0"/>
<line x1="430.1" y1="163.6" x2="428.7" y2="166.1" stroke="rgb(0,0,0)"  stroke-width="1.0"/>
<line x1="434.2" y1="165.2" x2="432.1" y2="168.8" stroke="rgb(0,0,0)"  stroke-width="1.0"/>
<line x1="438.2" y1="166.8" x2="435.5" y2="171.5" stroke="rgb(0,0,0)"  stroke-width="1.0"/>
<line x1="442.2" y1="168.3" x2="438.9" y2="174.2" stroke="rgb(0,0,0)"  stroke-width="1.0"/>
<line x1="446.3" y1="169.9" x2="442.3" y2="176.9" stroke="rgb(0,0,0)"  stroke-width="1.0"/>
<line x1="467.0" y1="173.5" x2="479.1" y2="166.5" stroke="rgb(0,0,0)"  stroke-width="1.0"/>
<line x1="423.0" y1="115.0" x2="424.4" y2="115.8" stroke="rgb(0,0,0)"  stroke-width="1.0"/>
<line x1="424.6" y1="110.9" x2="427.1" y2="112.4" stroke="rgb(0,0,0)"  stroke-width="1.0"/>
<line x1="426.2" y1="106.9" x2="429.8" y2="109.0" stroke="rgb(0,0,0)"  stroke-width="1.0"/>
<line x1="427.8" y1="102.9" x2="432.5" y2="105.6" stroke="rgb(0,0,0)"  stroke-width="1.0"/>
<line x1="429.4" y1="98.8" x2="435.2" y2="102.2" stroke="rgb(0,0,0)"  stroke-width="1.0"/>
<line x1="431.0" y1="94.8" x2="437.9" y2="98.8" stroke="rgb(0,0,0)"  stroke-width="1.0"/>
<line x1="421.1" y1="120.0" x2="448.1" y2="120.0" stroke="rgb(0,0,0)"  stroke-width="1.0"/>
<line x1="143.9" y1="160.0" x2="143.9" y2="133.0" stroke="rgb(0,0,0)"  stroke-width="1.0"/>
<line x1="132.7" y1="113.5" x2="109.3" y2="100.0" stroke="rgb(0,0,0)"  stroke-width="1.0"/>
<line x1="109.3" y1="100.0" x2="74.6" y2="120.0" stroke="rgb(0,0,0)"  stroke-width="1.0"/>
<line x1="74.6" y1="120.0" x2="74.6" y2="160.0" stroke="rgb(0,0,0)"  stroke-width="1.0"/>
<line x1="74.6" y1="160.0" x2="109.3" y2="180.0" stroke="rgb(0,0,0)"  stroke-width="1.0"/>
<line x1="109.3" y1="180.0" x2="143.9" y2="160.0" stroke="rgb(0,0,0)"  stroke-width="1.0"/>
<line x1="213.2" y1="120.0" x2="247.8" y2="100.0" stroke="rgb(0,0,0)"  stroke-width="1.0"/>
<line x1="247.8" y1="100.0" x2="282.5" y2="120.0" stroke="rgb(0,0,0)"  stroke-width="1.0"/>
<line x1="282.5" y1="120.0" x2="282.5" y2="160.0" stroke="rgb(0,0,0)"  stroke-width="1.0"/>
<line x1="282.5" y1="160.0" x2="247.8" y2="180.0" stroke="rgb(0,0,0)"  stroke-width="1.0"/>
<line x1="247.8" y1="180.0" x2="213.2" y2="160.0" stroke="rgb(0,0,0)"  stroke-width="1.0"/>
<line x1="213.2" y1="160.0" x2="213.2" y2="120.0" stroke="rgb(0,0,0)"  stroke-width="1.0"/>
<line x1="351.8" y1="160.0" x2="351.8" y2="133.0" stroke="rgb(0,0,0)"  stroke-width="1.0"/>
<line x1="363.0" y1="113.5" x2="386.4" y2="100.0" stroke="rgb(0,0,0)"  stroke-width="1.0"/>
<line x1="386.4" y1="100.0" x2="421.1" y2="120.0" stroke="rgb(0,0,0)"  stroke-width="1.0"/>
<line x1="421.1" y1="120.0" x2="421.1" y2="160.0" stroke="rgb(0,0,0)"  stroke-width="1.0"/>
<line x1="421.1" y1="160.0" x2="386.4" y2="180.0" stroke="rgb(0,0,0)"  stroke-width="1.0"/>
<line x1="386.4" y1="180.0" x2="351.8" y2="160.0" stroke="rgb(0,0,0)"  stroke-width="1.0"/>
<text x="172.564065" y="188.000000" fill="rgb(255,12,12)"  stroke="rgb(255,12,12)" stroke-width="1" font-size="16" >O</text>
<text x="105.282032" y="228.000000" fill="rgb(12,12,255)"  stroke="rgb(12,12,255)" stroke-width="1" font-size="16" >NH</text>
<text x="129.282032" y="231.680000" fill="rgb(12,12,255)"  stroke="rgb(12,12,255)" stroke-width="1" font-size="13" >2</text>
<text x="22.000000" y="188.000000" fill="rgb(255,12,12)"  stroke="rgb(255,12,12)" stroke-width="1" font-size="16" >HO</text>
<text x="22.000000" y="108.000000" fill="rgb(255,12,12)"  stroke="rgb(255,12,12)" stroke-width="1" font-size="16" >HO</text>
<text x="137.923048" y="128.000000" fill="rgb(255,12,12)"  stroke="rgb(255,12,12)" stroke-width="1" font-size="16" >O</text>
<text x="137.923048" y="48.000000" fill="rgb(255,12,12)"  stroke="rgb(255,12,12)" stroke-width="1" font-size="16" >OH</text>
<text x="48.641016" y="48.000000" fill="rgb(102,102,102)"  stroke="rgb(102,102,102)" stroke-width="1" font-size="16" >H</text>
<text x="60.641016" y="51.680000" fill="rgb(102,102,102)"  stroke="rgb(102,102,102)" stroke-width="1" font-size="13" >3</text>
<text x="67.141016" y="48.000000" fill="rgb(102,102,102)"  stroke="rgb(102,102,102)" stroke-width="1" font-size="16" >C</text>
<text x="313.128129" y="108.000000" fill="rgb(12,12,255)"  stroke="rgb(12,12,255)" stroke-width="1" font-size="16" >NH</text>
<text x="337.128129" y="111.680000" fill="rgb(12,12,255)"  stroke="rgb(12,12,255)" stroke-width="1" font-size="13" >2</text>
<text x="152.564065" y="108.000000" fill="rgb(12,12,255)"  stroke="rgb(12,12,255)" stroke-width="1" font-size="16" >H</text>
<text x="164.564065" y="111.680000" fill="rgb(12,12,255)"  stroke="rgb(12,12,255)" stroke-width="1" font-size="13" >2</text>
<text x="171.064065" y="108.000000" fill="rgb(12,12,255)"  stroke="rgb(12,12,255)" stroke-width="1" font-size="16" >N</text>
<text x="241.846097" y="228.000000" fill="rgb(255,12,12)"  stroke="rgb(255,12,12)" stroke-width="1" font-size="16" >OH</text>
<text x="311.128129" y="188.000000" fill="rgb(255,12,12)"  stroke="rgb(255,12,12)" stroke-width="1" font-size="16" >O</text>
<text x="380.410162" y="228.000000" fill="rgb(255,12,12)"  stroke="rgb(255,12,12)" stroke-width="1" font-size="16" >OH</text>
<text x="449.692194" y="188.000000" fill="rgb(12,12,255)"  stroke="rgb(12,12,255)" stroke-width="1" font-size="16" >N</text>
<text x="449.692194" y="204.000000" fill="rgb(12,12,255)"  stroke="rgb(12,12,255)" stroke-width="1" font-size="16" >H</text>
<text x="486.333210" y="168.000000" fill="rgb(102,102,102)"  stroke="rgb(102,102,102)" stroke-width="1" font-size="16" >CH</text>
<text x="510.333210" y="171.680000" fill="rgb(102,102,102)"  stroke="rgb(102,102,102)" stroke-width="1" font-size="13" >3</text>
<text x="435.051178" y="93.358984" fill="rgb(255,12,12)"  stroke="rgb(255,12,12)" stroke-width="1" font-size="16" >OH</text>
<text x="457.051178" y="128.000000" fill="rgb(102,102,102)"  stroke="rgb(102,102,102)" stroke-width="1" font-size="16" >CH</text>
<text x="481.051178" y="131.680000" fill="rgb(102,102,102)"  stroke="rgb(102,102,102)" stroke-width="1" font-size="13" >3</text>
<text x="345.769145" y="128.000000" fill="rgb(255,12,12)"  stroke="rgb(255,12,12)" stroke-width="1" font-size="16" >O</text>
<text font-size="18.000000" fill ="black" font-family="sans-serif"
x="10.000000" y="20.000000" ></text>
<title> - OBDepict</title>
</svg>
