<?xml version="1.0"?>
<svg xmlns="http://www.w3.org/2000/svg"
xmlns:xlink="http://www.w3.org/1999/xlink" xmlns:cml="http://www.xml-cml.org/schema" width="756.864" height="699.498" x="0" y="0" font-family="sans-serif" stroke="rgb(0,0,0)" stroke-width="1"  stroke-linecap="round">
<rect x="0%" y="0%" width="100%" height="100%" stroke-width="0" fill="rgb(255,255,255)"  />
<polygon points="436.866 457.322 440.866 471.88 432.866 471.88 " stroke-width="1" fill="rgb(0,0,0)"  stroke="rgb(0,0,0)" />
<line x1="364.1" y1="481.1" x2="364.1" y2="479.5" stroke="rgb(0,0,0)"  stroke-width="1.0"/>
<line x1="357.2" y1="481.7" x2="357.2" y2="478.8" stroke="rgb(0,0,0)"  stroke-width="1.0"/>
<line x1="350.4" y1="482.4" x2="350.4" y2="478.2" stroke="rgb(0,0,0)"  stroke-width="1.0"/>
<line x1="343.5" y1="483.0" x2="343.5" y2="477.6" stroke="rgb(0,0,0)"  stroke-width="1.0"/>
<line x1="336.7" y1="483.6" x2="336.7" y2="476.9" stroke="rgb(0,0,0)"  stroke-width="1.0"/>
<line x1="329.8" y1="484.3" x2="329.8" y2="476.3" stroke="rgb(0,0,0)"  stroke-width="1.0"/>
<line x1="372.6" y1="480.3" x2="387.5" y2="506.1" stroke="rgb(0,0,0)"  stroke-width="1.0"/>
<line x1="372.6" y1="480.3" x2="387.5" y2="454.5" stroke="rgb(0,0,0)"  stroke-width="1.0"/>
<polygon points="335.116678 248.620679 342.045200 205.774033 349.791312 207.773468 " stroke-width="1.000000" fill="rgb(0,0,0)"  stroke="rgb(0,0,0)" />
<polygon points="345.918256 206.773750 366.916444 208.062723 364.917008 215.808835 " stroke-width="1.000000" fill="rgb(0,0,0)"  stroke="rgb(0,0,0)" />
<polygon points="541.711885 521.821840 569.824022 514.845102 570.660250 522.801278 " stroke-width="1.000000" fill="rgb(0,0,0)"  stroke="rgb(0,0,0)" />
<polygon points="360.832950 179.795198 387.874483 190.174150 384.003901 197.175478 " stroke-width="1.000000" fill="rgb(0,0,0)"  stroke="rgb(0,0,0)" />
<line x1="360.8" y1="179.8" x2="397.5" y2="157.7" stroke="rgb(0,0,0)"  stroke-width="1.0"/>
<polygon points="513.061707 490.002594 515.113563 461.110433 522.938744 462.773726 " stroke-width="1.000000" fill="rgb(0,0,0)"  stroke="rgb(0,0,0)" />
<polygon points="473.946414 507.417844 447.102394 496.538245 451.102394 489.610041 " stroke-width="1.000000" fill="rgb(0,0,0)"  stroke="rgb(0,0,0)" />
<polygon points="314.104728 153.962190 344.851865 149.390109 345.000508 157.388728 " stroke-width="1.000000" fill="rgb(0,0,0)"  stroke="rgb(0,0,0)" />
<polygon points="344.926186 153.389418 362.141366 113.982125 369.142695 117.852706 " stroke-width="1.000000" fill="rgb(0,0,0)"  stroke="rgb(0,0,0)" />
<line x1="423.9" y1="443.2" x2="407.0" y2="443.2" stroke="rgb(0,0,0)"  stroke-width="1.0"/>
<line x1="472.6" y1="556.3" x2="471.5" y2="555.1" stroke="rgb(0,0,0)"  stroke-width="1.0"/>
<line x1="467.9" y1="561.4" x2="466.0" y2="559.2" stroke="rgb(0,0,0)"  stroke-width="1.0"/>
<line x1="463.3" y1="566.4" x2="460.5" y2="563.4" stroke="rgb(0,0,0)"  stroke-width="1.0"/>
<line x1="458.6" y1="571.5" x2="455.0" y2="567.5" stroke="rgb(0,0,0)"  stroke-width="1.0"/>
<line x1="453.9" y1="576.6" x2="449.4" y2="571.6" stroke="rgb(0,0,0)"  stroke-width="1.0"/>
<line x1="449.3" y1="581.6" x2="443.9" y2="575.7" stroke="rgb(0,0,0)"  stroke-width="1.0"/>
<line x1="449.9" y1="443.2" x2="466.7" y2="443.2" stroke="rgb(0,0,0)"  stroke-width="1.0"/>
<line x1="251.1" y1="132.9" x2="251.5" y2="134.5" stroke="rgb(0,0,0)"  stroke-width="1.0"/>
<line x1="257.5" y1="130.7" x2="258.2" y2="133.5" stroke="rgb(0,0,0)"  stroke-width="1.0"/>
<line x1="263.9" y1="128.5" x2="264.9" y2="132.6" stroke="rgb(0,0,0)"  stroke-width="1.0"/>
<line x1="270.3" y1="126.3" x2="271.5" y2="131.6" stroke="rgb(0,0,0)"  stroke-width="1.0"/>
<line x1="276.7" y1="124.1" x2="278.2" y2="130.7" stroke="rgb(0,0,0)"  stroke-width="1.0"/>
<line x1="283.1" y1="121.9" x2="284.9" y2="129.7" stroke="rgb(0,0,0)"  stroke-width="1.0"/>
<line x1="284.6" y1="120.3" x2="286.2" y2="120.7" stroke="rgb(0,0,0)"  stroke-width="1.0"/>
<line x1="285.1" y1="115.8" x2="287.9" y2="116.6" stroke="rgb(0,0,0)"  stroke-width="1.0"/>
<line x1="285.6" y1="111.4" x2="289.6" y2="112.5" stroke="rgb(0,0,0)"  stroke-width="1.0"/>
<line x1="286.1" y1="107.0" x2="291.3" y2="108.3" stroke="rgb(0,0,0)"  stroke-width="1.0"/>
<line x1="286.5" y1="102.5" x2="293.1" y2="104.2" stroke="rgb(0,0,0)"  stroke-width="1.0"/>
<line x1="287.0" y1="98.1" x2="294.8" y2="100.1" stroke="rgb(0,0,0)"  stroke-width="1.0"/>
<line x1="682.2" y1="599.5" x2="706.3" y2="617.0" stroke="rgb(0,0,0)"  stroke-width="1.0"/>
<line x1="446.6" y1="578.7" x2="418.2" y2="569.4" stroke="rgb(0,0,0)"  stroke-width="1.0"/>
<line x1="433.9" y1="430.2" x2="433.9" y2="413.4" stroke="rgb(0,0,0)"  stroke-width="1.0"/>
<line x1="439.9" y1="430.2" x2="439.9" y2="413.4" stroke="rgb(0,0,0)"  stroke-width="1.0"/>
<line x1="643.1" y1="616.9" x2="640.0" y2="646.6" stroke="rgb(0,0,0)"  stroke-width="1.0"/>
<polygon points="217.717849 132.951808 216.754017 104.002920 224.709740 104.843437 " stroke-width="1.000000" fill="rgb(0,0,0)"  stroke="rgb(0,0,0)" />
<line x1="217.7" y1="133.0" x2="183.1" y2="107.8" stroke="rgb(0,0,0)"  stroke-width="1.0"/>
<polygon points="202.708125 153.587518 159.707823 153.066828 160.548339 145.111105 " stroke-width="1.000000" fill="rgb(0,0,0)"  stroke="rgb(0,0,0)" />
<line x1="211.2" y1="180.4" x2="210.0" y2="179.3" stroke="rgb(0,0,0)"  stroke-width="1.0"/>
<line x1="209.7" y1="183.1" x2="207.5" y2="181.3" stroke="rgb(0,0,0)"  stroke-width="1.0"/>
<line x1="208.2" y1="185.9" x2="205.0" y2="183.2" stroke="rgb(0,0,0)"  stroke-width="1.0"/>
<line x1="206.7" y1="188.7" x2="202.6" y2="185.1" stroke="rgb(0,0,0)"  stroke-width="1.0"/>
<line x1="205.2" y1="191.4" x2="200.1" y2="187.1" stroke="rgb(0,0,0)"  stroke-width="1.0"/>
<line x1="203.7" y1="194.2" x2="197.6" y2="189.0" stroke="rgb(0,0,0)"  stroke-width="1.0"/>
<line x1="202.9" y1="206.8" x2="204.4" y2="206.5" stroke="rgb(0,0,0)"  stroke-width="1.0"/>
<line x1="201.6" y1="204.0" x2="204.5" y2="203.4" stroke="rgb(0,0,0)"  stroke-width="1.0"/>
<line x1="200.4" y1="201.1" x2="204.5" y2="200.2" stroke="rgb(0,0,0)"  stroke-width="1.0"/>
<line x1="199.2" y1="198.2" x2="204.5" y2="197.1" stroke="rgb(0,0,0)"  stroke-width="1.0"/>
<line x1="198.0" y1="195.3" x2="204.6" y2="194.0" stroke="rgb(0,0,0)"  stroke-width="1.0"/>
<line x1="196.7" y1="192.4" x2="204.6" y2="190.8" stroke="rgb(0,0,0)"  stroke-width="1.0"/>
<line x1="184.0" y1="225.9" x2="166.1" y2="202.1" stroke="rgb(0,0,0)"  stroke-width="1.0"/>
<line x1="184.0" y1="225.9" x2="154.5" y2="229.5" stroke="rgb(0,0,0)"  stroke-width="1.0"/>
<polygon points="210.701813 261.123999 185.634487 254.866339 188.750414 247.498097 " stroke-width="1.000000" fill="rgb(0,0,0)"  stroke="rgb(0,0,0)" />
<polygon points="187.192450 251.182218 155.443560 280.187478 150.620438 273.804885 " stroke-width="1.000000" fill="rgb(0,0,0)"  stroke="rgb(0,0,0)" />
<line x1="273.9" y1="282.5" x2="273.4" y2="281.0" stroke="rgb(0,0,0)"  stroke-width="1.0"/>
<line x1="267.6" y1="285.0" x2="266.8" y2="282.2" stroke="rgb(0,0,0)"  stroke-width="1.0"/>
<line x1="261.3" y1="287.4" x2="260.2" y2="283.4" stroke="rgb(0,0,0)"  stroke-width="1.0"/>
<line x1="255.0" y1="289.9" x2="253.5" y2="284.7" stroke="rgb(0,0,0)"  stroke-width="1.0"/>
<line x1="248.8" y1="292.3" x2="246.9" y2="285.9" stroke="rgb(0,0,0)"  stroke-width="1.0"/>
<line x1="242.5" y1="294.8" x2="240.3" y2="287.1" stroke="rgb(0,0,0)"  stroke-width="1.0"/>
<polygon points="241.383461 290.955971 252.758999 316.958002 245.050951 319.099496 " stroke-width="1.000000" fill="rgb(0,0,0)"  stroke="rgb(0,0,0)" />
<line x1="306.2" y1="300.2" x2="304.9" y2="299.4" stroke="rgb(0,0,0)"  stroke-width="1.0"/>
<line x1="304.5" y1="304.5" x2="302.0" y2="303.1" stroke="rgb(0,0,0)"  stroke-width="1.0"/>
<line x1="302.8" y1="308.8" x2="299.2" y2="306.7" stroke="rgb(0,0,0)"  stroke-width="1.0"/>
<line x1="301.0" y1="313.1" x2="296.3" y2="310.4" stroke="rgb(0,0,0)"  stroke-width="1.0"/>
<line x1="299.3" y1="317.4" x2="293.5" y2="314.1" stroke="rgb(0,0,0)"  stroke-width="1.0"/>
<line x1="297.5" y1="321.7" x2="290.6" y2="317.7" stroke="rgb(0,0,0)"  stroke-width="1.0"/>
<line x1="308.4" y1="294.9" x2="329.8" y2="332.0" stroke="rgb(0,0,0)"  stroke-width="1.0"/>
<line x1="342.9" y1="283.0" x2="342.1" y2="284.4" stroke="rgb(0,0,0)"  stroke-width="1.0"/>
<line x1="349.2" y1="285.9" x2="347.7" y2="288.4" stroke="rgb(0,0,0)"  stroke-width="1.0"/>
<line x1="355.4" y1="288.8" x2="353.4" y2="292.4" stroke="rgb(0,0,0)"  stroke-width="1.0"/>
<line x1="361.7" y1="291.7" x2="359.0" y2="296.4" stroke="rgb(0,0,0)"  stroke-width="1.0"/>
<line x1="367.9" y1="294.5" x2="364.6" y2="300.3" stroke="rgb(0,0,0)"  stroke-width="1.0"/>
<line x1="374.2" y1="297.4" x2="370.2" y2="304.3" stroke="rgb(0,0,0)"  stroke-width="1.0"/>
<line x1="323.3" y1="200.1" x2="322.9" y2="201.7" stroke="rgb(0,0,0)"  stroke-width="1.0"/>
<line x1="328.0" y1="200.7" x2="327.3" y2="203.5" stroke="rgb(0,0,0)"  stroke-width="1.0"/>
<line x1="332.7" y1="201.2" x2="331.7" y2="205.3" stroke="rgb(0,0,0)"  stroke-width="1.0"/>
<line x1="337.5" y1="201.8" x2="336.1" y2="207.0" stroke="rgb(0,0,0)"  stroke-width="1.0"/>
<line x1="342.2" y1="202.3" x2="340.5" y2="208.8" stroke="rgb(0,0,0)"  stroke-width="1.0"/>
<line x1="346.9" y1="202.9" x2="344.9" y2="210.6" stroke="rgb(0,0,0)"  stroke-width="1.0"/>
<line x1="236.5" y1="157.8" x2="238.1" y2="158.2" stroke="rgb(0,0,0)"  stroke-width="1.0"/>
<line x1="237.1" y1="153.2" x2="239.9" y2="153.9" stroke="rgb(0,0,0)"  stroke-width="1.0"/>
<line x1="237.6" y1="148.6" x2="241.6" y2="149.6" stroke="rgb(0,0,0)"  stroke-width="1.0"/>
<line x1="238.1" y1="143.9" x2="243.4" y2="145.3" stroke="rgb(0,0,0)"  stroke-width="1.0"/>
<line x1="238.7" y1="139.3" x2="245.2" y2="141.0" stroke="rgb(0,0,0)"  stroke-width="1.0"/>
<line x1="239.2" y1="134.6" x2="247.0" y2="136.6" stroke="rgb(0,0,0)"  stroke-width="1.0"/>
<line x1="213.2" y1="215.9" x2="213.9" y2="214.5" stroke="rgb(0,0,0)"  stroke-width="1.0"/>
<line x1="211.1" y1="215.5" x2="212.4" y2="213.0" stroke="rgb(0,0,0)"  stroke-width="1.0"/>
<line x1="209.0" y1="215.2" x2="210.9" y2="211.5" stroke="rgb(0,0,0)"  stroke-width="1.0"/>
<line x1="206.8" y1="214.8" x2="209.3" y2="209.9" stroke="rgb(0,0,0)"  stroke-width="1.0"/>
<line x1="204.7" y1="214.4" x2="207.8" y2="208.4" stroke="rgb(0,0,0)"  stroke-width="1.0"/>
<line x1="202.6" y1="214.0" x2="206.2" y2="206.9" stroke="rgb(0,0,0)"  stroke-width="1.0"/>
<line x1="288.3" y1="257.2" x2="286.7" y2="256.8" stroke="rgb(0,0,0)"  stroke-width="1.0"/>
<line x1="287.7" y1="261.9" x2="284.9" y2="261.2" stroke="rgb(0,0,0)"  stroke-width="1.0"/>
<line x1="287.2" y1="266.5" x2="283.2" y2="265.5" stroke="rgb(0,0,0)"  stroke-width="1.0"/>
<line x1="286.7" y1="271.2" x2="281.4" y2="269.8" stroke="rgb(0,0,0)"  stroke-width="1.0"/>
<line x1="286.1" y1="275.8" x2="279.6" y2="274.1" stroke="rgb(0,0,0)"  stroke-width="1.0"/>
<line x1="285.6" y1="280.5" x2="277.8" y2="278.5" stroke="rgb(0,0,0)"  stroke-width="1.0"/>
<line x1="397.5" y1="157.7" x2="435.0" y2="178.4" stroke="rgb(0,0,0)"  stroke-width="1.0"/>
<line x1="438.0" y1="178.4" x2="438.5" y2="208.2" stroke="rgb(0,0,0)"  stroke-width="1.0"/>
<line x1="432.0" y1="178.5" x2="432.5" y2="208.3" stroke="rgb(0,0,0)"  stroke-width="1.0"/>
<line x1="435.0" y1="178.4" x2="460.5" y2="163.0" stroke="rgb(0,0,0)"  stroke-width="1.0"/>
<line x1="365.6" y1="115.9" x2="408.5" y2="115.1" stroke="rgb(0,0,0)"  stroke-width="1.0"/>
<line x1="408.5" y1="115.1" x2="429.2" y2="77.6" stroke="rgb(0,0,0)"  stroke-width="1.0"/>
<line x1="429.2" y1="77.6" x2="413.8" y2="52.1" stroke="rgb(0,0,0)"  stroke-width="1.0"/>
<line x1="429.1" y1="74.7" x2="458.9" y2="74.1" stroke="rgb(0,0,0)"  stroke-width="1.0"/>
<line x1="429.2" y1="80.6" x2="459.0" y2="80.1" stroke="rgb(0,0,0)"  stroke-width="1.0"/>
<line x1="183.1" y1="107.8" x2="187.6" y2="65.2" stroke="rgb(0,0,0)"  stroke-width="1.0"/>
<line x1="185.8" y1="67.6" x2="161.7" y2="50.1" stroke="rgb(0,0,0)"  stroke-width="1.0"/>
<line x1="189.4" y1="62.8" x2="165.2" y2="45.2" stroke="rgb(0,0,0)"  stroke-width="1.0"/>
<line x1="187.6" y1="65.2" x2="214.8" y2="53.1" stroke="rgb(0,0,0)"  stroke-width="1.0"/>
<line x1="160.1" y1="149.1" x2="142.7" y2="110.0" stroke="rgb(0,0,0)"  stroke-width="1.0"/>
<line x1="142.7" y1="110.0" x2="100.2" y2="105.5" stroke="rgb(0,0,0)"  stroke-width="1.0"/>
<line x1="97.4" y1="106.7" x2="85.3" y2="79.4" stroke="rgb(0,0,0)"  stroke-width="1.0"/>
<line x1="102.9" y1="104.2" x2="90.8" y2="77.0" stroke="rgb(0,0,0)"  stroke-width="1.0"/>
<line x1="100.2" y1="105.5" x2="82.6" y2="129.6" stroke="rgb(0,0,0)"  stroke-width="1.0"/>
<line x1="153.0" y1="277.0" x2="113.6" y2="260.3" stroke="rgb(0,0,0)"  stroke-width="1.0"/>
<line x1="113.6" y1="260.3" x2="79.4" y2="286.1" stroke="rgb(0,0,0)"  stroke-width="1.0"/>
<line x1="78.3" y1="288.9" x2="50.8" y2="277.3" stroke="rgb(0,0,0)"  stroke-width="1.0"/>
<line x1="80.6" y1="283.4" x2="53.1" y2="271.8" stroke="rgb(0,0,0)"  stroke-width="1.0"/>
<line x1="79.4" y1="286.1" x2="83.1" y2="315.7" stroke="rgb(0,0,0)"  stroke-width="1.0"/>
<line x1="329.8" y1="332.0" x2="308.4" y2="369.0" stroke="rgb(0,0,0)"  stroke-width="1.0"/>
<line x1="308.4" y1="369.0" x2="329.8" y2="406.1" stroke="rgb(0,0,0)"  stroke-width="1.0"/>
<line x1="329.8" y1="403.1" x2="359.6" y2="403.1" stroke="rgb(0,0,0)"  stroke-width="1.0"/>
<line x1="329.8" y1="409.1" x2="359.6" y2="409.1" stroke="rgb(0,0,0)"  stroke-width="1.0"/>
<line x1="329.8" y1="406.1" x2="314.9" y2="431.9" stroke="rgb(0,0,0)"  stroke-width="1.0"/>
<line x1="329.8" y1="480.3" x2="314.9" y2="454.5" stroke="rgb(0,0,0)"  stroke-width="1.0"/>
<line x1="372.2" y1="300.9" x2="409.3" y2="279.5" stroke="rgb(0,0,0)"  stroke-width="1.0"/>
<line x1="409.3" y1="279.5" x2="435.1" y2="294.4" stroke="rgb(0,0,0)"  stroke-width="1.0"/>
<line x1="406.3" y1="279.5" x2="406.3" y2="249.6" stroke="rgb(0,0,0)"  stroke-width="1.0"/>
<line x1="412.3" y1="279.5" x2="412.3" y2="249.6" stroke="rgb(0,0,0)"  stroke-width="1.0"/>
<polygon points="276.162511 203.980693 288.782565 195.988189 291.096832 203.646137 " stroke-width="1.000000" fill="rgb(0,0,0)"  stroke="rgb(0,0,0)" />
<line x1="513.1" y1="490.0" x2="541.7" y2="521.8" stroke="rgb(0,0,0)"  stroke-width="1.0"/>
<line x1="541.7" y1="521.8" x2="526.8" y2="547.6" stroke="rgb(0,0,0)"  stroke-width="1.0"/>
<line x1="507.6" y1="556.2" x2="478.4" y2="550.0" stroke="rgb(0,0,0)"  stroke-width="1.0"/>
<line x1="478.4" y1="550.0" x2="473.9" y2="507.4" stroke="rgb(0,0,0)"  stroke-width="1.0"/>
<line x1="473.9" y1="507.4" x2="513.1" y2="490.0" stroke="rgb(0,0,0)"  stroke-width="1.0"/>
<line x1="345.9" y1="206.8" x2="360.8" y2="179.8" stroke="rgb(0,0,0)"  stroke-width="1.0"/>
<line x1="360.8" y1="179.8" x2="344.9" y2="153.4" stroke="rgb(0,0,0)"  stroke-width="1.0"/>
<line x1="344.9" y1="153.4" x2="314.1" y2="154.0" stroke="rgb(0,0,0)"  stroke-width="1.0"/>
<line x1="314.1" y1="154.0" x2="306.6" y2="183.2" stroke="rgb(0,0,0)"  stroke-width="1.0"/>
<line x1="315.9" y1="199.0" x2="345.9" y2="206.8" stroke="rgb(0,0,0)"  stroke-width="1.0"/>
<line x1="202.7" y1="153.6" x2="213.1" y2="176.9" stroke="rgb(0,0,0)"  stroke-width="1.0"/>
<line x1="213.1" y1="176.9" x2="219.3" y2="177.1" stroke="rgb(0,0,0)"  stroke-width="1.0"/>
<line x1="235.5" y1="164.9" x2="243.1" y2="135.6" stroke="rgb(0,0,0)"  stroke-width="1.0"/>
<line x1="243.1" y1="135.6" x2="217.7" y2="133.0" stroke="rgb(0,0,0)"  stroke-width="1.0"/>
<line x1="217.7" y1="133.0" x2="202.7" y2="153.6" stroke="rgb(0,0,0)"  stroke-width="1.0"/>
<line x1="308.4" y1="294.9" x2="335.1" y2="279.5" stroke="rgb(0,0,0)"  stroke-width="1.0"/>
<line x1="335.1" y1="279.5" x2="335.1" y2="248.6" stroke="rgb(0,0,0)"  stroke-width="1.0"/>
<line x1="335.1" y1="248.6" x2="305.1" y2="240.9" stroke="rgb(0,0,0)"  stroke-width="1.0"/>
<line x1="289.3" y1="250.2" x2="281.7" y2="279.5" stroke="rgb(0,0,0)"  stroke-width="1.0"/>
<line x1="281.7" y1="279.5" x2="308.4" y2="294.9" stroke="rgb(0,0,0)"  stroke-width="1.0"/>
<line x1="335.1" y1="248.6" x2="345.9" y2="206.8" stroke="rgb(0,0,0)"  stroke-width="1.0"/>
<line x1="290.9" y1="199.5" x2="275.2" y2="204.3" stroke="rgb(0,0,0)"  stroke-width="1.0"/>
<line x1="272.0" y1="217.2" x2="283.3" y2="228.4" stroke="rgb(0,0,0)"  stroke-width="1.0"/>
<line x1="590.8" y1="506.1" x2="605.7" y2="480.3" stroke="rgb(0,0,0)"  stroke-width="1.0"/>
<line x1="605.7" y1="480.3" x2="633.8" y2="486.2" stroke="rgb(0,0,0)"  stroke-width="1.0"/>
<line x1="610.1" y1="488.6" x2="630.6" y2="492.9" stroke="rgb(0,0,0)"  stroke-width="1.0"/>
<line x1="648.9" y1="502.1" x2="652.1" y2="531.8" stroke="rgb(0,0,0)"  stroke-width="1.0"/>
<line x1="652.1" y1="531.8" x2="612.9" y2="549.2" stroke="rgb(0,0,0)"  stroke-width="1.0"/>
<line x1="643.7" y1="527.6" x2="615.5" y2="540.1" stroke="rgb(0,0,0)"  stroke-width="1.0"/>
<line x1="612.9" y1="549.2" x2="593.0" y2="527.0" stroke="rgb(0,0,0)"  stroke-width="1.0"/>
<line x1="187.2" y1="251.2" x2="210.7" y2="261.1" stroke="rgb(0,0,0)"  stroke-width="1.0"/>
<line x1="210.7" y1="261.1" x2="218.3" y2="231.9" stroke="rgb(0,0,0)"  stroke-width="1.0"/>
<line x1="210.0" y1="213.3" x2="204.4" y2="210.5" stroke="rgb(0,0,0)"  stroke-width="1.0"/>
<line x1="204.4" y1="210.5" x2="184.0" y2="225.9" stroke="rgb(0,0,0)"  stroke-width="1.0"/>
<line x1="184.0" y1="225.9" x2="187.2" y2="251.2" stroke="rgb(0,0,0)"  stroke-width="1.0"/>
<line x1="284.0" y1="125.8" x2="243.1" y2="135.6" stroke="rgb(0,0,0)"  stroke-width="1.0"/>
<line x1="241.5" y1="186.7" x2="253.6" y2="198.8" stroke="rgb(0,0,0)"  stroke-width="1.0"/>
<line x1="314.1" y1="154.0" x2="284.0" y2="125.8" stroke="rgb(0,0,0)"  stroke-width="1.0"/>
<line x1="241.4" y1="291.0" x2="281.7" y2="279.5" stroke="rgb(0,0,0)"  stroke-width="1.0"/>
<line x1="250.2" y1="211.4" x2="234.0" y2="215.9" stroke="rgb(0,0,0)"  stroke-width="1.0"/>
<line x1="210.7" y1="261.1" x2="241.4" y2="291.0" stroke="rgb(0,0,0)"  stroke-width="1.0"/>
<line x1="686.7" y1="556.9" x2="682.2" y2="599.5" stroke="rgb(0,0,0)"  stroke-width="1.0"/>
<line x1="678.9" y1="562.1" x2="675.7" y2="592.8" stroke="rgb(0,0,0)"  stroke-width="1.0"/>
<line x1="682.2" y1="599.5" x2="643.1" y2="616.9" stroke="rgb(0,0,0)"  stroke-width="1.0"/>
<line x1="643.1" y1="616.9" x2="608.5" y2="591.7" stroke="rgb(0,0,0)"  stroke-width="1.0"/>
<line x1="642.5" y1="607.6" x2="617.6" y2="589.4" stroke="rgb(0,0,0)"  stroke-width="1.0"/>
<line x1="608.5" y1="591.7" x2="612.9" y2="549.2" stroke="rgb(0,0,0)"  stroke-width="1.0"/>
<line x1="652.1" y1="531.8" x2="686.7" y2="556.9" stroke="rgb(0,0,0)"  stroke-width="1.0"/>
<line x1="213.1" y1="176.9" x2="200.7" y2="191.6" stroke="rgb(0,0,0)"  stroke-width="1.0"/>
<line x1="200.7" y1="191.6" x2="204.4" y2="210.5" stroke="rgb(0,0,0)"  stroke-width="1.0"/>
<text x="430.865787" y="451.192316" fill="rgb(255,127,0)"  stroke="rgb(255,127,0)" stroke-width="1" font-size="16" >P</text>
<text x="390.048768" y="525.353568" fill="rgb(102,102,102)"  stroke="rgb(102,102,102)" stroke-width="1" font-size="16" >CH</text>
<text x="414.048768" y="529.033568" fill="rgb(102,102,102)"  stroke="rgb(102,102,102)" stroke-width="1" font-size="13" >3</text>
<text x="578.294349" y="525.346243" fill="rgb(12,12,255)"  stroke="rgb(12,12,255)" stroke-width="1" font-size="16" >N</text>
<text x="430.865787" y="494.009335" fill="rgb(255,12,12)"  stroke="rgb(255,12,12)" stroke-width="1" font-size="16" >O</text>
<text x="641.584223" y="497.167775" fill="rgb(12,12,255)"  stroke="rgb(12,12,255)" stroke-width="1" font-size="16" >N</text>
<text x="388.048768" y="451.192316" fill="rgb(255,12,12)"  stroke="rgb(255,12,12)" stroke-width="1" font-size="16" >O</text>
<text x="484.482807" y="439.160316" fill="rgb(255,12,12)"  stroke="rgb(255,12,12)" stroke-width="1" font-size="32" >-</text>
<text x="473.682807" y="451.192316" fill="rgb(255,12,12)"  stroke="rgb(255,12,12)" stroke-width="1" font-size="16" >O</text>
<text x="712.863615" y="632.667127" fill="rgb(102,102,102)"  stroke="rgb(102,102,102)" stroke-width="1" font-size="16" >CH</text>
<text x="736.863615" y="636.347127" fill="rgb(102,102,102)"  stroke="rgb(102,102,102)" stroke-width="1" font-size="13" >3</text>
<text x="430.865787" y="408.375296" fill="rgb(255,12,12)"  stroke="rgb(255,12,12)" stroke-width="1" font-size="16" >O</text>
<text x="612.633028" y="667.497628" fill="rgb(102,102,102)"  stroke="rgb(102,102,102)" stroke-width="1" font-size="16" >H</text>
<text x="624.633028" y="671.177628" fill="rgb(102,102,102)"  stroke="rgb(102,102,102)" stroke-width="1" font-size="13" >3</text>
<text x="631.133028" y="667.497628" fill="rgb(102,102,102)"  stroke="rgb(102,102,102)" stroke-width="1" font-size="16" >C</text>
<text x="514.303376" y="566.902467" fill="rgb(255,12,12)"  stroke="rgb(255,12,12)" stroke-width="1" font-size="16" >O</text>
<text x="515.963866" y="456.121229" fill="rgb(255,12,12)"  stroke="rgb(255,12,12)" stroke-width="1" font-size="16" >OH</text>
<text x="387.881360" y="573.419299" fill="rgb(255,12,12)"  stroke="rgb(255,12,12)" stroke-width="1" font-size="16" >HO</text>
<text x="371.766719" y="222.478271" fill="rgb(102,102,102)"  stroke="rgb(102,102,102)" stroke-width="1" font-size="16" >CH</text>
<text x="395.766719" y="226.158271" fill="rgb(102,102,102)"  stroke="rgb(102,102,102)" stroke-width="1" font-size="13" >3</text>
<text x="297.311675" y="203.776090" fill="rgb(12,12,255)"  stroke="rgb(12,12,255)" stroke-width="1" font-size="16" >N</text>
<text x="226.300707" y="185.446656" fill="rgb(12,12,255)"  stroke="rgb(12,12,255)" stroke-width="1" font-size="16" >N</text>
<text x="215.499129" y="227.293584" fill="rgb(12,12,255)"  stroke="rgb(12,12,255)" stroke-width="1" font-size="16" >N</text>
<text x="286.510097" y="245.623018" fill="rgb(12,12,255)"  stroke="rgb(12,12,255)" stroke-width="1" font-size="16" >N</text>
<text x="394.304953" y="208.511042" fill="rgb(102,102,102)"  stroke="rgb(102,102,102)" stroke-width="1" font-size="16" >CH</text>
<text x="418.304953" y="212.191042" fill="rgb(102,102,102)"  stroke="rgb(102,102,102)" stroke-width="1" font-size="13" >3</text>
<text x="429.776955" y="229.226886" fill="rgb(255,12,12)"  stroke="rgb(255,12,12)" stroke-width="1" font-size="16" >O</text>
<text x="467.657849" y="164.323475" fill="rgb(12,12,255)"  stroke="rgb(12,12,255)" stroke-width="1" font-size="16" >NH</text>
<text x="491.657849" y="168.003475" fill="rgb(12,12,255)"  stroke="rgb(12,12,255)" stroke-width="1" font-size="13" >2</text>
<text x="381.073718" y="48.973411" fill="rgb(12,12,255)"  stroke="rgb(12,12,255)" stroke-width="1" font-size="16" >H</text>
<text x="393.073718" y="52.653411" fill="rgb(12,12,255)"  stroke="rgb(12,12,255)" stroke-width="1" font-size="13" >2</text>
<text x="399.573718" y="48.973411" fill="rgb(12,12,255)"  stroke="rgb(12,12,255)" stroke-width="1" font-size="16" >N</text>
<text x="465.977130" y="84.854306" fill="rgb(255,12,12)"  stroke="rgb(255,12,12)" stroke-width="1" font-size="16" >O</text>
<text x="290.302539" y="93.939550" fill="rgb(102,102,102)"  stroke="rgb(102,102,102)" stroke-width="1" font-size="16" >CH</text>
<text x="314.302539" y="97.619550" fill="rgb(102,102,102)"  stroke="rgb(102,102,102)" stroke-width="1" font-size="13" >3</text>
<text x="218.216401" y="98.371764" fill="rgb(102,102,102)"  stroke="rgb(102,102,102)" stroke-width="1" font-size="16" >CH</text>
<text x="242.216401" y="102.051764" fill="rgb(102,102,102)"  stroke="rgb(102,102,102)" stroke-width="1" font-size="13" >3</text>
<text x="146.964152" y="48.000000" fill="rgb(255,12,12)"  stroke="rgb(255,12,12)" stroke-width="1" font-size="16" >O</text>
<text x="222.714952" y="55.791720" fill="rgb(12,12,255)"  stroke="rgb(12,12,255)" stroke-width="1" font-size="16" >NH</text>
<text x="246.714952" y="59.471720" fill="rgb(12,12,255)"  stroke="rgb(12,12,255)" stroke-width="1" font-size="13" >2</text>
<text x="76.759712" y="74.341064" fill="rgb(255,12,12)"  stroke="rgb(255,12,12)" stroke-width="1" font-size="16" >O</text>
<text x="48.967992" y="148.091864" fill="rgb(12,12,255)"  stroke="rgb(12,12,255)" stroke-width="1" font-size="16" >H</text>
<text x="60.967992" y="151.771864" fill="rgb(12,12,255)"  stroke="rgb(12,12,255)" stroke-width="1" font-size="13" >2</text>
<text x="67.467992" y="148.091864" fill="rgb(12,12,255)"  stroke="rgb(12,12,255)" stroke-width="1" font-size="16" >N</text>
<text x="132.233640" y="199.691170" fill="rgb(102,102,102)"  stroke="rgb(102,102,102)" stroke-width="1" font-size="16" >H</text>
<text x="144.233640" y="203.371170" fill="rgb(102,102,102)"  stroke="rgb(102,102,102)" stroke-width="1" font-size="13" >3</text>
<text x="150.733640" y="199.691170" fill="rgb(102,102,102)"  stroke="rgb(102,102,102)" stroke-width="1" font-size="16" >C</text>
<text x="115.556803" y="239.126944" fill="rgb(102,102,102)"  stroke="rgb(102,102,102)" stroke-width="1" font-size="16" >H</text>
<text x="127.556803" y="242.806944" fill="rgb(102,102,102)"  stroke="rgb(102,102,102)" stroke-width="1" font-size="13" >3</text>
<text x="134.056803" y="239.126944" fill="rgb(102,102,102)"  stroke="rgb(102,102,102)" stroke-width="1" font-size="16" >C</text>
<text x="34.000000" y="277.456471" fill="rgb(255,12,12)"  stroke="rgb(255,12,12)" stroke-width="1" font-size="16" >O</text>
<text x="80.711096" y="336.624108" fill="rgb(12,12,255)"  stroke="rgb(12,12,255)" stroke-width="1" font-size="16" >NH</text>
<text x="104.711096" y="340.304108" fill="rgb(12,12,255)"  stroke="rgb(12,12,255)" stroke-width="1" font-size="13" >2</text>
<text x="248.609602" y="339.363102" fill="rgb(102,102,102)"  stroke="rgb(102,102,102)" stroke-width="1" font-size="16" >CH</text>
<text x="272.609602" y="343.043102" fill="rgb(102,102,102)"  stroke="rgb(102,102,102)" stroke-width="1" font-size="13" >3</text>
<text x="261.006220" y="339.950436" fill="rgb(102,102,102)"  stroke="rgb(102,102,102)" stroke-width="1" font-size="16" >H</text>
<text x="273.006220" y="343.630436" fill="rgb(102,102,102)"  stroke="rgb(102,102,102)" stroke-width="1" font-size="13" >3</text>
<text x="279.506220" y="339.950436" fill="rgb(102,102,102)"  stroke="rgb(102,102,102)" stroke-width="1" font-size="16" >C</text>
<text x="366.640258" y="414.111689" fill="rgb(255,12,12)"  stroke="rgb(255,12,12)" stroke-width="1" font-size="16" >O</text>
<text x="290.414729" y="451.192316" fill="rgb(12,12,255)"  stroke="rgb(12,12,255)" stroke-width="1" font-size="16" >HN</text>
<text x="442.358557" y="308.861942" fill="rgb(12,12,255)"  stroke="rgb(12,12,255)" stroke-width="1" font-size="16" >NH</text>
<text x="466.358557" y="312.541942" fill="rgb(12,12,255)"  stroke="rgb(12,12,255)" stroke-width="1" font-size="13" >2</text>
<text x="403.277931" y="244.636414" fill="rgb(255,12,12)"  stroke="rgb(255,12,12)" stroke-width="1" font-size="16" >O</text>
<text x="256.790535" y="216.021766" fill="rgb(239,142,160)"  stroke="rgb(239,142,160)" stroke-width="1" font-size="16" >Co</text>
<text font-size="18.000000" fill ="black" font-family="sans-serif"
x="10.000000" y="20.000000" ></text>
<title> - OBDepict</title>
</svg>
