<?xml version="1.0"?>
<svg xmlns="http://www.w3.org/2000/svg"
xmlns:xlink="http://www.w3.org/1999/xlink" xmlns:cml="http://www.xml-cml.org/schema" width="524.358" height="300" x="0" y="0" font-family="sans-serif" stroke="rgb(0,0,0)" stroke-width="1"  stroke-linecap="round">
<rect x="0%" y="0%" width="100%" height="100%" stroke-width="0" fill="rgb(255,255,255)"  />
<line x1="137.9" y1="140.0" x2="103.3" y2="160.0" stroke="rgb(0,0,0)"  stroke-width="1.0"/>
<line x1="175.6" y1="53.0" x2="175.6" y2="80.0" stroke="rgb(0,0,0)"  stroke-width="1.0"/>
<line x1="169.6" y1="53.0" x2="169.6" y2="80.0" stroke="rgb(0,0,0)"  stroke-width="1.0"/>
<line x1="234.5" y1="156.7" x2="235.3" y2="155.3" stroke="rgb(0,0,0)"  stroke-width="1.0"/>
<line x1="228.7" y1="154.0" x2="230.1" y2="151.6" stroke="rgb(0,0,0)"  stroke-width="1.0"/>
<line x1="222.8" y1="151.4" x2="224.9" y2="147.8" stroke="rgb(0,0,0)"  stroke-width="1.0"/>
<line x1="217.0" y1="148.8" x2="219.7" y2="144.0" stroke="rgb(0,0,0)"  stroke-width="1.0"/>
<line x1="211.1" y1="146.1" x2="214.5" y2="140.3" stroke="rgb(0,0,0)"  stroke-width="1.0"/>
<line x1="205.2" y1="143.5" x2="209.2" y2="136.5" stroke="rgb(0,0,0)"  stroke-width="1.0"/>
<line x1="322.4" y1="153.5" x2="345.8" y2="140.0" stroke="rgb(0,0,0)"  stroke-width="1.0"/>
<line x1="345.8" y1="140.0" x2="380.4" y2="160.0" stroke="rgb(0,0,0)"  stroke-width="1.0"/>
<line x1="449.7" y1="200.0" x2="473.1" y2="213.5" stroke="rgb(0,0,0)"  stroke-width="1.0"/>
<line x1="484.4" y1="233.0" x2="484.4" y2="247.0" stroke="rgb(0,0,0)"  stroke-width="1.0"/>
<line x1="103.3" y1="160.0" x2="100.5" y2="186.9" stroke="rgb(0,0,0)"  stroke-width="1.0"/>
<line x1="86.4" y1="202.5" x2="60.0" y2="208.1" stroke="rgb(0,0,0)"  stroke-width="1.0"/>
<line x1="60.0" y1="208.1" x2="40.0" y2="173.5" stroke="rgb(0,0,0)"  stroke-width="1.0"/>
<line x1="63.2" y1="199.3" x2="49.2" y2="175.1" stroke="rgb(0,0,0)"  stroke-width="1.0"/>
<line x1="40.0" y1="173.5" x2="66.8" y2="143.7" stroke="rgb(0,0,0)"  stroke-width="1.0"/>
<line x1="66.8" y1="143.7" x2="103.3" y2="160.0" stroke="rgb(0,0,0)"  stroke-width="1.0"/>
<line x1="69.3" y1="152.7" x2="94.9" y2="164.1" stroke="rgb(0,0,0)"  stroke-width="1.0"/>
<line x1="196.0" y1="93.5" x2="172.6" y2="80.0" stroke="rgb(0,0,0)"  stroke-width="1.0"/>
<line x1="172.6" y1="80.0" x2="137.9" y2="100.0" stroke="rgb(0,0,0)"  stroke-width="1.0"/>
<line x1="137.9" y1="100.0" x2="137.9" y2="140.0" stroke="rgb(0,0,0)"  stroke-width="1.0"/>
<line x1="137.9" y1="140.0" x2="161.2" y2="153.4" stroke="rgb(0,0,0)"  stroke-width="1.0"/>
<line x1="146.7" y1="136.8" x2="163.0" y2="146.2" stroke="rgb(0,0,0)"  stroke-width="1.0"/>
<line x1="183.8" y1="153.5" x2="207.2" y2="140.0" stroke="rgb(0,0,0)"  stroke-width="1.0"/>
<line x1="207.2" y1="140.0" x2="207.2" y2="113.2" stroke="rgb(0,0,0)"  stroke-width="1.0"/>
<line x1="200.0" y1="134.0" x2="200.0" y2="115.2" stroke="rgb(0,0,0)"  stroke-width="1.0"/>
<line x1="241.9" y1="160.0" x2="241.9" y2="200.0" stroke="rgb(0,0,0)"  stroke-width="1.0"/>
<line x1="241.9" y1="200.0" x2="276.5" y2="220.0" stroke="rgb(0,0,0)"  stroke-width="1.0"/>
<line x1="276.5" y1="220.0" x2="311.2" y2="200.0" stroke="rgb(0,0,0)"  stroke-width="1.0"/>
<line x1="311.2" y1="200.0" x2="311.2" y2="173.0" stroke="rgb(0,0,0)"  stroke-width="1.0"/>
<line x1="299.9" y1="153.5" x2="276.5" y2="140.0" stroke="rgb(0,0,0)"  stroke-width="1.0"/>
<line x1="276.5" y1="140.0" x2="241.9" y2="160.0" stroke="rgb(0,0,0)"  stroke-width="1.0"/>
<line x1="380.4" y1="160.0" x2="380.4" y2="200.0" stroke="rgb(0,0,0)"  stroke-width="1.0"/>
<line x1="380.4" y1="200.0" x2="403.6" y2="213.4" stroke="rgb(0,0,0)"  stroke-width="1.0"/>
<line x1="389.2" y1="196.8" x2="405.5" y2="206.2" stroke="rgb(0,0,0)"  stroke-width="1.0"/>
<line x1="426.3" y1="213.5" x2="449.7" y2="200.0" stroke="rgb(0,0,0)"  stroke-width="1.0"/>
<line x1="449.7" y1="200.0" x2="449.7" y2="173.2" stroke="rgb(0,0,0)"  stroke-width="1.0"/>
<line x1="442.5" y1="194.0" x2="442.5" y2="175.2" stroke="rgb(0,0,0)"  stroke-width="1.0"/>
<line x1="438.5" y1="153.5" x2="415.1" y2="140.0" stroke="rgb(0,0,0)"  stroke-width="1.0"/>
<line x1="415.1" y1="140.0" x2="380.4" y2="160.0" stroke="rgb(0,0,0)"  stroke-width="1.0"/>
<line x1="413.5" y1="149.2" x2="389.2" y2="163.2" stroke="rgb(0,0,0)"  stroke-width="1.0"/>
<text x="201.230091" y="108.000000" fill="rgb(12,12,255)"  stroke="rgb(12,12,255)" stroke-width="1" font-size="16" >N</text>
<text x="166.589075" y="168.000000" fill="rgb(12,12,255)"  stroke="rgb(12,12,255)" stroke-width="1" font-size="16" >N</text>
<text x="166.589075" y="48.000000" fill="rgb(255,12,12)"  stroke="rgb(255,12,12)" stroke-width="1" font-size="16" >O</text>
<text x="305.153139" y="168.000000" fill="rgb(12,12,255)"  stroke="rgb(12,12,255)" stroke-width="1" font-size="16" >N</text>
<text x="93.125904" y="207.780876" fill="rgb(178,178,0)"  stroke="rgb(178,178,0)" stroke-width="1" font-size="16" >S</text>
<text x="409.076188" y="228.000000" fill="rgb(12,12,255)"  stroke="rgb(12,12,255)" stroke-width="1" font-size="16" >N</text>
<text x="443.717204" y="168.000000" fill="rgb(12,12,255)"  stroke="rgb(12,12,255)" stroke-width="1" font-size="16" >N</text>
<text x="478.358220" y="228.000000" fill="rgb(255,12,12)"  stroke="rgb(255,12,12)" stroke-width="1" font-size="16" >O</text>
<text x="480.358220" y="268.000000" fill="rgb(102,102,102)"  stroke="rgb(102,102,102)" stroke-width="1" font-size="16" >CH</text>
<text x="504.358220" y="271.680000" fill="rgb(102,102,102)"  stroke="rgb(102,102,102)" stroke-width="1" font-size="13" >3</text>
<text font-size="18.000000" fill ="black" font-family="sans-serif"
x="10.000000" y="20.000000" ></text>
<title> - OBDepict</title>
</svg>
