<?xml version="1.0"?>
<svg xmlns="http://www.w3.org/2000/svg"
xmlns:xlink="http://www.w3.org/1999/xlink" xmlns:cml="http://www.xml-cml.org/schema" width="398.315" height="330.809" x="0" y="0" font-family="sans-serif" stroke="rgb(0,0,0)" stroke-width="1"  stroke-linecap="round">
<rect x="0%" y="0%" width="100%" height="100%" stroke-width="0" fill="rgb(255,255,255)"  />
<line x1="319.1" y1="95.9" x2="317.5" y2="95.9" stroke="rgb(0,0,0)"  stroke-width="1.0"/>
<line x1="319.8" y1="98.1" x2="316.9" y2="98.1" stroke="rgb(0,0,0)"  stroke-width="1.0"/>
<line x1="320.4" y1="100.3" x2="316.2" y2="100.3" stroke="rgb(0,0,0)"  stroke-width="1.0"/>
<line x1="321.0" y1="102.4" x2="315.6" y2="102.4" stroke="rgb(0,0,0)"  stroke-width="1.0"/>
<line x1="321.7" y1="104.6" x2="315.0" y2="104.6" stroke="rgb(0,0,0)"  stroke-width="1.0"/>
<line x1="322.3" y1="106.8" x2="314.3" y2="106.8" stroke="rgb(0,0,0)"  stroke-width="1.0"/>
<line x1="331.3" y1="80.0" x2="345.3" y2="80.0" stroke="rgb(0,0,0)"  stroke-width="1.0"/>
<line x1="315.3" y1="67.0" x2="315.3" y2="53.0" stroke="rgb(0,0,0)"  stroke-width="1.0"/>
<line x1="321.3" y1="67.0" x2="321.3" y2="53.0" stroke="rgb(0,0,0)"  stroke-width="1.0"/>
<line x1="305.3" y1="80.0" x2="291.3" y2="80.0" stroke="rgb(0,0,0)"  stroke-width="1.0"/>
<polygon points="218.315339 114.641016 258.315339 110.641016 258.315339 118.641016 " stroke-width="1.000000" fill="rgb(0,0,0)"  stroke="rgb(0,0,0)" />
<line x1="258.3" y1="114.6" x2="271.8" y2="91.3" stroke="rgb(0,0,0)"  stroke-width="1.0"/>
<polygon points="156.761669 134.641016 183.486051 139.118446 181.013915 146.726898 " stroke-width="1.000000" fill="rgb(0,0,0)"  stroke="rgb(0,0,0)" />
<line x1="195.7" y1="76.9" x2="197.2" y2="77.4" stroke="rgb(0,0,0)"  stroke-width="1.0"/>
<line x1="196.4" y1="72.7" x2="199.2" y2="73.5" stroke="rgb(0,0,0)"  stroke-width="1.0"/>
<line x1="197.1" y1="68.4" x2="201.1" y2="69.7" stroke="rgb(0,0,0)"  stroke-width="1.0"/>
<line x1="197.8" y1="64.1" x2="203.0" y2="65.8" stroke="rgb(0,0,0)"  stroke-width="1.0"/>
<line x1="198.6" y1="59.8" x2="205.0" y2="61.9" stroke="rgb(0,0,0)"  stroke-width="1.0"/>
<line x1="199.3" y1="55.6" x2="206.9" y2="58.0" stroke="rgb(0,0,0)"  stroke-width="1.0"/>
<line x1="152.0" y1="92.1" x2="152.9" y2="90.8" stroke="rgb(0,0,0)"  stroke-width="1.0"/>
<line x1="148.1" y1="90.1" x2="149.8" y2="87.8" stroke="rgb(0,0,0)"  stroke-width="1.0"/>
<line x1="144.3" y1="88.1" x2="146.7" y2="84.8" stroke="rgb(0,0,0)"  stroke-width="1.0"/>
<line x1="140.4" y1="86.1" x2="143.6" y2="81.7" stroke="rgb(0,0,0)"  stroke-width="1.0"/>
<line x1="136.6" y1="84.1" x2="140.5" y2="78.7" stroke="rgb(0,0,0)"  stroke-width="1.0"/>
<line x1="132.7" y1="82.1" x2="137.4" y2="75.7" stroke="rgb(0,0,0)"  stroke-width="1.0"/>
<line x1="156.8" y1="134.6" x2="134.9" y2="150.5" stroke="rgb(0,0,0)"  stroke-width="1.0"/>
<line x1="150.3" y1="267.0" x2="149.3" y2="268.2" stroke="rgb(0,0,0)"  stroke-width="1.0"/>
<line x1="153.9" y1="269.4" x2="152.0" y2="271.6" stroke="rgb(0,0,0)"  stroke-width="1.0"/>
<line x1="157.6" y1="271.8" x2="154.8" y2="274.9" stroke="rgb(0,0,0)"  stroke-width="1.0"/>
<line x1="161.2" y1="274.2" x2="157.5" y2="278.3" stroke="rgb(0,0,0)"  stroke-width="1.0"/>
<line x1="164.8" y1="276.6" x2="160.3" y2="281.6" stroke="rgb(0,0,0)"  stroke-width="1.0"/>
<line x1="168.4" y1="279.0" x2="163.1" y2="284.9" stroke="rgb(0,0,0)"  stroke-width="1.0"/>
<polygon points="124.400989 198.152426 146.993793 213.112547 141.640748 219.057706 " stroke-width="1.000000" fill="rgb(0,0,0)"  stroke="rgb(0,0,0)" />
<line x1="85.5" y1="218.5" x2="83.9" y2="218.2" stroke="rgb(0,0,0)"  stroke-width="1.0"/>
<line x1="84.8" y1="224.9" x2="82.0" y2="224.3" stroke="rgb(0,0,0)"  stroke-width="1.0"/>
<line x1="84.1" y1="231.3" x2="80.0" y2="230.4" stroke="rgb(0,0,0)"  stroke-width="1.0"/>
<line x1="83.4" y1="237.7" x2="78.0" y2="236.6" stroke="rgb(0,0,0)"  stroke-width="1.0"/>
<line x1="82.7" y1="244.1" x2="76.1" y2="242.7" stroke="rgb(0,0,0)"  stroke-width="1.0"/>
<line x1="82.0" y1="250.5" x2="74.1" y2="248.8" stroke="rgb(0,0,0)"  stroke-width="1.0"/>
<line x1="79.0" y1="252.5" x2="53.3" y2="260.8" stroke="rgb(0,0,0)"  stroke-width="1.0"/>
<line x1="77.1" y1="246.8" x2="51.4" y2="255.1" stroke="rgb(0,0,0)"  stroke-width="1.0"/>
<polygon points="111.847043 154.073402 85.122660 149.595973 87.594796 141.987520 " stroke-width="1.000000" fill="rgb(0,0,0)"  stroke="rgb(0,0,0)" />
<line x1="218.3" y1="114.6" x2="194.8" y2="82.3" stroke="rgb(0,0,0)"  stroke-width="1.0"/>
<line x1="194.8" y1="82.3" x2="156.8" y2="94.6" stroke="rgb(0,0,0)"  stroke-width="1.0"/>
<line x1="156.8" y1="94.6" x2="156.8" y2="134.6" stroke="rgb(0,0,0)"  stroke-width="1.0"/>
<line x1="156.8" y1="134.6" x2="182.4" y2="143.0" stroke="rgb(0,0,0)"  stroke-width="1.0"/>
<line x1="202.4" y1="136.5" x2="218.3" y2="114.6" stroke="rgb(0,0,0)"  stroke-width="1.0"/>
<line x1="86.4" y1="145.8" x2="112.0" y2="154.1" stroke="rgb(0,0,0)"  stroke-width="1.0"/>
<line x1="124.4" y1="171.2" x2="124.4" y2="198.2" stroke="rgb(0,0,0)"  stroke-width="1.0"/>
<line x1="124.4" y1="198.2" x2="86.4" y2="210.5" stroke="rgb(0,0,0)"  stroke-width="1.0"/>
<line x1="86.4" y1="210.5" x2="70.5" y2="188.7" stroke="rgb(0,0,0)"  stroke-width="1.0"/>
<line x1="70.5" y1="167.6" x2="86.4" y2="145.8" stroke="rgb(0,0,0)"  stroke-width="1.0"/>
<line x1="145.8" y1="264.0" x2="120.1" y2="272.4" stroke="rgb(0,0,0)"  stroke-width="1.0"/>
<line x1="98.1" y1="267.7" x2="78.0" y2="249.6" stroke="rgb(0,0,0)"  stroke-width="1.0"/>
<line x1="78.0" y1="249.6" x2="86.4" y2="210.5" stroke="rgb(0,0,0)"  stroke-width="1.0"/>
<line x1="124.4" y1="198.2" x2="144.5" y2="216.2" stroke="rgb(0,0,0)"  stroke-width="1.0"/>
<line x1="151.4" y1="237.6" x2="145.8" y2="264.0" stroke="rgb(0,0,0)"  stroke-width="1.0"/>
<text x="312.315339" y="88.000000" fill="rgb(255,127,0)"  stroke="rgb(255,127,0)" stroke-width="1" font-size="16" >P</text>
<text x="312.315339" y="128.000000" fill="rgb(255,12,12)"  stroke="rgb(255,12,12)" stroke-width="1" font-size="16" >OH</text>
<text x="363.115339" y="75.968000" fill="rgb(255,12,12)"  stroke="rgb(255,12,12)" stroke-width="1" font-size="32" >-</text>
<text x="352.315339" y="88.000000" fill="rgb(255,12,12)"  stroke="rgb(255,12,12)" stroke-width="1" font-size="16" >O</text>
<text x="312.315339" y="48.000000" fill="rgb(255,12,12)"  stroke="rgb(255,12,12)" stroke-width="1" font-size="16" >O</text>
<text x="272.315339" y="88.000000" fill="rgb(255,12,12)"  stroke="rgb(255,12,12)" stroke-width="1" font-size="16" >O</text>
<text x="188.803929" y="155.001696" fill="rgb(255,12,12)"  stroke="rgb(255,12,12)" stroke-width="1" font-size="16" >O</text>
<text x="201.164609" y="52.238076" fill="rgb(255,12,12)"  stroke="rgb(255,12,12)" stroke-width="1" font-size="16" >OH</text>
<text x="106.400989" y="79.129606" fill="rgb(255,12,12)"  stroke="rgb(255,12,12)" stroke-width="1" font-size="16" >HO</text>
<text x="101.768054" y="284.404234" fill="rgb(12,12,255)"  stroke="rgb(12,12,255)" stroke-width="1" font-size="16" >N</text>
<text x="101.768054" y="300.404234" fill="rgb(12,12,255)"  stroke="rgb(12,12,255)" stroke-width="1" font-size="16" >H</text>
<text x="171.536107" y="298.808779" fill="rgb(12,12,255)"  stroke="rgb(12,12,255)" stroke-width="1" font-size="16" >NH</text>
<text x="195.536107" y="302.488779" fill="rgb(12,12,255)"  stroke="rgb(12,12,255)" stroke-width="1" font-size="13" >2</text>
<text x="148.126782" y="232.917650" fill="rgb(12,12,255)"  stroke="rgb(12,12,255)" stroke-width="1" font-size="16" >NH</text>
<text x="34.000000" y="269.999690" fill="rgb(255,12,12)"  stroke="rgb(255,12,12)" stroke-width="1" font-size="16" >O</text>
<text x="44.847318" y="186.152426" fill="rgb(12,12,255)"  stroke="rgb(12,12,255)" stroke-width="1" font-size="16" >HN</text>
<text x="118.400989" y="166.152426" fill="rgb(12,12,255)"  stroke="rgb(12,12,255)" stroke-width="1" font-size="16" >N</text>
<text font-size="18.000000" fill ="black" font-family="sans-serif"
x="10.000000" y="20.000000" ></text>
<title> - OBDepict</title>
</svg>
