<?xml version="1.0"?>
<svg xmlns="http://www.w3.org/2000/svg"
xmlns:xlink="http://www.w3.org/1999/xlink" xmlns:cml="http://www.xml-cml.org/schema" width="525.122" height="398.636" x="0" y="0" font-family="sans-serif" stroke="rgb(0,0,0)" stroke-width="1"  stroke-linecap="round">
<rect x="0%" y="0%" width="100%" height="100%" stroke-width="0" fill="rgb(255,255,255)"  />
<line x1="182.8" y1="216.6" x2="183.6" y2="218.0" stroke="rgb(0,0,0)"  stroke-width="1.0"/>
<line x1="186.2" y1="213.9" x2="187.6" y2="216.4" stroke="rgb(0,0,0)"  stroke-width="1.0"/>
<line x1="189.6" y1="211.2" x2="191.7" y2="214.8" stroke="rgb(0,0,0)"  stroke-width="1.0"/>
<line x1="193.0" y1="208.5" x2="195.7" y2="213.2" stroke="rgb(0,0,0)"  stroke-width="1.0"/>
<line x1="196.4" y1="205.8" x2="199.7" y2="211.7" stroke="rgb(0,0,0)"  stroke-width="1.0"/>
<line x1="199.8" y1="203.1" x2="203.8" y2="210.1" stroke="rgb(0,0,0)"  stroke-width="1.0"/>
<polygon points="213.205081 80.000000 209.205081 53.200000 217.205081 53.200000 " stroke-width="1.000000" fill="rgb(0,0,0)"  stroke="rgb(0,0,0)" />
<polygon points="282.487113 200.000000 278.487113 173.200000 286.487113 173.200000 " stroke-width="1.000000" fill="rgb(0,0,0)"  stroke="rgb(0,0,0)" />
<polygon points="365.779399 289.733212 339.544326 296.512662 338.708098 288.556487 " stroke-width="1.000000" fill="rgb(0,0,0)"  stroke="rgb(0,0,0)" />
<line x1="183.6" y1="262.0" x2="182.8" y2="263.4" stroke="rgb(0,0,0)"  stroke-width="1.0"/>
<line x1="187.6" y1="263.6" x2="186.2" y2="266.1" stroke="rgb(0,0,0)"  stroke-width="1.0"/>
<line x1="191.7" y1="265.2" x2="189.6" y2="268.8" stroke="rgb(0,0,0)"  stroke-width="1.0"/>
<line x1="195.7" y1="266.8" x2="193.0" y2="271.5" stroke="rgb(0,0,0)"  stroke-width="1.0"/>
<line x1="199.7" y1="268.3" x2="196.4" y2="274.2" stroke="rgb(0,0,0)"  stroke-width="1.0"/>
<line x1="203.8" y1="269.9" x2="199.8" y2="276.9" stroke="rgb(0,0,0)"  stroke-width="1.0"/>
<line x1="319.7" y1="221.1" x2="320.2" y2="222.6" stroke="rgb(0,0,0)"  stroke-width="1.0"/>
<line x1="323.6" y1="219.2" x2="324.5" y2="221.9" stroke="rgb(0,0,0)"  stroke-width="1.0"/>
<line x1="327.5" y1="217.2" x2="328.7" y2="221.2" stroke="rgb(0,0,0)"  stroke-width="1.0"/>
<line x1="331.3" y1="215.3" x2="333.0" y2="220.5" stroke="rgb(0,0,0)"  stroke-width="1.0"/>
<line x1="335.2" y1="213.4" x2="337.3" y2="219.8" stroke="rgb(0,0,0)"  stroke-width="1.0"/>
<line x1="339.1" y1="211.4" x2="341.6" y2="219.0" stroke="rgb(0,0,0)"  stroke-width="1.0"/>
<polygon points="389.290809 322.093892 382.044449 348.203857 374.736085 344.949963 " stroke-width="1.000000" fill="rgb(0,0,0)"  stroke="rgb(0,0,0)" />
<polygon points="143.923048 280.000000 147.923048 306.800000 139.923048 306.800000 " stroke-width="1.000000" fill="rgb(0,0,0)"  stroke="rgb(0,0,0)" />
<polygon points="178.564065 140.000000 157.354584 156.864102 153.354584 149.935898 " stroke-width="1.000000" fill="rgb(0,0,0)"  stroke="rgb(0,0,0)" />
<line x1="306.3" y1="265.4" x2="305.0" y2="266.4" stroke="rgb(0,0,0)"  stroke-width="1.0"/>
<line x1="309.3" y1="268.5" x2="307.0" y2="270.2" stroke="rgb(0,0,0)"  stroke-width="1.0"/>
<line x1="312.4" y1="271.6" x2="309.0" y2="274.1" stroke="rgb(0,0,0)"  stroke-width="1.0"/>
<line x1="315.4" y1="274.7" x2="311.0" y2="277.9" stroke="rgb(0,0,0)"  stroke-width="1.0"/>
<line x1="318.4" y1="277.8" x2="313.0" y2="281.7" stroke="rgb(0,0,0)"  stroke-width="1.0"/>
<line x1="321.5" y1="280.9" x2="315.0" y2="285.6" stroke="rgb(0,0,0)"  stroke-width="1.0"/>
<line x1="432.9" y1="321.8" x2="431.6" y2="322.7" stroke="rgb(0,0,0)"  stroke-width="1.0"/>
<line x1="435.9" y1="324.9" x2="433.6" y2="326.6" stroke="rgb(0,0,0)"  stroke-width="1.0"/>
<line x1="438.9" y1="328.0" x2="435.6" y2="330.4" stroke="rgb(0,0,0)"  stroke-width="1.0"/>
<line x1="442.0" y1="331.1" x2="437.6" y2="334.3" stroke="rgb(0,0,0)"  stroke-width="1.0"/>
<line x1="445.0" y1="334.2" x2="439.6" y2="338.1" stroke="rgb(0,0,0)"  stroke-width="1.0"/>
<line x1="448.1" y1="337.2" x2="441.6" y2="341.9" stroke="rgb(0,0,0)"  stroke-width="1.0"/>
<line x1="105.0" y1="263.4" x2="104.2" y2="262.0" stroke="rgb(0,0,0)"  stroke-width="1.0"/>
<line x1="101.6" y1="266.1" x2="100.2" y2="263.6" stroke="rgb(0,0,0)"  stroke-width="1.0"/>
<line x1="98.3" y1="268.8" x2="96.2" y2="265.2" stroke="rgb(0,0,0)"  stroke-width="1.0"/>
<line x1="94.9" y1="271.5" x2="92.1" y2="266.8" stroke="rgb(0,0,0)"  stroke-width="1.0"/>
<line x1="91.5" y1="274.2" x2="88.1" y2="268.3" stroke="rgb(0,0,0)"  stroke-width="1.0"/>
<line x1="88.1" y1="276.9" x2="84.1" y2="269.9" stroke="rgb(0,0,0)"  stroke-width="1.0"/>
<line x1="214.0" y1="165.4" x2="212.4" y2="165.4" stroke="rgb(0,0,0)"  stroke-width="1.0"/>
<line x1="214.6" y1="169.6" x2="211.8" y2="169.6" stroke="rgb(0,0,0)"  stroke-width="1.0"/>
<line x1="215.3" y1="173.9" x2="211.1" y2="173.9" stroke="rgb(0,0,0)"  stroke-width="1.0"/>
<line x1="215.9" y1="178.2" x2="210.5" y2="178.2" stroke="rgb(0,0,0)"  stroke-width="1.0"/>
<line x1="216.6" y1="182.5" x2="209.8" y2="182.5" stroke="rgb(0,0,0)"  stroke-width="1.0"/>
<line x1="217.2" y1="186.8" x2="209.2" y2="186.8" stroke="rgb(0,0,0)"  stroke-width="1.0"/>
<polygon points="262.487113 261.553671 242.211771 296.265492 235.739635 291.563210 " stroke-width="1.000000" fill="rgb(0,0,0)"  stroke="rgb(0,0,0)" />
<polygon points="445.341151 281.370935 471.576224 274.591485 472.412451 282.547660 " stroke-width="1.000000" fill="rgb(0,0,0)"  stroke="rgb(0,0,0)" />
<polygon points="109.282032 220.000000 72.641016 203.464102 76.641016 196.535898 " stroke-width="1.000000" fill="rgb(0,0,0)"  stroke="rgb(0,0,0)" />
<polygon points="247.846097 140.000000 273.055578 149.935898 269.055578 156.864102 " stroke-width="1.000000" fill="rgb(0,0,0)"  stroke="rgb(0,0,0)" />
<line x1="239.0" y1="293.9" x2="250.0" y2="318.6" stroke="rgb(0,0,0)"  stroke-width="1.0"/>
<polygon points="421.829741 249.010255 434.445024 210.841490 441.753388 214.095383 " stroke-width="1.000000" fill="rgb(0,0,0)"  stroke="rgb(0,0,0)" />
<line x1="74.6" y1="200.0" x2="51.3" y2="213.5" stroke="rgb(0,0,0)"  stroke-width="1.0"/>
<line x1="252.1" y1="96.6" x2="252.9" y2="98.0" stroke="rgb(0,0,0)"  stroke-width="1.0"/>
<line x1="255.5" y1="93.9" x2="256.9" y2="96.4" stroke="rgb(0,0,0)"  stroke-width="1.0"/>
<line x1="258.9" y1="91.2" x2="261.0" y2="94.8" stroke="rgb(0,0,0)"  stroke-width="1.0"/>
<line x1="262.3" y1="88.5" x2="265.0" y2="93.2" stroke="rgb(0,0,0)"  stroke-width="1.0"/>
<line x1="265.7" y1="85.8" x2="269.0" y2="91.7" stroke="rgb(0,0,0)"  stroke-width="1.0"/>
<line x1="269.1" y1="83.1" x2="273.1" y2="90.1" stroke="rgb(0,0,0)"  stroke-width="1.0"/>
<line x1="438.1" y1="212.5" x2="465.0" y2="209.6" stroke="rgb(0,0,0)"  stroke-width="1.0"/>
<line x1="282.5" y1="200.0" x2="314.8" y2="223.5" stroke="rgb(0,0,0)"  stroke-width="1.0"/>
<line x1="314.8" y1="223.5" x2="302.5" y2="261.6" stroke="rgb(0,0,0)"  stroke-width="1.0"/>
<line x1="302.5" y1="261.6" x2="262.5" y2="261.6" stroke="rgb(0,0,0)"  stroke-width="1.0"/>
<line x1="262.5" y1="261.6" x2="254.1" y2="235.9" stroke="rgb(0,0,0)"  stroke-width="1.0"/>
<line x1="260.6" y1="215.9" x2="282.5" y2="200.0" stroke="rgb(0,0,0)"  stroke-width="1.0"/>
<line x1="178.6" y1="100.0" x2="213.2" y2="80.0" stroke="rgb(0,0,0)"  stroke-width="1.0"/>
<line x1="213.2" y1="80.0" x2="247.8" y2="100.0" stroke="rgb(0,0,0)"  stroke-width="1.0"/>
<line x1="247.8" y1="100.0" x2="247.8" y2="140.0" stroke="rgb(0,0,0)"  stroke-width="1.0"/>
<line x1="247.8" y1="140.0" x2="213.2" y2="160.0" stroke="rgb(0,0,0)"  stroke-width="1.0"/>
<line x1="213.2" y1="160.0" x2="178.6" y2="140.0" stroke="rgb(0,0,0)"  stroke-width="1.0"/>
<line x1="178.6" y1="140.0" x2="178.6" y2="100.0" stroke="rgb(0,0,0)"  stroke-width="1.0"/>
<line x1="178.6" y1="220.0" x2="178.6" y2="260.0" stroke="rgb(0,0,0)"  stroke-width="1.0"/>
<line x1="178.6" y1="260.0" x2="143.9" y2="280.0" stroke="rgb(0,0,0)"  stroke-width="1.0"/>
<line x1="143.9" y1="280.0" x2="109.3" y2="260.0" stroke="rgb(0,0,0)"  stroke-width="1.0"/>
<line x1="109.3" y1="260.0" x2="109.3" y2="220.0" stroke="rgb(0,0,0)"  stroke-width="1.0"/>
<line x1="109.3" y1="220.0" x2="132.7" y2="206.5" stroke="rgb(0,0,0)"  stroke-width="1.0"/>
<line x1="155.2" y1="206.5" x2="178.6" y2="220.0" stroke="rgb(0,0,0)"  stroke-width="1.0"/>
<line x1="365.8" y1="289.7" x2="389.3" y2="322.1" stroke="rgb(0,0,0)"  stroke-width="1.0"/>
<line x1="389.3" y1="322.1" x2="429.1" y2="317.9" stroke="rgb(0,0,0)"  stroke-width="1.0"/>
<line x1="429.1" y1="317.9" x2="445.3" y2="281.4" stroke="rgb(0,0,0)"  stroke-width="1.0"/>
<line x1="445.3" y1="281.4" x2="421.8" y2="249.0" stroke="rgb(0,0,0)"  stroke-width="1.0"/>
<line x1="421.8" y1="249.0" x2="395.0" y2="251.8" stroke="rgb(0,0,0)"  stroke-width="1.0"/>
<line x1="376.8" y1="265.1" x2="365.8" y2="289.7" stroke="rgb(0,0,0)"  stroke-width="1.0"/>
<text x="207.205081" y="208.000000" fill="rgb(255,12,12)"  stroke="rgb(255,12,12)" stroke-width="1" font-size="16" >O</text>
<text x="209.205081" y="48.000000" fill="rgb(12,12,255)"  stroke="rgb(12,12,255)" stroke-width="1" font-size="16" >NH</text>
<text x="233.205081" y="51.680000" fill="rgb(12,12,255)"  stroke="rgb(12,12,255)" stroke-width="1" font-size="13" >2</text>
<text x="209.205081" y="288.000000" fill="rgb(12,12,255)"  stroke="rgb(12,12,255)" stroke-width="1" font-size="16" >NH</text>
<text x="233.205081" y="291.680000" fill="rgb(12,12,255)"  stroke="rgb(12,12,255)" stroke-width="1" font-size="13" >2</text>
<text x="346.890053" y="219.150730" fill="rgb(255,12,12)"  stroke="rgb(255,12,12)" stroke-width="1" font-size="16" >OH</text>
<text x="347.021343" y="366.635710" fill="rgb(12,12,255)"  stroke="rgb(12,12,255)" stroke-width="1" font-size="16" >H</text>
<text x="359.021343" y="370.315710" fill="rgb(12,12,255)"  stroke="rgb(12,12,255)" stroke-width="1" font-size="13" >2</text>
<text x="365.521343" y="366.635710" fill="rgb(12,12,255)"  stroke="rgb(12,12,255)" stroke-width="1" font-size="16" >N</text>
<text x="137.923048" y="328.000000" fill="rgb(255,12,12)"  stroke="rgb(255,12,12)" stroke-width="1" font-size="16" >OH</text>
<text x="117.923048" y="168.000000" fill="rgb(12,12,255)"  stroke="rgb(12,12,255)" stroke-width="1" font-size="16" >H</text>
<text x="129.923048" y="171.680000" fill="rgb(12,12,255)"  stroke="rgb(12,12,255)" stroke-width="1" font-size="13" >2</text>
<text x="136.423048" y="168.000000" fill="rgb(12,12,255)"  stroke="rgb(12,12,255)" stroke-width="1" font-size="16" >N</text>
<text x="319.998523" y="301.914351" fill="rgb(255,12,12)"  stroke="rgb(255,12,12)" stroke-width="1" font-size="16" >O</text>
<text x="446.583095" y="358.273433" fill="rgb(255,12,12)"  stroke="rgb(255,12,12)" stroke-width="1" font-size="16" >OH</text>
<text x="56.641016" y="288.000000" fill="rgb(255,12,12)"  stroke="rgb(255,12,12)" stroke-width="1" font-size="16" >HO</text>
<text x="244.126433" y="231.511410" fill="rgb(255,12,12)"  stroke="rgb(255,12,12)" stroke-width="1" font-size="16" >O</text>
<text x="479.122026" y="285.189796" fill="rgb(255,12,12)"  stroke="rgb(255,12,12)" stroke-width="1" font-size="16" >OH</text>
<text x="137.923048" y="208.000000" fill="rgb(255,12,12)"  stroke="rgb(255,12,12)" stroke-width="1" font-size="16" >O</text>
<text x="276.487113" y="168.000000" fill="rgb(255,12,12)"  stroke="rgb(255,12,12)" stroke-width="1" font-size="16" >O</text>
<text x="249.245169" y="338.456169" fill="rgb(255,12,12)"  stroke="rgb(255,12,12)" stroke-width="1" font-size="16" >OH</text>
<text x="376.048865" y="261.191394" fill="rgb(255,12,12)"  stroke="rgb(255,12,12)" stroke-width="1" font-size="16" >O</text>
<text x="22.000000" y="228.000000" fill="rgb(255,12,12)"  stroke="rgb(255,12,12)" stroke-width="1" font-size="16" >HO</text>
<text x="276.487113" y="88.000000" fill="rgb(255,12,12)"  stroke="rgb(255,12,12)" stroke-width="1" font-size="16" >OH</text>
<text x="473.880082" y="216.287298" fill="rgb(12,12,255)"  stroke="rgb(12,12,255)" stroke-width="1" font-size="16" >NH</text>
<text x="497.880082" y="219.967298" fill="rgb(12,12,255)"  stroke="rgb(12,12,255)" stroke-width="1" font-size="13" >2</text>
<text font-size="18.000000" fill ="black" font-family="sans-serif"
x="10.000000" y="20.000000" ></text>
<title> - OBDepict</title>
</svg>
