<?xml version="1.0"?>
<svg xmlns="http://www.w3.org/2000/svg"
xmlns:xlink="http://www.w3.org/1999/xlink" xmlns:cml="http://www.xml-cml.org/schema" width="495.692" height="360" x="0" y="0" font-family="sans-serif" stroke="rgb(0,0,0)" stroke-width="1"  stroke-linecap="round">
<rect x="0%" y="0%" width="100%" height="100%" stroke-width="0" fill="rgb(255,255,255)"  />
<line x1="356.0" y1="216.6" x2="356.8" y2="218.0" stroke="rgb(0,0,0)"  stroke-width="1.0"/>
<line x1="359.4" y1="213.9" x2="360.8" y2="216.4" stroke="rgb(0,0,0)"  stroke-width="1.0"/>
<line x1="362.8" y1="211.2" x2="364.9" y2="214.8" stroke="rgb(0,0,0)"  stroke-width="1.0"/>
<line x1="366.2" y1="208.5" x2="368.9" y2="213.2" stroke="rgb(0,0,0)"  stroke-width="1.0"/>
<line x1="369.6" y1="205.8" x2="372.9" y2="211.7" stroke="rgb(0,0,0)"  stroke-width="1.0"/>
<line x1="373.0" y1="203.1" x2="377.0" y2="210.1" stroke="rgb(0,0,0)"  stroke-width="1.0"/>
<line x1="356.8" y1="262.0" x2="356.0" y2="263.4" stroke="rgb(0,0,0)"  stroke-width="1.0"/>
<line x1="360.8" y1="263.6" x2="359.4" y2="266.1" stroke="rgb(0,0,0)"  stroke-width="1.0"/>
<line x1="364.9" y1="265.2" x2="362.8" y2="268.8" stroke="rgb(0,0,0)"  stroke-width="1.0"/>
<line x1="368.9" y1="266.8" x2="366.2" y2="271.5" stroke="rgb(0,0,0)"  stroke-width="1.0"/>
<line x1="372.9" y1="268.3" x2="369.6" y2="274.2" stroke="rgb(0,0,0)"  stroke-width="1.0"/>
<line x1="377.0" y1="269.9" x2="373.0" y2="276.9" stroke="rgb(0,0,0)"  stroke-width="1.0"/>
<line x1="289.8" y1="263.3" x2="289.0" y2="264.7" stroke="rgb(0,0,0)"  stroke-width="1.0"/>
<line x1="295.7" y1="266.0" x2="294.2" y2="268.4" stroke="rgb(0,0,0)"  stroke-width="1.0"/>
<line x1="301.5" y1="268.6" x2="299.5" y2="272.2" stroke="rgb(0,0,0)"  stroke-width="1.0"/>
<line x1="307.4" y1="271.2" x2="304.7" y2="276.0" stroke="rgb(0,0,0)"  stroke-width="1.0"/>
<line x1="313.3" y1="273.9" x2="309.9" y2="279.7" stroke="rgb(0,0,0)"  stroke-width="1.0"/>
<line x1="319.1" y1="276.5" x2="315.1" y2="283.5" stroke="rgb(0,0,0)"  stroke-width="1.0"/>
<polygon points="282.487113 220.000000 303.696594 203.135898 307.696594 210.064102 " stroke-width="1.000000" fill="rgb(0,0,0)"  stroke="rgb(0,0,0)" />
<polygon points="247.846097 200.000000 243.846097 173.200000 251.846097 173.200000 " stroke-width="1.000000" fill="rgb(0,0,0)"  stroke="rgb(0,0,0)" />
<polygon points="213.205081 220.000000 187.995600 210.064102 191.995600 203.135898 " stroke-width="1.000000" fill="rgb(0,0,0)"  stroke="rgb(0,0,0)" />
<line x1="209.0" y1="263.4" x2="208.2" y2="262.0" stroke="rgb(0,0,0)"  stroke-width="1.0"/>
<line x1="205.6" y1="266.1" x2="204.1" y2="263.6" stroke="rgb(0,0,0)"  stroke-width="1.0"/>
<line x1="202.2" y1="268.8" x2="200.1" y2="265.2" stroke="rgb(0,0,0)"  stroke-width="1.0"/>
<line x1="198.8" y1="271.5" x2="196.1" y2="266.8" stroke="rgb(0,0,0)"  stroke-width="1.0"/>
<line x1="195.4" y1="274.2" x2="192.0" y2="268.3" stroke="rgb(0,0,0)"  stroke-width="1.0"/>
<line x1="192.0" y1="276.9" x2="188.0" y2="269.9" stroke="rgb(0,0,0)"  stroke-width="1.0"/>
<line x1="178.6" y1="173.0" x2="178.6" y2="187.0" stroke="rgb(0,0,0)"  stroke-width="1.0"/>
<line x1="149.0" y1="262.0" x2="148.2" y2="263.4" stroke="rgb(0,0,0)"  stroke-width="1.0"/>
<line x1="153.0" y1="263.6" x2="151.6" y2="266.1" stroke="rgb(0,0,0)"  stroke-width="1.0"/>
<line x1="157.0" y1="265.2" x2="155.0" y2="268.8" stroke="rgb(0,0,0)"  stroke-width="1.0"/>
<line x1="161.1" y1="266.8" x2="158.3" y2="271.5" stroke="rgb(0,0,0)"  stroke-width="1.0"/>
<line x1="165.1" y1="268.3" x2="161.7" y2="274.2" stroke="rgb(0,0,0)"  stroke-width="1.0"/>
<line x1="169.1" y1="269.9" x2="165.1" y2="276.9" stroke="rgb(0,0,0)"  stroke-width="1.0"/>
<line x1="110.1" y1="285.4" x2="108.5" y2="285.4" stroke="rgb(0,0,0)"  stroke-width="1.0"/>
<line x1="110.7" y1="289.6" x2="107.8" y2="289.6" stroke="rgb(0,0,0)"  stroke-width="1.0"/>
<line x1="111.4" y1="293.9" x2="107.2" y2="293.9" stroke="rgb(0,0,0)"  stroke-width="1.0"/>
<line x1="112.0" y1="298.2" x2="106.6" y2="298.2" stroke="rgb(0,0,0)"  stroke-width="1.0"/>
<line x1="112.6" y1="302.5" x2="105.9" y2="302.5" stroke="rgb(0,0,0)"  stroke-width="1.0"/>
<line x1="113.3" y1="306.8" x2="105.3" y2="306.8" stroke="rgb(0,0,0)"  stroke-width="1.0"/>
<polygon points="74.641016 260.000000 53.431535 276.864102 49.431535 269.935898 " stroke-width="1.000000" fill="rgb(0,0,0)"  stroke="rgb(0,0,0)" />
<line x1="69.6" y1="218.0" x2="70.4" y2="216.6" stroke="rgb(0,0,0)"  stroke-width="1.0"/>
<line x1="65.6" y1="216.4" x2="67.0" y2="213.9" stroke="rgb(0,0,0)"  stroke-width="1.0"/>
<line x1="61.5" y1="214.8" x2="63.6" y2="211.2" stroke="rgb(0,0,0)"  stroke-width="1.0"/>
<line x1="57.5" y1="213.2" x2="60.2" y2="208.5" stroke="rgb(0,0,0)"  stroke-width="1.0"/>
<line x1="53.5" y1="211.7" x2="56.8" y2="205.8" stroke="rgb(0,0,0)"  stroke-width="1.0"/>
<line x1="49.4" y1="210.1" x2="53.4" y2="203.1" stroke="rgb(0,0,0)"  stroke-width="1.0"/>
<polygon points="109.282032 200.000000 105.282032 160.000000 113.282032 160.000000 " stroke-width="1.000000" fill="rgb(0,0,0)"  stroke="rgb(0,0,0)" />
<line x1="109.3" y1="160.0" x2="85.9" y2="146.5" stroke="rgb(0,0,0)"  stroke-width="1.0"/>
<polygon points="386.410162 160.000000 390.410162 186.800000 382.410162 186.800000 " stroke-width="1.000000" fill="rgb(0,0,0)"  stroke="rgb(0,0,0)" />
<line x1="347.5" y1="143.4" x2="346.7" y2="142.0" stroke="rgb(0,0,0)"  stroke-width="1.0"/>
<line x1="344.1" y1="146.1" x2="342.7" y2="143.6" stroke="rgb(0,0,0)"  stroke-width="1.0"/>
<line x1="340.7" y1="148.8" x2="338.7" y2="145.2" stroke="rgb(0,0,0)"  stroke-width="1.0"/>
<line x1="337.3" y1="151.5" x2="334.6" y2="146.8" stroke="rgb(0,0,0)"  stroke-width="1.0"/>
<line x1="334.0" y1="154.2" x2="330.6" y2="148.3" stroke="rgb(0,0,0)"  stroke-width="1.0"/>
<line x1="330.6" y1="156.9" x2="326.6" y2="149.9" stroke="rgb(0,0,0)"  stroke-width="1.0"/>
<polygon points="351.769145 100.000000 326.559665 90.064102 330.559665 83.135898 " stroke-width="1.000000" fill="rgb(0,0,0)"  stroke="rgb(0,0,0)" />
<line x1="385.6" y1="74.6" x2="387.2" y2="74.6" stroke="rgb(0,0,0)"  stroke-width="1.0"/>
<line x1="385.0" y1="70.4" x2="387.9" y2="70.4" stroke="rgb(0,0,0)"  stroke-width="1.0"/>
<line x1="384.3" y1="66.1" x2="388.5" y2="66.1" stroke="rgb(0,0,0)"  stroke-width="1.0"/>
<line x1="383.7" y1="61.8" x2="389.1" y2="61.8" stroke="rgb(0,0,0)"  stroke-width="1.0"/>
<line x1="383.1" y1="57.5" x2="389.8" y2="57.5" stroke="rgb(0,0,0)"  stroke-width="1.0"/>
<line x1="382.4" y1="53.2" x2="390.4" y2="53.2" stroke="rgb(0,0,0)"  stroke-width="1.0"/>
<line x1="426.1" y1="142.0" x2="425.3" y2="143.4" stroke="rgb(0,0,0)"  stroke-width="1.0"/>
<line x1="430.1" y1="143.6" x2="428.7" y2="146.1" stroke="rgb(0,0,0)"  stroke-width="1.0"/>
<line x1="434.2" y1="145.2" x2="432.1" y2="148.8" stroke="rgb(0,0,0)"  stroke-width="1.0"/>
<line x1="438.2" y1="146.8" x2="435.5" y2="151.5" stroke="rgb(0,0,0)"  stroke-width="1.0"/>
<line x1="442.2" y1="148.3" x2="438.9" y2="154.2" stroke="rgb(0,0,0)"  stroke-width="1.0"/>
<line x1="446.3" y1="149.9" x2="442.3" y2="156.9" stroke="rgb(0,0,0)"  stroke-width="1.0"/>
<line x1="351.8" y1="220.0" x2="351.8" y2="260.0" stroke="rgb(0,0,0)"  stroke-width="1.0"/>
<line x1="351.8" y1="260.0" x2="317.1" y2="280.0" stroke="rgb(0,0,0)"  stroke-width="1.0"/>
<line x1="317.1" y1="280.0" x2="282.5" y2="260.0" stroke="rgb(0,0,0)"  stroke-width="1.0"/>
<line x1="282.5" y1="260.0" x2="282.5" y2="220.0" stroke="rgb(0,0,0)"  stroke-width="1.0"/>
<line x1="282.5" y1="220.0" x2="305.9" y2="206.5" stroke="rgb(0,0,0)"  stroke-width="1.0"/>
<line x1="328.4" y1="206.5" x2="351.8" y2="220.0" stroke="rgb(0,0,0)"  stroke-width="1.0"/>
<line x1="247.8" y1="200.0" x2="213.2" y2="220.0" stroke="rgb(0,0,0)"  stroke-width="1.0"/>
<line x1="213.2" y1="220.0" x2="213.2" y2="260.0" stroke="rgb(0,0,0)"  stroke-width="1.0"/>
<line x1="213.2" y1="260.0" x2="236.6" y2="273.5" stroke="rgb(0,0,0)"  stroke-width="1.0"/>
<line x1="259.1" y1="273.5" x2="282.5" y2="260.0" stroke="rgb(0,0,0)"  stroke-width="1.0"/>
<line x1="282.5" y1="220.0" x2="247.8" y2="200.0" stroke="rgb(0,0,0)"  stroke-width="1.0"/>
<line x1="143.9" y1="260.0" x2="109.3" y2="280.0" stroke="rgb(0,0,0)"  stroke-width="1.0"/>
<line x1="109.3" y1="280.0" x2="74.6" y2="260.0" stroke="rgb(0,0,0)"  stroke-width="1.0"/>
<line x1="74.6" y1="260.0" x2="74.6" y2="220.0" stroke="rgb(0,0,0)"  stroke-width="1.0"/>
<line x1="74.6" y1="220.0" x2="109.3" y2="200.0" stroke="rgb(0,0,0)"  stroke-width="1.0"/>
<line x1="109.3" y1="200.0" x2="132.7" y2="213.5" stroke="rgb(0,0,0)"  stroke-width="1.0"/>
<line x1="143.9" y1="233.0" x2="143.9" y2="260.0" stroke="rgb(0,0,0)"  stroke-width="1.0"/>
<line x1="386.4" y1="160.0" x2="351.8" y2="140.0" stroke="rgb(0,0,0)"  stroke-width="1.0"/>
<line x1="351.8" y1="140.0" x2="351.8" y2="100.0" stroke="rgb(0,0,0)"  stroke-width="1.0"/>
<line x1="351.8" y1="100.0" x2="386.4" y2="80.0" stroke="rgb(0,0,0)"  stroke-width="1.0"/>
<line x1="386.4" y1="80.0" x2="421.1" y2="100.0" stroke="rgb(0,0,0)"  stroke-width="1.0"/>
<line x1="421.1" y1="100.0" x2="421.1" y2="140.0" stroke="rgb(0,0,0)"  stroke-width="1.0"/>
<line x1="421.1" y1="140.0" x2="386.4" y2="160.0" stroke="rgb(0,0,0)"  stroke-width="1.0"/>
<text x="174.564065" y="168.000000" fill="rgb(102,102,102)"  stroke="rgb(102,102,102)" stroke-width="1" font-size="16" >CH</text>
<text x="198.564065" y="171.680000" fill="rgb(102,102,102)"  stroke="rgb(102,102,102)" stroke-width="1" font-size="13" >3</text>
<text x="382.410162" y="288.000000" fill="rgb(12,12,255)"  stroke="rgb(12,12,255)" stroke-width="1" font-size="16" >NH</text>
<text x="406.410162" y="291.680000" fill="rgb(12,12,255)"  stroke="rgb(12,12,255)" stroke-width="1" font-size="13" >2</text>
<text x="160.564065" y="208.000000" fill="rgb(12,12,255)"  stroke="rgb(12,12,255)" stroke-width="1" font-size="16" >HN</text>
<text x="380.410162" y="208.000000" fill="rgb(255,12,12)"  stroke="rgb(255,12,12)" stroke-width="1" font-size="16" >O</text>
<text x="311.128129" y="208.000000" fill="rgb(255,12,12)"  stroke="rgb(255,12,12)" stroke-width="1" font-size="16" >O</text>
<text x="241.846097" y="288.000000" fill="rgb(255,12,12)"  stroke="rgb(255,12,12)" stroke-width="1" font-size="16" >O</text>
<text x="241.846097" y="168.000000" fill="rgb(255,12,12)"  stroke="rgb(255,12,12)" stroke-width="1" font-size="16" >OH</text>
<text x="172.564065" y="288.000000" fill="rgb(255,12,12)"  stroke="rgb(255,12,12)" stroke-width="1" font-size="16" >O</text>
<text x="14.000000" y="208.000000" fill="rgb(12,12,255)"  stroke="rgb(12,12,255)" stroke-width="1" font-size="16" >H</text>
<text x="26.000000" y="211.680000" fill="rgb(12,12,255)"  stroke="rgb(12,12,255)" stroke-width="1" font-size="13" >2</text>
<text x="32.500000" y="208.000000" fill="rgb(12,12,255)"  stroke="rgb(12,12,255)" stroke-width="1" font-size="16" >N</text>
<text x="137.923048" y="228.000000" fill="rgb(255,12,12)"  stroke="rgb(255,12,12)" stroke-width="1" font-size="16" >O</text>
<text x="103.282032" y="328.000000" fill="rgb(255,12,12)"  stroke="rgb(255,12,12)" stroke-width="1" font-size="16" >OH</text>
<text x="22.000000" y="288.000000" fill="rgb(255,12,12)"  stroke="rgb(255,12,12)" stroke-width="1" font-size="16" >HO</text>
<text x="56.641016" y="148.000000" fill="rgb(255,12,12)"  stroke="rgb(255,12,12)" stroke-width="1" font-size="16" >HO</text>
<text x="382.410162" y="48.000000" fill="rgb(12,12,255)"  stroke="rgb(12,12,255)" stroke-width="1" font-size="16" >NH</text>
<text x="406.410162" y="51.680000" fill="rgb(12,12,255)"  stroke="rgb(12,12,255)" stroke-width="1" font-size="13" >2</text>
<text x="451.692194" y="168.000000" fill="rgb(12,12,255)"  stroke="rgb(12,12,255)" stroke-width="1" font-size="16" >NH</text>
<text x="475.692194" y="171.680000" fill="rgb(12,12,255)"  stroke="rgb(12,12,255)" stroke-width="1" font-size="13" >2</text>
<text x="299.128129" y="168.000000" fill="rgb(255,12,12)"  stroke="rgb(255,12,12)" stroke-width="1" font-size="16" >HO</text>
<text x="299.128129" y="88.000000" fill="rgb(255,12,12)"  stroke="rgb(255,12,12)" stroke-width="1" font-size="16" >HO</text>
<text font-size="18.000000" fill ="black" font-family="sans-serif"
x="10.000000" y="20.000000" >2oe8_lig</text>
<title>2oe8_lig - OBDepict</title>
</svg>
