<?xml version="1.0"?>
<svg xmlns="http://www.w3.org/2000/svg"
xmlns:xlink="http://www.w3.org/1999/xlink" xmlns:cml="http://www.xml-cml.org/schema" width="353.683" height="264.995" x="0" y="0" font-family="sans-serif" stroke="rgb(0,0,0)" stroke-width="1"  stroke-linecap="round">
<rect x="0%" y="0%" width="100%" height="100%" stroke-width="0" fill="rgb(255,255,255)"  />
<line x1="287.2" y1="194.3" x2="295.6" y2="168.6" stroke="rgb(0,0,0)"  stroke-width="1.0"/>
<polygon points="268.825087 138.906780 298.562891 165.956050 292.617732 171.309095 " stroke-width="1.000000" fill="rgb(0,0,0)"  stroke="rgb(0,0,0)" />
<line x1="281.7" y1="96.9" x2="282.4" y2="98.3" stroke="rgb(0,0,0)"  stroke-width="1.0"/>
<line x1="285.4" y1="94.5" x2="286.5" y2="97.2" stroke="rgb(0,0,0)"  stroke-width="1.0"/>
<line x1="289.0" y1="92.2" x2="290.7" y2="96.0" stroke="rgb(0,0,0)"  stroke-width="1.0"/>
<line x1="292.7" y1="89.9" x2="294.9" y2="94.9" stroke="rgb(0,0,0)"  stroke-width="1.0"/>
<line x1="296.3" y1="87.6" x2="299.1" y2="93.7" stroke="rgb(0,0,0)"  stroke-width="1.0"/>
<line x1="300.0" y1="85.2" x2="303.3" y2="92.5" stroke="rgb(0,0,0)"  stroke-width="1.0"/>
<line x1="241.1" y1="74.5" x2="242.7" y2="74.4" stroke="rgb(0,0,0)"  stroke-width="1.0"/>
<line x1="240.1" y1="70.3" x2="242.9" y2="70.0" stroke="rgb(0,0,0)"  stroke-width="1.0"/>
<line x1="239.0" y1="66.1" x2="243.1" y2="65.7" stroke="rgb(0,0,0)"  stroke-width="1.0"/>
<line x1="237.9" y1="61.9" x2="243.3" y2="61.4" stroke="rgb(0,0,0)"  stroke-width="1.0"/>
<line x1="236.8" y1="57.7" x2="243.5" y2="57.0" stroke="rgb(0,0,0)"  stroke-width="1.0"/>
<line x1="235.7" y1="53.5" x2="243.7" y2="52.7" stroke="rgb(0,0,0)"  stroke-width="1.0"/>
<polygon points="212.774746 106.546100 227.329469 129.402172 220.021106 132.656065 " stroke-width="1.000000" fill="rgb(0,0,0)"  stroke="rgb(0,0,0)" />
<line x1="212.8" y1="106.5" x2="186.4" y2="100.9" stroke="rgb(0,0,0)"  stroke-width="1.0"/>
<line x1="110.1" y1="190.4" x2="108.5" y2="190.4" stroke="rgb(0,0,0)"  stroke-width="1.0"/>
<line x1="110.7" y1="194.6" x2="107.8" y2="194.6" stroke="rgb(0,0,0)"  stroke-width="1.0"/>
<line x1="111.4" y1="198.9" x2="107.2" y2="198.9" stroke="rgb(0,0,0)"  stroke-width="1.0"/>
<line x1="112.0" y1="203.2" x2="106.6" y2="203.2" stroke="rgb(0,0,0)"  stroke-width="1.0"/>
<line x1="112.6" y1="207.5" x2="105.9" y2="207.5" stroke="rgb(0,0,0)"  stroke-width="1.0"/>
<line x1="113.3" y1="211.8" x2="105.3" y2="211.8" stroke="rgb(0,0,0)"  stroke-width="1.0"/>
<polygon points="143.923048 124.994857 147.923048 151.794857 139.923048 151.794857 " stroke-width="1.000000" fill="rgb(0,0,0)"  stroke="rgb(0,0,0)" />
<polygon points="109.282032 104.994857 76.641016 128.458958 72.641016 121.530755 " stroke-width="1.000000" fill="rgb(0,0,0)"  stroke="rgb(0,0,0)" />
<line x1="73.1" y1="127.6" x2="49.8" y2="114.1" stroke="rgb(0,0,0)"  stroke-width="1.0"/>
<line x1="76.1" y1="122.4" x2="52.8" y2="108.9" stroke="rgb(0,0,0)"  stroke-width="1.0"/>
<polygon points="168.279918 86.170832 153.725194 63.314761 161.033558 60.060868 " stroke-width="1.000000" fill="rgb(0,0,0)"  stroke="rgb(0,0,0)" />
<line x1="268.8" y1="138.9" x2="277.1" y2="99.8" stroke="rgb(0,0,0)"  stroke-width="1.0"/>
<line x1="277.1" y1="99.8" x2="242.5" y2="79.8" stroke="rgb(0,0,0)"  stroke-width="1.0"/>
<line x1="242.5" y1="79.8" x2="212.8" y2="106.5" stroke="rgb(0,0,0)"  stroke-width="1.0"/>
<line x1="212.8" y1="106.5" x2="223.8" y2="131.2" stroke="rgb(0,0,0)"  stroke-width="1.0"/>
<line x1="242.0" y1="141.7" x2="268.8" y2="138.9" stroke="rgb(0,0,0)"  stroke-width="1.0"/>
<line x1="157.4" y1="61.7" x2="130.5" y2="64.5" stroke="rgb(0,0,0)"  stroke-width="1.0"/>
<line x1="114.9" y1="78.6" x2="109.3" y2="105.0" stroke="rgb(0,0,0)"  stroke-width="1.0"/>
<line x1="109.3" y1="105.0" x2="143.9" y2="125.0" stroke="rgb(0,0,0)"  stroke-width="1.0"/>
<line x1="143.9" y1="125.0" x2="164.0" y2="106.9" stroke="rgb(0,0,0)"  stroke-width="1.0"/>
<line x1="168.4" y1="86.4" x2="157.4" y2="61.7" stroke="rgb(0,0,0)"  stroke-width="1.0"/>
<line x1="109.3" y1="185.0" x2="132.7" y2="171.5" stroke="rgb(0,0,0)"  stroke-width="1.0"/>
<line x1="143.9" y1="152.0" x2="143.9" y2="125.0" stroke="rgb(0,0,0)"  stroke-width="1.0"/>
<line x1="109.3" y1="105.0" x2="74.6" y2="125.0" stroke="rgb(0,0,0)"  stroke-width="1.0"/>
<line x1="74.6" y1="125.0" x2="74.6" y2="152.0" stroke="rgb(0,0,0)"  stroke-width="1.0"/>
<line x1="85.9" y1="171.5" x2="109.3" y2="185.0" stroke="rgb(0,0,0)"  stroke-width="1.0"/>
<text x="265.229632" y="214.674834" fill="rgb(255,12,12)"  stroke="rgb(255,12,12)" stroke-width="1" font-size="16" >HO</text>
<text x="223.044211" y="151.087918" fill="rgb(255,12,12)"  stroke="rgb(255,12,12)" stroke-width="1" font-size="16" >O</text>
<text x="307.683373" y="91.511410" fill="rgb(255,12,12)"  stroke="rgb(255,12,12)" stroke-width="1" font-size="16" >OH</text>
<text x="220.319400" y="48.000000" fill="rgb(255,12,12)"  stroke="rgb(255,12,12)" stroke-width="1" font-size="16" >HO</text>
<text x="56.641016" y="172.994857" fill="rgb(12,12,255)"  stroke="rgb(12,12,255)" stroke-width="1" font-size="16" >HN</text>
<text x="105.282032" y="232.994857" fill="rgb(12,12,255)"  stroke="rgb(12,12,255)" stroke-width="1" font-size="16" >NH</text>
<text x="129.282032" y="236.674857" fill="rgb(12,12,255)"  stroke="rgb(12,12,255)" stroke-width="1" font-size="13" >2</text>
<text x="137.923048" y="172.994857" fill="rgb(12,12,255)"  stroke="rgb(12,12,255)" stroke-width="1" font-size="16" >NH</text>
<text x="34.000000" y="112.994857" fill="rgb(255,12,12)"  stroke="rgb(255,12,12)" stroke-width="1" font-size="16" >O</text>
<text x="111.598500" y="73.868953" fill="rgb(12,12,255)"  stroke="rgb(12,12,255)" stroke-width="1" font-size="16" >N</text>
<text x="111.598500" y="57.868953" fill="rgb(12,12,255)"  stroke="rgb(12,12,255)" stroke-width="1" font-size="16" >H</text>
<text x="167.648841" y="106.229632" fill="rgb(12,12,255)"  stroke="rgb(12,12,255)" stroke-width="1" font-size="16" >N</text>
<text font-size="18.000000" fill ="black" font-family="sans-serif"
x="10.000000" y="20.000000" ></text>
<title> - OBDepict</title>
</svg>
