<?xml version="1.0"?>
<svg xmlns="http://www.w3.org/2000/svg"
xmlns:xlink="http://www.w3.org/1999/xlink" xmlns:cml="http://www.xml-cml.org/schema" width="371.932" height="288.097" x="0" y="0" font-family="sans-serif" stroke="rgb(0,0,0)" stroke-width="1"  stroke-linecap="round">
<rect x="0%" y="0%" width="100%" height="100%" stroke-width="0" fill="rgb(255,255,255)"  />
<line x1="59.8" y1="213.1" x2="70.8" y2="188.4" stroke="rgb(0,0,0)"  stroke-width="1.0"/>
<line x1="276.0" y1="208.9" x2="276.0" y2="207.3" stroke="rgb(0,0,0)"  stroke-width="1.0"/>
<line x1="273.8" y1="209.5" x2="273.8" y2="206.7" stroke="rgb(0,0,0)"  stroke-width="1.0"/>
<line x1="271.7" y1="210.2" x2="271.7" y2="206.0" stroke="rgb(0,0,0)"  stroke-width="1.0"/>
<line x1="269.5" y1="210.8" x2="269.5" y2="205.4" stroke="rgb(0,0,0)"  stroke-width="1.0"/>
<line x1="267.3" y1="211.5" x2="267.3" y2="204.7" stroke="rgb(0,0,0)"  stroke-width="1.0"/>
<line x1="265.1" y1="212.1" x2="265.1" y2="204.1" stroke="rgb(0,0,0)"  stroke-width="1.0"/>
<line x1="291.9" y1="221.1" x2="291.9" y2="235.1" stroke="rgb(0,0,0)"  stroke-width="1.0"/>
<line x1="304.9" y1="205.1" x2="318.9" y2="205.1" stroke="rgb(0,0,0)"  stroke-width="1.0"/>
<line x1="304.9" y1="211.1" x2="318.9" y2="211.1" stroke="rgb(0,0,0)"  stroke-width="1.0"/>
<line x1="146.4" y1="76.0" x2="119.6" y2="78.8" stroke="rgb(0,0,0)"  stroke-width="1.0"/>
<line x1="185.8" y1="109.8" x2="184.2" y2="109.4" stroke="rgb(0,0,0)"  stroke-width="1.0"/>
<line x1="185.5" y1="114.1" x2="182.7" y2="113.5" stroke="rgb(0,0,0)"  stroke-width="1.0"/>
<line x1="185.2" y1="118.4" x2="181.2" y2="117.6" stroke="rgb(0,0,0)"  stroke-width="1.0"/>
<line x1="185.0" y1="122.8" x2="179.7" y2="121.6" stroke="rgb(0,0,0)"  stroke-width="1.0"/>
<line x1="184.7" y1="127.1" x2="178.1" y2="125.7" stroke="rgb(0,0,0)"  stroke-width="1.0"/>
<line x1="184.4" y1="131.4" x2="176.6" y2="129.7" stroke="rgb(0,0,0)"  stroke-width="1.0"/>
<line x1="63.5" y1="119.5" x2="47.6" y2="97.7" stroke="rgb(0,0,0)"  stroke-width="1.0"/>
<line x1="230.0" y1="91.4" x2="229.2" y2="92.8" stroke="rgb(0,0,0)"  stroke-width="1.0"/>
<line x1="235.8" y1="94.1" x2="234.4" y2="96.5" stroke="rgb(0,0,0)"  stroke-width="1.0"/>
<line x1="241.7" y1="96.7" x2="239.6" y2="100.3" stroke="rgb(0,0,0)"  stroke-width="1.0"/>
<line x1="247.6" y1="99.3" x2="244.8" y2="104.1" stroke="rgb(0,0,0)"  stroke-width="1.0"/>
<line x1="253.4" y1="102.0" x2="250.1" y2="107.8" stroke="rgb(0,0,0)"  stroke-width="1.0"/>
<line x1="259.3" y1="104.6" x2="255.3" y2="111.6" stroke="rgb(0,0,0)"  stroke-width="1.0"/>
<line x1="103.3" y1="115.4" x2="119.6" y2="78.8" stroke="rgb(0,0,0)"  stroke-width="1.0"/>
<line x1="257.3" y1="108.1" x2="257.3" y2="148.1" stroke="rgb(0,0,0)"  stroke-width="1.0"/>
<line x1="257.3" y1="148.1" x2="280.7" y2="161.6" stroke="rgb(0,0,0)"  stroke-width="1.0"/>
<line x1="291.9" y1="195.1" x2="291.9" y2="181.1" stroke="rgb(0,0,0)"  stroke-width="1.0"/>
<line x1="179.3" y1="40.0" x2="205.8" y2="45.6" stroke="rgb(0,0,0)"  stroke-width="1.0"/>
<line x1="219.8" y1="61.2" x2="222.6" y2="88.1" stroke="rgb(0,0,0)"  stroke-width="1.0"/>
<line x1="222.6" y1="88.1" x2="186.1" y2="104.4" stroke="rgb(0,0,0)"  stroke-width="1.0"/>
<line x1="186.1" y1="104.4" x2="168.0" y2="84.3" stroke="rgb(0,0,0)"  stroke-width="1.0"/>
<line x1="165.8" y1="63.4" x2="179.3" y2="40.0" stroke="rgb(0,0,0)"  stroke-width="1.0"/>
<line x1="97.4" y1="185.6" x2="70.8" y2="188.4" stroke="rgb(0,0,0)"  stroke-width="1.0"/>
<line x1="94.7" y1="178.7" x2="76.0" y2="180.7" stroke="rgb(0,0,0)"  stroke-width="1.0"/>
<line x1="70.8" y1="188.4" x2="54.9" y2="166.6" stroke="rgb(0,0,0)"  stroke-width="1.0"/>
<line x1="52.6" y1="144.0" x2="63.5" y2="119.5" stroke="rgb(0,0,0)"  stroke-width="1.0"/>
<line x1="60.0" y1="145.1" x2="67.6" y2="128.0" stroke="rgb(0,0,0)"  stroke-width="1.0"/>
<line x1="63.5" y1="119.5" x2="103.3" y2="115.4" stroke="rgb(0,0,0)"  stroke-width="1.0"/>
<line x1="103.3" y1="115.4" x2="126.8" y2="147.7" stroke="rgb(0,0,0)"  stroke-width="1.0"/>
<line x1="101.0" y1="124.5" x2="117.5" y2="147.1" stroke="rgb(0,0,0)"  stroke-width="1.0"/>
<line x1="126.8" y1="147.7" x2="115.8" y2="172.4" stroke="rgb(0,0,0)"  stroke-width="1.0"/>
<text x="28.483889" y="232.989428" fill="rgb(102,102,102)"  stroke="rgb(102,102,102)" stroke-width="1" font-size="16" >H</text>
<text x="40.483889" y="236.669428" fill="rgb(102,102,102)"  stroke="rgb(102,102,102)" stroke-width="1" font-size="13" >3</text>
<text x="46.983889" y="232.989428" fill="rgb(102,102,102)"  stroke="rgb(102,102,102)" stroke-width="1" font-size="16" >C</text>
<text x="151.791384" y="151.492713" fill="rgb(102,102,102)"  stroke="rgb(102,102,102)" stroke-width="1" font-size="16" >H</text>
<text x="163.791384" y="155.172713" fill="rgb(102,102,102)"  stroke="rgb(102,102,102)" stroke-width="1" font-size="13" >3</text>
<text x="170.291384" y="151.492713" fill="rgb(102,102,102)"  stroke="rgb(102,102,102)" stroke-width="1" font-size="16" >C</text>
<text x="285.931702" y="216.097343" fill="rgb(255,127,0)"  stroke="rgb(255,127,0)" stroke-width="1" font-size="16" >P</text>
<text x="104.534230" y="192.266471" fill="rgb(12,12,255)"  stroke="rgb(12,12,255)" stroke-width="1" font-size="16" >N</text>
<text x="233.931702" y="216.097343" fill="rgb(255,12,12)"  stroke="rgb(255,12,12)" stroke-width="1" font-size="16" >HO</text>
<text x="212.468531" y="56.316468" fill="rgb(178,178,0)"  stroke="rgb(178,178,0)" stroke-width="1" font-size="16" >S</text>
<text x="296.731702" y="244.065343" fill="rgb(255,12,12)"  stroke="rgb(255,12,12)" stroke-width="1" font-size="32" >-</text>
<text x="285.931702" y="256.097343" fill="rgb(255,12,12)"  stroke="rgb(255,12,12)" stroke-width="1" font-size="16" >O</text>
<text x="153.342627" y="82.641016" fill="rgb(12,12,255)"  stroke="rgb(12,12,255)" stroke-width="1" font-size="16" >N</text>
<text x="41.241944" y="164.086930" fill="rgb(12,12,255)"  stroke="rgb(12,12,255)" stroke-width="1" font-size="16" >N</text>
<text x="325.931702" y="216.097343" fill="rgb(255,12,12)"  stroke="rgb(255,12,12)" stroke-width="1" font-size="16" >O</text>
<text x="14.000000" y="95.184432" fill="rgb(12,12,255)"  stroke="rgb(12,12,255)" stroke-width="1" font-size="16" >H</text>
<text x="26.000000" y="98.864432" fill="rgb(12,12,255)"  stroke="rgb(12,12,255)" stroke-width="1" font-size="13" >2</text>
<text x="32.500000" y="95.184432" fill="rgb(12,12,255)"  stroke="rgb(12,12,255)" stroke-width="1" font-size="16" >N</text>
<text x="285.931702" y="176.097343" fill="rgb(255,12,12)"  stroke="rgb(255,12,12)" stroke-width="1" font-size="16" >O</text>
<text font-size="18.000000" fill ="black" font-family="sans-serif"
x="10.000000" y="20.000000" >ligand</text>
<title>ligand - OBDepict</title>
</svg>
