<?xml version="1.0"?>
<svg xmlns="http://www.w3.org/2000/svg"
xmlns:xlink="http://www.w3.org/1999/xlink" xmlns:cml="http://www.xml-cml.org/schema" width="719.021" height="520.5" x="0" y="0" font-family="sans-serif" stroke="rgb(0,0,0)" stroke-width="1"  stroke-linecap="round">
<rect x="0%" y="0%" width="100%" height="100%" stroke-width="0" fill="rgb(255,255,255)"  />
<polygon points="538.852 183.442 542.852 197.304 534.852 197.304 " stroke-width="1" fill="rgb(0,0,0)"  stroke="rgb(0,0,0)" />
<polygon points="477.698 134.682 436.929 138.682 436.929 130.682 " stroke-width="1" fill="rgb(0,0,0)"  stroke="rgb(0,0,0)" />
<line x1="477.7" y1="134.7" x2="491.6" y2="110.6" stroke="rgb(0,0,0)"  stroke-width="1.0"/>
<line x1="477.7" y1="134.7" x2="491.6" y2="158.7" stroke="rgb(0,0,0)"  stroke-width="1.0"/>
<polygon points="192.623776 275.910023 174.874854 242.395622 182.300102 239.418091 " stroke-width="1.000000" fill="rgb(0,0,0)"  stroke="rgb(0,0,0)" />
<line x1="176.1" y1="245.4" x2="174.8" y2="244.4" stroke="rgb(0,0,0)"  stroke-width="1.0"/>
<line x1="174.1" y1="248.9" x2="171.8" y2="247.2" stroke="rgb(0,0,0)"  stroke-width="1.0"/>
<line x1="172.1" y1="252.5" x2="168.8" y2="250.0" stroke="rgb(0,0,0)"  stroke-width="1.0"/>
<line x1="170.1" y1="256.1" x2="165.8" y2="252.7" stroke="rgb(0,0,0)"  stroke-width="1.0"/>
<line x1="168.1" y1="259.7" x2="162.8" y2="255.5" stroke="rgb(0,0,0)"  stroke-width="1.0"/>
<line x1="166.1" y1="263.2" x2="159.8" y2="258.3" stroke="rgb(0,0,0)"  stroke-width="1.0"/>
<line x1="621.3" y1="284.8" x2="619.8" y2="285.5" stroke="rgb(0,0,0)"  stroke-width="1.0"/>
<line x1="623.6" y1="288.6" x2="621.0" y2="289.7" stroke="rgb(0,0,0)"  stroke-width="1.0"/>
<line x1="626.0" y1="292.3" x2="622.2" y2="294.0" stroke="rgb(0,0,0)"  stroke-width="1.0"/>
<line x1="628.3" y1="296.0" x2="623.4" y2="298.2" stroke="rgb(0,0,0)"  stroke-width="1.0"/>
<line x1="630.7" y1="299.8" x2="624.6" y2="302.5" stroke="rgb(0,0,0)"  stroke-width="1.0"/>
<line x1="633.1" y1="303.5" x2="625.8" y2="306.7" stroke="rgb(0,0,0)"  stroke-width="1.0"/>
<line x1="241.1" y1="225.3" x2="249.3" y2="214.9" stroke="rgb(0,0,0)"  stroke-width="1.0"/>
<line x1="245.8" y1="229.0" x2="254.0" y2="218.6" stroke="rgb(0,0,0)"  stroke-width="1.0"/>
<line x1="159.5" y1="206.0" x2="159.7" y2="204.4" stroke="rgb(0,0,0)"  stroke-width="1.0"/>
<line x1="155.5" y1="206.1" x2="155.9" y2="203.2" stroke="rgb(0,0,0)"  stroke-width="1.0"/>
<line x1="151.4" y1="206.1" x2="152.0" y2="202.0" stroke="rgb(0,0,0)"  stroke-width="1.0"/>
<line x1="147.4" y1="206.2" x2="148.1" y2="200.8" stroke="rgb(0,0,0)"  stroke-width="1.0"/>
<line x1="143.3" y1="206.3" x2="144.3" y2="199.6" stroke="rgb(0,0,0)"  stroke-width="1.0"/>
<line x1="139.3" y1="206.3" x2="140.4" y2="198.4" stroke="rgb(0,0,0)"  stroke-width="1.0"/>
<line x1="164.6" y1="205.9" x2="90.8" y2="195.3" stroke="rgb(0,0,0)"  stroke-width="1.0"/>
<line x1="574.9" y1="275.9" x2="573.8" y2="274.7" stroke="rgb(0,0,0)"  stroke-width="1.0"/>
<line x1="572.1" y1="279.3" x2="570.1" y2="277.2" stroke="rgb(0,0,0)"  stroke-width="1.0"/>
<line x1="569.3" y1="282.7" x2="566.5" y2="279.6" stroke="rgb(0,0,0)"  stroke-width="1.0"/>
<line x1="566.4" y1="286.1" x2="562.8" y2="282.1" stroke="rgb(0,0,0)"  stroke-width="1.0"/>
<line x1="563.6" y1="289.5" x2="559.1" y2="284.5" stroke="rgb(0,0,0)"  stroke-width="1.0"/>
<line x1="560.8" y1="292.9" x2="555.4" y2="287.0" stroke="rgb(0,0,0)"  stroke-width="1.0"/>
<line x1="569.0" y1="229.1" x2="569.8" y2="227.7" stroke="rgb(0,0,0)"  stroke-width="1.0"/>
<line x1="564.9" y1="227.5" x2="566.4" y2="225.0" stroke="rgb(0,0,0)"  stroke-width="1.0"/>
<line x1="560.8" y1="225.8" x2="562.9" y2="222.2" stroke="rgb(0,0,0)"  stroke-width="1.0"/>
<line x1="556.7" y1="224.2" x2="559.4" y2="219.5" stroke="rgb(0,0,0)"  stroke-width="1.0"/>
<line x1="552.6" y1="222.6" x2="556.0" y2="216.8" stroke="rgb(0,0,0)"  stroke-width="1.0"/>
<line x1="548.5" y1="220.9" x2="552.5" y2="214.0" stroke="rgb(0,0,0)"  stroke-width="1.0"/>
<line x1="217.5" y1="181.4" x2="217.7" y2="179.8" stroke="rgb(0,0,0)"  stroke-width="1.0"/>
<line x1="211.4" y1="181.2" x2="211.7" y2="178.3" stroke="rgb(0,0,0)"  stroke-width="1.0"/>
<line x1="205.2" y1="181.0" x2="205.8" y2="176.9" stroke="rgb(0,0,0)"  stroke-width="1.0"/>
<line x1="199.1" y1="180.8" x2="199.8" y2="175.4" stroke="rgb(0,0,0)"  stroke-width="1.0"/>
<line x1="193.0" y1="180.6" x2="193.9" y2="173.9" stroke="rgb(0,0,0)"  stroke-width="1.0"/>
<line x1="186.8" y1="180.4" x2="187.9" y2="172.5" stroke="rgb(0,0,0)"  stroke-width="1.0"/>
<line x1="183.9" y1="169.8" x2="185.3" y2="169.2" stroke="rgb(0,0,0)"  stroke-width="1.0"/>
<line x1="181.0" y1="164.5" x2="183.7" y2="163.5" stroke="rgb(0,0,0)"  stroke-width="1.0"/>
<line x1="178.2" y1="159.2" x2="182.1" y2="157.7" stroke="rgb(0,0,0)"  stroke-width="1.0"/>
<line x1="175.4" y1="153.9" x2="180.5" y2="151.9" stroke="rgb(0,0,0)"  stroke-width="1.0"/>
<line x1="172.6" y1="148.6" x2="178.8" y2="146.1" stroke="rgb(0,0,0)"  stroke-width="1.0"/>
<line x1="169.8" y1="143.3" x2="177.2" y2="140.4" stroke="rgb(0,0,0)"  stroke-width="1.0"/>
<line x1="525.9" y1="170.0" x2="511.1" y2="170.0" stroke="rgb(0,0,0)"  stroke-width="1.0"/>
<polygon points="611.403624 214.560077 615.967417 173.850182 623.792598 175.513475 " stroke-width="1.000000" fill="rgb(0,0,0)"  stroke="rgb(0,0,0)" />
<line x1="551.9" y1="170.0" x2="566.6" y2="170.0" stroke="rgb(0,0,0)"  stroke-width="1.0"/>
<polygon points="283.072121 199.014527 255.602621 179.320461 261.000636 173.416104 " stroke-width="1.000000" fill="rgb(0,0,0)"  stroke="rgb(0,0,0)" />
<polygon points="258.301628 176.368283 262.329508 149.057048 269.991261 151.358687 " stroke-width="1.000000" fill="rgb(0,0,0)"  stroke="rgb(0,0,0)" />
<line x1="589.3" y1="430.3" x2="580.7" y2="456.7" stroke="rgb(0,0,0)"  stroke-width="1.0"/>
<line x1="619.9" y1="174.7" x2="646.3" y2="166.1" stroke="rgb(0,0,0)"  stroke-width="1.0"/>
<line x1="535.9" y1="157.0" x2="535.9" y2="142.2" stroke="rgb(0,0,0)"  stroke-width="1.0"/>
<line x1="541.9" y1="157.0" x2="541.9" y2="142.2" stroke="rgb(0,0,0)"  stroke-width="1.0"/>
<line x1="562.0" y1="400.0" x2="534.9" y2="405.7" stroke="rgb(0,0,0)"  stroke-width="1.0"/>
<line x1="319.4" y1="186.8" x2="320.4" y2="188.1" stroke="rgb(0,0,0)"  stroke-width="1.0"/>
<line x1="322.5" y1="183.6" x2="324.2" y2="185.9" stroke="rgb(0,0,0)"  stroke-width="1.0"/>
<line x1="325.5" y1="180.4" x2="328.1" y2="183.7" stroke="rgb(0,0,0)"  stroke-width="1.0"/>
<line x1="328.5" y1="177.2" x2="331.9" y2="181.5" stroke="rgb(0,0,0)"  stroke-width="1.0"/>
<line x1="331.6" y1="174.0" x2="335.7" y2="179.3" stroke="rgb(0,0,0)"  stroke-width="1.0"/>
<line x1="334.6" y1="170.8" x2="339.6" y2="177.1" stroke="rgb(0,0,0)"  stroke-width="1.0"/>
<line x1="315.6" y1="190.8" x2="304.1" y2="110.1" stroke="rgb(0,0,0)"  stroke-width="1.0"/>
<line x1="341.7" y1="219.0" x2="341.6" y2="220.6" stroke="rgb(0,0,0)"  stroke-width="1.0"/>
<line x1="348.2" y1="218.8" x2="348.0" y2="221.7" stroke="rgb(0,0,0)"  stroke-width="1.0"/>
<line x1="354.8" y1="218.6" x2="354.5" y2="222.7" stroke="rgb(0,0,0)"  stroke-width="1.0"/>
<line x1="361.3" y1="218.4" x2="360.9" y2="223.8" stroke="rgb(0,0,0)"  stroke-width="1.0"/>
<line x1="367.9" y1="218.2" x2="367.4" y2="224.9" stroke="rgb(0,0,0)"  stroke-width="1.0"/>
<line x1="374.4" y1="218.0" x2="373.9" y2="226.0" stroke="rgb(0,0,0)"  stroke-width="1.0"/>
<polygon points="311.959044 244.999056 312.985592 271.587896 305.035993 270.691303 " stroke-width="1.000000" fill="rgb(0,0,0)"  stroke="rgb(0,0,0)" />
<polygon points="286.735088 285.132926 306.883038 267.752468 311.138547 274.526731 " stroke-width="1.000000" fill="rgb(0,0,0)"  stroke="rgb(0,0,0)" />
<line x1="288.1" y1="300.0" x2="301.6" y2="324.2" stroke="rgb(0,0,0)"  stroke-width="1.0"/>
<line x1="288.1" y1="300.0" x2="315.9" y2="300.4" stroke="rgb(0,0,0)"  stroke-width="1.0"/>
<line x1="267.1" y1="296.3" x2="265.9" y2="297.4" stroke="rgb(0,0,0)"  stroke-width="1.0"/>
<line x1="269.2" y1="297.7" x2="267.0" y2="299.6" stroke="rgb(0,0,0)"  stroke-width="1.0"/>
<line x1="271.3" y1="299.1" x2="268.1" y2="301.8" stroke="rgb(0,0,0)"  stroke-width="1.0"/>
<line x1="273.3" y1="300.5" x2="269.2" y2="304.0" stroke="rgb(0,0,0)"  stroke-width="1.0"/>
<line x1="275.4" y1="301.8" x2="270.3" y2="306.3" stroke="rgb(0,0,0)"  stroke-width="1.0"/>
<line x1="277.4" y1="303.2" x2="271.4" y2="308.5" stroke="rgb(0,0,0)"  stroke-width="1.0"/>
<line x1="271.6" y1="321.9" x2="270.0" y2="321.6" stroke="rgb(0,0,0)"  stroke-width="1.0"/>
<line x1="269.3" y1="334.8" x2="266.5" y2="334.1" stroke="rgb(0,0,0)"  stroke-width="1.0"/>
<line x1="267.0" y1="347.6" x2="263.0" y2="346.7" stroke="rgb(0,0,0)"  stroke-width="1.0"/>
<line x1="264.8" y1="360.5" x2="259.5" y2="359.3" stroke="rgb(0,0,0)"  stroke-width="1.0"/>
<line x1="262.5" y1="373.4" x2="256.0" y2="371.9" stroke="rgb(0,0,0)"  stroke-width="1.0"/>
<line x1="260.2" y1="386.2" x2="252.4" y2="384.5" stroke="rgb(0,0,0)"  stroke-width="1.0"/>
<line x1="236.8" y1="299.9" x2="236.2" y2="301.4" stroke="rgb(0,0,0)"  stroke-width="1.0"/>
<line x1="239.8" y1="300.4" x2="238.7" y2="303.0" stroke="rgb(0,0,0)"  stroke-width="1.0"/>
<line x1="242.7" y1="300.9" x2="241.2" y2="304.7" stroke="rgb(0,0,0)"  stroke-width="1.0"/>
<line x1="245.7" y1="301.3" x2="243.7" y2="306.4" stroke="rgb(0,0,0)"  stroke-width="1.0"/>
<line x1="248.7" y1="301.8" x2="246.2" y2="308.1" stroke="rgb(0,0,0)"  stroke-width="1.0"/>
<line x1="251.6" y1="302.3" x2="248.7" y2="309.8" stroke="rgb(0,0,0)"  stroke-width="1.0"/>
<line x1="251.8" y1="311.3" x2="250.2" y2="311.6" stroke="rgb(0,0,0)"  stroke-width="1.0"/>
<line x1="253.0" y1="315.6" x2="250.2" y2="316.0" stroke="rgb(0,0,0)"  stroke-width="1.0"/>
<line x1="254.3" y1="319.8" x2="250.2" y2="320.4" stroke="rgb(0,0,0)"  stroke-width="1.0"/>
<line x1="255.6" y1="324.0" x2="250.2" y2="324.8" stroke="rgb(0,0,0)"  stroke-width="1.0"/>
<line x1="256.8" y1="328.3" x2="250.2" y2="329.2" stroke="rgb(0,0,0)"  stroke-width="1.0"/>
<line x1="258.1" y1="332.5" x2="250.2" y2="333.6" stroke="rgb(0,0,0)"  stroke-width="1.0"/>
<line x1="238.5" y1="275.1" x2="238.5" y2="276.7" stroke="rgb(0,0,0)"  stroke-width="1.0"/>
<line x1="242.9" y1="274.5" x2="242.9" y2="277.4" stroke="rgb(0,0,0)"  stroke-width="1.0"/>
<line x1="247.3" y1="273.8" x2="247.3" y2="278.0" stroke="rgb(0,0,0)"  stroke-width="1.0"/>
<line x1="251.7" y1="273.2" x2="251.7" y2="278.6" stroke="rgb(0,0,0)"  stroke-width="1.0"/>
<line x1="256.0" y1="272.6" x2="256.0" y2="279.3" stroke="rgb(0,0,0)"  stroke-width="1.0"/>
<line x1="260.4" y1="271.9" x2="260.4" y2="279.9" stroke="rgb(0,0,0)"  stroke-width="1.0"/>
<line x1="233.1" y1="275.9" x2="273.9" y2="205.3" stroke="rgb(0,0,0)"  stroke-width="1.0"/>
<line x1="212.1" y1="231.6" x2="213.7" y2="231.6" stroke="rgb(0,0,0)"  stroke-width="1.0"/>
<line x1="211.4" y1="205.5" x2="214.3" y2="205.5" stroke="rgb(0,0,0)"  stroke-width="1.0"/>
<line x1="210.8" y1="179.4" x2="214.9" y2="179.4" stroke="rgb(0,0,0)"  stroke-width="1.0"/>
<line x1="210.1" y1="153.3" x2="215.6" y2="153.3" stroke="rgb(0,0,0)"  stroke-width="1.0"/>
<line x1="209.5" y1="127.2" x2="216.2" y2="127.2" stroke="rgb(0,0,0)"  stroke-width="1.0"/>
<line x1="208.9" y1="101.2" x2="216.9" y2="101.2" stroke="rgb(0,0,0)"  stroke-width="1.0"/>
<line x1="90.8" y1="195.3" x2="76.9" y2="160.8" stroke="rgb(0,0,0)"  stroke-width="1.0"/>
<line x1="76.5" y1="163.7" x2="52.4" y2="160.3" stroke="rgb(0,0,0)"  stroke-width="1.0"/>
<line x1="77.3" y1="157.8" x2="53.3" y2="154.3" stroke="rgb(0,0,0)"  stroke-width="1.0"/>
<line x1="76.9" y1="160.8" x2="91.9" y2="141.7" stroke="rgb(0,0,0)"  stroke-width="1.0"/>
<line x1="173.5" y1="141.8" x2="196.5" y2="112.5" stroke="rgb(0,0,0)"  stroke-width="1.0"/>
<line x1="196.5" y1="112.5" x2="182.7" y2="77.9" stroke="rgb(0,0,0)"  stroke-width="1.0"/>
<line x1="182.7" y1="77.9" x2="197.6" y2="58.9" stroke="rgb(0,0,0)"  stroke-width="1.0"/>
<line x1="182.2" y1="80.9" x2="158.2" y2="77.5" stroke="rgb(0,0,0)"  stroke-width="1.0"/>
<line x1="183.1" y1="75.0" x2="159.0" y2="71.5" stroke="rgb(0,0,0)"  stroke-width="1.0"/>
<line x1="304.1" y1="110.1" x2="336.1" y2="84.9" stroke="rgb(0,0,0)"  stroke-width="1.0"/>
<line x1="337.3" y1="82.1" x2="363.0" y2="92.5" stroke="rgb(0,0,0)"  stroke-width="1.0"/>
<line x1="335.0" y1="87.7" x2="360.8" y2="98.0" stroke="rgb(0,0,0)"  stroke-width="1.0"/>
<line x1="336.1" y1="84.9" x2="332.2" y2="57.4" stroke="rgb(0,0,0)"  stroke-width="1.0"/>
<line x1="374.1" y1="222.0" x2="392.1" y2="258.6" stroke="rgb(0,0,0)"  stroke-width="1.0"/>
<line x1="392.1" y1="258.6" x2="432.8" y2="261.3" stroke="rgb(0,0,0)"  stroke-width="1.0"/>
<line x1="435.5" y1="260.0" x2="447.7" y2="284.9" stroke="rgb(0,0,0)"  stroke-width="1.0"/>
<line x1="430.1" y1="262.7" x2="442.3" y2="287.6" stroke="rgb(0,0,0)"  stroke-width="1.0"/>
<line x1="432.8" y1="261.3" x2="448.3" y2="238.3" stroke="rgb(0,0,0)"  stroke-width="1.0"/>
<line x1="256.3" y1="385.3" x2="286.3" y2="413.0" stroke="rgb(0,0,0)"  stroke-width="1.0"/>
<line x1="286.3" y1="413.0" x2="277.2" y2="452.8" stroke="rgb(0,0,0)"  stroke-width="1.0"/>
<line x1="278.1" y1="455.7" x2="251.6" y2="463.9" stroke="rgb(0,0,0)"  stroke-width="1.0"/>
<line x1="276.3" y1="449.9" x2="249.8" y2="458.2" stroke="rgb(0,0,0)"  stroke-width="1.0"/>
<line x1="277.2" y1="452.8" x2="297.6" y2="471.7" stroke="rgb(0,0,0)"  stroke-width="1.0"/>
<line x1="273.9" y1="205.3" x2="355.4" y2="205.3" stroke="rgb(0,0,0)"  stroke-width="1.0"/>
<line x1="355.4" y1="205.3" x2="375.8" y2="170.0" stroke="rgb(0,0,0)"  stroke-width="1.0"/>
<line x1="373.2" y1="171.5" x2="359.3" y2="147.4" stroke="rgb(0,0,0)"  stroke-width="1.0"/>
<line x1="378.4" y1="168.5" x2="364.5" y2="144.4" stroke="rgb(0,0,0)"  stroke-width="1.0"/>
<line x1="375.8" y1="170.0" x2="403.5" y2="170.0" stroke="rgb(0,0,0)"  stroke-width="1.0"/>
<line x1="436.9" y1="134.7" x2="423.0" y2="158.7" stroke="rgb(0,0,0)"  stroke-width="1.0"/>
<line x1="212.9" y1="101.2" x2="248.2" y2="80.8" stroke="rgb(0,0,0)"  stroke-width="1.0"/>
<line x1="248.2" y1="80.8" x2="272.2" y2="94.7" stroke="rgb(0,0,0)"  stroke-width="1.0"/>
<line x1="245.2" y1="80.8" x2="245.2" y2="53.0" stroke="rgb(0,0,0)"  stroke-width="1.0"/>
<line x1="251.2" y1="80.8" x2="251.2" y2="53.0" stroke="rgb(0,0,0)"  stroke-width="1.0"/>
<line x1="243.4" y1="227.2" x2="248.4" y2="239.5" stroke="rgb(0,0,0)"  stroke-width="1.0"/>
<polygon points="243.815996 228.158640 252.300962 238.570952 244.875713 241.548482 " stroke-width="1.000000" fill="rgb(0,0,0)"  stroke="rgb(0,0,0)" />
<polygon points="271.705889 238.806940 264.602726 248.592661 260.047575 242.016142 " stroke-width="1.000000" fill="rgb(0,0,0)"  stroke="rgb(0,0,0)" />
<polygon points="259.039718 268.247541 252.310909 261.125696 259.862267 258.484296 " stroke-width="1.000000" fill="rgb(0,0,0)"  stroke="rgb(0,0,0)" />
<polygon points="237.933644 271.356443 242.528141 258.887585 248.853978 263.784909 " stroke-width="1.000000" fill="rgb(0,0,0)"  stroke="rgb(0,0,0)" />
<line x1="578.4" y1="271.7" x2="618.3" y2="280.2" stroke="rgb(0,0,0)"  stroke-width="1.0"/>
<line x1="618.3" y1="280.2" x2="632.2" y2="256.1" stroke="rgb(0,0,0)"  stroke-width="1.0"/>
<line x1="630.0" y1="235.2" x2="611.4" y2="214.6" stroke="rgb(0,0,0)"  stroke-width="1.0"/>
<line x1="611.4" y1="214.6" x2="574.2" y2="231.1" stroke="rgb(0,0,0)"  stroke-width="1.0"/>
<line x1="574.2" y1="231.1" x2="578.4" y2="271.7" stroke="rgb(0,0,0)"  stroke-width="1.0"/>
<line x1="178.6" y1="240.9" x2="164.6" y2="205.9" stroke="rgb(0,0,0)"  stroke-width="1.0"/>
<line x1="164.6" y1="205.9" x2="187.4" y2="176.4" stroke="rgb(0,0,0)"  stroke-width="1.0"/>
<line x1="187.4" y1="176.4" x2="225.2" y2="181.6" stroke="rgb(0,0,0)"  stroke-width="1.0"/>
<line x1="225.2" y1="181.6" x2="234.3" y2="204.5" stroke="rgb(0,0,0)"  stroke-width="1.0"/>
<line x1="227.1" y1="221.4" x2="178.6" y2="240.9" stroke="rgb(0,0,0)"  stroke-width="1.0"/>
<line x1="333.5" y1="219.2" x2="312.0" y2="245.0" stroke="rgb(0,0,0)"  stroke-width="1.0"/>
<line x1="312.0" y1="245.0" x2="292.9" y2="237.3" stroke="rgb(0,0,0)"  stroke-width="1.0"/>
<line x1="281.7" y1="219.5" x2="283.1" y2="199.0" stroke="rgb(0,0,0)"  stroke-width="1.0"/>
<line x1="283.1" y1="199.0" x2="315.6" y2="190.8" stroke="rgb(0,0,0)"  stroke-width="1.0"/>
<line x1="315.6" y1="190.8" x2="333.5" y2="219.2" stroke="rgb(0,0,0)"  stroke-width="1.0"/>
<line x1="233.1" y1="275.9" x2="212.9" y2="264.2" stroke="rgb(0,0,0)"  stroke-width="1.0"/>
<line x1="212.9" y1="264.2" x2="192.6" y2="275.9" stroke="rgb(0,0,0)"  stroke-width="1.0"/>
<line x1="192.6" y1="275.9" x2="217.5" y2="279.3" stroke="rgb(0,0,0)"  stroke-width="1.0"/>
<line x1="232.3" y1="293.9" x2="233.1" y2="299.3" stroke="rgb(0,0,0)"  stroke-width="1.0"/>
<line x1="233.1" y1="299.3" x2="233.1" y2="275.9" stroke="rgb(0,0,0)"  stroke-width="1.0"/>
<line x1="192.6" y1="275.9" x2="178.6" y2="240.9" stroke="rgb(0,0,0)"  stroke-width="1.0"/>
<line x1="244.0" y1="228.7" x2="248.4" y2="239.5" stroke="rgb(0,0,0)"  stroke-width="1.0"/>
<line x1="245.3" y1="261.9" x2="238.4" y2="270.8" stroke="rgb(0,0,0)"  stroke-width="1.0"/>
<line x1="647.6" y1="320.1" x2="674.8" y2="325.9" stroke="rgb(0,0,0)"  stroke-width="1.0"/>
<line x1="674.8" y1="325.9" x2="677.6" y2="353.1" stroke="rgb(0,0,0)"  stroke-width="1.0"/>
<line x1="668.2" y1="332.6" x2="670.3" y2="351.9" stroke="rgb(0,0,0)"  stroke-width="1.0"/>
<line x1="667.1" y1="371.7" x2="641.8" y2="383.0" stroke="rgb(0,0,0)"  stroke-width="1.0"/>
<line x1="641.8" y1="383.0" x2="614.5" y2="352.7" stroke="rgb(0,0,0)"  stroke-width="1.0"/>
<line x1="643.1" y1="373.7" x2="623.9" y2="352.4" stroke="rgb(0,0,0)"  stroke-width="1.0"/>
<line x1="614.5" y1="352.7" x2="628.4" y2="328.7" stroke="rgb(0,0,0)"  stroke-width="1.0"/>
<line x1="274.4" y1="305.8" x2="264.6" y2="294.6" stroke="rgb(0,0,0)"  stroke-width="1.0"/>
<line x1="264.6" y1="294.6" x2="263.8" y2="289.3" stroke="rgb(0,0,0)"  stroke-width="1.0"/>
<line x1="274.2" y1="280.7" x2="286.7" y2="285.1" stroke="rgb(0,0,0)"  stroke-width="1.0"/>
<line x1="286.7" y1="285.1" x2="288.1" y2="300.0" stroke="rgb(0,0,0)"  stroke-width="1.0"/>
<line x1="288.1" y1="300.0" x2="274.4" y2="305.8" stroke="rgb(0,0,0)"  stroke-width="1.0"/>
<line x1="258.3" y1="176.4" x2="283.1" y2="199.0" stroke="rgb(0,0,0)"  stroke-width="1.0"/>
<line x1="270.1" y1="239.9" x2="263.9" y2="244.2" stroke="rgb(0,0,0)"  stroke-width="1.0"/>
<line x1="225.2" y1="181.6" x2="258.3" y2="176.4" stroke="rgb(0,0,0)"  stroke-width="1.0"/>
<line x1="250.2" y1="306.0" x2="233.1" y2="299.3" stroke="rgb(0,0,0)"  stroke-width="1.0"/>
<line x1="257.5" y1="263.9" x2="257.6" y2="264.2" stroke="rgb(0,0,0)"  stroke-width="1.0"/>
<line x1="264.6" y1="294.6" x2="250.2" y2="306.0" stroke="rgb(0,0,0)"  stroke-width="1.0"/>
<line x1="629.2" y1="421.8" x2="589.3" y2="430.3" stroke="rgb(0,0,0)"  stroke-width="1.0"/>
<line x1="621.8" y1="416.0" x2="593.7" y2="422.0" stroke="rgb(0,0,0)"  stroke-width="1.0"/>
<line x1="589.3" y1="430.3" x2="562.0" y2="400.0" stroke="rgb(0,0,0)"  stroke-width="1.0"/>
<line x1="562.0" y1="400.0" x2="574.6" y2="361.2" stroke="rgb(0,0,0)"  stroke-width="1.0"/>
<line x1="570.7" y1="396.5" x2="579.6" y2="369.1" stroke="rgb(0,0,0)"  stroke-width="1.0"/>
<line x1="574.6" y1="361.2" x2="614.5" y2="352.7" stroke="rgb(0,0,0)"  stroke-width="1.0"/>
<line x1="641.8" y1="383.0" x2="629.2" y2="421.8" stroke="rgb(0,0,0)"  stroke-width="1.0"/>
<line x1="312.0" y1="245.0" x2="309.0" y2="271.1" stroke="rgb(0,0,0)"  stroke-width="1.0"/>
<line x1="309.0" y1="271.1" x2="286.7" y2="285.1" stroke="rgb(0,0,0)"  stroke-width="1.0"/>
<text x="532.852027" y="177.988656" fill="rgb(255,127,0)"  stroke="rgb(255,127,0)" stroke-width="1" font-size="16" >P</text>
<text x="494.082875" y="107.374412" fill="rgb(102,102,102)"  stroke="rgb(102,102,102)" stroke-width="1" font-size="16" >CH</text>
<text x="518.082875" y="111.054412" fill="rgb(102,102,102)"  stroke="rgb(102,102,102)" stroke-width="1" font-size="13" >3</text>
<text x="253.679026" y="214.507040" fill="rgb(12,12,255)"  stroke="rgb(12,12,255)" stroke-width="1" font-size="16" >NH</text>
<text x="628.881244" y="325.409059" fill="rgb(12,12,255)"  stroke="rgb(12,12,255)" stroke-width="1" font-size="16" >N</text>
<text x="532.852027" y="218.757809" fill="rgb(255,12,12)"  stroke="rgb(255,12,12)" stroke-width="1" font-size="16" >O</text>
<text x="673.021030" y="374.431257" fill="rgb(12,12,255)"  stroke="rgb(12,12,255)" stroke-width="1" font-size="16" >N</text>
<text x="492.082875" y="177.988656" fill="rgb(255,12,12)"  stroke="rgb(255,12,12)" stroke-width="1" font-size="16" >O</text>
<text x="584.421180" y="165.956656" fill="rgb(255,12,12)"  stroke="rgb(255,12,12)" stroke-width="1" font-size="32" >-</text>
<text x="573.621180" y="177.988656" fill="rgb(255,12,12)"  stroke="rgb(255,12,12)" stroke-width="1" font-size="16" >O</text>
<text x="550.701584" y="477.037486" fill="rgb(102,102,102)"  stroke="rgb(102,102,102)" stroke-width="1" font-size="16" >H</text>
<text x="562.701584" y="480.717486" fill="rgb(102,102,102)"  stroke="rgb(102,102,102)" stroke-width="1" font-size="13" >3</text>
<text x="569.201584" y="477.037486" fill="rgb(102,102,102)"  stroke="rgb(102,102,102)" stroke-width="1" font-size="16" >C</text>
<text x="532.852027" y="137.219504" fill="rgb(255,12,12)"  stroke="rgb(255,12,12)" stroke-width="1" font-size="16" >O</text>
<text x="496.141808" y="416.442716" fill="rgb(102,102,102)"  stroke="rgb(102,102,102)" stroke-width="1" font-size="16" >H</text>
<text x="508.141808" y="420.122716" fill="rgb(102,102,102)"  stroke="rgb(102,102,102)" stroke-width="1" font-size="13" >3</text>
<text x="514.641808" y="416.442716" fill="rgb(102,102,102)"  stroke="rgb(102,102,102)" stroke-width="1" font-size="16" >C</text>
<text x="632.683512" y="252.857462" fill="rgb(255,12,12)"  stroke="rgb(255,12,12)" stroke-width="1" font-size="16" >O</text>
<text x="530.123301" y="306.968089" fill="rgb(255,12,12)"  stroke="rgb(255,12,12)" stroke-width="1" font-size="16" >HO</text>
<text x="652.653776" y="170.083467" fill="rgb(255,12,12)"  stroke="rgb(255,12,12)" stroke-width="1" font-size="16" >OH</text>
<text x="129.298985" y="278.555332" fill="rgb(102,102,102)"  stroke="rgb(102,102,102)" stroke-width="1" font-size="16" >H</text>
<text x="141.298985" y="282.235332" fill="rgb(102,102,102)"  stroke="rgb(102,102,102)" stroke-width="1" font-size="13" >3</text>
<text x="147.798985" y="278.555332" fill="rgb(102,102,102)"  stroke="rgb(102,102,102)" stroke-width="1" font-size="16" >C</text>
<text x="233.184018" y="224.607596" fill="rgb(12,12,255)"  stroke="rgb(12,12,255)" stroke-width="1" font-size="16" >N</text>
<text x="274.810724" y="240.500580" fill="rgb(12,12,255)"  stroke="rgb(12,12,255)" stroke-width="1" font-size="16" >N</text>
<text x="255.905990" y="284.441776" fill="rgb(12,12,255)"  stroke="rgb(12,12,255)" stroke-width="1" font-size="16" >N</text>
<text x="224.404388" y="289.081928" fill="rgb(12,12,255)"  stroke="rgb(12,12,255)" stroke-width="1" font-size="16" >N</text>
<text x="101.660890" y="208.631017" fill="rgb(102,102,102)"  stroke="rgb(102,102,102)" stroke-width="1" font-size="16" >H</text>
<text x="113.660890" y="212.311017" fill="rgb(102,102,102)"  stroke="rgb(102,102,102)" stroke-width="1" font-size="13" >3</text>
<text x="120.160890" y="208.631017" fill="rgb(102,102,102)"  stroke="rgb(102,102,102)" stroke-width="1" font-size="16" >C</text>
<text x="34.000000" y="163.471501" fill="rgb(255,12,12)"  stroke="rgb(255,12,12)" stroke-width="1" font-size="16" >O</text>
<text x="95.917118" y="139.444689" fill="rgb(12,12,255)"  stroke="rgb(12,12,255)" stroke-width="1" font-size="16" >NH</text>
<text x="119.917118" y="143.124689" fill="rgb(12,12,255)"  stroke="rgb(12,12,255)" stroke-width="1" font-size="13" >2</text>
<text x="201.672778" y="56.636722" fill="rgb(12,12,255)"  stroke="rgb(12,12,255)" stroke-width="1" font-size="16" >NH</text>
<text x="225.672778" y="60.316722" fill="rgb(12,12,255)"  stroke="rgb(12,12,255)" stroke-width="1" font-size="13" >2</text>
<text x="139.755661" y="80.663534" fill="rgb(255,12,12)"  stroke="rgb(255,12,12)" stroke-width="1" font-size="16" >O</text>
<text x="266.031115" y="145.322887" fill="rgb(102,102,102)"  stroke="rgb(102,102,102)" stroke-width="1" font-size="16" >CH</text>
<text x="290.031115" y="149.002887" fill="rgb(102,102,102)"  stroke="rgb(102,102,102)" stroke-width="1" font-size="13" >3</text>
<text x="343.684685" y="173.640999" fill="rgb(102,102,102)"  stroke="rgb(102,102,102)" stroke-width="1" font-size="16" >CH</text>
<text x="367.684685" y="177.320999" fill="rgb(102,102,102)"  stroke="rgb(102,102,102)" stroke-width="1" font-size="13" >3</text>
<text x="367.981148" y="108.105760" fill="rgb(255,12,12)"  stroke="rgb(255,12,12)" stroke-width="1" font-size="16" >O</text>
<text x="304.374197" y="52.564736" fill="rgb(12,12,255)"  stroke="rgb(12,12,255)" stroke-width="1" font-size="16" >H</text>
<text x="316.374197" y="56.244736" fill="rgb(12,12,255)"  stroke="rgb(12,12,255)" stroke-width="1" font-size="13" >2</text>
<text x="322.874197" y="52.564736" fill="rgb(12,12,255)"  stroke="rgb(12,12,255)" stroke-width="1" font-size="16" >N</text>
<text x="444.742750" y="305.932213" fill="rgb(255,12,12)"  stroke="rgb(255,12,12)" stroke-width="1" font-size="16" >O</text>
<text x="451.500669" y="235.478443" fill="rgb(12,12,255)"  stroke="rgb(12,12,255)" stroke-width="1" font-size="16" >NH</text>
<text x="475.500669" y="239.158443" fill="rgb(12,12,255)"  stroke="rgb(12,12,255)" stroke-width="1" font-size="13" >2</text>
<text x="303.979956" y="343.552264" fill="rgb(102,102,102)"  stroke="rgb(102,102,102)" stroke-width="1" font-size="16" >CH</text>
<text x="327.979956" y="347.232264" fill="rgb(102,102,102)"  stroke="rgb(102,102,102)" stroke-width="1" font-size="13" >3</text>
<text x="324.851823" y="308.530998" fill="rgb(102,102,102)"  stroke="rgb(102,102,102)" stroke-width="1" font-size="16" >CH</text>
<text x="348.851823" y="312.210998" fill="rgb(102,102,102)"  stroke="rgb(102,102,102)" stroke-width="1" font-size="13" >3</text>
<text x="232.284434" y="472.862961" fill="rgb(255,12,12)"  stroke="rgb(255,12,12)" stroke-width="1" font-size="16" >O</text>
<text x="303.145515" y="488.500190" fill="rgb(12,12,255)"  stroke="rgb(12,12,255)" stroke-width="1" font-size="16" >NH</text>
<text x="327.145515" y="492.180190" fill="rgb(12,12,255)"  stroke="rgb(12,12,255)" stroke-width="1" font-size="13" >2</text>
<text x="252.114826" y="354.376978" fill="rgb(102,102,102)"  stroke="rgb(102,102,102)" stroke-width="1" font-size="16" >CH</text>
<text x="276.114826" y="358.056978" fill="rgb(102,102,102)"  stroke="rgb(102,102,102)" stroke-width="1" font-size="13" >3</text>
<text x="269.852534" y="283.910023" fill="rgb(102,102,102)"  stroke="rgb(102,102,102)" stroke-width="1" font-size="16" >CH</text>
<text x="293.852534" y="287.590023" fill="rgb(102,102,102)"  stroke="rgb(102,102,102)" stroke-width="1" font-size="13" >3</text>
<text x="349.390840" y="142.681534" fill="rgb(255,12,12)"  stroke="rgb(255,12,12)" stroke-width="1" font-size="16" >O</text>
<text x="410.544569" y="177.988656" fill="rgb(12,12,255)"  stroke="rgb(12,12,255)" stroke-width="1" font-size="16" >N</text>
<text x="410.544569" y="193.988656" fill="rgb(12,12,255)"  stroke="rgb(12,12,255)" stroke-width="1" font-size="16" >H</text>
<text x="279.467823" y="109.153729" fill="rgb(12,12,255)"  stroke="rgb(12,12,255)" stroke-width="1" font-size="16" >NH</text>
<text x="303.467823" y="112.833729" fill="rgb(12,12,255)"  stroke="rgb(12,12,255)" stroke-width="1" font-size="13" >2</text>
<text x="242.160701" y="48.000000" fill="rgb(255,12,12)"  stroke="rgb(255,12,12)" stroke-width="1" font-size="16" >O</text>
<text x="247.220316" y="259.610762" fill="rgb(239,142,160)"  stroke="rgb(239,142,160)" stroke-width="1" font-size="16" >Co</text>
<text font-size="18.000000" fill ="black" font-family="sans-serif"
x="10.000000" y="20.000000" ></text>
<title> - OBDepict</title>
</svg>
