<?xml version="1.0"?>
<svg xmlns="http://www.w3.org/2000/svg"
xmlns:xlink="http://www.w3.org/1999/xlink" xmlns:cml="http://www.xml-cml.org/schema" width="461.051" height="440" x="0" y="0" font-family="sans-serif" stroke="rgb(0,0,0)" stroke-width="1"  stroke-linecap="round">
<rect x="0%" y="0%" width="100%" height="100%" stroke-width="0" fill="rgb(255,255,255)"  />
<line x1="312.1" y1="98.0" x2="312.9" y2="96.6" stroke="rgb(0,0,0)"  stroke-width="1.0"/>
<line x1="308.1" y1="96.4" x2="309.5" y2="93.9" stroke="rgb(0,0,0)"  stroke-width="1.0"/>
<line x1="304.0" y1="94.8" x2="306.1" y2="91.2" stroke="rgb(0,0,0)"  stroke-width="1.0"/>
<line x1="300.0" y1="93.2" x2="302.7" y2="88.5" stroke="rgb(0,0,0)"  stroke-width="1.0"/>
<line x1="296.0" y1="91.7" x2="299.3" y2="85.8" stroke="rgb(0,0,0)"  stroke-width="1.0"/>
<line x1="291.9" y1="90.1" x2="295.9" y2="83.1" stroke="rgb(0,0,0)"  stroke-width="1.0"/>
<line x1="174.3" y1="143.4" x2="173.5" y2="142.0" stroke="rgb(0,0,0)"  stroke-width="1.0"/>
<line x1="170.9" y1="146.1" x2="169.5" y2="143.6" stroke="rgb(0,0,0)"  stroke-width="1.0"/>
<line x1="167.5" y1="148.8" x2="165.5" y2="145.2" stroke="rgb(0,0,0)"  stroke-width="1.0"/>
<line x1="164.1" y1="151.5" x2="161.4" y2="146.8" stroke="rgb(0,0,0)"  stroke-width="1.0"/>
<line x1="160.7" y1="154.2" x2="157.4" y2="148.3" stroke="rgb(0,0,0)"  stroke-width="1.0"/>
<line x1="157.4" y1="156.9" x2="153.4" y2="149.9" stroke="rgb(0,0,0)"  stroke-width="1.0"/>
<line x1="351.0" y1="74.6" x2="352.6" y2="74.6" stroke="rgb(0,0,0)"  stroke-width="1.0"/>
<line x1="350.3" y1="70.4" x2="353.2" y2="70.4" stroke="rgb(0,0,0)"  stroke-width="1.0"/>
<line x1="349.7" y1="66.1" x2="353.8" y2="66.1" stroke="rgb(0,0,0)"  stroke-width="1.0"/>
<line x1="349.0" y1="61.8" x2="354.5" y2="61.8" stroke="rgb(0,0,0)"  stroke-width="1.0"/>
<line x1="348.4" y1="57.5" x2="355.1" y2="57.5" stroke="rgb(0,0,0)"  stroke-width="1.0"/>
<line x1="347.8" y1="53.2" x2="355.8" y2="53.2" stroke="rgb(0,0,0)"  stroke-width="1.0"/>
<line x1="143.9" y1="200.0" x2="143.9" y2="173.0" stroke="rgb(0,0,0)"  stroke-width="1.0"/>
<line x1="145.4" y1="197.4" x2="168.8" y2="210.9" stroke="rgb(0,0,0)"  stroke-width="1.0"/>
<line x1="142.4" y1="202.6" x2="165.8" y2="216.1" stroke="rgb(0,0,0)"  stroke-width="1.0"/>
<line x1="115.8" y1="215.3" x2="116.6" y2="216.7" stroke="rgb(0,0,0)"  stroke-width="1.0"/>
<line x1="121.0" y1="211.6" x2="122.5" y2="214.0" stroke="rgb(0,0,0)"  stroke-width="1.0"/>
<line x1="126.3" y1="207.8" x2="128.3" y2="211.4" stroke="rgb(0,0,0)"  stroke-width="1.0"/>
<line x1="131.5" y1="204.0" x2="134.2" y2="208.8" stroke="rgb(0,0,0)"  stroke-width="1.0"/>
<line x1="136.7" y1="200.3" x2="140.1" y2="206.1" stroke="rgb(0,0,0)"  stroke-width="1.0"/>
<line x1="141.9" y1="196.5" x2="145.9" y2="203.5" stroke="rgb(0,0,0)"  stroke-width="1.0"/>
<line x1="109.3" y1="220.0" x2="74.6" y2="200.0" stroke="rgb(0,0,0)"  stroke-width="1.0"/>
<line x1="109.3" y1="220.0" x2="109.3" y2="247.0" stroke="rgb(0,0,0)"  stroke-width="1.0"/>
<line x1="74.6" y1="200.0" x2="40.0" y2="220.0" stroke="rgb(0,0,0)"  stroke-width="1.0"/>
<line x1="40.0" y1="220.0" x2="40.0" y2="247.0" stroke="rgb(0,0,0)"  stroke-width="1.0"/>
<line x1="247.8" y1="220.0" x2="247.8" y2="260.0" stroke="rgb(0,0,0)"  stroke-width="1.0"/>
<line x1="247.8" y1="220.0" x2="224.5" y2="206.5" stroke="rgb(0,0,0)"  stroke-width="1.0"/>
<line x1="247.8" y1="260.0" x2="271.2" y2="273.5" stroke="rgb(0,0,0)"  stroke-width="1.0"/>
<polygon points="386.410162 100.000000 407.619642 83.135898 411.619642 90.064102 " stroke-width="1.000000" fill="rgb(0,0,0)"  stroke="rgb(0,0,0)" />
<line x1="282.5" y1="293.0" x2="282.5" y2="320.0" stroke="rgb(0,0,0)"  stroke-width="1.0"/>
<line x1="212.4" y1="74.6" x2="214.0" y2="74.6" stroke="rgb(0,0,0)"  stroke-width="1.0"/>
<line x1="211.8" y1="70.4" x2="214.6" y2="70.4" stroke="rgb(0,0,0)"  stroke-width="1.0"/>
<line x1="211.1" y1="66.1" x2="215.3" y2="66.1" stroke="rgb(0,0,0)"  stroke-width="1.0"/>
<line x1="210.5" y1="61.8" x2="215.9" y2="61.8" stroke="rgb(0,0,0)"  stroke-width="1.0"/>
<line x1="209.8" y1="57.5" x2="216.6" y2="57.5" stroke="rgb(0,0,0)"  stroke-width="1.0"/>
<line x1="209.2" y1="53.2" x2="217.2" y2="53.2" stroke="rgb(0,0,0)"  stroke-width="1.0"/>
<line x1="317.1" y1="340.0" x2="317.1" y2="380.0" stroke="rgb(0,0,0)"  stroke-width="1.0"/>
<line x1="317.1" y1="340.0" x2="282.5" y2="320.0" stroke="rgb(0,0,0)"  stroke-width="1.0"/>
<line x1="317.1" y1="380.0" x2="340.5" y2="393.5" stroke="rgb(0,0,0)"  stroke-width="1.0"/>
<line x1="391.5" y1="142.0" x2="390.7" y2="143.4" stroke="rgb(0,0,0)"  stroke-width="1.0"/>
<line x1="395.5" y1="143.6" x2="394.0" y2="146.1" stroke="rgb(0,0,0)"  stroke-width="1.0"/>
<line x1="399.5" y1="145.2" x2="397.4" y2="148.8" stroke="rgb(0,0,0)"  stroke-width="1.0"/>
<line x1="403.6" y1="146.8" x2="400.8" y2="151.5" stroke="rgb(0,0,0)"  stroke-width="1.0"/>
<line x1="407.6" y1="148.3" x2="404.2" y2="154.2" stroke="rgb(0,0,0)"  stroke-width="1.0"/>
<line x1="411.6" y1="149.9" x2="407.6" y2="156.9" stroke="rgb(0,0,0)"  stroke-width="1.0"/>
<polygon points="247.846097 100.000000 269.055578 83.135898 273.055578 90.064102 " stroke-width="1.000000" fill="rgb(0,0,0)"  stroke="rgb(0,0,0)" />
<polygon points="351.769145 160.000000 355.769145 200.000000 347.769145 200.000000 " stroke-width="1.000000" fill="rgb(0,0,0)"  stroke="rgb(0,0,0)" />
<line x1="252.9" y1="142.0" x2="252.1" y2="143.4" stroke="rgb(0,0,0)"  stroke-width="1.0"/>
<line x1="256.9" y1="143.6" x2="255.5" y2="146.1" stroke="rgb(0,0,0)"  stroke-width="1.0"/>
<line x1="261.0" y1="145.2" x2="258.9" y2="148.8" stroke="rgb(0,0,0)"  stroke-width="1.0"/>
<line x1="265.0" y1="146.8" x2="262.3" y2="151.5" stroke="rgb(0,0,0)"  stroke-width="1.0"/>
<line x1="269.0" y1="148.3" x2="265.7" y2="154.2" stroke="rgb(0,0,0)"  stroke-width="1.0"/>
<line x1="273.1" y1="149.9" x2="269.1" y2="156.9" stroke="rgb(0,0,0)"  stroke-width="1.0"/>
<line x1="351.8" y1="200.0" x2="375.2" y2="213.5" stroke="rgb(0,0,0)"  stroke-width="1.0"/>
<polygon points="213.205081 160.000000 217.205081 186.800000 209.205081 186.800000 " stroke-width="1.000000" fill="rgb(0,0,0)"  stroke="rgb(0,0,0)" />
<line x1="178.6" y1="100.0" x2="178.6" y2="140.0" stroke="rgb(0,0,0)"  stroke-width="1.0"/>
<line x1="178.6" y1="140.0" x2="213.2" y2="160.0" stroke="rgb(0,0,0)"  stroke-width="1.0"/>
<line x1="213.2" y1="160.0" x2="247.8" y2="140.0" stroke="rgb(0,0,0)"  stroke-width="1.0"/>
<line x1="247.8" y1="140.0" x2="247.8" y2="100.0" stroke="rgb(0,0,0)"  stroke-width="1.0"/>
<line x1="247.8" y1="100.0" x2="213.2" y2="80.0" stroke="rgb(0,0,0)"  stroke-width="1.0"/>
<line x1="213.2" y1="80.0" x2="178.6" y2="100.0" stroke="rgb(0,0,0)"  stroke-width="1.0"/>
<line x1="317.1" y1="100.0" x2="351.8" y2="80.0" stroke="rgb(0,0,0)"  stroke-width="1.0"/>
<line x1="351.8" y1="80.0" x2="386.4" y2="100.0" stroke="rgb(0,0,0)"  stroke-width="1.0"/>
<line x1="386.4" y1="100.0" x2="386.4" y2="140.0" stroke="rgb(0,0,0)"  stroke-width="1.0"/>
<line x1="386.4" y1="140.0" x2="351.8" y2="160.0" stroke="rgb(0,0,0)"  stroke-width="1.0"/>
<line x1="351.8" y1="160.0" x2="328.4" y2="146.5" stroke="rgb(0,0,0)"  stroke-width="1.0"/>
<line x1="317.1" y1="127.0" x2="317.1" y2="100.0" stroke="rgb(0,0,0)"  stroke-width="1.0"/>
<text x="276.487113" y="88.000000" fill="rgb(255,12,12)"  stroke="rgb(255,12,12)" stroke-width="1" font-size="16" >O</text>
<text x="125.923048" y="168.000000" fill="rgb(12,12,255)"  stroke="rgb(12,12,255)" stroke-width="1" font-size="16" >HN</text>
<text x="347.769145" y="48.000000" fill="rgb(12,12,255)"  stroke="rgb(12,12,255)" stroke-width="1" font-size="16" >NH</text>
<text x="371.769145" y="51.680000" fill="rgb(12,12,255)"  stroke="rgb(12,12,255)" stroke-width="1" font-size="13" >2</text>
<text x="36.000000" y="268.000000" fill="rgb(12,12,255)"  stroke="rgb(12,12,255)" stroke-width="1" font-size="16" >NH</text>
<text x="60.000000" y="271.680000" fill="rgb(12,12,255)"  stroke="rgb(12,12,255)" stroke-width="1" font-size="13" >2</text>
<text x="103.282032" y="268.000000" fill="rgb(255,12,12)"  stroke="rgb(255,12,12)" stroke-width="1" font-size="16" >OH</text>
<text x="276.487113" y="288.000000" fill="rgb(12,12,255)"  stroke="rgb(12,12,255)" stroke-width="1" font-size="16" >NH</text>
<text x="415.051178" y="88.000000" fill="rgb(255,12,12)"  stroke="rgb(255,12,12)" stroke-width="1" font-size="16" >OH</text>
<text x="209.205081" y="48.000000" fill="rgb(12,12,255)"  stroke="rgb(12,12,255)" stroke-width="1" font-size="16" >NH</text>
<text x="233.205081" y="51.680000" fill="rgb(12,12,255)"  stroke="rgb(12,12,255)" stroke-width="1" font-size="13" >2</text>
<text x="347.769145" y="408.000000" fill="rgb(12,12,255)"  stroke="rgb(12,12,255)" stroke-width="1" font-size="16" >NH</text>
<text x="371.769145" y="411.680000" fill="rgb(12,12,255)"  stroke="rgb(12,12,255)" stroke-width="1" font-size="13" >2</text>
<text x="172.564065" y="228.000000" fill="rgb(255,12,12)"  stroke="rgb(255,12,12)" stroke-width="1" font-size="16" >O</text>
<text x="415.051178" y="168.000000" fill="rgb(255,12,12)"  stroke="rgb(255,12,12)" stroke-width="1" font-size="16" >OH</text>
<text x="311.128129" y="148.000000" fill="rgb(255,12,12)"  stroke="rgb(255,12,12)" stroke-width="1" font-size="16" >O</text>
<text x="276.487113" y="168.000000" fill="rgb(255,12,12)"  stroke="rgb(255,12,12)" stroke-width="1" font-size="16" >OH</text>
<text x="380.410162" y="228.000000" fill="rgb(255,12,12)"  stroke="rgb(255,12,12)" stroke-width="1" font-size="16" >OH</text>
<text x="207.205081" y="208.000000" fill="rgb(255,12,12)"  stroke="rgb(255,12,12)" stroke-width="1" font-size="16" >O</text>
<text font-size="18.000000" fill ="black" font-family="sans-serif"
x="10.000000" y="20.000000" >2f4u_lig</text>
<title>2f4u_lig - OBDepict</title>
</svg>
