<?xml version="1.0"?>
<svg xmlns="http://www.w3.org/2000/svg"
xmlns:xlink="http://www.w3.org/1999/xlink" xmlns:cml="http://www.xml-cml.org/schema" width="357.128" height="340" x="0" y="0" font-family="sans-serif" stroke="rgb(0,0,0)" stroke-width="1"  stroke-linecap="round">
<rect x="0%" y="0%" width="100%" height="100%" stroke-width="0" fill="rgb(255,255,255)"  />
<line x1="51.3" y1="293.5" x2="74.6" y2="280.0" stroke="rgb(0,0,0)"  stroke-width="1.0"/>
<line x1="76.1" y1="277.4" x2="99.5" y2="290.9" stroke="rgb(0,0,0)"  stroke-width="1.0"/>
<line x1="73.1" y1="282.6" x2="96.5" y2="296.1" stroke="rgb(0,0,0)"  stroke-width="1.0"/>
<line x1="305.9" y1="173.5" x2="282.5" y2="160.0" stroke="rgb(0,0,0)"  stroke-width="1.0"/>
<line x1="244.8" y1="100.0" x2="244.8" y2="73.0" stroke="rgb(0,0,0)"  stroke-width="1.0"/>
<line x1="250.8" y1="100.0" x2="250.8" y2="73.0" stroke="rgb(0,0,0)"  stroke-width="1.0"/>
<line x1="178.6" y1="60.0" x2="201.9" y2="46.5" stroke="rgb(0,0,0)"  stroke-width="1.0"/>
<line x1="178.6" y1="60.0" x2="178.6" y2="87.0" stroke="rgb(0,0,0)"  stroke-width="1.0"/>
<line x1="136.6" y1="116.7" x2="137.4" y2="115.3" stroke="rgb(0,0,0)"  stroke-width="1.0"/>
<line x1="130.7" y1="114.0" x2="132.2" y2="111.6" stroke="rgb(0,0,0)"  stroke-width="1.0"/>
<line x1="124.9" y1="111.4" x2="126.9" y2="107.8" stroke="rgb(0,0,0)"  stroke-width="1.0"/>
<line x1="119.0" y1="108.8" x2="121.7" y2="104.0" stroke="rgb(0,0,0)"  stroke-width="1.0"/>
<line x1="113.1" y1="106.1" x2="116.5" y2="100.3" stroke="rgb(0,0,0)"  stroke-width="1.0"/>
<line x1="107.3" y1="103.5" x2="111.3" y2="96.5" stroke="rgb(0,0,0)"  stroke-width="1.0"/>
<line x1="109.3" y1="100.0" x2="85.9" y2="113.5" stroke="rgb(0,0,0)"  stroke-width="1.0"/>
<line x1="74.6" y1="133.0" x2="74.6" y2="160.0" stroke="rgb(0,0,0)"  stroke-width="1.0"/>
<line x1="74.6" y1="280.0" x2="74.6" y2="240.0" stroke="rgb(0,0,0)"  stroke-width="1.0"/>
<line x1="271.2" y1="113.5" x2="247.8" y2="100.0" stroke="rgb(0,0,0)"  stroke-width="1.0"/>
<line x1="247.8" y1="100.0" x2="213.2" y2="120.0" stroke="rgb(0,0,0)"  stroke-width="1.0"/>
<line x1="213.2" y1="120.0" x2="213.2" y2="160.0" stroke="rgb(0,0,0)"  stroke-width="1.0"/>
<line x1="220.4" y1="126.0" x2="220.4" y2="154.0" stroke="rgb(0,0,0)"  stroke-width="1.0"/>
<line x1="213.2" y1="160.0" x2="236.6" y2="173.5" stroke="rgb(0,0,0)"  stroke-width="1.0"/>
<line x1="259.3" y1="173.4" x2="282.5" y2="160.0" stroke="rgb(0,0,0)"  stroke-width="1.0"/>
<line x1="257.4" y1="166.2" x2="273.7" y2="156.8" stroke="rgb(0,0,0)"  stroke-width="1.0"/>
<line x1="282.5" y1="160.0" x2="282.5" y2="133.0" stroke="rgb(0,0,0)"  stroke-width="1.0"/>
<line x1="143.9" y1="160.0" x2="167.3" y2="173.5" stroke="rgb(0,0,0)"  stroke-width="1.0"/>
<line x1="189.8" y1="173.5" x2="213.2" y2="160.0" stroke="rgb(0,0,0)"  stroke-width="1.0"/>
<line x1="213.2" y1="120.0" x2="189.8" y2="106.5" stroke="rgb(0,0,0)"  stroke-width="1.0"/>
<line x1="167.3" y1="106.5" x2="143.9" y2="120.0" stroke="rgb(0,0,0)"  stroke-width="1.0"/>
<line x1="143.9" y1="120.0" x2="143.9" y2="160.0" stroke="rgb(0,0,0)"  stroke-width="1.0"/>
<line x1="74.6" y1="240.0" x2="40.0" y2="220.0" stroke="rgb(0,0,0)"  stroke-width="1.0"/>
<line x1="73.0" y1="230.8" x2="48.8" y2="216.8" stroke="rgb(0,0,0)"  stroke-width="1.0"/>
<line x1="40.0" y1="220.0" x2="40.0" y2="180.0" stroke="rgb(0,0,0)"  stroke-width="1.0"/>
<line x1="40.0" y1="180.0" x2="74.6" y2="160.0" stroke="rgb(0,0,0)"  stroke-width="1.0"/>
<line x1="48.8" y1="183.2" x2="73.0" y2="169.2" stroke="rgb(0,0,0)"  stroke-width="1.0"/>
<line x1="74.6" y1="160.0" x2="109.3" y2="180.0" stroke="rgb(0,0,0)"  stroke-width="1.0"/>
<line x1="109.3" y1="180.0" x2="109.3" y2="220.0" stroke="rgb(0,0,0)"  stroke-width="1.0"/>
<line x1="102.1" y1="186.0" x2="102.1" y2="214.0" stroke="rgb(0,0,0)"  stroke-width="1.0"/>
<line x1="109.3" y1="220.0" x2="74.6" y2="240.0" stroke="rgb(0,0,0)"  stroke-width="1.0"/>
<text x="14.000000" y="308.000000" fill="rgb(12,12,255)"  stroke="rgb(12,12,255)" stroke-width="1" font-size="16" >H</text>
<text x="26.000000" y="311.680000" fill="rgb(12,12,255)"  stroke="rgb(12,12,255)" stroke-width="1" font-size="13" >2</text>
<text x="32.500000" y="308.000000" fill="rgb(12,12,255)"  stroke="rgb(12,12,255)" stroke-width="1" font-size="16" >N</text>
<text x="103.282032" y="308.000000" fill="rgb(255,12,12)"  stroke="rgb(255,12,12)" stroke-width="1" font-size="16" >O</text>
<text x="313.128129" y="188.000000" fill="rgb(12,12,255)"  stroke="rgb(12,12,255)" stroke-width="1" font-size="16" >NH</text>
<text x="337.128129" y="191.680000" fill="rgb(12,12,255)"  stroke="rgb(12,12,255)" stroke-width="1" font-size="13" >2</text>
<text x="241.846097" y="188.000000" fill="rgb(12,12,255)"  stroke="rgb(12,12,255)" stroke-width="1" font-size="16" >N</text>
<text x="276.487113" y="128.000000" fill="rgb(12,12,255)"  stroke="rgb(12,12,255)" stroke-width="1" font-size="16" >NH</text>
<text x="241.846097" y="68.000000" fill="rgb(255,12,12)"  stroke="rgb(255,12,12)" stroke-width="1" font-size="16" >O</text>
<text x="172.564065" y="108.000000" fill="rgb(12,12,255)"  stroke="rgb(12,12,255)" stroke-width="1" font-size="16" >N</text>
<text x="207.205081" y="48.000000" fill="rgb(255,12,12)"  stroke="rgb(255,12,12)" stroke-width="1" font-size="16" >OH</text>
<text x="172.564065" y="188.000000" fill="rgb(12,12,255)"  stroke="rgb(12,12,255)" stroke-width="1" font-size="16" >N</text>
<text x="172.564065" y="204.000000" fill="rgb(12,12,255)"  stroke="rgb(12,12,255)" stroke-width="1" font-size="16" >H</text>
<text x="56.641016" y="128.000000" fill="rgb(12,12,255)"  stroke="rgb(12,12,255)" stroke-width="1" font-size="16" >HN</text>
<text font-size="18.000000" fill ="black" font-family="sans-serif"
x="10.000000" y="20.000000" ></text>
<title> - OBDepict</title>
</svg>
