<?xml version="1.0"?>
<svg xmlns="http://www.w3.org/2000/svg"
xmlns:xlink="http://www.w3.org/1999/xlink" xmlns:cml="http://www.xml-cml.org/schema" width="537.676" height="360" x="0" y="0" font-family="sans-serif" stroke="rgb(0,0,0)" stroke-width="1"  stroke-linecap="round">
<rect x="0%" y="0%" width="100%" height="100%" stroke-width="0" fill="rgb(255,255,255)"  />
<line x1="148.2" y1="216.6" x2="149.0" y2="218.0" stroke="rgb(0,0,0)"  stroke-width="1.0"/>
<line x1="151.6" y1="213.9" x2="153.0" y2="216.4" stroke="rgb(0,0,0)"  stroke-width="1.0"/>
<line x1="155.0" y1="211.2" x2="157.0" y2="214.8" stroke="rgb(0,0,0)"  stroke-width="1.0"/>
<line x1="158.3" y1="208.5" x2="161.1" y2="213.2" stroke="rgb(0,0,0)"  stroke-width="1.0"/>
<line x1="161.7" y1="205.8" x2="165.1" y2="211.7" stroke="rgb(0,0,0)"  stroke-width="1.0"/>
<line x1="165.1" y1="203.1" x2="169.1" y2="210.1" stroke="rgb(0,0,0)"  stroke-width="1.0"/>
<line x1="179.4" y1="165.4" x2="177.8" y2="165.4" stroke="rgb(0,0,0)"  stroke-width="1.0"/>
<line x1="180.0" y1="169.6" x2="177.1" y2="169.6" stroke="rgb(0,0,0)"  stroke-width="1.0"/>
<line x1="180.6" y1="173.9" x2="176.5" y2="173.9" stroke="rgb(0,0,0)"  stroke-width="1.0"/>
<line x1="181.3" y1="178.2" x2="175.8" y2="178.2" stroke="rgb(0,0,0)"  stroke-width="1.0"/>
<line x1="181.9" y1="182.5" x2="175.2" y2="182.5" stroke="rgb(0,0,0)"  stroke-width="1.0"/>
<line x1="182.6" y1="186.8" x2="174.6" y2="186.8" stroke="rgb(0,0,0)"  stroke-width="1.0"/>
<line x1="149.0" y1="262.0" x2="148.2" y2="263.4" stroke="rgb(0,0,0)"  stroke-width="1.0"/>
<line x1="153.0" y1="263.6" x2="151.6" y2="266.1" stroke="rgb(0,0,0)"  stroke-width="1.0"/>
<line x1="157.0" y1="265.2" x2="155.0" y2="268.8" stroke="rgb(0,0,0)"  stroke-width="1.0"/>
<line x1="161.1" y1="266.8" x2="158.3" y2="271.5" stroke="rgb(0,0,0)"  stroke-width="1.0"/>
<line x1="165.1" y1="268.3" x2="161.7" y2="274.2" stroke="rgb(0,0,0)"  stroke-width="1.0"/>
<line x1="169.1" y1="269.9" x2="165.1" y2="276.9" stroke="rgb(0,0,0)"  stroke-width="1.0"/>
<polygon points="109.282032 280.000000 113.282032 306.800000 105.282032 306.800000 " stroke-width="1.000000" fill="rgb(0,0,0)"  stroke="rgb(0,0,0)" />
<line x1="70.4" y1="263.4" x2="69.6" y2="262.0" stroke="rgb(0,0,0)"  stroke-width="1.0"/>
<line x1="67.0" y1="266.1" x2="65.6" y2="263.6" stroke="rgb(0,0,0)"  stroke-width="1.0"/>
<line x1="63.6" y1="268.8" x2="61.5" y2="265.2" stroke="rgb(0,0,0)"  stroke-width="1.0"/>
<line x1="60.2" y1="271.5" x2="57.5" y2="266.8" stroke="rgb(0,0,0)"  stroke-width="1.0"/>
<line x1="56.8" y1="274.2" x2="53.5" y2="268.3" stroke="rgb(0,0,0)"  stroke-width="1.0"/>
<line x1="53.4" y1="276.9" x2="49.4" y2="269.9" stroke="rgb(0,0,0)"  stroke-width="1.0"/>
<polygon points="74.641016 220.000000 38.000000 203.464102 42.000000 196.535898 " stroke-width="1.000000" fill="rgb(0,0,0)"  stroke="rgb(0,0,0)" />
<line x1="40.0" y1="200.0" x2="40.0" y2="173.0" stroke="rgb(0,0,0)"  stroke-width="1.0"/>
<polygon points="178.564065 80.000000 174.564065 53.200000 182.564065 53.200000 " stroke-width="1.000000" fill="rgb(0,0,0)"  stroke="rgb(0,0,0)" />
<line x1="217.4" y1="96.6" x2="218.2" y2="98.0" stroke="rgb(0,0,0)"  stroke-width="1.0"/>
<line x1="220.8" y1="93.9" x2="222.3" y2="96.4" stroke="rgb(0,0,0)"  stroke-width="1.0"/>
<line x1="224.2" y1="91.2" x2="226.3" y2="94.8" stroke="rgb(0,0,0)"  stroke-width="1.0"/>
<line x1="227.6" y1="88.5" x2="230.3" y2="93.2" stroke="rgb(0,0,0)"  stroke-width="1.0"/>
<line x1="231.0" y1="85.8" x2="234.4" y2="91.7" stroke="rgb(0,0,0)"  stroke-width="1.0"/>
<line x1="234.4" y1="83.1" x2="238.4" y2="90.1" stroke="rgb(0,0,0)"  stroke-width="1.0"/>
<polygon points="213.205081 140.000000 238.414562 149.935898 234.414562 156.864102 " stroke-width="1.000000" fill="rgb(0,0,0)"  stroke="rgb(0,0,0)" />
<line x1="278.2" y1="143.4" x2="277.4" y2="142.0" stroke="rgb(0,0,0)"  stroke-width="1.0"/>
<line x1="274.9" y1="146.1" x2="273.4" y2="143.6" stroke="rgb(0,0,0)"  stroke-width="1.0"/>
<line x1="271.5" y1="148.8" x2="269.4" y2="145.2" stroke="rgb(0,0,0)"  stroke-width="1.0"/>
<line x1="268.1" y1="151.5" x2="265.3" y2="146.8" stroke="rgb(0,0,0)"  stroke-width="1.0"/>
<line x1="264.7" y1="154.2" x2="261.3" y2="148.3" stroke="rgb(0,0,0)"  stroke-width="1.0"/>
<line x1="261.3" y1="156.9" x2="257.3" y2="149.9" stroke="rgb(0,0,0)"  stroke-width="1.0"/>
<polygon points="143.923048 140.000000 122.713568 156.864102 118.713568 149.935898 " stroke-width="1.000000" fill="rgb(0,0,0)"  stroke="rgb(0,0,0)" />
<polygon points="319.028931 156.269466 328.513555 181.652175 320.688374 183.315468 " stroke-width="1.000000" fill="rgb(0,0,0)"  stroke="rgb(0,0,0)" />
<polygon points="345.794156 126.543673 372.865456 125.366948 372.029229 133.323123 " stroke-width="1.000000" fill="rgb(0,0,0)"  stroke="rgb(0,0,0)" />
<line x1="328.3" y1="84.3" x2="329.8" y2="84.9" stroke="rgb(0,0,0)"  stroke-width="1.0"/>
<line x1="330.3" y1="78.2" x2="333.0" y2="79.3" stroke="rgb(0,0,0)"  stroke-width="1.0"/>
<line x1="332.4" y1="72.1" x2="336.2" y2="73.7" stroke="rgb(0,0,0)"  stroke-width="1.0"/>
<line x1="334.4" y1="65.9" x2="339.3" y2="68.2" stroke="rgb(0,0,0)"  stroke-width="1.0"/>
<line x1="336.4" y1="59.8" x2="342.5" y2="62.6" stroke="rgb(0,0,0)"  stroke-width="1.0"/>
<line x1="338.4" y1="53.7" x2="345.7" y2="57.0" stroke="rgb(0,0,0)"  stroke-width="1.0"/>
<line x1="342.1" y1="55.4" x2="368.9" y2="52.5" stroke="rgb(0,0,0)"  stroke-width="1.0"/>
<line x1="437.3" y1="244.9" x2="435.8" y2="245.6" stroke="rgb(0,0,0)"  stroke-width="1.0"/>
<line x1="439.6" y1="248.6" x2="437.0" y2="249.7" stroke="rgb(0,0,0)"  stroke-width="1.0"/>
<line x1="442.0" y1="252.2" x2="438.2" y2="253.9" stroke="rgb(0,0,0)"  stroke-width="1.0"/>
<line x1="444.3" y1="255.9" x2="439.3" y2="258.1" stroke="rgb(0,0,0)"  stroke-width="1.0"/>
<line x1="446.6" y1="259.5" x2="440.5" y2="262.3" stroke="rgb(0,0,0)"  stroke-width="1.0"/>
<line x1="448.9" y1="263.2" x2="441.6" y2="266.5" stroke="rgb(0,0,0)"  stroke-width="1.0"/>
<polygon points="457.894839 207.989586 484.966139 206.812862 484.129912 214.769037 " stroke-width="1.000000" fill="rgb(0,0,0)"  stroke="rgb(0,0,0)" />
<line x1="444.1" y1="166.6" x2="445.4" y2="167.6" stroke="rgb(0,0,0)"  stroke-width="1.0"/>
<line x1="446.1" y1="162.8" x2="448.5" y2="164.5" stroke="rgb(0,0,0)"  stroke-width="1.0"/>
<line x1="448.1" y1="159.0" x2="451.5" y2="161.4" stroke="rgb(0,0,0)"  stroke-width="1.0"/>
<line x1="450.1" y1="155.1" x2="454.5" y2="158.3" stroke="rgb(0,0,0)"  stroke-width="1.0"/>
<line x1="452.1" y1="151.3" x2="457.6" y2="155.2" stroke="rgb(0,0,0)"  stroke-width="1.0"/>
<line x1="454.1" y1="147.4" x2="460.6" y2="152.1" stroke="rgb(0,0,0)"  stroke-width="1.0"/>
<line x1="398.9" y1="162.7" x2="400.4" y2="162.0" stroke="rgb(0,0,0)"  stroke-width="1.0"/>
<line x1="396.6" y1="159.0" x2="399.2" y2="157.9" stroke="rgb(0,0,0)"  stroke-width="1.0"/>
<line x1="394.3" y1="155.4" x2="398.1" y2="153.7" stroke="rgb(0,0,0)"  stroke-width="1.0"/>
<line x1="391.9" y1="151.7" x2="396.9" y2="149.5" stroke="rgb(0,0,0)"  stroke-width="1.0"/>
<line x1="389.6" y1="148.1" x2="395.8" y2="145.3" stroke="rgb(0,0,0)"  stroke-width="1.0"/>
<line x1="387.3" y1="144.4" x2="394.6" y2="141.2" stroke="rgb(0,0,0)"  stroke-width="1.0"/>
<line x1="390.5" y1="243.1" x2="389.3" y2="242.2" stroke="rgb(0,0,0)"  stroke-width="1.0"/>
<line x1="387.3" y1="248.7" x2="385.0" y2="247.0" stroke="rgb(0,0,0)"  stroke-width="1.0"/>
<line x1="384.1" y1="254.2" x2="380.7" y2="251.8" stroke="rgb(0,0,0)"  stroke-width="1.0"/>
<line x1="380.8" y1="259.8" x2="376.4" y2="256.6" stroke="rgb(0,0,0)"  stroke-width="1.0"/>
<line x1="377.6" y1="265.3" x2="372.1" y2="261.4" stroke="rgb(0,0,0)"  stroke-width="1.0"/>
<line x1="374.3" y1="270.9" x2="367.9" y2="266.2" stroke="rgb(0,0,0)"  stroke-width="1.0"/>
<line x1="371.1" y1="268.5" x2="382.1" y2="293.2" stroke="rgb(0,0,0)"  stroke-width="1.0"/>
<line x1="282.5" y1="140.0" x2="319.0" y2="156.3" stroke="rgb(0,0,0)"  stroke-width="1.0"/>
<line x1="319.0" y1="156.3" x2="345.8" y2="126.5" stroke="rgb(0,0,0)"  stroke-width="1.0"/>
<line x1="345.8" y1="126.5" x2="325.8" y2="91.9" stroke="rgb(0,0,0)"  stroke-width="1.0"/>
<line x1="325.8" y1="91.9" x2="299.4" y2="97.5" stroke="rgb(0,0,0)"  stroke-width="1.0"/>
<line x1="285.3" y1="113.1" x2="282.5" y2="140.0" stroke="rgb(0,0,0)"  stroke-width="1.0"/>
<line x1="143.9" y1="220.0" x2="143.9" y2="260.0" stroke="rgb(0,0,0)"  stroke-width="1.0"/>
<line x1="143.9" y1="260.0" x2="109.3" y2="280.0" stroke="rgb(0,0,0)"  stroke-width="1.0"/>
<line x1="109.3" y1="280.0" x2="74.6" y2="260.0" stroke="rgb(0,0,0)"  stroke-width="1.0"/>
<line x1="74.6" y1="260.0" x2="74.6" y2="220.0" stroke="rgb(0,0,0)"  stroke-width="1.0"/>
<line x1="74.6" y1="220.0" x2="98.0" y2="206.5" stroke="rgb(0,0,0)"  stroke-width="1.0"/>
<line x1="120.5" y1="206.5" x2="143.9" y2="220.0" stroke="rgb(0,0,0)"  stroke-width="1.0"/>
<line x1="213.2" y1="100.0" x2="178.6" y2="80.0" stroke="rgb(0,0,0)"  stroke-width="1.0"/>
<line x1="178.6" y1="80.0" x2="143.9" y2="100.0" stroke="rgb(0,0,0)"  stroke-width="1.0"/>
<line x1="143.9" y1="100.0" x2="143.9" y2="140.0" stroke="rgb(0,0,0)"  stroke-width="1.0"/>
<line x1="143.9" y1="140.0" x2="178.6" y2="160.0" stroke="rgb(0,0,0)"  stroke-width="1.0"/>
<line x1="178.6" y1="160.0" x2="213.2" y2="140.0" stroke="rgb(0,0,0)"  stroke-width="1.0"/>
<line x1="213.2" y1="140.0" x2="213.2" y2="100.0" stroke="rgb(0,0,0)"  stroke-width="1.0"/>
<line x1="457.9" y1="208.0" x2="434.4" y2="240.4" stroke="rgb(0,0,0)"  stroke-width="1.0"/>
<line x1="434.4" y1="240.4" x2="394.6" y2="236.2" stroke="rgb(0,0,0)"  stroke-width="1.0"/>
<line x1="394.6" y1="236.2" x2="383.6" y2="211.5" stroke="rgb(0,0,0)"  stroke-width="1.0"/>
<line x1="386.0" y1="189.1" x2="401.8" y2="167.3" stroke="rgb(0,0,0)"  stroke-width="1.0"/>
<line x1="401.8" y1="167.3" x2="441.6" y2="171.4" stroke="rgb(0,0,0)"  stroke-width="1.0"/>
<line x1="441.6" y1="171.4" x2="457.9" y2="208.0" stroke="rgb(0,0,0)"  stroke-width="1.0"/>
<text x="172.564065" y="208.000000" fill="rgb(255,12,12)"  stroke="rgb(255,12,12)" stroke-width="1" font-size="16" >O</text>
<text x="183.364065" y="275.968000" fill="rgb(12,12,255)"  stroke="rgb(12,12,255)" stroke-width="1" font-size="16" >+</text>
<text x="174.564065" y="288.000000" fill="rgb(12,12,255)"  stroke="rgb(12,12,255)" stroke-width="1" font-size="16" >NH</text>
<text x="198.564065" y="291.680000" fill="rgb(12,12,255)"  stroke="rgb(12,12,255)" stroke-width="1" font-size="13" >3</text>
<text x="103.282032" y="328.000000" fill="rgb(255,12,12)"  stroke="rgb(255,12,12)" stroke-width="1" font-size="16" >OH</text>
<text x="22.000000" y="288.000000" fill="rgb(255,12,12)"  stroke="rgb(255,12,12)" stroke-width="1" font-size="16" >HO</text>
<text x="103.282032" y="208.000000" fill="rgb(255,12,12)"  stroke="rgb(255,12,12)" stroke-width="1" font-size="16" >O</text>
<text x="183.364065" y="35.968000" fill="rgb(12,12,255)"  stroke="rgb(12,12,255)" stroke-width="1" font-size="16" >+</text>
<text x="174.564065" y="48.000000" fill="rgb(12,12,255)"  stroke="rgb(12,12,255)" stroke-width="1" font-size="16" >NH</text>
<text x="198.564065" y="51.680000" fill="rgb(12,12,255)"  stroke="rgb(12,12,255)" stroke-width="1" font-size="13" >3</text>
<text x="241.846097" y="168.000000" fill="rgb(255,12,12)"  stroke="rgb(255,12,12)" stroke-width="1" font-size="16" >O</text>
<text x="114.082032" y="155.968000" fill="rgb(12,12,255)"  stroke="rgb(12,12,255)" stroke-width="1" font-size="16" >+</text>
<text x="83.282032" y="168.000000" fill="rgb(12,12,255)"  stroke="rgb(12,12,255)" stroke-width="1" font-size="16" >H</text>
<text x="95.282032" y="171.680000" fill="rgb(12,12,255)"  stroke="rgb(12,12,255)" stroke-width="1" font-size="13" >3</text>
<text x="101.782032" y="168.000000" fill="rgb(12,12,255)"  stroke="rgb(12,12,255)" stroke-width="1" font-size="16" >N</text>
<text x="280.668252" y="108.219124" fill="rgb(255,12,12)"  stroke="rgb(255,12,12)" stroke-width="1" font-size="16" >O</text>
<text x="379.575031" y="138.724811" fill="rgb(255,12,12)"  stroke="rgb(255,12,12)" stroke-width="1" font-size="16" >O</text>
<text x="372.333087" y="207.627309" fill="rgb(255,12,12)"  stroke="rgb(255,12,12)" stroke-width="1" font-size="16" >O</text>
<text x="44.800000" y="155.968000" fill="rgb(12,12,255)"  stroke="rgb(12,12,255)" stroke-width="1" font-size="16" >+</text>
<text x="36.000000" y="168.000000" fill="rgb(12,12,255)"  stroke="rgb(12,12,255)" stroke-width="1" font-size="16" >NH</text>
<text x="60.000000" y="171.680000" fill="rgb(12,12,255)"  stroke="rgb(12,12,255)" stroke-width="1" font-size="13" >3</text>
<text x="321.345399" y="203.395370" fill="rgb(255,12,12)"  stroke="rgb(255,12,12)" stroke-width="1" font-size="16" >OH</text>
<text x="491.675715" y="220.170725" fill="rgb(255,12,12)"  stroke="rgb(255,12,12)" stroke-width="1" font-size="16" >OH</text>
<text x="444.652894" y="284.892084" fill="rgb(255,12,12)"  stroke="rgb(255,12,12)" stroke-width="1" font-size="16" >OH</text>
<text x="375.844497" y="59.179700" fill="rgb(255,12,12)"  stroke="rgb(255,12,12)" stroke-width="1" font-size="16" >OH</text>
<text x="241.846097" y="88.000000" fill="rgb(255,12,12)"  stroke="rgb(255,12,12)" stroke-width="1" font-size="16" >OH</text>
<text x="392.160608" y="301.039626" fill="rgb(12,12,255)"  stroke="rgb(12,12,255)" stroke-width="1" font-size="16" >+</text>
<text x="383.360608" y="313.071626" fill="rgb(12,12,255)"  stroke="rgb(12,12,255)" stroke-width="1" font-size="16" >NH</text>
<text x="407.360608" y="316.751626" fill="rgb(12,12,255)"  stroke="rgb(12,12,255)" stroke-width="1" font-size="13" >3</text>
<text x="469.036783" y="135.811088" fill="rgb(12,12,255)"  stroke="rgb(12,12,255)" stroke-width="1" font-size="13" >+</text>
<text x="461.136783" y="147.087088" fill="rgb(12,12,255)"  stroke="rgb(12,12,255)" stroke-width="1" font-size="16" >NH</text>
<text x="485.136783" y="150.767088" fill="rgb(12,12,255)"  stroke="rgb(12,12,255)" stroke-width="1" font-size="13" >3</text>
<text font-size="18.000000" fill ="black" font-family="sans-serif"
x="10.000000" y="20.000000" ></text>
<title> - OBDepict</title>
</svg>
