<?xml version="1.0"?>
<svg xmlns="http://www.w3.org/2000/svg"
xmlns:xlink="http://www.w3.org/1999/xlink" xmlns:cml="http://www.xml-cml.org/schema" width="461.051" height="320" x="0" y="0" font-family="sans-serif" stroke="rgb(0,0,0)" stroke-width="1"  stroke-linecap="round">
<rect x="0%" y="0%" width="100%" height="100%" stroke-width="0" fill="rgb(255,255,255)"  />
<line x1="149.0" y1="222.0" x2="148.2" y2="223.4" stroke="rgb(0,0,0)"  stroke-width="1.0"/>
<line x1="153.0" y1="223.6" x2="151.6" y2="226.1" stroke="rgb(0,0,0)"  stroke-width="1.0"/>
<line x1="157.0" y1="225.2" x2="155.0" y2="228.8" stroke="rgb(0,0,0)"  stroke-width="1.0"/>
<line x1="161.1" y1="226.8" x2="158.3" y2="231.5" stroke="rgb(0,0,0)"  stroke-width="1.0"/>
<line x1="165.1" y1="228.3" x2="161.7" y2="234.2" stroke="rgb(0,0,0)"  stroke-width="1.0"/>
<line x1="169.1" y1="229.9" x2="165.1" y2="236.9" stroke="rgb(0,0,0)"  stroke-width="1.0"/>
<line x1="110.1" y1="245.4" x2="108.5" y2="245.4" stroke="rgb(0,0,0)"  stroke-width="1.0"/>
<line x1="110.7" y1="249.6" x2="107.8" y2="249.6" stroke="rgb(0,0,0)"  stroke-width="1.0"/>
<line x1="111.4" y1="253.9" x2="107.2" y2="253.9" stroke="rgb(0,0,0)"  stroke-width="1.0"/>
<line x1="112.0" y1="258.2" x2="106.6" y2="258.2" stroke="rgb(0,0,0)"  stroke-width="1.0"/>
<line x1="112.6" y1="262.5" x2="105.9" y2="262.5" stroke="rgb(0,0,0)"  stroke-width="1.0"/>
<line x1="113.3" y1="266.8" x2="105.3" y2="266.8" stroke="rgb(0,0,0)"  stroke-width="1.0"/>
<polygon points="74.641016 220.000000 53.431535 236.864102 49.431535 229.935898 " stroke-width="1.000000" fill="rgb(0,0,0)"  stroke="rgb(0,0,0)" />
<line x1="69.6" y1="178.0" x2="70.4" y2="176.6" stroke="rgb(0,0,0)"  stroke-width="1.0"/>
<line x1="65.6" y1="176.4" x2="67.0" y2="173.9" stroke="rgb(0,0,0)"  stroke-width="1.0"/>
<line x1="61.5" y1="174.8" x2="63.6" y2="171.2" stroke="rgb(0,0,0)"  stroke-width="1.0"/>
<line x1="57.5" y1="173.2" x2="60.2" y2="168.5" stroke="rgb(0,0,0)"  stroke-width="1.0"/>
<line x1="53.5" y1="171.7" x2="56.8" y2="165.8" stroke="rgb(0,0,0)"  stroke-width="1.0"/>
<line x1="49.4" y1="170.1" x2="53.4" y2="163.1" stroke="rgb(0,0,0)"  stroke-width="1.0"/>
<polygon points="109.282032 160.000000 105.282032 120.000000 113.282032 120.000000 " stroke-width="1.000000" fill="rgb(0,0,0)"  stroke="rgb(0,0,0)" />
<line x1="109.3" y1="120.0" x2="132.7" y2="106.5" stroke="rgb(0,0,0)"  stroke-width="1.0"/>
<polygon points="247.846097 240.000000 251.846097 266.800000 243.846097 266.800000 " stroke-width="1.000000" fill="rgb(0,0,0)"  stroke="rgb(0,0,0)" />
<polygon points="282.487113 180.000000 303.696594 163.135898 307.696594 170.064102 " stroke-width="1.000000" fill="rgb(0,0,0)"  stroke="rgb(0,0,0)" />
<line x1="247.0" y1="154.6" x2="248.6" y2="154.6" stroke="rgb(0,0,0)"  stroke-width="1.0"/>
<line x1="246.4" y1="150.4" x2="249.3" y2="150.4" stroke="rgb(0,0,0)"  stroke-width="1.0"/>
<line x1="245.8" y1="146.1" x2="249.9" y2="146.1" stroke="rgb(0,0,0)"  stroke-width="1.0"/>
<line x1="245.1" y1="141.8" x2="250.6" y2="141.8" stroke="rgb(0,0,0)"  stroke-width="1.0"/>
<line x1="244.5" y1="137.5" x2="251.2" y2="137.5" stroke="rgb(0,0,0)"  stroke-width="1.0"/>
<line x1="243.8" y1="133.2" x2="251.8" y2="133.2" stroke="rgb(0,0,0)"  stroke-width="1.0"/>
<polygon points="213.205081 180.000000 187.995600 170.064102 191.995600 163.135898 " stroke-width="1.000000" fill="rgb(0,0,0)"  stroke="rgb(0,0,0)" />
<line x1="209.0" y1="223.4" x2="208.2" y2="222.0" stroke="rgb(0,0,0)"  stroke-width="1.0"/>
<line x1="205.6" y1="226.1" x2="204.1" y2="223.6" stroke="rgb(0,0,0)"  stroke-width="1.0"/>
<line x1="202.2" y1="228.8" x2="200.1" y2="225.2" stroke="rgb(0,0,0)"  stroke-width="1.0"/>
<line x1="198.8" y1="231.5" x2="196.1" y2="226.8" stroke="rgb(0,0,0)"  stroke-width="1.0"/>
<line x1="195.4" y1="234.2" x2="192.0" y2="228.3" stroke="rgb(0,0,0)"  stroke-width="1.0"/>
<line x1="192.0" y1="236.9" x2="188.0" y2="229.9" stroke="rgb(0,0,0)"  stroke-width="1.0"/>
<line x1="278.2" y1="103.4" x2="277.4" y2="102.0" stroke="rgb(0,0,0)"  stroke-width="1.0"/>
<line x1="274.9" y1="106.1" x2="273.4" y2="103.6" stroke="rgb(0,0,0)"  stroke-width="1.0"/>
<line x1="271.5" y1="108.8" x2="269.4" y2="105.2" stroke="rgb(0,0,0)"  stroke-width="1.0"/>
<line x1="268.1" y1="111.5" x2="265.3" y2="106.8" stroke="rgb(0,0,0)"  stroke-width="1.0"/>
<line x1="264.7" y1="114.2" x2="261.3" y2="108.3" stroke="rgb(0,0,0)"  stroke-width="1.0"/>
<line x1="261.3" y1="116.9" x2="257.3" y2="109.9" stroke="rgb(0,0,0)"  stroke-width="1.0"/>
<line x1="277.4" y1="58.0" x2="278.2" y2="56.6" stroke="rgb(0,0,0)"  stroke-width="1.0"/>
<line x1="273.4" y1="56.4" x2="274.9" y2="53.9" stroke="rgb(0,0,0)"  stroke-width="1.0"/>
<line x1="269.4" y1="54.8" x2="271.5" y2="51.2" stroke="rgb(0,0,0)"  stroke-width="1.0"/>
<line x1="265.3" y1="53.2" x2="268.1" y2="48.5" stroke="rgb(0,0,0)"  stroke-width="1.0"/>
<line x1="261.3" y1="51.7" x2="264.7" y2="45.8" stroke="rgb(0,0,0)"  stroke-width="1.0"/>
<line x1="257.3" y1="50.1" x2="261.3" y2="43.1" stroke="rgb(0,0,0)"  stroke-width="1.0"/>
<line x1="356.0" y1="56.6" x2="356.8" y2="58.0" stroke="rgb(0,0,0)"  stroke-width="1.0"/>
<line x1="359.4" y1="53.9" x2="360.8" y2="56.4" stroke="rgb(0,0,0)"  stroke-width="1.0"/>
<line x1="362.8" y1="51.2" x2="364.9" y2="54.8" stroke="rgb(0,0,0)"  stroke-width="1.0"/>
<line x1="366.2" y1="48.5" x2="368.9" y2="53.2" stroke="rgb(0,0,0)"  stroke-width="1.0"/>
<line x1="369.6" y1="45.8" x2="372.9" y2="51.7" stroke="rgb(0,0,0)"  stroke-width="1.0"/>
<line x1="373.0" y1="43.1" x2="377.0" y2="50.1" stroke="rgb(0,0,0)"  stroke-width="1.0"/>
<polygon points="351.769145 100.000000 388.410162 116.535898 384.410162 123.464102 " stroke-width="1.000000" fill="rgb(0,0,0)"  stroke="rgb(0,0,0)" />
<line x1="386.4" y1="120.0" x2="409.8" y2="106.5" stroke="rgb(0,0,0)"  stroke-width="1.0"/>
<line x1="143.9" y1="220.0" x2="109.3" y2="240.0" stroke="rgb(0,0,0)"  stroke-width="1.0"/>
<line x1="109.3" y1="240.0" x2="74.6" y2="220.0" stroke="rgb(0,0,0)"  stroke-width="1.0"/>
<line x1="74.6" y1="220.0" x2="74.6" y2="180.0" stroke="rgb(0,0,0)"  stroke-width="1.0"/>
<line x1="74.6" y1="180.0" x2="109.3" y2="160.0" stroke="rgb(0,0,0)"  stroke-width="1.0"/>
<line x1="109.3" y1="160.0" x2="132.7" y2="173.5" stroke="rgb(0,0,0)"  stroke-width="1.0"/>
<line x1="143.9" y1="193.0" x2="143.9" y2="220.0" stroke="rgb(0,0,0)"  stroke-width="1.0"/>
<line x1="247.8" y1="240.0" x2="282.5" y2="220.0" stroke="rgb(0,0,0)"  stroke-width="1.0"/>
<line x1="282.5" y1="220.0" x2="282.5" y2="180.0" stroke="rgb(0,0,0)"  stroke-width="1.0"/>
<line x1="282.5" y1="180.0" x2="247.8" y2="160.0" stroke="rgb(0,0,0)"  stroke-width="1.0"/>
<line x1="247.8" y1="160.0" x2="213.2" y2="180.0" stroke="rgb(0,0,0)"  stroke-width="1.0"/>
<line x1="213.2" y1="180.0" x2="213.2" y2="220.0" stroke="rgb(0,0,0)"  stroke-width="1.0"/>
<line x1="213.2" y1="220.0" x2="247.8" y2="240.0" stroke="rgb(0,0,0)"  stroke-width="1.0"/>
<line x1="282.5" y1="100.0" x2="282.5" y2="60.0" stroke="rgb(0,0,0)"  stroke-width="1.0"/>
<line x1="282.5" y1="60.0" x2="317.1" y2="40.0" stroke="rgb(0,0,0)"  stroke-width="1.0"/>
<line x1="317.1" y1="40.0" x2="351.8" y2="60.0" stroke="rgb(0,0,0)"  stroke-width="1.0"/>
<line x1="351.8" y1="60.0" x2="351.8" y2="100.0" stroke="rgb(0,0,0)"  stroke-width="1.0"/>
<line x1="351.8" y1="100.0" x2="328.4" y2="113.5" stroke="rgb(0,0,0)"  stroke-width="1.0"/>
<line x1="305.9" y1="113.5" x2="282.5" y2="100.0" stroke="rgb(0,0,0)"  stroke-width="1.0"/>
<text x="103.282032" y="288.000000" fill="rgb(255,12,12)"  stroke="rgb(255,12,12)" stroke-width="1" font-size="16" >OH</text>
<text x="44.800000" y="235.968000" fill="rgb(12,12,255)"  stroke="rgb(12,12,255)" stroke-width="1" font-size="16" >+</text>
<text x="14.000000" y="248.000000" fill="rgb(12,12,255)"  stroke="rgb(12,12,255)" stroke-width="1" font-size="16" >H</text>
<text x="26.000000" y="251.680000" fill="rgb(12,12,255)"  stroke="rgb(12,12,255)" stroke-width="1" font-size="13" >3</text>
<text x="32.500000" y="248.000000" fill="rgb(12,12,255)"  stroke="rgb(12,12,255)" stroke-width="1" font-size="16" >N</text>
<text x="22.000000" y="168.000000" fill="rgb(255,12,12)"  stroke="rgb(255,12,12)" stroke-width="1" font-size="16" >HO</text>
<text x="137.923048" y="188.000000" fill="rgb(255,12,12)"  stroke="rgb(255,12,12)" stroke-width="1" font-size="16" >O</text>
<text x="137.923048" y="108.000000" fill="rgb(255,12,12)"  stroke="rgb(255,12,12)" stroke-width="1" font-size="16" >OH</text>
<text x="252.646097" y="275.968000" fill="rgb(12,12,255)"  stroke="rgb(12,12,255)" stroke-width="1" font-size="16" >+</text>
<text x="243.846097" y="288.000000" fill="rgb(12,12,255)"  stroke="rgb(12,12,255)" stroke-width="1" font-size="16" >NH</text>
<text x="267.846097" y="291.680000" fill="rgb(12,12,255)"  stroke="rgb(12,12,255)" stroke-width="1" font-size="13" >3</text>
<text x="321.028129" y="156.724000" fill="rgb(12,12,255)"  stroke="rgb(12,12,255)" stroke-width="1" font-size="13" >+</text>
<text x="313.128129" y="168.000000" fill="rgb(12,12,255)"  stroke="rgb(12,12,255)" stroke-width="1" font-size="16" >NH</text>
<text x="337.128129" y="171.680000" fill="rgb(12,12,255)"  stroke="rgb(12,12,255)" stroke-width="1" font-size="13" >3</text>
<text x="160.564065" y="168.000000" fill="rgb(255,12,12)"  stroke="rgb(255,12,12)" stroke-width="1" font-size="16" >HO</text>
<text x="241.846097" y="128.000000" fill="rgb(255,12,12)"  stroke="rgb(255,12,12)" stroke-width="1" font-size="16" >O</text>
<text x="172.564065" y="248.000000" fill="rgb(255,12,12)"  stroke="rgb(255,12,12)" stroke-width="1" font-size="16" >O</text>
<text x="252.646097" y="35.968000" fill="rgb(12,12,255)"  stroke="rgb(12,12,255)" stroke-width="1" font-size="16" >+</text>
<text x="221.846097" y="48.000000" fill="rgb(12,12,255)"  stroke="rgb(12,12,255)" stroke-width="1" font-size="16" >H</text>
<text x="233.846097" y="51.680000" fill="rgb(12,12,255)"  stroke="rgb(12,12,255)" stroke-width="1" font-size="13" >3</text>
<text x="240.346097" y="48.000000" fill="rgb(12,12,255)"  stroke="rgb(12,12,255)" stroke-width="1" font-size="16" >N</text>
<text x="425.851178" y="95.968000" fill="rgb(12,12,255)"  stroke="rgb(12,12,255)" stroke-width="1" font-size="16" >+</text>
<text x="417.051178" y="108.000000" fill="rgb(12,12,255)"  stroke="rgb(12,12,255)" stroke-width="1" font-size="16" >NH</text>
<text x="441.051178" y="111.680000" fill="rgb(12,12,255)"  stroke="rgb(12,12,255)" stroke-width="1" font-size="13" >3</text>
<text x="380.410162" y="48.000000" fill="rgb(255,12,12)"  stroke="rgb(255,12,12)" stroke-width="1" font-size="16" >OH</text>
<text x="311.128129" y="128.000000" fill="rgb(255,12,12)"  stroke="rgb(255,12,12)" stroke-width="1" font-size="16" >O</text>
<text font-size="18.000000" fill ="black" font-family="sans-serif"
x="10.000000" y="20.000000" >2tob cryst</text>
<title>2tob cryst - OBDepict</title>
</svg>
