<?xml version="1.0"?>
<svg xmlns="http://www.w3.org/2000/svg"
xmlns:xlink="http://www.w3.org/1999/xlink" xmlns:cml="http://www.xml-cml.org/schema" width="441.282" height="327.772" x="0" y="0" font-family="sans-serif" stroke="rgb(0,0,0)" stroke-width="1"  stroke-linecap="round">
<rect x="0%" y="0%" width="100%" height="100%" stroke-width="0" fill="rgb(255,255,255)"  />
<line x1="282.3" y1="159.0" x2="257.3" y2="144.5" stroke="rgb(0,0,0)"  stroke-width="1.0"/>
<line x1="145.6" y1="81.8" x2="145.6" y2="53.0" stroke="rgb(0,0,0)"  stroke-width="1.0"/>
<line x1="151.6" y1="81.8" x2="151.6" y2="53.0" stroke="rgb(0,0,0)"  stroke-width="1.0"/>
<line x1="76.2" y1="81.8" x2="51.3" y2="96.2" stroke="rgb(0,0,0)"  stroke-width="1.0"/>
<line x1="73.2" y1="81.8" x2="73.2" y2="53.0" stroke="rgb(0,0,0)"  stroke-width="1.0"/>
<line x1="79.2" y1="81.8" x2="79.2" y2="53.0" stroke="rgb(0,0,0)"  stroke-width="1.0"/>
<line x1="104.8" y1="99.2" x2="105.6" y2="97.9" stroke="rgb(0,0,0)"  stroke-width="1.0"/>
<line x1="98.7" y1="96.4" x2="100.1" y2="94.0" stroke="rgb(0,0,0)"  stroke-width="1.0"/>
<line x1="92.6" y1="93.7" x2="94.6" y2="90.1" stroke="rgb(0,0,0)"  stroke-width="1.0"/>
<line x1="86.4" y1="90.9" x2="89.2" y2="86.2" stroke="rgb(0,0,0)"  stroke-width="1.0"/>
<line x1="80.3" y1="88.1" x2="83.7" y2="82.3" stroke="rgb(0,0,0)"  stroke-width="1.0"/>
<line x1="74.2" y1="85.3" x2="78.2" y2="78.4" stroke="rgb(0,0,0)"  stroke-width="1.0"/>
<line x1="282.3" y1="88.3" x2="257.3" y2="102.7" stroke="rgb(0,0,0)"  stroke-width="1.0"/>
<line x1="236.4" y1="214.8" x2="224.1" y2="205.0" stroke="rgb(0,0,0)"  stroke-width="1.0"/>
<line x1="365.2" y1="178.1" x2="365.3" y2="179.7" stroke="rgb(0,0,0)"  stroke-width="1.0"/>
<line x1="369.6" y1="177.0" x2="369.9" y2="179.9" stroke="rgb(0,0,0)"  stroke-width="1.0"/>
<line x1="374.0" y1="175.9" x2="374.4" y2="180.1" stroke="rgb(0,0,0)"  stroke-width="1.0"/>
<line x1="378.4" y1="174.8" x2="378.9" y2="180.2" stroke="rgb(0,0,0)"  stroke-width="1.0"/>
<line x1="382.7" y1="173.7" x2="383.5" y2="180.4" stroke="rgb(0,0,0)"  stroke-width="1.0"/>
<line x1="387.1" y1="172.6" x2="388.0" y2="180.6" stroke="rgb(0,0,0)"  stroke-width="1.0"/>
<polygon points="338.783881 215.737592 353.834049 239.706450 346.525686 242.960343 " stroke-width="1.000000" fill="rgb(0,0,0)"  stroke="rgb(0,0,0)" />
<line x1="338.9" y1="277.3" x2="348.2" y2="264.5" stroke="rgb(0,0,0)"  stroke-width="1.0"/>
<line x1="384.5" y1="257.0" x2="368.7" y2="255.3" stroke="rgb(0,0,0)"  stroke-width="1.0"/>
<line x1="151.5" y1="178.1" x2="155.8" y2="196.9" stroke="rgb(0,0,0)"  stroke-width="1.0"/>
<line x1="155.8" y1="196.9" x2="122.3" y2="202.6" stroke="rgb(0,0,0)"  stroke-width="1.0"/>
<line x1="148.7" y1="190.8" x2="127.0" y2="194.5" stroke="rgb(0,0,0)"  stroke-width="1.0"/>
<line x1="122.3" y1="202.6" x2="108.9" y2="186.4" stroke="rgb(0,0,0)"  stroke-width="1.0"/>
<line x1="104.5" y1="165.9" x2="112.4" y2="144.5" stroke="rgb(0,0,0)"  stroke-width="1.0"/>
<line x1="112.2" y1="166.0" x2="117.1" y2="152.7" stroke="rgb(0,0,0)"  stroke-width="1.0"/>
<line x1="112.4" y1="144.5" x2="137.4" y2="159.0" stroke="rgb(0,0,0)"  stroke-width="1.0"/>
<line x1="294.9" y1="178.4" x2="297.9" y2="207.0" stroke="rgb(0,0,0)"  stroke-width="1.0"/>
<line x1="297.9" y1="207.0" x2="338.8" y2="215.7" stroke="rgb(0,0,0)"  stroke-width="1.0"/>
<line x1="338.8" y1="215.7" x2="359.7" y2="179.5" stroke="rgb(0,0,0)"  stroke-width="1.0"/>
<line x1="359.7" y1="179.5" x2="331.7" y2="148.4" stroke="rgb(0,0,0)"  stroke-width="1.0"/>
<line x1="331.7" y1="148.4" x2="305.4" y2="160.2" stroke="rgb(0,0,0)"  stroke-width="1.0"/>
<line x1="257.3" y1="144.5" x2="257.3" y2="102.7" stroke="rgb(0,0,0)"  stroke-width="1.0"/>
<line x1="257.3" y1="102.7" x2="221.1" y2="81.8" stroke="rgb(0,0,0)"  stroke-width="1.0"/>
<line x1="248.5" y1="106.0" x2="222.7" y2="91.1" stroke="rgb(0,0,0)"  stroke-width="1.0"/>
<line x1="221.1" y1="81.8" x2="184.9" y2="102.7" stroke="rgb(0,0,0)"  stroke-width="1.0"/>
<line x1="184.9" y1="102.7" x2="184.9" y2="144.5" stroke="rgb(0,0,0)"  stroke-width="1.0"/>
<line x1="192.1" y1="108.7" x2="192.1" y2="138.5" stroke="rgb(0,0,0)"  stroke-width="1.0"/>
<line x1="184.9" y1="144.5" x2="221.1" y2="165.5" stroke="rgb(0,0,0)"  stroke-width="1.0"/>
<line x1="221.1" y1="165.5" x2="257.3" y2="144.5" stroke="rgb(0,0,0)"  stroke-width="1.0"/>
<line x1="222.7" y1="156.2" x2="248.5" y2="141.3" stroke="rgb(0,0,0)"  stroke-width="1.0"/>
<line x1="148.6" y1="81.8" x2="112.4" y2="102.7" stroke="rgb(0,0,0)"  stroke-width="1.0"/>
<line x1="112.4" y1="102.7" x2="112.4" y2="144.5" stroke="rgb(0,0,0)"  stroke-width="1.0"/>
<line x1="159.9" y1="159.0" x2="184.9" y2="144.5" stroke="rgb(0,0,0)"  stroke-width="1.0"/>
<line x1="184.9" y1="102.7" x2="148.6" y2="81.8" stroke="rgb(0,0,0)"  stroke-width="1.0"/>
<line x1="184.9" y1="210.9" x2="202.2" y2="202.5" stroke="rgb(0,0,0)"  stroke-width="1.0"/>
<line x1="216.8" y1="184.2" x2="221.1" y2="165.5" stroke="rgb(0,0,0)"  stroke-width="1.0"/>
<line x1="155.8" y1="196.9" x2="184.9" y2="210.9" stroke="rgb(0,0,0)"  stroke-width="1.0"/>
<text x="287.508476" y="173.454160" fill="rgb(12,12,255)"  stroke="rgb(12,12,255)" stroke-width="1" font-size="16" >N</text>
<text x="142.646490" y="173.454160" fill="rgb(12,12,255)"  stroke="rgb(12,12,255)" stroke-width="1" font-size="16" >N</text>
<text x="70.215497" y="48.000000" fill="rgb(255,12,12)"  stroke="rgb(255,12,12)" stroke-width="1" font-size="16" >O</text>
<text x="22.000000" y="110.727080" fill="rgb(255,12,12)"  stroke="rgb(255,12,12)" stroke-width="1" font-size="16" >HO</text>
<text x="142.646490" y="48.000000" fill="rgb(255,12,12)"  stroke="rgb(255,12,12)" stroke-width="1" font-size="16" >O</text>
<text x="94.616094" y="184.416785" fill="rgb(178,178,0)"  stroke="rgb(178,178,0)" stroke-width="1" font-size="16" >S</text>
<text x="287.508476" y="89.818053" fill="rgb(127,178,255)"  stroke="rgb(127,178,255)" stroke-width="1" font-size="16" >F</text>
<text x="207.904560" y="204.880790" fill="rgb(12,12,255)"  stroke="rgb(12,12,255)" stroke-width="1" font-size="16" >N</text>
<text x="242.599230" y="230.953920" fill="rgb(102,102,102)"  stroke="rgb(102,102,102)" stroke-width="1" font-size="16" >CH</text>
<text x="266.599230" y="234.633920" fill="rgb(102,102,102)"  stroke="rgb(102,102,102)" stroke-width="1" font-size="13" >3</text>
<text x="395.281878" y="183.150919" fill="rgb(255,12,12)"  stroke="rgb(255,12,12)" stroke-width="1" font-size="16" >OH</text>
<text x="349.792816" y="261.940285" fill="rgb(12,12,255)"  stroke="rgb(12,12,255)" stroke-width="1" font-size="16" >N</text>
<text x="305.212781" y="295.771801" fill="rgb(102,102,102)"  stroke="rgb(102,102,102)" stroke-width="1" font-size="16" >H</text>
<text x="317.212781" y="299.451801" fill="rgb(102,102,102)"  stroke="rgb(102,102,102)" stroke-width="1" font-size="13" >3</text>
<text x="323.712781" y="295.771801" fill="rgb(102,102,102)"  stroke="rgb(102,102,102)" stroke-width="1" font-size="16" >C</text>
<text x="393.381786" y="266.311462" fill="rgb(102,102,102)"  stroke="rgb(102,102,102)" stroke-width="1" font-size="16" >CH</text>
<text x="417.381786" y="269.991462" fill="rgb(102,102,102)"  stroke="rgb(102,102,102)" stroke-width="1" font-size="13" >3</text>
<text font-size="18.000000" fill ="black" font-family="sans-serif"
x="10.000000" y="20.000000" ></text>
<title> - OBDepict</title>
</svg>
