<?xml version="1.0"?>
<svg xmlns="http://www.w3.org/2000/svg"
xmlns:xlink="http://www.w3.org/1999/xlink" xmlns:cml="http://www.xml-cml.org/schema" width="420" height="293.205" x="0" y="0" font-family="sans-serif" stroke="rgb(0,0,0)" stroke-width="1"  stroke-linecap="round">
<rect x="0%" y="0%" width="100%" height="100%" stroke-width="0" fill="rgb(255,255,255)"  />
<line x1="46.5" y1="51.3" x2="60.0" y2="74.6" stroke="rgb(0,0,0)"  stroke-width="1.0"/>
<line x1="240.0" y1="247.8" x2="280.0" y2="247.8" stroke="rgb(0,0,0)"  stroke-width="1.0"/>
<line x1="280.0" y1="247.8" x2="293.5" y2="224.5" stroke="rgb(0,0,0)"  stroke-width="1.0"/>
<line x1="324.1" y1="214.0" x2="324.1" y2="212.4" stroke="rgb(0,0,0)"  stroke-width="1.0"/>
<line x1="321.9" y1="214.6" x2="321.9" y2="211.8" stroke="rgb(0,0,0)"  stroke-width="1.0"/>
<line x1="319.7" y1="215.3" x2="319.7" y2="211.1" stroke="rgb(0,0,0)"  stroke-width="1.0"/>
<line x1="317.6" y1="215.9" x2="317.6" y2="210.5" stroke="rgb(0,0,0)"  stroke-width="1.0"/>
<line x1="315.4" y1="216.6" x2="315.4" y2="209.8" stroke="rgb(0,0,0)"  stroke-width="1.0"/>
<line x1="313.2" y1="217.2" x2="313.2" y2="209.2" stroke="rgb(0,0,0)"  stroke-width="1.0"/>
<line x1="340.0" y1="226.2" x2="340.0" y2="240.2" stroke="rgb(0,0,0)"  stroke-width="1.0"/>
<line x1="353.0" y1="210.2" x2="367.0" y2="210.2" stroke="rgb(0,0,0)"  stroke-width="1.0"/>
<line x1="353.0" y1="216.2" x2="367.0" y2="216.2" stroke="rgb(0,0,0)"  stroke-width="1.0"/>
<line x1="340.0" y1="200.2" x2="340.0" y2="186.2" stroke="rgb(0,0,0)"  stroke-width="1.0"/>
<line x1="355.9" y1="132.4" x2="355.9" y2="134.0" stroke="rgb(0,0,0)"  stroke-width="1.0"/>
<line x1="358.1" y1="131.8" x2="358.1" y2="134.6" stroke="rgb(0,0,0)"  stroke-width="1.0"/>
<line x1="360.3" y1="131.1" x2="360.3" y2="135.3" stroke="rgb(0,0,0)"  stroke-width="1.0"/>
<line x1="362.4" y1="130.5" x2="362.4" y2="135.9" stroke="rgb(0,0,0)"  stroke-width="1.0"/>
<line x1="364.6" y1="129.8" x2="364.6" y2="136.6" stroke="rgb(0,0,0)"  stroke-width="1.0"/>
<line x1="366.8" y1="129.2" x2="366.8" y2="137.2" stroke="rgb(0,0,0)"  stroke-width="1.0"/>
<line x1="340.0" y1="120.2" x2="340.0" y2="106.2" stroke="rgb(0,0,0)"  stroke-width="1.0"/>
<line x1="327.0" y1="136.2" x2="313.0" y2="136.2" stroke="rgb(0,0,0)"  stroke-width="1.0"/>
<line x1="327.0" y1="130.2" x2="313.0" y2="130.2" stroke="rgb(0,0,0)"  stroke-width="1.0"/>
<line x1="340.0" y1="146.2" x2="340.0" y2="160.2" stroke="rgb(0,0,0)"  stroke-width="1.0"/>
<polygon points="180.000000 213.205081 170.064102 238.414562 163.135898 234.414562 " stroke-width="1.000000" fill="rgb(0,0,0)"  stroke="rgb(0,0,0)" />
<line x1="60.0" y1="143.9" x2="46.5" y2="167.3" stroke="rgb(0,0,0)"  stroke-width="1.0"/>
<polygon points="220.000000 213.205081 243.464102 245.846097 236.535898 249.846097 " stroke-width="1.000000" fill="rgb(0,0,0)"  stroke="rgb(0,0,0)" />
<line x1="100.0" y1="143.9" x2="120.0" y2="178.6" stroke="rgb(0,0,0)"  stroke-width="1.0"/>
<line x1="147.0" y1="178.6" x2="120.0" y2="178.6" stroke="rgb(0,0,0)"  stroke-width="1.0"/>
<line x1="87.0" y1="74.6" x2="60.0" y2="74.6" stroke="rgb(0,0,0)"  stroke-width="1.0"/>
<line x1="60.0" y1="74.6" x2="46.6" y2="97.9" stroke="rgb(0,0,0)"  stroke-width="1.0"/>
<line x1="63.2" y1="83.4" x2="53.8" y2="99.7" stroke="rgb(0,0,0)"  stroke-width="1.0"/>
<line x1="46.5" y1="120.5" x2="60.0" y2="143.9" stroke="rgb(0,0,0)"  stroke-width="1.0"/>
<line x1="60.0" y1="143.9" x2="100.0" y2="143.9" stroke="rgb(0,0,0)"  stroke-width="1.0"/>
<line x1="66.0" y1="136.7" x2="94.0" y2="136.7" stroke="rgb(0,0,0)"  stroke-width="1.0"/>
<line x1="100.0" y1="143.9" x2="120.0" y2="109.3" stroke="rgb(0,0,0)"  stroke-width="1.0"/>
<line x1="120.0" y1="109.3" x2="106.6" y2="86.1" stroke="rgb(0,0,0)"  stroke-width="1.0"/>
<line x1="110.8" y1="107.7" x2="101.4" y2="91.4" stroke="rgb(0,0,0)"  stroke-width="1.0"/>
<line x1="220.0" y1="143.9" x2="180.0" y2="143.9" stroke="rgb(0,0,0)"  stroke-width="1.0"/>
<line x1="180.0" y1="143.9" x2="166.5" y2="167.3" stroke="rgb(0,0,0)"  stroke-width="1.0"/>
<line x1="166.5" y1="189.8" x2="180.0" y2="213.2" stroke="rgb(0,0,0)"  stroke-width="1.0"/>
<line x1="180.0" y1="213.2" x2="220.0" y2="213.2" stroke="rgb(0,0,0)"  stroke-width="1.0"/>
<line x1="220.0" y1="213.2" x2="240.0" y2="178.6" stroke="rgb(0,0,0)"  stroke-width="1.0"/>
<line x1="240.0" y1="178.6" x2="220.0" y2="143.9" stroke="rgb(0,0,0)"  stroke-width="1.0"/>
<text x="14.000000" y="48.000000" fill="rgb(102,102,102)"  stroke="rgb(102,102,102)" stroke-width="1" font-size="16" >H</text>
<text x="26.000000" y="51.680000" fill="rgb(102,102,102)"  stroke="rgb(102,102,102)" stroke-width="1" font-size="13" >3</text>
<text x="32.500000" y="48.000000" fill="rgb(102,102,102)"  stroke="rgb(102,102,102)" stroke-width="1" font-size="16" >C</text>
<text x="134.000000" y="255.846097" fill="rgb(102,102,102)"  stroke="rgb(102,102,102)" stroke-width="1" font-size="16" >H</text>
<text x="146.000000" y="259.526097" fill="rgb(102,102,102)"  stroke="rgb(102,102,102)" stroke-width="1" font-size="13" >3</text>
<text x="152.500000" y="255.846097" fill="rgb(102,102,102)"  stroke="rgb(102,102,102)" stroke-width="1" font-size="16" >C</text>
<text x="294.000000" y="221.205081" fill="rgb(255,12,12)"  stroke="rgb(255,12,12)" stroke-width="1" font-size="16" >O</text>
<text x="334.000000" y="221.205081" fill="rgb(255,127,0)"  stroke="rgb(255,127,0)" stroke-width="1" font-size="16" >P</text>
<text x="334.000000" y="141.205081" fill="rgb(255,127,0)"  stroke="rgb(255,127,0)" stroke-width="1" font-size="16" >P</text>
<text x="94.000000" y="82.641016" fill="rgb(12,12,255)"  stroke="rgb(12,12,255)" stroke-width="1" font-size="16" >N</text>
<text x="344.800000" y="249.173081" fill="rgb(255,12,12)"  stroke="rgb(255,12,12)" stroke-width="1" font-size="32" >-</text>
<text x="334.000000" y="261.205081" fill="rgb(255,12,12)"  stroke="rgb(255,12,12)" stroke-width="1" font-size="16" >O</text>
<text x="374.000000" y="141.205081" fill="rgb(255,12,12)"  stroke="rgb(255,12,12)" stroke-width="1" font-size="16" >OH</text>
<text x="374.000000" y="221.205081" fill="rgb(255,12,12)"  stroke="rgb(255,12,12)" stroke-width="1" font-size="16" >O</text>
<text x="344.800000" y="89.173081" fill="rgb(255,12,12)"  stroke="rgb(255,12,12)" stroke-width="1" font-size="32" >-</text>
<text x="334.000000" y="101.205081" fill="rgb(255,12,12)"  stroke="rgb(255,12,12)" stroke-width="1" font-size="16" >O</text>
<text x="154.000000" y="186.564065" fill="rgb(12,12,255)"  stroke="rgb(12,12,255)" stroke-width="1" font-size="16" >N</text>
<text x="34.000000" y="117.282032" fill="rgb(12,12,255)"  stroke="rgb(12,12,255)" stroke-width="1" font-size="16" >N</text>
<text x="334.000000" y="181.205081" fill="rgb(255,12,12)"  stroke="rgb(255,12,12)" stroke-width="1" font-size="16" >O</text>
<text x="294.000000" y="141.205081" fill="rgb(255,12,12)"  stroke="rgb(255,12,12)" stroke-width="1" font-size="16" >O</text>
<text x="14.000000" y="186.564065" fill="rgb(12,12,255)"  stroke="rgb(12,12,255)" stroke-width="1" font-size="16" >H</text>
<text x="26.000000" y="190.244065" fill="rgb(12,12,255)"  stroke="rgb(12,12,255)" stroke-width="1" font-size="13" >2</text>
<text x="32.500000" y="186.564065" fill="rgb(12,12,255)"  stroke="rgb(12,12,255)" stroke-width="1" font-size="16" >N</text>
<text font-size="18.000000" fill ="black" font-family="sans-serif"
x="10.000000" y="20.000000" ></text>
<title> - OBDepict</title>
</svg>
