<?xml version="1.0"?>
<svg xmlns="http://www.w3.org/2000/svg"
xmlns:xlink="http://www.w3.org/1999/xlink" xmlns:cml="http://www.xml-cml.org/schema" width="391.769" height="360" x="0" y="0" font-family="sans-serif" stroke="rgb(0,0,0)" stroke-width="1"  stroke-linecap="round">
<rect x="0%" y="0%" width="100%" height="100%" stroke-width="0" fill="rgb(255,255,255)"  />
<line x1="143.9" y1="260.0" x2="120.5" y2="273.5" stroke="rgb(0,0,0)"  stroke-width="1.0"/>
<line x1="171.2" y1="276.7" x2="172.0" y2="275.3" stroke="rgb(0,0,0)"  stroke-width="1.0"/>
<line x1="165.4" y1="274.0" x2="166.8" y2="271.6" stroke="rgb(0,0,0)"  stroke-width="1.0"/>
<line x1="159.5" y1="271.4" x2="161.6" y2="267.8" stroke="rgb(0,0,0)"  stroke-width="1.0"/>
<line x1="153.6" y1="268.8" x2="156.4" y2="264.0" stroke="rgb(0,0,0)"  stroke-width="1.0"/>
<line x1="147.8" y1="266.1" x2="151.1" y2="260.3" stroke="rgb(0,0,0)"  stroke-width="1.0"/>
<line x1="141.9" y1="263.5" x2="145.9" y2="256.5" stroke="rgb(0,0,0)"  stroke-width="1.0"/>
<line x1="178.6" y1="280.0" x2="178.6" y2="307.0" stroke="rgb(0,0,0)"  stroke-width="1.0"/>
<line x1="178.6" y1="280.0" x2="213.2" y2="260.0" stroke="rgb(0,0,0)"  stroke-width="1.0"/>
<line x1="218.2" y1="262.0" x2="217.4" y2="263.4" stroke="rgb(0,0,0)"  stroke-width="1.0"/>
<line x1="222.3" y1="263.6" x2="220.8" y2="266.1" stroke="rgb(0,0,0)"  stroke-width="1.0"/>
<line x1="226.3" y1="265.2" x2="224.2" y2="268.8" stroke="rgb(0,0,0)"  stroke-width="1.0"/>
<line x1="230.3" y1="266.8" x2="227.6" y2="271.5" stroke="rgb(0,0,0)"  stroke-width="1.0"/>
<line x1="234.4" y1="268.3" x2="231.0" y2="274.2" stroke="rgb(0,0,0)"  stroke-width="1.0"/>
<line x1="238.4" y1="269.9" x2="234.4" y2="276.9" stroke="rgb(0,0,0)"  stroke-width="1.0"/>
<line x1="213.2" y1="260.0" x2="213.2" y2="220.0" stroke="rgb(0,0,0)"  stroke-width="1.0"/>
<line x1="217.4" y1="216.6" x2="218.2" y2="218.0" stroke="rgb(0,0,0)"  stroke-width="1.0"/>
<line x1="220.8" y1="213.9" x2="222.3" y2="216.4" stroke="rgb(0,0,0)"  stroke-width="1.0"/>
<line x1="224.2" y1="211.2" x2="226.3" y2="214.8" stroke="rgb(0,0,0)"  stroke-width="1.0"/>
<line x1="227.6" y1="208.5" x2="230.3" y2="213.2" stroke="rgb(0,0,0)"  stroke-width="1.0"/>
<line x1="231.0" y1="205.8" x2="234.4" y2="211.7" stroke="rgb(0,0,0)"  stroke-width="1.0"/>
<line x1="234.4" y1="203.1" x2="238.4" y2="210.1" stroke="rgb(0,0,0)"  stroke-width="1.0"/>
<line x1="213.2" y1="220.0" x2="178.6" y2="200.0" stroke="rgb(0,0,0)"  stroke-width="1.0"/>
<line x1="76.1" y1="142.6" x2="52.8" y2="156.1" stroke="rgb(0,0,0)"  stroke-width="1.0"/>
<line x1="73.1" y1="137.4" x2="49.8" y2="150.9" stroke="rgb(0,0,0)"  stroke-width="1.0"/>
<polygon points="143.923048 100.000000 107.282032 83.464102 111.282032 76.535898 " stroke-width="1.000000" fill="rgb(0,0,0)"  stroke="rgb(0,0,0)" />
<line x1="106.3" y1="80.0" x2="106.3" y2="53.0" stroke="rgb(0,0,0)"  stroke-width="1.0"/>
<line x1="112.3" y1="80.0" x2="112.3" y2="53.0" stroke="rgb(0,0,0)"  stroke-width="1.0"/>
<polygon points="213.205081 100.000000 245.846097 76.535898 249.846097 83.464102 " stroke-width="1.000000" fill="rgb(0,0,0)"  stroke="rgb(0,0,0)" />
<line x1="286.7" y1="96.6" x2="287.5" y2="98.0" stroke="rgb(0,0,0)"  stroke-width="1.0"/>
<line x1="290.1" y1="93.9" x2="291.6" y2="96.4" stroke="rgb(0,0,0)"  stroke-width="1.0"/>
<line x1="293.5" y1="91.2" x2="295.6" y2="94.8" stroke="rgb(0,0,0)"  stroke-width="1.0"/>
<line x1="296.9" y1="88.5" x2="299.6" y2="93.2" stroke="rgb(0,0,0)"  stroke-width="1.0"/>
<line x1="300.3" y1="85.8" x2="303.7" y2="91.7" stroke="rgb(0,0,0)"  stroke-width="1.0"/>
<line x1="303.7" y1="83.1" x2="307.7" y2="90.1" stroke="rgb(0,0,0)"  stroke-width="1.0"/>
<line x1="287.5" y1="142.0" x2="286.7" y2="143.4" stroke="rgb(0,0,0)"  stroke-width="1.0"/>
<line x1="291.6" y1="143.6" x2="290.1" y2="146.1" stroke="rgb(0,0,0)"  stroke-width="1.0"/>
<line x1="295.6" y1="145.2" x2="293.5" y2="148.8" stroke="rgb(0,0,0)"  stroke-width="1.0"/>
<line x1="299.6" y1="146.8" x2="296.9" y2="151.5" stroke="rgb(0,0,0)"  stroke-width="1.0"/>
<line x1="303.7" y1="148.3" x2="300.3" y2="154.2" stroke="rgb(0,0,0)"  stroke-width="1.0"/>
<line x1="307.7" y1="149.9" x2="303.7" y2="156.9" stroke="rgb(0,0,0)"  stroke-width="1.0"/>
<line x1="317.1" y1="173.0" x2="317.1" y2="187.0" stroke="rgb(0,0,0)"  stroke-width="1.0"/>
<line x1="328.4" y1="153.5" x2="340.5" y2="146.5" stroke="rgb(0,0,0)"  stroke-width="1.0"/>
<line x1="220.5" y1="143.3" x2="219.7" y2="144.7" stroke="rgb(0,0,0)"  stroke-width="1.0"/>
<line x1="226.4" y1="146.0" x2="225.0" y2="148.4" stroke="rgb(0,0,0)"  stroke-width="1.0"/>
<line x1="232.3" y1="148.6" x2="230.2" y2="152.2" stroke="rgb(0,0,0)"  stroke-width="1.0"/>
<line x1="238.1" y1="151.2" x2="235.4" y2="156.0" stroke="rgb(0,0,0)"  stroke-width="1.0"/>
<line x1="244.0" y1="153.9" x2="240.6" y2="159.7" stroke="rgb(0,0,0)"  stroke-width="1.0"/>
<line x1="249.8" y1="156.5" x2="245.8" y2="163.5" stroke="rgb(0,0,0)"  stroke-width="1.0"/>
<line x1="139.7" y1="143.4" x2="138.9" y2="142.0" stroke="rgb(0,0,0)"  stroke-width="1.0"/>
<line x1="136.3" y1="146.1" x2="134.8" y2="143.6" stroke="rgb(0,0,0)"  stroke-width="1.0"/>
<line x1="132.9" y1="148.8" x2="130.8" y2="145.2" stroke="rgb(0,0,0)"  stroke-width="1.0"/>
<line x1="129.5" y1="151.5" x2="126.8" y2="146.8" stroke="rgb(0,0,0)"  stroke-width="1.0"/>
<line x1="126.1" y1="154.2" x2="122.7" y2="148.3" stroke="rgb(0,0,0)"  stroke-width="1.0"/>
<line x1="122.7" y1="156.9" x2="118.7" y2="149.9" stroke="rgb(0,0,0)"  stroke-width="1.0"/>
<line x1="178.6" y1="200.0" x2="178.6" y2="173.0" stroke="rgb(0,0,0)"  stroke-width="1.0"/>
<line x1="98.0" y1="153.5" x2="74.6" y2="140.0" stroke="rgb(0,0,0)"  stroke-width="1.0"/>
<line x1="74.6" y1="140.0" x2="74.6" y2="113.0" stroke="rgb(0,0,0)"  stroke-width="1.0"/>
<line x1="85.9" y1="93.5" x2="109.3" y2="80.0" stroke="rgb(0,0,0)"  stroke-width="1.0"/>
<line x1="109.3" y1="80.0" x2="143.9" y2="100.0" stroke="rgb(0,0,0)"  stroke-width="1.0"/>
<line x1="143.9" y1="100.0" x2="143.9" y2="140.0" stroke="rgb(0,0,0)"  stroke-width="1.0"/>
<line x1="143.9" y1="140.0" x2="120.5" y2="153.5" stroke="rgb(0,0,0)"  stroke-width="1.0"/>
<line x1="282.5" y1="140.0" x2="247.8" y2="160.0" stroke="rgb(0,0,0)"  stroke-width="1.0"/>
<line x1="247.8" y1="160.0" x2="213.2" y2="140.0" stroke="rgb(0,0,0)"  stroke-width="1.0"/>
<line x1="213.2" y1="140.0" x2="213.2" y2="100.0" stroke="rgb(0,0,0)"  stroke-width="1.0"/>
<line x1="213.2" y1="100.0" x2="247.8" y2="80.0" stroke="rgb(0,0,0)"  stroke-width="1.0"/>
<line x1="247.8" y1="80.0" x2="282.5" y2="100.0" stroke="rgb(0,0,0)"  stroke-width="1.0"/>
<line x1="282.5" y1="100.0" x2="282.5" y2="140.0" stroke="rgb(0,0,0)"  stroke-width="1.0"/>
<line x1="213.2" y1="140.0" x2="189.8" y2="153.5" stroke="rgb(0,0,0)"  stroke-width="1.0"/>
<line x1="167.3" y1="153.5" x2="143.9" y2="140.0" stroke="rgb(0,0,0)"  stroke-width="1.0"/>
<line x1="143.9" y1="100.0" x2="167.3" y2="86.5" stroke="rgb(0,0,0)"  stroke-width="1.0"/>
<line x1="189.8" y1="86.5" x2="213.2" y2="100.0" stroke="rgb(0,0,0)"  stroke-width="1.0"/>
<text x="91.282032" y="288.000000" fill="rgb(255,12,12)"  stroke="rgb(255,12,12)" stroke-width="1" font-size="16" >HO</text>
<text x="172.564065" y="328.000000" fill="rgb(255,12,12)"  stroke="rgb(255,12,12)" stroke-width="1" font-size="16" >OH</text>
<text x="241.846097" y="288.000000" fill="rgb(255,12,12)"  stroke="rgb(255,12,12)" stroke-width="1" font-size="16" >OH</text>
<text x="241.846097" y="208.000000" fill="rgb(255,12,12)"  stroke="rgb(255,12,12)" stroke-width="1" font-size="16" >OH</text>
<text x="103.282032" y="168.000000" fill="rgb(12,12,255)"  stroke="rgb(12,12,255)" stroke-width="1" font-size="16" >N</text>
<text x="103.282032" y="184.000000" fill="rgb(12,12,255)"  stroke="rgb(12,12,255)" stroke-width="1" font-size="16" >H</text>
<text x="34.000000" y="168.000000" fill="rgb(255,12,12)"  stroke="rgb(255,12,12)" stroke-width="1" font-size="16" >O</text>
<text x="56.641016" y="108.000000" fill="rgb(12,12,255)"  stroke="rgb(12,12,255)" stroke-width="1" font-size="16" >HN</text>
<text x="103.282032" y="48.000000" fill="rgb(255,12,12)"  stroke="rgb(255,12,12)" stroke-width="1" font-size="16" >O</text>
<text x="172.564065" y="88.000000" fill="rgb(12,12,255)"  stroke="rgb(12,12,255)" stroke-width="1" font-size="16" >N</text>
<text x="172.564065" y="72.000000" fill="rgb(12,12,255)"  stroke="rgb(12,12,255)" stroke-width="1" font-size="16" >H</text>
<text x="313.128129" y="88.000000" fill="rgb(102,102,102)"  stroke="rgb(102,102,102)" stroke-width="1" font-size="16" >CH</text>
<text x="337.128129" y="91.680000" fill="rgb(102,102,102)"  stroke="rgb(102,102,102)" stroke-width="1" font-size="13" >3</text>
<text x="311.128129" y="168.000000" fill="rgb(12,12,255)"  stroke="rgb(12,12,255)" stroke-width="1" font-size="16" >N</text>
<text x="172.564065" y="168.000000" fill="rgb(12,12,255)"  stroke="rgb(12,12,255)" stroke-width="1" font-size="16" >N</text>
<text x="313.128129" y="208.000000" fill="rgb(102,102,102)"  stroke="rgb(102,102,102)" stroke-width="1" font-size="16" >CH</text>
<text x="337.128129" y="211.680000" fill="rgb(102,102,102)"  stroke="rgb(102,102,102)" stroke-width="1" font-size="13" >3</text>
<text x="347.769145" y="148.000000" fill="rgb(102,102,102)"  stroke="rgb(102,102,102)" stroke-width="1" font-size="16" >CH</text>
<text x="371.769145" y="151.680000" fill="rgb(102,102,102)"  stroke="rgb(102,102,102)" stroke-width="1" font-size="13" >3</text>
<text font-size="18.000000" fill ="black" font-family="sans-serif"
x="10.000000" y="20.000000" ></text>
<title> - OBDepict</title>
</svg>
