<?xml version="1.0"?>
<svg xmlns="http://www.w3.org/2000/svg"
xmlns:xlink="http://www.w3.org/1999/xlink" xmlns:cml="http://www.xml-cml.org/schema" width="500" height="293.205" x="0" y="0" font-family="sans-serif" stroke="rgb(0,0,0)" stroke-width="1"  stroke-linecap="round">
<rect x="0%" y="0%" width="100%" height="100%" stroke-width="0" fill="rgb(255,255,255)"  />
<line x1="160.0" y1="109.3" x2="120.0" y2="109.3" stroke="rgb(0,0,0)"  stroke-width="1.0"/>
<line x1="157.4" y1="107.8" x2="170.9" y2="84.4" stroke="rgb(0,0,0)"  stroke-width="1.0"/>
<line x1="162.6" y1="110.8" x2="176.1" y2="87.4" stroke="rgb(0,0,0)"  stroke-width="1.0"/>
<line x1="447.0" y1="143.9" x2="420.0" y2="143.9" stroke="rgb(0,0,0)"  stroke-width="1.0"/>
<polygon points="340.000000 200.005081 336.000000 186.405081 344.000000 186.405081 " stroke-width="1.000000" fill="rgb(0,0,0)"  stroke="rgb(0,0,0)" />
<line x1="353.0" y1="213.2" x2="367.0" y2="213.2" stroke="rgb(0,0,0)"  stroke-width="1.0"/>
<line x1="343.0" y1="226.2" x2="343.0" y2="240.2" stroke="rgb(0,0,0)"  stroke-width="1.0"/>
<line x1="337.0" y1="226.2" x2="337.0" y2="240.2" stroke="rgb(0,0,0)"  stroke-width="1.0"/>
<line x1="160.0" y1="109.3" x2="173.5" y2="132.7" stroke="rgb(0,0,0)"  stroke-width="1.0"/>
<polygon points="220.000000 143.923048 193.200000 147.923048 193.200000 139.923048 " stroke-width="1.000000" fill="rgb(0,0,0)"  stroke="rgb(0,0,0)" />
<line x1="300.0" y1="74.6" x2="286.5" y2="51.3" stroke="rgb(0,0,0)"  stroke-width="1.0"/>
<line x1="300.0" y1="74.6" x2="286.5" y2="98.0" stroke="rgb(0,0,0)"  stroke-width="1.0"/>
<line x1="245.4" y1="108.5" x2="245.4" y2="110.1" stroke="rgb(0,0,0)"  stroke-width="1.0"/>
<line x1="249.6" y1="107.8" x2="249.6" y2="110.7" stroke="rgb(0,0,0)"  stroke-width="1.0"/>
<line x1="253.9" y1="107.2" x2="253.9" y2="111.4" stroke="rgb(0,0,0)"  stroke-width="1.0"/>
<line x1="258.2" y1="106.6" x2="258.2" y2="112.0" stroke="rgb(0,0,0)"  stroke-width="1.0"/>
<line x1="262.5" y1="105.9" x2="262.5" y2="112.6" stroke="rgb(0,0,0)"  stroke-width="1.0"/>
<line x1="266.8" y1="105.3" x2="266.8" y2="113.3" stroke="rgb(0,0,0)"  stroke-width="1.0"/>
<line x1="286.5" y1="120.5" x2="300.0" y2="143.9" stroke="rgb(0,0,0)"  stroke-width="1.0"/>
<line x1="226.5" y1="85.9" x2="240.0" y2="109.3" stroke="rgb(0,0,0)"  stroke-width="1.0"/>
<line x1="360.0" y1="109.3" x2="346.5" y2="85.9" stroke="rgb(0,0,0)"  stroke-width="1.0"/>
<line x1="240.0" y1="109.3" x2="220.0" y2="143.9" stroke="rgb(0,0,0)"  stroke-width="1.0"/>
<line x1="220.0" y1="143.9" x2="240.0" y2="178.6" stroke="rgb(0,0,0)"  stroke-width="1.0"/>
<line x1="340.0" y1="143.9" x2="300.0" y2="143.9" stroke="rgb(0,0,0)"  stroke-width="1.0"/>
<line x1="240.0" y1="178.6" x2="280.0" y2="178.6" stroke="rgb(0,0,0)"  stroke-width="1.0"/>
<line x1="280.0" y1="178.6" x2="293.5" y2="201.9" stroke="rgb(0,0,0)"  stroke-width="1.0"/>
<line x1="327.0" y1="213.2" x2="313.0" y2="213.2" stroke="rgb(0,0,0)"  stroke-width="1.0"/>
<line x1="120.0" y1="109.3" x2="100.0" y2="74.6" stroke="rgb(0,0,0)"  stroke-width="1.0"/>
<line x1="110.8" y1="107.7" x2="96.8" y2="83.4" stroke="rgb(0,0,0)"  stroke-width="1.0"/>
<line x1="100.0" y1="74.6" x2="60.0" y2="74.6" stroke="rgb(0,0,0)"  stroke-width="1.0"/>
<line x1="60.0" y1="74.6" x2="40.0" y2="109.3" stroke="rgb(0,0,0)"  stroke-width="1.0"/>
<line x1="63.2" y1="83.4" x2="49.2" y2="107.7" stroke="rgb(0,0,0)"  stroke-width="1.0"/>
<line x1="40.0" y1="109.3" x2="60.0" y2="143.9" stroke="rgb(0,0,0)"  stroke-width="1.0"/>
<line x1="60.0" y1="143.9" x2="100.0" y2="143.9" stroke="rgb(0,0,0)"  stroke-width="1.0"/>
<line x1="66.0" y1="136.7" x2="94.0" y2="136.7" stroke="rgb(0,0,0)"  stroke-width="1.0"/>
<line x1="100.0" y1="143.9" x2="120.0" y2="109.3" stroke="rgb(0,0,0)"  stroke-width="1.0"/>
<line x1="386.8" y1="109.3" x2="360.0" y2="109.3" stroke="rgb(0,0,0)"  stroke-width="1.0"/>
<line x1="384.8" y1="116.5" x2="366.0" y2="116.5" stroke="rgb(0,0,0)"  stroke-width="1.0"/>
<line x1="360.0" y1="109.3" x2="340.0" y2="143.9" stroke="rgb(0,0,0)"  stroke-width="1.0"/>
<line x1="340.0" y1="143.9" x2="360.0" y2="178.6" stroke="rgb(0,0,0)"  stroke-width="1.0"/>
<line x1="349.2" y1="145.5" x2="363.2" y2="169.8" stroke="rgb(0,0,0)"  stroke-width="1.0"/>
<line x1="360.0" y1="178.6" x2="387.0" y2="178.6" stroke="rgb(0,0,0)"  stroke-width="1.0"/>
<line x1="406.6" y1="167.1" x2="420.0" y2="143.9" stroke="rgb(0,0,0)"  stroke-width="1.0"/>
<line x1="401.4" y1="161.8" x2="410.8" y2="145.5" stroke="rgb(0,0,0)"  stroke-width="1.0"/>
<line x1="420.0" y1="143.9" x2="406.5" y2="120.5" stroke="rgb(0,0,0)"  stroke-width="1.0"/>
<text x="174.000000" y="82.641016" fill="rgb(255,12,12)"  stroke="rgb(255,12,12)" stroke-width="1" font-size="16" >O</text>
<text x="456.000000" y="151.923048" fill="rgb(102,102,102)"  stroke="rgb(102,102,102)" stroke-width="1" font-size="16" >CH</text>
<text x="480.000000" y="155.603048" fill="rgb(102,102,102)"  stroke="rgb(102,102,102)" stroke-width="1" font-size="13" >3</text>
<text x="194.000000" y="82.641016" fill="rgb(102,102,102)"  stroke="rgb(102,102,102)" stroke-width="1" font-size="16" >H</text>
<text x="206.000000" y="86.321016" fill="rgb(102,102,102)"  stroke="rgb(102,102,102)" stroke-width="1" font-size="13" >3</text>
<text x="212.500000" y="82.641016" fill="rgb(102,102,102)"  stroke="rgb(102,102,102)" stroke-width="1" font-size="16" >C</text>
<text x="334.000000" y="221.205081" fill="rgb(255,127,0)"  stroke="rgb(255,127,0)" stroke-width="1" font-size="16" >P</text>
<text x="394.000000" y="186.564065" fill="rgb(12,12,255)"  stroke="rgb(12,12,255)" stroke-width="1" font-size="16" >N</text>
<text x="334.000000" y="181.205081" fill="rgb(255,12,12)"  stroke="rgb(255,12,12)" stroke-width="1" font-size="16" >OH</text>
<text x="174.000000" y="151.923048" fill="rgb(178,178,0)"  stroke="rgb(178,178,0)" stroke-width="1" font-size="16" >S</text>
<text x="384.800000" y="209.173081" fill="rgb(255,12,12)"  stroke="rgb(255,12,12)" stroke-width="1" font-size="32" >-</text>
<text x="374.000000" y="221.205081" fill="rgb(255,12,12)"  stroke="rgb(255,12,12)" stroke-width="1" font-size="16" >O</text>
<text x="274.000000" y="117.282032" fill="rgb(12,12,255)"  stroke="rgb(12,12,255)" stroke-width="1" font-size="16" >N</text>
<text x="394.000000" y="117.282032" fill="rgb(12,12,255)"  stroke="rgb(12,12,255)" stroke-width="1" font-size="16" >N</text>
<text x="334.000000" y="261.205081" fill="rgb(255,12,12)"  stroke="rgb(255,12,12)" stroke-width="1" font-size="16" >O</text>
<text x="314.000000" y="82.641016" fill="rgb(12,12,255)"  stroke="rgb(12,12,255)" stroke-width="1" font-size="16" >H</text>
<text x="326.000000" y="86.321016" fill="rgb(12,12,255)"  stroke="rgb(12,12,255)" stroke-width="1" font-size="13" >2</text>
<text x="332.500000" y="82.641016" fill="rgb(12,12,255)"  stroke="rgb(12,12,255)" stroke-width="1" font-size="16" >N</text>
<text x="262.000000" y="48.000000" fill="rgb(255,12,12)"  stroke="rgb(255,12,12)" stroke-width="1" font-size="16" >HO</text>
<text x="294.000000" y="221.205081" fill="rgb(255,12,12)"  stroke="rgb(255,12,12)" stroke-width="1" font-size="16" >O</text>
<text font-size="18.000000" fill ="black" font-family="sans-serif"
x="10.000000" y="20.000000" ></text>
<title> - OBDepict</title>
</svg>
