<?xml version="1.0"?>
<svg xmlns="http://www.w3.org/2000/svg"
xmlns:xlink="http://www.w3.org/1999/xlink" xmlns:cml="http://www.xml-cml.org/schema" width="350.292" height="292.37" x="0" y="0" font-family="sans-serif" stroke="rgb(0,0,0)" stroke-width="1"  stroke-linecap="round">
<rect x="0%" y="0%" width="100%" height="100%" stroke-width="0" fill="rgb(255,255,255)"  />
<polygon points="143.493 192.589 169.603 199.835 166.349 207.144 " stroke-width="1" fill="rgb(0,0,0)"  stroke="rgb(0,0,0)" />
<polygon points="95.3954 149.282 71.9313 116.641 78.8595 112.641 " stroke-width="1" fill="rgb(0,0,0)"  stroke="rgb(0,0,0)" />
<line x1="136.2" y1="95.9" x2="134.6" y2="95.9" stroke="rgb(0,0,0)"  stroke-width="1.0"/>
<line x1="136.8" y1="98.1" x2="134.0" y2="98.1" stroke="rgb(0,0,0)"  stroke-width="1.0"/>
<line x1="137.5" y1="100.3" x2="133.3" y2="100.3" stroke="rgb(0,0,0)"  stroke-width="1.0"/>
<line x1="138.1" y1="102.4" x2="132.7" y2="102.4" stroke="rgb(0,0,0)"  stroke-width="1.0"/>
<line x1="138.8" y1="104.6" x2="132.0" y2="104.6" stroke="rgb(0,0,0)"  stroke-width="1.0"/>
<line x1="139.4" y1="106.8" x2="131.4" y2="106.8" stroke="rgb(0,0,0)"  stroke-width="1.0"/>
<line x1="148.4" y1="80.0" x2="162.4" y2="80.0" stroke="rgb(0,0,0)"  stroke-width="1.0"/>
<line x1="132.4" y1="67.0" x2="132.4" y2="53.0" stroke="rgb(0,0,0)"  stroke-width="1.0"/>
<line x1="138.4" y1="67.0" x2="138.4" y2="53.0" stroke="rgb(0,0,0)"  stroke-width="1.0"/>
<line x1="109.1" y1="218.0" x2="107.5" y2="217.8" stroke="rgb(0,0,0)"  stroke-width="1.0"/>
<line x1="109.3" y1="222.3" x2="106.4" y2="222.0" stroke="rgb(0,0,0)"  stroke-width="1.0"/>
<line x1="109.5" y1="226.7" x2="105.3" y2="226.2" stroke="rgb(0,0,0)"  stroke-width="1.0"/>
<line x1="109.7" y1="231.0" x2="104.2" y2="230.4" stroke="rgb(0,0,0)"  stroke-width="1.0"/>
<line x1="109.8" y1="235.3" x2="103.2" y2="234.6" stroke="rgb(0,0,0)"  stroke-width="1.0"/>
<line x1="110.0" y1="239.7" x2="102.1" y2="238.8" stroke="rgb(0,0,0)"  stroke-width="1.0"/>
<line x1="74.0" y1="187.7" x2="73.7" y2="186.2" stroke="rgb(0,0,0)"  stroke-width="1.0"/>
<line x1="70.0" y1="189.2" x2="69.4" y2="186.4" stroke="rgb(0,0,0)"  stroke-width="1.0"/>
<line x1="65.9" y1="190.8" x2="65.1" y2="186.7" stroke="rgb(0,0,0)"  stroke-width="1.0"/>
<line x1="61.9" y1="192.3" x2="60.7" y2="187.0" stroke="rgb(0,0,0)"  stroke-width="1.0"/>
<line x1="57.8" y1="193.8" x2="56.4" y2="187.2" stroke="rgb(0,0,0)"  stroke-width="1.0"/>
<line x1="53.7" y1="195.3" x2="52.1" y2="187.5" stroke="rgb(0,0,0)"  stroke-width="1.0"/>
<line x1="122.4" y1="80.0" x2="108.4" y2="80.0" stroke="rgb(0,0,0)"  stroke-width="1.0"/>
<line x1="88.9" y1="91.3" x2="75.4" y2="114.6" stroke="rgb(0,0,0)"  stroke-width="1.0"/>
<line x1="294.7" y1="182.6" x2="286.4" y2="208.2" stroke="rgb(0,0,0)"  stroke-width="1.0"/>
<line x1="289.0" y1="180.7" x2="280.7" y2="206.4" stroke="rgb(0,0,0)"  stroke-width="1.0"/>
<line x1="301.6" y1="227.4" x2="283.5" y2="207.3" stroke="rgb(0,0,0)"  stroke-width="1.0"/>
<line x1="244.4" y1="215.6" x2="283.5" y2="207.3" stroke="rgb(0,0,0)"  stroke-width="1.0"/>
<line x1="217.5" y1="162.0" x2="214.7" y2="188.9" stroke="rgb(0,0,0)"  stroke-width="1.0"/>
<line x1="122.2" y1="152.1" x2="95.4" y2="149.3" stroke="rgb(0,0,0)"  stroke-width="1.0"/>
<line x1="95.4" y1="149.3" x2="79.1" y2="185.8" stroke="rgb(0,0,0)"  stroke-width="1.0"/>
<line x1="79.1" y1="185.8" x2="108.9" y2="212.6" stroke="rgb(0,0,0)"  stroke-width="1.0"/>
<line x1="108.9" y1="212.6" x2="143.5" y2="192.6" stroke="rgb(0,0,0)"  stroke-width="1.0"/>
<line x1="143.5" y1="192.6" x2="137.9" y2="166.2" stroke="rgb(0,0,0)"  stroke-width="1.0"/>
<line x1="182.7" y1="221.6" x2="188.4" y2="248.0" stroke="rgb(0,0,0)"  stroke-width="1.0"/>
<line x1="188.4" y1="248.0" x2="215.0" y2="250.8" stroke="rgb(0,0,0)"  stroke-width="1.0"/>
<line x1="195.1" y1="241.5" x2="213.8" y2="243.4" stroke="rgb(0,0,0)"  stroke-width="1.0"/>
<line x1="233.4" y1="240.3" x2="244.4" y2="215.6" stroke="rgb(0,0,0)"  stroke-width="1.0"/>
<line x1="244.4" y1="215.6" x2="214.7" y2="188.9" stroke="rgb(0,0,0)"  stroke-width="1.0"/>
<line x1="235.1" y1="217.0" x2="214.3" y2="198.2" stroke="rgb(0,0,0)"  stroke-width="1.0"/>
<line x1="214.7" y1="188.9" x2="191.3" y2="202.4" stroke="rgb(0,0,0)"  stroke-width="1.0"/>
<text x="174.034532" y="216.858541" fill="rgb(12,12,255)"  stroke="rgb(12,12,255)" stroke-width="1" font-size="16" >N</text>
<text x="129.176246" y="161.463171" fill="rgb(255,12,12)"  stroke="rgb(255,12,12)" stroke-width="1" font-size="16" >O</text>
<text x="129.395370" y="88.000000" fill="rgb(255,127,0)"  stroke="rgb(255,127,0)" stroke-width="1" font-size="16" >P</text>
<text x="222.131875" y="260.165583" fill="rgb(12,12,255)"  stroke="rgb(12,12,255)" stroke-width="1" font-size="16" >N</text>
<text x="86.670559" y="260.369951" fill="rgb(255,12,12)"  stroke="rgb(255,12,12)" stroke-width="1" font-size="16" >HO</text>
<text x="306.292469" y="245.033090" fill="rgb(12,12,255)"  stroke="rgb(12,12,255)" stroke-width="1" font-size="16" >NH</text>
<text x="330.292469" y="248.713090" fill="rgb(12,12,255)"  stroke="rgb(12,12,255)" stroke-width="1" font-size="13" >2</text>
<text x="22.000000" y="202.140318" fill="rgb(255,12,12)"  stroke="rgb(255,12,12)" stroke-width="1" font-size="16" >HO</text>
<text x="214.856686" y="157.077665" fill="rgb(12,12,255)"  stroke="rgb(12,12,255)" stroke-width="1" font-size="16" >NH</text>
<text x="238.856686" y="160.757665" fill="rgb(12,12,255)"  stroke="rgb(12,12,255)" stroke-width="1" font-size="13" >2</text>
<text x="89.395370" y="88.000000" fill="rgb(255,12,12)"  stroke="rgb(255,12,12)" stroke-width="1" font-size="16" >O</text>
<text x="129.395370" y="128.000000" fill="rgb(255,12,12)"  stroke="rgb(255,12,12)" stroke-width="1" font-size="16" >OH</text>
<text x="289.887924" y="177.265037" fill="rgb(255,12,12)"  stroke="rgb(255,12,12)" stroke-width="1" font-size="16" >O</text>
<text x="180.195370" y="75.968000" fill="rgb(255,12,12)"  stroke="rgb(255,12,12)" stroke-width="1" font-size="32" >-</text>
<text x="169.395370" y="88.000000" fill="rgb(255,12,12)"  stroke="rgb(255,12,12)" stroke-width="1" font-size="16" >O</text>
<text x="129.395370" y="48.000000" fill="rgb(255,12,12)"  stroke="rgb(255,12,12)" stroke-width="1" font-size="16" >O</text>
<text font-size="18.000000" fill ="black" font-family="sans-serif"
x="10.000000" y="20.000000" ></text>
<title> - OBDepict</title>
</svg>
