<?xml version="1.0"?>
<svg xmlns="http://www.w3.org/2000/svg"
xmlns:xlink="http://www.w3.org/1999/xlink" xmlns:cml="http://www.xml-cml.org/schema" width="426.41" height="520" x="0" y="0" font-family="sans-serif" stroke="rgb(0,0,0)" stroke-width="1"  stroke-linecap="round">
<rect x="0%" y="0%" width="100%" height="100%" stroke-width="0" fill="rgb(255,255,255)"  />
<line x1="351.8" y1="400.0" x2="351.8" y2="360.0" stroke="rgb(0,0,0)"  stroke-width="1.0"/>
<line x1="317.1" y1="220.0" x2="317.1" y2="180.0" stroke="rgb(0,0,0)"  stroke-width="1.0"/>
<line x1="317.1" y1="180.0" x2="282.5" y2="160.0" stroke="rgb(0,0,0)"  stroke-width="1.0"/>
<line x1="143.9" y1="120.0" x2="109.3" y2="100.0" stroke="rgb(0,0,0)"  stroke-width="1.0"/>
<line x1="350.3" y1="362.6" x2="326.9" y2="349.1" stroke="rgb(0,0,0)"  stroke-width="1.0"/>
<line x1="353.3" y1="357.4" x2="329.9" y2="343.9" stroke="rgb(0,0,0)"  stroke-width="1.0"/>
<line x1="317.1" y1="300.0" x2="317.1" y2="327.0" stroke="rgb(0,0,0)"  stroke-width="1.0"/>
<line x1="213.2" y1="120.0" x2="189.8" y2="106.5" stroke="rgb(0,0,0)"  stroke-width="1.0"/>
<line x1="142.4" y1="117.4" x2="165.8" y2="103.9" stroke="rgb(0,0,0)"  stroke-width="1.0"/>
<line x1="145.4" y1="122.6" x2="168.8" y2="109.1" stroke="rgb(0,0,0)"  stroke-width="1.0"/>
<line x1="317.1" y1="460.0" x2="317.1" y2="420.0" stroke="rgb(0,0,0)"  stroke-width="1.0"/>
<line x1="324.3" y1="454.0" x2="324.3" y2="426.0" stroke="rgb(0,0,0)"  stroke-width="1.0"/>
<line x1="317.1" y1="420.0" x2="351.8" y2="400.0" stroke="rgb(0,0,0)"  stroke-width="1.0"/>
<line x1="351.8" y1="400.0" x2="375.0" y2="413.4" stroke="rgb(0,0,0)"  stroke-width="1.0"/>
<line x1="353.4" y1="409.2" x2="369.6" y2="418.6" stroke="rgb(0,0,0)"  stroke-width="1.0"/>
<line x1="386.4" y1="433.0" x2="386.4" y2="460.0" stroke="rgb(0,0,0)"  stroke-width="1.0"/>
<line x1="386.4" y1="460.0" x2="351.8" y2="480.0" stroke="rgb(0,0,0)"  stroke-width="1.0"/>
<line x1="377.6" y1="456.8" x2="353.4" y2="470.8" stroke="rgb(0,0,0)"  stroke-width="1.0"/>
<line x1="351.8" y1="480.0" x2="317.1" y2="460.0" stroke="rgb(0,0,0)"  stroke-width="1.0"/>
<line x1="351.8" y1="280.0" x2="317.1" y2="300.0" stroke="rgb(0,0,0)"  stroke-width="1.0"/>
<line x1="343.0" y1="276.8" x2="318.7" y2="290.8" stroke="rgb(0,0,0)"  stroke-width="1.0"/>
<line x1="317.1" y1="300.0" x2="282.5" y2="280.0" stroke="rgb(0,0,0)"  stroke-width="1.0"/>
<line x1="282.5" y1="280.0" x2="282.5" y2="240.0" stroke="rgb(0,0,0)"  stroke-width="1.0"/>
<line x1="289.7" y1="274.0" x2="289.7" y2="246.0" stroke="rgb(0,0,0)"  stroke-width="1.0"/>
<line x1="282.5" y1="240.0" x2="317.1" y2="220.0" stroke="rgb(0,0,0)"  stroke-width="1.0"/>
<line x1="317.1" y1="220.0" x2="351.8" y2="240.0" stroke="rgb(0,0,0)"  stroke-width="1.0"/>
<line x1="318.7" y1="229.2" x2="343.0" y2="243.2" stroke="rgb(0,0,0)"  stroke-width="1.0"/>
<line x1="351.8" y1="240.0" x2="351.8" y2="280.0" stroke="rgb(0,0,0)"  stroke-width="1.0"/>
<line x1="247.8" y1="100.0" x2="282.5" y2="120.0" stroke="rgb(0,0,0)"  stroke-width="1.0"/>
<line x1="282.5" y1="120.0" x2="282.5" y2="160.0" stroke="rgb(0,0,0)"  stroke-width="1.0"/>
<line x1="275.3" y1="126.0" x2="275.3" y2="154.0" stroke="rgb(0,0,0)"  stroke-width="1.0"/>
<line x1="282.5" y1="160.0" x2="247.8" y2="180.0" stroke="rgb(0,0,0)"  stroke-width="1.0"/>
<line x1="247.8" y1="180.0" x2="213.2" y2="160.0" stroke="rgb(0,0,0)"  stroke-width="1.0"/>
<line x1="246.2" y1="170.8" x2="222.0" y2="156.8" stroke="rgb(0,0,0)"  stroke-width="1.0"/>
<line x1="213.2" y1="160.0" x2="213.2" y2="120.0" stroke="rgb(0,0,0)"  stroke-width="1.0"/>
<line x1="213.2" y1="120.0" x2="247.8" y2="100.0" stroke="rgb(0,0,0)"  stroke-width="1.0"/>
<line x1="222.0" y1="123.2" x2="246.2" y2="109.2" stroke="rgb(0,0,0)"  stroke-width="1.0"/>
<line x1="109.3" y1="100.0" x2="109.3" y2="60.0" stroke="rgb(0,0,0)"  stroke-width="1.0"/>
<line x1="102.1" y1="94.0" x2="102.1" y2="66.0" stroke="rgb(0,0,0)"  stroke-width="1.0"/>
<line x1="109.3" y1="60.0" x2="74.6" y2="40.0" stroke="rgb(0,0,0)"  stroke-width="1.0"/>
<line x1="74.6" y1="40.0" x2="40.0" y2="60.0" stroke="rgb(0,0,0)"  stroke-width="1.0"/>
<line x1="73.0" y1="49.2" x2="48.8" y2="63.2" stroke="rgb(0,0,0)"  stroke-width="1.0"/>
<line x1="40.0" y1="60.0" x2="40.0" y2="100.0" stroke="rgb(0,0,0)"  stroke-width="1.0"/>
<line x1="40.0" y1="100.0" x2="63.2" y2="113.4" stroke="rgb(0,0,0)"  stroke-width="1.0"/>
<line x1="48.8" y1="96.8" x2="65.1" y2="106.2" stroke="rgb(0,0,0)"  stroke-width="1.0"/>
<line x1="85.9" y1="113.5" x2="109.3" y2="100.0" stroke="rgb(0,0,0)"  stroke-width="1.0"/>
<text x="380.410162" y="428.000000" fill="rgb(12,12,255)"  stroke="rgb(12,12,255)" stroke-width="1" font-size="16" >N</text>
<text x="311.128129" y="348.000000" fill="rgb(12,12,255)"  stroke="rgb(12,12,255)" stroke-width="1" font-size="16" >N</text>
<text x="172.564065" y="108.000000" fill="rgb(12,12,255)"  stroke="rgb(12,12,255)" stroke-width="1" font-size="16" >N</text>
<text x="68.641016" y="128.000000" fill="rgb(12,12,255)"  stroke="rgb(12,12,255)" stroke-width="1" font-size="16" >N</text>
<text font-size="18.000000" fill ="black" font-family="sans-serif"
x="10.000000" y="20.000000" ></text>
<title> - OBDepict</title>
</svg>
