<?xml version="1.0"?>
<svg xmlns="http://www.w3.org/2000/svg"
xmlns:xlink="http://www.w3.org/1999/xlink" xmlns:cml="http://www.xml-cml.org/schema" width="564.974" height="300" x="0" y="0" font-family="sans-serif" stroke="rgb(0,0,0)" stroke-width="1"  stroke-linecap="round">
<rect x="0%" y="0%" width="100%" height="100%" stroke-width="0" fill="rgb(255,255,255)"  />
<line x1="356.8" y1="202.0" x2="356.0" y2="203.4" stroke="rgb(0,0,0)"  stroke-width="1.0"/>
<line x1="360.8" y1="203.6" x2="359.4" y2="206.1" stroke="rgb(0,0,0)"  stroke-width="1.0"/>
<line x1="364.9" y1="205.2" x2="362.8" y2="208.8" stroke="rgb(0,0,0)"  stroke-width="1.0"/>
<line x1="368.9" y1="206.8" x2="366.2" y2="211.5" stroke="rgb(0,0,0)"  stroke-width="1.0"/>
<line x1="372.9" y1="208.3" x2="369.6" y2="214.2" stroke="rgb(0,0,0)"  stroke-width="1.0"/>
<line x1="377.0" y1="209.9" x2="373.0" y2="216.9" stroke="rgb(0,0,0)"  stroke-width="1.0"/>
<line x1="494.6" y1="156.6" x2="495.4" y2="158.0" stroke="rgb(0,0,0)"  stroke-width="1.0"/>
<line x1="498.0" y1="153.9" x2="499.4" y2="156.4" stroke="rgb(0,0,0)"  stroke-width="1.0"/>
<line x1="501.4" y1="151.2" x2="503.4" y2="154.8" stroke="rgb(0,0,0)"  stroke-width="1.0"/>
<line x1="504.8" y1="148.5" x2="507.5" y2="153.2" stroke="rgb(0,0,0)"  stroke-width="1.0"/>
<line x1="508.1" y1="145.8" x2="511.5" y2="151.7" stroke="rgb(0,0,0)"  stroke-width="1.0"/>
<line x1="511.5" y1="143.1" x2="515.5" y2="150.1" stroke="rgb(0,0,0)"  stroke-width="1.0"/>
<line x1="143.1" y1="74.6" x2="144.7" y2="74.6" stroke="rgb(0,0,0)"  stroke-width="1.0"/>
<line x1="142.5" y1="70.4" x2="145.4" y2="70.4" stroke="rgb(0,0,0)"  stroke-width="1.0"/>
<line x1="141.8" y1="66.1" x2="146.0" y2="66.1" stroke="rgb(0,0,0)"  stroke-width="1.0"/>
<line x1="141.2" y1="61.8" x2="146.6" y2="61.8" stroke="rgb(0,0,0)"  stroke-width="1.0"/>
<line x1="140.6" y1="57.5" x2="147.3" y2="57.5" stroke="rgb(0,0,0)"  stroke-width="1.0"/>
<line x1="139.9" y1="53.2" x2="147.9" y2="53.2" stroke="rgb(0,0,0)"  stroke-width="1.0"/>
<line x1="317.9" y1="225.4" x2="316.3" y2="225.4" stroke="rgb(0,0,0)"  stroke-width="1.0"/>
<line x1="318.6" y1="229.6" x2="315.7" y2="229.6" stroke="rgb(0,0,0)"  stroke-width="1.0"/>
<line x1="319.2" y1="233.9" x2="315.0" y2="233.9" stroke="rgb(0,0,0)"  stroke-width="1.0"/>
<line x1="319.8" y1="238.2" x2="314.4" y2="238.2" stroke="rgb(0,0,0)"  stroke-width="1.0"/>
<line x1="320.5" y1="242.5" x2="313.8" y2="242.5" stroke="rgb(0,0,0)"  stroke-width="1.0"/>
<line x1="321.1" y1="246.8" x2="313.1" y2="246.8" stroke="rgb(0,0,0)"  stroke-width="1.0"/>
<line x1="182.8" y1="96.6" x2="183.6" y2="98.0" stroke="rgb(0,0,0)"  stroke-width="1.0"/>
<line x1="186.2" y1="93.9" x2="187.6" y2="96.4" stroke="rgb(0,0,0)"  stroke-width="1.0"/>
<line x1="189.6" y1="91.2" x2="191.7" y2="94.8" stroke="rgb(0,0,0)"  stroke-width="1.0"/>
<line x1="193.0" y1="88.5" x2="195.7" y2="93.2" stroke="rgb(0,0,0)"  stroke-width="1.0"/>
<line x1="196.4" y1="85.8" x2="199.7" y2="91.7" stroke="rgb(0,0,0)"  stroke-width="1.0"/>
<line x1="199.8" y1="83.1" x2="203.8" y2="90.1" stroke="rgb(0,0,0)"  stroke-width="1.0"/>
<polygon points="282.487113 200.000000 261.277632 216.864102 257.277632 209.935898 " stroke-width="1.000000" fill="rgb(0,0,0)"  stroke="rgb(0,0,0)" />
<line x1="236.6" y1="213.5" x2="213.2" y2="200.0" stroke="rgb(0,0,0)"  stroke-width="1.0"/>
<line x1="456.5" y1="225.4" x2="454.9" y2="225.4" stroke="rgb(0,0,0)"  stroke-width="1.0"/>
<line x1="457.1" y1="229.6" x2="454.3" y2="229.6" stroke="rgb(0,0,0)"  stroke-width="1.0"/>
<line x1="457.8" y1="233.9" x2="453.6" y2="233.9" stroke="rgb(0,0,0)"  stroke-width="1.0"/>
<line x1="458.4" y1="238.2" x2="453.0" y2="238.2" stroke="rgb(0,0,0)"  stroke-width="1.0"/>
<line x1="459.1" y1="242.5" x2="452.3" y2="242.5" stroke="rgb(0,0,0)"  stroke-width="1.0"/>
<line x1="459.7" y1="246.8" x2="451.7" y2="246.8" stroke="rgb(0,0,0)"  stroke-width="1.0"/>
<polygon points="178.564065 140.000000 203.773545 149.935898 199.773545 156.864102 " stroke-width="1.000000" fill="rgb(0,0,0)"  stroke="rgb(0,0,0)" />
<line x1="213.2" y1="173.0" x2="213.2" y2="200.0" stroke="rgb(0,0,0)"  stroke-width="1.0"/>
<line x1="277.4" y1="158.0" x2="278.2" y2="156.6" stroke="rgb(0,0,0)"  stroke-width="1.0"/>
<line x1="273.4" y1="156.4" x2="274.9" y2="153.9" stroke="rgb(0,0,0)"  stroke-width="1.0"/>
<line x1="269.4" y1="154.8" x2="271.5" y2="151.2" stroke="rgb(0,0,0)"  stroke-width="1.0"/>
<line x1="265.3" y1="153.2" x2="268.1" y2="148.5" stroke="rgb(0,0,0)"  stroke-width="1.0"/>
<line x1="261.3" y1="151.7" x2="264.7" y2="145.8" stroke="rgb(0,0,0)"  stroke-width="1.0"/>
<line x1="257.3" y1="150.1" x2="261.3" y2="143.1" stroke="rgb(0,0,0)"  stroke-width="1.0"/>
<polygon points="421.051178 200.000000 399.841697 216.864102 395.841697 209.935898 " stroke-width="1.000000" fill="rgb(0,0,0)"  stroke="rgb(0,0,0)" />
<line x1="144.7" y1="165.4" x2="143.1" y2="165.4" stroke="rgb(0,0,0)"  stroke-width="1.0"/>
<line x1="145.4" y1="169.6" x2="142.5" y2="169.6" stroke="rgb(0,0,0)"  stroke-width="1.0"/>
<line x1="146.0" y1="173.9" x2="141.8" y2="173.9" stroke="rgb(0,0,0)"  stroke-width="1.0"/>
<line x1="146.6" y1="178.2" x2="141.2" y2="178.2" stroke="rgb(0,0,0)"  stroke-width="1.0"/>
<line x1="147.3" y1="182.5" x2="140.6" y2="182.5" stroke="rgb(0,0,0)"  stroke-width="1.0"/>
<line x1="147.9" y1="186.8" x2="139.9" y2="186.8" stroke="rgb(0,0,0)"  stroke-width="1.0"/>
<polygon points="317.128129 140.000000 313.128129 100.000000 321.128129 100.000000 " stroke-width="1.000000" fill="rgb(0,0,0)"  stroke="rgb(0,0,0)" />
<line x1="416.0" y1="158.0" x2="416.8" y2="156.6" stroke="rgb(0,0,0)"  stroke-width="1.0"/>
<line x1="412.0" y1="156.4" x2="413.4" y2="153.9" stroke="rgb(0,0,0)"  stroke-width="1.0"/>
<line x1="407.9" y1="154.8" x2="410.0" y2="151.2" stroke="rgb(0,0,0)"  stroke-width="1.0"/>
<line x1="403.9" y1="153.2" x2="406.6" y2="148.5" stroke="rgb(0,0,0)"  stroke-width="1.0"/>
<line x1="399.9" y1="151.7" x2="403.2" y2="145.8" stroke="rgb(0,0,0)"  stroke-width="1.0"/>
<line x1="395.8" y1="150.1" x2="399.8" y2="143.1" stroke="rgb(0,0,0)"  stroke-width="1.0"/>
<polygon points="109.282032 140.000000 76.641016 163.464102 72.641016 156.535898 " stroke-width="1.000000" fill="rgb(0,0,0)"  stroke="rgb(0,0,0)" />
<line x1="317.1" y1="100.0" x2="293.7" y2="86.5" stroke="rgb(0,0,0)"  stroke-width="1.0"/>
<polygon points="455.692194 140.000000 451.692194 113.200000 459.692194 113.200000 " stroke-width="1.000000" fill="rgb(0,0,0)"  stroke="rgb(0,0,0)" />
<line x1="74.6" y1="160.0" x2="51.3" y2="146.5" stroke="rgb(0,0,0)"  stroke-width="1.0"/>
<line x1="490.3" y1="200.0" x2="490.3" y2="160.0" stroke="rgb(0,0,0)"  stroke-width="1.0"/>
<line x1="490.3" y1="160.0" x2="455.7" y2="140.0" stroke="rgb(0,0,0)"  stroke-width="1.0"/>
<line x1="455.7" y1="140.0" x2="421.1" y2="160.0" stroke="rgb(0,0,0)"  stroke-width="1.0"/>
<line x1="421.1" y1="160.0" x2="421.1" y2="200.0" stroke="rgb(0,0,0)"  stroke-width="1.0"/>
<line x1="421.1" y1="200.0" x2="455.7" y2="220.0" stroke="rgb(0,0,0)"  stroke-width="1.0"/>
<line x1="455.7" y1="220.0" x2="490.3" y2="200.0" stroke="rgb(0,0,0)"  stroke-width="1.0"/>
<line x1="351.8" y1="200.0" x2="317.1" y2="220.0" stroke="rgb(0,0,0)"  stroke-width="1.0"/>
<line x1="317.1" y1="220.0" x2="282.5" y2="200.0" stroke="rgb(0,0,0)"  stroke-width="1.0"/>
<line x1="282.5" y1="200.0" x2="282.5" y2="160.0" stroke="rgb(0,0,0)"  stroke-width="1.0"/>
<line x1="282.5" y1="160.0" x2="317.1" y2="140.0" stroke="rgb(0,0,0)"  stroke-width="1.0"/>
<line x1="317.1" y1="140.0" x2="340.5" y2="153.5" stroke="rgb(0,0,0)"  stroke-width="1.0"/>
<line x1="351.8" y1="173.0" x2="351.8" y2="200.0" stroke="rgb(0,0,0)"  stroke-width="1.0"/>
<line x1="143.9" y1="80.0" x2="178.6" y2="100.0" stroke="rgb(0,0,0)"  stroke-width="1.0"/>
<line x1="178.6" y1="100.0" x2="178.6" y2="140.0" stroke="rgb(0,0,0)"  stroke-width="1.0"/>
<line x1="178.6" y1="140.0" x2="143.9" y2="160.0" stroke="rgb(0,0,0)"  stroke-width="1.0"/>
<line x1="143.9" y1="160.0" x2="109.3" y2="140.0" stroke="rgb(0,0,0)"  stroke-width="1.0"/>
<line x1="109.3" y1="140.0" x2="109.3" y2="113.0" stroke="rgb(0,0,0)"  stroke-width="1.0"/>
<line x1="120.5" y1="93.5" x2="143.9" y2="80.0" stroke="rgb(0,0,0)"  stroke-width="1.0"/>
<text x="380.410162" y="228.000000" fill="rgb(255,12,12)"  stroke="rgb(255,12,12)" stroke-width="1" font-size="16" >O</text>
<text x="520.974226" y="148.000000" fill="rgb(12,12,255)"  stroke="rgb(12,12,255)" stroke-width="1" font-size="16" >NH</text>
<text x="544.974226" y="151.680000" fill="rgb(12,12,255)"  stroke="rgb(12,12,255)" stroke-width="1" font-size="13" >2</text>
<text x="137.923048" y="48.000000" fill="rgb(255,12,12)"  stroke="rgb(255,12,12)" stroke-width="1" font-size="16" >OH</text>
<text x="313.128129" y="268.000000" fill="rgb(12,12,255)"  stroke="rgb(12,12,255)" stroke-width="1" font-size="16" >NH</text>
<text x="337.128129" y="271.680000" fill="rgb(12,12,255)"  stroke="rgb(12,12,255)" stroke-width="1" font-size="13" >2</text>
<text x="209.205081" y="88.000000" fill="rgb(12,12,255)"  stroke="rgb(12,12,255)" stroke-width="1" font-size="16" >NH</text>
<text x="233.205081" y="91.680000" fill="rgb(12,12,255)"  stroke="rgb(12,12,255)" stroke-width="1" font-size="13" >2</text>
<text x="241.846097" y="228.000000" fill="rgb(255,12,12)"  stroke="rgb(255,12,12)" stroke-width="1" font-size="16" >O</text>
<text x="451.692194" y="268.000000" fill="rgb(12,12,255)"  stroke="rgb(12,12,255)" stroke-width="1" font-size="16" >NH</text>
<text x="475.692194" y="271.680000" fill="rgb(12,12,255)"  stroke="rgb(12,12,255)" stroke-width="1" font-size="13" >2</text>
<text x="207.205081" y="168.000000" fill="rgb(255,12,12)"  stroke="rgb(255,12,12)" stroke-width="1" font-size="16" >O</text>
<text x="229.846097" y="148.000000" fill="rgb(255,12,12)"  stroke="rgb(255,12,12)" stroke-width="1" font-size="16" >HO</text>
<text x="137.923048" y="208.000000" fill="rgb(255,12,12)"  stroke="rgb(255,12,12)" stroke-width="1" font-size="16" >OH</text>
<text x="345.769145" y="168.000000" fill="rgb(255,12,12)"  stroke="rgb(255,12,12)" stroke-width="1" font-size="16" >O</text>
<text x="368.410162" y="148.000000" fill="rgb(255,12,12)"  stroke="rgb(255,12,12)" stroke-width="1" font-size="16" >HO</text>
<text x="103.282032" y="108.000000" fill="rgb(255,12,12)"  stroke="rgb(255,12,12)" stroke-width="1" font-size="16" >O</text>
<text x="264.487113" y="88.000000" fill="rgb(255,12,12)"  stroke="rgb(255,12,12)" stroke-width="1" font-size="16" >HO</text>
<text x="449.692194" y="108.000000" fill="rgb(255,12,12)"  stroke="rgb(255,12,12)" stroke-width="1" font-size="16" >OH</text>
<text x="22.000000" y="148.000000" fill="rgb(255,12,12)"  stroke="rgb(255,12,12)" stroke-width="1" font-size="16" >HO</text>
<text font-size="18.000000" fill ="black" font-family="sans-serif"
x="10.000000" y="20.000000" >2o3v_lig</text>
<title>2o3v_lig - OBDepict</title>
</svg>
