<?xml version="1.0"?>
<svg xmlns="http://www.w3.org/2000/svg"
xmlns:xlink="http://www.w3.org/1999/xlink" xmlns:cml="http://www.xml-cml.org/schema" width="431.769" height="380" x="0" y="0" font-family="sans-serif" stroke="rgb(0,0,0)" stroke-width="1"  stroke-linecap="round">
<rect x="0%" y="0%" width="100%" height="100%" stroke-width="0" fill="rgb(255,255,255)"  />
<line x1="282.8" y1="98.0" x2="283.6" y2="96.6" stroke="rgb(0,0,0)"  stroke-width="1.0"/>
<line x1="278.8" y1="96.4" x2="280.2" y2="93.9" stroke="rgb(0,0,0)"  stroke-width="1.0"/>
<line x1="274.7" y1="94.8" x2="276.8" y2="91.2" stroke="rgb(0,0,0)"  stroke-width="1.0"/>
<line x1="270.7" y1="93.2" x2="273.4" y2="88.5" stroke="rgb(0,0,0)"  stroke-width="1.0"/>
<line x1="266.7" y1="91.7" x2="270.0" y2="85.8" stroke="rgb(0,0,0)"  stroke-width="1.0"/>
<line x1="262.6" y1="90.1" x2="266.6" y2="83.1" stroke="rgb(0,0,0)"  stroke-width="1.0"/>
<polygon points="218.564065 100.000000 239.773545 83.135898 243.773545 90.064102 " stroke-width="1.000000" fill="rgb(0,0,0)"  stroke="rgb(0,0,0)" />
<line x1="145.0" y1="143.4" x2="144.2" y2="142.0" stroke="rgb(0,0,0)"  stroke-width="1.0"/>
<line x1="141.6" y1="146.1" x2="140.2" y2="143.6" stroke="rgb(0,0,0)"  stroke-width="1.0"/>
<line x1="138.3" y1="148.8" x2="136.2" y2="145.2" stroke="rgb(0,0,0)"  stroke-width="1.0"/>
<line x1="134.9" y1="151.5" x2="132.1" y2="146.8" stroke="rgb(0,0,0)"  stroke-width="1.0"/>
<line x1="131.5" y1="154.2" x2="128.1" y2="148.3" stroke="rgb(0,0,0)"  stroke-width="1.0"/>
<line x1="128.1" y1="156.9" x2="124.1" y2="149.9" stroke="rgb(0,0,0)"  stroke-width="1.0"/>
<line x1="321.7" y1="74.6" x2="323.3" y2="74.6" stroke="rgb(0,0,0)"  stroke-width="1.0"/>
<line x1="321.0" y1="70.4" x2="323.9" y2="70.4" stroke="rgb(0,0,0)"  stroke-width="1.0"/>
<line x1="320.4" y1="66.1" x2="324.6" y2="66.1" stroke="rgb(0,0,0)"  stroke-width="1.0"/>
<line x1="319.8" y1="61.8" x2="325.2" y2="61.8" stroke="rgb(0,0,0)"  stroke-width="1.0"/>
<line x1="319.1" y1="57.5" x2="325.8" y2="57.5" stroke="rgb(0,0,0)"  stroke-width="1.0"/>
<line x1="318.5" y1="53.2" x2="326.5" y2="53.2" stroke="rgb(0,0,0)"  stroke-width="1.0"/>
<line x1="154.3" y1="262.0" x2="153.5" y2="263.4" stroke="rgb(0,0,0)"  stroke-width="1.0"/>
<line x1="158.4" y1="263.6" x2="156.9" y2="266.1" stroke="rgb(0,0,0)"  stroke-width="1.0"/>
<line x1="162.4" y1="265.2" x2="160.3" y2="268.8" stroke="rgb(0,0,0)"  stroke-width="1.0"/>
<line x1="166.4" y1="266.8" x2="163.7" y2="271.5" stroke="rgb(0,0,0)"  stroke-width="1.0"/>
<line x1="170.5" y1="268.3" x2="167.1" y2="274.2" stroke="rgb(0,0,0)"  stroke-width="1.0"/>
<line x1="174.5" y1="269.9" x2="170.5" y2="276.9" stroke="rgb(0,0,0)"  stroke-width="1.0"/>
<polygon points="357.128129 100.000000 378.337610 83.135898 382.337610 90.064102 " stroke-width="1.000000" fill="rgb(0,0,0)"  stroke="rgb(0,0,0)" />
<line x1="183.1" y1="74.6" x2="184.7" y2="74.6" stroke="rgb(0,0,0)"  stroke-width="1.0"/>
<line x1="182.5" y1="70.4" x2="185.4" y2="70.4" stroke="rgb(0,0,0)"  stroke-width="1.0"/>
<line x1="181.8" y1="66.1" x2="186.0" y2="66.1" stroke="rgb(0,0,0)"  stroke-width="1.0"/>
<line x1="181.2" y1="61.8" x2="186.6" y2="61.8" stroke="rgb(0,0,0)"  stroke-width="1.0"/>
<line x1="180.6" y1="57.5" x2="187.3" y2="57.5" stroke="rgb(0,0,0)"  stroke-width="1.0"/>
<line x1="179.9" y1="53.2" x2="187.9" y2="53.2" stroke="rgb(0,0,0)"  stroke-width="1.0"/>
<polygon points="114.641016 280.000000 118.641016 306.800000 110.641016 306.800000 " stroke-width="1.000000" fill="rgb(0,0,0)"  stroke="rgb(0,0,0)" />
<line x1="103.4" y1="326.5" x2="91.3" y2="333.5" stroke="rgb(0,0,0)"  stroke-width="1.0"/>
<line x1="362.2" y1="142.0" x2="361.4" y2="143.4" stroke="rgb(0,0,0)"  stroke-width="1.0"/>
<line x1="366.2" y1="143.6" x2="364.8" y2="146.1" stroke="rgb(0,0,0)"  stroke-width="1.0"/>
<line x1="370.2" y1="145.2" x2="368.2" y2="148.8" stroke="rgb(0,0,0)"  stroke-width="1.0"/>
<line x1="374.3" y1="146.8" x2="371.6" y2="151.5" stroke="rgb(0,0,0)"  stroke-width="1.0"/>
<line x1="378.3" y1="148.3" x2="374.9" y2="154.2" stroke="rgb(0,0,0)"  stroke-width="1.0"/>
<line x1="382.3" y1="149.9" x2="378.3" y2="156.9" stroke="rgb(0,0,0)"  stroke-width="1.0"/>
<polygon points="80.000000 260.000000 53.200000 264.000000 53.200000 256.000000 " stroke-width="1.000000" fill="rgb(0,0,0)"  stroke="rgb(0,0,0)" />
<line x1="80.0" y1="260.0" x2="66.5" y2="283.4" stroke="rgb(0,0,0)"  stroke-width="1.0"/>
<polygon points="322.487113 160.000000 297.277632 150.064102 301.277632 143.135898 " stroke-width="1.000000" fill="rgb(0,0,0)"  stroke="rgb(0,0,0)" />
<line x1="322.5" y1="160.0" x2="322.5" y2="200.0" stroke="rgb(0,0,0)"  stroke-width="1.0"/>
<line x1="223.6" y1="142.0" x2="222.8" y2="143.4" stroke="rgb(0,0,0)"  stroke-width="1.0"/>
<line x1="227.6" y1="143.6" x2="226.2" y2="146.1" stroke="rgb(0,0,0)"  stroke-width="1.0"/>
<line x1="231.7" y1="145.2" x2="229.6" y2="148.8" stroke="rgb(0,0,0)"  stroke-width="1.0"/>
<line x1="235.7" y1="146.8" x2="233.0" y2="151.5" stroke="rgb(0,0,0)"  stroke-width="1.0"/>
<line x1="239.7" y1="148.3" x2="236.4" y2="154.2" stroke="rgb(0,0,0)"  stroke-width="1.0"/>
<line x1="243.8" y1="149.9" x2="239.8" y2="156.9" stroke="rgb(0,0,0)"  stroke-width="1.0"/>
<polygon points="322.487113 200.000000 301.277632 216.864102 297.277632 209.935898 " stroke-width="1.000000" fill="rgb(0,0,0)"  stroke="rgb(0,0,0)" />
<line x1="322.5" y1="200.0" x2="345.9" y2="213.5" stroke="rgb(0,0,0)"  stroke-width="1.0"/>
<polygon points="183.923048 160.000000 187.923048 186.800000 179.923048 186.800000 " stroke-width="1.000000" fill="rgb(0,0,0)"  stroke="rgb(0,0,0)" />
<line x1="153.5" y1="216.6" x2="154.3" y2="218.0" stroke="rgb(0,0,0)"  stroke-width="1.0"/>
<line x1="156.9" y1="213.9" x2="158.4" y2="216.4" stroke="rgb(0,0,0)"  stroke-width="1.0"/>
<line x1="160.3" y1="211.2" x2="162.4" y2="214.8" stroke="rgb(0,0,0)"  stroke-width="1.0"/>
<line x1="163.7" y1="208.5" x2="166.4" y2="213.2" stroke="rgb(0,0,0)"  stroke-width="1.0"/>
<line x1="167.1" y1="205.8" x2="170.5" y2="211.7" stroke="rgb(0,0,0)"  stroke-width="1.0"/>
<line x1="170.5" y1="203.1" x2="174.5" y2="210.1" stroke="rgb(0,0,0)"  stroke-width="1.0"/>
<line x1="149.3" y1="100.0" x2="149.3" y2="140.0" stroke="rgb(0,0,0)"  stroke-width="1.0"/>
<line x1="149.3" y1="140.0" x2="183.9" y2="160.0" stroke="rgb(0,0,0)"  stroke-width="1.0"/>
<line x1="183.9" y1="160.0" x2="218.6" y2="140.0" stroke="rgb(0,0,0)"  stroke-width="1.0"/>
<line x1="218.6" y1="140.0" x2="218.6" y2="100.0" stroke="rgb(0,0,0)"  stroke-width="1.0"/>
<line x1="218.6" y1="100.0" x2="183.9" y2="80.0" stroke="rgb(0,0,0)"  stroke-width="1.0"/>
<line x1="183.9" y1="80.0" x2="149.3" y2="100.0" stroke="rgb(0,0,0)"  stroke-width="1.0"/>
<line x1="287.8" y1="100.0" x2="322.5" y2="80.0" stroke="rgb(0,0,0)"  stroke-width="1.0"/>
<line x1="322.5" y1="80.0" x2="357.1" y2="100.0" stroke="rgb(0,0,0)"  stroke-width="1.0"/>
<line x1="357.1" y1="100.0" x2="357.1" y2="140.0" stroke="rgb(0,0,0)"  stroke-width="1.0"/>
<line x1="357.1" y1="140.0" x2="322.5" y2="160.0" stroke="rgb(0,0,0)"  stroke-width="1.0"/>
<line x1="322.5" y1="160.0" x2="299.1" y2="146.5" stroke="rgb(0,0,0)"  stroke-width="1.0"/>
<line x1="287.8" y1="127.0" x2="287.8" y2="100.0" stroke="rgb(0,0,0)"  stroke-width="1.0"/>
<line x1="149.3" y1="220.0" x2="149.3" y2="260.0" stroke="rgb(0,0,0)"  stroke-width="1.0"/>
<line x1="149.3" y1="260.0" x2="114.6" y2="280.0" stroke="rgb(0,0,0)"  stroke-width="1.0"/>
<line x1="114.6" y1="280.0" x2="80.0" y2="260.0" stroke="rgb(0,0,0)"  stroke-width="1.0"/>
<line x1="80.0" y1="260.0" x2="80.0" y2="220.0" stroke="rgb(0,0,0)"  stroke-width="1.0"/>
<line x1="80.0" y1="220.0" x2="103.4" y2="206.5" stroke="rgb(0,0,0)"  stroke-width="1.0"/>
<line x1="125.9" y1="206.5" x2="149.3" y2="220.0" stroke="rgb(0,0,0)"  stroke-width="1.0"/>
<text x="247.205081" y="88.000000" fill="rgb(255,12,12)"  stroke="rgb(255,12,12)" stroke-width="1" font-size="16" >O</text>
<text x="88.641016" y="168.000000" fill="rgb(12,12,255)"  stroke="rgb(12,12,255)" stroke-width="1" font-size="16" >H</text>
<text x="100.641016" y="171.680000" fill="rgb(12,12,255)"  stroke="rgb(12,12,255)" stroke-width="1" font-size="13" >2</text>
<text x="107.141016" y="168.000000" fill="rgb(12,12,255)"  stroke="rgb(12,12,255)" stroke-width="1" font-size="16" >N</text>
<text x="318.487113" y="48.000000" fill="rgb(12,12,255)"  stroke="rgb(12,12,255)" stroke-width="1" font-size="16" >NH</text>
<text x="342.487113" y="51.680000" fill="rgb(12,12,255)"  stroke="rgb(12,12,255)" stroke-width="1" font-size="13" >2</text>
<text x="177.923048" y="288.000000" fill="rgb(255,12,12)"  stroke="rgb(255,12,12)" stroke-width="1" font-size="16" >OH</text>
<text x="385.769145" y="88.000000" fill="rgb(255,12,12)"  stroke="rgb(255,12,12)" stroke-width="1" font-size="16" >OH</text>
<text x="179.923048" y="48.000000" fill="rgb(12,12,255)"  stroke="rgb(12,12,255)" stroke-width="1" font-size="16" >NH</text>
<text x="203.923048" y="51.680000" fill="rgb(12,12,255)"  stroke="rgb(12,12,255)" stroke-width="1" font-size="13" >2</text>
<text x="108.641016" y="328.000000" fill="rgb(12,12,255)"  stroke="rgb(12,12,255)" stroke-width="1" font-size="16" >NH</text>
<text x="385.769145" y="168.000000" fill="rgb(255,12,12)"  stroke="rgb(255,12,12)" stroke-width="1" font-size="16" >OH</text>
<text x="22.000000" y="268.000000" fill="rgb(255,12,12)"  stroke="rgb(255,12,12)" stroke-width="1" font-size="16" >HO</text>
<text x="281.846097" y="148.000000" fill="rgb(255,12,12)"  stroke="rgb(255,12,12)" stroke-width="1" font-size="16" >O</text>
<text x="247.205081" y="168.000000" fill="rgb(255,12,12)"  stroke="rgb(255,12,12)" stroke-width="1" font-size="16" >OH</text>
<text x="108.641016" y="208.000000" fill="rgb(255,12,12)"  stroke="rgb(255,12,12)" stroke-width="1" font-size="16" >O</text>
<text x="269.846097" y="228.000000" fill="rgb(255,12,12)"  stroke="rgb(255,12,12)" stroke-width="1" font-size="16" >HO</text>
<text x="177.923048" y="208.000000" fill="rgb(255,12,12)"  stroke="rgb(255,12,12)" stroke-width="1" font-size="16" >O</text>
<text x="353.128129" y="228.000000" fill="rgb(102,102,102)"  stroke="rgb(102,102,102)" stroke-width="1" font-size="16" >CH</text>
<text x="377.128129" y="231.680000" fill="rgb(102,102,102)"  stroke="rgb(102,102,102)" stroke-width="1" font-size="13" >3</text>
<text x="34.000000" y="302.641016" fill="rgb(102,102,102)"  stroke="rgb(102,102,102)" stroke-width="1" font-size="16" >H</text>
<text x="46.000000" y="306.321016" fill="rgb(102,102,102)"  stroke="rgb(102,102,102)" stroke-width="1" font-size="13" >3</text>
<text x="52.500000" y="302.641016" fill="rgb(102,102,102)"  stroke="rgb(102,102,102)" stroke-width="1" font-size="16" >C</text>
<text x="54.000000" y="348.000000" fill="rgb(102,102,102)"  stroke="rgb(102,102,102)" stroke-width="1" font-size="16" >H</text>
<text x="66.000000" y="351.680000" fill="rgb(102,102,102)"  stroke="rgb(102,102,102)" stroke-width="1" font-size="13" >3</text>
<text x="72.500000" y="348.000000" fill="rgb(102,102,102)"  stroke="rgb(102,102,102)" stroke-width="1" font-size="16" >C</text>
<text font-size="18.000000" fill ="black" font-family="sans-serif"
x="10.000000" y="20.000000" ></text>
<title> - OBDepict</title>
</svg>
