<?xml version="1.0"?>
<svg xmlns="http://www.w3.org/2000/svg"
xmlns:xlink="http://www.w3.org/1999/xlink" xmlns:cml="http://www.xml-cml.org/schema" width="366.108" height="320" x="0" y="0" font-family="sans-serif" stroke="rgb(0,0,0)" stroke-width="1"  stroke-linecap="round">
<rect x="0%" y="0%" width="100%" height="100%" stroke-width="0" fill="rgb(255,255,255)"  />
<line x1="79.5" y1="134.6" x2="105.9" y2="129.0" stroke="rgb(0,0,0)"  stroke-width="1.0"/>
<line x1="62.7" y1="149.7" x2="58.4" y2="163.0" stroke="rgb(0,0,0)"  stroke-width="1.0"/>
<line x1="58.1" y1="127.6" x2="48.7" y2="117.2" stroke="rgb(0,0,0)"  stroke-width="1.0"/>
<line x1="180.1" y1="124.7" x2="171.8" y2="150.4" stroke="rgb(0,0,0)"  stroke-width="1.0"/>
<line x1="133.6" y1="80.0" x2="160.6" y2="80.0" stroke="rgb(0,0,0)"  stroke-width="1.0"/>
<line x1="268.1" y1="233.5" x2="291.5" y2="220.0" stroke="rgb(0,0,0)"  stroke-width="1.0"/>
<line x1="245.6" y1="233.5" x2="233.4" y2="226.5" stroke="rgb(0,0,0)"  stroke-width="1.0"/>
<line x1="256.8" y1="253.0" x2="256.8" y2="267.0" stroke="rgb(0,0,0)"  stroke-width="1.0"/>
<polygon points="291.467229 180.000000 295.467229 220.000000 287.467229 220.000000 " stroke-width="1.000000" fill="rgb(0,0,0)"  stroke="rgb(0,0,0)" />
<line x1="171.8" y1="150.4" x2="132.7" y2="158.7" stroke="rgb(0,0,0)"  stroke-width="1.0"/>
<line x1="132.7" y1="158.7" x2="105.9" y2="129.0" stroke="rgb(0,0,0)"  stroke-width="1.0"/>
<line x1="160.6" y1="80.0" x2="176.5" y2="101.8" stroke="rgb(0,0,0)"  stroke-width="1.0"/>
<line x1="196.5" y1="108.3" x2="222.2" y2="100.0" stroke="rgb(0,0,0)"  stroke-width="1.0"/>
<line x1="222.2" y1="100.0" x2="222.2" y2="60.0" stroke="rgb(0,0,0)"  stroke-width="1.0"/>
<line x1="222.2" y1="60.0" x2="196.5" y2="51.7" stroke="rgb(0,0,0)"  stroke-width="1.0"/>
<line x1="176.4" y1="58.3" x2="160.6" y2="80.0" stroke="rgb(0,0,0)"  stroke-width="1.0"/>
<line x1="181.0" y1="64.2" x2="170.0" y2="79.4" stroke="rgb(0,0,0)"  stroke-width="1.0"/>
<line x1="314.8" y1="113.5" x2="291.5" y2="100.0" stroke="rgb(0,0,0)"  stroke-width="1.0"/>
<line x1="291.5" y1="100.0" x2="256.8" y2="120.0" stroke="rgb(0,0,0)"  stroke-width="1.0"/>
<line x1="256.8" y1="120.0" x2="256.8" y2="160.0" stroke="rgb(0,0,0)"  stroke-width="1.0"/>
<line x1="256.8" y1="160.0" x2="291.5" y2="180.0" stroke="rgb(0,0,0)"  stroke-width="1.0"/>
<line x1="291.5" y1="180.0" x2="326.1" y2="160.0" stroke="rgb(0,0,0)"  stroke-width="1.0"/>
<line x1="326.1" y1="160.0" x2="326.1" y2="133.0" stroke="rgb(0,0,0)"  stroke-width="1.0"/>
<line x1="256.8" y1="40.0" x2="222.2" y2="60.0" stroke="rgb(0,0,0)"  stroke-width="1.0"/>
<line x1="255.2" y1="49.2" x2="231.0" y2="63.2" stroke="rgb(0,0,0)"  stroke-width="1.0"/>
<line x1="222.2" y1="100.0" x2="256.8" y2="120.0" stroke="rgb(0,0,0)"  stroke-width="1.0"/>
<line x1="231.0" y1="96.8" x2="255.2" y2="110.8" stroke="rgb(0,0,0)"  stroke-width="1.0"/>
<line x1="291.5" y1="100.0" x2="291.5" y2="60.0" stroke="rgb(0,0,0)"  stroke-width="1.0"/>
<line x1="284.3" y1="94.0" x2="284.3" y2="66.0" stroke="rgb(0,0,0)"  stroke-width="1.0"/>
<line x1="291.5" y1="60.0" x2="256.8" y2="40.0" stroke="rgb(0,0,0)"  stroke-width="1.0"/>
<text x="60.765224" y="145.310083" fill="rgb(12,12,255)"  stroke="rgb(12,12,255)" stroke-width="1" font-size="16" >N</text>
<text x="14.000000" y="115.584290" fill="rgb(102,102,102)"  stroke="rgb(102,102,102)" stroke-width="1" font-size="16" >H</text>
<text x="26.000000" y="119.264290" fill="rgb(102,102,102)"  stroke="rgb(102,102,102)" stroke-width="1" font-size="13" >3</text>
<text x="32.500000" y="115.584290" fill="rgb(102,102,102)"  stroke="rgb(102,102,102)" stroke-width="1" font-size="16" >C</text>
<text x="320.108245" y="128.000000" fill="rgb(255,12,12)"  stroke="rgb(255,12,12)" stroke-width="1" font-size="16" >O</text>
<text x="178.142936" y="55.639320" fill="rgb(12,12,255)"  stroke="rgb(12,12,255)" stroke-width="1" font-size="16" >N</text>
<text x="178.142936" y="120.360680" fill="rgb(12,12,255)"  stroke="rgb(12,12,255)" stroke-width="1" font-size="16" >N</text>
<text x="94.631526" y="88.000000" fill="rgb(12,12,255)"  stroke="rgb(12,12,255)" stroke-width="1" font-size="16" >H</text>
<text x="106.631526" y="91.680000" fill="rgb(12,12,255)"  stroke="rgb(12,12,255)" stroke-width="1" font-size="13" >2</text>
<text x="113.131526" y="88.000000" fill="rgb(12,12,255)"  stroke="rgb(12,12,255)" stroke-width="1" font-size="16" >N</text>
<text x="250.826213" y="248.000000" fill="rgb(12,12,255)"  stroke="rgb(12,12,255)" stroke-width="1" font-size="16" >N</text>
<text x="196.185197" y="228.000000" fill="rgb(102,102,102)"  stroke="rgb(102,102,102)" stroke-width="1" font-size="16" >H</text>
<text x="208.185197" y="231.680000" fill="rgb(102,102,102)"  stroke="rgb(102,102,102)" stroke-width="1" font-size="13" >3</text>
<text x="214.685197" y="228.000000" fill="rgb(102,102,102)"  stroke="rgb(102,102,102)" stroke-width="1" font-size="16" >C</text>
<text x="252.826213" y="288.000000" fill="rgb(102,102,102)"  stroke="rgb(102,102,102)" stroke-width="1" font-size="16" >CH</text>
<text x="276.826213" y="291.680000" fill="rgb(102,102,102)"  stroke="rgb(102,102,102)" stroke-width="1" font-size="13" >3</text>
<text x="28.404544" y="183.352343" fill="rgb(102,102,102)"  stroke="rgb(102,102,102)" stroke-width="1" font-size="16" >H</text>
<text x="40.404544" y="187.032343" fill="rgb(102,102,102)"  stroke="rgb(102,102,102)" stroke-width="1" font-size="13" >3</text>
<text x="46.904544" y="183.352343" fill="rgb(102,102,102)"  stroke="rgb(102,102,102)" stroke-width="1" font-size="16" >C</text>
<text font-size="18.000000" fill ="black" font-family="sans-serif"
x="10.000000" y="20.000000" ></text>
<title> - OBDepict</title>
</svg>
