<?xml version="1.0"?>
<svg xmlns="http://www.w3.org/2000/svg"
xmlns:xlink="http://www.w3.org/1999/xlink" xmlns:cml="http://www.xml-cml.org/schema" width="534.082" height="281.397" x="0" y="0" font-family="sans-serif" stroke="rgb(0,0,0)" stroke-width="1"  stroke-linecap="round">
<rect x="0%" y="0%" width="100%" height="100%" stroke-width="0" fill="rgb(255,255,255)"  />
<line x1="436.5" y1="201.3" x2="439.3" y2="228.2" stroke="rgb(0,0,0)"  stroke-width="1.0"/>
<line x1="430.6" y1="201.9" x2="433.4" y2="228.8" stroke="rgb(0,0,0)"  stroke-width="1.0"/>
<line x1="397.0" y1="185.3" x2="364.6" y2="208.9" stroke="rgb(0,0,0)"  stroke-width="1.0"/>
<line x1="322.8" y1="148.9" x2="324.0" y2="150.0" stroke="rgb(0,0,0)"  stroke-width="1.0"/>
<line x1="325.2" y1="145.3" x2="327.3" y2="147.3" stroke="rgb(0,0,0)"  stroke-width="1.0"/>
<line x1="327.6" y1="141.7" x2="330.7" y2="144.5" stroke="rgb(0,0,0)"  stroke-width="1.0"/>
<line x1="330.0" y1="138.1" x2="334.0" y2="141.7" stroke="rgb(0,0,0)"  stroke-width="1.0"/>
<line x1="332.3" y1="134.5" x2="337.3" y2="139.0" stroke="rgb(0,0,0)"  stroke-width="1.0"/>
<line x1="334.7" y1="130.9" x2="340.7" y2="136.2" stroke="rgb(0,0,0)"  stroke-width="1.0"/>
<line x1="483.6" y1="122.5" x2="461.7" y2="138.3" stroke="rgb(0,0,0)"  stroke-width="1.0"/>
<polygon points="280.000000 149.282032 256.535898 116.641016 263.464102 112.641016 " stroke-width="1.000000" fill="rgb(0,0,0)"  stroke="rgb(0,0,0)" />
<line x1="260.0" y1="114.6" x2="220.0" y2="114.6" stroke="rgb(0,0,0)"  stroke-width="1.0"/>
<line x1="364.6" y1="208.9" x2="340.0" y2="197.9" stroke="rgb(0,0,0)"  stroke-width="1.0"/>
<polygon points="80.000000 66.800000 76.000000 53.200000 84.000000 53.200000 " stroke-width="1.000000" fill="rgb(0,0,0)"  stroke="rgb(0,0,0)" />
<line x1="220.0" y1="114.6" x2="206.5" y2="91.3" stroke="rgb(0,0,0)"  stroke-width="1.0"/>
<line x1="144.1" y1="80.8" x2="144.1" y2="79.2" stroke="rgb(0,0,0)"  stroke-width="1.0"/>
<line x1="141.9" y1="81.4" x2="141.9" y2="78.6" stroke="rgb(0,0,0)"  stroke-width="1.0"/>
<line x1="139.7" y1="82.1" x2="139.7" y2="77.9" stroke="rgb(0,0,0)"  stroke-width="1.0"/>
<line x1="137.6" y1="82.7" x2="137.6" y2="77.3" stroke="rgb(0,0,0)"  stroke-width="1.0"/>
<line x1="135.4" y1="83.4" x2="135.4" y2="76.6" stroke="rgb(0,0,0)"  stroke-width="1.0"/>
<line x1="133.2" y1="84.0" x2="133.2" y2="76.0" stroke="rgb(0,0,0)"  stroke-width="1.0"/>
<line x1="160.0" y1="53.0" x2="160.0" y2="67.0" stroke="rgb(0,0,0)"  stroke-width="1.0"/>
<line x1="187.0" y1="80.0" x2="173.0" y2="80.0" stroke="rgb(0,0,0)"  stroke-width="1.0"/>
<line x1="157.0" y1="107.0" x2="157.0" y2="93.0" stroke="rgb(0,0,0)"  stroke-width="1.0"/>
<line x1="163.0" y1="107.0" x2="163.0" y2="93.0" stroke="rgb(0,0,0)"  stroke-width="1.0"/>
<line x1="107.0" y1="80.0" x2="93.0" y2="80.0" stroke="rgb(0,0,0)"  stroke-width="1.0"/>
<line x1="53.0" y1="80.0" x2="67.0" y2="80.0" stroke="rgb(0,0,0)"  stroke-width="1.0"/>
<line x1="77.0" y1="107.0" x2="77.0" y2="93.0" stroke="rgb(0,0,0)"  stroke-width="1.0"/>
<line x1="83.0" y1="107.0" x2="83.0" y2="93.0" stroke="rgb(0,0,0)"  stroke-width="1.0"/>
<line x1="319.8" y1="153.5" x2="325.4" y2="179.9" stroke="rgb(0,0,0)"  stroke-width="1.0"/>
<line x1="316.8" y1="199.1" x2="293.5" y2="212.6" stroke="rgb(0,0,0)"  stroke-width="1.0"/>
<line x1="293.5" y1="212.6" x2="273.4" y2="194.5" stroke="rgb(0,0,0)"  stroke-width="1.0"/>
<line x1="269.0" y1="173.9" x2="280.0" y2="149.3" stroke="rgb(0,0,0)"  stroke-width="1.0"/>
<line x1="280.0" y1="149.3" x2="319.8" y2="153.5" stroke="rgb(0,0,0)"  stroke-width="1.0"/>
<line x1="433.5" y1="201.6" x2="455.4" y2="185.7" stroke="rgb(0,0,0)"  stroke-width="1.0"/>
<line x1="464.5" y1="165.2" x2="461.7" y2="138.3" stroke="rgb(0,0,0)"  stroke-width="1.0"/>
<line x1="461.7" y1="138.3" x2="437.2" y2="127.4" stroke="rgb(0,0,0)"  stroke-width="1.0"/>
<line x1="453.3" y1="142.5" x2="436.1" y2="134.8" stroke="rgb(0,0,0)"  stroke-width="1.0"/>
<line x1="414.7" y1="129.7" x2="392.8" y2="145.6" stroke="rgb(0,0,0)"  stroke-width="1.0"/>
<line x1="392.8" y1="145.6" x2="397.0" y2="185.3" stroke="rgb(0,0,0)"  stroke-width="1.0"/>
<line x1="400.6" y1="150.8" x2="403.5" y2="178.6" stroke="rgb(0,0,0)"  stroke-width="1.0"/>
<line x1="397.0" y1="185.3" x2="433.5" y2="201.6" stroke="rgb(0,0,0)"  stroke-width="1.0"/>
<text x="342.546100" y="131.737378" fill="rgb(102,102,102)"  stroke="rgb(102,102,102)" stroke-width="1" font-size="16" >CH</text>
<text x="366.546100" y="135.417378" fill="rgb(102,102,102)"  stroke="rgb(102,102,102)" stroke-width="1" font-size="13" >3</text>
<text x="490.081881" y="122.812900" fill="rgb(102,102,102)"  stroke="rgb(102,102,102)" stroke-width="1" font-size="16" >CH</text>
<text x="514.081881" y="126.492900" fill="rgb(102,102,102)"  stroke="rgb(102,102,102)" stroke-width="1" font-size="13" >3</text>
<text x="459.902340" y="186.105186" fill="rgb(12,12,255)"  stroke="rgb(12,12,255)" stroke-width="1" font-size="16" >NH</text>
<text x="322.097343" y="200.589075" fill="rgb(12,12,255)"  stroke="rgb(12,12,255)" stroke-width="1" font-size="16" >N</text>
<text x="419.179383" y="130.054845" fill="rgb(12,12,255)"  stroke="rgb(12,12,255)" stroke-width="1" font-size="16" >N</text>
<text x="431.722798" y="249.397472" fill="rgb(255,12,12)"  stroke="rgb(255,12,12)" stroke-width="1" font-size="16" >O</text>
<text x="164.800000" y="35.968000" fill="rgb(255,12,12)"  stroke="rgb(255,12,12)" stroke-width="1" font-size="32" >-</text>
<text x="154.000000" y="48.000000" fill="rgb(255,12,12)"  stroke="rgb(255,12,12)" stroke-width="1" font-size="16" >O</text>
<text x="74.000000" y="48.000000" fill="rgb(255,12,12)"  stroke="rgb(255,12,12)" stroke-width="1" font-size="16" >OH</text>
<text x="194.000000" y="88.000000" fill="rgb(255,12,12)"  stroke="rgb(255,12,12)" stroke-width="1" font-size="16" >O</text>
<text x="114.000000" y="88.000000" fill="rgb(255,12,12)"  stroke="rgb(255,12,12)" stroke-width="1" font-size="16" >O</text>
<text x="44.800000" y="75.968000" fill="rgb(255,12,12)"  stroke="rgb(255,12,12)" stroke-width="1" font-size="32" >-</text>
<text x="34.000000" y="88.000000" fill="rgb(255,12,12)"  stroke="rgb(255,12,12)" stroke-width="1" font-size="16" >O</text>
<text x="154.000000" y="128.000000" fill="rgb(255,12,12)"  stroke="rgb(255,12,12)" stroke-width="1" font-size="16" >O</text>
<text x="74.000000" y="128.000000" fill="rgb(255,12,12)"  stroke="rgb(255,12,12)" stroke-width="1" font-size="16" >O</text>
<text x="257.730534" y="193.823851" fill="rgb(178,178,0)"  stroke="rgb(178,178,0)" stroke-width="1" font-size="16" >S</text>
<text x="154.000000" y="88.000000" fill="rgb(255,127,0)"  stroke="rgb(255,127,0)" stroke-width="1" font-size="16" >P</text>
<text x="74.000000" y="88.000000" fill="rgb(255,127,0)"  stroke="rgb(255,127,0)" stroke-width="1" font-size="16" >P</text>
<text font-size="18.000000" fill ="black" font-family="sans-serif"
x="10.000000" y="20.000000" >ligand</text>
<title>ligand - OBDepict</title>
</svg>
