<?xml version="1.0"?>
<svg xmlns="http://www.w3.org/2000/svg"
xmlns:xlink="http://www.w3.org/1999/xlink" xmlns:cml="http://www.xml-cml.org/schema" width="572.317" height="377" x="0" y="0" font-family="sans-serif" stroke="rgb(0,0,0)" stroke-width="1"  stroke-linecap="round">
<rect x="0%" y="0%" width="100%" height="100%" stroke-width="0" fill="rgb(255,255,255)"  />
<line x1="211.5" y1="50.5" x2="195.6" y2="72.4" stroke="rgb(0,0,0)"  stroke-width="1.0"/>
<polygon points="211.881559 108.902498 191.957911 73.987626 199.266275 70.733733 " stroke-width="1.000000" fill="rgb(0,0,0)"  stroke="rgb(0,0,0)" />
<line x1="186.6" y1="144.9" x2="186.5" y2="143.3" stroke="rgb(0,0,0)"  stroke-width="1.0"/>
<line x1="182.4" y1="146.0" x2="182.1" y2="143.1" stroke="rgb(0,0,0)"  stroke-width="1.0"/>
<line x1="178.2" y1="147.1" x2="177.8" y2="142.9" stroke="rgb(0,0,0)"  stroke-width="1.0"/>
<line x1="174.0" y1="148.2" x2="173.5" y2="142.7" stroke="rgb(0,0,0)"  stroke-width="1.0"/>
<line x1="169.8" y1="149.2" x2="169.1" y2="142.6" stroke="rgb(0,0,0)"  stroke-width="1.0"/>
<line x1="165.6" y1="150.3" x2="164.8" y2="142.4" stroke="rgb(0,0,0)"  stroke-width="1.0"/>
<polygon points="135.831217 184.266471 143.077578 158.156506 150.385941 161.410399 " stroke-width="1.000000" fill="rgb(0,0,0)"  stroke="rgb(0,0,0)" />
<line x1="218.3" y1="178.7" x2="216.7" y2="178.3" stroke="rgb(0,0,0)"  stroke-width="1.0"/>
<line x1="218.0" y1="183.0" x2="215.2" y2="182.4" stroke="rgb(0,0,0)"  stroke-width="1.0"/>
<line x1="217.8" y1="187.3" x2="213.7" y2="186.5" stroke="rgb(0,0,0)"  stroke-width="1.0"/>
<line x1="217.5" y1="191.7" x2="212.2" y2="190.5" stroke="rgb(0,0,0)"  stroke-width="1.0"/>
<line x1="217.3" y1="196.0" x2="210.7" y2="194.6" stroke="rgb(0,0,0)"  stroke-width="1.0"/>
<line x1="217.0" y1="200.3" x2="209.2" y2="198.7" stroke="rgb(0,0,0)"  stroke-width="1.0"/>
<polygon points="255.188601 156.999842 280.398082 166.935740 276.398082 173.863943 " stroke-width="1.000000" fill="rgb(0,0,0)"  stroke="rgb(0,0,0)" />
<polygon points="96.050342 188.447610 77.061629 169.117095 83.533765 164.414813 " stroke-width="1.000000" fill="rgb(0,0,0)"  stroke="rgb(0,0,0)" />
<line x1="74.5" y1="226.3" x2="74.4" y2="224.8" stroke="rgb(0,0,0)"  stroke-width="1.0"/>
<line x1="70.3" y1="227.4" x2="70.0" y2="224.6" stroke="rgb(0,0,0)"  stroke-width="1.0"/>
<line x1="66.1" y1="228.5" x2="65.7" y2="224.4" stroke="rgb(0,0,0)"  stroke-width="1.0"/>
<line x1="61.9" y1="229.6" x2="61.4" y2="224.2" stroke="rgb(0,0,0)"  stroke-width="1.0"/>
<line x1="57.7" y1="230.7" x2="57.0" y2="224.0" stroke="rgb(0,0,0)"  stroke-width="1.0"/>
<line x1="53.5" y1="231.8" x2="52.7" y2="223.8" stroke="rgb(0,0,0)"  stroke-width="1.0"/>
<polygon points="103.292286 257.350108 96.045926 283.460073 88.737562 280.206179 " stroke-width="1.000000" fill="rgb(0,0,0)"  stroke="rgb(0,0,0)" />
<polygon points="143.073162 253.168969 169.820640 283.178508 163.348504 287.880790 " stroke-width="1.000000" fill="rgb(0,0,0)"  stroke="rgb(0,0,0)" />
<line x1="166.6" y1="285.5" x2="193.4" y2="282.7" stroke="rgb(0,0,0)"  stroke-width="1.0"/>
<line x1="469.6" y1="232.3" x2="470.4" y2="233.7" stroke="rgb(0,0,0)"  stroke-width="1.0"/>
<line x1="474.8" y1="228.6" x2="476.2" y2="231.0" stroke="rgb(0,0,0)"  stroke-width="1.0"/>
<line x1="480.0" y1="224.8" x2="482.1" y2="228.4" stroke="rgb(0,0,0)"  stroke-width="1.0"/>
<line x1="485.2" y1="221.0" x2="488.0" y2="225.8" stroke="rgb(0,0,0)"  stroke-width="1.0"/>
<line x1="490.5" y1="217.3" x2="493.8" y2="223.1" stroke="rgb(0,0,0)"  stroke-width="1.0"/>
<line x1="495.7" y1="213.5" x2="499.7" y2="220.5" stroke="rgb(0,0,0)"  stroke-width="1.0"/>
<line x1="497.7" y1="217.0" x2="521.1" y2="230.5" stroke="rgb(0,0,0)"  stroke-width="1.0"/>
<polygon points="393.752666 236.999842 368.543185 227.063943 372.543185 220.135740 " stroke-width="1.000000" fill="rgb(0,0,0)"  stroke="rgb(0,0,0)" />
<polygon points="393.752666 276.999842 372.543185 293.863943 368.543185 286.935740 " stroke-width="1.000000" fill="rgb(0,0,0)"  stroke="rgb(0,0,0)" />
<line x1="429.2" y1="302.4" x2="427.6" y2="302.4" stroke="rgb(0,0,0)"  stroke-width="1.0"/>
<line x1="429.8" y1="306.6" x2="427.0" y2="306.6" stroke="rgb(0,0,0)"  stroke-width="1.0"/>
<line x1="430.5" y1="310.9" x2="426.3" y2="310.9" stroke="rgb(0,0,0)"  stroke-width="1.0"/>
<line x1="431.1" y1="315.2" x2="425.7" y2="315.2" stroke="rgb(0,0,0)"  stroke-width="1.0"/>
<line x1="431.8" y1="319.5" x2="425.0" y2="319.5" stroke="rgb(0,0,0)"  stroke-width="1.0"/>
<line x1="432.4" y1="323.8" x2="424.4" y2="323.8" stroke="rgb(0,0,0)"  stroke-width="1.0"/>
<polygon points="463.034698 276.999842 488.244179 286.935740 484.244179 293.863943 " stroke-width="1.000000" fill="rgb(0,0,0)"  stroke="rgb(0,0,0)" />
<line x1="358.3" y1="91.6" x2="359.9" y2="91.6" stroke="rgb(0,0,0)"  stroke-width="1.0"/>
<line x1="357.7" y1="87.4" x2="360.6" y2="87.4" stroke="rgb(0,0,0)"  stroke-width="1.0"/>
<line x1="357.0" y1="83.1" x2="361.2" y2="83.1" stroke="rgb(0,0,0)"  stroke-width="1.0"/>
<line x1="356.4" y1="78.8" x2="361.8" y2="78.8" stroke="rgb(0,0,0)"  stroke-width="1.0"/>
<line x1="355.8" y1="74.5" x2="362.5" y2="74.5" stroke="rgb(0,0,0)"  stroke-width="1.0"/>
<line x1="355.1" y1="70.2" x2="363.1" y2="70.2" stroke="rgb(0,0,0)"  stroke-width="1.0"/>
<line x1="398.8" y1="159.0" x2="398.0" y2="160.4" stroke="rgb(0,0,0)"  stroke-width="1.0"/>
<line x1="402.8" y1="160.6" x2="401.4" y2="163.1" stroke="rgb(0,0,0)"  stroke-width="1.0"/>
<line x1="406.9" y1="162.2" x2="404.8" y2="165.8" stroke="rgb(0,0,0)"  stroke-width="1.0"/>
<line x1="410.9" y1="163.8" x2="408.2" y2="168.5" stroke="rgb(0,0,0)"  stroke-width="1.0"/>
<line x1="414.9" y1="165.3" x2="411.6" y2="171.2" stroke="rgb(0,0,0)"  stroke-width="1.0"/>
<line x1="419.0" y1="166.9" x2="415.0" y2="173.9" stroke="rgb(0,0,0)"  stroke-width="1.0"/>
<polygon points="359.111650 176.999842 363.111650 203.799842 355.111650 203.799842 " stroke-width="1.000000" fill="rgb(0,0,0)"  stroke="rgb(0,0,0)" />
<line x1="320.2" y1="160.4" x2="319.4" y2="159.0" stroke="rgb(0,0,0)"  stroke-width="1.0"/>
<line x1="316.8" y1="163.1" x2="315.4" y2="160.6" stroke="rgb(0,0,0)"  stroke-width="1.0"/>
<line x1="313.4" y1="165.8" x2="311.4" y2="162.2" stroke="rgb(0,0,0)"  stroke-width="1.0"/>
<line x1="310.0" y1="168.5" x2="307.3" y2="163.8" stroke="rgb(0,0,0)"  stroke-width="1.0"/>
<line x1="306.7" y1="171.2" x2="303.3" y2="165.3" stroke="rgb(0,0,0)"  stroke-width="1.0"/>
<line x1="303.3" y1="173.9" x2="299.3" y2="166.9" stroke="rgb(0,0,0)"  stroke-width="1.0"/>
<polygon points="324.470634 116.999842 299.261153 107.063943 303.261153 100.135740 " stroke-width="1.000000" fill="rgb(0,0,0)"  stroke="rgb(0,0,0)" />
<line x1="211.9" y1="108.9" x2="191.9" y2="143.5" stroke="rgb(0,0,0)"  stroke-width="1.0"/>
<line x1="191.9" y1="143.5" x2="218.6" y2="173.3" stroke="rgb(0,0,0)"  stroke-width="1.0"/>
<line x1="218.6" y1="173.3" x2="255.2" y2="157.0" stroke="rgb(0,0,0)"  stroke-width="1.0"/>
<line x1="255.2" y1="157.0" x2="252.4" y2="130.1" stroke="rgb(0,0,0)"  stroke-width="1.0"/>
<line x1="238.3" y1="114.5" x2="211.9" y2="108.9" stroke="rgb(0,0,0)"  stroke-width="1.0"/>
<line x1="135.8" y1="184.3" x2="96.1" y2="188.4" stroke="rgb(0,0,0)"  stroke-width="1.0"/>
<line x1="96.1" y1="188.4" x2="79.8" y2="225.0" stroke="rgb(0,0,0)"  stroke-width="1.0"/>
<line x1="79.8" y1="225.0" x2="103.3" y2="257.4" stroke="rgb(0,0,0)"  stroke-width="1.0"/>
<line x1="103.3" y1="257.4" x2="143.1" y2="253.2" stroke="rgb(0,0,0)"  stroke-width="1.0"/>
<line x1="143.1" y1="253.2" x2="154.1" y2="228.5" stroke="rgb(0,0,0)"  stroke-width="1.0"/>
<line x1="151.7" y1="206.1" x2="135.8" y2="184.3" stroke="rgb(0,0,0)"  stroke-width="1.0"/>
<line x1="393.8" y1="237.0" x2="393.8" y2="277.0" stroke="rgb(0,0,0)"  stroke-width="1.0"/>
<line x1="393.8" y1="277.0" x2="428.4" y2="297.0" stroke="rgb(0,0,0)"  stroke-width="1.0"/>
<line x1="428.4" y1="297.0" x2="463.0" y2="277.0" stroke="rgb(0,0,0)"  stroke-width="1.0"/>
<line x1="463.0" y1="277.0" x2="463.0" y2="237.0" stroke="rgb(0,0,0)"  stroke-width="1.0"/>
<line x1="463.0" y1="237.0" x2="439.7" y2="223.5" stroke="rgb(0,0,0)"  stroke-width="1.0"/>
<line x1="417.1" y1="223.5" x2="393.8" y2="237.0" stroke="rgb(0,0,0)"  stroke-width="1.0"/>
<line x1="393.8" y1="157.0" x2="359.1" y2="177.0" stroke="rgb(0,0,0)"  stroke-width="1.0"/>
<line x1="359.1" y1="177.0" x2="324.5" y2="157.0" stroke="rgb(0,0,0)"  stroke-width="1.0"/>
<line x1="324.5" y1="157.0" x2="324.5" y2="117.0" stroke="rgb(0,0,0)"  stroke-width="1.0"/>
<line x1="324.5" y1="117.0" x2="359.1" y2="97.0" stroke="rgb(0,0,0)"  stroke-width="1.0"/>
<line x1="359.1" y1="97.0" x2="393.8" y2="117.0" stroke="rgb(0,0,0)"  stroke-width="1.0"/>
<line x1="393.8" y1="117.0" x2="393.8" y2="157.0" stroke="rgb(0,0,0)"  stroke-width="1.0"/>
<text x="213.123503" y="48.000000" fill="rgb(255,12,12)"  stroke="rgb(255,12,12)" stroke-width="1" font-size="16" >OH</text>
<text x="245.007463" y="125.218966" fill="rgb(255,12,12)"  stroke="rgb(255,12,12)" stroke-width="1" font-size="16" >O</text>
<text x="146.100683" y="155.724653" fill="rgb(255,12,12)"  stroke="rgb(255,12,12)" stroke-width="1" font-size="16" >O</text>
<text x="192.330316" y="220.395211" fill="rgb(255,12,12)"  stroke="rgb(255,12,12)" stroke-width="1" font-size="16" >HO</text>
<text x="77.338931" y="152.054930" fill="rgb(12,12,255)"  stroke="rgb(12,12,255)" stroke-width="1" font-size="16" >+</text>
<text x="46.538931" y="164.086930" fill="rgb(12,12,255)"  stroke="rgb(12,12,255)" stroke-width="1" font-size="16" >H</text>
<text x="58.538931" y="167.766930" fill="rgb(12,12,255)"  stroke="rgb(12,12,255)" stroke-width="1" font-size="13" >3</text>
<text x="65.038931" y="164.086930" fill="rgb(12,12,255)"  stroke="rgb(12,12,255)" stroke-width="1" font-size="16" >N</text>
<text x="22.000000" y="237.170566" fill="rgb(255,12,12)"  stroke="rgb(255,12,12)" stroke-width="1" font-size="16" >HO</text>
<text x="69.022820" y="301.891926" fill="rgb(255,12,12)"  stroke="rgb(255,12,12)" stroke-width="1" font-size="16" >HO</text>
<text x="153.342627" y="224.627151" fill="rgb(255,12,12)"  stroke="rgb(255,12,12)" stroke-width="1" font-size="16" >O</text>
<text x="211.165448" y="277.316510" fill="rgb(12,12,255)"  stroke="rgb(12,12,255)" stroke-width="1" font-size="16" >+</text>
<text x="202.365448" y="289.348510" fill="rgb(12,12,255)"  stroke="rgb(12,12,255)" stroke-width="1" font-size="16" >NH</text>
<text x="226.365448" y="293.028510" fill="rgb(12,12,255)"  stroke="rgb(12,12,255)" stroke-width="1" font-size="13" >3</text>
<text x="363.011650" y="293.723842" fill="rgb(12,12,255)"  stroke="rgb(12,12,255)" stroke-width="1" font-size="13" >+</text>
<text x="333.111650" y="304.999842" fill="rgb(12,12,255)"  stroke="rgb(12,12,255)" stroke-width="1" font-size="16" >H</text>
<text x="345.111650" y="308.679842" fill="rgb(12,12,255)"  stroke="rgb(12,12,255)" stroke-width="1" font-size="13" >3</text>
<text x="351.611650" y="304.999842" fill="rgb(12,12,255)"  stroke="rgb(12,12,255)" stroke-width="1" font-size="16" >N</text>
<text x="422.393682" y="344.999842" fill="rgb(255,12,12)"  stroke="rgb(255,12,12)" stroke-width="1" font-size="16" >OH</text>
<text x="491.675715" y="304.999842" fill="rgb(255,12,12)"  stroke="rgb(255,12,12)" stroke-width="1" font-size="16" >OH</text>
<text x="537.116731" y="232.967842" fill="rgb(12,12,255)"  stroke="rgb(12,12,255)" stroke-width="1" font-size="16" >+</text>
<text x="528.316731" y="244.999842" fill="rgb(12,12,255)"  stroke="rgb(12,12,255)" stroke-width="1" font-size="16" >NH</text>
<text x="552.316731" y="248.679842" fill="rgb(12,12,255)"  stroke="rgb(12,12,255)" stroke-width="1" font-size="13" >3</text>
<text x="422.393682" y="224.999842" fill="rgb(255,12,12)"  stroke="rgb(255,12,12)" stroke-width="1" font-size="16" >O</text>
<text x="363.911650" y="52.967842" fill="rgb(12,12,255)"  stroke="rgb(12,12,255)" stroke-width="1" font-size="16" >+</text>
<text x="355.111650" y="64.999842" fill="rgb(12,12,255)"  stroke="rgb(12,12,255)" stroke-width="1" font-size="16" >NH</text>
<text x="379.111650" y="68.679842" fill="rgb(12,12,255)"  stroke="rgb(12,12,255)" stroke-width="1" font-size="13" >3</text>
<text x="432.293682" y="173.723842" fill="rgb(12,12,255)"  stroke="rgb(12,12,255)" stroke-width="1" font-size="13" >+</text>
<text x="424.393682" y="184.999842" fill="rgb(12,12,255)"  stroke="rgb(12,12,255)" stroke-width="1" font-size="16" >NH</text>
<text x="448.393682" y="188.679842" fill="rgb(12,12,255)"  stroke="rgb(12,12,255)" stroke-width="1" font-size="13" >3</text>
<text x="353.111650" y="224.999842" fill="rgb(255,12,12)"  stroke="rgb(255,12,12)" stroke-width="1" font-size="16" >O</text>
<text x="283.829618" y="184.999842" fill="rgb(255,12,12)"  stroke="rgb(255,12,12)" stroke-width="1" font-size="16" >O</text>
<text x="271.829618" y="104.999842" fill="rgb(255,12,12)"  stroke="rgb(255,12,12)" stroke-width="1" font-size="16" >HO</text>
<text font-size="18.000000" fill ="black" font-family="sans-serif"
x="10.000000" y="20.000000" >1NEM.B</text>
<title>1NEM.B - OBDepict</title>
</svg>
