<?xml version="1.0"?>
<svg xmlns="http://www.w3.org/2000/svg"
xmlns:xlink="http://www.w3.org/1999/xlink" xmlns:cml="http://www.xml-cml.org/schema" width="424.579" height="207.659" x="0" y="0" font-family="sans-serif" stroke="rgb(0,0,0)" stroke-width="1"  stroke-linecap="round">
<rect x="0%" y="0%" width="100%" height="100%" stroke-width="0" fill="rgb(255,255,255)"  />
<line x1="317.6" y1="102.4" x2="331.6" y2="102.4" stroke="rgb(0,0,0)"  stroke-width="1.0"/>
<line x1="317.6" y1="108.4" x2="331.6" y2="108.4" stroke="rgb(0,0,0)"  stroke-width="1.0"/>
<line x1="344.6" y1="118.4" x2="344.6" y2="132.4" stroke="rgb(0,0,0)"  stroke-width="1.0"/>
<line x1="357.6" y1="105.4" x2="371.6" y2="105.4" stroke="rgb(0,0,0)"  stroke-width="1.0"/>
<line x1="344.6" y1="92.4" x2="344.6" y2="78.4" stroke="rgb(0,0,0)"  stroke-width="1.0"/>
<line x1="333.3" y1="58.9" x2="309.9" y2="45.4" stroke="rgb(0,0,0)"  stroke-width="1.0"/>
<line x1="281.8" y1="60.7" x2="282.6" y2="62.1" stroke="rgb(0,0,0)"  stroke-width="1.0"/>
<line x1="287.0" y1="56.9" x2="288.5" y2="59.4" stroke="rgb(0,0,0)"  stroke-width="1.0"/>
<line x1="292.3" y1="53.2" x2="294.4" y2="56.8" stroke="rgb(0,0,0)"  stroke-width="1.0"/>
<line x1="297.5" y1="49.4" x2="300.2" y2="54.1" stroke="rgb(0,0,0)"  stroke-width="1.0"/>
<line x1="302.7" y1="45.7" x2="306.1" y2="51.5" stroke="rgb(0,0,0)"  stroke-width="1.0"/>
<line x1="307.9" y1="41.9" x2="311.9" y2="48.8" stroke="rgb(0,0,0)"  stroke-width="1.0"/>
<line x1="206.6" y1="79.1" x2="206.7" y2="77.5" stroke="rgb(0,0,0)"  stroke-width="1.0"/>
<line x1="202.2" y1="79.2" x2="202.5" y2="76.4" stroke="rgb(0,0,0)"  stroke-width="1.0"/>
<line x1="197.9" y1="79.4" x2="198.3" y2="75.3" stroke="rgb(0,0,0)"  stroke-width="1.0"/>
<line x1="193.6" y1="79.6" x2="194.2" y2="74.2" stroke="rgb(0,0,0)"  stroke-width="1.0"/>
<line x1="189.3" y1="79.8" x2="190.0" y2="73.1" stroke="rgb(0,0,0)"  stroke-width="1.0"/>
<line x1="184.9" y1="80.0" x2="185.8" y2="72.0" stroke="rgb(0,0,0)"  stroke-width="1.0"/>
<line x1="76.5" y1="111.6" x2="51.9" y2="100.6" stroke="rgb(0,0,0)"  stroke-width="1.0"/>
<polygon points="231.990416 113.463171 224.744056 139.573136 217.435693 136.319243 " stroke-width="1.000000" fill="rgb(0,0,0)"  stroke="rgb(0,0,0)" />
<polygon points="271.116320 105.146703 293.709124 120.106824 288.356079 126.051983 " stroke-width="1.000000" fill="rgb(0,0,0)"  stroke="rgb(0,0,0)" />
<line x1="275.3" y1="65.4" x2="250.6" y2="54.4" stroke="rgb(0,0,0)"  stroke-width="1.0"/>
<line x1="230.1" y1="58.8" x2="212.0" y2="78.8" stroke="rgb(0,0,0)"  stroke-width="1.0"/>
<line x1="212.0" y1="78.8" x2="232.0" y2="113.5" stroke="rgb(0,0,0)"  stroke-width="1.0"/>
<line x1="232.0" y1="113.5" x2="271.1" y2="105.1" stroke="rgb(0,0,0)"  stroke-width="1.0"/>
<line x1="271.1" y1="105.1" x2="275.3" y2="65.4" stroke="rgb(0,0,0)"  stroke-width="1.0"/>
<line x1="152.2" y1="40.0" x2="165.7" y2="63.4" stroke="rgb(0,0,0)"  stroke-width="1.0"/>
<line x1="163.5" y1="84.3" x2="145.4" y2="104.4" stroke="rgb(0,0,0)"  stroke-width="1.0"/>
<line x1="145.4" y1="104.4" x2="108.9" y2="88.1" stroke="rgb(0,0,0)"  stroke-width="1.0"/>
<line x1="142.9" y1="95.3" x2="117.3" y2="84.0" stroke="rgb(0,0,0)"  stroke-width="1.0"/>
<line x1="108.9" y1="88.1" x2="111.7" y2="61.2" stroke="rgb(0,0,0)"  stroke-width="1.0"/>
<line x1="126.0" y1="45.6" x2="152.2" y2="40.0" stroke="rgb(0,0,0)"  stroke-width="1.0"/>
<line x1="129.4" y1="52.2" x2="147.8" y2="48.3" stroke="rgb(0,0,0)"  stroke-width="1.0"/>
<line x1="145.4" y1="104.4" x2="148.3" y2="131.2" stroke="rgb(0,0,0)"  stroke-width="1.0"/>
<line x1="138.9" y1="151.9" x2="117.3" y2="167.7" stroke="rgb(0,0,0)"  stroke-width="1.0"/>
<line x1="133.1" y1="147.3" x2="117.9" y2="158.3" stroke="rgb(0,0,0)"  stroke-width="1.0"/>
<line x1="117.3" y1="167.7" x2="92.6" y2="156.7" stroke="rgb(0,0,0)"  stroke-width="1.0"/>
<line x1="79.3" y1="138.3" x2="76.5" y2="111.6" stroke="rgb(0,0,0)"  stroke-width="1.0"/>
<line x1="86.3" y1="135.5" x2="84.3" y2="116.8" stroke="rgb(0,0,0)"  stroke-width="1.0"/>
<line x1="76.5" y1="111.6" x2="108.9" y2="88.1" stroke="rgb(0,0,0)"  stroke-width="1.0"/>
<text x="298.579491" y="113.365827" fill="rgb(255,12,12)"  stroke="rgb(255,12,12)" stroke-width="1" font-size="16" >O</text>
<text x="338.579491" y="113.365827" fill="rgb(255,127,0)"  stroke="rgb(255,127,0)" stroke-width="1" font-size="16" >P</text>
<text x="349.379491" y="141.333827" fill="rgb(255,12,12)"  stroke="rgb(255,12,12)" stroke-width="1" font-size="32" >-</text>
<text x="338.579491" y="153.365827" fill="rgb(255,12,12)"  stroke="rgb(255,12,12)" stroke-width="1" font-size="16" >O</text>
<text x="389.379491" y="101.333827" fill="rgb(255,12,12)"  stroke="rgb(255,12,12)" stroke-width="1" font-size="32" >-</text>
<text x="378.579491" y="113.365827" fill="rgb(255,12,12)"  stroke="rgb(255,12,12)" stroke-width="1" font-size="16" >O</text>
<text x="338.579491" y="73.365827" fill="rgb(255,12,12)"  stroke="rgb(255,12,12)" stroke-width="1" font-size="16" >O</text>
<text x="232.755641" y="57.096362" fill="rgb(255,12,12)"  stroke="rgb(255,12,12)" stroke-width="1" font-size="16" >O</text>
<text x="166.209541" y="82.641016" fill="rgb(12,12,255)"  stroke="rgb(12,12,255)" stroke-width="1" font-size="16" >N</text>
<text x="143.625455" y="152.147685" fill="rgb(12,12,255)"  stroke="rgb(12,12,255)" stroke-width="1" font-size="16" >N</text>
<text x="74.722957" y="159.389629" fill="rgb(12,12,255)"  stroke="rgb(12,12,255)" stroke-width="1" font-size="16" >N</text>
<text x="14.000000" y="103.339288" fill="rgb(12,12,255)"  stroke="rgb(12,12,255)" stroke-width="1" font-size="16" >H</text>
<text x="26.000000" y="107.019288" fill="rgb(12,12,255)"  stroke="rgb(12,12,255)" stroke-width="1" font-size="13" >2</text>
<text x="32.500000" y="103.339288" fill="rgb(12,12,255)"  stroke="rgb(12,12,255)" stroke-width="1" font-size="16" >N</text>
<text x="107.083637" y="56.316468" fill="rgb(12,12,255)"  stroke="rgb(12,12,255)" stroke-width="1" font-size="16" >N</text>
<text x="197.720951" y="158.004989" fill="rgb(255,12,12)"  stroke="rgb(255,12,12)" stroke-width="1" font-size="16" >HO</text>
<text x="294.842114" y="139.911927" fill="rgb(255,12,12)"  stroke="rgb(255,12,12)" stroke-width="1" font-size="16" >OH</text>
<text font-size="18.000000" fill ="black" font-family="sans-serif"
x="10.000000" y="20.000000" ></text>
<title> - OBDepict</title>
</svg>
