<?xml version="1.0"?>
<svg xmlns="http://www.w3.org/2000/svg"
xmlns:xlink="http://www.w3.org/1999/xlink" xmlns:cml="http://www.xml-cml.org/schema" width="586.801" height="467.882" x="0" y="0" font-family="sans-serif" stroke="rgb(0,0,0)" stroke-width="1"  stroke-linecap="round">
<rect x="0%" y="0%" width="100%" height="100%" stroke-width="0" fill="rgb(255,255,255)"  />
<line x1="404.0" y1="200.0" x2="403.2" y2="198.6" stroke="rgb(0,0,0)"  stroke-width="1.0"/>
<line x1="400.6" y1="202.7" x2="399.2" y2="200.2" stroke="rgb(0,0,0)"  stroke-width="1.0"/>
<line x1="397.2" y1="205.4" x2="395.1" y2="201.8" stroke="rgb(0,0,0)"  stroke-width="1.0"/>
<line x1="393.8" y1="208.1" x2="391.1" y2="203.4" stroke="rgb(0,0,0)"  stroke-width="1.0"/>
<line x1="390.4" y1="210.8" x2="387.1" y2="205.0" stroke="rgb(0,0,0)"  stroke-width="1.0"/>
<line x1="387.0" y1="213.5" x2="383.0" y2="206.6" stroke="rgb(0,0,0)"  stroke-width="1.0"/>
<polygon points="373.595539 336.620345 377.595539 363.420345 369.595539 363.420345 " stroke-width="1.000000" fill="rgb(0,0,0)"  stroke="rgb(0,0,0)" />
<line x1="273.9" y1="273.2" x2="274.7" y2="274.6" stroke="rgb(0,0,0)"  stroke-width="1.0"/>
<line x1="277.3" y1="270.5" x2="278.7" y2="273.0" stroke="rgb(0,0,0)"  stroke-width="1.0"/>
<line x1="280.7" y1="267.9" x2="282.8" y2="271.5" stroke="rgb(0,0,0)"  stroke-width="1.0"/>
<line x1="284.1" y1="265.2" x2="286.8" y2="269.9" stroke="rgb(0,0,0)"  stroke-width="1.0"/>
<line x1="287.5" y1="262.5" x2="290.8" y2="268.3" stroke="rgb(0,0,0)"  stroke-width="1.0"/>
<line x1="290.9" y1="259.8" x2="294.9" y2="266.7" stroke="rgb(0,0,0)"  stroke-width="1.0"/>
<polygon points="143.073162 318.256214 155.589739 294.223418 162.061874 298.925700 " stroke-width="1.000000" fill="rgb(0,0,0)"  stroke="rgb(0,0,0)" />
<line x1="161.8" y1="91.5" x2="153.5" y2="52.4" stroke="rgb(0,0,0)"  stroke-width="1.0"/>
<line x1="403.2" y1="154.6" x2="404.0" y2="153.2" stroke="rgb(0,0,0)"  stroke-width="1.0"/>
<line x1="399.2" y1="153.0" x2="400.6" y2="150.5" stroke="rgb(0,0,0)"  stroke-width="1.0"/>
<line x1="395.1" y1="151.5" x2="397.2" y2="147.9" stroke="rgb(0,0,0)"  stroke-width="1.0"/>
<line x1="391.1" y1="149.9" x2="393.8" y2="145.2" stroke="rgb(0,0,0)"  stroke-width="1.0"/>
<line x1="387.1" y1="148.3" x2="390.4" y2="142.5" stroke="rgb(0,0,0)"  stroke-width="1.0"/>
<line x1="383.0" y1="146.7" x2="387.0" y2="139.8" stroke="rgb(0,0,0)"  stroke-width="1.0"/>
<polygon points="233.130672 260.350880 223.646048 234.968171 231.471229 233.304877 " stroke-width="1.000000" fill="rgb(0,0,0)"  stroke="rgb(0,0,0)" />
<line x1="234.5" y1="212.5" x2="254.5" y2="194.5" stroke="rgb(0,0,0)"  stroke-width="1.0"/>
<polygon points="103.292286 314.075075 88.737562 291.219004 96.045926 287.965111 " stroke-width="1.000000" fill="rgb(0,0,0)"  stroke="rgb(0,0,0)" />
<line x1="153.5" y1="52.4" x2="127.8" y2="44.0" stroke="rgb(0,0,0)"  stroke-width="1.0"/>
<polygon points="442.877571 136.620345 438.877571 109.820345 446.877571 109.820345 " stroke-width="1.000000" fill="rgb(0,0,0)"  stroke="rgb(0,0,0)" />
<polygon points="408.236555 276.620345 429.446036 259.756244 433.446036 266.684447 " stroke-width="1.000000" fill="rgb(0,0,0)"  stroke="rgb(0,0,0)" />
<polygon points="206.365448 290.076673 179.294147 291.253397 180.130375 283.297222 " stroke-width="1.000000" fill="rgb(0,0,0)"  stroke="rgb(0,0,0)" />
<line x1="74.4" y1="346.7" x2="74.5" y2="345.1" stroke="rgb(0,0,0)"  stroke-width="1.0"/>
<line x1="70.0" y1="346.9" x2="70.3" y2="344.0" stroke="rgb(0,0,0)"  stroke-width="1.0"/>
<line x1="65.7" y1="347.0" x2="66.1" y2="342.9" stroke="rgb(0,0,0)"  stroke-width="1.0"/>
<line x1="61.4" y1="347.2" x2="61.9" y2="341.8" stroke="rgb(0,0,0)"  stroke-width="1.0"/>
<line x1="57.0" y1="347.4" x2="57.7" y2="340.7" stroke="rgb(0,0,0)"  stroke-width="1.0"/>
<line x1="52.7" y1="347.6" x2="53.5" y2="339.7" stroke="rgb(0,0,0)"  stroke-width="1.0"/>
<line x1="481.8" y1="153.2" x2="482.6" y2="154.6" stroke="rgb(0,0,0)"  stroke-width="1.0"/>
<line x1="485.2" y1="150.5" x2="486.6" y2="153.0" stroke="rgb(0,0,0)"  stroke-width="1.0"/>
<line x1="488.5" y1="147.9" x2="490.6" y2="151.5" stroke="rgb(0,0,0)"  stroke-width="1.0"/>
<line x1="491.9" y1="145.2" x2="494.7" y2="149.9" stroke="rgb(0,0,0)"  stroke-width="1.0"/>
<line x1="495.3" y1="142.5" x2="498.7" y2="148.3" stroke="rgb(0,0,0)"  stroke-width="1.0"/>
<line x1="498.7" y1="139.8" x2="502.7" y2="146.7" stroke="rgb(0,0,0)"  stroke-width="1.0"/>
<line x1="372.8" y1="251.3" x2="374.4" y2="251.3" stroke="rgb(0,0,0)"  stroke-width="1.0"/>
<line x1="372.2" y1="247.0" x2="375.0" y2="247.0" stroke="rgb(0,0,0)"  stroke-width="1.0"/>
<line x1="371.5" y1="242.7" x2="375.7" y2="242.7" stroke="rgb(0,0,0)"  stroke-width="1.0"/>
<line x1="370.9" y1="238.4" x2="376.3" y2="238.4" stroke="rgb(0,0,0)"  stroke-width="1.0"/>
<line x1="370.2" y1="234.1" x2="377.0" y2="234.1" stroke="rgb(0,0,0)"  stroke-width="1.0"/>
<line x1="369.6" y1="229.8" x2="377.6" y2="229.8" stroke="rgb(0,0,0)"  stroke-width="1.0"/>
<line x1="223.8" y1="332.4" x2="222.4" y2="331.7" stroke="rgb(0,0,0)"  stroke-width="1.0"/>
<line x1="221.8" y1="338.5" x2="219.2" y2="337.3" stroke="rgb(0,0,0)"  stroke-width="1.0"/>
<line x1="219.8" y1="344.6" x2="216.0" y2="342.9" stroke="rgb(0,0,0)"  stroke-width="1.0"/>
<line x1="217.8" y1="350.7" x2="212.8" y2="348.5" stroke="rgb(0,0,0)"  stroke-width="1.0"/>
<line x1="215.8" y1="356.8" x2="209.6" y2="354.0" stroke="rgb(0,0,0)"  stroke-width="1.0"/>
<line x1="213.8" y1="362.9" x2="206.4" y2="359.6" stroke="rgb(0,0,0)"  stroke-width="1.0"/>
<polygon points="96.050342 382.977574 83.533765 407.010370 77.061629 402.308088 " stroke-width="1.000000" fill="rgb(0,0,0)"  stroke="rgb(0,0,0)" />
<polygon points="477.518587 196.620345 514.159603 213.156244 510.159603 220.084447 " stroke-width="1.000000" fill="rgb(0,0,0)"  stroke="rgb(0,0,0)" />
<polygon points="338.954522 276.620345 313.745042 266.684447 317.745042 259.756244 " stroke-width="1.000000" fill="rgb(0,0,0)"  stroke="rgb(0,0,0)" />
<line x1="210.1" y1="361.3" x2="226.0" y2="383.1" stroke="rgb(0,0,0)"  stroke-width="1.0"/>
<polygon points="135.831217 387.158712 155.754865 422.073584 148.446501 425.327477 " stroke-width="1.000000" fill="rgb(0,0,0)"  stroke="rgb(0,0,0)" />
<line x1="512.2" y1="216.6" x2="535.5" y2="203.1" stroke="rgb(0,0,0)"  stroke-width="1.0"/>
<line x1="334.7" y1="320.0" x2="333.9" y2="318.6" stroke="rgb(0,0,0)"  stroke-width="1.0"/>
<line x1="331.3" y1="322.7" x2="329.9" y2="320.2" stroke="rgb(0,0,0)"  stroke-width="1.0"/>
<line x1="327.9" y1="325.4" x2="325.8" y2="321.8" stroke="rgb(0,0,0)"  stroke-width="1.0"/>
<line x1="324.5" y1="328.1" x2="321.8" y2="323.4" stroke="rgb(0,0,0)"  stroke-width="1.0"/>
<line x1="321.1" y1="330.8" x2="317.8" y2="325.0" stroke="rgb(0,0,0)"  stroke-width="1.0"/>
<line x1="317.7" y1="333.5" x2="313.7" y2="326.6" stroke="rgb(0,0,0)"  stroke-width="1.0"/>
<line x1="254.5" y1="194.5" x2="246.2" y2="155.3" stroke="rgb(0,0,0)"  stroke-width="1.0"/>
<line x1="152.1" y1="423.7" x2="179.0" y2="426.5" stroke="rgb(0,0,0)"  stroke-width="1.0"/>
<line x1="246.2" y1="155.3" x2="220.5" y2="147.0" stroke="rgb(0,0,0)"  stroke-width="1.0"/>
<line x1="205.5" y1="130.3" x2="199.9" y2="103.8" stroke="rgb(0,0,0)"  stroke-width="1.0"/>
<line x1="199.9" y1="103.8" x2="161.8" y2="91.5" stroke="rgb(0,0,0)"  stroke-width="1.0"/>
<line x1="269.7" y1="276.6" x2="233.1" y2="260.4" stroke="rgb(0,0,0)"  stroke-width="1.0"/>
<line x1="233.1" y1="260.4" x2="206.4" y2="290.1" stroke="rgb(0,0,0)"  stroke-width="1.0"/>
<line x1="206.4" y1="290.1" x2="226.4" y2="324.7" stroke="rgb(0,0,0)"  stroke-width="1.0"/>
<line x1="226.4" y1="324.7" x2="252.8" y2="319.1" stroke="rgb(0,0,0)"  stroke-width="1.0"/>
<line x1="266.9" y1="303.5" x2="269.7" y2="276.6" stroke="rgb(0,0,0)"  stroke-width="1.0"/>
<line x1="408.2" y1="316.6" x2="373.6" y2="336.6" stroke="rgb(0,0,0)"  stroke-width="1.0"/>
<line x1="373.6" y1="336.6" x2="339.0" y2="316.6" stroke="rgb(0,0,0)"  stroke-width="1.0"/>
<line x1="339.0" y1="316.6" x2="339.0" y2="276.6" stroke="rgb(0,0,0)"  stroke-width="1.0"/>
<line x1="339.0" y1="276.6" x2="373.6" y2="256.6" stroke="rgb(0,0,0)"  stroke-width="1.0"/>
<line x1="373.6" y1="256.6" x2="408.2" y2="276.6" stroke="rgb(0,0,0)"  stroke-width="1.0"/>
<line x1="408.2" y1="276.6" x2="408.2" y2="316.6" stroke="rgb(0,0,0)"  stroke-width="1.0"/>
<line x1="408.2" y1="196.6" x2="408.2" y2="156.6" stroke="rgb(0,0,0)"  stroke-width="1.0"/>
<line x1="408.2" y1="156.6" x2="442.9" y2="136.6" stroke="rgb(0,0,0)"  stroke-width="1.0"/>
<line x1="442.9" y1="136.6" x2="477.5" y2="156.6" stroke="rgb(0,0,0)"  stroke-width="1.0"/>
<line x1="477.5" y1="156.6" x2="477.5" y2="196.6" stroke="rgb(0,0,0)"  stroke-width="1.0"/>
<line x1="477.5" y1="196.6" x2="454.1" y2="210.1" stroke="rgb(0,0,0)"  stroke-width="1.0"/>
<line x1="431.6" y1="210.1" x2="408.2" y2="196.6" stroke="rgb(0,0,0)"  stroke-width="1.0"/>
<line x1="143.1" y1="318.3" x2="103.3" y2="314.1" stroke="rgb(0,0,0)"  stroke-width="1.0"/>
<line x1="103.3" y1="314.1" x2="79.8" y2="346.4" stroke="rgb(0,0,0)"  stroke-width="1.0"/>
<line x1="79.8" y1="346.4" x2="96.1" y2="383.0" stroke="rgb(0,0,0)"  stroke-width="1.0"/>
<line x1="96.1" y1="383.0" x2="135.8" y2="387.2" stroke="rgb(0,0,0)"  stroke-width="1.0"/>
<line x1="135.8" y1="387.2" x2="151.7" y2="365.3" stroke="rgb(0,0,0)"  stroke-width="1.0"/>
<line x1="154.1" y1="342.9" x2="143.1" y2="318.3" stroke="rgb(0,0,0)"  stroke-width="1.0"/>
<text x="367.595539" y="224.620345" fill="rgb(255,12,12)"  stroke="rgb(255,12,12)" stroke-width="1" font-size="16" >O</text>
<text x="369.595539" y="384.620345" fill="rgb(12,12,255)"  stroke="rgb(12,12,255)" stroke-width="1" font-size="16" >NH</text>
<text x="393.595539" y="388.300345" fill="rgb(12,12,255)"  stroke="rgb(12,12,255)" stroke-width="1" font-size="13" >2</text>
<text x="347.595539" y="144.620345" fill="rgb(12,12,255)"  stroke="rgb(12,12,255)" stroke-width="1" font-size="16" >H</text>
<text x="359.595539" y="148.300345" fill="rgb(12,12,255)"  stroke="rgb(12,12,255)" stroke-width="1" font-size="13" >2</text>
<text x="366.095539" y="144.620345" fill="rgb(12,12,255)"  stroke="rgb(12,12,255)" stroke-width="1" font-size="16" >N</text>
<text x="218.814204" y="229.224976" fill="rgb(255,12,12)"  stroke="rgb(255,12,12)" stroke-width="1" font-size="16" >O</text>
<text x="61.022820" y="285.533257" fill="rgb(12,12,255)"  stroke="rgb(12,12,255)" stroke-width="1" font-size="16" >H</text>
<text x="73.022820" y="289.213257" fill="rgb(12,12,255)"  stroke="rgb(12,12,255)" stroke-width="1" font-size="13" >2</text>
<text x="79.522820" y="285.533257" fill="rgb(12,12,255)"  stroke="rgb(12,12,255)" stroke-width="1" font-size="16" >N</text>
<text x="89.463812" y="48.000000" fill="rgb(12,12,255)"  stroke="rgb(12,12,255)" stroke-width="1" font-size="16" >H</text>
<text x="101.463812" y="51.680000" fill="rgb(12,12,255)"  stroke="rgb(12,12,255)" stroke-width="1" font-size="13" >2</text>
<text x="107.963812" y="48.000000" fill="rgb(12,12,255)"  stroke="rgb(12,12,255)" stroke-width="1" font-size="16" >N</text>
<text x="436.877571" y="104.620345" fill="rgb(255,12,12)"  stroke="rgb(255,12,12)" stroke-width="1" font-size="16" >OH</text>
<text x="438.877571" y="264.620345" fill="rgb(12,12,255)"  stroke="rgb(12,12,255)" stroke-width="1" font-size="16" >NH</text>
<text x="462.877571" y="268.300345" fill="rgb(12,12,255)"  stroke="rgb(12,12,255)" stroke-width="1" font-size="13" >2</text>
<text x="160.584572" y="293.895534" fill="rgb(255,12,12)"  stroke="rgb(255,12,12)" stroke-width="1" font-size="16" >O</text>
<text x="22.000000" y="350.254617" fill="rgb(255,12,12)"  stroke="rgb(255,12,12)" stroke-width="1" font-size="16" >HO</text>
<text x="506.159603" y="144.620345" fill="rgb(255,12,12)"  stroke="rgb(255,12,12)" stroke-width="1" font-size="16" >OH</text>
<text x="259.491352" y="324.401221" fill="rgb(255,12,12)"  stroke="rgb(255,12,12)" stroke-width="1" font-size="16" >O</text>
<text x="54.538931" y="423.338253" fill="rgb(255,12,12)"  stroke="rgb(255,12,12)" stroke-width="1" font-size="16" >HO</text>
<text x="436.877571" y="224.620345" fill="rgb(255,12,12)"  stroke="rgb(255,12,12)" stroke-width="1" font-size="16" >O</text>
<text x="298.313506" y="264.620345" fill="rgb(255,12,12)"  stroke="rgb(255,12,12)" stroke-width="1" font-size="16" >O</text>
<text x="227.607392" y="401.620187" fill="rgb(255,12,12)"  stroke="rgb(255,12,12)" stroke-width="1" font-size="16" >OH</text>
<text x="153.342627" y="362.798032" fill="rgb(255,12,12)"  stroke="rgb(255,12,12)" stroke-width="1" font-size="16" >O</text>
<text x="540.800619" y="204.620345" fill="rgb(255,12,12)"  stroke="rgb(255,12,12)" stroke-width="1" font-size="16" >OH</text>
<text x="286.313506" y="344.620345" fill="rgb(255,12,12)"  stroke="rgb(255,12,12)" stroke-width="1" font-size="16" >HO</text>
<text x="187.881559" y="435.881669" fill="rgb(12,12,255)"  stroke="rgb(12,12,255)" stroke-width="1" font-size="16" >NH</text>
<text x="211.881559" y="439.561669" fill="rgb(12,12,255)"  stroke="rgb(12,12,255)" stroke-width="1" font-size="13" >2</text>
<text x="190.181269" y="150.973168" fill="rgb(12,12,255)"  stroke="rgb(12,12,255)" stroke-width="1" font-size="16" >HN</text>
<text font-size="18.000000" fill ="black" font-family="sans-serif"
x="10.000000" y="20.000000" ></text>
<title> - OBDepict</title>
</svg>
