<?xml version="1.0"?>
<svg xmlns="http://www.w3.org/2000/svg"
xmlns:xlink="http://www.w3.org/1999/xlink" xmlns:cml="http://www.xml-cml.org/schema" width="533.264" height="289.493" x="0" y="0" font-family="sans-serif" stroke="rgb(0,0,0)" stroke-width="1"  stroke-linecap="round">
<rect x="0%" y="0%" width="100%" height="100%" stroke-width="0" fill="rgb(255,255,255)"  />
<polygon points="105.891 78.0423 110.369 51.3179 117.977 53.79 " stroke-width="1" fill="rgb(0,0,0)"  stroke="rgb(0,0,0)" />
<line x1="105.9" y1="78.0" x2="66.8" y2="86.4" stroke="rgb(0,0,0)"  stroke-width="1.0"/>
<line x1="105.9" y1="78.0" x2="132.7" y2="107.8" stroke="rgb(0,0,0)"  stroke-width="1.0"/>
<line x1="66.8" y1="86.4" x2="48.7" y2="66.3" stroke="rgb(0,0,0)"  stroke-width="1.0"/>
<line x1="66.8" y1="86.4" x2="58.4" y2="112.0" stroke="rgb(0,0,0)"  stroke-width="1.0"/>
<line x1="132.7" y1="107.8" x2="171.8" y2="99.5" stroke="rgb(0,0,0)"  stroke-width="1.0"/>
<line x1="171.8" y1="99.5" x2="189.8" y2="119.5" stroke="rgb(0,0,0)"  stroke-width="1.0"/>
<line x1="211.3" y1="126.5" x2="237.7" y2="120.9" stroke="rgb(0,0,0)"  stroke-width="1.0"/>
<polygon points="264.438609 150.586704 234.700806 123.537434 240.645964 118.184389 " stroke-width="1.000000" fill="rgb(0,0,0)"  stroke="rgb(0,0,0)" />
<line x1="251.6" y1="192.6" x2="250.9" y2="191.2" stroke="rgb(0,0,0)"  stroke-width="1.0"/>
<line x1="247.9" y1="195.0" x2="246.7" y2="192.3" stroke="rgb(0,0,0)"  stroke-width="1.0"/>
<line x1="244.2" y1="197.3" x2="242.5" y2="193.5" stroke="rgb(0,0,0)"  stroke-width="1.0"/>
<line x1="240.6" y1="199.6" x2="238.4" y2="194.6" stroke="rgb(0,0,0)"  stroke-width="1.0"/>
<line x1="236.9" y1="201.9" x2="234.2" y2="195.8" stroke="rgb(0,0,0)"  stroke-width="1.0"/>
<line x1="233.3" y1="204.3" x2="230.0" y2="197.0" stroke="rgb(0,0,0)"  stroke-width="1.0"/>
<line x1="292.1" y1="215.0" x2="290.5" y2="215.1" stroke="rgb(0,0,0)"  stroke-width="1.0"/>
<line x1="293.2" y1="219.2" x2="290.3" y2="219.5" stroke="rgb(0,0,0)"  stroke-width="1.0"/>
<line x1="294.3" y1="223.4" x2="290.2" y2="223.8" stroke="rgb(0,0,0)"  stroke-width="1.0"/>
<line x1="295.4" y1="227.6" x2="290.0" y2="228.1" stroke="rgb(0,0,0)"  stroke-width="1.0"/>
<line x1="296.5" y1="231.8" x2="289.8" y2="232.5" stroke="rgb(0,0,0)"  stroke-width="1.0"/>
<line x1="297.5" y1="235.9" x2="289.6" y2="236.8" stroke="rgb(0,0,0)"  stroke-width="1.0"/>
<polygon points="320.488951 182.947384 347.534953 184.606827 345.871660 192.432008 " stroke-width="1.000000" fill="rgb(0,0,0)"  stroke="rgb(0,0,0)" />
<line x1="458.6" y1="164.5" x2="482.0" y2="178.0" stroke="rgb(0,0,0)"  stroke-width="1.0"/>
<line x1="264.4" y1="150.6" x2="256.1" y2="189.7" stroke="rgb(0,0,0)"  stroke-width="1.0"/>
<line x1="256.1" y1="189.7" x2="290.8" y2="209.7" stroke="rgb(0,0,0)"  stroke-width="1.0"/>
<line x1="290.8" y1="209.7" x2="320.5" y2="182.9" stroke="rgb(0,0,0)"  stroke-width="1.0"/>
<line x1="320.5" y1="182.9" x2="309.5" y2="158.3" stroke="rgb(0,0,0)"  stroke-width="1.0"/>
<line x1="291.3" y1="147.8" x2="264.4" y2="150.6" stroke="rgb(0,0,0)"  stroke-width="1.0"/>
<line x1="375.9" y1="227.8" x2="364.9" y2="203.1" stroke="rgb(0,0,0)"  stroke-width="1.0"/>
<line x1="369.3" y1="182.6" x2="389.3" y2="164.5" stroke="rgb(0,0,0)"  stroke-width="1.0"/>
<line x1="389.3" y1="164.5" x2="424.0" y2="184.5" stroke="rgb(0,0,0)"  stroke-width="1.0"/>
<line x1="424.0" y1="184.5" x2="418.4" y2="210.9" stroke="rgb(0,0,0)"  stroke-width="1.0"/>
<line x1="402.5" y1="225.0" x2="375.9" y2="227.8" stroke="rgb(0,0,0)"  stroke-width="1.0"/>
<line x1="399.8" y1="218.1" x2="381.1" y2="220.0" stroke="rgb(0,0,0)"  stroke-width="1.0"/>
<line x1="424.0" y1="104.5" x2="447.2" y2="117.9" stroke="rgb(0,0,0)"  stroke-width="1.0"/>
<line x1="425.6" y1="113.7" x2="441.9" y2="123.1" stroke="rgb(0,0,0)"  stroke-width="1.0"/>
<line x1="458.6" y1="137.5" x2="458.6" y2="164.5" stroke="rgb(0,0,0)"  stroke-width="1.0"/>
<line x1="458.6" y1="164.5" x2="424.0" y2="184.5" stroke="rgb(0,0,0)"  stroke-width="1.0"/>
<line x1="449.8" y1="161.3" x2="425.6" y2="175.3" stroke="rgb(0,0,0)"  stroke-width="1.0"/>
<line x1="389.3" y1="164.5" x2="389.3" y2="137.7" stroke="rgb(0,0,0)"  stroke-width="1.0"/>
<line x1="396.5" y1="158.5" x2="396.5" y2="139.7" stroke="rgb(0,0,0)"  stroke-width="1.0"/>
<line x1="400.6" y1="118.0" x2="424.0" y2="104.5" stroke="rgb(0,0,0)"  stroke-width="1.0"/>
<text x="114.251808" y="48.000000" fill="rgb(12,12,255)"  stroke="rgb(12,12,255)" stroke-width="1" font-size="16" >NH</text>
<text x="138.251808" y="51.680000" fill="rgb(12,12,255)"  stroke="rgb(12,12,255)" stroke-width="1" font-size="13" >2</text>
<text x="22.000000" y="64.632935" fill="rgb(255,12,12)"  stroke="rgb(255,12,12)" stroke-width="1" font-size="16" >HO</text>
<text x="192.547481" y="137.177379" fill="rgb(178,178,0)"  stroke="rgb(178,178,0)" stroke-width="1" font-size="16" >S</text>
<text x="298.219485" y="154.405566" fill="rgb(255,12,12)"  stroke="rgb(255,12,12)" stroke-width="1" font-size="16" >O</text>
<text x="201.580323" y="213.982074" fill="rgb(255,12,12)"  stroke="rgb(255,12,12)" stroke-width="1" font-size="16" >HO</text>
<text x="288.944296" y="257.493484" fill="rgb(255,12,12)"  stroke="rgb(255,12,12)" stroke-width="1" font-size="16" >OH</text>
<text x="36.404544" y="132.400989" fill="rgb(255,12,12)"  stroke="rgb(255,12,12)" stroke-width="1" font-size="16" >HO</text>
<text x="452.622680" y="132.498628" fill="rgb(12,12,255)"  stroke="rgb(12,12,255)" stroke-width="1" font-size="16" >N</text>
<text x="383.340648" y="132.498628" fill="rgb(12,12,255)"  stroke="rgb(12,12,255)" stroke-width="1" font-size="16" >N</text>
<text x="489.263696" y="192.498628" fill="rgb(12,12,255)"  stroke="rgb(12,12,255)" stroke-width="1" font-size="16" >NH</text>
<text x="513.263696" y="196.178628" fill="rgb(12,12,255)"  stroke="rgb(12,12,255)" stroke-width="1" font-size="13" >2</text>
<text x="409.665196" y="231.624532" fill="rgb(12,12,255)"  stroke="rgb(12,12,255)" stroke-width="1" font-size="16" >N</text>
<text x="353.614855" y="199.263852" fill="rgb(12,12,255)"  stroke="rgb(12,12,255)" stroke-width="1" font-size="16" >N</text>
<text font-size="18.000000" fill ="black" font-family="sans-serif"
x="10.000000" y="20.000000" ></text>
<title> - OBDepict</title>
</svg>
