<?xml version="1.0"?>
<svg xmlns="http://www.w3.org/2000/svg"
xmlns:xlink="http://www.w3.org/1999/xlink" xmlns:cml="http://www.xml-cml.org/schema" width="357.128" height="260" x="0" y="0" font-family="sans-serif" stroke="rgb(0,0,0)" stroke-width="1"  stroke-linecap="round">
<rect x="0%" y="0%" width="100%" height="100%" stroke-width="0" fill="rgb(255,255,255)"  />
<line x1="149.0" y1="162.0" x2="148.2" y2="163.4" stroke="rgb(0,0,0)"  stroke-width="1.0"/>
<line x1="153.0" y1="163.6" x2="151.6" y2="166.1" stroke="rgb(0,0,0)"  stroke-width="1.0"/>
<line x1="157.0" y1="165.2" x2="155.0" y2="168.8" stroke="rgb(0,0,0)"  stroke-width="1.0"/>
<line x1="161.1" y1="166.8" x2="158.3" y2="171.5" stroke="rgb(0,0,0)"  stroke-width="1.0"/>
<line x1="165.1" y1="168.3" x2="161.7" y2="174.2" stroke="rgb(0,0,0)"  stroke-width="1.0"/>
<line x1="169.1" y1="169.9" x2="165.1" y2="176.9" stroke="rgb(0,0,0)"  stroke-width="1.0"/>
<polygon points="213.205081 160.000000 191.995600 176.864102 187.995600 169.935898 " stroke-width="1.000000" fill="rgb(0,0,0)"  stroke="rgb(0,0,0)" />
<line x1="208.2" y1="118.0" x2="209.0" y2="116.6" stroke="rgb(0,0,0)"  stroke-width="1.0"/>
<line x1="204.1" y1="116.4" x2="205.6" y2="113.9" stroke="rgb(0,0,0)"  stroke-width="1.0"/>
<line x1="200.1" y1="114.8" x2="202.2" y2="111.2" stroke="rgb(0,0,0)"  stroke-width="1.0"/>
<line x1="196.1" y1="113.2" x2="198.8" y2="108.5" stroke="rgb(0,0,0)"  stroke-width="1.0"/>
<line x1="192.0" y1="111.7" x2="195.4" y2="105.8" stroke="rgb(0,0,0)"  stroke-width="1.0"/>
<line x1="188.0" y1="110.1" x2="192.0" y2="103.1" stroke="rgb(0,0,0)"  stroke-width="1.0"/>
<polygon points="247.846097 100.000000 243.846097 73.200000 251.846097 73.200000 " stroke-width="1.000000" fill="rgb(0,0,0)"  stroke="rgb(0,0,0)" />
<line x1="110.1" y1="185.4" x2="108.5" y2="185.4" stroke="rgb(0,0,0)"  stroke-width="1.0"/>
<line x1="110.7" y1="189.6" x2="107.8" y2="189.6" stroke="rgb(0,0,0)"  stroke-width="1.0"/>
<line x1="111.4" y1="193.9" x2="107.2" y2="193.9" stroke="rgb(0,0,0)"  stroke-width="1.0"/>
<line x1="112.0" y1="198.2" x2="106.6" y2="198.2" stroke="rgb(0,0,0)"  stroke-width="1.0"/>
<line x1="112.6" y1="202.5" x2="105.9" y2="202.5" stroke="rgb(0,0,0)"  stroke-width="1.0"/>
<line x1="113.3" y1="206.8" x2="105.3" y2="206.8" stroke="rgb(0,0,0)"  stroke-width="1.0"/>
<polygon points="74.641016 160.000000 53.431535 176.864102 49.431535 169.935898 " stroke-width="1.000000" fill="rgb(0,0,0)"  stroke="rgb(0,0,0)" />
<line x1="69.6" y1="118.0" x2="70.4" y2="116.6" stroke="rgb(0,0,0)"  stroke-width="1.0"/>
<line x1="65.6" y1="116.4" x2="67.0" y2="113.9" stroke="rgb(0,0,0)"  stroke-width="1.0"/>
<line x1="61.5" y1="114.8" x2="63.6" y2="111.2" stroke="rgb(0,0,0)"  stroke-width="1.0"/>
<line x1="57.5" y1="113.2" x2="60.2" y2="108.5" stroke="rgb(0,0,0)"  stroke-width="1.0"/>
<line x1="53.5" y1="111.7" x2="56.8" y2="105.8" stroke="rgb(0,0,0)"  stroke-width="1.0"/>
<line x1="49.4" y1="110.1" x2="53.4" y2="103.1" stroke="rgb(0,0,0)"  stroke-width="1.0"/>
<polygon points="109.282032 100.000000 105.282032 60.000000 113.282032 60.000000 " stroke-width="1.000000" fill="rgb(0,0,0)"  stroke="rgb(0,0,0)" />
<line x1="286.7" y1="116.6" x2="287.5" y2="118.0" stroke="rgb(0,0,0)"  stroke-width="1.0"/>
<line x1="290.1" y1="113.9" x2="291.6" y2="116.4" stroke="rgb(0,0,0)"  stroke-width="1.0"/>
<line x1="293.5" y1="111.2" x2="295.6" y2="114.8" stroke="rgb(0,0,0)"  stroke-width="1.0"/>
<line x1="296.9" y1="108.5" x2="299.6" y2="113.2" stroke="rgb(0,0,0)"  stroke-width="1.0"/>
<line x1="300.3" y1="105.8" x2="303.7" y2="111.7" stroke="rgb(0,0,0)"  stroke-width="1.0"/>
<line x1="303.7" y1="103.1" x2="307.7" y2="110.1" stroke="rgb(0,0,0)"  stroke-width="1.0"/>
<line x1="248.6" y1="185.4" x2="247.0" y2="185.4" stroke="rgb(0,0,0)"  stroke-width="1.0"/>
<line x1="249.3" y1="189.6" x2="246.4" y2="189.6" stroke="rgb(0,0,0)"  stroke-width="1.0"/>
<line x1="249.9" y1="193.9" x2="245.8" y2="193.9" stroke="rgb(0,0,0)"  stroke-width="1.0"/>
<line x1="250.6" y1="198.2" x2="245.1" y2="198.2" stroke="rgb(0,0,0)"  stroke-width="1.0"/>
<line x1="251.2" y1="202.5" x2="244.5" y2="202.5" stroke="rgb(0,0,0)"  stroke-width="1.0"/>
<line x1="251.8" y1="206.8" x2="243.8" y2="206.8" stroke="rgb(0,0,0)"  stroke-width="1.0"/>
<line x1="85.9" y1="46.5" x2="109.3" y2="60.0" stroke="rgb(0,0,0)"  stroke-width="1.0"/>
<line x1="143.9" y1="160.0" x2="143.9" y2="133.0" stroke="rgb(0,0,0)"  stroke-width="1.0"/>
<line x1="132.7" y1="113.5" x2="109.3" y2="100.0" stroke="rgb(0,0,0)"  stroke-width="1.0"/>
<line x1="109.3" y1="100.0" x2="74.6" y2="120.0" stroke="rgb(0,0,0)"  stroke-width="1.0"/>
<line x1="74.6" y1="120.0" x2="74.6" y2="160.0" stroke="rgb(0,0,0)"  stroke-width="1.0"/>
<line x1="74.6" y1="160.0" x2="109.3" y2="180.0" stroke="rgb(0,0,0)"  stroke-width="1.0"/>
<line x1="109.3" y1="180.0" x2="143.9" y2="160.0" stroke="rgb(0,0,0)"  stroke-width="1.0"/>
<line x1="213.2" y1="160.0" x2="247.8" y2="180.0" stroke="rgb(0,0,0)"  stroke-width="1.0"/>
<line x1="247.8" y1="180.0" x2="282.5" y2="160.0" stroke="rgb(0,0,0)"  stroke-width="1.0"/>
<line x1="282.5" y1="160.0" x2="282.5" y2="120.0" stroke="rgb(0,0,0)"  stroke-width="1.0"/>
<line x1="282.5" y1="120.0" x2="247.8" y2="100.0" stroke="rgb(0,0,0)"  stroke-width="1.0"/>
<line x1="247.8" y1="100.0" x2="213.2" y2="120.0" stroke="rgb(0,0,0)"  stroke-width="1.0"/>
<line x1="213.2" y1="120.0" x2="213.2" y2="160.0" stroke="rgb(0,0,0)"  stroke-width="1.0"/>
<text x="34.000000" y="108.000000" fill="rgb(127,178,255)"  stroke="rgb(127,178,255)" stroke-width="1" font-size="16" >F</text>
<text x="105.282032" y="228.000000" fill="rgb(12,12,255)"  stroke="rgb(12,12,255)" stroke-width="1" font-size="16" >NH</text>
<text x="129.282032" y="231.680000" fill="rgb(12,12,255)"  stroke="rgb(12,12,255)" stroke-width="1" font-size="13" >2</text>
<text x="48.641016" y="48.000000" fill="rgb(12,12,255)"  stroke="rgb(12,12,255)" stroke-width="1" font-size="16" >H</text>
<text x="60.641016" y="51.680000" fill="rgb(12,12,255)"  stroke="rgb(12,12,255)" stroke-width="1" font-size="13" >2</text>
<text x="67.141016" y="48.000000" fill="rgb(12,12,255)"  stroke="rgb(12,12,255)" stroke-width="1" font-size="16" >N</text>
<text x="313.128129" y="108.000000" fill="rgb(12,12,255)"  stroke="rgb(12,12,255)" stroke-width="1" font-size="16" >NH</text>
<text x="337.128129" y="111.680000" fill="rgb(12,12,255)"  stroke="rgb(12,12,255)" stroke-width="1" font-size="13" >2</text>
<text x="243.846097" y="228.000000" fill="rgb(12,12,255)"  stroke="rgb(12,12,255)" stroke-width="1" font-size="16" >NH</text>
<text x="267.846097" y="231.680000" fill="rgb(12,12,255)"  stroke="rgb(12,12,255)" stroke-width="1" font-size="13" >2</text>
<text x="172.564065" y="188.000000" fill="rgb(255,12,12)"  stroke="rgb(255,12,12)" stroke-width="1" font-size="16" >O</text>
<text x="160.564065" y="108.000000" fill="rgb(255,12,12)"  stroke="rgb(255,12,12)" stroke-width="1" font-size="16" >HO</text>
<text x="241.846097" y="68.000000" fill="rgb(255,12,12)"  stroke="rgb(255,12,12)" stroke-width="1" font-size="16" >OH</text>
<text x="22.000000" y="188.000000" fill="rgb(255,12,12)"  stroke="rgb(255,12,12)" stroke-width="1" font-size="16" >HO</text>
<text x="137.923048" y="128.000000" fill="rgb(255,12,12)"  stroke="rgb(255,12,12)" stroke-width="1" font-size="16" >O</text>
<text font-size="18.000000" fill ="black" font-family="sans-serif"
x="10.000000" y="20.000000" ></text>
<title> - OBDepict</title>
</svg>
