<?xml version="1.0"?>
<svg xmlns="http://www.w3.org/2000/svg"
xmlns:xlink="http://www.w3.org/1999/xlink" xmlns:cml="http://www.xml-cml.org/schema" width="391.769" height="320" x="0" y="0" font-family="sans-serif" stroke="rgb(0,0,0)" stroke-width="1"  stroke-linecap="round">
<rect x="0%" y="0%" width="100%" height="100%" stroke-width="0" fill="rgb(255,255,255)"  />
<polygon points="247.846 100 273.056 109.936 269.056 116.864 " stroke-width="1" fill="rgb(0,0,0)"  stroke="rgb(0,0,0)" />
<polygon points="282.487 240 286.487 266.8 278.487 266.8 " stroke-width="1" fill="rgb(0,0,0)"  stroke="rgb(0,0,0)" />
<line x1="183.6" y1="222.0" x2="182.8" y2="223.4" stroke="rgb(0,0,0)"  stroke-width="1.0"/>
<line x1="187.6" y1="223.6" x2="186.2" y2="226.1" stroke="rgb(0,0,0)"  stroke-width="1.0"/>
<line x1="191.7" y1="225.2" x2="189.6" y2="228.8" stroke="rgb(0,0,0)"  stroke-width="1.0"/>
<line x1="195.7" y1="226.8" x2="193.0" y2="231.5" stroke="rgb(0,0,0)"  stroke-width="1.0"/>
<line x1="199.7" y1="228.3" x2="196.4" y2="234.2" stroke="rgb(0,0,0)"  stroke-width="1.0"/>
<line x1="203.8" y1="229.9" x2="199.8" y2="236.9" stroke="rgb(0,0,0)"  stroke-width="1.0"/>
<polygon points="247.846097 60.000000 269.055578 43.135898 273.055578 50.064102 " stroke-width="1.000000" fill="rgb(0,0,0)"  stroke="rgb(0,0,0)" />
<line x1="144.7" y1="245.4" x2="143.1" y2="245.4" stroke="rgb(0,0,0)"  stroke-width="1.0"/>
<line x1="145.4" y1="249.6" x2="142.5" y2="249.6" stroke="rgb(0,0,0)"  stroke-width="1.0"/>
<line x1="146.0" y1="253.9" x2="141.8" y2="253.9" stroke="rgb(0,0,0)"  stroke-width="1.0"/>
<line x1="146.6" y1="258.2" x2="141.2" y2="258.2" stroke="rgb(0,0,0)"  stroke-width="1.0"/>
<line x1="147.3" y1="262.5" x2="140.6" y2="262.5" stroke="rgb(0,0,0)"  stroke-width="1.0"/>
<line x1="147.9" y1="266.8" x2="139.9" y2="266.8" stroke="rgb(0,0,0)"  stroke-width="1.0"/>
<polygon points="317.128129 180.000000 338.337610 163.135898 342.337610 170.064102 " stroke-width="1.000000" fill="rgb(0,0,0)"  stroke="rgb(0,0,0)" />
<polygon points="109.282032 220.000000 88.072551 236.864102 84.072551 229.935898 " stroke-width="1.000000" fill="rgb(0,0,0)"  stroke="rgb(0,0,0)" />
<line x1="281.7" y1="154.6" x2="283.3" y2="154.6" stroke="rgb(0,0,0)"  stroke-width="1.0"/>
<line x1="281.0" y1="150.4" x2="283.9" y2="150.4" stroke="rgb(0,0,0)"  stroke-width="1.0"/>
<line x1="280.4" y1="146.1" x2="284.6" y2="146.1" stroke="rgb(0,0,0)"  stroke-width="1.0"/>
<line x1="279.8" y1="141.8" x2="285.2" y2="141.8" stroke="rgb(0,0,0)"  stroke-width="1.0"/>
<line x1="279.1" y1="137.5" x2="285.8" y2="137.5" stroke="rgb(0,0,0)"  stroke-width="1.0"/>
<line x1="278.5" y1="133.2" x2="286.5" y2="133.2" stroke="rgb(0,0,0)"  stroke-width="1.0"/>
<polygon points="109.282032 180.000000 92.417931 158.790519 99.346134 154.790519 " stroke-width="1.000000" fill="rgb(0,0,0)"  stroke="rgb(0,0,0)" />
<line x1="109.3" y1="180.0" x2="82.3" y2="180.0" stroke="rgb(0,0,0)"  stroke-width="1.0"/>
<polygon points="178.564065 100.000000 145.923048 123.464102 141.923048 116.535898 " stroke-width="1.000000" fill="rgb(0,0,0)"  stroke="rgb(0,0,0)" />
<polygon points="247.846097 180.000000 222.636616 170.064102 226.636616 163.135898 " stroke-width="1.000000" fill="rgb(0,0,0)"  stroke="rgb(0,0,0)" />
<line x1="143.9" y1="120.0" x2="120.5" y2="106.5" stroke="rgb(0,0,0)"  stroke-width="1.0"/>
<line x1="243.6" y1="223.4" x2="242.8" y2="222.0" stroke="rgb(0,0,0)"  stroke-width="1.0"/>
<line x1="240.2" y1="226.1" x2="238.8" y2="223.6" stroke="rgb(0,0,0)"  stroke-width="1.0"/>
<line x1="236.8" y1="228.8" x2="234.7" y2="225.2" stroke="rgb(0,0,0)"  stroke-width="1.0"/>
<line x1="233.4" y1="231.5" x2="230.7" y2="226.8" stroke="rgb(0,0,0)"  stroke-width="1.0"/>
<line x1="230.0" y1="234.2" x2="226.7" y2="228.3" stroke="rgb(0,0,0)"  stroke-width="1.0"/>
<line x1="226.6" y1="236.9" x2="222.6" y2="229.9" stroke="rgb(0,0,0)"  stroke-width="1.0"/>
<line x1="63.4" y1="233.5" x2="51.3" y2="226.5" stroke="rgb(0,0,0)"  stroke-width="1.0"/>
<line x1="317.1" y1="220.0" x2="282.5" y2="240.0" stroke="rgb(0,0,0)"  stroke-width="1.0"/>
<line x1="282.5" y1="240.0" x2="247.8" y2="220.0" stroke="rgb(0,0,0)"  stroke-width="1.0"/>
<line x1="247.8" y1="220.0" x2="247.8" y2="180.0" stroke="rgb(0,0,0)"  stroke-width="1.0"/>
<line x1="247.8" y1="180.0" x2="282.5" y2="160.0" stroke="rgb(0,0,0)"  stroke-width="1.0"/>
<line x1="282.5" y1="160.0" x2="317.1" y2="180.0" stroke="rgb(0,0,0)"  stroke-width="1.0"/>
<line x1="317.1" y1="180.0" x2="317.1" y2="220.0" stroke="rgb(0,0,0)"  stroke-width="1.0"/>
<line x1="247.8" y1="100.0" x2="247.8" y2="60.0" stroke="rgb(0,0,0)"  stroke-width="1.0"/>
<line x1="247.8" y1="60.0" x2="213.2" y2="40.0" stroke="rgb(0,0,0)"  stroke-width="1.0"/>
<line x1="213.2" y1="40.0" x2="178.6" y2="60.0" stroke="rgb(0,0,0)"  stroke-width="1.0"/>
<line x1="178.6" y1="60.0" x2="178.6" y2="100.0" stroke="rgb(0,0,0)"  stroke-width="1.0"/>
<line x1="178.6" y1="100.0" x2="201.9" y2="113.5" stroke="rgb(0,0,0)"  stroke-width="1.0"/>
<line x1="224.5" y1="113.5" x2="247.8" y2="100.0" stroke="rgb(0,0,0)"  stroke-width="1.0"/>
<line x1="178.6" y1="220.0" x2="143.9" y2="240.0" stroke="rgb(0,0,0)"  stroke-width="1.0"/>
<line x1="143.9" y1="240.0" x2="109.3" y2="220.0" stroke="rgb(0,0,0)"  stroke-width="1.0"/>
<line x1="109.3" y1="220.0" x2="109.3" y2="180.0" stroke="rgb(0,0,0)"  stroke-width="1.0"/>
<line x1="109.3" y1="180.0" x2="143.9" y2="160.0" stroke="rgb(0,0,0)"  stroke-width="1.0"/>
<line x1="143.9" y1="160.0" x2="167.3" y2="173.5" stroke="rgb(0,0,0)"  stroke-width="1.0"/>
<line x1="178.6" y1="193.0" x2="178.6" y2="220.0" stroke="rgb(0,0,0)"  stroke-width="1.0"/>
<text x="276.487113" y="128.000000" fill="rgb(255,12,12)"  stroke="rgb(255,12,12)" stroke-width="1" font-size="16" >O</text>
<text x="278.487113" y="288.000000" fill="rgb(12,12,255)"  stroke="rgb(12,12,255)" stroke-width="1" font-size="16" >NH</text>
<text x="302.487113" y="291.680000" fill="rgb(12,12,255)"  stroke="rgb(12,12,255)" stroke-width="1" font-size="13" >2</text>
<text x="278.487113" y="48.000000" fill="rgb(12,12,255)"  stroke="rgb(12,12,255)" stroke-width="1" font-size="16" >NH</text>
<text x="302.487113" y="51.680000" fill="rgb(12,12,255)"  stroke="rgb(12,12,255)" stroke-width="1" font-size="13" >2</text>
<text x="137.923048" y="288.000000" fill="rgb(255,12,12)"  stroke="rgb(255,12,12)" stroke-width="1" font-size="16" >OH</text>
<text x="347.769145" y="168.000000" fill="rgb(12,12,255)"  stroke="rgb(12,12,255)" stroke-width="1" font-size="16" >NH</text>
<text x="371.769145" y="171.680000" fill="rgb(12,12,255)"  stroke="rgb(12,12,255)" stroke-width="1" font-size="13" >2</text>
<text x="68.641016" y="248.000000" fill="rgb(12,12,255)"  stroke="rgb(12,12,255)" stroke-width="1" font-size="16" >N</text>
<text x="68.641016" y="264.000000" fill="rgb(12,12,255)"  stroke="rgb(12,12,255)" stroke-width="1" font-size="16" >H</text>
<text x="71.282032" y="153.358984" fill="rgb(255,12,12)"  stroke="rgb(255,12,12)" stroke-width="1" font-size="16" >HO</text>
<text x="207.205081" y="128.000000" fill="rgb(255,12,12)"  stroke="rgb(255,12,12)" stroke-width="1" font-size="16" >O</text>
<text x="195.205081" y="168.000000" fill="rgb(255,12,12)"  stroke="rgb(255,12,12)" stroke-width="1" font-size="16" >HO</text>
<text x="172.564065" y="188.000000" fill="rgb(255,12,12)"  stroke="rgb(255,12,12)" stroke-width="1" font-size="16" >O</text>
<text x="83.282032" y="108.000000" fill="rgb(12,12,255)"  stroke="rgb(12,12,255)" stroke-width="1" font-size="16" >H</text>
<text x="95.282032" y="111.680000" fill="rgb(12,12,255)"  stroke="rgb(12,12,255)" stroke-width="1" font-size="13" >2</text>
<text x="101.782032" y="108.000000" fill="rgb(12,12,255)"  stroke="rgb(12,12,255)" stroke-width="1" font-size="16" >N</text>
<text x="207.205081" y="248.000000" fill="rgb(255,12,12)"  stroke="rgb(255,12,12)" stroke-width="1" font-size="16" >O</text>
<text x="43.282032" y="188.000000" fill="rgb(102,102,102)"  stroke="rgb(102,102,102)" stroke-width="1" font-size="16" >H</text>
<text x="55.282032" y="191.680000" fill="rgb(102,102,102)"  stroke="rgb(102,102,102)" stroke-width="1" font-size="13" >3</text>
<text x="61.782032" y="188.000000" fill="rgb(102,102,102)"  stroke="rgb(102,102,102)" stroke-width="1" font-size="16" >C</text>
<text x="14.000000" y="228.000000" fill="rgb(102,102,102)"  stroke="rgb(102,102,102)" stroke-width="1" font-size="16" >H</text>
<text x="26.000000" y="231.680000" fill="rgb(102,102,102)"  stroke="rgb(102,102,102)" stroke-width="1" font-size="13" >3</text>
<text x="32.500000" y="228.000000" fill="rgb(102,102,102)"  stroke="rgb(102,102,102)" stroke-width="1" font-size="16" >C</text>
<text font-size="18.000000" fill ="black" font-family="sans-serif"
x="10.000000" y="20.000000" ></text>
<title> - OBDepict</title>
</svg>
