<?xml version="1.0"?>
<svg xmlns="http://www.w3.org/2000/svg"
xmlns:xlink="http://www.w3.org/1999/xlink" xmlns:cml="http://www.xml-cml.org/schema" width="495.183" height="304.254" x="0" y="0" font-family="sans-serif" stroke="rgb(0,0,0)" stroke-width="1"  stroke-linecap="round">
<rect x="0%" y="0%" width="100%" height="100%" stroke-width="0" fill="rgb(255,255,255)"  />
<line x1="187.2" y1="155.5" x2="187.2" y2="153.9" stroke="rgb(0,0,0)"  stroke-width="1.0"/>
<line x1="184.3" y1="156.2" x2="184.3" y2="153.3" stroke="rgb(0,0,0)"  stroke-width="1.0"/>
<line x1="181.4" y1="156.8" x2="181.4" y2="152.7" stroke="rgb(0,0,0)"  stroke-width="1.0"/>
<line x1="178.5" y1="157.5" x2="178.5" y2="152.0" stroke="rgb(0,0,0)"  stroke-width="1.0"/>
<line x1="175.6" y1="158.1" x2="175.6" y2="151.4" stroke="rgb(0,0,0)"  stroke-width="1.0"/>
<line x1="172.7" y1="158.7" x2="172.7" y2="150.7" stroke="rgb(0,0,0)"  stroke-width="1.0"/>
<line x1="143.7" y1="142.3" x2="142.9" y2="143.7" stroke="rgb(0,0,0)"  stroke-width="1.0"/>
<line x1="146.6" y1="143.2" x2="145.1" y2="145.7" stroke="rgb(0,0,0)"  stroke-width="1.0"/>
<line x1="149.4" y1="144.1" x2="147.3" y2="147.7" stroke="rgb(0,0,0)"  stroke-width="1.0"/>
<line x1="152.2" y1="145.0" x2="149.5" y2="149.7" stroke="rgb(0,0,0)"  stroke-width="1.0"/>
<line x1="155.1" y1="145.9" x2="151.7" y2="151.7" stroke="rgb(0,0,0)"  stroke-width="1.0"/>
<line x1="157.9" y1="146.8" x2="153.9" y2="153.7" stroke="rgb(0,0,0)"  stroke-width="1.0"/>
<polygon points="85.856847 141.151916 55.132760 145.151916 55.132760 137.151916 " stroke-width="1.000000" fill="rgb(0,0,0)"  stroke="rgb(0,0,0)" />
<line x1="144.7" y1="62.7" x2="145.6" y2="64.0" stroke="rgb(0,0,0)"  stroke-width="1.0"/>
<line x1="148.3" y1="59.3" x2="150.0" y2="61.6" stroke="rgb(0,0,0)"  stroke-width="1.0"/>
<line x1="151.9" y1="55.9" x2="154.3" y2="59.2" stroke="rgb(0,0,0)"  stroke-width="1.0"/>
<line x1="155.5" y1="52.5" x2="158.7" y2="56.9" stroke="rgb(0,0,0)"  stroke-width="1.0"/>
<line x1="159.1" y1="49.1" x2="163.0" y2="54.5" stroke="rgb(0,0,0)"  stroke-width="1.0"/>
<line x1="162.7" y1="45.7" x2="167.4" y2="52.1" stroke="rgb(0,0,0)"  stroke-width="1.0"/>
<line x1="215.5" y1="137.6" x2="216.9" y2="138.4" stroke="rgb(0,0,0)"  stroke-width="1.0"/>
<line x1="216.4" y1="134.8" x2="218.9" y2="136.2" stroke="rgb(0,0,0)"  stroke-width="1.0"/>
<line x1="217.3" y1="131.9" x2="220.9" y2="134.0" stroke="rgb(0,0,0)"  stroke-width="1.0"/>
<line x1="218.2" y1="129.1" x2="222.9" y2="131.8" stroke="rgb(0,0,0)"  stroke-width="1.0"/>
<line x1="219.1" y1="126.2" x2="224.9" y2="129.6" stroke="rgb(0,0,0)"  stroke-width="1.0"/>
<line x1="220.0" y1="123.4" x2="226.9" y2="127.4" stroke="rgb(0,0,0)"  stroke-width="1.0"/>
<polygon points="154.344053 110.566432 121.461789 162.630191 114.989653 157.927909 " stroke-width="1.000000" fill="rgb(0,0,0)"  stroke="rgb(0,0,0)" />
<line x1="332.8" y1="91.7" x2="334.1" y2="90.7" stroke="rgb(0,0,0)"  stroke-width="1.0"/>
<line x1="329.4" y1="88.1" x2="331.7" y2="86.4" stroke="rgb(0,0,0)"  stroke-width="1.0"/>
<line x1="325.9" y1="84.5" x2="329.3" y2="82.0" stroke="rgb(0,0,0)"  stroke-width="1.0"/>
<line x1="322.5" y1="80.9" x2="326.9" y2="77.7" stroke="rgb(0,0,0)"  stroke-width="1.0"/>
<line x1="319.1" y1="77.3" x2="324.6" y2="73.3" stroke="rgb(0,0,0)"  stroke-width="1.0"/>
<line x1="315.7" y1="73.7" x2="322.2" y2="69.0" stroke="rgb(0,0,0)"  stroke-width="1.0"/>
<polygon points="237.891249 154.731081 262.499090 135.904936 266.499090 142.833139 " stroke-width="1.000000" fill="rgb(0,0,0)"  stroke="rgb(0,0,0)" />
<polygon points="126.594343 164.671720 145.420488 189.279561 138.492285 193.279561 " stroke-width="1.000000" fill="rgb(0,0,0)"  stroke="rgb(0,0,0)" />
<polygon points="200.200900 110.566432 221.496134 133.071600 215.023998 137.773882 " stroke-width="1.000000" fill="rgb(0,0,0)"  stroke="rgb(0,0,0)" />
<line x1="306.2" y1="140.2" x2="306.1" y2="138.6" stroke="rgb(0,0,0)"  stroke-width="1.0"/>
<line x1="296.5" y1="141.8" x2="296.2" y2="139.0" stroke="rgb(0,0,0)"  stroke-width="1.0"/>
<line x1="286.8" y1="143.5" x2="286.4" y2="139.4" stroke="rgb(0,0,0)"  stroke-width="1.0"/>
<line x1="277.1" y1="145.2" x2="276.5" y2="139.7" stroke="rgb(0,0,0)"  stroke-width="1.0"/>
<line x1="267.4" y1="146.8" x2="266.7" y2="140.1" stroke="rgb(0,0,0)"  stroke-width="1.0"/>
<line x1="257.7" y1="148.5" x2="256.8" y2="140.5" stroke="rgb(0,0,0)"  stroke-width="1.0"/>
<polygon points="382.623455 91.393049 391.465886 61.698252 398.774250 64.952145 " stroke-width="1.000000" fill="rgb(0,0,0)"  stroke="rgb(0,0,0)" />
<line x1="243.6" y1="184.3" x2="242.8" y2="185.7" stroke="rgb(0,0,0)"  stroke-width="1.0"/>
<line x1="248.2" y1="186.2" x2="246.8" y2="188.7" stroke="rgb(0,0,0)"  stroke-width="1.0"/>
<line x1="252.8" y1="188.1" x2="250.7" y2="191.7" stroke="rgb(0,0,0)"  stroke-width="1.0"/>
<line x1="257.3" y1="190.0" x2="254.6" y2="194.7" stroke="rgb(0,0,0)"  stroke-width="1.0"/>
<line x1="261.9" y1="191.9" x2="258.6" y2="197.7" stroke="rgb(0,0,0)"  stroke-width="1.0"/>
<line x1="266.5" y1="193.8" x2="262.5" y2="200.7" stroke="rgb(0,0,0)"  stroke-width="1.0"/>
<line x1="208.9" y1="64.0" x2="209.9" y2="62.7" stroke="rgb(0,0,0)"  stroke-width="1.0"/>
<line x1="204.6" y1="61.6" x2="206.3" y2="59.3" stroke="rgb(0,0,0)"  stroke-width="1.0"/>
<line x1="200.2" y1="59.2" x2="202.7" y2="55.9" stroke="rgb(0,0,0)"  stroke-width="1.0"/>
<line x1="195.9" y1="56.9" x2="199.1" y2="52.5" stroke="rgb(0,0,0)"  stroke-width="1.0"/>
<line x1="191.5" y1="54.5" x2="195.5" y2="49.1" stroke="rgb(0,0,0)"  stroke-width="1.0"/>
<line x1="187.2" y1="52.1" x2="191.9" y2="45.7" stroke="rgb(0,0,0)"  stroke-width="1.0"/>
<line x1="415.6" y1="127.1" x2="415.8" y2="128.6" stroke="rgb(0,0,0)"  stroke-width="1.0"/>
<line x1="420.4" y1="125.9" x2="420.7" y2="128.8" stroke="rgb(0,0,0)"  stroke-width="1.0"/>
<line x1="425.2" y1="124.8" x2="425.7" y2="128.9" stroke="rgb(0,0,0)"  stroke-width="1.0"/>
<line x1="430.1" y1="123.6" x2="430.6" y2="129.0" stroke="rgb(0,0,0)"  stroke-width="1.0"/>
<line x1="434.9" y1="122.5" x2="435.6" y2="129.1" stroke="rgb(0,0,0)"  stroke-width="1.0"/>
<line x1="439.7" y1="121.3" x2="440.6" y2="129.3" stroke="rgb(0,0,0)"  stroke-width="1.0"/>
<polygon points="214.371445 195.468577 218.371445 241.325424 210.371445 241.325424 " stroke-width="1.000000" fill="rgb(0,0,0)"  stroke="rgb(0,0,0)" />
<polygon points="126.594343 117.632113 122.594343 99.436031 130.594343 99.436031 " stroke-width="1.000000" fill="rgb(0,0,0)"  stroke="rgb(0,0,0)" />
<line x1="397.0" y1="177.3" x2="395.7" y2="178.3" stroke="rgb(0,0,0)"  stroke-width="1.0"/>
<line x1="401.8" y1="182.9" x2="399.5" y2="184.6" stroke="rgb(0,0,0)"  stroke-width="1.0"/>
<line x1="406.6" y1="188.5" x2="403.3" y2="190.9" stroke="rgb(0,0,0)"  stroke-width="1.0"/>
<line x1="411.5" y1="194.0" x2="407.1" y2="197.2" stroke="rgb(0,0,0)"  stroke-width="1.0"/>
<line x1="416.3" y1="199.6" x2="410.8" y2="203.5" stroke="rgb(0,0,0)"  stroke-width="1.0"/>
<line x1="421.1" y1="205.1" x2="414.6" y2="209.8" stroke="rgb(0,0,0)"  stroke-width="1.0"/>
<line x1="214.4" y1="241.3" x2="242.8" y2="257.8" stroke="rgb(0,0,0)"  stroke-width="1.0"/>
<line x1="95.7" y1="112.7" x2="97.1" y2="111.9" stroke="rgb(0,0,0)"  stroke-width="1.0"/>
<line x1="92.7" y1="108.8" x2="95.2" y2="107.3" stroke="rgb(0,0,0)"  stroke-width="1.0"/>
<line x1="89.6" y1="104.8" x2="93.2" y2="102.8" stroke="rgb(0,0,0)"  stroke-width="1.0"/>
<line x1="86.6" y1="100.9" x2="91.3" y2="98.2" stroke="rgb(0,0,0)"  stroke-width="1.0"/>
<line x1="83.6" y1="97.0" x2="89.4" y2="93.6" stroke="rgb(0,0,0)"  stroke-width="1.0"/>
<line x1="80.6" y1="93.0" x2="87.5" y2="89.0" stroke="rgb(0,0,0)"  stroke-width="1.0"/>
<line x1="417.9" y1="207.5" x2="404.5" y2="237.5" stroke="rgb(0,0,0)"  stroke-width="1.0"/>
<line x1="154.3" y1="110.6" x2="140.2" y2="67.0" stroke="rgb(0,0,0)"  stroke-width="1.0"/>
<line x1="140.2" y1="67.0" x2="166.8" y2="47.6" stroke="rgb(0,0,0)"  stroke-width="1.0"/>
<line x1="187.8" y1="47.6" x2="214.4" y2="67.0" stroke="rgb(0,0,0)"  stroke-width="1.0"/>
<line x1="214.4" y1="67.0" x2="200.2" y2="110.6" stroke="rgb(0,0,0)"  stroke-width="1.0"/>
<line x1="200.2" y1="110.6" x2="154.3" y2="110.6" stroke="rgb(0,0,0)"  stroke-width="1.0"/>
<line x1="99.4" y1="164.7" x2="85.9" y2="141.2" stroke="rgb(0,0,0)"  stroke-width="1.0"/>
<line x1="85.9" y1="141.2" x2="99.4" y2="117.6" stroke="rgb(0,0,0)"  stroke-width="1.0"/>
<line x1="99.4" y1="117.6" x2="126.6" y2="117.6" stroke="rgb(0,0,0)"  stroke-width="1.0"/>
<line x1="126.6" y1="117.6" x2="140.2" y2="141.2" stroke="rgb(0,0,0)"  stroke-width="1.0"/>
<line x1="140.2" y1="141.2" x2="126.6" y2="164.7" stroke="rgb(0,0,0)"  stroke-width="1.0"/>
<line x1="126.6" y1="164.7" x2="99.4" y2="164.7" stroke="rgb(0,0,0)"  stroke-width="1.0"/>
<line x1="214.4" y1="195.5" x2="202.1" y2="188.4" stroke="rgb(0,0,0)"  stroke-width="1.0"/>
<line x1="190.9" y1="168.9" x2="190.9" y2="154.7" stroke="rgb(0,0,0)"  stroke-width="1.0"/>
<line x1="190.9" y1="154.7" x2="214.4" y2="141.2" stroke="rgb(0,0,0)"  stroke-width="1.0"/>
<line x1="214.4" y1="141.2" x2="237.9" y2="154.7" stroke="rgb(0,0,0)"  stroke-width="1.0"/>
<line x1="237.9" y1="154.7" x2="237.9" y2="181.9" stroke="rgb(0,0,0)"  stroke-width="1.0"/>
<line x1="237.9" y1="181.9" x2="214.4" y2="195.5" stroke="rgb(0,0,0)"  stroke-width="1.0"/>
<line x1="318.4" y1="138.1" x2="337.0" y2="96.2" stroke="rgb(0,0,0)"  stroke-width="1.0"/>
<line x1="337.0" y1="96.2" x2="382.6" y2="91.4" stroke="rgb(0,0,0)"  stroke-width="1.0"/>
<line x1="382.6" y1="91.4" x2="409.6" y2="128.5" stroke="rgb(0,0,0)"  stroke-width="1.0"/>
<line x1="409.6" y1="128.5" x2="390.9" y2="170.4" stroke="rgb(0,0,0)"  stroke-width="1.0"/>
<line x1="390.9" y1="170.4" x2="358.2" y2="173.8" stroke="rgb(0,0,0)"  stroke-width="1.0"/>
<line x1="337.7" y1="164.7" x2="318.4" y2="138.1" stroke="rgb(0,0,0)"  stroke-width="1.0"/>
<line x1="228.0" y1="90.5" x2="228.0" y2="104.6" stroke="rgb(0,0,0)"  stroke-width="1.0"/>
<line x1="221.5" y1="128.9" x2="214.4" y2="141.2" stroke="rgb(0,0,0)"  stroke-width="1.0"/>
<line x1="190.9" y1="154.7" x2="176.7" y2="154.7" stroke="rgb(0,0,0)"  stroke-width="1.0"/>
<line x1="152.4" y1="148.2" x2="140.2" y2="141.2" stroke="rgb(0,0,0)"  stroke-width="1.0"/>
<line x1="126.6" y1="117.6" x2="126.6" y2="103.5" stroke="rgb(0,0,0)"  stroke-width="1.0"/>
<line x1="133.1" y1="79.2" x2="140.2" y2="67.0" stroke="rgb(0,0,0)"  stroke-width="1.0"/>
<line x1="214.4" y1="67.0" x2="228.0" y2="90.5" stroke="rgb(0,0,0)"  stroke-width="1.0"/>
<text x="157.693311" y="162.731081" fill="rgb(255,12,12)"  stroke="rgb(255,12,12)" stroke-width="1" font-size="16" >O</text>
<text x="14.000000" y="149.151916" fill="rgb(12,12,255)"  stroke="rgb(12,12,255)" stroke-width="1" font-size="16" >H</text>
<text x="26.000000" y="152.831916" fill="rgb(12,12,255)"  stroke="rgb(12,12,255)" stroke-width="1" font-size="13" >2</text>
<text x="32.500000" y="149.151916" fill="rgb(12,12,255)"  stroke="rgb(12,12,255)" stroke-width="1" font-size="16" >N</text>
<text x="221.950610" y="125.632113" fill="rgb(12,12,255)"  stroke="rgb(12,12,255)" stroke-width="1" font-size="16" >NH</text>
<text x="82.436096" y="192.764370" fill="rgb(255,12,12)"  stroke="rgb(255,12,12)" stroke-width="1" font-size="16" >HO</text>
<text x="284.063838" y="67.087426" fill="rgb(12,12,255)"  stroke="rgb(12,12,255)" stroke-width="1" font-size="16" >H</text>
<text x="296.063838" y="70.767426" fill="rgb(12,12,255)"  stroke="rgb(12,12,255)" stroke-width="1" font-size="13" >2</text>
<text x="302.563838" y="67.087426" fill="rgb(12,12,255)"  stroke="rgb(12,12,255)" stroke-width="1" font-size="16" >N</text>
<text x="271.604444" y="139.802658" fill="rgb(255,12,12)"  stroke="rgb(255,12,12)" stroke-width="1" font-size="16" >OH</text>
<text x="145.522766" y="212.384915" fill="rgb(12,12,255)"  stroke="rgb(12,12,255)" stroke-width="1" font-size="16" >NH</text>
<text x="169.522766" y="216.064915" fill="rgb(12,12,255)"  stroke="rgb(12,12,255)" stroke-width="1" font-size="13" >2</text>
<text x="221.154879" y="155.665401" fill="rgb(255,12,12)"  stroke="rgb(255,12,12)" stroke-width="1" font-size="16" >O</text>
<text x="395.275116" y="57.500734" fill="rgb(255,12,12)"  stroke="rgb(255,12,12)" stroke-width="1" font-size="16" >OH</text>
<text x="271.604444" y="212.817835" fill="rgb(255,12,12)"  stroke="rgb(255,12,12)" stroke-width="1" font-size="16" >OH</text>
<text x="171.272477" y="48.000000" fill="rgb(255,12,12)"  stroke="rgb(255,12,12)" stroke-width="1" font-size="16" >O</text>
<text x="449.183073" y="131.698672" fill="rgb(255,12,12)"  stroke="rgb(255,12,12)" stroke-width="1" font-size="16" >OH</text>
<text x="184.851642" y="189.889412" fill="rgb(255,12,12)"  stroke="rgb(255,12,12)" stroke-width="1" font-size="16" >O</text>
<text x="120.594343" y="98.473782" fill="rgb(255,12,12)"  stroke="rgb(255,12,12)" stroke-width="1" font-size="16" >O</text>
<text x="339.320135" y="183.177678" fill="rgb(255,12,12)"  stroke="rgb(255,12,12)" stroke-width="1" font-size="16" >O</text>
<text x="250.084640" y="272.253848" fill="rgb(12,12,255)"  stroke="rgb(12,12,255)" stroke-width="1" font-size="16" >NH</text>
<text x="274.084640" y="275.933848" fill="rgb(12,12,255)"  stroke="rgb(12,12,255)" stroke-width="1" font-size="13" >2</text>
<text x="58.507589" y="85.918918" fill="rgb(255,12,12)"  stroke="rgb(255,12,12)" stroke-width="1" font-size="16" >HO</text>
<text x="373.228092" y="257.375616" fill="rgb(12,12,255)"  stroke="rgb(12,12,255)" stroke-width="1" font-size="16" >H</text>
<text x="385.228092" y="261.055616" fill="rgb(12,12,255)"  stroke="rgb(12,12,255)" stroke-width="1" font-size="13" >2</text>
<text x="391.728092" y="257.375616" fill="rgb(12,12,255)"  stroke="rgb(12,12,255)" stroke-width="1" font-size="16" >N</text>
<text font-size="18.000000" fill ="black" font-family="sans-serif"
x="10.000000" y="20.000000" >ligand</text>
<title>ligand - OBDepict</title>
</svg>
