<?xml version="1.0"?>
<svg xmlns="http://www.w3.org/2000/svg"
xmlns:xlink="http://www.w3.org/1999/xlink" xmlns:cml="http://www.xml-cml.org/schema" width="419.639" height="238.226" x="0" y="0" font-family="sans-serif" stroke="rgb(0,0,0)" stroke-width="1"  stroke-linecap="round">
<rect x="0%" y="0%" width="100%" height="100%" stroke-width="0" fill="rgb(255,255,255)"  />
<line x1="159.4" y1="167.2" x2="186.2" y2="196.9" stroke="rgb(0,0,0)"  stroke-width="1.0"/>
<line x1="105.9" y1="107.8" x2="79.1" y2="78.0" stroke="rgb(0,0,0)"  stroke-width="1.0"/>
<line x1="186.2" y1="196.9" x2="225.3" y2="188.6" stroke="rgb(0,0,0)"  stroke-width="1.0"/>
<line x1="225.3" y1="188.6" x2="237.7" y2="150.6" stroke="rgb(0,0,0)"  stroke-width="1.0"/>
<line x1="310.4" y1="158.2" x2="310.4" y2="185.2" stroke="rgb(0,0,0)"  stroke-width="1.0"/>
<line x1="345.0" y1="98.2" x2="368.4" y2="84.7" stroke="rgb(0,0,0)"  stroke-width="1.0"/>
<line x1="76.3" y1="77.1" x2="84.6" y2="51.4" stroke="rgb(0,0,0)"  stroke-width="1.0"/>
<line x1="82.0" y1="79.0" x2="90.3" y2="53.3" stroke="rgb(0,0,0)"  stroke-width="1.0"/>
<line x1="79.1" y1="78.0" x2="52.7" y2="83.7" stroke="rgb(0,0,0)"  stroke-width="1.0"/>
<line x1="237.7" y1="150.6" x2="214.2" y2="118.2" stroke="rgb(0,0,0)"  stroke-width="1.0"/>
<line x1="240.0" y1="141.5" x2="223.5" y2="118.8" stroke="rgb(0,0,0)"  stroke-width="1.0"/>
<line x1="214.2" y1="118.2" x2="230.0" y2="96.4" stroke="rgb(0,0,0)"  stroke-width="1.0"/>
<line x1="250.0" y1="89.9" x2="275.7" y2="98.2" stroke="rgb(0,0,0)"  stroke-width="1.0"/>
<line x1="275.7" y1="98.2" x2="275.7" y2="138.2" stroke="rgb(0,0,0)"  stroke-width="1.0"/>
<line x1="268.5" y1="104.2" x2="268.5" y2="132.2" stroke="rgb(0,0,0)"  stroke-width="1.0"/>
<line x1="275.7" y1="138.2" x2="237.7" y2="150.6" stroke="rgb(0,0,0)"  stroke-width="1.0"/>
<line x1="159.4" y1="167.2" x2="120.3" y2="175.5" stroke="rgb(0,0,0)"  stroke-width="1.0"/>
<line x1="152.1" y1="161.4" x2="124.7" y2="167.2" stroke="rgb(0,0,0)"  stroke-width="1.0"/>
<line x1="120.3" y1="175.5" x2="93.5" y2="145.8" stroke="rgb(0,0,0)"  stroke-width="1.0"/>
<line x1="93.5" y1="145.8" x2="105.9" y2="107.8" stroke="rgb(0,0,0)"  stroke-width="1.0"/>
<line x1="102.2" y1="142.3" x2="110.9" y2="115.7" stroke="rgb(0,0,0)"  stroke-width="1.0"/>
<line x1="105.9" y1="107.8" x2="145.0" y2="99.5" stroke="rgb(0,0,0)"  stroke-width="1.0"/>
<line x1="145.0" y1="99.5" x2="171.8" y2="129.2" stroke="rgb(0,0,0)"  stroke-width="1.0"/>
<line x1="143.7" y1="108.7" x2="162.4" y2="129.5" stroke="rgb(0,0,0)"  stroke-width="1.0"/>
<line x1="171.8" y1="129.2" x2="159.4" y2="167.2" stroke="rgb(0,0,0)"  stroke-width="1.0"/>
<line x1="345.0" y1="98.2" x2="345.0" y2="125.2" stroke="rgb(0,0,0)"  stroke-width="1.0"/>
<line x1="333.6" y1="144.8" x2="310.4" y2="158.2" stroke="rgb(0,0,0)"  stroke-width="1.0"/>
<line x1="328.2" y1="139.6" x2="312.0" y2="149.0" stroke="rgb(0,0,0)"  stroke-width="1.0"/>
<line x1="310.4" y1="158.2" x2="275.7" y2="138.2" stroke="rgb(0,0,0)"  stroke-width="1.0"/>
<line x1="275.7" y1="98.2" x2="299.1" y2="84.7" stroke="rgb(0,0,0)"  stroke-width="1.0"/>
<line x1="321.8" y1="84.8" x2="345.0" y2="98.2" stroke="rgb(0,0,0)"  stroke-width="1.0"/>
<line x1="319.9" y1="92.1" x2="336.2" y2="101.5" stroke="rgb(0,0,0)"  stroke-width="1.0"/>
<text x="231.673385" y="93.865345" fill="rgb(12,12,255)"  stroke="rgb(12,12,255)" stroke-width="1" font-size="16" >N</text>
<text x="231.673385" y="77.865345" fill="rgb(12,12,255)"  stroke="rgb(12,12,255)" stroke-width="1" font-size="16" >H</text>
<text x="304.356662" y="206.226025" fill="rgb(255,12,12)"  stroke="rgb(255,12,12)" stroke-width="1" font-size="16" >OH</text>
<text x="338.997678" y="146.226025" fill="rgb(12,12,255)"  stroke="rgb(12,12,255)" stroke-width="1" font-size="16" >N</text>
<text x="304.356662" y="86.226025" fill="rgb(12,12,255)"  stroke="rgb(12,12,255)" stroke-width="1" font-size="16" >N</text>
<text x="375.638694" y="86.226025" fill="rgb(12,12,255)"  stroke="rgb(12,12,255)" stroke-width="1" font-size="16" >NH</text>
<text x="399.638694" y="89.906025" fill="rgb(12,12,255)"  stroke="rgb(12,12,255)" stroke-width="1" font-size="13" >2</text>
<text x="85.486584" y="48.000000" fill="rgb(255,12,12)"  stroke="rgb(255,12,12)" stroke-width="1" font-size="16" >O</text>
<text x="14.000000" y="94.358728" fill="rgb(12,12,255)"  stroke="rgb(12,12,255)" stroke-width="1" font-size="16" >H</text>
<text x="26.000000" y="98.038728" fill="rgb(12,12,255)"  stroke="rgb(12,12,255)" stroke-width="1" font-size="13" >2</text>
<text x="32.500000" y="94.358728" fill="rgb(12,12,255)"  stroke="rgb(12,12,255)" stroke-width="1" font-size="16" >N</text>
<text font-size="18.000000" fill ="black" font-family="sans-serif"
x="10.000000" y="20.000000" ></text>
<title> - OBDepict</title>
</svg>
