<?xml version="1.0"?>
<svg xmlns="http://www.w3.org/2000/svg"
xmlns:xlink="http://www.w3.org/1999/xlink" xmlns:cml="http://www.xml-cml.org/schema" width="322.487" height="200" x="0" y="0" font-family="sans-serif" stroke="rgb(0,0,0)" stroke-width="1"  stroke-linecap="round">
<rect x="0%" y="0%" width="100%" height="100%" stroke-width="0" fill="rgb(255,255,255)"  />
<line x1="102.8" y1="104.7" x2="102.0" y2="103.3" stroke="rgb(0,0,0)"  stroke-width="1.0"/>
<line x1="97.5" y1="108.4" x2="96.1" y2="106.0" stroke="rgb(0,0,0)"  stroke-width="1.0"/>
<line x1="92.3" y1="112.2" x2="90.2" y2="108.6" stroke="rgb(0,0,0)"  stroke-width="1.0"/>
<line x1="87.1" y1="116.0" x2="84.4" y2="111.2" stroke="rgb(0,0,0)"  stroke-width="1.0"/>
<line x1="81.9" y1="119.7" x2="78.5" y2="113.9" stroke="rgb(0,0,0)"  stroke-width="1.0"/>
<line x1="76.6" y1="123.5" x2="72.6" y2="116.5" stroke="rgb(0,0,0)"  stroke-width="1.0"/>
<line x1="74.6" y1="120.0" x2="51.3" y2="106.5" stroke="rgb(0,0,0)"  stroke-width="1.0"/>
<line x1="77.6" y1="120.0" x2="77.6" y2="147.0" stroke="rgb(0,0,0)"  stroke-width="1.0"/>
<line x1="71.6" y1="120.0" x2="71.6" y2="147.0" stroke="rgb(0,0,0)"  stroke-width="1.0"/>
<line x1="109.3" y1="100.0" x2="109.3" y2="60.0" stroke="rgb(0,0,0)"  stroke-width="1.0"/>
<line x1="109.3" y1="100.0" x2="132.7" y2="113.5" stroke="rgb(0,0,0)"  stroke-width="1.0"/>
<line x1="109.3" y1="60.0" x2="143.9" y2="40.0" stroke="rgb(0,0,0)"  stroke-width="1.0"/>
<line x1="143.9" y1="40.0" x2="178.6" y2="60.0" stroke="rgb(0,0,0)"  stroke-width="1.0"/>
<line x1="178.6" y1="60.0" x2="201.9" y2="46.5" stroke="rgb(0,0,0)"  stroke-width="1.0"/>
<line x1="224.5" y1="46.5" x2="247.8" y2="60.0" stroke="rgb(0,0,0)"  stroke-width="1.0"/>
<line x1="247.8" y1="60.0" x2="271.2" y2="46.5" stroke="rgb(0,0,0)"  stroke-width="1.0"/>
<line x1="250.8" y1="60.0" x2="250.8" y2="87.0" stroke="rgb(0,0,0)"  stroke-width="1.0"/>
<line x1="244.8" y1="60.0" x2="244.8" y2="87.0" stroke="rgb(0,0,0)"  stroke-width="1.0"/>
<text x="44.800000" y="95.968000" fill="rgb(255,12,12)"  stroke="rgb(255,12,12)" stroke-width="1" font-size="32" >-</text>
<text x="34.000000" y="108.000000" fill="rgb(255,12,12)"  stroke="rgb(255,12,12)" stroke-width="1" font-size="16" >O</text>
<text x="68.641016" y="168.000000" fill="rgb(255,12,12)"  stroke="rgb(255,12,12)" stroke-width="1" font-size="16" >O</text>
<text x="148.723048" y="115.968000" fill="rgb(12,12,255)"  stroke="rgb(12,12,255)" stroke-width="1" font-size="16" >+</text>
<text x="139.923048" y="128.000000" fill="rgb(12,12,255)"  stroke="rgb(12,12,255)" stroke-width="1" font-size="16" >NH</text>
<text x="163.923048" y="131.680000" fill="rgb(12,12,255)"  stroke="rgb(12,12,255)" stroke-width="1" font-size="13" >3</text>
<text x="207.205081" y="48.000000" fill="rgb(12,12,255)"  stroke="rgb(12,12,255)" stroke-width="1" font-size="16" >N</text>
<text x="207.205081" y="32.000000" fill="rgb(12,12,255)"  stroke="rgb(12,12,255)" stroke-width="1" font-size="16" >H</text>
<text x="241.846097" y="108.000000" fill="rgb(255,12,12)"  stroke="rgb(255,12,12)" stroke-width="1" font-size="16" >O</text>
<text x="278.487113" y="48.000000" fill="rgb(12,12,255)"  stroke="rgb(12,12,255)" stroke-width="1" font-size="16" >NH</text>
<text x="302.487113" y="51.680000" fill="rgb(12,12,255)"  stroke="rgb(12,12,255)" stroke-width="1" font-size="13" >2</text>
<text font-size="18.000000" fill ="black" font-family="sans-serif"
x="10.000000" y="20.000000" ></text>
<title> - OBDepict</title>
</svg>
