<?xml version="1.0"?>
<svg xmlns="http://www.w3.org/2000/svg"
xmlns:xlink="http://www.w3.org/1999/xlink" xmlns:cml="http://www.xml-cml.org/schema" width="287.846" height="340" x="0" y="0" font-family="sans-serif" stroke="rgb(0,0,0)" stroke-width="1"  stroke-linecap="round">
<rect x="0%" y="0%" width="100%" height="100%" stroke-width="0" fill="rgb(255,255,255)"  />
<line x1="143.9" y1="120.0" x2="167.3" y2="106.5" stroke="rgb(0,0,0)"  stroke-width="1.0"/>
<line x1="51.3" y1="106.5" x2="74.6" y2="120.0" stroke="rgb(0,0,0)"  stroke-width="1.0"/>
<line x1="74.6" y1="240.0" x2="74.6" y2="267.0" stroke="rgb(0,0,0)"  stroke-width="1.0"/>
<line x1="40.0" y1="193.0" x2="40.0" y2="220.0" stroke="rgb(0,0,0)"  stroke-width="1.0"/>
<line x1="98.0" y1="293.5" x2="85.9" y2="286.5" stroke="rgb(0,0,0)"  stroke-width="1.0"/>
<line x1="63.4" y1="166.5" x2="51.3" y2="173.5" stroke="rgb(0,0,0)"  stroke-width="1.0"/>
<line x1="143.9" y1="120.0" x2="120.5" y2="106.5" stroke="rgb(0,0,0)"  stroke-width="1.0"/>
<line x1="97.9" y1="106.6" x2="74.6" y2="120.0" stroke="rgb(0,0,0)"  stroke-width="1.0"/>
<line x1="99.7" y1="113.8" x2="83.4" y2="123.2" stroke="rgb(0,0,0)"  stroke-width="1.0"/>
<line x1="74.6" y1="120.0" x2="74.6" y2="160.0" stroke="rgb(0,0,0)"  stroke-width="1.0"/>
<line x1="74.6" y1="160.0" x2="109.3" y2="180.0" stroke="rgb(0,0,0)"  stroke-width="1.0"/>
<line x1="109.3" y1="180.0" x2="132.7" y2="166.5" stroke="rgb(0,0,0)"  stroke-width="1.0"/>
<line x1="143.9" y1="146.8" x2="143.9" y2="120.0" stroke="rgb(0,0,0)"  stroke-width="1.0"/>
<line x1="136.7" y1="144.8" x2="136.7" y2="126.0" stroke="rgb(0,0,0)"  stroke-width="1.0"/>
<line x1="40.0" y1="220.0" x2="74.6" y2="240.0" stroke="rgb(0,0,0)"  stroke-width="1.0"/>
<line x1="48.8" y1="216.8" x2="73.0" y2="230.8" stroke="rgb(0,0,0)"  stroke-width="1.0"/>
<line x1="74.6" y1="240.0" x2="109.3" y2="220.0" stroke="rgb(0,0,0)"  stroke-width="1.0"/>
<line x1="109.3" y1="220.0" x2="109.3" y2="180.0" stroke="rgb(0,0,0)"  stroke-width="1.0"/>
<line x1="102.1" y1="214.0" x2="102.1" y2="186.0" stroke="rgb(0,0,0)"  stroke-width="1.0"/>
<line x1="74.6" y1="160.0" x2="40.0" y2="180.0" stroke="rgb(0,0,0)"  stroke-width="1.0"/>
<line x1="73.0" y1="169.2" x2="48.8" y2="183.2" stroke="rgb(0,0,0)"  stroke-width="1.0"/>
<line x1="40.0" y1="180.0" x2="40.0" y2="220.0" stroke="rgb(0,0,0)"  stroke-width="1.0"/>
<line x1="189.8" y1="106.5" x2="213.2" y2="120.0" stroke="rgb(0,0,0)"  stroke-width="1.0"/>
<line x1="213.2" y1="120.0" x2="247.8" y2="100.0" stroke="rgb(0,0,0)"  stroke-width="1.0"/>
<line x1="247.8" y1="100.0" x2="247.8" y2="73.0" stroke="rgb(0,0,0)"  stroke-width="1.0"/>
<line x1="236.6" y1="53.5" x2="213.2" y2="40.0" stroke="rgb(0,0,0)"  stroke-width="1.0"/>
<line x1="213.2" y1="40.0" x2="178.6" y2="60.0" stroke="rgb(0,0,0)"  stroke-width="1.0"/>
<line x1="178.6" y1="60.0" x2="178.6" y2="87.0" stroke="rgb(0,0,0)"  stroke-width="1.0"/>
<text x="137.923048" y="168.000000" fill="rgb(12,12,255)"  stroke="rgb(12,12,255)" stroke-width="1" font-size="16" >N</text>
<text x="14.000000" y="108.000000" fill="rgb(12,12,255)"  stroke="rgb(12,12,255)" stroke-width="1" font-size="16" >H</text>
<text x="26.000000" y="111.680000" fill="rgb(12,12,255)"  stroke="rgb(12,12,255)" stroke-width="1" font-size="13" >2</text>
<text x="32.500000" y="108.000000" fill="rgb(12,12,255)"  stroke="rgb(12,12,255)" stroke-width="1" font-size="16" >N</text>
<text x="103.282032" y="108.000000" fill="rgb(12,12,255)"  stroke="rgb(12,12,255)" stroke-width="1" font-size="16" >N</text>
<text x="68.641016" y="288.000000" fill="rgb(255,12,12)"  stroke="rgb(255,12,12)" stroke-width="1" font-size="16" >O</text>
<text x="34.000000" y="188.000000" fill="rgb(255,12,12)"  stroke="rgb(255,12,12)" stroke-width="1" font-size="16" >O</text>
<text x="172.564065" y="108.000000" fill="rgb(12,12,255)"  stroke="rgb(12,12,255)" stroke-width="1" font-size="16" >N</text>
<text x="241.846097" y="68.000000" fill="rgb(12,12,255)"  stroke="rgb(12,12,255)" stroke-width="1" font-size="16" >NH</text>
<text x="105.282032" y="308.000000" fill="rgb(102,102,102)"  stroke="rgb(102,102,102)" stroke-width="1" font-size="16" >CH</text>
<text x="129.282032" y="311.680000" fill="rgb(102,102,102)"  stroke="rgb(102,102,102)" stroke-width="1" font-size="13" >3</text>
<text x="70.641016" y="168.000000" fill="rgb(102,102,102)"  stroke="rgb(102,102,102)" stroke-width="1" font-size="16" >CH</text>
<text x="94.641016" y="171.680000" fill="rgb(102,102,102)"  stroke="rgb(102,102,102)" stroke-width="1" font-size="13" >3</text>
<text font-size="18.000000" fill ="black" font-family="sans-serif"
x="10.000000" y="20.000000" ></text>
<title> - OBDepict</title>
</svg>
