<?xml version="1.0"?>
<svg xmlns="http://www.w3.org/2000/svg"
xmlns:xlink="http://www.w3.org/1999/xlink" xmlns:cml="http://www.xml-cml.org/schema" width="357.128" height="260" x="0" y="0" font-family="sans-serif" stroke="rgb(0,0,0)" stroke-width="1"  stroke-linecap="round">
<rect x="0%" y="0%" width="100%" height="100%" stroke-width="0" fill="rgb(255,255,255)"  />
<polygon points="143.923 120 165.133 103.136 169.133 110.064 " stroke-width="1" fill="rgb(0,0,0)"  stroke="rgb(0,0,0)" />
<line x1="108.5" y1="94.6" x2="110.1" y2="94.6" stroke="rgb(0,0,0)"  stroke-width="1.0"/>
<line x1="107.8" y1="90.4" x2="110.7" y2="90.4" stroke="rgb(0,0,0)"  stroke-width="1.0"/>
<line x1="107.2" y1="86.1" x2="111.4" y2="86.1" stroke="rgb(0,0,0)"  stroke-width="1.0"/>
<line x1="106.6" y1="81.8" x2="112.0" y2="81.8" stroke="rgb(0,0,0)"  stroke-width="1.0"/>
<line x1="105.9" y1="77.5" x2="112.6" y2="77.5" stroke="rgb(0,0,0)"  stroke-width="1.0"/>
<line x1="105.3" y1="73.2" x2="113.3" y2="73.2" stroke="rgb(0,0,0)"  stroke-width="1.0"/>
<polygon points="74.641016 120.000000 49.431535 110.064102 53.431535 103.135898 " stroke-width="1.000000" fill="rgb(0,0,0)"  stroke="rgb(0,0,0)" />
<polygon points="109.282032 180.000000 113.282032 206.800000 105.282032 206.800000 " stroke-width="1.000000" fill="rgb(0,0,0)"  stroke="rgb(0,0,0)" />
<line x1="149.0" y1="162.0" x2="148.2" y2="163.4" stroke="rgb(0,0,0)"  stroke-width="1.0"/>
<line x1="153.0" y1="163.6" x2="151.6" y2="166.1" stroke="rgb(0,0,0)"  stroke-width="1.0"/>
<line x1="157.0" y1="165.2" x2="155.0" y2="168.8" stroke="rgb(0,0,0)"  stroke-width="1.0"/>
<line x1="161.1" y1="166.8" x2="158.3" y2="171.5" stroke="rgb(0,0,0)"  stroke-width="1.0"/>
<line x1="165.1" y1="168.3" x2="161.7" y2="174.2" stroke="rgb(0,0,0)"  stroke-width="1.0"/>
<line x1="169.1" y1="169.9" x2="165.1" y2="176.9" stroke="rgb(0,0,0)"  stroke-width="1.0"/>
<polygon points="213.205081 160.000000 191.995600 176.864102 187.995600 169.935898 " stroke-width="1.000000" fill="rgb(0,0,0)"  stroke="rgb(0,0,0)" />
<line x1="247.0" y1="92.0" x2="248.6" y2="92.0" stroke="rgb(0,0,0)"  stroke-width="1.0"/>
<line x1="246.4" y1="85.6" x2="249.3" y2="85.6" stroke="rgb(0,0,0)"  stroke-width="1.0"/>
<line x1="245.8" y1="79.2" x2="249.9" y2="79.2" stroke="rgb(0,0,0)"  stroke-width="1.0"/>
<line x1="245.1" y1="72.8" x2="250.6" y2="72.8" stroke="rgb(0,0,0)"  stroke-width="1.0"/>
<line x1="244.5" y1="66.4" x2="251.2" y2="66.4" stroke="rgb(0,0,0)"  stroke-width="1.0"/>
<line x1="243.8" y1="60.0" x2="251.8" y2="60.0" stroke="rgb(0,0,0)"  stroke-width="1.0"/>
<line x1="247.8" y1="60.0" x2="271.2" y2="46.5" stroke="rgb(0,0,0)"  stroke-width="1.0"/>
<polygon points="282.487113 120.000000 303.696594 103.135898 307.696594 110.064102 " stroke-width="1.000000" fill="rgb(0,0,0)"  stroke="rgb(0,0,0)" />
<line x1="287.5" y1="162.0" x2="286.7" y2="163.4" stroke="rgb(0,0,0)"  stroke-width="1.0"/>
<line x1="291.6" y1="163.6" x2="290.1" y2="166.1" stroke="rgb(0,0,0)"  stroke-width="1.0"/>
<line x1="295.6" y1="165.2" x2="293.5" y2="168.8" stroke="rgb(0,0,0)"  stroke-width="1.0"/>
<line x1="299.6" y1="166.8" x2="296.9" y2="171.5" stroke="rgb(0,0,0)"  stroke-width="1.0"/>
<line x1="303.7" y1="168.3" x2="300.3" y2="174.2" stroke="rgb(0,0,0)"  stroke-width="1.0"/>
<line x1="307.7" y1="169.9" x2="303.7" y2="176.9" stroke="rgb(0,0,0)"  stroke-width="1.0"/>
<polygon points="247.846097 180.000000 251.846097 206.800000 243.846097 206.800000 " stroke-width="1.000000" fill="rgb(0,0,0)"  stroke="rgb(0,0,0)" />
<line x1="143.9" y1="120.0" x2="109.3" y2="100.0" stroke="rgb(0,0,0)"  stroke-width="1.0"/>
<line x1="109.3" y1="100.0" x2="74.6" y2="120.0" stroke="rgb(0,0,0)"  stroke-width="1.0"/>
<line x1="74.6" y1="120.0" x2="74.6" y2="160.0" stroke="rgb(0,0,0)"  stroke-width="1.0"/>
<line x1="74.6" y1="160.0" x2="109.3" y2="180.0" stroke="rgb(0,0,0)"  stroke-width="1.0"/>
<line x1="109.3" y1="180.0" x2="143.9" y2="160.0" stroke="rgb(0,0,0)"  stroke-width="1.0"/>
<line x1="143.9" y1="160.0" x2="143.9" y2="120.0" stroke="rgb(0,0,0)"  stroke-width="1.0"/>
<line x1="224.5" y1="113.5" x2="247.8" y2="100.0" stroke="rgb(0,0,0)"  stroke-width="1.0"/>
<line x1="247.8" y1="100.0" x2="282.5" y2="120.0" stroke="rgb(0,0,0)"  stroke-width="1.0"/>
<line x1="282.5" y1="120.0" x2="282.5" y2="160.0" stroke="rgb(0,0,0)"  stroke-width="1.0"/>
<line x1="282.5" y1="160.0" x2="247.8" y2="180.0" stroke="rgb(0,0,0)"  stroke-width="1.0"/>
<line x1="247.8" y1="180.0" x2="213.2" y2="160.0" stroke="rgb(0,0,0)"  stroke-width="1.0"/>
<line x1="213.2" y1="160.0" x2="213.2" y2="133.0" stroke="rgb(0,0,0)"  stroke-width="1.0"/>
<text x="14.000000" y="108.000000" fill="rgb(12,12,255)"  stroke="rgb(12,12,255)" stroke-width="1" font-size="16" >H</text>
<text x="26.000000" y="111.680000" fill="rgb(12,12,255)"  stroke="rgb(12,12,255)" stroke-width="1" font-size="13" >2</text>
<text x="32.500000" y="108.000000" fill="rgb(12,12,255)"  stroke="rgb(12,12,255)" stroke-width="1" font-size="16" >N</text>
<text x="105.282032" y="228.000000" fill="rgb(12,12,255)"  stroke="rgb(12,12,255)" stroke-width="1" font-size="16" >NH</text>
<text x="129.282032" y="231.680000" fill="rgb(12,12,255)"  stroke="rgb(12,12,255)" stroke-width="1" font-size="13" >2</text>
<text x="278.487113" y="48.000000" fill="rgb(12,12,255)"  stroke="rgb(12,12,255)" stroke-width="1" font-size="16" >NH</text>
<text x="302.487113" y="51.680000" fill="rgb(12,12,255)"  stroke="rgb(12,12,255)" stroke-width="1" font-size="13" >2</text>
<text x="172.564065" y="108.000000" fill="rgb(255,12,12)"  stroke="rgb(255,12,12)" stroke-width="1" font-size="16" >OH</text>
<text x="243.846097" y="228.000000" fill="rgb(12,12,255)"  stroke="rgb(12,12,255)" stroke-width="1" font-size="16" >NH</text>
<text x="267.846097" y="231.680000" fill="rgb(12,12,255)"  stroke="rgb(12,12,255)" stroke-width="1" font-size="13" >2</text>
<text x="103.282032" y="68.000000" fill="rgb(255,12,12)"  stroke="rgb(255,12,12)" stroke-width="1" font-size="16" >OH</text>
<text x="172.564065" y="188.000000" fill="rgb(255,12,12)"  stroke="rgb(255,12,12)" stroke-width="1" font-size="16" >O</text>
<text x="207.205081" y="128.000000" fill="rgb(255,12,12)"  stroke="rgb(255,12,12)" stroke-width="1" font-size="16" >O</text>
<text x="311.128129" y="108.000000" fill="rgb(255,12,12)"  stroke="rgb(255,12,12)" stroke-width="1" font-size="16" >OH</text>
<text x="311.128129" y="188.000000" fill="rgb(255,12,12)"  stroke="rgb(255,12,12)" stroke-width="1" font-size="16" >OH</text>
<text font-size="18.000000" fill ="black" font-family="sans-serif"
x="10.000000" y="20.000000" ></text>
<title> - OBDepict</title>
</svg>
