<?xml version="1.0"?>
<svg xmlns="http://www.w3.org/2000/svg"
xmlns:xlink="http://www.w3.org/1999/xlink" xmlns:cml="http://www.xml-cml.org/schema" width="495.692" height="260" x="0" y="0" font-family="sans-serif" stroke="rgb(0,0,0)" stroke-width="1"  stroke-linecap="round">
<rect x="0%" y="0%" width="100%" height="100%" stroke-width="0" fill="rgb(255,255,255)"  />
<line x1="75.4" y1="168.0" x2="73.8" y2="168.0" stroke="rgb(0,0,0)"  stroke-width="1.0"/>
<line x1="76.1" y1="174.4" x2="73.2" y2="174.4" stroke="rgb(0,0,0)"  stroke-width="1.0"/>
<line x1="76.7" y1="180.8" x2="72.6" y2="180.8" stroke="rgb(0,0,0)"  stroke-width="1.0"/>
<line x1="77.4" y1="187.2" x2="71.9" y2="187.2" stroke="rgb(0,0,0)"  stroke-width="1.0"/>
<line x1="78.0" y1="193.6" x2="71.3" y2="193.6" stroke="rgb(0,0,0)"  stroke-width="1.0"/>
<line x1="78.6" y1="200.0" x2="70.6" y2="200.0" stroke="rgb(0,0,0)"  stroke-width="1.0"/>
<polygon points="109.282032 100.000000 130.491513 83.135898 134.491513 90.064102 " stroke-width="1.000000" fill="rgb(0,0,0)"  stroke="rgb(0,0,0)" />
<polygon points="178.564065 100.000000 153.354584 90.064102 157.354584 83.135898 " stroke-width="1.000000" fill="rgb(0,0,0)"  stroke="rgb(0,0,0)" />
<polygon points="74.641016 80.000000 70.641016 53.200000 78.641016 53.200000 " stroke-width="1.000000" fill="rgb(0,0,0)"  stroke="rgb(0,0,0)" />
<line x1="74.6" y1="200.0" x2="98.0" y2="213.5" stroke="rgb(0,0,0)"  stroke-width="1.0"/>
<line x1="174.3" y1="143.4" x2="173.5" y2="142.0" stroke="rgb(0,0,0)"  stroke-width="1.0"/>
<line x1="170.9" y1="146.1" x2="169.5" y2="143.6" stroke="rgb(0,0,0)"  stroke-width="1.0"/>
<line x1="167.5" y1="148.8" x2="165.5" y2="145.2" stroke="rgb(0,0,0)"  stroke-width="1.0"/>
<line x1="164.1" y1="151.5" x2="161.4" y2="146.8" stroke="rgb(0,0,0)"  stroke-width="1.0"/>
<line x1="160.7" y1="154.2" x2="157.4" y2="148.3" stroke="rgb(0,0,0)"  stroke-width="1.0"/>
<line x1="157.4" y1="156.9" x2="153.4" y2="149.9" stroke="rgb(0,0,0)"  stroke-width="1.0"/>
<line x1="252.9" y1="142.0" x2="252.1" y2="143.4" stroke="rgb(0,0,0)"  stroke-width="1.0"/>
<line x1="256.9" y1="143.6" x2="255.5" y2="146.1" stroke="rgb(0,0,0)"  stroke-width="1.0"/>
<line x1="261.0" y1="145.2" x2="258.9" y2="148.8" stroke="rgb(0,0,0)"  stroke-width="1.0"/>
<line x1="265.0" y1="146.8" x2="262.3" y2="151.5" stroke="rgb(0,0,0)"  stroke-width="1.0"/>
<line x1="269.0" y1="148.3" x2="265.7" y2="154.2" stroke="rgb(0,0,0)"  stroke-width="1.0"/>
<line x1="273.1" y1="149.9" x2="269.1" y2="156.9" stroke="rgb(0,0,0)"  stroke-width="1.0"/>
<polygon points="247.846097 100.000000 269.055578 83.135898 273.055578 90.064102 " stroke-width="1.000000" fill="rgb(0,0,0)"  stroke="rgb(0,0,0)" />
<line x1="212.4" y1="74.6" x2="214.0" y2="74.6" stroke="rgb(0,0,0)"  stroke-width="1.0"/>
<line x1="211.8" y1="70.4" x2="214.6" y2="70.4" stroke="rgb(0,0,0)"  stroke-width="1.0"/>
<line x1="211.1" y1="66.1" x2="215.3" y2="66.1" stroke="rgb(0,0,0)"  stroke-width="1.0"/>
<line x1="210.5" y1="61.8" x2="215.9" y2="61.8" stroke="rgb(0,0,0)"  stroke-width="1.0"/>
<line x1="209.8" y1="57.5" x2="216.6" y2="57.5" stroke="rgb(0,0,0)"  stroke-width="1.0"/>
<line x1="209.2" y1="53.2" x2="217.2" y2="53.2" stroke="rgb(0,0,0)"  stroke-width="1.0"/>
<line x1="389.8" y1="144.2" x2="388.4" y2="145.0" stroke="rgb(0,0,0)"  stroke-width="1.0"/>
<line x1="392.5" y1="147.6" x2="390.0" y2="149.1" stroke="rgb(0,0,0)"  stroke-width="1.0"/>
<line x1="395.2" y1="151.0" x2="391.6" y2="153.1" stroke="rgb(0,0,0)"  stroke-width="1.0"/>
<line x1="397.9" y1="154.4" x2="393.2" y2="157.1" stroke="rgb(0,0,0)"  stroke-width="1.0"/>
<line x1="400.6" y1="157.8" x2="394.8" y2="161.2" stroke="rgb(0,0,0)"  stroke-width="1.0"/>
<line x1="403.3" y1="161.2" x2="396.3" y2="165.2" stroke="rgb(0,0,0)"  stroke-width="1.0"/>
<line x1="386.4" y1="140.0" x2="413.4" y2="140.0" stroke="rgb(0,0,0)"  stroke-width="1.0"/>
<polygon points="386.410162 100.000000 407.619642 83.135898 411.619642 90.064102 " stroke-width="1.000000" fill="rgb(0,0,0)"  stroke="rgb(0,0,0)" />
<line x1="351.0" y1="74.6" x2="352.6" y2="74.6" stroke="rgb(0,0,0)"  stroke-width="1.0"/>
<line x1="350.3" y1="70.4" x2="353.2" y2="70.4" stroke="rgb(0,0,0)"  stroke-width="1.0"/>
<line x1="349.7" y1="66.1" x2="353.8" y2="66.1" stroke="rgb(0,0,0)"  stroke-width="1.0"/>
<line x1="349.0" y1="61.8" x2="354.5" y2="61.8" stroke="rgb(0,0,0)"  stroke-width="1.0"/>
<line x1="348.4" y1="57.5" x2="355.1" y2="57.5" stroke="rgb(0,0,0)"  stroke-width="1.0"/>
<line x1="347.8" y1="53.2" x2="355.8" y2="53.2" stroke="rgb(0,0,0)"  stroke-width="1.0"/>
<line x1="312.1" y1="98.0" x2="312.9" y2="96.6" stroke="rgb(0,0,0)"  stroke-width="1.0"/>
<line x1="308.1" y1="96.4" x2="309.5" y2="93.9" stroke="rgb(0,0,0)"  stroke-width="1.0"/>
<line x1="304.0" y1="94.8" x2="306.1" y2="91.2" stroke="rgb(0,0,0)"  stroke-width="1.0"/>
<line x1="300.0" y1="93.2" x2="302.7" y2="88.5" stroke="rgb(0,0,0)"  stroke-width="1.0"/>
<line x1="296.0" y1="91.7" x2="299.3" y2="85.8" stroke="rgb(0,0,0)"  stroke-width="1.0"/>
<line x1="291.9" y1="90.1" x2="295.9" y2="83.1" stroke="rgb(0,0,0)"  stroke-width="1.0"/>
<line x1="432.3" y1="86.5" x2="444.4" y2="93.5" stroke="rgb(0,0,0)"  stroke-width="1.0"/>
<line x1="74.6" y1="160.0" x2="98.0" y2="146.5" stroke="rgb(0,0,0)"  stroke-width="1.0"/>
<line x1="109.3" y1="127.0" x2="109.3" y2="100.0" stroke="rgb(0,0,0)"  stroke-width="1.0"/>
<line x1="109.3" y1="100.0" x2="74.6" y2="80.0" stroke="rgb(0,0,0)"  stroke-width="1.0"/>
<line x1="74.6" y1="80.0" x2="40.0" y2="100.0" stroke="rgb(0,0,0)"  stroke-width="1.0"/>
<line x1="40.0" y1="100.0" x2="40.0" y2="140.0" stroke="rgb(0,0,0)"  stroke-width="1.0"/>
<line x1="40.0" y1="140.0" x2="74.6" y2="160.0" stroke="rgb(0,0,0)"  stroke-width="1.0"/>
<line x1="178.6" y1="140.0" x2="213.2" y2="160.0" stroke="rgb(0,0,0)"  stroke-width="1.0"/>
<line x1="213.2" y1="160.0" x2="247.8" y2="140.0" stroke="rgb(0,0,0)"  stroke-width="1.0"/>
<line x1="247.8" y1="140.0" x2="247.8" y2="100.0" stroke="rgb(0,0,0)"  stroke-width="1.0"/>
<line x1="247.8" y1="100.0" x2="213.2" y2="80.0" stroke="rgb(0,0,0)"  stroke-width="1.0"/>
<line x1="213.2" y1="80.0" x2="178.6" y2="100.0" stroke="rgb(0,0,0)"  stroke-width="1.0"/>
<line x1="178.6" y1="100.0" x2="178.6" y2="140.0" stroke="rgb(0,0,0)"  stroke-width="1.0"/>
<line x1="386.4" y1="100.0" x2="351.8" y2="80.0" stroke="rgb(0,0,0)"  stroke-width="1.0"/>
<line x1="351.8" y1="80.0" x2="317.1" y2="100.0" stroke="rgb(0,0,0)"  stroke-width="1.0"/>
<line x1="317.1" y1="100.0" x2="317.1" y2="127.0" stroke="rgb(0,0,0)"  stroke-width="1.0"/>
<line x1="328.4" y1="146.5" x2="351.8" y2="160.0" stroke="rgb(0,0,0)"  stroke-width="1.0"/>
<line x1="351.8" y1="160.0" x2="386.4" y2="140.0" stroke="rgb(0,0,0)"  stroke-width="1.0"/>
<line x1="386.4" y1="140.0" x2="386.4" y2="100.0" stroke="rgb(0,0,0)"  stroke-width="1.0"/>
<text x="103.282032" y="148.000000" fill="rgb(255,12,12)"  stroke="rgb(255,12,12)" stroke-width="1" font-size="16" >O</text>
<text x="137.923048" y="88.000000" fill="rgb(255,12,12)"  stroke="rgb(255,12,12)" stroke-width="1" font-size="16" >O</text>
<text x="79.441016" y="35.968000" fill="rgb(12,12,255)"  stroke="rgb(12,12,255)" stroke-width="1" font-size="16" >+</text>
<text x="70.641016" y="48.000000" fill="rgb(12,12,255)"  stroke="rgb(12,12,255)" stroke-width="1" font-size="16" >NH</text>
<text x="94.641016" y="51.680000" fill="rgb(12,12,255)"  stroke="rgb(12,12,255)" stroke-width="1" font-size="13" >3</text>
<text x="113.182032" y="216.724000" fill="rgb(12,12,255)"  stroke="rgb(12,12,255)" stroke-width="1" font-size="13" >+</text>
<text x="105.282032" y="228.000000" fill="rgb(12,12,255)"  stroke="rgb(12,12,255)" stroke-width="1" font-size="16" >NH</text>
<text x="129.282032" y="231.680000" fill="rgb(12,12,255)"  stroke="rgb(12,12,255)" stroke-width="1" font-size="13" >3</text>
<text x="286.387113" y="156.724000" fill="rgb(12,12,255)"  stroke="rgb(12,12,255)" stroke-width="1" font-size="13" >+</text>
<text x="278.487113" y="168.000000" fill="rgb(12,12,255)"  stroke="rgb(12,12,255)" stroke-width="1" font-size="16" >NH</text>
<text x="302.487113" y="171.680000" fill="rgb(12,12,255)"  stroke="rgb(12,12,255)" stroke-width="1" font-size="13" >3</text>
<text x="207.205081" y="48.000000" fill="rgb(255,12,12)"  stroke="rgb(255,12,12)" stroke-width="1" font-size="16" >OH</text>
<text x="148.723048" y="155.968000" fill="rgb(12,12,255)"  stroke="rgb(12,12,255)" stroke-width="1" font-size="16" >+</text>
<text x="117.923048" y="168.000000" fill="rgb(12,12,255)"  stroke="rgb(12,12,255)" stroke-width="1" font-size="16" >H</text>
<text x="129.923048" y="171.680000" fill="rgb(12,12,255)"  stroke="rgb(12,12,255)" stroke-width="1" font-size="13" >3</text>
<text x="136.423048" y="168.000000" fill="rgb(12,12,255)"  stroke="rgb(12,12,255)" stroke-width="1" font-size="16" >N</text>
<text x="420.410162" y="148.000000" fill="rgb(255,12,12)"  stroke="rgb(255,12,12)" stroke-width="1" font-size="16" >OH</text>
<text x="276.487113" y="88.000000" fill="rgb(255,12,12)"  stroke="rgb(255,12,12)" stroke-width="1" font-size="16" >O</text>
<text x="311.128129" y="148.000000" fill="rgb(255,12,12)"  stroke="rgb(255,12,12)" stroke-width="1" font-size="16" >O</text>
<text x="345.769145" y="48.000000" fill="rgb(255,12,12)"  stroke="rgb(255,12,12)" stroke-width="1" font-size="16" >OH</text>
<text x="425.851178" y="75.968000" fill="rgb(12,12,255)"  stroke="rgb(12,12,255)" stroke-width="1" font-size="16" >+</text>
<text x="411.801178" y="88.000000" fill="rgb(12,12,255)"  stroke="rgb(12,12,255)" stroke-width="1" font-size="16" >N</text>
<text x="411.801178" y="72.000000" fill="rgb(12,12,255)"  stroke="rgb(12,12,255)" stroke-width="1" font-size="16" >H</text>
<text x="423.801178" y="75.680000" fill="rgb(12,12,255)"  stroke="rgb(12,12,255)" stroke-width="1" font-size="13" >2</text>
<text x="451.692194" y="108.000000" fill="rgb(102,102,102)"  stroke="rgb(102,102,102)" stroke-width="1" font-size="16" >CH</text>
<text x="475.692194" y="111.680000" fill="rgb(102,102,102)"  stroke="rgb(102,102,102)" stroke-width="1" font-size="13" >3</text>
<text x="402.410162" y="182.641016" fill="rgb(102,102,102)"  stroke="rgb(102,102,102)" stroke-width="1" font-size="16" >CH</text>
<text x="426.410162" y="186.321016" fill="rgb(102,102,102)"  stroke="rgb(102,102,102)" stroke-width="1" font-size="13" >3</text>
<text font-size="18.000000" fill ="black" font-family="sans-serif"
x="10.000000" y="20.000000" ></text>
<title> - OBDepict</title>
</svg>
