<?xml version="1.0"?>
<svg xmlns="http://www.w3.org/2000/svg"
xmlns:xlink="http://www.w3.org/1999/xlink" xmlns:cml="http://www.xml-cml.org/schema" width="454.082" height="281.397" x="0" y="0" font-family="sans-serif" stroke="rgb(0,0,0)" stroke-width="1"  stroke-linecap="round">
<rect x="0%" y="0%" width="100%" height="100%" stroke-width="0" fill="rgb(255,255,255)"  />
<line x1="374.9" y1="217.3" x2="373.3" y2="217.3" stroke="rgb(0,0,0)"  stroke-width="1.0"/>
<line x1="375.5" y1="219.5" x2="372.6" y2="219.5" stroke="rgb(0,0,0)"  stroke-width="1.0"/>
<line x1="376.2" y1="221.7" x2="372.0" y2="221.7" stroke="rgb(0,0,0)"  stroke-width="1.0"/>
<line x1="376.8" y1="223.8" x2="371.4" y2="223.8" stroke="rgb(0,0,0)"  stroke-width="1.0"/>
<line x1="377.4" y1="226.0" x2="370.7" y2="226.0" stroke="rgb(0,0,0)"  stroke-width="1.0"/>
<line x1="378.1" y1="228.2" x2="370.1" y2="228.2" stroke="rgb(0,0,0)"  stroke-width="1.0"/>
<line x1="387.1" y1="198.4" x2="401.1" y2="198.4" stroke="rgb(0,0,0)"  stroke-width="1.0"/>
<line x1="387.1" y1="204.4" x2="401.1" y2="204.4" stroke="rgb(0,0,0)"  stroke-width="1.0"/>
<line x1="374.1" y1="188.4" x2="374.1" y2="174.4" stroke="rgb(0,0,0)"  stroke-width="1.0"/>
<line x1="390.0" y1="120.6" x2="390.0" y2="122.2" stroke="rgb(0,0,0)"  stroke-width="1.0"/>
<line x1="392.2" y1="120.0" x2="392.2" y2="122.8" stroke="rgb(0,0,0)"  stroke-width="1.0"/>
<line x1="394.4" y1="119.3" x2="394.4" y2="123.5" stroke="rgb(0,0,0)"  stroke-width="1.0"/>
<line x1="396.5" y1="118.7" x2="396.5" y2="124.1" stroke="rgb(0,0,0)"  stroke-width="1.0"/>
<line x1="398.7" y1="118.0" x2="398.7" y2="124.8" stroke="rgb(0,0,0)"  stroke-width="1.0"/>
<line x1="400.9" y1="117.4" x2="400.9" y2="125.4" stroke="rgb(0,0,0)"  stroke-width="1.0"/>
<line x1="374.1" y1="108.4" x2="374.1" y2="94.4" stroke="rgb(0,0,0)"  stroke-width="1.0"/>
<line x1="361.1" y1="124.4" x2="347.1" y2="124.4" stroke="rgb(0,0,0)"  stroke-width="1.0"/>
<line x1="361.1" y1="118.4" x2="347.1" y2="118.4" stroke="rgb(0,0,0)"  stroke-width="1.0"/>
<line x1="169.4" y1="72.5" x2="194.1" y2="83.5" stroke="rgb(0,0,0)"  stroke-width="1.0"/>
<line x1="169.4" y1="72.5" x2="137.1" y2="96.1" stroke="rgb(0,0,0)"  stroke-width="1.0"/>
<line x1="100.5" y1="79.8" x2="97.7" y2="52.9" stroke="rgb(0,0,0)"  stroke-width="1.0"/>
<line x1="50.5" y1="158.9" x2="72.4" y2="143.1" stroke="rgb(0,0,0)"  stroke-width="1.0"/>
<line x1="374.1" y1="134.4" x2="374.1" y2="148.4" stroke="rgb(0,0,0)"  stroke-width="1.0"/>
<polygon points="214.301005 127.934301 199.340884 150.527105 193.395725 145.174060 " stroke-width="1.000000" fill="rgb(0,0,0)"  stroke="rgb(0,0,0)" />
<polygon points="254.081881 132.115440 277.545982 164.756456 270.617779 168.756456 " stroke-width="1.000000" fill="rgb(0,0,0)"  stroke="rgb(0,0,0)" />
<line x1="274.1" y1="166.8" x2="314.1" y2="166.8" stroke="rgb(0,0,0)"  stroke-width="1.0"/>
<line x1="314.1" y1="166.8" x2="327.6" y2="190.1" stroke="rgb(0,0,0)"  stroke-width="1.0"/>
<line x1="361.1" y1="201.4" x2="347.1" y2="201.4" stroke="rgb(0,0,0)"  stroke-width="1.0"/>
<line x1="240.6" y1="68.8" x2="260.7" y2="86.9" stroke="rgb(0,0,0)"  stroke-width="1.0"/>
<line x1="265.1" y1="107.4" x2="254.1" y2="132.1" stroke="rgb(0,0,0)"  stroke-width="1.0"/>
<line x1="254.1" y1="132.1" x2="214.3" y2="127.9" stroke="rgb(0,0,0)"  stroke-width="1.0"/>
<line x1="214.3" y1="127.9" x2="208.7" y2="101.5" stroke="rgb(0,0,0)"  stroke-width="1.0"/>
<line x1="217.2" y1="82.3" x2="240.6" y2="68.8" stroke="rgb(0,0,0)"  stroke-width="1.0"/>
<line x1="100.5" y1="79.8" x2="78.9" y2="95.5" stroke="rgb(0,0,0)"  stroke-width="1.0"/>
<line x1="99.9" y1="89.1" x2="84.7" y2="100.2" stroke="rgb(0,0,0)"  stroke-width="1.0"/>
<line x1="69.5" y1="116.2" x2="72.4" y2="143.1" stroke="rgb(0,0,0)"  stroke-width="1.0"/>
<line x1="72.4" y1="143.1" x2="96.8" y2="154.0" stroke="rgb(0,0,0)"  stroke-width="1.0"/>
<line x1="80.8" y1="138.9" x2="97.9" y2="146.6" stroke="rgb(0,0,0)"  stroke-width="1.0"/>
<line x1="119.4" y1="151.7" x2="141.3" y2="135.8" stroke="rgb(0,0,0)"  stroke-width="1.0"/>
<line x1="141.3" y1="135.8" x2="137.1" y2="96.1" stroke="rgb(0,0,0)"  stroke-width="1.0"/>
<line x1="133.5" y1="130.6" x2="130.5" y2="102.8" stroke="rgb(0,0,0)"  stroke-width="1.0"/>
<line x1="137.1" y1="96.1" x2="100.5" y2="79.8" stroke="rgb(0,0,0)"  stroke-width="1.0"/>
<text x="14.000000" y="174.584572" fill="rgb(102,102,102)"  stroke="rgb(102,102,102)" stroke-width="1" font-size="16" >H</text>
<text x="26.000000" y="178.264572" fill="rgb(102,102,102)"  stroke="rgb(102,102,102)" stroke-width="1" font-size="13" >3</text>
<text x="32.500000" y="174.584572" fill="rgb(102,102,102)"  stroke="rgb(102,102,102)" stroke-width="1" font-size="16" >C</text>
<text x="161.535781" y="165.660094" fill="rgb(102,102,102)"  stroke="rgb(102,102,102)" stroke-width="1" font-size="16" >H</text>
<text x="173.535781" y="169.340094" fill="rgb(102,102,102)"  stroke="rgb(102,102,102)" stroke-width="1" font-size="13" >3</text>
<text x="180.035781" y="165.660094" fill="rgb(102,102,102)"  stroke="rgb(102,102,102)" stroke-width="1" font-size="16" >C</text>
<text x="368.081881" y="209.397472" fill="rgb(255,127,0)"  stroke="rgb(255,127,0)" stroke-width="1" font-size="16" >P</text>
<text x="368.081881" y="129.397472" fill="rgb(255,127,0)"  stroke="rgb(255,127,0)" stroke-width="1" font-size="16" >P</text>
<text x="70.359082" y="48.000000" fill="rgb(12,12,255)"  stroke="rgb(12,12,255)" stroke-width="1" font-size="16" >H</text>
<text x="82.359082" y="51.680000" fill="rgb(12,12,255)"  stroke="rgb(12,12,255)" stroke-width="1" font-size="13" >2</text>
<text x="88.859082" y="48.000000" fill="rgb(12,12,255)"  stroke="rgb(12,12,255)" stroke-width="1" font-size="16" >N</text>
<text x="62.179541" y="111.292286" fill="rgb(12,12,255)"  stroke="rgb(12,12,255)" stroke-width="1" font-size="16" >N</text>
<text x="102.902498" y="167.342627" fill="rgb(12,12,255)"  stroke="rgb(12,12,255)" stroke-width="1" font-size="16" >N</text>
<text x="378.881881" y="237.365472" fill="rgb(255,12,12)"  stroke="rgb(255,12,12)" stroke-width="1" font-size="32" >-</text>
<text x="368.081881" y="249.397472" fill="rgb(255,12,12)"  stroke="rgb(255,12,12)" stroke-width="1" font-size="16" >O</text>
<text x="408.081881" y="129.397472" fill="rgb(255,12,12)"  stroke="rgb(255,12,12)" stroke-width="1" font-size="16" >OH</text>
<text x="264.351347" y="103.573621" fill="rgb(178,178,0)"  stroke="rgb(178,178,0)" stroke-width="1" font-size="16" >S</text>
<text x="408.081881" y="209.397472" fill="rgb(255,12,12)"  stroke="rgb(255,12,12)" stroke-width="1" font-size="16" >O</text>
<text x="378.881881" y="77.365472" fill="rgb(255,12,12)"  stroke="rgb(255,12,12)" stroke-width="1" font-size="32" >-</text>
<text x="368.081881" y="89.397472" fill="rgb(255,12,12)"  stroke="rgb(255,12,12)" stroke-width="1" font-size="16" >O</text>
<text x="199.984537" y="96.808397" fill="rgb(12,12,255)"  stroke="rgb(12,12,255)" stroke-width="1" font-size="16" >N</text>
<text x="368.081881" y="169.397472" fill="rgb(255,12,12)"  stroke="rgb(255,12,12)" stroke-width="1" font-size="16" >O</text>
<text x="328.081881" y="129.397472" fill="rgb(255,12,12)"  stroke="rgb(255,12,12)" stroke-width="1" font-size="16" >O</text>
<text x="328.081881" y="209.397472" fill="rgb(255,12,12)"  stroke="rgb(255,12,12)" stroke-width="1" font-size="16" >O</text>
<text font-size="18.000000" fill ="black" font-family="sans-serif"
x="10.000000" y="20.000000" ></text>
<title> - OBDepict</title>
</svg>
