<?xml version="1.0"?>
<svg xmlns="http://www.w3.org/2000/svg"
xmlns:xlink="http://www.w3.org/1999/xlink" xmlns:cml="http://www.xml-cml.org/schema" width="391.769" height="320" x="0" y="0" font-family="sans-serif" stroke="rgb(0,0,0)" stroke-width="1"  stroke-linecap="round">
<rect x="0%" y="0%" width="100%" height="100%" stroke-width="0" fill="rgb(255,255,255)"  />
<polygon points="143.923 220 118.714 210.064 122.714 203.136 " stroke-width="1" fill="rgb(0,0,0)"  stroke="rgb(0,0,0)" />
<polygon points="109.282 80 105.282 53.2 113.282 53.2 " stroke-width="1" fill="rgb(0,0,0)"  stroke="rgb(0,0,0)" />
<line x1="208.2" y1="98.0" x2="209.0" y2="96.6" stroke="rgb(0,0,0)"  stroke-width="1.0"/>
<line x1="204.1" y1="96.4" x2="205.6" y2="93.9" stroke="rgb(0,0,0)"  stroke-width="1.0"/>
<line x1="200.1" y1="94.8" x2="202.2" y2="91.2" stroke="rgb(0,0,0)"  stroke-width="1.0"/>
<line x1="196.1" y1="93.2" x2="198.8" y2="88.5" stroke="rgb(0,0,0)"  stroke-width="1.0"/>
<line x1="192.0" y1="91.7" x2="195.4" y2="85.8" stroke="rgb(0,0,0)"  stroke-width="1.0"/>
<line x1="188.0" y1="90.1" x2="192.0" y2="83.1" stroke="rgb(0,0,0)"  stroke-width="1.0"/>
<polygon points="143.923048 260.000000 122.713568 276.864102 118.713568 269.935898 " stroke-width="1.000000" fill="rgb(0,0,0)"  stroke="rgb(0,0,0)" />
<line x1="247.0" y1="74.6" x2="248.6" y2="74.6" stroke="rgb(0,0,0)"  stroke-width="1.0"/>
<line x1="246.4" y1="70.4" x2="249.3" y2="70.4" stroke="rgb(0,0,0)"  stroke-width="1.0"/>
<line x1="245.8" y1="66.1" x2="249.9" y2="66.1" stroke="rgb(0,0,0)"  stroke-width="1.0"/>
<line x1="245.1" y1="61.8" x2="250.6" y2="61.8" stroke="rgb(0,0,0)"  stroke-width="1.0"/>
<line x1="244.5" y1="57.5" x2="251.2" y2="57.5" stroke="rgb(0,0,0)"  stroke-width="1.0"/>
<line x1="243.8" y1="53.2" x2="251.8" y2="53.2" stroke="rgb(0,0,0)"  stroke-width="1.0"/>
<polygon points="74.641016 140.000000 53.431535 156.864102 49.431535 149.935898 " stroke-width="1.000000" fill="rgb(0,0,0)"  stroke="rgb(0,0,0)" />
<polygon points="282.487113 100.000000 303.696594 83.135898 307.696594 90.064102 " stroke-width="1.000000" fill="rgb(0,0,0)"  stroke="rgb(0,0,0)" />
<line x1="328.4" y1="86.5" x2="340.5" y2="93.5" stroke="rgb(0,0,0)"  stroke-width="1.0"/>
<line x1="110.1" y1="165.4" x2="108.5" y2="165.4" stroke="rgb(0,0,0)"  stroke-width="1.0"/>
<line x1="110.7" y1="169.6" x2="107.8" y2="169.6" stroke="rgb(0,0,0)"  stroke-width="1.0"/>
<line x1="111.4" y1="173.9" x2="107.2" y2="173.9" stroke="rgb(0,0,0)"  stroke-width="1.0"/>
<line x1="112.0" y1="178.2" x2="106.6" y2="178.2" stroke="rgb(0,0,0)"  stroke-width="1.0"/>
<line x1="112.6" y1="182.5" x2="105.9" y2="182.5" stroke="rgb(0,0,0)"  stroke-width="1.0"/>
<line x1="113.3" y1="186.8" x2="105.3" y2="186.8" stroke="rgb(0,0,0)"  stroke-width="1.0"/>
<polygon points="282.487113 140.000000 299.351215 161.209481 292.423011 165.209481 " stroke-width="1.000000" fill="rgb(0,0,0)"  stroke="rgb(0,0,0)" />
<line x1="282.5" y1="140.0" x2="309.5" y2="140.0" stroke="rgb(0,0,0)"  stroke-width="1.0"/>
<line x1="219.7" y1="215.3" x2="220.5" y2="216.7" stroke="rgb(0,0,0)"  stroke-width="1.0"/>
<line x1="225.0" y1="211.6" x2="226.4" y2="214.0" stroke="rgb(0,0,0)"  stroke-width="1.0"/>
<line x1="230.2" y1="207.8" x2="232.3" y2="211.4" stroke="rgb(0,0,0)"  stroke-width="1.0"/>
<line x1="235.4" y1="204.0" x2="238.1" y2="208.8" stroke="rgb(0,0,0)"  stroke-width="1.0"/>
<line x1="240.6" y1="200.3" x2="244.0" y2="206.1" stroke="rgb(0,0,0)"  stroke-width="1.0"/>
<line x1="245.8" y1="196.5" x2="249.8" y2="203.5" stroke="rgb(0,0,0)"  stroke-width="1.0"/>
<polygon points="143.923048 140.000000 169.132529 149.935898 165.132529 156.864102 " stroke-width="1.000000" fill="rgb(0,0,0)"  stroke="rgb(0,0,0)" />
<line x1="247.8" y1="200.0" x2="271.2" y2="213.5" stroke="rgb(0,0,0)"  stroke-width="1.0"/>
<line x1="148.2" y1="96.6" x2="149.0" y2="98.0" stroke="rgb(0,0,0)"  stroke-width="1.0"/>
<line x1="151.6" y1="93.9" x2="153.0" y2="96.4" stroke="rgb(0,0,0)"  stroke-width="1.0"/>
<line x1="155.0" y1="91.2" x2="157.0" y2="94.8" stroke="rgb(0,0,0)"  stroke-width="1.0"/>
<line x1="158.3" y1="88.5" x2="161.1" y2="93.2" stroke="rgb(0,0,0)"  stroke-width="1.0"/>
<line x1="161.7" y1="85.8" x2="165.1" y2="91.7" stroke="rgb(0,0,0)"  stroke-width="1.0"/>
<line x1="165.1" y1="83.1" x2="169.1" y2="90.1" stroke="rgb(0,0,0)"  stroke-width="1.0"/>
<line x1="74.6" y1="100.0" x2="109.3" y2="80.0" stroke="rgb(0,0,0)"  stroke-width="1.0"/>
<line x1="109.3" y1="80.0" x2="143.9" y2="100.0" stroke="rgb(0,0,0)"  stroke-width="1.0"/>
<line x1="143.9" y1="100.0" x2="143.9" y2="140.0" stroke="rgb(0,0,0)"  stroke-width="1.0"/>
<line x1="143.9" y1="140.0" x2="109.3" y2="160.0" stroke="rgb(0,0,0)"  stroke-width="1.0"/>
<line x1="109.3" y1="160.0" x2="74.6" y2="140.0" stroke="rgb(0,0,0)"  stroke-width="1.0"/>
<line x1="74.6" y1="140.0" x2="74.6" y2="100.0" stroke="rgb(0,0,0)"  stroke-width="1.0"/>
<line x1="143.9" y1="220.0" x2="143.9" y2="260.0" stroke="rgb(0,0,0)"  stroke-width="1.0"/>
<line x1="143.9" y1="260.0" x2="178.6" y2="280.0" stroke="rgb(0,0,0)"  stroke-width="1.0"/>
<line x1="178.6" y1="280.0" x2="213.2" y2="260.0" stroke="rgb(0,0,0)"  stroke-width="1.0"/>
<line x1="213.2" y1="260.0" x2="213.2" y2="220.0" stroke="rgb(0,0,0)"  stroke-width="1.0"/>
<line x1="213.2" y1="220.0" x2="189.8" y2="206.5" stroke="rgb(0,0,0)"  stroke-width="1.0"/>
<line x1="167.3" y1="206.5" x2="143.9" y2="220.0" stroke="rgb(0,0,0)"  stroke-width="1.0"/>
<line x1="213.2" y1="100.0" x2="247.8" y2="80.0" stroke="rgb(0,0,0)"  stroke-width="1.0"/>
<line x1="247.8" y1="80.0" x2="282.5" y2="100.0" stroke="rgb(0,0,0)"  stroke-width="1.0"/>
<line x1="282.5" y1="100.0" x2="282.5" y2="140.0" stroke="rgb(0,0,0)"  stroke-width="1.0"/>
<line x1="282.5" y1="140.0" x2="247.8" y2="160.0" stroke="rgb(0,0,0)"  stroke-width="1.0"/>
<line x1="247.8" y1="160.0" x2="224.5" y2="146.5" stroke="rgb(0,0,0)"  stroke-width="1.0"/>
<line x1="213.2" y1="127.0" x2="213.2" y2="100.0" stroke="rgb(0,0,0)"  stroke-width="1.0"/>
<text x="103.282032" y="208.000000" fill="rgb(255,12,12)"  stroke="rgb(255,12,12)" stroke-width="1" font-size="16" >O</text>
<text x="105.282032" y="48.000000" fill="rgb(12,12,255)"  stroke="rgb(12,12,255)" stroke-width="1" font-size="16" >NH</text>
<text x="129.282032" y="51.680000" fill="rgb(12,12,255)"  stroke="rgb(12,12,255)" stroke-width="1" font-size="13" >2</text>
<text x="83.282032" y="288.000000" fill="rgb(12,12,255)"  stroke="rgb(12,12,255)" stroke-width="1" font-size="16" >H</text>
<text x="95.282032" y="291.680000" fill="rgb(12,12,255)"  stroke="rgb(12,12,255)" stroke-width="1" font-size="13" >2</text>
<text x="101.782032" y="288.000000" fill="rgb(12,12,255)"  stroke="rgb(12,12,255)" stroke-width="1" font-size="16" >N</text>
<text x="241.846097" y="48.000000" fill="rgb(255,12,12)"  stroke="rgb(255,12,12)" stroke-width="1" font-size="16" >OH</text>
<text x="14.000000" y="168.000000" fill="rgb(12,12,255)"  stroke="rgb(12,12,255)" stroke-width="1" font-size="16" >H</text>
<text x="26.000000" y="171.680000" fill="rgb(12,12,255)"  stroke="rgb(12,12,255)" stroke-width="1" font-size="13" >2</text>
<text x="32.500000" y="168.000000" fill="rgb(12,12,255)"  stroke="rgb(12,12,255)" stroke-width="1" font-size="16" >N</text>
<text x="311.128129" y="88.000000" fill="rgb(12,12,255)"  stroke="rgb(12,12,255)" stroke-width="1" font-size="16" >N</text>
<text x="311.128129" y="72.000000" fill="rgb(12,12,255)"  stroke="rgb(12,12,255)" stroke-width="1" font-size="16" >H</text>
<text x="296.487113" y="182.641016" fill="rgb(255,12,12)"  stroke="rgb(255,12,12)" stroke-width="1" font-size="16" >OH</text>
<text x="172.564065" y="208.000000" fill="rgb(255,12,12)"  stroke="rgb(255,12,12)" stroke-width="1" font-size="16" >O</text>
<text x="172.564065" y="168.000000" fill="rgb(255,12,12)"  stroke="rgb(255,12,12)" stroke-width="1" font-size="16" >OH</text>
<text x="207.205081" y="148.000000" fill="rgb(255,12,12)"  stroke="rgb(255,12,12)" stroke-width="1" font-size="16" >O</text>
<text x="278.487113" y="228.000000" fill="rgb(12,12,255)"  stroke="rgb(12,12,255)" stroke-width="1" font-size="16" >NH</text>
<text x="302.487113" y="231.680000" fill="rgb(12,12,255)"  stroke="rgb(12,12,255)" stroke-width="1" font-size="13" >2</text>
<text x="172.564065" y="88.000000" fill="rgb(255,12,12)"  stroke="rgb(255,12,12)" stroke-width="1" font-size="16" >O</text>
<text x="318.487113" y="148.000000" fill="rgb(102,102,102)"  stroke="rgb(102,102,102)" stroke-width="1" font-size="16" >CH</text>
<text x="342.487113" y="151.680000" fill="rgb(102,102,102)"  stroke="rgb(102,102,102)" stroke-width="1" font-size="13" >3</text>
<text x="347.769145" y="108.000000" fill="rgb(102,102,102)"  stroke="rgb(102,102,102)" stroke-width="1" font-size="16" >CH</text>
<text x="371.769145" y="111.680000" fill="rgb(102,102,102)"  stroke="rgb(102,102,102)" stroke-width="1" font-size="13" >3</text>
<text font-size="18.000000" fill ="black" font-family="sans-serif"
x="10.000000" y="20.000000" ></text>
<title> - OBDepict</title>
</svg>
