<?xml version="1.0"?>
<svg xmlns="http://www.w3.org/2000/svg"
xmlns:xlink="http://www.w3.org/1999/xlink" xmlns:cml="http://www.xml-cml.org/schema" width="426.41" height="380" x="0" y="0" font-family="sans-serif" stroke="rgb(0,0,0)" stroke-width="1"  stroke-linecap="round">
<rect x="0%" y="0%" width="100%" height="100%" stroke-width="0" fill="rgb(255,255,255)"  />
<polygon points="317.128 160 321.128 186.8 313.128 186.8 " stroke-width="1" fill="rgb(0,0,0)"  stroke="rgb(0,0,0)" />
<polygon points="351.769 140 376.979 149.936 372.979 156.864 " stroke-width="1" fill="rgb(0,0,0)"  stroke="rgb(0,0,0)" />
<line x1="356.0" y1="96.6" x2="356.8" y2="98.0" stroke="rgb(0,0,0)"  stroke-width="1.0"/>
<line x1="359.4" y1="93.9" x2="360.8" y2="96.4" stroke="rgb(0,0,0)"  stroke-width="1.0"/>
<line x1="362.8" y1="91.2" x2="364.9" y2="94.8" stroke="rgb(0,0,0)"  stroke-width="1.0"/>
<line x1="366.2" y1="88.5" x2="368.9" y2="93.2" stroke="rgb(0,0,0)"  stroke-width="1.0"/>
<line x1="369.6" y1="85.8" x2="372.9" y2="91.7" stroke="rgb(0,0,0)"  stroke-width="1.0"/>
<line x1="373.0" y1="83.1" x2="377.0" y2="90.1" stroke="rgb(0,0,0)"  stroke-width="1.0"/>
<polygon points="317.128129 80.000000 313.128129 53.200000 321.128129 53.200000 " stroke-width="1.000000" fill="rgb(0,0,0)"  stroke="rgb(0,0,0)" />
<line x1="275.2" y1="96.7" x2="276.0" y2="95.3" stroke="rgb(0,0,0)"  stroke-width="1.0"/>
<line x1="269.3" y1="94.0" x2="270.7" y2="91.6" stroke="rgb(0,0,0)"  stroke-width="1.0"/>
<line x1="263.4" y1="91.4" x2="265.5" y2="87.8" stroke="rgb(0,0,0)"  stroke-width="1.0"/>
<line x1="257.6" y1="88.8" x2="260.3" y2="84.0" stroke="rgb(0,0,0)"  stroke-width="1.0"/>
<line x1="251.7" y1="86.1" x2="255.1" y2="80.3" stroke="rgb(0,0,0)"  stroke-width="1.0"/>
<line x1="245.8" y1="83.5" x2="249.8" y2="76.5" stroke="rgb(0,0,0)"  stroke-width="1.0"/>
<line x1="247.8" y1="80.0" x2="224.5" y2="93.5" stroke="rgb(0,0,0)"  stroke-width="1.0"/>
<line x1="287.5" y1="262.0" x2="286.7" y2="263.4" stroke="rgb(0,0,0)"  stroke-width="1.0"/>
<line x1="291.6" y1="263.6" x2="290.1" y2="266.1" stroke="rgb(0,0,0)"  stroke-width="1.0"/>
<line x1="295.6" y1="265.2" x2="293.5" y2="268.8" stroke="rgb(0,0,0)"  stroke-width="1.0"/>
<line x1="299.6" y1="266.8" x2="296.9" y2="271.5" stroke="rgb(0,0,0)"  stroke-width="1.0"/>
<line x1="303.7" y1="268.3" x2="300.3" y2="274.2" stroke="rgb(0,0,0)"  stroke-width="1.0"/>
<line x1="307.7" y1="269.9" x2="303.7" y2="276.9" stroke="rgb(0,0,0)"  stroke-width="1.0"/>
<line x1="209.0" y1="263.4" x2="208.2" y2="262.0" stroke="rgb(0,0,0)"  stroke-width="1.0"/>
<line x1="205.6" y1="266.1" x2="204.1" y2="263.6" stroke="rgb(0,0,0)"  stroke-width="1.0"/>
<line x1="202.2" y1="268.8" x2="200.1" y2="265.2" stroke="rgb(0,0,0)"  stroke-width="1.0"/>
<line x1="198.8" y1="271.5" x2="196.1" y2="266.8" stroke="rgb(0,0,0)"  stroke-width="1.0"/>
<line x1="195.4" y1="274.2" x2="192.0" y2="268.3" stroke="rgb(0,0,0)"  stroke-width="1.0"/>
<line x1="192.0" y1="276.9" x2="188.0" y2="269.9" stroke="rgb(0,0,0)"  stroke-width="1.0"/>
<polygon points="213.205081 220.000000 187.995600 210.064102 191.995600 203.135898 " stroke-width="1.000000" fill="rgb(0,0,0)"  stroke="rgb(0,0,0)" />
<line x1="247.0" y1="194.6" x2="248.6" y2="194.6" stroke="rgb(0,0,0)"  stroke-width="1.0"/>
<line x1="246.4" y1="190.4" x2="249.3" y2="190.4" stroke="rgb(0,0,0)"  stroke-width="1.0"/>
<line x1="245.8" y1="186.1" x2="249.9" y2="186.1" stroke="rgb(0,0,0)"  stroke-width="1.0"/>
<line x1="245.1" y1="181.8" x2="250.6" y2="181.8" stroke="rgb(0,0,0)"  stroke-width="1.0"/>
<line x1="244.5" y1="177.5" x2="251.2" y2="177.5" stroke="rgb(0,0,0)"  stroke-width="1.0"/>
<line x1="243.8" y1="173.2" x2="251.8" y2="173.2" stroke="rgb(0,0,0)"  stroke-width="1.0"/>
<polygon points="282.487113 220.000000 303.696594 203.135898 307.696594 210.064102 " stroke-width="1.000000" fill="rgb(0,0,0)"  stroke="rgb(0,0,0)" />
<polygon points="143.923048 220.000000 165.132529 203.135898 169.132529 210.064102 " stroke-width="1.000000" fill="rgb(0,0,0)"  stroke="rgb(0,0,0)" />
<polygon points="109.282032 200.000000 105.282032 173.200000 113.282032 173.200000 " stroke-width="1.000000" fill="rgb(0,0,0)"  stroke="rgb(0,0,0)" />
<polygon points="74.641016 260.000000 53.431535 276.864102 49.431535 269.935898 " stroke-width="1.000000" fill="rgb(0,0,0)"  stroke="rgb(0,0,0)" />
<line x1="110.1" y1="288.0" x2="108.5" y2="288.0" stroke="rgb(0,0,0)"  stroke-width="1.0"/>
<line x1="110.7" y1="294.4" x2="107.8" y2="294.4" stroke="rgb(0,0,0)"  stroke-width="1.0"/>
<line x1="111.4" y1="300.8" x2="107.2" y2="300.8" stroke="rgb(0,0,0)"  stroke-width="1.0"/>
<line x1="112.0" y1="307.2" x2="106.6" y2="307.2" stroke="rgb(0,0,0)"  stroke-width="1.0"/>
<line x1="112.6" y1="313.6" x2="105.9" y2="313.6" stroke="rgb(0,0,0)"  stroke-width="1.0"/>
<line x1="113.3" y1="320.0" x2="105.3" y2="320.0" stroke="rgb(0,0,0)"  stroke-width="1.0"/>
<line x1="109.3" y1="320.0" x2="85.9" y2="333.5" stroke="rgb(0,0,0)"  stroke-width="1.0"/>
<line x1="317.1" y1="160.0" x2="351.8" y2="140.0" stroke="rgb(0,0,0)"  stroke-width="1.0"/>
<line x1="351.8" y1="140.0" x2="351.8" y2="100.0" stroke="rgb(0,0,0)"  stroke-width="1.0"/>
<line x1="351.8" y1="100.0" x2="317.1" y2="80.0" stroke="rgb(0,0,0)"  stroke-width="1.0"/>
<line x1="317.1" y1="80.0" x2="282.5" y2="100.0" stroke="rgb(0,0,0)"  stroke-width="1.0"/>
<line x1="282.5" y1="100.0" x2="282.5" y2="127.0" stroke="rgb(0,0,0)"  stroke-width="1.0"/>
<line x1="293.7" y1="146.5" x2="317.1" y2="160.0" stroke="rgb(0,0,0)"  stroke-width="1.0"/>
<line x1="282.5" y1="260.0" x2="247.8" y2="280.0" stroke="rgb(0,0,0)"  stroke-width="1.0"/>
<line x1="247.8" y1="280.0" x2="213.2" y2="260.0" stroke="rgb(0,0,0)"  stroke-width="1.0"/>
<line x1="213.2" y1="260.0" x2="213.2" y2="220.0" stroke="rgb(0,0,0)"  stroke-width="1.0"/>
<line x1="213.2" y1="220.0" x2="247.8" y2="200.0" stroke="rgb(0,0,0)"  stroke-width="1.0"/>
<line x1="247.8" y1="200.0" x2="282.5" y2="220.0" stroke="rgb(0,0,0)"  stroke-width="1.0"/>
<line x1="282.5" y1="220.0" x2="282.5" y2="260.0" stroke="rgb(0,0,0)"  stroke-width="1.0"/>
<line x1="143.9" y1="220.0" x2="109.3" y2="200.0" stroke="rgb(0,0,0)"  stroke-width="1.0"/>
<line x1="109.3" y1="200.0" x2="74.6" y2="220.0" stroke="rgb(0,0,0)"  stroke-width="1.0"/>
<line x1="74.6" y1="220.0" x2="74.6" y2="260.0" stroke="rgb(0,0,0)"  stroke-width="1.0"/>
<line x1="74.6" y1="260.0" x2="109.3" y2="280.0" stroke="rgb(0,0,0)"  stroke-width="1.0"/>
<line x1="109.3" y1="280.0" x2="132.7" y2="266.5" stroke="rgb(0,0,0)"  stroke-width="1.0"/>
<line x1="143.9" y1="247.0" x2="143.9" y2="220.0" stroke="rgb(0,0,0)"  stroke-width="1.0"/>
<text x="380.410162" y="168.000000" fill="rgb(255,12,12)"  stroke="rgb(255,12,12)" stroke-width="1" font-size="16" >OH</text>
<text x="391.210162" y="75.968000" fill="rgb(12,12,255)"  stroke="rgb(12,12,255)" stroke-width="1" font-size="16" >+</text>
<text x="382.410162" y="88.000000" fill="rgb(12,12,255)"  stroke="rgb(12,12,255)" stroke-width="1" font-size="16" >NH</text>
<text x="406.410162" y="91.680000" fill="rgb(12,12,255)"  stroke="rgb(12,12,255)" stroke-width="1" font-size="13" >3</text>
<text x="311.128129" y="48.000000" fill="rgb(255,12,12)"  stroke="rgb(255,12,12)" stroke-width="1" font-size="16" >OH</text>
<text x="276.487113" y="148.000000" fill="rgb(255,12,12)"  stroke="rgb(255,12,12)" stroke-width="1" font-size="16" >O</text>
<text x="195.205081" y="108.000000" fill="rgb(255,12,12)"  stroke="rgb(255,12,12)" stroke-width="1" font-size="16" >HO</text>
<text x="321.928129" y="275.968000" fill="rgb(12,12,255)"  stroke="rgb(12,12,255)" stroke-width="1" font-size="16" >+</text>
<text x="313.128129" y="288.000000" fill="rgb(12,12,255)"  stroke="rgb(12,12,255)" stroke-width="1" font-size="16" >NH</text>
<text x="337.128129" y="291.680000" fill="rgb(12,12,255)"  stroke="rgb(12,12,255)" stroke-width="1" font-size="13" >3</text>
<text x="182.464065" y="276.724000" fill="rgb(12,12,255)"  stroke="rgb(12,12,255)" stroke-width="1" font-size="13" >+</text>
<text x="152.564065" y="288.000000" fill="rgb(12,12,255)"  stroke="rgb(12,12,255)" stroke-width="1" font-size="16" >H</text>
<text x="164.564065" y="291.680000" fill="rgb(12,12,255)"  stroke="rgb(12,12,255)" stroke-width="1" font-size="13" >3</text>
<text x="171.064065" y="288.000000" fill="rgb(12,12,255)"  stroke="rgb(12,12,255)" stroke-width="1" font-size="16" >N</text>
<text x="241.846097" y="168.000000" fill="rgb(255,12,12)"  stroke="rgb(255,12,12)" stroke-width="1" font-size="16" >OH</text>
<text x="311.128129" y="208.000000" fill="rgb(255,12,12)"  stroke="rgb(255,12,12)" stroke-width="1" font-size="16" >O</text>
<text x="114.082032" y="155.968000" fill="rgb(12,12,255)"  stroke="rgb(12,12,255)" stroke-width="1" font-size="16" >+</text>
<text x="105.282032" y="168.000000" fill="rgb(12,12,255)"  stroke="rgb(12,12,255)" stroke-width="1" font-size="16" >NH</text>
<text x="129.282032" y="171.680000" fill="rgb(12,12,255)"  stroke="rgb(12,12,255)" stroke-width="1" font-size="13" >3</text>
<text x="78.541016" y="336.724000" fill="rgb(12,12,255)"  stroke="rgb(12,12,255)" stroke-width="1" font-size="13" >+</text>
<text x="48.641016" y="348.000000" fill="rgb(12,12,255)"  stroke="rgb(12,12,255)" stroke-width="1" font-size="16" >H</text>
<text x="60.641016" y="351.680000" fill="rgb(12,12,255)"  stroke="rgb(12,12,255)" stroke-width="1" font-size="13" >3</text>
<text x="67.141016" y="348.000000" fill="rgb(12,12,255)"  stroke="rgb(12,12,255)" stroke-width="1" font-size="16" >N</text>
<text x="172.564065" y="208.000000" fill="rgb(255,12,12)"  stroke="rgb(255,12,12)" stroke-width="1" font-size="16" >O</text>
<text x="22.000000" y="288.000000" fill="rgb(255,12,12)"  stroke="rgb(255,12,12)" stroke-width="1" font-size="16" >HO</text>
<text x="137.923048" y="268.000000" fill="rgb(255,12,12)"  stroke="rgb(255,12,12)" stroke-width="1" font-size="16" >O</text>
<text font-size="18.000000" fill ="black" font-family="sans-serif"
x="10.000000" y="20.000000" ></text>
<title> - OBDepict</title>
</svg>
