<?xml version="1.0"?>
<svg xmlns="http://www.w3.org/2000/svg"
xmlns:xlink="http://www.w3.org/1999/xlink" xmlns:cml="http://www.xml-cml.org/schema" width="691.987" height="297.594" x="0" y="0" font-family="sans-serif" stroke="rgb(0,0,0)" stroke-width="1"  stroke-linecap="round">
<rect x="0%" y="0%" width="100%" height="100%" stroke-width="0" fill="rgb(255,255,255)"  />
<line x1="640.7" y1="172.2" x2="617.3" y2="158.7" stroke="rgb(0,0,0)"  stroke-width="1.0"/>
<line x1="419.9" y1="185.9" x2="419.1" y2="187.3" stroke="rgb(0,0,0)"  stroke-width="1.0"/>
<line x1="423.9" y1="187.5" x2="422.5" y2="189.9" stroke="rgb(0,0,0)"  stroke-width="1.0"/>
<line x1="428.0" y1="189.0" x2="425.9" y2="192.6" stroke="rgb(0,0,0)"  stroke-width="1.0"/>
<line x1="432.0" y1="190.6" x2="429.3" y2="195.3" stroke="rgb(0,0,0)"  stroke-width="1.0"/>
<line x1="436.0" y1="192.2" x2="432.7" y2="198.0" stroke="rgb(0,0,0)"  stroke-width="1.0"/>
<line x1="440.1" y1="193.8" x2="436.1" y2="200.7" stroke="rgb(0,0,0)"  stroke-width="1.0"/>
<line x1="582.7" y1="71.7" x2="582.7" y2="98.7" stroke="rgb(0,0,0)"  stroke-width="1.0"/>
<polygon points="462.942292 140.571528 472.878191 115.362047 479.806394 119.362047 " stroke-width="1.000000" fill="rgb(0,0,0)"  stroke="rgb(0,0,0)" />
<polygon points="423.161416 144.752666 411.075535 120.500420 418.683987 118.028284 " stroke-width="1.000000" fill="rgb(0,0,0)"  stroke="rgb(0,0,0)" />
<line x1="484.6" y1="177.4" x2="484.3" y2="179.0" stroke="rgb(0,0,0)"  stroke-width="1.0"/>
<line x1="488.9" y1="177.7" x2="488.3" y2="180.5" stroke="rgb(0,0,0)"  stroke-width="1.0"/>
<line x1="493.3" y1="178.0" x2="492.4" y2="182.0" stroke="rgb(0,0,0)"  stroke-width="1.0"/>
<line x1="497.6" y1="178.2" x2="496.5" y2="183.6" stroke="rgb(0,0,0)"  stroke-width="1.0"/>
<line x1="501.9" y1="178.5" x2="500.5" y2="185.1" stroke="rgb(0,0,0)"  stroke-width="1.0"/>
<line x1="506.3" y1="178.8" x2="504.6" y2="186.6" stroke="rgb(0,0,0)"  stroke-width="1.0"/>
<polygon points="299.841108 224.837811 290.613745 235.599584 286.256632 228.890219 " stroke-width="1.000000" fill="rgb(0,0,0)"  stroke="rgb(0,0,0)" />
<line x1="309.3" y1="244.8" x2="308.6" y2="230.8" stroke="rgb(0,0,0)"  stroke-width="1.0"/>
<line x1="315.3" y1="244.5" x2="314.6" y2="230.5" stroke="rgb(0,0,0)"  stroke-width="1.0"/>
<polygon points="392.145395 72.755946 401.372759 61.994173 405.729871 68.703538 " stroke-width="1.000000" fill="rgb(0,0,0)"  stroke="rgb(0,0,0)" />
<line x1="382.7" y1="52.8" x2="383.4" y2="66.8" stroke="rgb(0,0,0)"  stroke-width="1.0"/>
<line x1="376.7" y1="53.1" x2="377.4" y2="67.1" stroke="rgb(0,0,0)"  stroke-width="1.0"/>
<line x1="281.9" y1="107.2" x2="283.1" y2="108.3" stroke="rgb(0,0,0)"  stroke-width="1.0"/>
<line x1="285.7" y1="102.1" x2="287.8" y2="104.0" stroke="rgb(0,0,0)"  stroke-width="1.0"/>
<line x1="289.5" y1="96.9" x2="292.6" y2="99.6" stroke="rgb(0,0,0)"  stroke-width="1.0"/>
<line x1="293.3" y1="91.7" x2="297.4" y2="95.3" stroke="rgb(0,0,0)"  stroke-width="1.0"/>
<line x1="297.1" y1="86.5" x2="302.1" y2="91.0" stroke="rgb(0,0,0)"  stroke-width="1.0"/>
<line x1="300.9" y1="81.3" x2="306.9" y2="86.7" stroke="rgb(0,0,0)"  stroke-width="1.0"/>
<polygon points="268.825087 152.841091 280.910969 177.093337 273.302516 179.565473 " stroke-width="1.000000" fill="rgb(0,0,0)"  stroke="rgb(0,0,0)" />
<polygon points="229.044211 157.022229 219.108313 182.231710 212.180110 178.231710 " stroke-width="1.000000" fill="rgb(0,0,0)"  stroke="rgb(0,0,0)" />
<line x1="207.4" y1="120.1" x2="207.7" y2="118.6" stroke="rgb(0,0,0)"  stroke-width="1.0"/>
<line x1="203.0" y1="119.9" x2="203.6" y2="117.1" stroke="rgb(0,0,0)"  stroke-width="1.0"/>
<line x1="198.7" y1="119.6" x2="199.6" y2="115.5" stroke="rgb(0,0,0)"  stroke-width="1.0"/>
<line x1="194.4" y1="119.4" x2="195.5" y2="114.0" stroke="rgb(0,0,0)"  stroke-width="1.0"/>
<line x1="190.1" y1="119.1" x2="191.5" y2="112.5" stroke="rgb(0,0,0)"  stroke-width="1.0"/>
<line x1="185.7" y1="118.8" x2="187.4" y2="111.0" stroke="rgb(0,0,0)"  stroke-width="1.0"/>
<line x1="74.6" y1="138.9" x2="51.3" y2="125.4" stroke="rgb(0,0,0)"  stroke-width="1.0"/>
<line x1="534.6" y1="222.0" x2="561.3" y2="219.2" stroke="rgb(0,0,0)"  stroke-width="1.0"/>
<line x1="539.8" y1="214.2" x2="558.5" y2="212.2" stroke="rgb(0,0,0)"  stroke-width="1.0"/>
<line x1="577.1" y1="205.1" x2="582.7" y2="178.7" stroke="rgb(0,0,0)"  stroke-width="1.0"/>
<line x1="582.7" y1="178.7" x2="548.1" y2="158.7" stroke="rgb(0,0,0)"  stroke-width="1.0"/>
<line x1="548.1" y1="158.7" x2="528.0" y2="176.7" stroke="rgb(0,0,0)"  stroke-width="1.0"/>
<line x1="523.6" y1="197.3" x2="534.6" y2="222.0" stroke="rgb(0,0,0)"  stroke-width="1.0"/>
<line x1="438.2" y1="197.4" x2="414.8" y2="183.9" stroke="rgb(0,0,0)"  stroke-width="1.0"/>
<line x1="414.8" y1="183.9" x2="423.2" y2="144.8" stroke="rgb(0,0,0)"  stroke-width="1.0"/>
<line x1="423.2" y1="144.8" x2="462.9" y2="140.6" stroke="rgb(0,0,0)"  stroke-width="1.0"/>
<line x1="462.9" y1="140.6" x2="479.2" y2="177.1" stroke="rgb(0,0,0)"  stroke-width="1.0"/>
<line x1="479.2" y1="177.1" x2="459.1" y2="195.2" stroke="rgb(0,0,0)"  stroke-width="1.0"/>
<line x1="212.8" y1="120.5" x2="229.0" y2="157.0" stroke="rgb(0,0,0)"  stroke-width="1.0"/>
<line x1="229.0" y1="157.0" x2="268.8" y2="152.8" stroke="rgb(0,0,0)"  stroke-width="1.0"/>
<line x1="268.8" y1="152.8" x2="277.1" y2="113.7" stroke="rgb(0,0,0)"  stroke-width="1.0"/>
<line x1="277.1" y1="113.7" x2="253.8" y2="100.2" stroke="rgb(0,0,0)"  stroke-width="1.0"/>
<line x1="232.8" y1="102.4" x2="212.8" y2="120.5" stroke="rgb(0,0,0)"  stroke-width="1.0"/>
<line x1="157.4" y1="75.6" x2="168.4" y2="100.3" stroke="rgb(0,0,0)"  stroke-width="1.0"/>
<line x1="164.0" y1="120.9" x2="143.9" y2="138.9" stroke="rgb(0,0,0)"  stroke-width="1.0"/>
<line x1="143.9" y1="138.9" x2="109.3" y2="118.9" stroke="rgb(0,0,0)"  stroke-width="1.0"/>
<line x1="142.3" y1="129.7" x2="118.1" y2="115.7" stroke="rgb(0,0,0)"  stroke-width="1.0"/>
<line x1="109.3" y1="118.9" x2="114.9" y2="92.5" stroke="rgb(0,0,0)"  stroke-width="1.0"/>
<line x1="130.7" y1="78.4" x2="157.4" y2="75.6" stroke="rgb(0,0,0)"  stroke-width="1.0"/>
<line x1="133.5" y1="85.4" x2="152.2" y2="83.4" stroke="rgb(0,0,0)"  stroke-width="1.0"/>
<line x1="548.1" y1="131.9" x2="548.1" y2="158.7" stroke="rgb(0,0,0)"  stroke-width="1.0"/>
<line x1="555.3" y1="133.9" x2="555.3" y2="152.7" stroke="rgb(0,0,0)"  stroke-width="1.0"/>
<line x1="582.7" y1="178.7" x2="617.3" y2="158.7" stroke="rgb(0,0,0)"  stroke-width="1.0"/>
<line x1="584.3" y1="169.4" x2="608.5" y2="155.4" stroke="rgb(0,0,0)"  stroke-width="1.0"/>
<line x1="617.3" y1="158.7" x2="617.3" y2="131.7" stroke="rgb(0,0,0)"  stroke-width="1.0"/>
<line x1="605.9" y1="112.1" x2="582.7" y2="98.7" stroke="rgb(0,0,0)"  stroke-width="1.0"/>
<line x1="600.6" y1="117.3" x2="584.3" y2="107.9" stroke="rgb(0,0,0)"  stroke-width="1.0"/>
<line x1="582.7" y1="98.7" x2="559.3" y2="112.2" stroke="rgb(0,0,0)"  stroke-width="1.0"/>
<line x1="109.3" y1="198.9" x2="85.9" y2="185.4" stroke="rgb(0,0,0)"  stroke-width="1.0"/>
<line x1="74.6" y1="165.7" x2="74.6" y2="138.9" stroke="rgb(0,0,0)"  stroke-width="1.0"/>
<line x1="81.8" y1="163.7" x2="81.8" y2="144.9" stroke="rgb(0,0,0)"  stroke-width="1.0"/>
<line x1="74.6" y1="138.9" x2="109.3" y2="118.9" stroke="rgb(0,0,0)"  stroke-width="1.0"/>
<line x1="143.9" y1="138.9" x2="143.9" y2="165.9" stroke="rgb(0,0,0)"  stroke-width="1.0"/>
<line x1="132.5" y1="185.5" x2="109.3" y2="198.9" stroke="rgb(0,0,0)"  stroke-width="1.0"/>
<line x1="127.2" y1="180.3" x2="110.9" y2="189.7" stroke="rgb(0,0,0)"  stroke-width="1.0"/>
<line x1="388.1" y1="213.6" x2="414.8" y2="183.9" stroke="rgb(0,0,0)"  stroke-width="1.0"/>
<line x1="423.2" y1="144.8" x2="414.8" y2="119.1" stroke="rgb(0,0,0)"  stroke-width="1.0"/>
<line x1="401.1" y1="98.0" x2="390.7" y2="88.6" stroke="rgb(0,0,0)"  stroke-width="1.0"/>
<line x1="368.4" y1="77.2" x2="354.7" y2="74.3" stroke="rgb(0,0,0)"  stroke-width="1.0"/>
<line x1="329.6" y1="75.6" x2="303.9" y2="84.0" stroke="rgb(0,0,0)"  stroke-width="1.0"/>
<line x1="303.9" y1="84.0" x2="277.1" y2="113.7" stroke="rgb(0,0,0)"  stroke-width="1.0"/>
<line x1="268.8" y1="152.8" x2="277.2" y2="178.5" stroke="rgb(0,0,0)"  stroke-width="1.0"/>
<line x1="290.8" y1="199.6" x2="301.3" y2="208.9" stroke="rgb(0,0,0)"  stroke-width="1.0"/>
<line x1="323.6" y1="220.4" x2="337.3" y2="223.3" stroke="rgb(0,0,0)"  stroke-width="1.0"/>
<line x1="362.4" y1="221.9" x2="388.1" y2="213.6" stroke="rgb(0,0,0)"  stroke-width="1.0"/>
<text x="578.704471" y="66.664589" fill="rgb(12,12,255)"  stroke="rgb(12,12,255)" stroke-width="1" font-size="16" >NH</text>
<text x="602.704471" y="70.344589" fill="rgb(12,12,255)"  stroke="rgb(12,12,255)" stroke-width="1" font-size="13" >2</text>
<text x="568.388004" y="225.790493" fill="rgb(12,12,255)"  stroke="rgb(12,12,255)" stroke-width="1" font-size="16" >N</text>
<text x="542.063455" y="126.664589" fill="rgb(12,12,255)"  stroke="rgb(12,12,255)" stroke-width="1" font-size="16" >N</text>
<text x="611.345487" y="126.664589" fill="rgb(12,12,255)"  stroke="rgb(12,12,255)" stroke-width="1" font-size="16" >N</text>
<text x="645.986503" y="186.664589" fill="rgb(255,12,12)"  stroke="rgb(255,12,12)" stroke-width="1" font-size="16" >OH</text>
<text x="282.164737" y="235.402137" fill="rgb(255,12,12)"  stroke="rgb(255,12,12)" stroke-width="1" font-size="32" >-</text>
<text x="271.364737" y="247.434137" fill="rgb(255,12,12)"  stroke="rgb(255,12,12)" stroke-width="1" font-size="16" >O</text>
<text x="419.421766" y="54.127620" fill="rgb(255,12,12)"  stroke="rgb(255,12,12)" stroke-width="1" font-size="32" >-</text>
<text x="408.621766" y="66.159620" fill="rgb(255,12,12)"  stroke="rgb(255,12,12)" stroke-width="1" font-size="16" >O</text>
<text x="476.942292" y="113.930512" fill="rgb(255,12,12)"  stroke="rgb(255,12,12)" stroke-width="1" font-size="16" >OH</text>
<text x="317.804998" y="253.561757" fill="rgb(255,12,12)"  stroke="rgb(255,12,12)" stroke-width="1" font-size="32" >-</text>
<text x="307.004998" y="265.593757" fill="rgb(255,12,12)"  stroke="rgb(255,12,12)" stroke-width="1" font-size="16" >O</text>
<text x="383.781505" y="35.968000" fill="rgb(255,12,12)"  stroke="rgb(255,12,12)" stroke-width="1" font-size="32" >-</text>
<text x="372.981505" y="48.000000" fill="rgb(255,12,12)"  stroke="rgb(255,12,12)" stroke-width="1" font-size="16" >O</text>
<text x="344.037464" y="233.965043" fill="rgb(255,12,12)"  stroke="rgb(255,12,12)" stroke-width="1" font-size="16" >O</text>
<text x="443.485965" y="211.878570" fill="rgb(255,12,12)"  stroke="rgb(255,12,12)" stroke-width="1" font-size="16" >O</text>
<text x="404.800737" y="114.710406" fill="rgb(255,12,12)"  stroke="rgb(255,12,12)" stroke-width="1" font-size="16" >O</text>
<text x="512.337662" y="193.429814" fill="rgb(12,12,255)"  stroke="rgb(12,12,255)" stroke-width="1" font-size="16" >N</text>
<text x="304.911560" y="225.648575" fill="rgb(255,127,0)"  stroke="rgb(255,127,0)" stroke-width="1" font-size="16" >P</text>
<text x="375.074944" y="87.945181" fill="rgb(255,127,0)"  stroke="rgb(255,127,0)" stroke-width="1" font-size="16" >P</text>
<text x="335.949040" y="79.628714" fill="rgb(255,12,12)"  stroke="rgb(255,12,12)" stroke-width="1" font-size="16" >O</text>
<text x="236.500539" y="101.715187" fill="rgb(255,12,12)"  stroke="rgb(255,12,12)" stroke-width="1" font-size="16" >O</text>
<text x="275.185767" y="198.883351" fill="rgb(255,12,12)"  stroke="rgb(255,12,12)" stroke-width="1" font-size="16" >O</text>
<text x="191.044211" y="199.663245" fill="rgb(255,12,12)"  stroke="rgb(255,12,12)" stroke-width="1" font-size="16" >HO</text>
<text x="68.641016" y="186.929167" fill="rgb(12,12,255)"  stroke="rgb(12,12,255)" stroke-width="1" font-size="16" >N</text>
<text x="137.923048" y="186.929167" fill="rgb(12,12,255)"  stroke="rgb(12,12,255)" stroke-width="1" font-size="16" >N</text>
<text x="14.000000" y="126.929167" fill="rgb(12,12,255)"  stroke="rgb(12,12,255)" stroke-width="1" font-size="16" >H</text>
<text x="26.000000" y="130.609167" fill="rgb(12,12,255)"  stroke="rgb(12,12,255)" stroke-width="1" font-size="13" >2</text>
<text x="32.500000" y="126.929167" fill="rgb(12,12,255)"  stroke="rgb(12,12,255)" stroke-width="1" font-size="16" >N</text>
<text x="111.598500" y="87.803263" fill="rgb(12,12,255)"  stroke="rgb(12,12,255)" stroke-width="1" font-size="16" >N</text>
<text x="167.648841" y="120.163943" fill="rgb(12,12,255)"  stroke="rgb(12,12,255)" stroke-width="1" font-size="16" >N</text>
<text font-size="18.000000" fill ="black" font-family="sans-serif"
x="10.000000" y="20.000000" ></text>
<title> - OBDepict</title>
</svg>
