<?xml version="1.0"?>
<svg xmlns="http://www.w3.org/2000/svg"
xmlns:xlink="http://www.w3.org/1999/xlink" xmlns:cml="http://www.xml-cml.org/schema" width="461.051" height="420" x="0" y="0" font-family="sans-serif" stroke="rgb(0,0,0)" stroke-width="1"  stroke-linecap="round">
<rect x="0%" y="0%" width="100%" height="100%" stroke-width="0" fill="rgb(255,255,255)"  />
<line x1="182.8" y1="276.6" x2="183.6" y2="278.0" stroke="rgb(0,0,0)"  stroke-width="1.0"/>
<line x1="186.2" y1="273.9" x2="187.6" y2="276.4" stroke="rgb(0,0,0)"  stroke-width="1.0"/>
<line x1="189.6" y1="271.2" x2="191.7" y2="274.8" stroke="rgb(0,0,0)"  stroke-width="1.0"/>
<line x1="193.0" y1="268.5" x2="195.7" y2="273.2" stroke="rgb(0,0,0)"  stroke-width="1.0"/>
<line x1="196.4" y1="265.8" x2="199.7" y2="271.7" stroke="rgb(0,0,0)"  stroke-width="1.0"/>
<line x1="199.8" y1="263.1" x2="203.8" y2="270.1" stroke="rgb(0,0,0)"  stroke-width="1.0"/>
<line x1="214.0" y1="225.4" x2="212.4" y2="225.4" stroke="rgb(0,0,0)"  stroke-width="1.0"/>
<line x1="214.6" y1="229.6" x2="211.8" y2="229.6" stroke="rgb(0,0,0)"  stroke-width="1.0"/>
<line x1="215.3" y1="233.9" x2="211.1" y2="233.9" stroke="rgb(0,0,0)"  stroke-width="1.0"/>
<line x1="215.9" y1="238.2" x2="210.5" y2="238.2" stroke="rgb(0,0,0)"  stroke-width="1.0"/>
<line x1="216.6" y1="242.5" x2="209.8" y2="242.5" stroke="rgb(0,0,0)"  stroke-width="1.0"/>
<line x1="217.2" y1="246.8" x2="209.2" y2="246.8" stroke="rgb(0,0,0)"  stroke-width="1.0"/>
<line x1="183.6" y1="322.0" x2="182.8" y2="323.4" stroke="rgb(0,0,0)"  stroke-width="1.0"/>
<line x1="187.6" y1="323.6" x2="186.2" y2="326.1" stroke="rgb(0,0,0)"  stroke-width="1.0"/>
<line x1="191.7" y1="325.2" x2="189.6" y2="328.8" stroke="rgb(0,0,0)"  stroke-width="1.0"/>
<line x1="195.7" y1="326.8" x2="193.0" y2="331.5" stroke="rgb(0,0,0)"  stroke-width="1.0"/>
<line x1="199.7" y1="328.3" x2="196.4" y2="334.2" stroke="rgb(0,0,0)"  stroke-width="1.0"/>
<line x1="203.8" y1="329.9" x2="199.8" y2="336.9" stroke="rgb(0,0,0)"  stroke-width="1.0"/>
<polygon points="143.923048 340.000000 147.923048 366.800000 139.923048 366.800000 " stroke-width="1.000000" fill="rgb(0,0,0)"  stroke="rgb(0,0,0)" />
<line x1="105.0" y1="323.4" x2="104.2" y2="322.0" stroke="rgb(0,0,0)"  stroke-width="1.0"/>
<line x1="101.6" y1="326.1" x2="100.2" y2="323.6" stroke="rgb(0,0,0)"  stroke-width="1.0"/>
<line x1="98.3" y1="328.8" x2="96.2" y2="325.2" stroke="rgb(0,0,0)"  stroke-width="1.0"/>
<line x1="94.9" y1="331.5" x2="92.1" y2="326.8" stroke="rgb(0,0,0)"  stroke-width="1.0"/>
<line x1="91.5" y1="334.2" x2="88.1" y2="328.3" stroke="rgb(0,0,0)"  stroke-width="1.0"/>
<line x1="88.1" y1="336.9" x2="84.1" y2="329.9" stroke="rgb(0,0,0)"  stroke-width="1.0"/>
<polygon points="109.282032 280.000000 72.641016 263.464102 76.641016 256.535898 " stroke-width="1.000000" fill="rgb(0,0,0)"  stroke="rgb(0,0,0)" />
<line x1="74.6" y1="260.0" x2="51.3" y2="273.5" stroke="rgb(0,0,0)"  stroke-width="1.0"/>
<polygon points="213.205081 140.000000 209.205081 113.200000 217.205081 113.200000 " stroke-width="1.000000" fill="rgb(0,0,0)"  stroke="rgb(0,0,0)" />
<line x1="201.9" y1="93.5" x2="178.6" y2="80.0" stroke="rgb(0,0,0)"  stroke-width="1.0"/>
<polygon points="178.564065 200.000000 157.354584 216.864102 153.354584 209.935898 " stroke-width="1.000000" fill="rgb(0,0,0)"  stroke="rgb(0,0,0)" />
<polygon points="247.846097 200.000000 273.055578 209.935898 269.055578 216.864102 " stroke-width="1.000000" fill="rgb(0,0,0)"  stroke="rgb(0,0,0)" />
<line x1="252.1" y1="156.6" x2="252.9" y2="158.0" stroke="rgb(0,0,0)"  stroke-width="1.0"/>
<line x1="255.5" y1="153.9" x2="256.9" y2="156.4" stroke="rgb(0,0,0)"  stroke-width="1.0"/>
<line x1="258.9" y1="151.2" x2="261.0" y2="154.8" stroke="rgb(0,0,0)"  stroke-width="1.0"/>
<line x1="262.3" y1="148.5" x2="265.0" y2="153.2" stroke="rgb(0,0,0)"  stroke-width="1.0"/>
<line x1="265.7" y1="145.8" x2="269.0" y2="151.7" stroke="rgb(0,0,0)"  stroke-width="1.0"/>
<line x1="269.1" y1="143.1" x2="273.1" y2="150.1" stroke="rgb(0,0,0)"  stroke-width="1.0"/>
<line x1="312.1" y1="158.0" x2="312.9" y2="156.6" stroke="rgb(0,0,0)"  stroke-width="1.0"/>
<line x1="308.1" y1="156.4" x2="309.5" y2="153.9" stroke="rgb(0,0,0)"  stroke-width="1.0"/>
<line x1="304.0" y1="154.8" x2="306.1" y2="151.2" stroke="rgb(0,0,0)"  stroke-width="1.0"/>
<line x1="300.0" y1="153.2" x2="302.7" y2="148.5" stroke="rgb(0,0,0)"  stroke-width="1.0"/>
<line x1="296.0" y1="151.7" x2="299.3" y2="145.8" stroke="rgb(0,0,0)"  stroke-width="1.0"/>
<line x1="291.9" y1="150.1" x2="295.9" y2="143.1" stroke="rgb(0,0,0)"  stroke-width="1.0"/>
<line x1="351.0" y1="134.6" x2="352.6" y2="134.6" stroke="rgb(0,0,0)"  stroke-width="1.0"/>
<line x1="350.3" y1="130.4" x2="353.2" y2="130.4" stroke="rgb(0,0,0)"  stroke-width="1.0"/>
<line x1="349.7" y1="126.1" x2="353.8" y2="126.1" stroke="rgb(0,0,0)"  stroke-width="1.0"/>
<line x1="349.0" y1="121.8" x2="354.5" y2="121.8" stroke="rgb(0,0,0)"  stroke-width="1.0"/>
<line x1="348.4" y1="117.5" x2="355.1" y2="117.5" stroke="rgb(0,0,0)"  stroke-width="1.0"/>
<line x1="347.8" y1="113.2" x2="355.8" y2="113.2" stroke="rgb(0,0,0)"  stroke-width="1.0"/>
<polygon points="386.410162 160.000000 407.619642 143.135898 411.619642 150.064102 " stroke-width="1.000000" fill="rgb(0,0,0)"  stroke="rgb(0,0,0)" />
<line x1="391.5" y1="202.0" x2="390.7" y2="203.4" stroke="rgb(0,0,0)"  stroke-width="1.0"/>
<line x1="395.5" y1="203.6" x2="394.0" y2="206.1" stroke="rgb(0,0,0)"  stroke-width="1.0"/>
<line x1="399.5" y1="205.2" x2="397.4" y2="208.8" stroke="rgb(0,0,0)"  stroke-width="1.0"/>
<line x1="403.6" y1="206.8" x2="400.8" y2="211.5" stroke="rgb(0,0,0)"  stroke-width="1.0"/>
<line x1="407.6" y1="208.3" x2="404.2" y2="214.2" stroke="rgb(0,0,0)"  stroke-width="1.0"/>
<line x1="411.6" y1="209.9" x2="407.6" y2="216.9" stroke="rgb(0,0,0)"  stroke-width="1.0"/>
<polygon points="351.769145 220.000000 355.769145 260.000000 347.769145 260.000000 " stroke-width="1.000000" fill="rgb(0,0,0)"  stroke="rgb(0,0,0)" />
<line x1="351.8" y1="260.0" x2="375.2" y2="273.5" stroke="rgb(0,0,0)"  stroke-width="1.0"/>
<line x1="175.6" y1="80.0" x2="175.6" y2="53.0" stroke="rgb(0,0,0)"  stroke-width="1.0"/>
<line x1="181.6" y1="80.0" x2="181.6" y2="53.0" stroke="rgb(0,0,0)"  stroke-width="1.0"/>
<polygon points="143.923048 100.000000 176.564065 76.535898 180.564065 83.464102 " stroke-width="1.000000" fill="rgb(0,0,0)"  stroke="rgb(0,0,0)" />
<line x1="143.9" y1="100.0" x2="109.3" y2="80.0" stroke="rgb(0,0,0)"  stroke-width="1.0"/>
<line x1="143.9" y1="100.0" x2="143.9" y2="127.0" stroke="rgb(0,0,0)"  stroke-width="1.0"/>
<line x1="51.3" y1="86.5" x2="74.6" y2="100.0" stroke="rgb(0,0,0)"  stroke-width="1.0"/>
<line x1="109.3" y1="80.0" x2="74.6" y2="100.0" stroke="rgb(0,0,0)"  stroke-width="1.0"/>
<line x1="178.6" y1="280.0" x2="178.6" y2="320.0" stroke="rgb(0,0,0)"  stroke-width="1.0"/>
<line x1="178.6" y1="320.0" x2="143.9" y2="340.0" stroke="rgb(0,0,0)"  stroke-width="1.0"/>
<line x1="143.9" y1="340.0" x2="109.3" y2="320.0" stroke="rgb(0,0,0)"  stroke-width="1.0"/>
<line x1="109.3" y1="320.0" x2="109.3" y2="280.0" stroke="rgb(0,0,0)"  stroke-width="1.0"/>
<line x1="109.3" y1="280.0" x2="132.7" y2="266.5" stroke="rgb(0,0,0)"  stroke-width="1.0"/>
<line x1="155.2" y1="266.5" x2="178.6" y2="280.0" stroke="rgb(0,0,0)"  stroke-width="1.0"/>
<line x1="178.6" y1="160.0" x2="213.2" y2="140.0" stroke="rgb(0,0,0)"  stroke-width="1.0"/>
<line x1="213.2" y1="140.0" x2="247.8" y2="160.0" stroke="rgb(0,0,0)"  stroke-width="1.0"/>
<line x1="247.8" y1="160.0" x2="247.8" y2="200.0" stroke="rgb(0,0,0)"  stroke-width="1.0"/>
<line x1="247.8" y1="200.0" x2="213.2" y2="220.0" stroke="rgb(0,0,0)"  stroke-width="1.0"/>
<line x1="213.2" y1="220.0" x2="178.6" y2="200.0" stroke="rgb(0,0,0)"  stroke-width="1.0"/>
<line x1="178.6" y1="200.0" x2="178.6" y2="160.0" stroke="rgb(0,0,0)"  stroke-width="1.0"/>
<line x1="317.1" y1="160.0" x2="351.8" y2="140.0" stroke="rgb(0,0,0)"  stroke-width="1.0"/>
<line x1="351.8" y1="140.0" x2="386.4" y2="160.0" stroke="rgb(0,0,0)"  stroke-width="1.0"/>
<line x1="386.4" y1="160.0" x2="386.4" y2="200.0" stroke="rgb(0,0,0)"  stroke-width="1.0"/>
<line x1="386.4" y1="200.0" x2="351.8" y2="220.0" stroke="rgb(0,0,0)"  stroke-width="1.0"/>
<line x1="351.8" y1="220.0" x2="328.4" y2="206.5" stroke="rgb(0,0,0)"  stroke-width="1.0"/>
<line x1="317.1" y1="187.0" x2="317.1" y2="160.0" stroke="rgb(0,0,0)"  stroke-width="1.0"/>
<text x="207.205081" y="268.000000" fill="rgb(255,12,12)"  stroke="rgb(255,12,12)" stroke-width="1" font-size="16" >O</text>
<text x="56.641016" y="348.000000" fill="rgb(255,12,12)"  stroke="rgb(255,12,12)" stroke-width="1" font-size="16" >HO</text>
<text x="137.923048" y="268.000000" fill="rgb(255,12,12)"  stroke="rgb(255,12,12)" stroke-width="1" font-size="16" >O</text>
<text x="14.000000" y="288.000000" fill="rgb(12,12,255)"  stroke="rgb(12,12,255)" stroke-width="1" font-size="16" >H</text>
<text x="26.000000" y="291.680000" fill="rgb(12,12,255)"  stroke="rgb(12,12,255)" stroke-width="1" font-size="13" >2</text>
<text x="32.500000" y="288.000000" fill="rgb(12,12,255)"  stroke="rgb(12,12,255)" stroke-width="1" font-size="16" >N</text>
<text x="207.205081" y="108.000000" fill="rgb(12,12,255)"  stroke="rgb(12,12,255)" stroke-width="1" font-size="16" >NH</text>
<text x="117.923048" y="228.000000" fill="rgb(12,12,255)"  stroke="rgb(12,12,255)" stroke-width="1" font-size="16" >H</text>
<text x="129.923048" y="231.680000" fill="rgb(12,12,255)"  stroke="rgb(12,12,255)" stroke-width="1" font-size="13" >2</text>
<text x="136.423048" y="228.000000" fill="rgb(12,12,255)"  stroke="rgb(12,12,255)" stroke-width="1" font-size="16" >N</text>
<text x="276.487113" y="228.000000" fill="rgb(255,12,12)"  stroke="rgb(255,12,12)" stroke-width="1" font-size="16" >OH</text>
<text x="276.487113" y="148.000000" fill="rgb(255,12,12)"  stroke="rgb(255,12,12)" stroke-width="1" font-size="16" >O</text>
<text x="345.769145" y="108.000000" fill="rgb(255,12,12)"  stroke="rgb(255,12,12)" stroke-width="1" font-size="16" >OH</text>
<text x="417.051178" y="148.000000" fill="rgb(12,12,255)"  stroke="rgb(12,12,255)" stroke-width="1" font-size="16" >NH</text>
<text x="441.051178" y="151.680000" fill="rgb(12,12,255)"  stroke="rgb(12,12,255)" stroke-width="1" font-size="13" >2</text>
<text x="415.051178" y="228.000000" fill="rgb(255,12,12)"  stroke="rgb(255,12,12)" stroke-width="1" font-size="16" >OH</text>
<text x="311.128129" y="208.000000" fill="rgb(255,12,12)"  stroke="rgb(255,12,12)" stroke-width="1" font-size="16" >O</text>
<text x="380.410162" y="288.000000" fill="rgb(255,12,12)"  stroke="rgb(255,12,12)" stroke-width="1" font-size="16" >OH</text>
<text x="207.205081" y="348.000000" fill="rgb(255,12,12)"  stroke="rgb(255,12,12)" stroke-width="1" font-size="16" >OH</text>
<text x="137.923048" y="388.000000" fill="rgb(255,12,12)"  stroke="rgb(255,12,12)" stroke-width="1" font-size="16" >OH</text>
<text x="172.564065" y="48.000000" fill="rgb(255,12,12)"  stroke="rgb(255,12,12)" stroke-width="1" font-size="16" >O</text>
<text x="14.000000" y="88.000000" fill="rgb(12,12,255)"  stroke="rgb(12,12,255)" stroke-width="1" font-size="16" >H</text>
<text x="26.000000" y="91.680000" fill="rgb(12,12,255)"  stroke="rgb(12,12,255)" stroke-width="1" font-size="13" >2</text>
<text x="32.500000" y="88.000000" fill="rgb(12,12,255)"  stroke="rgb(12,12,255)" stroke-width="1" font-size="16" >N</text>
<text x="137.923048" y="148.000000" fill="rgb(255,12,12)"  stroke="rgb(255,12,12)" stroke-width="1" font-size="16" >OH</text>
<text font-size="18.000000" fill ="black" font-family="sans-serif"
x="10.000000" y="20.000000" ></text>
<title> - OBDepict</title>
</svg>
