<?xml version="1.0"?>
<svg xmlns="http://www.w3.org/2000/svg"
xmlns:xlink="http://www.w3.org/1999/xlink" xmlns:cml="http://www.xml-cml.org/schema" width="347.119" height="283.292" x="0" y="0" font-family="sans-serif" stroke="rgb(0,0,0)" stroke-width="1"  stroke-linecap="round">
<rect x="0%" y="0%" width="100%" height="100%" stroke-width="0" fill="rgb(255,255,255)"  />
<line x1="40.0" y1="79.8" x2="42.8" y2="52.9" stroke="rgb(0,0,0)"  stroke-width="1.0"/>
<polygon points="72.360680 103.292286 37.648859 83.016944 42.351141 76.544808 " stroke-width="1.000000" fill="rgb(0,0,0)"  stroke="rgb(0,0,0)" />
<line x1="68.5" y1="147.1" x2="67.6" y2="145.8" stroke="rgb(0,0,0)"  stroke-width="1.0"/>
<line x1="65.4" y1="150.1" x2="63.7" y2="147.8" stroke="rgb(0,0,0)"  stroke-width="1.0"/>
<line x1="62.3" y1="153.2" x2="59.9" y2="149.8" stroke="rgb(0,0,0)"  stroke-width="1.0"/>
<line x1="59.2" y1="156.2" x2="56.0" y2="151.8" stroke="rgb(0,0,0)"  stroke-width="1.0"/>
<line x1="56.1" y1="159.2" x2="52.2" y2="153.8" stroke="rgb(0,0,0)"  stroke-width="1.0"/>
<line x1="53.0" y1="162.3" x2="48.3" y2="155.8" stroke="rgb(0,0,0)"  stroke-width="1.0"/>
<polygon points="110.402940 155.652966 122.488822 179.905212 114.880370 182.377348 " stroke-width="1.000000" fill="rgb(0,0,0)"  stroke="rgb(0,0,0)" />
<line x1="141.2" y1="126.6" x2="140.4" y2="128.0" stroke="rgb(0,0,0)"  stroke-width="1.0"/>
<line x1="147.1" y1="129.2" x2="145.7" y2="131.7" stroke="rgb(0,0,0)"  stroke-width="1.0"/>
<line x1="153.0" y1="131.9" x2="150.9" y2="135.5" stroke="rgb(0,0,0)"  stroke-width="1.0"/>
<line x1="158.8" y1="134.5" x2="156.1" y2="139.2" stroke="rgb(0,0,0)"  stroke-width="1.0"/>
<line x1="164.7" y1="137.2" x2="161.3" y2="143.0" stroke="rgb(0,0,0)"  stroke-width="1.0"/>
<line x1="170.6" y1="139.8" x2="166.6" y2="146.8" stroke="rgb(0,0,0)"  stroke-width="1.0"/>
<line x1="168.6" y1="143.3" x2="168.6" y2="170.3" stroke="rgb(0,0,0)"  stroke-width="1.0"/>
<line x1="198.2" y1="121.3" x2="199.0" y2="119.9" stroke="rgb(0,0,0)"  stroke-width="1.0"/>
<line x1="194.1" y1="119.7" x2="195.6" y2="117.2" stroke="rgb(0,0,0)"  stroke-width="1.0"/>
<line x1="190.1" y1="118.1" x2="192.2" y2="114.5" stroke="rgb(0,0,0)"  stroke-width="1.0"/>
<line x1="186.1" y1="116.5" x2="188.8" y2="111.8" stroke="rgb(0,0,0)"  stroke-width="1.0"/>
<line x1="182.0" y1="114.9" x2="185.4" y2="109.1" stroke="rgb(0,0,0)"  stroke-width="1.0"/>
<line x1="178.0" y1="113.4" x2="182.0" y2="106.4" stroke="rgb(0,0,0)"  stroke-width="1.0"/>
<line x1="133.9" y1="123.3" x2="157.3" y2="109.8" stroke="rgb(0,0,0)"  stroke-width="1.0"/>
<line x1="237.0" y1="97.9" x2="238.6" y2="97.9" stroke="rgb(0,0,0)"  stroke-width="1.0"/>
<line x1="236.4" y1="93.6" x2="239.3" y2="93.6" stroke="rgb(0,0,0)"  stroke-width="1.0"/>
<line x1="235.8" y1="89.4" x2="239.9" y2="89.4" stroke="rgb(0,0,0)"  stroke-width="1.0"/>
<line x1="235.1" y1="85.1" x2="240.6" y2="85.1" stroke="rgb(0,0,0)"  stroke-width="1.0"/>
<line x1="234.5" y1="80.8" x2="241.2" y2="80.8" stroke="rgb(0,0,0)"  stroke-width="1.0"/>
<line x1="233.8" y1="76.5" x2="241.8" y2="76.5" stroke="rgb(0,0,0)"  stroke-width="1.0"/>
<polygon points="272.478415 123.292286 293.687896 106.428184 297.687896 113.356388 " stroke-width="1.000000" fill="rgb(0,0,0)"  stroke="rgb(0,0,0)" />
<line x1="277.5" y1="165.3" x2="276.7" y2="166.7" stroke="rgb(0,0,0)"  stroke-width="1.0"/>
<line x1="281.6" y1="166.9" x2="280.1" y2="169.4" stroke="rgb(0,0,0)"  stroke-width="1.0"/>
<line x1="285.6" y1="168.5" x2="283.5" y2="172.1" stroke="rgb(0,0,0)"  stroke-width="1.0"/>
<line x1="289.6" y1="170.0" x2="286.9" y2="174.8" stroke="rgb(0,0,0)"  stroke-width="1.0"/>
<line x1="293.7" y1="171.6" x2="290.3" y2="177.5" stroke="rgb(0,0,0)"  stroke-width="1.0"/>
<line x1="297.7" y1="173.2" x2="293.7" y2="180.2" stroke="rgb(0,0,0)"  stroke-width="1.0"/>
<polygon points="237.837399 183.292286 241.837399 223.292286 233.837399 223.292286 " stroke-width="1.000000" fill="rgb(0,0,0)"  stroke="rgb(0,0,0)" />
<line x1="237.8" y1="223.3" x2="214.5" y2="236.8" stroke="rgb(0,0,0)"  stroke-width="1.0"/>
<line x1="72.4" y1="103.3" x2="72.4" y2="143.3" stroke="rgb(0,0,0)"  stroke-width="1.0"/>
<line x1="72.4" y1="143.3" x2="110.4" y2="155.7" stroke="rgb(0,0,0)"  stroke-width="1.0"/>
<line x1="110.4" y1="155.7" x2="133.9" y2="123.3" stroke="rgb(0,0,0)"  stroke-width="1.0"/>
<line x1="133.9" y1="123.3" x2="118.0" y2="101.4" stroke="rgb(0,0,0)"  stroke-width="1.0"/>
<line x1="98.0" y1="94.9" x2="72.4" y2="103.3" stroke="rgb(0,0,0)"  stroke-width="1.0"/>
<line x1="203.2" y1="123.3" x2="237.8" y2="103.3" stroke="rgb(0,0,0)"  stroke-width="1.0"/>
<line x1="237.8" y1="103.3" x2="272.5" y2="123.3" stroke="rgb(0,0,0)"  stroke-width="1.0"/>
<line x1="272.5" y1="123.3" x2="272.5" y2="163.3" stroke="rgb(0,0,0)"  stroke-width="1.0"/>
<line x1="272.5" y1="163.3" x2="237.8" y2="183.3" stroke="rgb(0,0,0)"  stroke-width="1.0"/>
<line x1="237.8" y1="183.3" x2="214.5" y2="169.8" stroke="rgb(0,0,0)"  stroke-width="1.0"/>
<line x1="203.2" y1="150.3" x2="203.2" y2="123.3" stroke="rgb(0,0,0)"  stroke-width="1.0"/>
<text x="38.181139" y="48.000000" fill="rgb(255,12,12)"  stroke="rgb(255,12,12)" stroke-width="1" font-size="16" >OH</text>
<text x="22.000000" y="174.803696" fill="rgb(255,12,12)"  stroke="rgb(255,12,12)" stroke-width="1" font-size="16" >HO</text>
<text x="116.763620" y="201.695226" fill="rgb(255,12,12)"  stroke="rgb(255,12,12)" stroke-width="1" font-size="16" >OH</text>
<text x="104.402940" y="98.931606" fill="rgb(255,12,12)"  stroke="rgb(255,12,12)" stroke-width="1" font-size="16" >O</text>
<text x="162.555367" y="191.292286" fill="rgb(255,12,12)"  stroke="rgb(255,12,12)" stroke-width="1" font-size="16" >OH</text>
<text x="162.555367" y="111.292286" fill="rgb(255,12,12)"  stroke="rgb(255,12,12)" stroke-width="1" font-size="16" >O</text>
<text x="231.837399" y="71.292286" fill="rgb(255,12,12)"  stroke="rgb(255,12,12)" stroke-width="1" font-size="16" >OH</text>
<text x="301.119431" y="111.292286" fill="rgb(255,12,12)"  stroke="rgb(255,12,12)" stroke-width="1" font-size="16" >OH</text>
<text x="301.119431" y="191.292286" fill="rgb(255,12,12)"  stroke="rgb(255,12,12)" stroke-width="1" font-size="16" >OH</text>
<text x="197.196383" y="171.292286" fill="rgb(255,12,12)"  stroke="rgb(255,12,12)" stroke-width="1" font-size="16" >O</text>
<text x="185.196383" y="251.292286" fill="rgb(255,12,12)"  stroke="rgb(255,12,12)" stroke-width="1" font-size="16" >HO</text>
<text font-size="18.000000" fill ="black" font-family="sans-serif"
x="10.000000" y="20.000000" ></text>
<title> - OBDepict</title>
</svg>
