<?xml version="1.0"?>
<svg xmlns="http://www.w3.org/2000/svg"
xmlns:xlink="http://www.w3.org/1999/xlink" xmlns:cml="http://www.xml-cml.org/schema" width="245.477" height="200" x="0" y="0" font-family="sans-serif" stroke="rgb(0,0,0)" stroke-width="1"  stroke-linecap="round">
<rect x="0%" y="0%" width="100%" height="100%" stroke-width="0" fill="rgb(255,255,255)"  />
<line x1="170.8" y1="60.0" x2="194.2" y2="46.5" stroke="rgb(0,0,0)"  stroke-width="1.0"/>
<line x1="136.2" y1="120.0" x2="136.2" y2="147.0" stroke="rgb(0,0,0)"  stroke-width="1.0"/>
<line x1="40.0" y1="80.0" x2="55.9" y2="101.8" stroke="rgb(0,0,0)"  stroke-width="1.0"/>
<line x1="75.9" y1="108.3" x2="101.6" y2="100.0" stroke="rgb(0,0,0)"  stroke-width="1.0"/>
<line x1="101.6" y1="100.0" x2="101.6" y2="60.0" stroke="rgb(0,0,0)"  stroke-width="1.0"/>
<line x1="94.4" y1="94.0" x2="94.4" y2="66.0" stroke="rgb(0,0,0)"  stroke-width="1.0"/>
<line x1="101.6" y1="60.0" x2="75.9" y2="51.7" stroke="rgb(0,0,0)"  stroke-width="1.0"/>
<line x1="55.8" y1="58.3" x2="40.0" y2="80.0" stroke="rgb(0,0,0)"  stroke-width="1.0"/>
<line x1="60.4" y1="64.2" x2="49.4" y2="79.4" stroke="rgb(0,0,0)"  stroke-width="1.0"/>
<line x1="170.8" y1="87.0" x2="170.8" y2="60.0" stroke="rgb(0,0,0)"  stroke-width="1.0"/>
<line x1="170.8" y1="60.0" x2="147.6" y2="46.6" stroke="rgb(0,0,0)"  stroke-width="1.0"/>
<line x1="162.0" y1="63.2" x2="145.8" y2="53.8" stroke="rgb(0,0,0)"  stroke-width="1.0"/>
<line x1="124.9" y1="46.5" x2="101.6" y2="60.0" stroke="rgb(0,0,0)"  stroke-width="1.0"/>
<line x1="101.6" y1="100.0" x2="136.2" y2="120.0" stroke="rgb(0,0,0)"  stroke-width="1.0"/>
<line x1="136.2" y1="120.0" x2="159.4" y2="106.6" stroke="rgb(0,0,0)"  stroke-width="1.0"/>
<line x1="137.8" y1="110.8" x2="154.1" y2="101.4" stroke="rgb(0,0,0)"  stroke-width="1.0"/>
<text x="164.835703" y="108.000000" fill="rgb(12,12,255)"  stroke="rgb(12,12,255)" stroke-width="1" font-size="16" >N</text>
<text x="201.476719" y="48.000000" fill="rgb(12,12,255)"  stroke="rgb(12,12,255)" stroke-width="1" font-size="16" >NH</text>
<text x="225.476719" y="51.680000" fill="rgb(12,12,255)"  stroke="rgb(12,12,255)" stroke-width="1" font-size="13" >2</text>
<text x="130.194687" y="48.000000" fill="rgb(12,12,255)"  stroke="rgb(12,12,255)" stroke-width="1" font-size="16" >N</text>
<text x="132.194687" y="168.000000" fill="rgb(12,12,255)"  stroke="rgb(12,12,255)" stroke-width="1" font-size="16" >NH</text>
<text x="156.194687" y="171.680000" fill="rgb(12,12,255)"  stroke="rgb(12,12,255)" stroke-width="1" font-size="13" >2</text>
<text x="57.511410" y="120.360680" fill="rgb(12,12,255)"  stroke="rgb(12,12,255)" stroke-width="1" font-size="16" >N</text>
<text x="57.511410" y="136.360680" fill="rgb(12,12,255)"  stroke="rgb(12,12,255)" stroke-width="1" font-size="16" >H</text>
<text x="57.511410" y="55.639320" fill="rgb(12,12,255)"  stroke="rgb(12,12,255)" stroke-width="1" font-size="16" >N</text>
<text font-size="18.000000" fill ="black" font-family="sans-serif"
x="10.000000" y="20.000000" ></text>
<title> - OBDepict</title>
</svg>
