<?xml version="1.0"?>
<svg xmlns="http://www.w3.org/2000/svg"
xmlns:xlink="http://www.w3.org/1999/xlink" xmlns:cml="http://www.xml-cml.org/schema" width="245.477" height="240" x="0" y="0" font-family="sans-serif" stroke="rgb(0,0,0)" stroke-width="1"  stroke-linecap="round">
<rect x="0%" y="0%" width="100%" height="100%" stroke-width="0" fill="rgb(255,255,255)"  />
<line x1="194.2" y1="153.5" x2="182.1" y2="146.5" stroke="rgb(0,0,0)"  stroke-width="1.0"/>
<line x1="169.3" y1="97.4" x2="192.7" y2="83.9" stroke="rgb(0,0,0)"  stroke-width="1.0"/>
<line x1="172.3" y1="102.6" x2="195.7" y2="89.1" stroke="rgb(0,0,0)"  stroke-width="1.0"/>
<line x1="136.2" y1="67.0" x2="136.2" y2="53.0" stroke="rgb(0,0,0)"  stroke-width="1.0"/>
<line x1="139.2" y1="160.0" x2="139.2" y2="187.0" stroke="rgb(0,0,0)"  stroke-width="1.0"/>
<line x1="133.2" y1="160.0" x2="133.2" y2="187.0" stroke="rgb(0,0,0)"  stroke-width="1.0"/>
<line x1="55.9" y1="141.8" x2="40.0" y2="120.0" stroke="rgb(0,0,0)"  stroke-width="1.0"/>
<line x1="40.0" y1="120.0" x2="55.8" y2="98.3" stroke="rgb(0,0,0)"  stroke-width="1.0"/>
<line x1="49.4" y1="119.4" x2="60.4" y2="104.2" stroke="rgb(0,0,0)"  stroke-width="1.0"/>
<line x1="75.9" y1="91.7" x2="101.6" y2="100.0" stroke="rgb(0,0,0)"  stroke-width="1.0"/>
<line x1="101.6" y1="100.0" x2="101.6" y2="140.0" stroke="rgb(0,0,0)"  stroke-width="1.0"/>
<line x1="94.4" y1="106.0" x2="94.4" y2="134.0" stroke="rgb(0,0,0)"  stroke-width="1.0"/>
<line x1="101.6" y1="140.0" x2="75.9" y2="148.3" stroke="rgb(0,0,0)"  stroke-width="1.0"/>
<line x1="170.8" y1="127.0" x2="170.8" y2="100.0" stroke="rgb(0,0,0)"  stroke-width="1.0"/>
<line x1="170.8" y1="100.0" x2="147.5" y2="86.5" stroke="rgb(0,0,0)"  stroke-width="1.0"/>
<line x1="124.9" y1="86.5" x2="101.6" y2="100.0" stroke="rgb(0,0,0)"  stroke-width="1.0"/>
<line x1="101.6" y1="140.0" x2="136.2" y2="160.0" stroke="rgb(0,0,0)"  stroke-width="1.0"/>
<line x1="136.2" y1="160.0" x2="159.6" y2="146.5" stroke="rgb(0,0,0)"  stroke-width="1.0"/>
<text x="201.476719" y="168.000000" fill="rgb(102,102,102)"  stroke="rgb(102,102,102)" stroke-width="1" font-size="16" >CH</text>
<text x="225.476719" y="171.680000" fill="rgb(102,102,102)"  stroke="rgb(102,102,102)" stroke-width="1" font-size="13" >3</text>
<text x="164.835703" y="148.000000" fill="rgb(12,12,255)"  stroke="rgb(12,12,255)" stroke-width="1" font-size="16" >N</text>
<text x="199.476719" y="88.000000" fill="rgb(255,12,12)"  stroke="rgb(255,12,12)" stroke-width="1" font-size="16" >O</text>
<text x="132.194687" y="48.000000" fill="rgb(102,102,102)"  stroke="rgb(102,102,102)" stroke-width="1" font-size="16" >CH</text>
<text x="156.194687" y="51.680000" fill="rgb(102,102,102)"  stroke="rgb(102,102,102)" stroke-width="1" font-size="13" >3</text>
<text x="130.194687" y="88.000000" fill="rgb(12,12,255)"  stroke="rgb(12,12,255)" stroke-width="1" font-size="16" >N</text>
<text x="130.194687" y="208.000000" fill="rgb(255,12,12)"  stroke="rgb(255,12,12)" stroke-width="1" font-size="16" >O</text>
<text x="57.511410" y="160.360680" fill="rgb(12,12,255)"  stroke="rgb(12,12,255)" stroke-width="1" font-size="16" >N</text>
<text x="57.511410" y="176.360680" fill="rgb(12,12,255)"  stroke="rgb(12,12,255)" stroke-width="1" font-size="16" >H</text>
<text x="57.511410" y="95.639320" fill="rgb(12,12,255)"  stroke="rgb(12,12,255)" stroke-width="1" font-size="16" >N</text>
<text font-size="18.000000" fill ="black" font-family="sans-serif"
x="10.000000" y="20.000000" ></text>
<title> - OBDepict</title>
</svg>
