<?xml version="1.0"?>
<svg xmlns="http://www.w3.org/2000/svg"
xmlns:xlink="http://www.w3.org/1999/xlink" xmlns:cml="http://www.xml-cml.org/schema" width="288.967" height="334.637" x="0" y="0" font-family="sans-serif" stroke="rgb(0,0,0)" stroke-width="1"  stroke-linecap="round">
<rect x="0%" y="0%" width="100%" height="100%" stroke-width="0" fill="rgb(255,255,255)"  />
<line x1="205.8" y1="290.5" x2="179.0" y2="293.3" stroke="rgb(0,0,0)"  stroke-width="1.0"/>
<line x1="205.8" y1="290.5" x2="222.1" y2="253.9" stroke="rgb(0,0,0)"  stroke-width="1.0"/>
<line x1="198.6" y1="221.6" x2="222.1" y2="253.9" stroke="rgb(0,0,0)"  stroke-width="1.0"/>
<line x1="210.9" y1="183.5" x2="236.6" y2="175.2" stroke="rgb(0,0,0)"  stroke-width="1.0"/>
<line x1="178.6" y1="147.0" x2="178.6" y2="120.0" stroke="rgb(0,0,0)"  stroke-width="1.0"/>
<line x1="178.6" y1="120.0" x2="143.9" y2="100.0" stroke="rgb(0,0,0)"  stroke-width="1.0"/>
<line x1="143.9" y1="60.0" x2="143.9" y2="87.0" stroke="rgb(0,0,0)"  stroke-width="1.0"/>
<line x1="74.6" y1="60.0" x2="51.3" y2="46.5" stroke="rgb(0,0,0)"  stroke-width="1.0"/>
<line x1="146.2" y1="183.5" x2="154.5" y2="209.0" stroke="rgb(0,0,0)"  stroke-width="1.0"/>
<line x1="154.9" y1="187.0" x2="160.7" y2="204.9" stroke="rgb(0,0,0)"  stroke-width="1.0"/>
<line x1="171.6" y1="221.6" x2="198.6" y2="221.6" stroke="rgb(0,0,0)"  stroke-width="1.0"/>
<line x1="198.6" y1="221.6" x2="210.9" y2="183.5" stroke="rgb(0,0,0)"  stroke-width="1.0"/>
<line x1="193.6" y1="213.6" x2="202.2" y2="187.0" stroke="rgb(0,0,0)"  stroke-width="1.0"/>
<line x1="210.9" y1="183.5" x2="189.1" y2="167.6" stroke="rgb(0,0,0)"  stroke-width="1.0"/>
<line x1="168.0" y1="167.6" x2="146.2" y2="183.5" stroke="rgb(0,0,0)"  stroke-width="1.0"/>
<line x1="143.9" y1="60.0" x2="120.7" y2="46.6" stroke="rgb(0,0,0)"  stroke-width="1.0"/>
<line x1="135.1" y1="63.2" x2="118.8" y2="53.8" stroke="rgb(0,0,0)"  stroke-width="1.0"/>
<line x1="98.0" y1="46.5" x2="74.6" y2="60.0" stroke="rgb(0,0,0)"  stroke-width="1.0"/>
<line x1="74.6" y1="60.0" x2="74.6" y2="86.8" stroke="rgb(0,0,0)"  stroke-width="1.0"/>
<line x1="81.8" y1="66.0" x2="81.8" y2="84.8" stroke="rgb(0,0,0)"  stroke-width="1.0"/>
<line x1="85.9" y1="106.5" x2="109.3" y2="120.0" stroke="rgb(0,0,0)"  stroke-width="1.0"/>
<line x1="109.3" y1="120.0" x2="143.9" y2="100.0" stroke="rgb(0,0,0)"  stroke-width="1.0"/>
<line x1="110.9" y1="110.8" x2="135.1" y2="96.8" stroke="rgb(0,0,0)"  stroke-width="1.0"/>
<line x1="143.9" y1="100.0" x2="143.9" y2="60.0" stroke="rgb(0,0,0)"  stroke-width="1.0"/>
<text x="14.000000" y="48.000000" fill="rgb(102,102,102)"  stroke="rgb(102,102,102)" stroke-width="1" font-size="16" >H</text>
<text x="26.000000" y="51.680000" fill="rgb(102,102,102)"  stroke="rgb(102,102,102)" stroke-width="1" font-size="13" >3</text>
<text x="32.500000" y="48.000000" fill="rgb(102,102,102)"  stroke="rgb(102,102,102)" stroke-width="1" font-size="16" >C</text>
<text x="139.923048" y="108.000000" fill="rgb(12,12,255)"  stroke="rgb(12,12,255)" stroke-width="1" font-size="16" >NH</text>
<text x="163.923048" y="111.680000" fill="rgb(12,12,255)"  stroke="rgb(12,12,255)" stroke-width="1" font-size="13" >2</text>
<text x="244.967005" y="179.150730" fill="rgb(102,102,102)"  stroke="rgb(102,102,102)" stroke-width="1" font-size="16" >CH</text>
<text x="268.967005" y="182.830730" fill="rgb(102,102,102)"  stroke="rgb(102,102,102)" stroke-width="1" font-size="13" >3</text>
<text x="148.025133" y="302.637307" fill="rgb(255,12,12)"  stroke="rgb(255,12,12)" stroke-width="1" font-size="16" >HO</text>
<text x="152.564065" y="229.553671" fill="rgb(178,178,0)"  stroke="rgb(178,178,0)" stroke-width="1" font-size="16" >S</text>
<text x="172.564065" y="168.000000" fill="rgb(12,12,255)"  stroke="rgb(12,12,255)" stroke-width="1" font-size="16" >N</text>
<text x="103.282032" y="48.000000" fill="rgb(12,12,255)"  stroke="rgb(12,12,255)" stroke-width="1" font-size="16" >N</text>
<text x="68.641016" y="108.000000" fill="rgb(12,12,255)"  stroke="rgb(12,12,255)" stroke-width="1" font-size="16" >N</text>
<text font-size="18.000000" fill ="black" font-family="sans-serif"
x="10.000000" y="20.000000" ></text>
<title> - OBDepict</title>
</svg>
