<?xml version="1.0"?>
<svg xmlns="http://www.w3.org/2000/svg"
xmlns:xlink="http://www.w3.org/1999/xlink" xmlns:cml="http://www.xml-cml.org/schema" width="397.128" height="340" x="0" y="0" font-family="sans-serif" stroke="rgb(0,0,0)" stroke-width="1"  stroke-linecap="round">
<rect x="0%" y="0%" width="100%" height="100%" stroke-width="0" fill="rgb(255,255,255)"  />
<line x1="211.7" y1="57.4" x2="235.1" y2="43.9" stroke="rgb(0,0,0)"  stroke-width="1.0"/>
<line x1="214.7" y1="62.6" x2="238.1" y2="49.1" stroke="rgb(0,0,0)"  stroke-width="1.0"/>
<line x1="142.4" y1="62.6" x2="119.0" y2="49.1" stroke="rgb(0,0,0)"  stroke-width="1.0"/>
<line x1="145.4" y1="57.4" x2="122.0" y2="43.9" stroke="rgb(0,0,0)"  stroke-width="1.0"/>
<line x1="74.6" y1="220.0" x2="51.3" y2="233.5" stroke="rgb(0,0,0)"  stroke-width="1.0"/>
<line x1="109.3" y1="240.0" x2="109.3" y2="267.0" stroke="rgb(0,0,0)"  stroke-width="1.0"/>
<line x1="189.8" y1="166.5" x2="213.2" y2="180.0" stroke="rgb(0,0,0)"  stroke-width="1.0"/>
<line x1="212.4" y1="212.0" x2="214.0" y2="212.0" stroke="rgb(0,0,0)"  stroke-width="1.0"/>
<line x1="211.8" y1="205.6" x2="214.6" y2="205.6" stroke="rgb(0,0,0)"  stroke-width="1.0"/>
<line x1="211.1" y1="199.2" x2="215.3" y2="199.2" stroke="rgb(0,0,0)"  stroke-width="1.0"/>
<line x1="210.5" y1="192.8" x2="215.9" y2="192.8" stroke="rgb(0,0,0)"  stroke-width="1.0"/>
<line x1="209.8" y1="186.4" x2="216.6" y2="186.4" stroke="rgb(0,0,0)"  stroke-width="1.0"/>
<line x1="209.2" y1="180.0" x2="217.2" y2="180.0" stroke="rgb(0,0,0)"  stroke-width="1.0"/>
<line x1="213.2" y1="220.0" x2="247.8" y2="240.0" stroke="rgb(0,0,0)"  stroke-width="1.0"/>
<line x1="213.2" y1="220.0" x2="189.8" y2="233.5" stroke="rgb(0,0,0)"  stroke-width="1.0"/>
<line x1="247.8" y1="240.0" x2="247.8" y2="280.0" stroke="rgb(0,0,0)"  stroke-width="1.0"/>
<polygon points="247.846097 240.000000 269.055578 223.135898 273.055578 230.064102 " stroke-width="1.000000" fill="rgb(0,0,0)"  stroke="rgb(0,0,0)" />
<line x1="255.2" y1="283.3" x2="254.4" y2="284.7" stroke="rgb(0,0,0)"  stroke-width="1.0"/>
<line x1="261.0" y1="286.0" x2="259.6" y2="288.4" stroke="rgb(0,0,0)"  stroke-width="1.0"/>
<line x1="266.9" y1="288.6" x2="264.8" y2="292.2" stroke="rgb(0,0,0)"  stroke-width="1.0"/>
<line x1="272.8" y1="291.2" x2="270.0" y2="296.0" stroke="rgb(0,0,0)"  stroke-width="1.0"/>
<line x1="278.6" y1="293.9" x2="275.3" y2="299.7" stroke="rgb(0,0,0)"  stroke-width="1.0"/>
<line x1="284.5" y1="296.5" x2="280.5" y2="303.5" stroke="rgb(0,0,0)"  stroke-width="1.0"/>
<line x1="247.8" y1="280.0" x2="224.5" y2="293.5" stroke="rgb(0,0,0)"  stroke-width="1.0"/>
<line x1="282.5" y1="300.0" x2="305.9" y2="286.5" stroke="rgb(0,0,0)"  stroke-width="1.0"/>
<line x1="317.1" y1="267.0" x2="317.1" y2="253.0" stroke="rgb(0,0,0)"  stroke-width="1.0"/>
<line x1="317.1" y1="227.0" x2="317.1" y2="213.0" stroke="rgb(0,0,0)"  stroke-width="1.0"/>
<line x1="330.1" y1="237.0" x2="344.1" y2="237.0" stroke="rgb(0,0,0)"  stroke-width="1.0"/>
<line x1="330.1" y1="243.0" x2="344.1" y2="243.0" stroke="rgb(0,0,0)"  stroke-width="1.0"/>
<line x1="304.1" y1="240.0" x2="290.1" y2="240.0" stroke="rgb(0,0,0)"  stroke-width="1.0"/>
<line x1="213.2" y1="87.0" x2="213.2" y2="60.0" stroke="rgb(0,0,0)"  stroke-width="1.0"/>
<line x1="213.2" y1="60.0" x2="189.8" y2="46.5" stroke="rgb(0,0,0)"  stroke-width="1.0"/>
<line x1="167.3" y1="46.5" x2="143.9" y2="60.0" stroke="rgb(0,0,0)"  stroke-width="1.0"/>
<line x1="143.9" y1="60.0" x2="143.9" y2="100.0" stroke="rgb(0,0,0)"  stroke-width="1.0"/>
<line x1="143.9" y1="100.0" x2="178.6" y2="120.0" stroke="rgb(0,0,0)"  stroke-width="1.0"/>
<line x1="152.7" y1="96.8" x2="177.0" y2="110.8" stroke="rgb(0,0,0)"  stroke-width="1.0"/>
<line x1="178.6" y1="120.0" x2="201.9" y2="106.5" stroke="rgb(0,0,0)"  stroke-width="1.0"/>
<line x1="109.3" y1="240.0" x2="143.9" y2="220.0" stroke="rgb(0,0,0)"  stroke-width="1.0"/>
<line x1="143.9" y1="220.0" x2="143.9" y2="180.0" stroke="rgb(0,0,0)"  stroke-width="1.0"/>
<line x1="136.7" y1="214.0" x2="136.7" y2="186.0" stroke="rgb(0,0,0)"  stroke-width="1.0"/>
<line x1="143.9" y1="180.0" x2="109.3" y2="160.0" stroke="rgb(0,0,0)"  stroke-width="1.0"/>
<line x1="109.3" y1="160.0" x2="74.6" y2="180.0" stroke="rgb(0,0,0)"  stroke-width="1.0"/>
<line x1="107.7" y1="169.2" x2="83.4" y2="183.2" stroke="rgb(0,0,0)"  stroke-width="1.0"/>
<line x1="74.6" y1="180.0" x2="74.6" y2="220.0" stroke="rgb(0,0,0)"  stroke-width="1.0"/>
<line x1="74.6" y1="220.0" x2="109.3" y2="240.0" stroke="rgb(0,0,0)"  stroke-width="1.0"/>
<line x1="83.4" y1="216.8" x2="107.7" y2="230.8" stroke="rgb(0,0,0)"  stroke-width="1.0"/>
<line x1="143.9" y1="180.0" x2="167.3" y2="166.5" stroke="rgb(0,0,0)"  stroke-width="1.0"/>
<line x1="178.6" y1="147.0" x2="178.6" y2="120.0" stroke="rgb(0,0,0)"  stroke-width="1.0"/>
<line x1="143.9" y1="100.0" x2="120.5" y2="113.5" stroke="rgb(0,0,0)"  stroke-width="1.0"/>
<line x1="109.3" y1="133.0" x2="109.3" y2="160.0" stroke="rgb(0,0,0)"  stroke-width="1.0"/>
<text x="207.205081" y="108.000000" fill="rgb(12,12,255)"  stroke="rgb(12,12,255)" stroke-width="1" font-size="16" >NH</text>
<text x="241.846097" y="48.000000" fill="rgb(255,12,12)"  stroke="rgb(255,12,12)" stroke-width="1" font-size="16" >O</text>
<text x="172.564065" y="48.000000" fill="rgb(12,12,255)"  stroke="rgb(12,12,255)" stroke-width="1" font-size="16" >N</text>
<text x="172.564065" y="32.000000" fill="rgb(12,12,255)"  stroke="rgb(12,12,255)" stroke-width="1" font-size="16" >H</text>
<text x="103.282032" y="48.000000" fill="rgb(255,12,12)"  stroke="rgb(255,12,12)" stroke-width="1" font-size="16" >O</text>
<text x="91.282032" y="128.000000" fill="rgb(12,12,255)"  stroke="rgb(12,12,255)" stroke-width="1" font-size="16" >HN</text>
<text x="14.000000" y="248.000000" fill="rgb(102,102,102)"  stroke="rgb(102,102,102)" stroke-width="1" font-size="16" >H</text>
<text x="26.000000" y="251.680000" fill="rgb(102,102,102)"  stroke="rgb(102,102,102)" stroke-width="1" font-size="13" >3</text>
<text x="32.500000" y="248.000000" fill="rgb(102,102,102)"  stroke="rgb(102,102,102)" stroke-width="1" font-size="16" >C</text>
<text x="105.282032" y="288.000000" fill="rgb(102,102,102)"  stroke="rgb(102,102,102)" stroke-width="1" font-size="16" >CH</text>
<text x="129.282032" y="291.680000" fill="rgb(102,102,102)"  stroke="rgb(102,102,102)" stroke-width="1" font-size="13" >3</text>
<text x="172.564065" y="168.000000" fill="rgb(12,12,255)"  stroke="rgb(12,12,255)" stroke-width="1" font-size="16" >N</text>
<text x="160.564065" y="248.000000" fill="rgb(255,12,12)"  stroke="rgb(255,12,12)" stroke-width="1" font-size="16" >HO</text>
<text x="276.487113" y="228.000000" fill="rgb(255,12,12)"  stroke="rgb(255,12,12)" stroke-width="1" font-size="16" >OH</text>
<text x="195.205081" y="308.000000" fill="rgb(255,12,12)"  stroke="rgb(255,12,12)" stroke-width="1" font-size="16" >HO</text>
<text x="311.128129" y="288.000000" fill="rgb(255,12,12)"  stroke="rgb(255,12,12)" stroke-width="1" font-size="16" >O</text>
<text x="311.128129" y="248.000000" fill="rgb(255,127,0)"  stroke="rgb(255,127,0)" stroke-width="1" font-size="16" >P</text>
<text x="351.128129" y="248.000000" fill="rgb(255,12,12)"  stroke="rgb(255,12,12)" stroke-width="1" font-size="16" >O</text>
<text x="321.928129" y="195.968000" fill="rgb(255,12,12)"  stroke="rgb(255,12,12)" stroke-width="1" font-size="32" >-</text>
<text x="311.128129" y="208.000000" fill="rgb(255,12,12)"  stroke="rgb(255,12,12)" stroke-width="1" font-size="16" >O</text>
<text x="281.928129" y="235.968000" fill="rgb(255,12,12)"  stroke="rgb(255,12,12)" stroke-width="1" font-size="32" >-</text>
<text x="271.128129" y="248.000000" fill="rgb(255,12,12)"  stroke="rgb(255,12,12)" stroke-width="1" font-size="16" >O</text>
<text font-size="18.000000" fill ="black" font-family="sans-serif"
x="10.000000" y="20.000000" ></text>
<title> - OBDepict</title>
</svg>
