<?xml version="1.0"?>
<svg xmlns="http://www.w3.org/2000/svg"
xmlns:xlink="http://www.w3.org/1999/xlink" xmlns:cml="http://www.xml-cml.org/schema" width="533.264" height="289.493" x="0" y="0" font-family="sans-serif" stroke="rgb(0,0,0)" stroke-width="1"  stroke-linecap="round">
<rect x="0%" y="0%" width="100%" height="100%" stroke-width="0" fill="rgb(255,255,255)"  />
<polygon points="427.373 211.451 422.895 238.176 415.287 235.703 " stroke-width="1" fill="rgb(0,0,0)"  stroke="rgb(0,0,0)" />
<line x1="427.4" y1="211.5" x2="466.5" y2="203.1" stroke="rgb(0,0,0)"  stroke-width="1.0"/>
<line x1="427.4" y1="211.5" x2="400.6" y2="181.7" stroke="rgb(0,0,0)"  stroke-width="1.0"/>
<line x1="466.5" y1="203.1" x2="484.6" y2="223.2" stroke="rgb(0,0,0)"  stroke-width="1.0"/>
<line x1="466.5" y1="203.1" x2="474.8" y2="177.5" stroke="rgb(0,0,0)"  stroke-width="1.0"/>
<line x1="400.6" y1="181.7" x2="361.5" y2="190.0" stroke="rgb(0,0,0)"  stroke-width="1.0"/>
<polygon points="334.716215 160.316105 364.454019 187.365376 358.508860 192.718421 " stroke-width="1.000000" fill="rgb(0,0,0)"  stroke="rgb(0,0,0)" />
<line x1="334.7" y1="160.3" x2="343.1" y2="134.6" stroke="rgb(0,0,0)"  stroke-width="1.0"/>
<line x1="334.7" y1="160.3" x2="295.6" y2="168.6" stroke="rgb(0,0,0)"  stroke-width="1.0"/>
<polygon points="268.825087 138.906780 298.562891 165.956050 292.617732 171.309095 " stroke-width="1.000000" fill="rgb(0,0,0)"  stroke="rgb(0,0,0)" />
<line x1="281.7" y1="96.9" x2="282.4" y2="98.3" stroke="rgb(0,0,0)"  stroke-width="1.0"/>
<line x1="285.4" y1="94.5" x2="286.5" y2="97.2" stroke="rgb(0,0,0)"  stroke-width="1.0"/>
<line x1="289.0" y1="92.2" x2="290.7" y2="96.0" stroke="rgb(0,0,0)"  stroke-width="1.0"/>
<line x1="292.7" y1="89.9" x2="294.9" y2="94.9" stroke="rgb(0,0,0)"  stroke-width="1.0"/>
<line x1="296.3" y1="87.6" x2="299.1" y2="93.7" stroke="rgb(0,0,0)"  stroke-width="1.0"/>
<line x1="300.0" y1="85.2" x2="303.3" y2="92.5" stroke="rgb(0,0,0)"  stroke-width="1.0"/>
<line x1="241.1" y1="74.5" x2="242.7" y2="74.4" stroke="rgb(0,0,0)"  stroke-width="1.0"/>
<line x1="240.1" y1="70.3" x2="242.9" y2="70.0" stroke="rgb(0,0,0)"  stroke-width="1.0"/>
<line x1="239.0" y1="66.1" x2="243.1" y2="65.7" stroke="rgb(0,0,0)"  stroke-width="1.0"/>
<line x1="237.9" y1="61.9" x2="243.3" y2="61.4" stroke="rgb(0,0,0)"  stroke-width="1.0"/>
<line x1="236.8" y1="57.7" x2="243.5" y2="57.0" stroke="rgb(0,0,0)"  stroke-width="1.0"/>
<line x1="235.7" y1="53.5" x2="243.7" y2="52.7" stroke="rgb(0,0,0)"  stroke-width="1.0"/>
<polygon points="212.774746 106.546100 185.728743 104.886657 187.392037 97.061476 " stroke-width="1.000000" fill="rgb(0,0,0)"  stroke="rgb(0,0,0)" />
<line x1="74.6" y1="125.0" x2="51.3" y2="111.5" stroke="rgb(0,0,0)"  stroke-width="1.0"/>
<line x1="268.8" y1="138.9" x2="277.1" y2="99.8" stroke="rgb(0,0,0)"  stroke-width="1.0"/>
<line x1="277.1" y1="99.8" x2="242.5" y2="79.8" stroke="rgb(0,0,0)"  stroke-width="1.0"/>
<line x1="242.5" y1="79.8" x2="212.8" y2="106.5" stroke="rgb(0,0,0)"  stroke-width="1.0"/>
<line x1="212.8" y1="106.5" x2="223.8" y2="131.2" stroke="rgb(0,0,0)"  stroke-width="1.0"/>
<line x1="242.0" y1="141.7" x2="268.8" y2="138.9" stroke="rgb(0,0,0)"  stroke-width="1.0"/>
<line x1="157.4" y1="61.7" x2="168.4" y2="86.4" stroke="rgb(0,0,0)"  stroke-width="1.0"/>
<line x1="164.0" y1="106.9" x2="143.9" y2="125.0" stroke="rgb(0,0,0)"  stroke-width="1.0"/>
<line x1="143.9" y1="125.0" x2="109.3" y2="105.0" stroke="rgb(0,0,0)"  stroke-width="1.0"/>
<line x1="109.3" y1="105.0" x2="114.9" y2="78.6" stroke="rgb(0,0,0)"  stroke-width="1.0"/>
<line x1="130.7" y1="64.5" x2="157.4" y2="61.7" stroke="rgb(0,0,0)"  stroke-width="1.0"/>
<line x1="133.5" y1="71.4" x2="152.2" y2="69.5" stroke="rgb(0,0,0)"  stroke-width="1.0"/>
<line x1="109.3" y1="185.0" x2="86.1" y2="171.6" stroke="rgb(0,0,0)"  stroke-width="1.0"/>
<line x1="107.7" y1="175.8" x2="91.4" y2="166.4" stroke="rgb(0,0,0)"  stroke-width="1.0"/>
<line x1="74.6" y1="152.0" x2="74.6" y2="125.0" stroke="rgb(0,0,0)"  stroke-width="1.0"/>
<line x1="74.6" y1="125.0" x2="109.3" y2="105.0" stroke="rgb(0,0,0)"  stroke-width="1.0"/>
<line x1="83.4" y1="128.2" x2="107.7" y2="114.2" stroke="rgb(0,0,0)"  stroke-width="1.0"/>
<line x1="143.9" y1="125.0" x2="143.9" y2="151.8" stroke="rgb(0,0,0)"  stroke-width="1.0"/>
<line x1="136.7" y1="131.0" x2="136.7" y2="149.8" stroke="rgb(0,0,0)"  stroke-width="1.0"/>
<line x1="132.7" y1="171.5" x2="109.3" y2="185.0" stroke="rgb(0,0,0)"  stroke-width="1.0"/>
<text x="389.011888" y="257.493484" fill="rgb(12,12,255)"  stroke="rgb(12,12,255)" stroke-width="1" font-size="16" >H</text>
<text x="401.011888" y="261.173484" fill="rgb(12,12,255)"  stroke="rgb(12,12,255)" stroke-width="1" font-size="13" >2</text>
<text x="407.511888" y="257.493484" fill="rgb(12,12,255)"  stroke="rgb(12,12,255)" stroke-width="1" font-size="16" >N</text>
<text x="487.263696" y="240.860549" fill="rgb(255,12,12)"  stroke="rgb(255,12,12)" stroke-width="1" font-size="16" >OH</text>
<text x="343.076895" y="130.273845" fill="rgb(12,12,255)"  stroke="rgb(12,12,255)" stroke-width="1" font-size="16" >NH</text>
<text x="367.076895" y="133.953845" fill="rgb(12,12,255)"  stroke="rgb(12,12,255)" stroke-width="1" font-size="13" >2</text>
<text x="223.044211" y="151.087918" fill="rgb(255,12,12)"  stroke="rgb(255,12,12)" stroke-width="1" font-size="16" >O</text>
<text x="307.683373" y="91.511410" fill="rgb(255,12,12)"  stroke="rgb(255,12,12)" stroke-width="1" font-size="16" >OH</text>
<text x="220.319400" y="48.000000" fill="rgb(255,12,12)"  stroke="rgb(255,12,12)" stroke-width="1" font-size="16" >HO</text>
<text x="472.859152" y="173.092495" fill="rgb(255,12,12)"  stroke="rgb(255,12,12)" stroke-width="1" font-size="16" >OH</text>
<text x="68.641016" y="172.994857" fill="rgb(12,12,255)"  stroke="rgb(12,12,255)" stroke-width="1" font-size="16" >N</text>
<text x="137.923048" y="172.994857" fill="rgb(12,12,255)"  stroke="rgb(12,12,255)" stroke-width="1" font-size="16" >N</text>
<text x="14.000000" y="112.994857" fill="rgb(12,12,255)"  stroke="rgb(12,12,255)" stroke-width="1" font-size="16" >H</text>
<text x="26.000000" y="116.674857" fill="rgb(12,12,255)"  stroke="rgb(12,12,255)" stroke-width="1" font-size="13" >2</text>
<text x="32.500000" y="112.994857" fill="rgb(12,12,255)"  stroke="rgb(12,12,255)" stroke-width="1" font-size="16" >N</text>
<text x="111.598500" y="73.868953" fill="rgb(12,12,255)"  stroke="rgb(12,12,255)" stroke-width="1" font-size="16" >N</text>
<text x="167.648841" y="106.229632" fill="rgb(12,12,255)"  stroke="rgb(12,12,255)" stroke-width="1" font-size="16" >N</text>
<text font-size="18.000000" fill ="black" font-family="sans-serif"
x="10.000000" y="20.000000" ></text>
<title> - OBDepict</title>
</svg>
