<?xml version="1.0"?>
<svg xmlns="http://www.w3.org/2000/svg"
xmlns:xlink="http://www.w3.org/1999/xlink" xmlns:cml="http://www.xml-cml.org/schema" width="511.79" height="255.7" x="0" y="0" font-family="sans-serif" stroke="rgb(0,0,0)" stroke-width="1"  stroke-linecap="round">
<rect x="0%" y="0%" width="100%" height="100%" stroke-width="0" fill="rgb(255,255,255)"  />
<line x1="168.2" y1="150.4" x2="167.4" y2="149.0" stroke="rgb(0,0,0)"  stroke-width="1.0"/>
<line x1="166.1" y1="152.3" x2="164.7" y2="149.8" stroke="rgb(0,0,0)"  stroke-width="1.0"/>
<line x1="164.0" y1="154.2" x2="161.9" y2="150.6" stroke="rgb(0,0,0)"  stroke-width="1.0"/>
<line x1="161.9" y1="156.2" x2="159.2" y2="151.5" stroke="rgb(0,0,0)"  stroke-width="1.0"/>
<line x1="159.9" y1="158.1" x2="156.5" y2="152.3" stroke="rgb(0,0,0)"  stroke-width="1.0"/>
<line x1="157.8" y1="160.1" x2="153.8" y2="153.1" stroke="rgb(0,0,0)"  stroke-width="1.0"/>
<line x1="126.0" y1="160.1" x2="126.0" y2="161.7" stroke="rgb(0,0,0)"  stroke-width="1.0"/>
<line x1="128.8" y1="159.4" x2="128.8" y2="162.3" stroke="rgb(0,0,0)"  stroke-width="1.0"/>
<line x1="131.6" y1="158.8" x2="131.6" y2="162.9" stroke="rgb(0,0,0)"  stroke-width="1.0"/>
<line x1="134.3" y1="158.1" x2="134.3" y2="163.6" stroke="rgb(0,0,0)"  stroke-width="1.0"/>
<line x1="137.1" y1="157.5" x2="137.1" y2="164.2" stroke="rgb(0,0,0)"  stroke-width="1.0"/>
<line x1="139.9" y1="156.9" x2="139.9" y2="164.9" stroke="rgb(0,0,0)"  stroke-width="1.0"/>
<polygon points="77.787827 186.697869 54.469983 204.779235 50.469983 197.851032 " stroke-width="1.000000" fill="rgb(0,0,0)"  stroke="rgb(0,0,0)" />
<line x1="88.9" y1="94.0" x2="90.4" y2="94.7" stroke="rgb(0,0,0)"  stroke-width="1.0"/>
<line x1="90.2" y1="89.5" x2="92.8" y2="90.7" stroke="rgb(0,0,0)"  stroke-width="1.0"/>
<line x1="91.5" y1="85.0" x2="95.3" y2="86.7" stroke="rgb(0,0,0)"  stroke-width="1.0"/>
<line x1="92.8" y1="80.4" x2="97.8" y2="82.7" stroke="rgb(0,0,0)"  stroke-width="1.0"/>
<line x1="94.2" y1="75.9" x2="100.3" y2="78.6" stroke="rgb(0,0,0)"  stroke-width="1.0"/>
<line x1="95.5" y1="71.4" x2="102.8" y2="74.6" stroke="rgb(0,0,0)"  stroke-width="1.0"/>
<line x1="182.9" y1="122.1" x2="184.5" y2="122.1" stroke="rgb(0,0,0)"  stroke-width="1.0"/>
<line x1="182.2" y1="119.3" x2="185.1" y2="119.3" stroke="rgb(0,0,0)"  stroke-width="1.0"/>
<line x1="181.6" y1="116.6" x2="185.8" y2="116.6" stroke="rgb(0,0,0)"  stroke-width="1.0"/>
<line x1="181.0" y1="113.8" x2="186.4" y2="113.8" stroke="rgb(0,0,0)"  stroke-width="1.0"/>
<line x1="180.3" y1="111.0" x2="187.0" y2="111.0" stroke="rgb(0,0,0)"  stroke-width="1.0"/>
<line x1="179.7" y1="108.2" x2="187.7" y2="108.2" stroke="rgb(0,0,0)"  stroke-width="1.0"/>
<polygon points="119.672628 128.910829 117.539035 187.477700 109.582860 186.641472 " stroke-width="1.000000" fill="rgb(0,0,0)"  stroke="rgb(0,0,0)" />
<line x1="342.0" y1="107.4" x2="342.6" y2="105.9" stroke="rgb(0,0,0)"  stroke-width="1.0"/>
<line x1="337.4" y1="106.1" x2="338.6" y2="103.4" stroke="rgb(0,0,0)"  stroke-width="1.0"/>
<line x1="332.9" y1="104.8" x2="334.6" y2="101.0" stroke="rgb(0,0,0)"  stroke-width="1.0"/>
<line x1="328.4" y1="103.4" x2="330.6" y2="98.5" stroke="rgb(0,0,0)"  stroke-width="1.0"/>
<line x1="323.8" y1="102.1" x2="326.6" y2="96.0" stroke="rgb(0,0,0)"  stroke-width="1.0"/>
<line x1="319.3" y1="100.8" x2="322.6" y2="93.5" stroke="rgb(0,0,0)"  stroke-width="1.0"/>
<polygon points="209.530504 125.555880 220.683667 98.238036 227.611870 102.238036 " stroke-width="1.000000" fill="rgb(0,0,0)"  stroke="rgb(0,0,0)" />
<polygon points="122.546870 186.697869 149.864714 197.851032 145.864714 204.779235 " stroke-width="1.000000" fill="rgb(0,0,0)"  stroke="rgb(0,0,0)" />
<polygon points="157.460456 107.094016 265.915685 151.002850 262.661792 158.311214 " stroke-width="1.000000" fill="rgb(0,0,0)"  stroke="rgb(0,0,0)" />
<line x1="347.9" y1="156.5" x2="347.0" y2="155.2" stroke="rgb(0,0,0)"  stroke-width="1.0"/>
<line x1="344.5" y1="159.8" x2="342.8" y2="157.5" stroke="rgb(0,0,0)"  stroke-width="1.0"/>
<line x1="341.1" y1="163.1" x2="338.7" y2="159.7" stroke="rgb(0,0,0)"  stroke-width="1.0"/>
<line x1="337.7" y1="166.3" x2="334.5" y2="161.9" stroke="rgb(0,0,0)"  stroke-width="1.0"/>
<line x1="334.3" y1="169.6" x2="330.4" y2="164.2" stroke="rgb(0,0,0)"  stroke-width="1.0"/>
<line x1="330.9" y1="172.9" x2="326.2" y2="166.4" stroke="rgb(0,0,0)"  stroke-width="1.0"/>
<polygon points="382.945386 83.394595 375.911458 54.738330 383.867634 53.902103 " stroke-width="1.000000" fill="rgb(0,0,0)"  stroke="rgb(0,0,0)" />
<line x1="228.3" y1="147.1" x2="228.3" y2="148.7" stroke="rgb(0,0,0)"  stroke-width="1.0"/>
<line x1="233.0" y1="146.5" x2="233.0" y2="149.4" stroke="rgb(0,0,0)"  stroke-width="1.0"/>
<line x1="237.7" y1="145.9" x2="237.7" y2="150.0" stroke="rgb(0,0,0)"  stroke-width="1.0"/>
<line x1="242.3" y1="145.2" x2="242.3" y2="150.7" stroke="rgb(0,0,0)"  stroke-width="1.0"/>
<line x1="247.0" y1="144.6" x2="247.0" y2="151.3" stroke="rgb(0,0,0)"  stroke-width="1.0"/>
<line x1="251.7" y1="143.9" x2="251.7" y2="151.9" stroke="rgb(0,0,0)"  stroke-width="1.0"/>
<line x1="142.5" y1="64.6" x2="142.7" y2="63.0" stroke="rgb(0,0,0)"  stroke-width="1.0"/>
<line x1="137.8" y1="64.7" x2="138.1" y2="61.9" stroke="rgb(0,0,0)"  stroke-width="1.0"/>
<line x1="133.1" y1="64.9" x2="133.5" y2="60.8" stroke="rgb(0,0,0)"  stroke-width="1.0"/>
<line x1="128.3" y1="65.0" x2="128.9" y2="59.6" stroke="rgb(0,0,0)"  stroke-width="1.0"/>
<line x1="123.6" y1="65.2" x2="124.3" y2="58.5" stroke="rgb(0,0,0)"  stroke-width="1.0"/>
<line x1="118.9" y1="65.3" x2="119.7" y2="57.4" stroke="rgb(0,0,0)"  stroke-width="1.0"/>
<line x1="427.1" y1="97.1" x2="428.0" y2="98.4" stroke="rgb(0,0,0)"  stroke-width="1.0"/>
<line x1="430.5" y1="93.8" x2="432.2" y2="96.1" stroke="rgb(0,0,0)"  stroke-width="1.0"/>
<line x1="433.9" y1="90.5" x2="436.3" y2="93.9" stroke="rgb(0,0,0)"  stroke-width="1.0"/>
<line x1="437.3" y1="87.3" x2="440.5" y2="91.7" stroke="rgb(0,0,0)"  stroke-width="1.0"/>
<line x1="440.7" y1="84.0" x2="444.6" y2="89.4" stroke="rgb(0,0,0)"  stroke-width="1.0"/>
<line x1="444.1" y1="80.7" x2="448.8" y2="87.2" stroke="rgb(0,0,0)"  stroke-width="1.0"/>
<polygon points="209.530504 170.314923 234.811418 206.102750 227.883215 210.102750 " stroke-width="1.000000" fill="rgb(0,0,0)"  stroke="rgb(0,0,0)" />
<polygon points="100.167349 147.935401 88.046296 134.941122 94.974499 130.941122 " stroke-width="1.000000" fill="rgb(0,0,0)"  stroke="rgb(0,0,0)" />
<line x1="435.7" y1="147.4" x2="435.0" y2="148.8" stroke="rgb(0,0,0)"  stroke-width="1.0"/>
<line x1="442.3" y1="149.6" x2="441.1" y2="152.2" stroke="rgb(0,0,0)"  stroke-width="1.0"/>
<line x1="448.9" y1="151.9" x2="447.2" y2="155.7" stroke="rgb(0,0,0)"  stroke-width="1.0"/>
<line x1="455.6" y1="154.1" x2="453.4" y2="159.1" stroke="rgb(0,0,0)"  stroke-width="1.0"/>
<line x1="462.2" y1="156.4" x2="459.5" y2="162.5" stroke="rgb(0,0,0)"  stroke-width="1.0"/>
<line x1="468.9" y1="158.6" x2="465.6" y2="165.9" stroke="rgb(0,0,0)"  stroke-width="1.0"/>
<line x1="231.3" y1="208.1" x2="262.0" y2="208.1" stroke="rgb(0,0,0)"  stroke-width="1.0"/>
<line x1="72.3" y1="158.6" x2="73.1" y2="157.2" stroke="rgb(0,0,0)"  stroke-width="1.0"/>
<line x1="68.0" y1="156.8" x2="69.4" y2="154.3" stroke="rgb(0,0,0)"  stroke-width="1.0"/>
<line x1="63.6" y1="155.1" x2="65.7" y2="151.5" stroke="rgb(0,0,0)"  stroke-width="1.0"/>
<line x1="59.2" y1="153.3" x2="61.9" y2="148.6" stroke="rgb(0,0,0)"  stroke-width="1.0"/>
<line x1="54.8" y1="151.5" x2="58.2" y2="145.7" stroke="rgb(0,0,0)"  stroke-width="1.0"/>
<line x1="50.5" y1="149.7" x2="54.5" y2="142.8" stroke="rgb(0,0,0)"  stroke-width="1.0"/>
<line x1="467.2" y1="162.3" x2="470.4" y2="192.7" stroke="rgb(0,0,0)"  stroke-width="1.0"/>
<line x1="119.7" y1="128.9" x2="87.2" y2="99.7" stroke="rgb(0,0,0)"  stroke-width="1.0"/>
<line x1="87.2" y1="99.7" x2="99.7" y2="71.7" stroke="rgb(0,0,0)"  stroke-width="1.0"/>
<line x1="117.9" y1="61.2" x2="148.4" y2="64.4" stroke="rgb(0,0,0)"  stroke-width="1.0"/>
<line x1="148.4" y1="64.4" x2="157.5" y2="107.1" stroke="rgb(0,0,0)"  stroke-width="1.0"/>
<line x1="157.5" y1="107.1" x2="119.7" y2="128.9" stroke="rgb(0,0,0)"  stroke-width="1.0"/>
<line x1="100.2" y1="199.6" x2="77.8" y2="186.7" stroke="rgb(0,0,0)"  stroke-width="1.0"/>
<line x1="77.8" y1="186.7" x2="77.8" y2="160.9" stroke="rgb(0,0,0)"  stroke-width="1.0"/>
<line x1="77.8" y1="160.9" x2="100.2" y2="147.9" stroke="rgb(0,0,0)"  stroke-width="1.0"/>
<line x1="100.2" y1="147.9" x2="122.5" y2="160.9" stroke="rgb(0,0,0)"  stroke-width="1.0"/>
<line x1="122.5" y1="160.9" x2="122.5" y2="186.7" stroke="rgb(0,0,0)"  stroke-width="1.0"/>
<line x1="122.5" y1="186.7" x2="100.2" y2="199.6" stroke="rgb(0,0,0)"  stroke-width="1.0"/>
<line x1="209.5" y1="170.3" x2="196.7" y2="170.3" stroke="rgb(0,0,0)"  stroke-width="1.0"/>
<line x1="177.2" y1="159.1" x2="170.8" y2="147.9" stroke="rgb(0,0,0)"  stroke-width="1.0"/>
<line x1="170.8" y1="147.9" x2="183.7" y2="125.6" stroke="rgb(0,0,0)"  stroke-width="1.0"/>
<line x1="183.7" y1="125.6" x2="209.5" y2="125.6" stroke="rgb(0,0,0)"  stroke-width="1.0"/>
<line x1="209.5" y1="125.6" x2="222.5" y2="147.9" stroke="rgb(0,0,0)"  stroke-width="1.0"/>
<line x1="222.5" y1="147.9" x2="209.5" y2="170.3" stroke="rgb(0,0,0)"  stroke-width="1.0"/>
<line x1="352.2" y1="152.4" x2="347.6" y2="109.0" stroke="rgb(0,0,0)"  stroke-width="1.0"/>
<line x1="347.6" y1="109.0" x2="382.9" y2="83.4" stroke="rgb(0,0,0)"  stroke-width="1.0"/>
<line x1="382.9" y1="83.4" x2="422.8" y2="101.1" stroke="rgb(0,0,0)"  stroke-width="1.0"/>
<line x1="422.8" y1="101.1" x2="427.4" y2="144.5" stroke="rgb(0,0,0)"  stroke-width="1.0"/>
<line x1="427.4" y1="144.5" x2="402.6" y2="162.5" stroke="rgb(0,0,0)"  stroke-width="1.0"/>
<line x1="380.2" y1="164.9" x2="352.2" y2="152.4" stroke="rgb(0,0,0)"  stroke-width="1.0"/>
<line x1="170.8" y1="77.3" x2="177.2" y2="88.5" stroke="rgb(0,0,0)"  stroke-width="1.0"/>
<line x1="183.7" y1="112.7" x2="183.7" y2="125.6" stroke="rgb(0,0,0)"  stroke-width="1.0"/>
<line x1="170.8" y1="147.9" x2="159.6" y2="154.4" stroke="rgb(0,0,0)"  stroke-width="1.0"/>
<line x1="135.4" y1="160.9" x2="122.5" y2="160.9" stroke="rgb(0,0,0)"  stroke-width="1.0"/>
<line x1="100.2" y1="147.9" x2="93.7" y2="136.8" stroke="rgb(0,0,0)"  stroke-width="1.0"/>
<line x1="87.2" y1="112.6" x2="87.2" y2="99.7" stroke="rgb(0,0,0)"  stroke-width="1.0"/>
<line x1="148.4" y1="64.4" x2="170.8" y2="77.3" stroke="rgb(0,0,0)"  stroke-width="1.0"/>
<text x="142.388515" y="168.856224" fill="rgb(255,12,12)"  stroke="rgb(255,12,12)" stroke-width="1" font-size="16" >O</text>
<text x="14.000000" y="216.514682" fill="rgb(12,12,255)"  stroke="rgb(12,12,255)" stroke-width="1" font-size="16" >H</text>
<text x="26.000000" y="220.194682" fill="rgb(12,12,255)"  stroke="rgb(12,12,255)" stroke-width="1" font-size="13" >2</text>
<text x="32.500000" y="216.514682" fill="rgb(12,12,255)"  stroke="rgb(12,12,255)" stroke-width="1" font-size="16" >N</text>
<text x="177.688859" y="107.714235" fill="rgb(12,12,255)"  stroke="rgb(12,12,255)" stroke-width="1" font-size="16" >NH</text>
<text x="92.550717" y="223.700019" fill="rgb(255,12,12)"  stroke="rgb(255,12,12)" stroke-width="1" font-size="16" >HO</text>
<text x="281.783743" y="99.294402" fill="rgb(12,12,255)"  stroke="rgb(12,12,255)" stroke-width="1" font-size="16" >H</text>
<text x="293.783743" y="102.974402" fill="rgb(12,12,255)"  stroke="rgb(12,12,255)" stroke-width="1" font-size="13" >2</text>
<text x="300.283743" y="99.294402" fill="rgb(12,12,255)"  stroke="rgb(12,12,255)" stroke-width="1" font-size="16" >N</text>
<text x="225.347317" y="95.768053" fill="rgb(255,12,12)"  stroke="rgb(255,12,12)" stroke-width="1" font-size="16" >OH</text>
<text x="156.334697" y="216.514682" fill="rgb(12,12,255)"  stroke="rgb(12,12,255)" stroke-width="1" font-size="16" >NH</text>
<text x="180.334697" y="220.194682" fill="rgb(12,12,255)"  stroke="rgb(12,12,255)" stroke-width="1" font-size="13" >2</text>
<text x="310.905654" y="186.083592" fill="rgb(255,12,12)"  stroke="rgb(255,12,12)" stroke-width="1" font-size="16" >O</text>
<text x="360.384431" y="48.000000" fill="rgb(255,12,12)"  stroke="rgb(255,12,12)" stroke-width="1" font-size="16" >HO</text>
<text x="260.084952" y="155.935401" fill="rgb(255,12,12)"  stroke="rgb(255,12,12)" stroke-width="1" font-size="16" >OH</text>
<text x="98.993920" y="67.852935" fill="rgb(255,12,12)"  stroke="rgb(255,12,12)" stroke-width="1" font-size="16" >O</text>
<text x="452.107030" y="83.494788" fill="rgb(255,12,12)"  stroke="rgb(255,12,12)" stroke-width="1" font-size="16" >OH</text>
<text x="177.688859" y="178.314923" fill="rgb(255,12,12)"  stroke="rgb(255,12,12)" stroke-width="1" font-size="16" >O</text>
<text x="81.246526" y="133.555880" fill="rgb(255,12,12)"  stroke="rgb(255,12,12)" stroke-width="1" font-size="16" >O</text>
<text x="386.067298" y="178.183785" fill="rgb(255,12,12)"  stroke="rgb(255,12,12)" stroke-width="1" font-size="16" >O</text>
<text x="270.980941" y="216.102750" fill="rgb(12,12,255)"  stroke="rgb(12,12,255)" stroke-width="1" font-size="16" >NH</text>
<text x="294.980941" y="219.782750" fill="rgb(12,12,255)"  stroke="rgb(12,12,255)" stroke-width="1" font-size="13" >2</text>
<text x="22.000000" y="147.039412" fill="rgb(255,12,12)"  stroke="rgb(255,12,12)" stroke-width="1" font-size="16" >HO</text>
<text x="467.789897" y="213.678573" fill="rgb(12,12,255)"  stroke="rgb(12,12,255)" stroke-width="1" font-size="16" >NH</text>
<text x="491.789897" y="217.358573" fill="rgb(12,12,255)"  stroke="rgb(12,12,255)" stroke-width="1" font-size="13" >2</text>
<text font-size="18.000000" fill ="black" font-family="sans-serif"
x="10.000000" y="20.000000" ></text>
<title> - OBDepict</title>
</svg>
