<?xml version="1.0"?>
<svg xmlns="http://www.w3.org/2000/svg"
xmlns:xlink="http://www.w3.org/1999/xlink" xmlns:cml="http://www.xml-cml.org/schema" width="461.051" height="280" x="0" y="0" font-family="sans-serif" stroke="rgb(0,0,0)" stroke-width="1"  stroke-linecap="round">
<rect x="0%" y="0%" width="100%" height="100%" stroke-width="0" fill="rgb(255,255,255)"  />
<line x1="293.7" y1="53.5" x2="317.1" y2="40.0" stroke="rgb(0,0,0)"  stroke-width="1.0"/>
<line x1="293.7" y1="226.5" x2="305.9" y2="233.5" stroke="rgb(0,0,0)"  stroke-width="1.0"/>
<line x1="317.1" y1="40.0" x2="351.8" y2="60.0" stroke="rgb(0,0,0)"  stroke-width="1.0"/>
<line x1="189.8" y1="113.5" x2="213.2" y2="100.0" stroke="rgb(0,0,0)"  stroke-width="1.0"/>
<line x1="351.8" y1="60.0" x2="386.4" y2="40.0" stroke="rgb(0,0,0)"  stroke-width="1.0"/>
<line x1="386.4" y1="40.0" x2="409.8" y2="53.5" stroke="rgb(0,0,0)"  stroke-width="1.0"/>
<line x1="98.0" y1="166.5" x2="74.6" y2="180.0" stroke="rgb(0,0,0)"  stroke-width="1.0"/>
<line x1="74.6" y1="180.0" x2="51.3" y2="166.5" stroke="rgb(0,0,0)"  stroke-width="1.0"/>
<line x1="74.6" y1="180.0" x2="74.6" y2="207.0" stroke="rgb(0,0,0)"  stroke-width="1.0"/>
<line x1="282.5" y1="100.0" x2="282.5" y2="73.0" stroke="rgb(0,0,0)"  stroke-width="1.0"/>
<line x1="247.8" y1="120.0" x2="213.2" y2="100.0" stroke="rgb(0,0,0)"  stroke-width="1.0"/>
<line x1="282.5" y1="180.0" x2="282.5" y2="207.0" stroke="rgb(0,0,0)"  stroke-width="1.0"/>
<line x1="178.6" y1="133.0" x2="178.6" y2="160.0" stroke="rgb(0,0,0)"  stroke-width="1.0"/>
<line x1="178.6" y1="160.0" x2="143.9" y2="180.0" stroke="rgb(0,0,0)"  stroke-width="1.0"/>
<line x1="143.9" y1="180.0" x2="120.5" y2="166.5" stroke="rgb(0,0,0)"  stroke-width="1.0"/>
<line x1="109.3" y1="147.0" x2="109.3" y2="120.0" stroke="rgb(0,0,0)"  stroke-width="1.0"/>
<line x1="109.3" y1="120.0" x2="143.9" y2="100.0" stroke="rgb(0,0,0)"  stroke-width="1.0"/>
<line x1="143.9" y1="100.0" x2="167.3" y2="113.5" stroke="rgb(0,0,0)"  stroke-width="1.0"/>
<line x1="282.5" y1="100.0" x2="317.1" y2="120.0" stroke="rgb(0,0,0)"  stroke-width="1.0"/>
<line x1="284.1" y1="109.2" x2="308.3" y2="123.2" stroke="rgb(0,0,0)"  stroke-width="1.0"/>
<line x1="317.1" y1="120.0" x2="317.1" y2="160.0" stroke="rgb(0,0,0)"  stroke-width="1.0"/>
<line x1="317.1" y1="160.0" x2="282.5" y2="180.0" stroke="rgb(0,0,0)"  stroke-width="1.0"/>
<line x1="308.3" y1="156.8" x2="284.1" y2="170.8" stroke="rgb(0,0,0)"  stroke-width="1.0"/>
<line x1="282.5" y1="180.0" x2="247.8" y2="160.0" stroke="rgb(0,0,0)"  stroke-width="1.0"/>
<line x1="247.8" y1="160.0" x2="247.8" y2="120.0" stroke="rgb(0,0,0)"  stroke-width="1.0"/>
<line x1="255.0" y1="154.0" x2="255.0" y2="126.0" stroke="rgb(0,0,0)"  stroke-width="1.0"/>
<line x1="247.8" y1="120.0" x2="282.5" y2="100.0" stroke="rgb(0,0,0)"  stroke-width="1.0"/>
<text x="276.487113" y="68.000000" fill="rgb(255,12,12)"  stroke="rgb(255,12,12)" stroke-width="1" font-size="16" >O</text>
<text x="276.487113" y="228.000000" fill="rgb(255,12,12)"  stroke="rgb(255,12,12)" stroke-width="1" font-size="16" >O</text>
<text x="313.128129" y="248.000000" fill="rgb(102,102,102)"  stroke="rgb(102,102,102)" stroke-width="1" font-size="16" >CH</text>
<text x="337.128129" y="251.680000" fill="rgb(102,102,102)"  stroke="rgb(102,102,102)" stroke-width="1" font-size="13" >3</text>
<text x="172.564065" y="128.000000" fill="rgb(12,12,255)"  stroke="rgb(12,12,255)" stroke-width="1" font-size="16" >N</text>
<text x="417.051178" y="68.000000" fill="rgb(12,12,255)"  stroke="rgb(12,12,255)" stroke-width="1" font-size="16" >NH</text>
<text x="441.051178" y="71.680000" fill="rgb(12,12,255)"  stroke="rgb(12,12,255)" stroke-width="1" font-size="13" >2</text>
<text x="103.282032" y="168.000000" fill="rgb(12,12,255)"  stroke="rgb(12,12,255)" stroke-width="1" font-size="16" >N</text>
<text x="14.000000" y="168.000000" fill="rgb(12,12,255)"  stroke="rgb(12,12,255)" stroke-width="1" font-size="16" >H</text>
<text x="26.000000" y="171.680000" fill="rgb(12,12,255)"  stroke="rgb(12,12,255)" stroke-width="1" font-size="13" >2</text>
<text x="32.500000" y="168.000000" fill="rgb(12,12,255)"  stroke="rgb(12,12,255)" stroke-width="1" font-size="16" >N</text>
<text x="70.641016" y="228.000000" fill="rgb(12,12,255)"  stroke="rgb(12,12,255)" stroke-width="1" font-size="16" >NH</text>
<text x="94.641016" y="231.680000" fill="rgb(12,12,255)"  stroke="rgb(12,12,255)" stroke-width="1" font-size="13" >2</text>
<text font-size="18.000000" fill ="black" font-family="sans-serif"
x="10.000000" y="20.000000" >1uui_lig</text>
<title>1uui_lig - OBDepict</title>
</svg>
