<?xml version="1.0"?>
<svg xmlns="http://www.w3.org/2000/svg"
xmlns:xlink="http://www.w3.org/1999/xlink" xmlns:cml="http://www.xml-cml.org/schema" width="245.477" height="220.129" x="0" y="0" font-family="sans-serif" stroke="rgb(0,0,0)" stroke-width="1"  stroke-linecap="round">
<rect x="0%" y="0%" width="100%" height="100%" stroke-width="0" fill="rgb(255,255,255)"  />
<line x1="106.3" y1="100.1" x2="106.3" y2="73.1" stroke="rgb(0,0,0)"  stroke-width="1.0"/>
<line x1="112.3" y1="100.1" x2="112.3" y2="73.1" stroke="rgb(0,0,0)"  stroke-width="1.0"/>
<line x1="182.0" y1="107.8" x2="194.3" y2="69.7" stroke="rgb(0,0,0)"  stroke-width="1.0"/>
<line x1="194.3" y1="69.7" x2="176.3" y2="49.7" stroke="rgb(0,0,0)"  stroke-width="1.0"/>
<line x1="51.3" y1="173.6" x2="74.6" y2="160.1" stroke="rgb(0,0,0)"  stroke-width="1.0"/>
<line x1="205.5" y1="140.1" x2="182.0" y2="107.8" stroke="rgb(0,0,0)"  stroke-width="1.0"/>
<line x1="196.1" y1="139.5" x2="179.7" y2="116.9" stroke="rgb(0,0,0)"  stroke-width="1.0"/>
<line x1="182.0" y1="107.8" x2="143.9" y2="120.1" stroke="rgb(0,0,0)"  stroke-width="1.0"/>
<line x1="143.9" y1="120.1" x2="143.9" y2="160.1" stroke="rgb(0,0,0)"  stroke-width="1.0"/>
<line x1="151.1" y1="126.1" x2="151.1" y2="154.1" stroke="rgb(0,0,0)"  stroke-width="1.0"/>
<line x1="143.9" y1="160.1" x2="169.6" y2="168.5" stroke="rgb(0,0,0)"  stroke-width="1.0"/>
<line x1="189.6" y1="162.0" x2="205.5" y2="140.1" stroke="rgb(0,0,0)"  stroke-width="1.0"/>
<line x1="74.6" y1="133.1" x2="74.6" y2="160.1" stroke="rgb(0,0,0)"  stroke-width="1.0"/>
<line x1="74.6" y1="160.1" x2="97.9" y2="173.5" stroke="rgb(0,0,0)"  stroke-width="1.0"/>
<line x1="83.4" y1="156.9" x2="99.7" y2="166.3" stroke="rgb(0,0,0)"  stroke-width="1.0"/>
<line x1="120.5" y1="173.6" x2="143.9" y2="160.1" stroke="rgb(0,0,0)"  stroke-width="1.0"/>
<line x1="143.9" y1="120.1" x2="109.3" y2="100.1" stroke="rgb(0,0,0)"  stroke-width="1.0"/>
<line x1="109.3" y1="100.1" x2="85.9" y2="113.6" stroke="rgb(0,0,0)"  stroke-width="1.0"/>
<text x="56.641016" y="128.128733" fill="rgb(12,12,255)"  stroke="rgb(12,12,255)" stroke-width="1" font-size="16" >HN</text>
<text x="103.282032" y="188.128733" fill="rgb(12,12,255)"  stroke="rgb(12,12,255)" stroke-width="1" font-size="16" >N</text>
<text x="103.282032" y="68.128733" fill="rgb(255,12,12)"  stroke="rgb(255,12,12)" stroke-width="1" font-size="16" >O</text>
<text x="141.560765" y="48.000000" fill="rgb(12,12,255)"  stroke="rgb(12,12,255)" stroke-width="1" font-size="16" >H</text>
<text x="153.560765" y="51.680000" fill="rgb(12,12,255)"  stroke="rgb(12,12,255)" stroke-width="1" font-size="13" >2</text>
<text x="160.060765" y="48.000000" fill="rgb(12,12,255)"  stroke="rgb(12,12,255)" stroke-width="1" font-size="16" >N</text>
<text x="175.965309" y="180.489413" fill="rgb(12,12,255)"  stroke="rgb(12,12,255)" stroke-width="1" font-size="16" >N</text>
<text x="175.965309" y="196.489413" fill="rgb(12,12,255)"  stroke="rgb(12,12,255)" stroke-width="1" font-size="16" >H</text>
<text x="14.000000" y="188.128733" fill="rgb(12,12,255)"  stroke="rgb(12,12,255)" stroke-width="1" font-size="16" >H</text>
<text x="26.000000" y="191.808733" fill="rgb(12,12,255)"  stroke="rgb(12,12,255)" stroke-width="1" font-size="13" >2</text>
<text x="32.500000" y="188.128733" fill="rgb(12,12,255)"  stroke="rgb(12,12,255)" stroke-width="1" font-size="16" >N</text>
<text font-size="18.000000" fill ="black" font-family="sans-serif"
x="10.000000" y="20.000000" ></text>
<title> - OBDepict</title>
</svg>
