<?xml version="1.0"?>
<svg xmlns="http://www.w3.org/2000/svg"
xmlns:xlink="http://www.w3.org/1999/xlink" xmlns:cml="http://www.xml-cml.org/schema" width="322.487" height="220" x="0" y="0" font-family="sans-serif" stroke="rgb(0,0,0)" stroke-width="1"  stroke-linecap="round">
<rect x="0%" y="0%" width="100%" height="100%" stroke-width="0" fill="rgb(255,255,255)"  />
<line x1="74.6" y1="160.0" x2="51.3" y2="173.5" stroke="rgb(0,0,0)"  stroke-width="1.0"/>
<line x1="106.3" y1="100.0" x2="106.3" y2="73.0" stroke="rgb(0,0,0)"  stroke-width="1.0"/>
<line x1="112.3" y1="100.0" x2="112.3" y2="73.0" stroke="rgb(0,0,0)"  stroke-width="1.0"/>
<polygon points="213.205081 120.000000 187.995600 110.064102 191.995600 103.135898 " stroke-width="1.000000" fill="rgb(0,0,0)"  stroke="rgb(0,0,0)" />
<line x1="213.2" y1="120.0" x2="247.8" y2="100.0" stroke="rgb(0,0,0)"  stroke-width="1.0"/>
<line x1="252.9" y1="102.0" x2="252.1" y2="103.4" stroke="rgb(0,0,0)"  stroke-width="1.0"/>
<line x1="256.9" y1="103.6" x2="255.5" y2="106.1" stroke="rgb(0,0,0)"  stroke-width="1.0"/>
<line x1="261.0" y1="105.2" x2="258.9" y2="108.8" stroke="rgb(0,0,0)"  stroke-width="1.0"/>
<line x1="265.0" y1="106.8" x2="262.3" y2="111.5" stroke="rgb(0,0,0)"  stroke-width="1.0"/>
<line x1="269.0" y1="108.3" x2="265.7" y2="114.2" stroke="rgb(0,0,0)"  stroke-width="1.0"/>
<line x1="273.1" y1="109.9" x2="269.1" y2="116.9" stroke="rgb(0,0,0)"  stroke-width="1.0"/>
<line x1="247.8" y1="100.0" x2="247.8" y2="60.0" stroke="rgb(0,0,0)"  stroke-width="1.0"/>
<line x1="252.1" y1="56.6" x2="252.9" y2="58.0" stroke="rgb(0,0,0)"  stroke-width="1.0"/>
<line x1="255.5" y1="53.9" x2="256.9" y2="56.4" stroke="rgb(0,0,0)"  stroke-width="1.0"/>
<line x1="258.9" y1="51.2" x2="261.0" y2="54.8" stroke="rgb(0,0,0)"  stroke-width="1.0"/>
<line x1="262.3" y1="48.5" x2="265.0" y2="53.2" stroke="rgb(0,0,0)"  stroke-width="1.0"/>
<line x1="265.7" y1="45.8" x2="269.0" y2="51.7" stroke="rgb(0,0,0)"  stroke-width="1.0"/>
<line x1="269.1" y1="43.1" x2="273.1" y2="50.1" stroke="rgb(0,0,0)"  stroke-width="1.0"/>
<line x1="247.8" y1="60.0" x2="224.5" y2="46.5" stroke="rgb(0,0,0)"  stroke-width="1.0"/>
<line x1="97.9" y1="173.4" x2="74.6" y2="160.0" stroke="rgb(0,0,0)"  stroke-width="1.0"/>
<line x1="99.7" y1="166.2" x2="83.4" y2="156.8" stroke="rgb(0,0,0)"  stroke-width="1.0"/>
<line x1="74.6" y1="160.0" x2="74.6" y2="133.0" stroke="rgb(0,0,0)"  stroke-width="1.0"/>
<line x1="85.9" y1="113.5" x2="109.3" y2="100.0" stroke="rgb(0,0,0)"  stroke-width="1.0"/>
<line x1="109.3" y1="100.0" x2="143.9" y2="120.0" stroke="rgb(0,0,0)"  stroke-width="1.0"/>
<line x1="143.9" y1="120.0" x2="143.9" y2="160.0" stroke="rgb(0,0,0)"  stroke-width="1.0"/>
<line x1="136.7" y1="126.0" x2="136.7" y2="154.0" stroke="rgb(0,0,0)"  stroke-width="1.0"/>
<line x1="143.9" y1="160.0" x2="120.5" y2="173.5" stroke="rgb(0,0,0)"  stroke-width="1.0"/>
<line x1="189.8" y1="106.5" x2="213.2" y2="120.0" stroke="rgb(0,0,0)"  stroke-width="1.0"/>
<line x1="213.2" y1="120.0" x2="213.2" y2="160.0" stroke="rgb(0,0,0)"  stroke-width="1.0"/>
<line x1="213.2" y1="160.0" x2="189.8" y2="173.5" stroke="rgb(0,0,0)"  stroke-width="1.0"/>
<line x1="167.3" y1="173.5" x2="143.9" y2="160.0" stroke="rgb(0,0,0)"  stroke-width="1.0"/>
<line x1="143.9" y1="120.0" x2="167.3" y2="106.5" stroke="rgb(0,0,0)"  stroke-width="1.0"/>
<text x="103.282032" y="188.000000" fill="rgb(12,12,255)"  stroke="rgb(12,12,255)" stroke-width="1" font-size="16" >N</text>
<text x="14.000000" y="188.000000" fill="rgb(12,12,255)"  stroke="rgb(12,12,255)" stroke-width="1" font-size="16" >H</text>
<text x="26.000000" y="191.680000" fill="rgb(12,12,255)"  stroke="rgb(12,12,255)" stroke-width="1" font-size="13" >2</text>
<text x="32.500000" y="188.000000" fill="rgb(12,12,255)"  stroke="rgb(12,12,255)" stroke-width="1" font-size="16" >N</text>
<text x="56.641016" y="128.000000" fill="rgb(12,12,255)"  stroke="rgb(12,12,255)" stroke-width="1" font-size="16" >HN</text>
<text x="103.282032" y="68.000000" fill="rgb(255,12,12)"  stroke="rgb(255,12,12)" stroke-width="1" font-size="16" >O</text>
<text x="172.564065" y="108.000000" fill="rgb(12,12,255)"  stroke="rgb(12,12,255)" stroke-width="1" font-size="16" >N</text>
<text x="172.564065" y="92.000000" fill="rgb(12,12,255)"  stroke="rgb(12,12,255)" stroke-width="1" font-size="16" >H</text>
<text x="172.564065" y="188.000000" fill="rgb(12,12,255)"  stroke="rgb(12,12,255)" stroke-width="1" font-size="16" >N</text>
<text x="172.564065" y="204.000000" fill="rgb(12,12,255)"  stroke="rgb(12,12,255)" stroke-width="1" font-size="16" >H</text>
<text x="276.487113" y="128.000000" fill="rgb(255,12,12)"  stroke="rgb(255,12,12)" stroke-width="1" font-size="16" >OH</text>
<text x="276.487113" y="48.000000" fill="rgb(255,12,12)"  stroke="rgb(255,12,12)" stroke-width="1" font-size="16" >OH</text>
<text x="187.205081" y="48.000000" fill="rgb(102,102,102)"  stroke="rgb(102,102,102)" stroke-width="1" font-size="16" >H</text>
<text x="199.205081" y="51.680000" fill="rgb(102,102,102)"  stroke="rgb(102,102,102)" stroke-width="1" font-size="13" >3</text>
<text x="205.705081" y="48.000000" fill="rgb(102,102,102)"  stroke="rgb(102,102,102)" stroke-width="1" font-size="16" >C</text>
<text font-size="18.000000" fill ="black" font-family="sans-serif"
x="10.000000" y="20.000000" ></text>
<title> - OBDepict</title>
</svg>
