<?xml version="1.0"?>
<svg xmlns="http://www.w3.org/2000/svg"
xmlns:xlink="http://www.w3.org/1999/xlink" xmlns:cml="http://www.xml-cml.org/schema" width="258.564" height="180" x="0" y="0" font-family="sans-serif" stroke="rgb(0,0,0)" stroke-width="1"  stroke-linecap="round">
<rect x="0%" y="0%" width="100%" height="100%" stroke-width="0" fill="rgb(255,255,255)"  />
<line x1="138.0" y1="53.5" x2="114.6" y2="40.0" stroke="rgb(0,0,0)"  stroke-width="1.0"/>
<line x1="114.6" y1="40.0" x2="80.0" y2="60.0" stroke="rgb(0,0,0)"  stroke-width="1.0"/>
<line x1="80.0" y1="60.0" x2="80.0" y2="87.0" stroke="rgb(0,0,0)"  stroke-width="1.0"/>
<line x1="53.0" y1="100.0" x2="67.0" y2="100.0" stroke="rgb(0,0,0)"  stroke-width="1.0"/>
<line x1="77.0" y1="127.0" x2="77.0" y2="113.0" stroke="rgb(0,0,0)"  stroke-width="1.0"/>
<line x1="83.0" y1="127.0" x2="83.0" y2="113.0" stroke="rgb(0,0,0)"  stroke-width="1.0"/>
<line x1="107.0" y1="103.0" x2="93.0" y2="103.0" stroke="rgb(0,0,0)"  stroke-width="1.0"/>
<line x1="107.0" y1="97.0" x2="93.0" y2="97.0" stroke="rgb(0,0,0)"  stroke-width="1.0"/>
<line x1="160.5" y1="53.5" x2="183.9" y2="40.0" stroke="rgb(0,0,0)"  stroke-width="1.0"/>
<line x1="183.9" y1="40.0" x2="218.6" y2="60.0" stroke="rgb(0,0,0)"  stroke-width="1.0"/>
<line x1="218.6" y1="60.0" x2="218.6" y2="87.0" stroke="rgb(0,0,0)"  stroke-width="1.0"/>
<line x1="207.3" y1="106.5" x2="183.9" y2="120.0" stroke="rgb(0,0,0)"  stroke-width="1.0"/>
<line x1="183.9" y1="120.0" x2="149.3" y2="100.0" stroke="rgb(0,0,0)"  stroke-width="1.0"/>
<line x1="149.3" y1="100.0" x2="149.3" y2="73.0" stroke="rgb(0,0,0)"  stroke-width="1.0"/>
<text x="143.282032" y="68.000000" fill="rgb(12,12,255)"  stroke="rgb(12,12,255)" stroke-width="1" font-size="16" >N</text>
<text x="22.000000" y="108.000000" fill="rgb(255,12,12)"  stroke="rgb(255,12,12)" stroke-width="1" font-size="16" >HO</text>
<text x="74.000000" y="148.000000" fill="rgb(255,12,12)"  stroke="rgb(255,12,12)" stroke-width="1" font-size="16" >O</text>
<text x="114.000000" y="108.000000" fill="rgb(255,12,12)"  stroke="rgb(255,12,12)" stroke-width="1" font-size="16" >O</text>
<text x="212.564065" y="108.000000" fill="rgb(12,12,255)"  stroke="rgb(12,12,255)" stroke-width="1" font-size="16" >NH</text>
<text x="74.000000" y="108.000000" fill="rgb(178,178,0)"  stroke="rgb(178,178,0)" stroke-width="1" font-size="16" >S</text>
<text font-size="18.000000" fill ="black" font-family="sans-serif"
x="10.000000" y="20.000000" ></text>
<title> - OBDepict</title>
</svg>
