<?xml version="1.0"?>
<svg xmlns="http://www.w3.org/2000/svg"
xmlns:xlink="http://www.w3.org/1999/xlink" xmlns:cml="http://www.xml-cml.org/schema" width="691.987" height="305.617" x="0" y="0" font-family="sans-serif" stroke="rgb(0,0,0)" stroke-width="1"  stroke-linecap="round">
<rect x="0%" y="0%" width="100%" height="100%" stroke-width="0" fill="rgb(255,255,255)"  />
<line x1="348.5" y1="61.1" x2="349.9" y2="61.8" stroke="rgb(0,0,0)"  stroke-width="1.0"/>
<line x1="348.9" y1="58.9" x2="351.4" y2="60.2" stroke="rgb(0,0,0)"  stroke-width="1.0"/>
<line x1="349.3" y1="56.6" x2="353.0" y2="58.5" stroke="rgb(0,0,0)"  stroke-width="1.0"/>
<line x1="349.7" y1="54.4" x2="354.6" y2="56.9" stroke="rgb(0,0,0)"  stroke-width="1.0"/>
<line x1="350.1" y1="52.2" x2="356.1" y2="55.2" stroke="rgb(0,0,0)"  stroke-width="1.0"/>
<line x1="350.6" y1="49.9" x2="357.7" y2="53.6" stroke="rgb(0,0,0)"  stroke-width="1.0"/>
<line x1="332.4" y1="66.4" x2="324.7" y2="54.6" stroke="rgb(0,0,0)"  stroke-width="1.0"/>
<line x1="337.4" y1="63.1" x2="329.8" y2="51.4" stroke="rgb(0,0,0)"  stroke-width="1.0"/>
<polygon points="344.044789 241.737876 341.434545 255.671527 334.306492 252.039603 " stroke-width="1.000000" fill="rgb(0,0,0)"  stroke="rgb(0,0,0)" />
<line x1="359.6" y1="239.2" x2="367.3" y2="251.0" stroke="rgb(0,0,0)"  stroke-width="1.0"/>
<line x1="354.6" y1="242.5" x2="362.2" y2="254.3" stroke="rgb(0,0,0)"  stroke-width="1.0"/>
<polygon points="423.161416 148.764214 406.996511 111.958021 414.604963 109.485885 " stroke-width="1.000000" fill="rgb(0,0,0)"  stroke="rgb(0,0,0)" />
<polygon points="268.825087 156.852638 284.989993 193.658830 277.381541 196.130966 " stroke-width="1.000000" fill="rgb(0,0,0)"  stroke="rgb(0,0,0)" />
<line x1="411.9" y1="192.4" x2="410.7" y2="191.3" stroke="rgb(0,0,0)"  stroke-width="1.0"/>
<line x1="409.5" y1="196.0" x2="407.3" y2="194.1" stroke="rgb(0,0,0)"  stroke-width="1.0"/>
<line x1="407.1" y1="199.6" x2="404.0" y2="196.9" stroke="rgb(0,0,0)"  stroke-width="1.0"/>
<line x1="404.7" y1="203.3" x2="400.6" y2="199.6" stroke="rgb(0,0,0)"  stroke-width="1.0"/>
<line x1="402.3" y1="206.9" x2="397.3" y2="202.4" stroke="rgb(0,0,0)"  stroke-width="1.0"/>
<line x1="399.9" y1="210.5" x2="393.9" y2="205.1" stroke="rgb(0,0,0)"  stroke-width="1.0"/>
<line x1="280.1" y1="113.2" x2="281.3" y2="114.3" stroke="rgb(0,0,0)"  stroke-width="1.0"/>
<line x1="282.5" y1="109.6" x2="284.7" y2="111.5" stroke="rgb(0,0,0)"  stroke-width="1.0"/>
<line x1="284.9" y1="106.0" x2="288.0" y2="108.8" stroke="rgb(0,0,0)"  stroke-width="1.0"/>
<line x1="287.3" y1="102.4" x2="291.4" y2="106.0" stroke="rgb(0,0,0)"  stroke-width="1.0"/>
<line x1="289.7" y1="98.7" x2="294.7" y2="103.2" stroke="rgb(0,0,0)"  stroke-width="1.0"/>
<line x1="292.1" y1="95.1" x2="298.0" y2="100.5" stroke="rgb(0,0,0)"  stroke-width="1.0"/>
<polygon points="479.211758 181.124893 506.257760 182.784336 504.594467 190.609517 " stroke-width="1.000000" fill="rgb(0,0,0)"  stroke="rgb(0,0,0)" />
<polygon points="212.774746 124.491958 185.728743 122.832515 187.392037 115.007334 " stroke-width="1.000000" fill="rgb(0,0,0)"  stroke="rgb(0,0,0)" />
<line x1="617.3" y1="162.7" x2="640.7" y2="176.2" stroke="rgb(0,0,0)"  stroke-width="1.0"/>
<line x1="74.6" y1="142.9" x2="51.3" y2="129.4" stroke="rgb(0,0,0)"  stroke-width="1.0"/>
<line x1="479.2" y1="181.1" x2="449.5" y2="207.9" stroke="rgb(0,0,0)"  stroke-width="1.0"/>
<line x1="449.5" y1="207.9" x2="414.8" y2="187.9" stroke="rgb(0,0,0)"  stroke-width="1.0"/>
<line x1="414.8" y1="187.9" x2="423.2" y2="148.8" stroke="rgb(0,0,0)"  stroke-width="1.0"/>
<line x1="423.2" y1="148.8" x2="450.0" y2="145.9" stroke="rgb(0,0,0)"  stroke-width="1.0"/>
<line x1="468.2" y1="156.5" x2="479.2" y2="181.1" stroke="rgb(0,0,0)"  stroke-width="1.0"/>
<line x1="212.8" y1="124.5" x2="242.5" y2="97.7" stroke="rgb(0,0,0)"  stroke-width="1.0"/>
<line x1="242.5" y1="97.7" x2="277.1" y2="117.7" stroke="rgb(0,0,0)"  stroke-width="1.0"/>
<line x1="277.1" y1="117.7" x2="268.8" y2="156.9" stroke="rgb(0,0,0)"  stroke-width="1.0"/>
<line x1="268.8" y1="156.9" x2="242.0" y2="159.7" stroke="rgb(0,0,0)"  stroke-width="1.0"/>
<line x1="223.8" y1="149.2" x2="212.8" y2="124.5" stroke="rgb(0,0,0)"  stroke-width="1.0"/>
<line x1="534.6" y1="226.0" x2="523.6" y2="201.3" stroke="rgb(0,0,0)"  stroke-width="1.0"/>
<line x1="528.0" y1="180.7" x2="548.1" y2="162.7" stroke="rgb(0,0,0)"  stroke-width="1.0"/>
<line x1="548.1" y1="162.7" x2="582.7" y2="182.7" stroke="rgb(0,0,0)"  stroke-width="1.0"/>
<line x1="582.7" y1="182.7" x2="577.1" y2="209.1" stroke="rgb(0,0,0)"  stroke-width="1.0"/>
<line x1="561.3" y1="223.2" x2="534.6" y2="226.0" stroke="rgb(0,0,0)"  stroke-width="1.0"/>
<line x1="558.5" y1="216.2" x2="539.8" y2="218.2" stroke="rgb(0,0,0)"  stroke-width="1.0"/>
<line x1="157.4" y1="79.6" x2="168.4" y2="104.3" stroke="rgb(0,0,0)"  stroke-width="1.0"/>
<line x1="164.0" y1="124.9" x2="143.9" y2="142.9" stroke="rgb(0,0,0)"  stroke-width="1.0"/>
<line x1="143.9" y1="142.9" x2="109.3" y2="122.9" stroke="rgb(0,0,0)"  stroke-width="1.0"/>
<line x1="109.3" y1="122.9" x2="114.9" y2="96.5" stroke="rgb(0,0,0)"  stroke-width="1.0"/>
<line x1="130.7" y1="82.4" x2="157.4" y2="79.6" stroke="rgb(0,0,0)"  stroke-width="1.0"/>
<line x1="133.5" y1="89.4" x2="152.2" y2="87.4" stroke="rgb(0,0,0)"  stroke-width="1.0"/>
<line x1="582.7" y1="102.7" x2="605.9" y2="116.1" stroke="rgb(0,0,0)"  stroke-width="1.0"/>
<line x1="584.3" y1="111.9" x2="600.6" y2="121.3" stroke="rgb(0,0,0)"  stroke-width="1.0"/>
<line x1="617.3" y1="135.7" x2="617.3" y2="162.7" stroke="rgb(0,0,0)"  stroke-width="1.0"/>
<line x1="617.3" y1="162.7" x2="582.7" y2="182.7" stroke="rgb(0,0,0)"  stroke-width="1.0"/>
<line x1="608.5" y1="159.4" x2="584.3" y2="173.4" stroke="rgb(0,0,0)"  stroke-width="1.0"/>
<line x1="548.1" y1="162.7" x2="548.1" y2="135.9" stroke="rgb(0,0,0)"  stroke-width="1.0"/>
<line x1="555.3" y1="156.7" x2="555.3" y2="137.9" stroke="rgb(0,0,0)"  stroke-width="1.0"/>
<line x1="559.3" y1="116.2" x2="582.7" y2="102.7" stroke="rgb(0,0,0)"  stroke-width="1.0"/>
<line x1="109.3" y1="202.9" x2="86.1" y2="189.5" stroke="rgb(0,0,0)"  stroke-width="1.0"/>
<line x1="107.7" y1="193.7" x2="91.4" y2="184.3" stroke="rgb(0,0,0)"  stroke-width="1.0"/>
<line x1="74.6" y1="169.9" x2="74.6" y2="142.9" stroke="rgb(0,0,0)"  stroke-width="1.0"/>
<line x1="74.6" y1="142.9" x2="109.3" y2="122.9" stroke="rgb(0,0,0)"  stroke-width="1.0"/>
<line x1="83.4" y1="146.2" x2="107.7" y2="132.2" stroke="rgb(0,0,0)"  stroke-width="1.0"/>
<line x1="143.9" y1="142.9" x2="143.9" y2="169.7" stroke="rgb(0,0,0)"  stroke-width="1.0"/>
<line x1="136.7" y1="148.9" x2="136.7" y2="167.7" stroke="rgb(0,0,0)"  stroke-width="1.0"/>
<line x1="132.7" y1="189.4" x2="109.3" y2="202.9" stroke="rgb(0,0,0)"  stroke-width="1.0"/>
<line x1="354.7" y1="78.3" x2="368.4" y2="81.3" stroke="rgb(0,0,0)"  stroke-width="1.0"/>
<line x1="390.7" y1="92.7" x2="410.8" y2="110.7" stroke="rgb(0,0,0)"  stroke-width="1.0"/>
<line x1="410.8" y1="110.7" x2="423.2" y2="148.8" stroke="rgb(0,0,0)"  stroke-width="1.0"/>
<line x1="414.8" y1="187.9" x2="396.8" y2="208.0" stroke="rgb(0,0,0)"  stroke-width="1.0"/>
<line x1="375.7" y1="221.6" x2="362.4" y2="226.0" stroke="rgb(0,0,0)"  stroke-width="1.0"/>
<line x1="337.3" y1="227.3" x2="323.6" y2="224.4" stroke="rgb(0,0,0)"  stroke-width="1.0"/>
<line x1="301.3" y1="213.0" x2="281.2" y2="194.9" stroke="rgb(0,0,0)"  stroke-width="1.0"/>
<line x1="281.2" y1="194.9" x2="268.8" y2="156.9" stroke="rgb(0,0,0)"  stroke-width="1.0"/>
<line x1="277.1" y1="117.7" x2="295.2" y2="97.7" stroke="rgb(0,0,0)"  stroke-width="1.0"/>
<line x1="316.3" y1="84.0" x2="329.6" y2="79.7" stroke="rgb(0,0,0)"  stroke-width="1.0"/>
<text x="335.949040" y="83.640261" fill="rgb(255,127,0)"  stroke="rgb(255,127,0)" stroke-width="1" font-size="16" >P</text>
<text x="344.037464" y="237.976590" fill="rgb(255,127,0)"  stroke="rgb(255,127,0)" stroke-width="1" font-size="16" >P</text>
<text x="364.908660" y="35.968000" fill="rgb(255,12,12)"  stroke="rgb(255,12,12)" stroke-width="1" font-size="32" >-</text>
<text x="354.108660" y="48.000000" fill="rgb(255,12,12)"  stroke="rgb(255,12,12)" stroke-width="1" font-size="16" >O</text>
<text x="336.677844" y="261.584851" fill="rgb(255,12,12)"  stroke="rgb(255,12,12)" stroke-width="1" font-size="32" >-</text>
<text x="325.877844" y="273.616851" fill="rgb(255,12,12)"  stroke="rgb(255,12,12)" stroke-width="1" font-size="16" >O</text>
<text x="314.163478" y="50.093438" fill="rgb(255,12,12)"  stroke="rgb(255,12,12)" stroke-width="1" font-size="16" >O</text>
<text x="365.823025" y="271.523413" fill="rgb(255,12,12)"  stroke="rgb(255,12,12)" stroke-width="1" font-size="16" >O</text>
<text x="375.074944" y="91.956729" fill="rgb(255,12,12)"  stroke="rgb(255,12,12)" stroke-width="1" font-size="16" >O</text>
<text x="304.911560" y="229.660123" fill="rgb(255,12,12)"  stroke="rgb(255,12,12)" stroke-width="1" font-size="16" >O</text>
<text x="456.942292" y="152.583075" fill="rgb(255,12,12)"  stroke="rgb(255,12,12)" stroke-width="1" font-size="16" >O</text>
<text x="223.044211" y="169.033776" fill="rgb(255,12,12)"  stroke="rgb(255,12,12)" stroke-width="1" font-size="16" >O</text>
<text x="382.079725" y="225.615911" fill="rgb(255,12,12)"  stroke="rgb(255,12,12)" stroke-width="1" font-size="16" >O</text>
<text x="297.906779" y="96.000941" fill="rgb(255,12,12)"  stroke="rgb(255,12,12)" stroke-width="1" font-size="16" >O</text>
<text x="611.345487" y="130.676137" fill="rgb(12,12,255)"  stroke="rgb(12,12,255)" stroke-width="1" font-size="16" >N</text>
<text x="542.063455" y="130.676137" fill="rgb(12,12,255)"  stroke="rgb(12,12,255)" stroke-width="1" font-size="16" >N</text>
<text x="647.986503" y="190.676137" fill="rgb(12,12,255)"  stroke="rgb(12,12,255)" stroke-width="1" font-size="16" >NH</text>
<text x="671.986503" y="194.356137" fill="rgb(12,12,255)"  stroke="rgb(12,12,255)" stroke-width="1" font-size="13" >2</text>
<text x="568.388004" y="229.802041" fill="rgb(12,12,255)"  stroke="rgb(12,12,255)" stroke-width="1" font-size="16" >N</text>
<text x="512.337662" y="197.441361" fill="rgb(12,12,255)"  stroke="rgb(12,12,255)" stroke-width="1" font-size="16" >N</text>
<text x="68.641016" y="190.940715" fill="rgb(12,12,255)"  stroke="rgb(12,12,255)" stroke-width="1" font-size="16" >N</text>
<text x="137.923048" y="190.940715" fill="rgb(12,12,255)"  stroke="rgb(12,12,255)" stroke-width="1" font-size="16" >N</text>
<text x="14.000000" y="130.940715" fill="rgb(12,12,255)"  stroke="rgb(12,12,255)" stroke-width="1" font-size="16" >H</text>
<text x="26.000000" y="134.620715" fill="rgb(12,12,255)"  stroke="rgb(12,12,255)" stroke-width="1" font-size="13" >2</text>
<text x="32.500000" y="130.940715" fill="rgb(12,12,255)"  stroke="rgb(12,12,255)" stroke-width="1" font-size="16" >N</text>
<text x="111.598500" y="91.814811" fill="rgb(12,12,255)"  stroke="rgb(12,12,255)" stroke-width="1" font-size="16" >N</text>
<text x="167.648841" y="124.175490" fill="rgb(12,12,255)"  stroke="rgb(12,12,255)" stroke-width="1" font-size="16" >N</text>
<text font-size="18.000000" fill ="black" font-family="sans-serif"
x="10.000000" y="20.000000" ></text>
<title> - OBDepict</title>
</svg>
