<?xml version="1.0"?>
<svg xmlns="http://www.w3.org/2000/svg"
xmlns:xlink="http://www.w3.org/1999/xlink" xmlns:cml="http://www.xml-cml.org/schema" width="564.974" height="280" x="0" y="0" font-family="sans-serif" stroke="rgb(0,0,0)" stroke-width="1"  stroke-linecap="round">
<rect x="0%" y="0%" width="100%" height="100%" stroke-width="0" fill="rgb(255,255,255)"  />
<line x1="416.0" y1="118.0" x2="416.8" y2="116.6" stroke="rgb(0,0,0)"  stroke-width="1.0"/>
<line x1="412.0" y1="116.4" x2="413.4" y2="113.9" stroke="rgb(0,0,0)"  stroke-width="1.0"/>
<line x1="407.9" y1="114.8" x2="410.0" y2="111.2" stroke="rgb(0,0,0)"  stroke-width="1.0"/>
<line x1="403.9" y1="113.2" x2="406.6" y2="108.5" stroke="rgb(0,0,0)"  stroke-width="1.0"/>
<line x1="399.9" y1="111.7" x2="403.2" y2="105.8" stroke="rgb(0,0,0)"  stroke-width="1.0"/>
<line x1="395.8" y1="110.1" x2="399.8" y2="103.1" stroke="rgb(0,0,0)"  stroke-width="1.0"/>
<line x1="454.9" y1="94.6" x2="456.5" y2="94.6" stroke="rgb(0,0,0)"  stroke-width="1.0"/>
<line x1="454.3" y1="90.4" x2="457.1" y2="90.4" stroke="rgb(0,0,0)"  stroke-width="1.0"/>
<line x1="453.6" y1="86.1" x2="457.8" y2="86.1" stroke="rgb(0,0,0)"  stroke-width="1.0"/>
<line x1="453.0" y1="81.8" x2="458.4" y2="81.8" stroke="rgb(0,0,0)"  stroke-width="1.0"/>
<line x1="452.3" y1="77.5" x2="459.1" y2="77.5" stroke="rgb(0,0,0)"  stroke-width="1.0"/>
<line x1="451.7" y1="73.2" x2="459.7" y2="73.2" stroke="rgb(0,0,0)"  stroke-width="1.0"/>
<polygon points="490.333210 120.000000 511.542691 103.135898 515.542691 110.064102 " stroke-width="1.000000" fill="rgb(0,0,0)"  stroke="rgb(0,0,0)" />
<line x1="495.4" y1="162.0" x2="494.6" y2="163.4" stroke="rgb(0,0,0)"  stroke-width="1.0"/>
<line x1="499.4" y1="163.6" x2="498.0" y2="166.1" stroke="rgb(0,0,0)"  stroke-width="1.0"/>
<line x1="503.4" y1="165.2" x2="501.4" y2="168.8" stroke="rgb(0,0,0)"  stroke-width="1.0"/>
<line x1="507.5" y1="166.8" x2="504.8" y2="171.5" stroke="rgb(0,0,0)"  stroke-width="1.0"/>
<line x1="511.5" y1="168.3" x2="508.1" y2="174.2" stroke="rgb(0,0,0)"  stroke-width="1.0"/>
<line x1="515.5" y1="169.9" x2="511.5" y2="176.9" stroke="rgb(0,0,0)"  stroke-width="1.0"/>
<polygon points="455.692194 180.000000 459.692194 220.000000 451.692194 220.000000 " stroke-width="1.000000" fill="rgb(0,0,0)"  stroke="rgb(0,0,0)" />
<line x1="455.7" y1="220.0" x2="432.3" y2="233.5" stroke="rgb(0,0,0)"  stroke-width="1.0"/>
<line x1="278.2" y1="163.4" x2="277.4" y2="162.0" stroke="rgb(0,0,0)"  stroke-width="1.0"/>
<line x1="274.9" y1="166.1" x2="273.4" y2="163.6" stroke="rgb(0,0,0)"  stroke-width="1.0"/>
<line x1="271.5" y1="168.8" x2="269.4" y2="165.2" stroke="rgb(0,0,0)"  stroke-width="1.0"/>
<line x1="268.1" y1="171.5" x2="265.3" y2="166.8" stroke="rgb(0,0,0)"  stroke-width="1.0"/>
<line x1="264.7" y1="174.2" x2="261.3" y2="168.3" stroke="rgb(0,0,0)"  stroke-width="1.0"/>
<line x1="261.3" y1="176.9" x2="257.3" y2="169.9" stroke="rgb(0,0,0)"  stroke-width="1.0"/>
<line x1="236.6" y1="173.5" x2="213.2" y2="160.0" stroke="rgb(0,0,0)"  stroke-width="1.0"/>
<polygon points="317.128129 180.000000 321.128129 206.800000 313.128129 206.800000 " stroke-width="1.000000" fill="rgb(0,0,0)"  stroke="rgb(0,0,0)" />
<line x1="305.9" y1="226.5" x2="282.5" y2="240.0" stroke="rgb(0,0,0)"  stroke-width="1.0"/>
<line x1="356.8" y1="162.0" x2="356.0" y2="163.4" stroke="rgb(0,0,0)"  stroke-width="1.0"/>
<line x1="360.8" y1="163.6" x2="359.4" y2="166.1" stroke="rgb(0,0,0)"  stroke-width="1.0"/>
<line x1="364.9" y1="165.2" x2="362.8" y2="168.8" stroke="rgb(0,0,0)"  stroke-width="1.0"/>
<line x1="368.9" y1="166.8" x2="366.2" y2="171.5" stroke="rgb(0,0,0)"  stroke-width="1.0"/>
<line x1="372.9" y1="168.3" x2="369.6" y2="174.2" stroke="rgb(0,0,0)"  stroke-width="1.0"/>
<line x1="377.0" y1="169.9" x2="373.0" y2="176.9" stroke="rgb(0,0,0)"  stroke-width="1.0"/>
<polygon points="351.769145 120.000000 372.978626 103.135898 376.978626 110.064102 " stroke-width="1.000000" fill="rgb(0,0,0)"  stroke="rgb(0,0,0)" />
<line x1="316.3" y1="94.6" x2="317.9" y2="94.6" stroke="rgb(0,0,0)"  stroke-width="1.0"/>
<line x1="315.7" y1="90.4" x2="318.6" y2="90.4" stroke="rgb(0,0,0)"  stroke-width="1.0"/>
<line x1="315.0" y1="86.1" x2="319.2" y2="86.1" stroke="rgb(0,0,0)"  stroke-width="1.0"/>
<line x1="314.4" y1="81.8" x2="319.8" y2="81.8" stroke="rgb(0,0,0)"  stroke-width="1.0"/>
<line x1="313.8" y1="77.5" x2="320.5" y2="77.5" stroke="rgb(0,0,0)"  stroke-width="1.0"/>
<line x1="313.1" y1="73.2" x2="321.1" y2="73.2" stroke="rgb(0,0,0)"  stroke-width="1.0"/>
<line x1="282.5" y1="240.0" x2="247.8" y2="220.0" stroke="rgb(0,0,0)"  stroke-width="1.0"/>
<line x1="247.8" y1="220.0" x2="224.5" y2="233.5" stroke="rgb(0,0,0)"  stroke-width="1.0"/>
<line x1="201.9" y1="233.5" x2="178.6" y2="220.0" stroke="rgb(0,0,0)"  stroke-width="1.0"/>
<line x1="178.6" y1="220.0" x2="143.9" y2="240.0" stroke="rgb(0,0,0)"  stroke-width="1.0"/>
<line x1="143.9" y1="240.0" x2="109.3" y2="220.0" stroke="rgb(0,0,0)"  stroke-width="1.0"/>
<line x1="109.3" y1="220.0" x2="74.6" y2="240.0" stroke="rgb(0,0,0)"  stroke-width="1.0"/>
<line x1="74.6" y1="240.0" x2="51.3" y2="226.5" stroke="rgb(0,0,0)"  stroke-width="1.0"/>
<line x1="224.5" y1="46.5" x2="247.8" y2="60.0" stroke="rgb(0,0,0)"  stroke-width="1.0"/>
<line x1="214.7" y1="162.6" x2="191.3" y2="176.1" stroke="rgb(0,0,0)"  stroke-width="1.0"/>
<line x1="211.7" y1="157.4" x2="188.3" y2="170.9" stroke="rgb(0,0,0)"  stroke-width="1.0"/>
<line x1="214.0" y1="128.0" x2="212.4" y2="128.0" stroke="rgb(0,0,0)"  stroke-width="1.0"/>
<line x1="214.6" y1="134.4" x2="211.8" y2="134.4" stroke="rgb(0,0,0)"  stroke-width="1.0"/>
<line x1="215.3" y1="140.8" x2="211.1" y2="140.8" stroke="rgb(0,0,0)"  stroke-width="1.0"/>
<line x1="215.9" y1="147.2" x2="210.5" y2="147.2" stroke="rgb(0,0,0)"  stroke-width="1.0"/>
<line x1="216.6" y1="153.6" x2="209.8" y2="153.6" stroke="rgb(0,0,0)"  stroke-width="1.0"/>
<line x1="217.2" y1="160.0" x2="209.2" y2="160.0" stroke="rgb(0,0,0)"  stroke-width="1.0"/>
<line x1="213.2" y1="120.0" x2="189.8" y2="106.5" stroke="rgb(0,0,0)"  stroke-width="1.0"/>
<line x1="213.2" y1="120.0" x2="247.8" y2="100.0" stroke="rgb(0,0,0)"  stroke-width="1.0"/>
<line x1="247.8" y1="100.0" x2="247.8" y2="60.0" stroke="rgb(0,0,0)"  stroke-width="1.0"/>
<line x1="421.1" y1="120.0" x2="421.1" y2="147.0" stroke="rgb(0,0,0)"  stroke-width="1.0"/>
<line x1="432.3" y1="166.5" x2="455.7" y2="180.0" stroke="rgb(0,0,0)"  stroke-width="1.0"/>
<line x1="455.7" y1="180.0" x2="490.3" y2="160.0" stroke="rgb(0,0,0)"  stroke-width="1.0"/>
<line x1="490.3" y1="160.0" x2="490.3" y2="120.0" stroke="rgb(0,0,0)"  stroke-width="1.0"/>
<line x1="490.3" y1="120.0" x2="455.7" y2="100.0" stroke="rgb(0,0,0)"  stroke-width="1.0"/>
<line x1="455.7" y1="100.0" x2="421.1" y2="120.0" stroke="rgb(0,0,0)"  stroke-width="1.0"/>
<line x1="317.1" y1="180.0" x2="282.5" y2="160.0" stroke="rgb(0,0,0)"  stroke-width="1.0"/>
<line x1="282.5" y1="160.0" x2="282.5" y2="120.0" stroke="rgb(0,0,0)"  stroke-width="1.0"/>
<line x1="282.5" y1="120.0" x2="317.1" y2="100.0" stroke="rgb(0,0,0)"  stroke-width="1.0"/>
<line x1="317.1" y1="100.0" x2="351.8" y2="120.0" stroke="rgb(0,0,0)"  stroke-width="1.0"/>
<line x1="351.8" y1="120.0" x2="351.8" y2="160.0" stroke="rgb(0,0,0)"  stroke-width="1.0"/>
<line x1="351.8" y1="160.0" x2="317.1" y2="180.0" stroke="rgb(0,0,0)"  stroke-width="1.0"/>
<text x="380.410162" y="108.000000" fill="rgb(255,12,12)"  stroke="rgb(255,12,12)" stroke-width="1" font-size="16" >O</text>
<text x="451.692194" y="68.000000" fill="rgb(12,12,255)"  stroke="rgb(12,12,255)" stroke-width="1" font-size="16" >NH</text>
<text x="475.692194" y="71.680000" fill="rgb(12,12,255)"  stroke="rgb(12,12,255)" stroke-width="1" font-size="13" >2</text>
<text x="518.974226" y="108.000000" fill="rgb(255,12,12)"  stroke="rgb(255,12,12)" stroke-width="1" font-size="16" >OH</text>
<text x="518.974226" y="188.000000" fill="rgb(255,12,12)"  stroke="rgb(255,12,12)" stroke-width="1" font-size="16" >OH</text>
<text x="415.051178" y="168.000000" fill="rgb(255,12,12)"  stroke="rgb(255,12,12)" stroke-width="1" font-size="16" >O</text>
<text x="395.051178" y="248.000000" fill="rgb(12,12,255)"  stroke="rgb(12,12,255)" stroke-width="1" font-size="16" >H</text>
<text x="407.051178" y="251.680000" fill="rgb(12,12,255)"  stroke="rgb(12,12,255)" stroke-width="1" font-size="13" >2</text>
<text x="413.551178" y="248.000000" fill="rgb(12,12,255)"  stroke="rgb(12,12,255)" stroke-width="1" font-size="16" >N</text>
<text x="241.846097" y="188.000000" fill="rgb(12,12,255)"  stroke="rgb(12,12,255)" stroke-width="1" font-size="16" >N</text>
<text x="241.846097" y="204.000000" fill="rgb(12,12,255)"  stroke="rgb(12,12,255)" stroke-width="1" font-size="16" >H</text>
<text x="311.128129" y="228.000000" fill="rgb(255,12,12)"  stroke="rgb(255,12,12)" stroke-width="1" font-size="16" >O</text>
<text x="380.410162" y="188.000000" fill="rgb(255,12,12)"  stroke="rgb(255,12,12)" stroke-width="1" font-size="16" >OH</text>
<text x="313.128129" y="68.000000" fill="rgb(12,12,255)"  stroke="rgb(12,12,255)" stroke-width="1" font-size="16" >NH</text>
<text x="337.128129" y="71.680000" fill="rgb(12,12,255)"  stroke="rgb(12,12,255)" stroke-width="1" font-size="13" >2</text>
<text x="207.205081" y="248.000000" fill="rgb(12,12,255)"  stroke="rgb(12,12,255)" stroke-width="1" font-size="16" >N</text>
<text x="207.205081" y="264.000000" fill="rgb(12,12,255)"  stroke="rgb(12,12,255)" stroke-width="1" font-size="16" >H</text>
<text x="14.000000" y="228.000000" fill="rgb(12,12,255)"  stroke="rgb(12,12,255)" stroke-width="1" font-size="16" >H</text>
<text x="26.000000" y="231.680000" fill="rgb(12,12,255)"  stroke="rgb(12,12,255)" stroke-width="1" font-size="13" >2</text>
<text x="32.500000" y="228.000000" fill="rgb(12,12,255)"  stroke="rgb(12,12,255)" stroke-width="1" font-size="16" >N</text>
<text x="187.205081" y="48.000000" fill="rgb(12,12,255)"  stroke="rgb(12,12,255)" stroke-width="1" font-size="16" >H</text>
<text x="199.205081" y="51.680000" fill="rgb(12,12,255)"  stroke="rgb(12,12,255)" stroke-width="1" font-size="13" >2</text>
<text x="205.705081" y="48.000000" fill="rgb(12,12,255)"  stroke="rgb(12,12,255)" stroke-width="1" font-size="16" >N</text>
<text x="172.564065" y="188.000000" fill="rgb(255,12,12)"  stroke="rgb(255,12,12)" stroke-width="1" font-size="16" >O</text>
<text x="160.564065" y="108.000000" fill="rgb(255,12,12)"  stroke="rgb(255,12,12)" stroke-width="1" font-size="16" >HO</text>
<text font-size="18.000000" fill ="black" font-family="sans-serif"
x="10.000000" y="20.000000" >1o9m_lig</text>
<title>1o9m_lig - OBDepict</title>
</svg>
