<?xml version="1.0"?>
<svg xmlns="http://www.w3.org/2000/svg"
xmlns:xlink="http://www.w3.org/1999/xlink" xmlns:cml="http://www.xml-cml.org/schema" width="525.418" height="263.307" x="0" y="0" font-family="sans-serif" stroke="rgb(0,0,0)" stroke-width="1"  stroke-linecap="round">
<rect x="0%" y="0%" width="100%" height="100%" stroke-width="0" fill="rgb(255,255,255)"  />
<line x1="404.9" y1="216.8" x2="381.5" y2="203.3" stroke="rgb(0,0,0)"  stroke-width="1.0"/>
<line x1="346.9" y1="223.3" x2="312.2" y2="203.3" stroke="rgb(0,0,0)"  stroke-width="1.0"/>
<line x1="277.6" y1="143.3" x2="301.0" y2="156.8" stroke="rgb(0,0,0)"  stroke-width="1.0"/>
<line x1="312.2" y1="203.3" x2="288.8" y2="216.8" stroke="rgb(0,0,0)"  stroke-width="1.0"/>
<line x1="381.5" y1="203.3" x2="346.9" y2="223.3" stroke="rgb(0,0,0)"  stroke-width="1.0"/>
<line x1="323.5" y1="156.8" x2="346.9" y2="143.3" stroke="rgb(0,0,0)"  stroke-width="1.0"/>
<line x1="346.9" y1="143.3" x2="381.5" y2="163.3" stroke="rgb(0,0,0)"  stroke-width="1.0"/>
<line x1="381.5" y1="163.3" x2="404.9" y2="149.8" stroke="rgb(0,0,0)"  stroke-width="1.0"/>
<line x1="173.6" y1="163.3" x2="139.0" y2="143.3" stroke="rgb(0,0,0)"  stroke-width="1.0"/>
<line x1="242.9" y1="163.3" x2="277.6" y2="143.3" stroke="rgb(0,0,0)"  stroke-width="1.0"/>
<line x1="242.9" y1="203.3" x2="266.3" y2="216.8" stroke="rgb(0,0,0)"  stroke-width="1.0"/>
<line x1="96.1" y1="44.2" x2="104.4" y2="83.3" stroke="rgb(0,0,0)"  stroke-width="1.0"/>
<line x1="104.4" y1="83.3" x2="69.7" y2="103.3" stroke="rgb(0,0,0)"  stroke-width="1.0"/>
<line x1="95.6" y1="80.1" x2="71.3" y2="94.1" stroke="rgb(0,0,0)"  stroke-width="1.0"/>
<line x1="69.7" y1="103.3" x2="49.7" y2="85.2" stroke="rgb(0,0,0)"  stroke-width="1.0"/>
<line x1="45.3" y1="64.7" x2="56.3" y2="40.0" stroke="rgb(0,0,0)"  stroke-width="1.0"/>
<line x1="56.3" y1="40.0" x2="96.1" y2="44.2" stroke="rgb(0,0,0)"  stroke-width="1.0"/>
<line x1="61.5" y1="47.8" x2="89.3" y2="50.7" stroke="rgb(0,0,0)"  stroke-width="1.0"/>
<line x1="416.1" y1="130.3" x2="416.1" y2="103.3" stroke="rgb(0,0,0)"  stroke-width="1.0"/>
<line x1="416.1" y1="103.3" x2="450.8" y2="83.3" stroke="rgb(0,0,0)"  stroke-width="1.0"/>
<line x1="450.8" y1="83.3" x2="474.2" y2="96.8" stroke="rgb(0,0,0)"  stroke-width="1.0"/>
<line x1="485.4" y1="116.3" x2="485.4" y2="143.3" stroke="rgb(0,0,0)"  stroke-width="1.0"/>
<line x1="485.4" y1="143.3" x2="450.8" y2="163.3" stroke="rgb(0,0,0)"  stroke-width="1.0"/>
<line x1="450.8" y1="163.3" x2="427.4" y2="149.8" stroke="rgb(0,0,0)"  stroke-width="1.0"/>
<line x1="208.3" y1="143.3" x2="242.9" y2="163.3" stroke="rgb(0,0,0)"  stroke-width="1.0"/>
<line x1="209.9" y1="152.5" x2="234.1" y2="166.5" stroke="rgb(0,0,0)"  stroke-width="1.0"/>
<line x1="242.9" y1="163.3" x2="242.9" y2="203.3" stroke="rgb(0,0,0)"  stroke-width="1.0"/>
<line x1="242.9" y1="203.3" x2="208.3" y2="223.3" stroke="rgb(0,0,0)"  stroke-width="1.0"/>
<line x1="234.1" y1="200.1" x2="209.9" y2="214.1" stroke="rgb(0,0,0)"  stroke-width="1.0"/>
<line x1="208.3" y1="223.3" x2="173.6" y2="203.3" stroke="rgb(0,0,0)"  stroke-width="1.0"/>
<line x1="173.6" y1="203.3" x2="173.6" y2="163.3" stroke="rgb(0,0,0)"  stroke-width="1.0"/>
<line x1="180.8" y1="197.3" x2="180.8" y2="169.3" stroke="rgb(0,0,0)"  stroke-width="1.0"/>
<line x1="173.6" y1="163.3" x2="208.3" y2="143.3" stroke="rgb(0,0,0)"  stroke-width="1.0"/>
<line x1="104.4" y1="163.3" x2="69.7" y2="143.3" stroke="rgb(0,0,0)"  stroke-width="1.0"/>
<line x1="102.8" y1="154.1" x2="78.5" y2="140.1" stroke="rgb(0,0,0)"  stroke-width="1.0"/>
<line x1="69.7" y1="143.3" x2="69.7" y2="103.3" stroke="rgb(0,0,0)"  stroke-width="1.0"/>
<line x1="104.4" y1="83.3" x2="139.0" y2="103.3" stroke="rgb(0,0,0)"  stroke-width="1.0"/>
<line x1="139.0" y1="103.3" x2="139.0" y2="143.3" stroke="rgb(0,0,0)"  stroke-width="1.0"/>
<line x1="131.8" y1="109.3" x2="131.8" y2="137.3" stroke="rgb(0,0,0)"  stroke-width="1.0"/>
<line x1="139.0" y1="143.3" x2="104.4" y2="163.3" stroke="rgb(0,0,0)"  stroke-width="1.0"/>
<text x="412.135955" y="231.307043" fill="rgb(12,12,255)"  stroke="rgb(12,12,255)" stroke-width="1" font-size="16" >NH</text>
<text x="436.135955" y="234.987043" fill="rgb(12,12,255)"  stroke="rgb(12,12,255)" stroke-width="1" font-size="13" >2</text>
<text x="271.571890" y="231.307043" fill="rgb(255,12,12)"  stroke="rgb(255,12,12)" stroke-width="1" font-size="16" >O</text>
<text x="306.212906" y="171.307043" fill="rgb(12,12,255)"  stroke="rgb(12,12,255)" stroke-width="1" font-size="16" >N</text>
<text x="306.212906" y="187.307043" fill="rgb(12,12,255)"  stroke="rgb(12,12,255)" stroke-width="1" font-size="16" >H</text>
<text x="410.135955" y="151.307043" fill="rgb(12,12,255)"  stroke="rgb(12,12,255)" stroke-width="1" font-size="16" >N</text>
<text x="479.417987" y="111.307043" fill="rgb(12,12,255)"  stroke="rgb(12,12,255)" stroke-width="1" font-size="16" >NH</text>
<text x="22.000000" y="84.541818" fill="rgb(12,12,255)"  stroke="rgb(12,12,255)" stroke-width="1" font-size="16" >HN</text>
<text font-size="18.000000" fill ="black" font-family="sans-serif"
x="10.000000" y="20.000000" ></text>
<title> - OBDepict</title>
</svg>
