<?xml version="1.0"?>
<svg xmlns="http://www.w3.org/2000/svg"
xmlns:xlink="http://www.w3.org/1999/xlink" xmlns:cml="http://www.xml-cml.org/schema" width="253.205" height="440" x="0" y="0" font-family="sans-serif" stroke="rgb(0,0,0)" stroke-width="1"  stroke-linecap="round">
<rect x="0%" y="0%" width="100%" height="100%" stroke-width="0" fill="rgb(255,255,255)"  />
<line x1="74.6" y1="260.0" x2="74.6" y2="220.0" stroke="rgb(0,0,0)"  stroke-width="1.0"/>
<line x1="74.6" y1="380.0" x2="74.6" y2="340.0" stroke="rgb(0,0,0)"  stroke-width="1.0"/>
<line x1="74.6" y1="380.0" x2="98.0" y2="393.5" stroke="rgb(0,0,0)"  stroke-width="1.0"/>
<line x1="49.8" y1="390.9" x2="73.1" y2="377.4" stroke="rgb(0,0,0)"  stroke-width="1.0"/>
<line x1="52.8" y1="396.1" x2="76.1" y2="382.6" stroke="rgb(0,0,0)"  stroke-width="1.0"/>
<line x1="99.5" y1="209.1" x2="76.1" y2="222.6" stroke="rgb(0,0,0)"  stroke-width="1.0"/>
<line x1="96.5" y1="203.9" x2="73.1" y2="217.4" stroke="rgb(0,0,0)"  stroke-width="1.0"/>
<line x1="74.6" y1="220.0" x2="51.3" y2="206.5" stroke="rgb(0,0,0)"  stroke-width="1.0"/>
<line x1="40.0" y1="187.0" x2="40.0" y2="160.0" stroke="rgb(0,0,0)"  stroke-width="1.0"/>
<line x1="143.9" y1="380.0" x2="120.5" y2="393.5" stroke="rgb(0,0,0)"  stroke-width="1.0"/>
<line x1="143.9" y1="380.0" x2="143.9" y2="340.0" stroke="rgb(0,0,0)"  stroke-width="1.0"/>
<line x1="40.0" y1="160.0" x2="74.6" y2="140.0" stroke="rgb(0,0,0)"  stroke-width="1.0"/>
<line x1="74.6" y1="140.0" x2="74.6" y2="100.0" stroke="rgb(0,0,0)"  stroke-width="1.0"/>
<line x1="178.6" y1="320.0" x2="143.9" y2="340.0" stroke="rgb(0,0,0)"  stroke-width="1.0"/>
<line x1="178.6" y1="320.0" x2="178.6" y2="293.0" stroke="rgb(0,0,0)"  stroke-width="1.0"/>
<line x1="74.6" y1="100.0" x2="98.0" y2="86.5" stroke="rgb(0,0,0)"  stroke-width="1.0"/>
<line x1="167.3" y1="273.5" x2="155.2" y2="266.5" stroke="rgb(0,0,0)"  stroke-width="1.0"/>
<line x1="120.5" y1="86.5" x2="132.7" y2="93.5" stroke="rgb(0,0,0)"  stroke-width="1.0"/>
<line x1="109.3" y1="67.0" x2="109.3" y2="53.0" stroke="rgb(0,0,0)"  stroke-width="1.0"/>
<line x1="201.9" y1="266.5" x2="189.8" y2="273.5" stroke="rgb(0,0,0)"  stroke-width="1.0"/>
<line x1="74.6" y1="340.0" x2="109.3" y2="320.0" stroke="rgb(0,0,0)"  stroke-width="1.0"/>
<line x1="109.3" y1="320.0" x2="109.3" y2="280.0" stroke="rgb(0,0,0)"  stroke-width="1.0"/>
<line x1="102.1" y1="314.0" x2="102.1" y2="286.0" stroke="rgb(0,0,0)"  stroke-width="1.0"/>
<line x1="109.3" y1="280.0" x2="74.6" y2="260.0" stroke="rgb(0,0,0)"  stroke-width="1.0"/>
<line x1="74.6" y1="260.0" x2="40.0" y2="280.0" stroke="rgb(0,0,0)"  stroke-width="1.0"/>
<line x1="73.0" y1="269.2" x2="48.8" y2="283.2" stroke="rgb(0,0,0)"  stroke-width="1.0"/>
<line x1="40.0" y1="280.0" x2="40.0" y2="320.0" stroke="rgb(0,0,0)"  stroke-width="1.0"/>
<line x1="40.0" y1="320.0" x2="74.6" y2="340.0" stroke="rgb(0,0,0)"  stroke-width="1.0"/>
<line x1="48.8" y1="316.8" x2="73.0" y2="330.8" stroke="rgb(0,0,0)"  stroke-width="1.0"/>
<text x="22.000000" y="408.000000" fill="rgb(12,12,255)"  stroke="rgb(12,12,255)" stroke-width="1" font-size="16" >HN</text>
<text x="103.282032" y="208.000000" fill="rgb(12,12,255)"  stroke="rgb(12,12,255)" stroke-width="1" font-size="16" >NH</text>
<text x="103.282032" y="408.000000" fill="rgb(12,12,255)"  stroke="rgb(12,12,255)" stroke-width="1" font-size="16" >N</text>
<text x="103.282032" y="424.000000" fill="rgb(12,12,255)"  stroke="rgb(12,12,255)" stroke-width="1" font-size="16" >H</text>
<text x="22.000000" y="208.000000" fill="rgb(12,12,255)"  stroke="rgb(12,12,255)" stroke-width="1" font-size="16" >HN</text>
<text x="172.564065" y="288.000000" fill="rgb(12,12,255)"  stroke="rgb(12,12,255)" stroke-width="1" font-size="16" >N</text>
<text x="103.282032" y="88.000000" fill="rgb(12,12,255)"  stroke="rgb(12,12,255)" stroke-width="1" font-size="16" >N</text>
<text x="209.205081" y="268.000000" fill="rgb(102,102,102)"  stroke="rgb(102,102,102)" stroke-width="1" font-size="16" >CH</text>
<text x="233.205081" y="271.680000" fill="rgb(102,102,102)"  stroke="rgb(102,102,102)" stroke-width="1" font-size="13" >3</text>
<text x="139.923048" y="108.000000" fill="rgb(102,102,102)"  stroke="rgb(102,102,102)" stroke-width="1" font-size="16" >CH</text>
<text x="163.923048" y="111.680000" fill="rgb(102,102,102)"  stroke="rgb(102,102,102)" stroke-width="1" font-size="13" >3</text>
<text x="117.923048" y="268.000000" fill="rgb(102,102,102)"  stroke="rgb(102,102,102)" stroke-width="1" font-size="16" >H</text>
<text x="129.923048" y="271.680000" fill="rgb(102,102,102)"  stroke="rgb(102,102,102)" stroke-width="1" font-size="13" >3</text>
<text x="136.423048" y="268.000000" fill="rgb(102,102,102)"  stroke="rgb(102,102,102)" stroke-width="1" font-size="16" >C</text>
<text x="105.282032" y="48.000000" fill="rgb(102,102,102)"  stroke="rgb(102,102,102)" stroke-width="1" font-size="16" >CH</text>
<text x="129.282032" y="51.680000" fill="rgb(102,102,102)"  stroke="rgb(102,102,102)" stroke-width="1" font-size="13" >3</text>
<text font-size="18.000000" fill ="black" font-family="sans-serif"
x="10.000000" y="20.000000" ></text>
<title> - OBDepict</title>
</svg>
