<?xml version="1.0"?>
<svg xmlns="http://www.w3.org/2000/svg"
xmlns:xlink="http://www.w3.org/1999/xlink" xmlns:cml="http://www.xml-cml.org/schema" width="424.959" height="190.005" x="0" y="0" font-family="sans-serif" stroke="rgb(0,0,0)" stroke-width="1"  stroke-linecap="round">
<rect x="0%" y="0%" width="100%" height="100%" stroke-width="0" fill="rgb(255,255,255)"  />
<line x1="52.8" y1="92.0" x2="76.1" y2="105.5" stroke="rgb(0,0,0)"  stroke-width="1.0"/>
<line x1="49.8" y1="97.2" x2="73.1" y2="110.7" stroke="rgb(0,0,0)"  stroke-width="1.0"/>
<line x1="74.6" y1="108.1" x2="109.3" y2="88.1" stroke="rgb(0,0,0)"  stroke-width="1.0"/>
<line x1="74.6" y1="108.1" x2="74.6" y2="135.1" stroke="rgb(0,0,0)"  stroke-width="1.0"/>
<line x1="151.4" y1="130.8" x2="145.8" y2="104.4" stroke="rgb(0,0,0)"  stroke-width="1.0"/>
<line x1="207.0" y1="79.1" x2="207.1" y2="77.5" stroke="rgb(0,0,0)"  stroke-width="1.0"/>
<line x1="202.6" y1="79.2" x2="202.9" y2="76.4" stroke="rgb(0,0,0)"  stroke-width="1.0"/>
<line x1="198.3" y1="79.4" x2="198.7" y2="75.3" stroke="rgb(0,0,0)"  stroke-width="1.0"/>
<line x1="194.0" y1="79.6" x2="194.5" y2="74.2" stroke="rgb(0,0,0)"  stroke-width="1.0"/>
<line x1="189.6" y1="79.8" x2="190.3" y2="73.1" stroke="rgb(0,0,0)"  stroke-width="1.0"/>
<line x1="185.3" y1="80.0" x2="186.1" y2="72.0" stroke="rgb(0,0,0)"  stroke-width="1.0"/>
<polygon points="232.369951 113.463171 225.123590 139.573136 217.815227 136.319243 " stroke-width="1.000000" fill="rgb(0,0,0)"  stroke="rgb(0,0,0)" />
<polygon points="271.495855 105.146703 294.088658 120.106824 288.735614 126.051983 " stroke-width="1.000000" fill="rgb(0,0,0)"  stroke="rgb(0,0,0)" />
<line x1="282.2" y1="60.7" x2="283.0" y2="62.1" stroke="rgb(0,0,0)"  stroke-width="1.0"/>
<line x1="287.4" y1="56.9" x2="288.9" y2="59.4" stroke="rgb(0,0,0)"  stroke-width="1.0"/>
<line x1="292.7" y1="53.2" x2="294.7" y2="56.8" stroke="rgb(0,0,0)"  stroke-width="1.0"/>
<line x1="297.9" y1="49.4" x2="300.6" y2="54.1" stroke="rgb(0,0,0)"  stroke-width="1.0"/>
<line x1="303.1" y1="45.7" x2="306.5" y2="51.5" stroke="rgb(0,0,0)"  stroke-width="1.0"/>
<line x1="308.3" y1="41.9" x2="312.3" y2="48.8" stroke="rgb(0,0,0)"  stroke-width="1.0"/>
<line x1="310.3" y1="45.4" x2="333.7" y2="58.9" stroke="rgb(0,0,0)"  stroke-width="1.0"/>
<line x1="345.0" y1="78.4" x2="345.0" y2="92.4" stroke="rgb(0,0,0)"  stroke-width="1.0"/>
<line x1="345.0" y1="118.4" x2="345.0" y2="132.4" stroke="rgb(0,0,0)"  stroke-width="1.0"/>
<line x1="332.0" y1="105.4" x2="318.0" y2="105.4" stroke="rgb(0,0,0)"  stroke-width="1.0"/>
<line x1="372.0" y1="108.4" x2="358.0" y2="108.4" stroke="rgb(0,0,0)"  stroke-width="1.0"/>
<line x1="372.0" y1="102.4" x2="358.0" y2="102.4" stroke="rgb(0,0,0)"  stroke-width="1.0"/>
<line x1="109.3" y1="88.1" x2="145.8" y2="104.4" stroke="rgb(0,0,0)"  stroke-width="1.0"/>
<line x1="117.7" y1="84.0" x2="143.3" y2="95.3" stroke="rgb(0,0,0)"  stroke-width="1.0"/>
<line x1="145.8" y1="104.4" x2="163.9" y2="84.3" stroke="rgb(0,0,0)"  stroke-width="1.0"/>
<line x1="166.1" y1="63.4" x2="152.6" y2="40.0" stroke="rgb(0,0,0)"  stroke-width="1.0"/>
<line x1="152.6" y1="40.0" x2="126.4" y2="45.6" stroke="rgb(0,0,0)"  stroke-width="1.0"/>
<line x1="148.2" y1="48.3" x2="129.8" y2="52.2" stroke="rgb(0,0,0)"  stroke-width="1.0"/>
<line x1="112.1" y1="61.2" x2="109.3" y2="88.1" stroke="rgb(0,0,0)"  stroke-width="1.0"/>
<line x1="212.4" y1="78.8" x2="230.4" y2="58.8" stroke="rgb(0,0,0)"  stroke-width="1.0"/>
<line x1="251.0" y1="54.4" x2="275.7" y2="65.4" stroke="rgb(0,0,0)"  stroke-width="1.0"/>
<line x1="275.7" y1="65.4" x2="271.5" y2="105.1" stroke="rgb(0,0,0)"  stroke-width="1.0"/>
<line x1="271.5" y1="105.1" x2="232.4" y2="113.5" stroke="rgb(0,0,0)"  stroke-width="1.0"/>
<line x1="232.4" y1="113.5" x2="212.4" y2="78.8" stroke="rgb(0,0,0)"  stroke-width="1.0"/>
<text x="34.000000" y="96.097343" fill="rgb(255,12,12)"  stroke="rgb(255,12,12)" stroke-width="1" font-size="16" >O</text>
<text x="70.641016" y="156.097343" fill="rgb(12,12,255)"  stroke="rgb(12,12,255)" stroke-width="1" font-size="16" >NH</text>
<text x="94.641016" y="159.777343" fill="rgb(12,12,255)"  stroke="rgb(12,12,255)" stroke-width="1" font-size="13" >2</text>
<text x="150.140318" y="151.492713" fill="rgb(12,12,255)"  stroke="rgb(12,12,255)" stroke-width="1" font-size="16" >NH</text>
<text x="174.140318" y="155.172713" fill="rgb(12,12,255)"  stroke="rgb(12,12,255)" stroke-width="1" font-size="13" >2</text>
<text x="107.463171" y="56.316468" fill="rgb(12,12,255)"  stroke="rgb(12,12,255)" stroke-width="1" font-size="16" >N</text>
<text x="166.589075" y="82.641016" fill="rgb(12,12,255)"  stroke="rgb(12,12,255)" stroke-width="1" font-size="16" >N</text>
<text x="295.221648" y="139.911927" fill="rgb(255,12,12)"  stroke="rgb(255,12,12)" stroke-width="1" font-size="16" >OH</text>
<text x="198.100485" y="158.004989" fill="rgb(255,12,12)"  stroke="rgb(255,12,12)" stroke-width="1" font-size="16" >HO</text>
<text x="233.135175" y="57.096362" fill="rgb(255,12,12)"  stroke="rgb(255,12,12)" stroke-width="1" font-size="16" >O</text>
<text x="338.959026" y="73.365827" fill="rgb(255,12,12)"  stroke="rgb(255,12,12)" stroke-width="1" font-size="16" >O</text>
<text x="338.959026" y="113.365827" fill="rgb(255,127,0)"  stroke="rgb(255,127,0)" stroke-width="1" font-size="16" >P</text>
<text x="286.959026" y="113.365827" fill="rgb(255,12,12)"  stroke="rgb(255,12,12)" stroke-width="1" font-size="16" >HO</text>
<text x="338.959026" y="153.365827" fill="rgb(255,12,12)"  stroke="rgb(255,12,12)" stroke-width="1" font-size="16" >OH</text>
<text x="378.959026" y="113.365827" fill="rgb(255,12,12)"  stroke="rgb(255,12,12)" stroke-width="1" font-size="16" >O</text>
<text font-size="18.000000" fill ="black" font-family="sans-serif"
x="10.000000" y="20.000000" ></text>
<title> - OBDepict</title>
</svg>
