<?xml version="1.0"?>
<svg xmlns="http://www.w3.org/2000/svg"
xmlns:xlink="http://www.w3.org/1999/xlink" xmlns:cml="http://www.xml-cml.org/schema" width="466.416" height="378.718" x="0" y="0" font-family="sans-serif" stroke="rgb(0,0,0)" stroke-width="1"  stroke-linecap="round">
<rect x="0%" y="0%" width="100%" height="100%" stroke-width="0" fill="rgb(255,255,255)"  />
<polygon points="173.2 298.718 186.8 294.718 186.8 302.718 " stroke-width="1" fill="rgb(0,0,0)"  stroke="rgb(0,0,0)" />
<line x1="163.0" y1="311.7" x2="163.0" y2="325.7" stroke="rgb(0,0,0)"  stroke-width="1.0"/>
<line x1="157.0" y1="311.7" x2="157.0" y2="325.7" stroke="rgb(0,0,0)"  stroke-width="1.0"/>
<line x1="147.0" y1="298.7" x2="133.0" y2="298.7" stroke="rgb(0,0,0)"  stroke-width="1.0"/>
<line x1="80.8" y1="314.6" x2="79.2" y2="314.6" stroke="rgb(0,0,0)"  stroke-width="1.0"/>
<line x1="81.4" y1="316.8" x2="78.6" y2="316.8" stroke="rgb(0,0,0)"  stroke-width="1.0"/>
<line x1="82.1" y1="319.0" x2="77.9" y2="319.0" stroke="rgb(0,0,0)"  stroke-width="1.0"/>
<line x1="82.7" y1="321.2" x2="77.3" y2="321.2" stroke="rgb(0,0,0)"  stroke-width="1.0"/>
<line x1="83.4" y1="323.3" x2="76.6" y2="323.3" stroke="rgb(0,0,0)"  stroke-width="1.0"/>
<line x1="84.0" y1="325.5" x2="76.0" y2="325.5" stroke="rgb(0,0,0)"  stroke-width="1.0"/>
<line x1="67.0" y1="298.7" x2="53.0" y2="298.7" stroke="rgb(0,0,0)"  stroke-width="1.0"/>
<line x1="77.0" y1="285.7" x2="77.0" y2="271.7" stroke="rgb(0,0,0)"  stroke-width="1.0"/>
<line x1="83.0" y1="285.7" x2="83.0" y2="271.7" stroke="rgb(0,0,0)"  stroke-width="1.0"/>
<line x1="332.4" y1="169.4" x2="305.5" y2="166.6" stroke="rgb(0,0,0)"  stroke-width="1.0"/>
<line x1="332.4" y1="169.4" x2="355.9" y2="137.1" stroke="rgb(0,0,0)"  stroke-width="1.0"/>
<line x1="339.6" y1="100.5" x2="312.8" y2="97.7" stroke="rgb(0,0,0)"  stroke-width="1.0"/>
<line x1="418.8" y1="50.5" x2="402.9" y2="72.4" stroke="rgb(0,0,0)"  stroke-width="1.0"/>
<line x1="93.0" y1="298.7" x2="107.0" y2="298.7" stroke="rgb(0,0,0)"  stroke-width="1.0"/>
<polygon points="265.823851 194.987374 275.308474 220.370083 267.483294 222.033376 " stroke-width="1.000000" fill="rgb(0,0,0)"  stroke="rgb(0,0,0)" />
<line x1="222.8" y1="183.4" x2="222.0" y2="182.0" stroke="rgb(0,0,0)"  stroke-width="1.0"/>
<line x1="217.5" y1="187.2" x2="216.1" y2="184.7" stroke="rgb(0,0,0)"  stroke-width="1.0"/>
<line x1="212.3" y1="190.9" x2="210.2" y2="187.3" stroke="rgb(0,0,0)"  stroke-width="1.0"/>
<line x1="207.1" y1="194.7" x2="204.4" y2="190.0" stroke="rgb(0,0,0)"  stroke-width="1.0"/>
<line x1="201.9" y1="198.4" x2="198.5" y2="192.6" stroke="rgb(0,0,0)"  stroke-width="1.0"/>
<line x1="196.6" y1="202.2" x2="192.6" y2="195.3" stroke="rgb(0,0,0)"  stroke-width="1.0"/>
<line x1="194.6" y1="198.7" x2="194.6" y2="238.7" stroke="rgb(0,0,0)"  stroke-width="1.0"/>
<line x1="194.6" y1="238.7" x2="171.3" y2="252.2" stroke="rgb(0,0,0)"  stroke-width="1.0"/>
<line x1="160.0" y1="285.7" x2="160.0" y2="271.7" stroke="rgb(0,0,0)"  stroke-width="1.0"/>
<line x1="272.6" y1="130.6" x2="246.2" y2="136.2" stroke="rgb(0,0,0)"  stroke-width="1.0"/>
<line x1="232.1" y1="151.9" x2="229.3" y2="178.7" stroke="rgb(0,0,0)"  stroke-width="1.0"/>
<line x1="229.3" y1="178.7" x2="265.8" y2="195.0" stroke="rgb(0,0,0)"  stroke-width="1.0"/>
<line x1="265.8" y1="195.0" x2="283.9" y2="174.9" stroke="rgb(0,0,0)"  stroke-width="1.0"/>
<line x1="286.1" y1="154.0" x2="272.6" y2="130.6" stroke="rgb(0,0,0)"  stroke-width="1.0"/>
<line x1="339.6" y1="100.5" x2="355.4" y2="78.9" stroke="rgb(0,0,0)"  stroke-width="1.0"/>
<line x1="349.0" y1="99.9" x2="360.0" y2="84.7" stroke="rgb(0,0,0)"  stroke-width="1.0"/>
<line x1="376.1" y1="69.5" x2="402.9" y2="72.4" stroke="rgb(0,0,0)"  stroke-width="1.0"/>
<line x1="402.9" y1="72.4" x2="413.8" y2="96.8" stroke="rgb(0,0,0)"  stroke-width="1.0"/>
<line x1="398.8" y1="80.8" x2="406.4" y2="97.9" stroke="rgb(0,0,0)"  stroke-width="1.0"/>
<line x1="411.5" y1="119.4" x2="395.7" y2="141.3" stroke="rgb(0,0,0)"  stroke-width="1.0"/>
<line x1="395.7" y1="141.3" x2="355.9" y2="137.1" stroke="rgb(0,0,0)"  stroke-width="1.0"/>
<line x1="390.4" y1="133.5" x2="362.6" y2="130.5" stroke="rgb(0,0,0)"  stroke-width="1.0"/>
<line x1="355.9" y1="137.1" x2="339.6" y2="100.5" stroke="rgb(0,0,0)"  stroke-width="1.0"/>
<text x="422.415591" y="48.000000" fill="rgb(102,102,102)"  stroke="rgb(102,102,102)" stroke-width="1" font-size="16" >CH</text>
<text x="446.415591" y="51.680000" fill="rgb(102,102,102)"  stroke="rgb(102,102,102)" stroke-width="1" font-size="13" >3</text>
<text x="270.140318" y="242.113278" fill="rgb(102,102,102)"  stroke="rgb(102,102,102)" stroke-width="1" font-size="16" >CH</text>
<text x="294.140318" y="245.793278" fill="rgb(102,102,102)"  stroke="rgb(102,102,102)" stroke-width="1" font-size="13" >3</text>
<text x="154.000000" y="306.717908" fill="rgb(255,127,0)"  stroke="rgb(255,127,0)" stroke-width="1" font-size="16" >P</text>
<text x="74.000000" y="306.717908" fill="rgb(255,127,0)"  stroke="rgb(255,127,0)" stroke-width="1" font-size="16" >P</text>
<text x="273.831019" y="104.359082" fill="rgb(12,12,255)"  stroke="rgb(12,12,255)" stroke-width="1" font-size="16" >H</text>
<text x="285.831019" y="108.039082" fill="rgb(12,12,255)"  stroke="rgb(12,12,255)" stroke-width="1" font-size="13" >2</text>
<text x="292.331019" y="104.359082" fill="rgb(12,12,255)"  stroke="rgb(12,12,255)" stroke-width="1" font-size="16" >N</text>
<text x="357.123305" y="76.179541" fill="rgb(12,12,255)"  stroke="rgb(12,12,255)" stroke-width="1" font-size="16" >N</text>
<text x="413.173647" y="116.902498" fill="rgb(12,12,255)"  stroke="rgb(12,12,255)" stroke-width="1" font-size="16" >N</text>
<text x="204.800000" y="294.685908" fill="rgb(255,12,12)"  stroke="rgb(255,12,12)" stroke-width="1" font-size="32" >-</text>
<text x="194.000000" y="306.717908" fill="rgb(255,12,12)"  stroke="rgb(255,12,12)" stroke-width="1" font-size="16" >O</text>
<text x="74.000000" y="346.717908" fill="rgb(255,12,12)"  stroke="rgb(255,12,12)" stroke-width="1" font-size="16" >OH</text>
<text x="227.463171" y="146.937032" fill="rgb(178,178,0)"  stroke="rgb(178,178,0)" stroke-width="1" font-size="16" >S</text>
<text x="154.000000" y="346.717908" fill="rgb(255,12,12)"  stroke="rgb(255,12,12)" stroke-width="1" font-size="16" >O</text>
<text x="44.800000" y="294.685908" fill="rgb(255,12,12)"  stroke="rgb(255,12,12)" stroke-width="1" font-size="32" >-</text>
<text x="34.000000" y="306.717908" fill="rgb(255,12,12)"  stroke="rgb(255,12,12)" stroke-width="1" font-size="16" >O</text>
<text x="286.589075" y="173.261581" fill="rgb(12,12,255)"  stroke="rgb(12,12,255)" stroke-width="1" font-size="16" >N</text>
<text x="114.000000" y="306.717908" fill="rgb(255,12,12)"  stroke="rgb(255,12,12)" stroke-width="1" font-size="16" >O</text>
<text x="74.000000" y="266.717908" fill="rgb(255,12,12)"  stroke="rgb(255,12,12)" stroke-width="1" font-size="16" >O</text>
<text x="154.000000" y="266.717908" fill="rgb(255,12,12)"  stroke="rgb(255,12,12)" stroke-width="1" font-size="16" >O</text>
<text font-size="18.000000" fill ="black" font-family="sans-serif"
x="10.000000" y="20.000000" ></text>
<title> - OBDepict</title>
</svg>
