<?xml version="1.0"?>
<svg xmlns="http://www.w3.org/2000/svg"
xmlns:xlink="http://www.w3.org/1999/xlink" xmlns:cml="http://www.xml-cml.org/schema" width="357.128" height="320" x="0" y="0" font-family="sans-serif" stroke="rgb(0,0,0)" stroke-width="1"  stroke-linecap="round">
<rect x="0%" y="0%" width="100%" height="100%" stroke-width="0" fill="rgb(255,255,255)"  />
<polygon points="247.846 160 251.846 186.8 243.846 186.8 " stroke-width="1" fill="rgb(0,0,0)"  stroke="rgb(0,0,0)" />
<polygon points="143.923 260 122.714 276.864 118.714 269.936 " stroke-width="1" fill="rgb(0,0,0)"  stroke="rgb(0,0,0)" />
<line x1="110.1" y1="165.4" x2="108.5" y2="165.4" stroke="rgb(0,0,0)"  stroke-width="1.0"/>
<line x1="110.7" y1="169.6" x2="107.8" y2="169.6" stroke="rgb(0,0,0)"  stroke-width="1.0"/>
<line x1="111.4" y1="173.9" x2="107.2" y2="173.9" stroke="rgb(0,0,0)"  stroke-width="1.0"/>
<line x1="112.0" y1="178.2" x2="106.6" y2="178.2" stroke="rgb(0,0,0)"  stroke-width="1.0"/>
<line x1="112.6" y1="182.5" x2="105.9" y2="182.5" stroke="rgb(0,0,0)"  stroke-width="1.0"/>
<line x1="113.3" y1="186.8" x2="105.3" y2="186.8" stroke="rgb(0,0,0)"  stroke-width="1.0"/>
<polygon points="282.487113 140.000000 307.696594 149.935898 303.696594 156.864102 " stroke-width="1.000000" fill="rgb(0,0,0)"  stroke="rgb(0,0,0)" />
<line x1="70.4" y1="143.4" x2="69.6" y2="142.0" stroke="rgb(0,0,0)"  stroke-width="1.0"/>
<line x1="67.0" y1="146.1" x2="65.6" y2="143.6" stroke="rgb(0,0,0)"  stroke-width="1.0"/>
<line x1="63.6" y1="148.8" x2="61.5" y2="145.2" stroke="rgb(0,0,0)"  stroke-width="1.0"/>
<line x1="60.2" y1="151.5" x2="57.5" y2="146.8" stroke="rgb(0,0,0)"  stroke-width="1.0"/>
<line x1="56.8" y1="154.2" x2="53.5" y2="148.3" stroke="rgb(0,0,0)"  stroke-width="1.0"/>
<line x1="53.4" y1="156.9" x2="49.4" y2="149.9" stroke="rgb(0,0,0)"  stroke-width="1.0"/>
<polygon points="213.205081 260.000000 238.414562 269.935898 234.414562 276.864102 " stroke-width="1.000000" fill="rgb(0,0,0)"  stroke="rgb(0,0,0)" />
<polygon points="74.641016 100.000000 49.431535 90.064102 53.431535 83.135898 " stroke-width="1.000000" fill="rgb(0,0,0)"  stroke="rgb(0,0,0)" />
<line x1="217.4" y1="216.6" x2="218.2" y2="218.0" stroke="rgb(0,0,0)"  stroke-width="1.0"/>
<line x1="220.8" y1="213.9" x2="222.3" y2="216.4" stroke="rgb(0,0,0)"  stroke-width="1.0"/>
<line x1="224.2" y1="211.2" x2="226.3" y2="214.8" stroke="rgb(0,0,0)"  stroke-width="1.0"/>
<line x1="227.6" y1="208.5" x2="230.3" y2="213.2" stroke="rgb(0,0,0)"  stroke-width="1.0"/>
<line x1="231.0" y1="205.8" x2="234.4" y2="211.7" stroke="rgb(0,0,0)"  stroke-width="1.0"/>
<line x1="234.4" y1="203.1" x2="238.4" y2="210.1" stroke="rgb(0,0,0)"  stroke-width="1.0"/>
<polygon points="109.282032 80.000000 119.217931 54.790519 126.146134 58.790519 " stroke-width="1.000000" fill="rgb(0,0,0)"  stroke="rgb(0,0,0)" />
<line x1="109.3" y1="80.0" x2="95.8" y2="56.6" stroke="rgb(0,0,0)"  stroke-width="1.0"/>
<line x1="205.9" y1="96.7" x2="206.7" y2="95.3" stroke="rgb(0,0,0)"  stroke-width="1.0"/>
<line x1="200.0" y1="94.0" x2="201.5" y2="91.6" stroke="rgb(0,0,0)"  stroke-width="1.0"/>
<line x1="194.2" y1="91.4" x2="196.2" y2="87.8" stroke="rgb(0,0,0)"  stroke-width="1.0"/>
<line x1="188.3" y1="88.8" x2="191.0" y2="84.0" stroke="rgb(0,0,0)"  stroke-width="1.0"/>
<line x1="182.4" y1="86.1" x2="185.8" y2="80.3" stroke="rgb(0,0,0)"  stroke-width="1.0"/>
<line x1="176.6" y1="83.5" x2="180.6" y2="76.5" stroke="rgb(0,0,0)"  stroke-width="1.0"/>
<polygon points="178.564065 200.000000 174.564065 173.200000 182.564065 173.200000 " stroke-width="1.000000" fill="rgb(0,0,0)"  stroke="rgb(0,0,0)" />
<line x1="178.6" y1="80.0" x2="178.6" y2="53.0" stroke="rgb(0,0,0)"  stroke-width="1.0"/>
<line x1="138.9" y1="218.0" x2="139.7" y2="216.6" stroke="rgb(0,0,0)"  stroke-width="1.0"/>
<line x1="134.8" y1="216.4" x2="136.3" y2="213.9" stroke="rgb(0,0,0)"  stroke-width="1.0"/>
<line x1="130.8" y1="214.8" x2="132.9" y2="211.2" stroke="rgb(0,0,0)"  stroke-width="1.0"/>
<line x1="126.8" y1="213.2" x2="129.5" y2="208.5" stroke="rgb(0,0,0)"  stroke-width="1.0"/>
<line x1="122.7" y1="211.7" x2="126.1" y2="205.8" stroke="rgb(0,0,0)"  stroke-width="1.0"/>
<line x1="118.7" y1="210.1" x2="122.7" y2="203.1" stroke="rgb(0,0,0)"  stroke-width="1.0"/>
<line x1="40.0" y1="67.0" x2="40.0" y2="53.0" stroke="rgb(0,0,0)"  stroke-width="1.0"/>
<line x1="178.6" y1="280.0" x2="143.9" y2="260.0" stroke="rgb(0,0,0)"  stroke-width="1.0"/>
<line x1="143.9" y1="260.0" x2="143.9" y2="220.0" stroke="rgb(0,0,0)"  stroke-width="1.0"/>
<line x1="143.9" y1="220.0" x2="178.6" y2="200.0" stroke="rgb(0,0,0)"  stroke-width="1.0"/>
<line x1="178.6" y1="200.0" x2="213.2" y2="220.0" stroke="rgb(0,0,0)"  stroke-width="1.0"/>
<line x1="213.2" y1="220.0" x2="213.2" y2="260.0" stroke="rgb(0,0,0)"  stroke-width="1.0"/>
<line x1="213.2" y1="260.0" x2="178.6" y2="280.0" stroke="rgb(0,0,0)"  stroke-width="1.0"/>
<line x1="247.8" y1="160.0" x2="282.5" y2="140.0" stroke="rgb(0,0,0)"  stroke-width="1.0"/>
<line x1="282.5" y1="140.0" x2="282.5" y2="100.0" stroke="rgb(0,0,0)"  stroke-width="1.0"/>
<line x1="282.5" y1="100.0" x2="247.8" y2="80.0" stroke="rgb(0,0,0)"  stroke-width="1.0"/>
<line x1="247.8" y1="80.0" x2="213.2" y2="100.0" stroke="rgb(0,0,0)"  stroke-width="1.0"/>
<line x1="213.2" y1="100.0" x2="213.2" y2="127.0" stroke="rgb(0,0,0)"  stroke-width="1.0"/>
<line x1="224.5" y1="146.5" x2="247.8" y2="160.0" stroke="rgb(0,0,0)"  stroke-width="1.0"/>
<line x1="109.3" y1="160.0" x2="74.6" y2="140.0" stroke="rgb(0,0,0)"  stroke-width="1.0"/>
<line x1="74.6" y1="140.0" x2="74.6" y2="100.0" stroke="rgb(0,0,0)"  stroke-width="1.0"/>
<line x1="74.6" y1="100.0" x2="109.3" y2="80.0" stroke="rgb(0,0,0)"  stroke-width="1.0"/>
<line x1="109.3" y1="80.0" x2="143.9" y2="100.0" stroke="rgb(0,0,0)"  stroke-width="1.0"/>
<line x1="143.9" y1="100.0" x2="143.9" y2="127.0" stroke="rgb(0,0,0)"  stroke-width="1.0"/>
<line x1="132.7" y1="146.5" x2="109.3" y2="160.0" stroke="rgb(0,0,0)"  stroke-width="1.0"/>
<text x="241.846097" y="208.000000" fill="rgb(255,12,12)"  stroke="rgb(255,12,12)" stroke-width="1" font-size="16" >O</text>
<text x="83.282032" y="288.000000" fill="rgb(12,12,255)"  stroke="rgb(12,12,255)" stroke-width="1" font-size="16" >H</text>
<text x="95.282032" y="291.680000" fill="rgb(12,12,255)"  stroke="rgb(12,12,255)" stroke-width="1" font-size="13" >2</text>
<text x="101.782032" y="288.000000" fill="rgb(12,12,255)"  stroke="rgb(12,12,255)" stroke-width="1" font-size="16" >N</text>
<text x="313.128129" y="168.000000" fill="rgb(12,12,255)"  stroke="rgb(12,12,255)" stroke-width="1" font-size="16" >NH</text>
<text x="337.128129" y="171.680000" fill="rgb(12,12,255)"  stroke="rgb(12,12,255)" stroke-width="1" font-size="13" >2</text>
<text x="22.000000" y="168.000000" fill="rgb(255,12,12)"  stroke="rgb(255,12,12)" stroke-width="1" font-size="16" >HO</text>
<text x="243.846097" y="288.000000" fill="rgb(12,12,255)"  stroke="rgb(12,12,255)" stroke-width="1" font-size="16" >NH</text>
<text x="267.846097" y="291.680000" fill="rgb(12,12,255)"  stroke="rgb(12,12,255)" stroke-width="1" font-size="13" >2</text>
<text x="22.000000" y="88.000000" fill="rgb(12,12,255)"  stroke="rgb(12,12,255)" stroke-width="1" font-size="16" >HN</text>
<text x="123.282032" y="53.358984" fill="rgb(255,12,12)"  stroke="rgb(255,12,12)" stroke-width="1" font-size="16" >OH</text>
<text x="207.205081" y="148.000000" fill="rgb(255,12,12)"  stroke="rgb(255,12,12)" stroke-width="1" font-size="16" >O</text>
<text x="172.564065" y="168.000000" fill="rgb(255,12,12)"  stroke="rgb(255,12,12)" stroke-width="1" font-size="16" >OH</text>
<text x="137.923048" y="148.000000" fill="rgb(255,12,12)"  stroke="rgb(255,12,12)" stroke-width="1" font-size="16" >O</text>
<text x="174.564065" y="48.000000" fill="rgb(12,12,255)"  stroke="rgb(12,12,255)" stroke-width="1" font-size="16" >NH</text>
<text x="198.564065" y="51.680000" fill="rgb(12,12,255)"  stroke="rgb(12,12,255)" stroke-width="1" font-size="13" >2</text>
<text x="103.282032" y="208.000000" fill="rgb(255,12,12)"  stroke="rgb(255,12,12)" stroke-width="1" font-size="16" >O</text>
<text x="63.282032" y="53.358984" fill="rgb(102,102,102)"  stroke="rgb(102,102,102)" stroke-width="1" font-size="16" >H</text>
<text x="75.282032" y="57.038984" fill="rgb(102,102,102)"  stroke="rgb(102,102,102)" stroke-width="1" font-size="13" >3</text>
<text x="81.782032" y="53.358984" fill="rgb(102,102,102)"  stroke="rgb(102,102,102)" stroke-width="1" font-size="16" >C</text>
<text x="36.000000" y="48.000000" fill="rgb(102,102,102)"  stroke="rgb(102,102,102)" stroke-width="1" font-size="16" >CH</text>
<text x="60.000000" y="51.680000" fill="rgb(102,102,102)"  stroke="rgb(102,102,102)" stroke-width="1" font-size="13" >3</text>
<text font-size="18.000000" fill ="black" font-family="sans-serif"
x="10.000000" y="20.000000" ></text>
<title> - OBDepict</title>
</svg>
