<?xml version="1.0"?>
<svg xmlns="http://www.w3.org/2000/svg"
xmlns:xlink="http://www.w3.org/1999/xlink" xmlns:cml="http://www.xml-cml.org/schema" width="449.086" height="364.639" x="0" y="0" font-family="sans-serif" stroke="rgb(0,0,0)" stroke-width="1"  stroke-linecap="round">
<rect x="0%" y="0%" width="100%" height="100%" stroke-width="0" fill="rgb(255,255,255)"  />
<line x1="63.5" y1="249.3" x2="47.6" y2="271.1" stroke="rgb(0,0,0)"  stroke-width="1.0"/>
<polygon points="103.292286 253.456327 63.093296 253.253276 63.929524 245.297101 " stroke-width="1.000000" fill="rgb(0,0,0)"  stroke="rgb(0,0,0)" />
<polygon points="166.599328 240.000000 187.808809 223.135898 191.808809 230.064102 " stroke-width="1.000000" fill="rgb(0,0,0)"  stroke="rgb(0,0,0)" />
<line x1="202.0" y1="185.4" x2="200.4" y2="185.4" stroke="rgb(0,0,0)"  stroke-width="1.0"/>
<line x1="202.7" y1="189.6" x2="199.8" y2="189.6" stroke="rgb(0,0,0)"  stroke-width="1.0"/>
<line x1="203.3" y1="193.9" x2="199.2" y2="193.9" stroke="rgb(0,0,0)"  stroke-width="1.0"/>
<line x1="204.0" y1="198.2" x2="198.5" y2="198.2" stroke="rgb(0,0,0)"  stroke-width="1.0"/>
<line x1="204.6" y1="202.5" x2="197.9" y2="202.5" stroke="rgb(0,0,0)"  stroke-width="1.0"/>
<line x1="205.2" y1="206.8" x2="197.2" y2="206.8" stroke="rgb(0,0,0)"  stroke-width="1.0"/>
<polygon points="166.599328 160.000000 145.389848 176.864102 141.389848 169.935898 " stroke-width="1.000000" fill="rgb(0,0,0)"  stroke="rgb(0,0,0)" />
<line x1="161.6" y1="118.0" x2="162.4" y2="116.6" stroke="rgb(0,0,0)"  stroke-width="1.0"/>
<line x1="157.5" y1="116.4" x2="159.0" y2="113.9" stroke="rgb(0,0,0)"  stroke-width="1.0"/>
<line x1="153.5" y1="114.8" x2="155.6" y2="111.2" stroke="rgb(0,0,0)"  stroke-width="1.0"/>
<line x1="149.5" y1="113.2" x2="152.2" y2="108.5" stroke="rgb(0,0,0)"  stroke-width="1.0"/>
<line x1="145.4" y1="111.7" x2="148.8" y2="105.8" stroke="rgb(0,0,0)"  stroke-width="1.0"/>
<line x1="141.4" y1="110.1" x2="145.4" y2="103.1" stroke="rgb(0,0,0)"  stroke-width="1.0"/>
<line x1="240.1" y1="116.6" x2="240.9" y2="118.0" stroke="rgb(0,0,0)"  stroke-width="1.0"/>
<line x1="243.5" y1="113.9" x2="245.0" y2="116.4" stroke="rgb(0,0,0)"  stroke-width="1.0"/>
<line x1="246.9" y1="111.2" x2="249.0" y2="114.8" stroke="rgb(0,0,0)"  stroke-width="1.0"/>
<line x1="250.3" y1="108.5" x2="253.0" y2="113.2" stroke="rgb(0,0,0)"  stroke-width="1.0"/>
<line x1="253.7" y1="105.8" x2="257.1" y2="111.7" stroke="rgb(0,0,0)"  stroke-width="1.0"/>
<line x1="257.1" y1="103.1" x2="261.1" y2="110.1" stroke="rgb(0,0,0)"  stroke-width="1.0"/>
<polygon points="235.881361 160.000000 261.090842 169.935898 257.090842 176.864102 " stroke-width="1.000000" fill="rgb(0,0,0)"  stroke="rgb(0,0,0)" />
<polygon points="305.163393 160.000000 283.953912 176.864102 279.953912 169.935898 " stroke-width="1.000000" fill="rgb(0,0,0)"  stroke="rgb(0,0,0)" />
<line x1="339.0" y1="92.0" x2="340.6" y2="92.0" stroke="rgb(0,0,0)"  stroke-width="1.0"/>
<line x1="338.4" y1="85.6" x2="341.2" y2="85.6" stroke="rgb(0,0,0)"  stroke-width="1.0"/>
<line x1="337.7" y1="79.2" x2="341.9" y2="79.2" stroke="rgb(0,0,0)"  stroke-width="1.0"/>
<line x1="337.1" y1="72.8" x2="342.5" y2="72.8" stroke="rgb(0,0,0)"  stroke-width="1.0"/>
<line x1="336.4" y1="66.4" x2="343.2" y2="66.4" stroke="rgb(0,0,0)"  stroke-width="1.0"/>
<line x1="335.8" y1="60.0" x2="343.8" y2="60.0" stroke="rgb(0,0,0)"  stroke-width="1.0"/>
<line x1="339.8" y1="60.0" x2="316.4" y2="46.5" stroke="rgb(0,0,0)"  stroke-width="1.0"/>
<polygon points="374.445425 120.000000 395.654906 103.135898 399.654906 110.064102 " stroke-width="1.000000" fill="rgb(0,0,0)"  stroke="rgb(0,0,0)" />
<line x1="379.5" y1="162.0" x2="378.7" y2="163.4" stroke="rgb(0,0,0)"  stroke-width="1.0"/>
<line x1="383.5" y1="163.6" x2="382.1" y2="166.1" stroke="rgb(0,0,0)"  stroke-width="1.0"/>
<line x1="387.6" y1="165.2" x2="385.5" y2="168.8" stroke="rgb(0,0,0)"  stroke-width="1.0"/>
<line x1="391.6" y1="166.8" x2="388.9" y2="171.5" stroke="rgb(0,0,0)"  stroke-width="1.0"/>
<line x1="395.6" y1="168.3" x2="392.3" y2="174.2" stroke="rgb(0,0,0)"  stroke-width="1.0"/>
<line x1="399.7" y1="169.9" x2="395.7" y2="176.9" stroke="rgb(0,0,0)"  stroke-width="1.0"/>
<polygon points="339.804409 180.000000 343.804409 206.800000 335.804409 206.800000 " stroke-width="1.000000" fill="rgb(0,0,0)"  stroke="rgb(0,0,0)" />
<line x1="166.9" y1="282.8" x2="165.9" y2="284.0" stroke="rgb(0,0,0)"  stroke-width="1.0"/>
<line x1="170.6" y1="285.2" x2="168.6" y2="287.3" stroke="rgb(0,0,0)"  stroke-width="1.0"/>
<line x1="174.2" y1="287.6" x2="171.4" y2="290.7" stroke="rgb(0,0,0)"  stroke-width="1.0"/>
<line x1="177.8" y1="290.0" x2="174.1" y2="294.0" stroke="rgb(0,0,0)"  stroke-width="1.0"/>
<line x1="181.4" y1="292.3" x2="176.9" y2="297.3" stroke="rgb(0,0,0)"  stroke-width="1.0"/>
<line x1="185.0" y1="294.7" x2="179.7" y2="300.7" stroke="rgb(0,0,0)"  stroke-width="1.0"/>
<line x1="121.8" y1="293.3" x2="120.4" y2="292.7" stroke="rgb(0,0,0)"  stroke-width="1.0"/>
<line x1="120.7" y1="297.5" x2="118.1" y2="296.3" stroke="rgb(0,0,0)"  stroke-width="1.0"/>
<line x1="119.5" y1="301.7" x2="115.7" y2="300.0" stroke="rgb(0,0,0)"  stroke-width="1.0"/>
<line x1="118.4" y1="305.9" x2="113.4" y2="303.6" stroke="rgb(0,0,0)"  stroke-width="1.0"/>
<line x1="117.2" y1="310.0" x2="111.1" y2="307.3" stroke="rgb(0,0,0)"  stroke-width="1.0"/>
<line x1="116.0" y1="314.2" x2="108.7" y2="311.0" stroke="rgb(0,0,0)"  stroke-width="1.0"/>
<line x1="103.3" y1="253.5" x2="121.4" y2="233.4" stroke="rgb(0,0,0)"  stroke-width="1.0"/>
<line x1="141.9" y1="229.0" x2="166.6" y2="240.0" stroke="rgb(0,0,0)"  stroke-width="1.0"/>
<line x1="166.6" y1="240.0" x2="162.4" y2="279.8" stroke="rgb(0,0,0)"  stroke-width="1.0"/>
<line x1="162.4" y1="279.8" x2="123.3" y2="288.1" stroke="rgb(0,0,0)"  stroke-width="1.0"/>
<line x1="123.3" y1="288.1" x2="103.3" y2="253.5" stroke="rgb(0,0,0)"  stroke-width="1.0"/>
<line x1="201.2" y1="180.0" x2="235.9" y2="160.0" stroke="rgb(0,0,0)"  stroke-width="1.0"/>
<line x1="235.9" y1="160.0" x2="235.9" y2="120.0" stroke="rgb(0,0,0)"  stroke-width="1.0"/>
<line x1="235.9" y1="120.0" x2="201.2" y2="100.0" stroke="rgb(0,0,0)"  stroke-width="1.0"/>
<line x1="201.2" y1="100.0" x2="166.6" y2="120.0" stroke="rgb(0,0,0)"  stroke-width="1.0"/>
<line x1="166.6" y1="120.0" x2="166.6" y2="160.0" stroke="rgb(0,0,0)"  stroke-width="1.0"/>
<line x1="166.6" y1="160.0" x2="201.2" y2="180.0" stroke="rgb(0,0,0)"  stroke-width="1.0"/>
<line x1="305.2" y1="160.0" x2="305.2" y2="133.0" stroke="rgb(0,0,0)"  stroke-width="1.0"/>
<line x1="316.4" y1="113.5" x2="339.8" y2="100.0" stroke="rgb(0,0,0)"  stroke-width="1.0"/>
<line x1="339.8" y1="100.0" x2="374.4" y2="120.0" stroke="rgb(0,0,0)"  stroke-width="1.0"/>
<line x1="374.4" y1="120.0" x2="374.4" y2="160.0" stroke="rgb(0,0,0)"  stroke-width="1.0"/>
<line x1="374.4" y1="160.0" x2="339.8" y2="180.0" stroke="rgb(0,0,0)"  stroke-width="1.0"/>
<line x1="339.8" y1="180.0" x2="305.2" y2="160.0" stroke="rgb(0,0,0)"  stroke-width="1.0"/>
<text x="22.000000" y="289.635869" fill="rgb(255,12,12)"  stroke="rgb(255,12,12)" stroke-width="1" font-size="16" >HO</text>
<text x="124.057510" y="231.730534" fill="rgb(255,12,12)"  stroke="rgb(255,12,12)" stroke-width="1" font-size="16" >O</text>
<text x="195.240345" y="228.000000" fill="rgb(255,12,12)"  stroke="rgb(255,12,12)" stroke-width="1" font-size="16" >O</text>
<text x="113.958312" y="188.000000" fill="rgb(255,12,12)"  stroke="rgb(255,12,12)" stroke-width="1" font-size="16" >HO</text>
<text x="105.958312" y="108.000000" fill="rgb(12,12,255)"  stroke="rgb(12,12,255)" stroke-width="1" font-size="16" >H</text>
<text x="117.958312" y="111.680000" fill="rgb(12,12,255)"  stroke="rgb(12,12,255)" stroke-width="1" font-size="13" >2</text>
<text x="124.458312" y="108.000000" fill="rgb(12,12,255)"  stroke="rgb(12,12,255)" stroke-width="1" font-size="16" >N</text>
<text x="266.522377" y="108.000000" fill="rgb(12,12,255)"  stroke="rgb(12,12,255)" stroke-width="1" font-size="16" >NH</text>
<text x="290.522377" y="111.680000" fill="rgb(12,12,255)"  stroke="rgb(12,12,255)" stroke-width="1" font-size="13" >2</text>
<text x="264.522377" y="188.000000" fill="rgb(255,12,12)"  stroke="rgb(255,12,12)" stroke-width="1" font-size="16" >O</text>
<text x="299.163393" y="128.000000" fill="rgb(255,12,12)"  stroke="rgb(255,12,12)" stroke-width="1" font-size="16" >O</text>
<text x="279.163393" y="48.000000" fill="rgb(12,12,255)"  stroke="rgb(12,12,255)" stroke-width="1" font-size="16" >H</text>
<text x="291.163393" y="51.680000" fill="rgb(12,12,255)"  stroke="rgb(12,12,255)" stroke-width="1" font-size="13" >2</text>
<text x="297.663393" y="48.000000" fill="rgb(12,12,255)"  stroke="rgb(12,12,255)" stroke-width="1" font-size="16" >N</text>
<text x="403.086442" y="108.000000" fill="rgb(255,12,12)"  stroke="rgb(255,12,12)" stroke-width="1" font-size="16" >OH</text>
<text x="403.086442" y="188.000000" fill="rgb(255,12,12)"  stroke="rgb(255,12,12)" stroke-width="1" font-size="16" >OH</text>
<text x="335.804409" y="228.000000" fill="rgb(12,12,255)"  stroke="rgb(12,12,255)" stroke-width="1" font-size="16" >NH</text>
<text x="359.804409" y="231.680000" fill="rgb(12,12,255)"  stroke="rgb(12,12,255)" stroke-width="1" font-size="13" >2</text>
<text x="186.143983" y="314.546100" fill="rgb(255,12,12)"  stroke="rgb(255,12,12)" stroke-width="1" font-size="16" >OH</text>
<text x="89.022820" y="332.639162" fill="rgb(255,12,12)"  stroke="rgb(255,12,12)" stroke-width="1" font-size="16" >HO</text>
<text font-size="18.000000" fill ="black" font-family="sans-serif"
x="10.000000" y="20.000000" >lig.pdb</text>
<title>lig.pdb - OBDepict</title>
</svg>
