<?xml version="1.0"?>
<svg xmlns="http://www.w3.org/2000/svg"
xmlns:xlink="http://www.w3.org/1999/xlink" xmlns:cml="http://www.xml-cml.org/schema" width="586.801" height="439.441" x="0" y="0" font-family="sans-serif" stroke="rgb(0,0,0)" stroke-width="1"  stroke-linecap="round">
<rect x="0%" y="0%" width="100%" height="100%" stroke-width="0" fill="rgb(255,255,255)"  />
<polygon points="178.564 140 203.774 149.936 199.774 156.864 " stroke-width="1" fill="rgb(0,0,0)"  stroke="rgb(0,0,0)" />
<polygon points="178.564 100 199.774 83.1359 203.774 90.0641 " stroke-width="1" fill="rgb(0,0,0)"  stroke="rgb(0,0,0)" />
<line x1="143.1" y1="74.6" x2="144.7" y2="74.6" stroke="rgb(0,0,0)"  stroke-width="1.0"/>
<line x1="142.5" y1="70.4" x2="145.4" y2="70.4" stroke="rgb(0,0,0)"  stroke-width="1.0"/>
<line x1="141.8" y1="66.1" x2="146.0" y2="66.1" stroke="rgb(0,0,0)"  stroke-width="1.0"/>
<line x1="141.2" y1="61.8" x2="146.6" y2="61.8" stroke="rgb(0,0,0)"  stroke-width="1.0"/>
<line x1="140.6" y1="57.5" x2="147.3" y2="57.5" stroke="rgb(0,0,0)"  stroke-width="1.0"/>
<line x1="139.9" y1="53.2" x2="147.9" y2="53.2" stroke="rgb(0,0,0)"  stroke-width="1.0"/>
<polygon points="109.282032 100.000000 84.072551 90.064102 88.072551 83.135898 " stroke-width="1.000000" fill="rgb(0,0,0)"  stroke="rgb(0,0,0)" />
<line x1="102.8" y1="144.7" x2="102.0" y2="143.3" stroke="rgb(0,0,0)"  stroke-width="1.0"/>
<line x1="97.5" y1="148.4" x2="96.1" y2="146.0" stroke="rgb(0,0,0)"  stroke-width="1.0"/>
<line x1="92.3" y1="152.2" x2="90.2" y2="148.6" stroke="rgb(0,0,0)"  stroke-width="1.0"/>
<line x1="87.1" y1="156.0" x2="84.4" y2="151.2" stroke="rgb(0,0,0)"  stroke-width="1.0"/>
<line x1="81.9" y1="159.7" x2="78.5" y2="153.9" stroke="rgb(0,0,0)"  stroke-width="1.0"/>
<line x1="76.6" y1="163.5" x2="72.6" y2="156.5" stroke="rgb(0,0,0)"  stroke-width="1.0"/>
<line x1="74.6" y1="160.0" x2="51.3" y2="146.5" stroke="rgb(0,0,0)"  stroke-width="1.0"/>
<line x1="214.0" y1="285.4" x2="212.4" y2="285.4" stroke="rgb(0,0,0)"  stroke-width="1.0"/>
<line x1="214.6" y1="289.6" x2="211.8" y2="289.6" stroke="rgb(0,0,0)"  stroke-width="1.0"/>
<line x1="215.3" y1="293.9" x2="211.1" y2="293.9" stroke="rgb(0,0,0)"  stroke-width="1.0"/>
<line x1="215.9" y1="298.2" x2="210.5" y2="298.2" stroke="rgb(0,0,0)"  stroke-width="1.0"/>
<line x1="216.6" y1="302.5" x2="209.8" y2="302.5" stroke="rgb(0,0,0)"  stroke-width="1.0"/>
<line x1="217.2" y1="306.8" x2="209.2" y2="306.8" stroke="rgb(0,0,0)"  stroke-width="1.0"/>
<line x1="173.5" y1="218.0" x2="174.3" y2="216.6" stroke="rgb(0,0,0)"  stroke-width="1.0"/>
<line x1="169.5" y1="216.4" x2="170.9" y2="213.9" stroke="rgb(0,0,0)"  stroke-width="1.0"/>
<line x1="165.5" y1="214.8" x2="167.5" y2="211.2" stroke="rgb(0,0,0)"  stroke-width="1.0"/>
<line x1="161.4" y1="213.2" x2="164.1" y2="208.5" stroke="rgb(0,0,0)"  stroke-width="1.0"/>
<line x1="157.4" y1="211.7" x2="160.7" y2="205.8" stroke="rgb(0,0,0)"  stroke-width="1.0"/>
<line x1="153.4" y1="210.1" x2="157.4" y2="203.1" stroke="rgb(0,0,0)"  stroke-width="1.0"/>
<polygon points="213.205081 200.000000 209.205081 173.200000 217.205081 173.200000 " stroke-width="1.000000" fill="rgb(0,0,0)"  stroke="rgb(0,0,0)" />
<line x1="252.1" y1="216.6" x2="252.9" y2="218.0" stroke="rgb(0,0,0)"  stroke-width="1.0"/>
<line x1="255.5" y1="213.9" x2="256.9" y2="216.4" stroke="rgb(0,0,0)"  stroke-width="1.0"/>
<line x1="258.9" y1="211.2" x2="261.0" y2="214.8" stroke="rgb(0,0,0)"  stroke-width="1.0"/>
<line x1="262.3" y1="208.5" x2="265.0" y2="213.2" stroke="rgb(0,0,0)"  stroke-width="1.0"/>
<line x1="265.7" y1="205.8" x2="269.0" y2="211.7" stroke="rgb(0,0,0)"  stroke-width="1.0"/>
<line x1="269.1" y1="203.1" x2="273.1" y2="210.1" stroke="rgb(0,0,0)"  stroke-width="1.0"/>
<polygon points="247.846097 260.000000 273.055578 269.935898 269.055578 276.864102 " stroke-width="1.000000" fill="rgb(0,0,0)"  stroke="rgb(0,0,0)" />
<polygon points="317.128129 220.000000 291.918648 210.064102 295.918648 203.135898 " stroke-width="1.000000" fill="rgb(0,0,0)"  stroke="rgb(0,0,0)" />
<line x1="354.0" y1="198.3" x2="355.6" y2="198.7" stroke="rgb(0,0,0)"  stroke-width="1.0"/>
<line x1="354.3" y1="194.0" x2="357.1" y2="194.6" stroke="rgb(0,0,0)"  stroke-width="1.0"/>
<line x1="354.5" y1="189.7" x2="358.6" y2="190.5" stroke="rgb(0,0,0)"  stroke-width="1.0"/>
<line x1="354.8" y1="185.3" x2="360.1" y2="186.5" stroke="rgb(0,0,0)"  stroke-width="1.0"/>
<line x1="355.1" y1="181.0" x2="361.6" y2="182.4" stroke="rgb(0,0,0)"  stroke-width="1.0"/>
<line x1="355.3" y1="176.7" x2="363.2" y2="178.3" stroke="rgb(0,0,0)"  stroke-width="1.0"/>
<line x1="385.7" y1="232.1" x2="385.8" y2="233.7" stroke="rgb(0,0,0)"  stroke-width="1.0"/>
<line x1="389.9" y1="231.0" x2="390.2" y2="233.9" stroke="rgb(0,0,0)"  stroke-width="1.0"/>
<line x1="394.1" y1="229.9" x2="394.5" y2="234.1" stroke="rgb(0,0,0)"  stroke-width="1.0"/>
<line x1="398.3" y1="228.8" x2="398.8" y2="234.3" stroke="rgb(0,0,0)"  stroke-width="1.0"/>
<line x1="402.5" y1="227.8" x2="403.2" y2="234.4" stroke="rgb(0,0,0)"  stroke-width="1.0"/>
<line x1="406.7" y1="226.7" x2="407.5" y2="234.6" stroke="rgb(0,0,0)"  stroke-width="1.0"/>
<polygon points="360.435172 268.097343 380.358819 303.012215 373.050456 306.266108 " stroke-width="1.000000" fill="rgb(0,0,0)"  stroke="rgb(0,0,0)" />
<line x1="376.7" y1="304.6" x2="360.8" y2="326.5" stroke="rgb(0,0,0)"  stroke-width="1.0"/>
<line x1="439.9" y1="257.8" x2="441.2" y2="256.8" stroke="rgb(0,0,0)"  stroke-width="1.0"/>
<line x1="436.9" y1="254.7" x2="439.2" y2="253.0" stroke="rgb(0,0,0)"  stroke-width="1.0"/>
<line x1="433.9" y1="251.6" x2="437.2" y2="249.1" stroke="rgb(0,0,0)"  stroke-width="1.0"/>
<line x1="430.8" y1="248.5" x2="435.2" y2="245.3" stroke="rgb(0,0,0)"  stroke-width="1.0"/>
<line x1="427.8" y1="245.4" x2="433.2" y2="241.4" stroke="rgb(0,0,0)"  stroke-width="1.0"/>
<line x1="424.7" y1="242.3" x2="431.2" y2="237.6" stroke="rgb(0,0,0)"  stroke-width="1.0"/>
<line x1="485.0" y1="252.2" x2="486.4" y2="252.9" stroke="rgb(0,0,0)"  stroke-width="1.0"/>
<line x1="486.1" y1="248.1" x2="488.7" y2="249.2" stroke="rgb(0,0,0)"  stroke-width="1.0"/>
<line x1="487.3" y1="243.9" x2="491.1" y2="245.6" stroke="rgb(0,0,0)"  stroke-width="1.0"/>
<line x1="488.4" y1="239.7" x2="493.4" y2="241.9" stroke="rgb(0,0,0)"  stroke-width="1.0"/>
<line x1="489.6" y1="235.5" x2="495.7" y2="238.3" stroke="rgb(0,0,0)"  stroke-width="1.0"/>
<line x1="490.8" y1="231.3" x2="498.1" y2="234.6" stroke="rgb(0,0,0)"  stroke-width="1.0"/>
<polygon points="507.019744 289.815410 533.254817 283.035959 534.091044 290.992135 " stroke-width="1.000000" fill="rgb(0,0,0)"  stroke="rgb(0,0,0)" />
<line x1="494.5" y1="330.2" x2="493.3" y2="331.2" stroke="rgb(0,0,0)"  stroke-width="1.0"/>
<line x1="497.6" y1="333.3" x2="495.3" y2="335.0" stroke="rgb(0,0,0)"  stroke-width="1.0"/>
<line x1="500.6" y1="336.4" x2="497.3" y2="338.9" stroke="rgb(0,0,0)"  stroke-width="1.0"/>
<line x1="503.7" y1="339.5" x2="499.3" y2="342.7" stroke="rgb(0,0,0)"  stroke-width="1.0"/>
<line x1="506.7" y1="342.6" x2="501.3" y2="346.5" stroke="rgb(0,0,0)"  stroke-width="1.0"/>
<line x1="509.7" y1="345.7" x2="503.3" y2="350.4" stroke="rgb(0,0,0)"  stroke-width="1.0"/>
<line x1="448.4" y1="338.2" x2="447.0" y2="337.5" stroke="rgb(0,0,0)"  stroke-width="1.0"/>
<line x1="446.4" y1="344.3" x2="443.8" y2="343.1" stroke="rgb(0,0,0)"  stroke-width="1.0"/>
<line x1="444.4" y1="350.4" x2="440.6" y2="348.7" stroke="rgb(0,0,0)"  stroke-width="1.0"/>
<line x1="442.4" y1="356.5" x2="437.4" y2="354.3" stroke="rgb(0,0,0)"  stroke-width="1.0"/>
<line x1="440.4" y1="362.6" x2="434.2" y2="359.9" stroke="rgb(0,0,0)"  stroke-width="1.0"/>
<line x1="438.4" y1="368.7" x2="431.0" y2="365.5" stroke="rgb(0,0,0)"  stroke-width="1.0"/>
<line x1="434.7" y1="367.1" x2="450.6" y2="388.9" stroke="rgb(0,0,0)"  stroke-width="1.0"/>
<line x1="317.1" y1="220.0" x2="353.7" y2="203.7" stroke="rgb(0,0,0)"  stroke-width="1.0"/>
<line x1="353.7" y1="203.7" x2="380.4" y2="233.5" stroke="rgb(0,0,0)"  stroke-width="1.0"/>
<line x1="380.4" y1="233.5" x2="360.4" y2="268.1" stroke="rgb(0,0,0)"  stroke-width="1.0"/>
<line x1="360.4" y1="268.1" x2="334.0" y2="262.5" stroke="rgb(0,0,0)"  stroke-width="1.0"/>
<line x1="320.0" y1="246.9" x2="317.1" y2="220.0" stroke="rgb(0,0,0)"  stroke-width="1.0"/>
<line x1="178.6" y1="140.0" x2="178.6" y2="100.0" stroke="rgb(0,0,0)"  stroke-width="1.0"/>
<line x1="178.6" y1="100.0" x2="143.9" y2="80.0" stroke="rgb(0,0,0)"  stroke-width="1.0"/>
<line x1="143.9" y1="80.0" x2="109.3" y2="100.0" stroke="rgb(0,0,0)"  stroke-width="1.0"/>
<line x1="109.3" y1="100.0" x2="109.3" y2="140.0" stroke="rgb(0,0,0)"  stroke-width="1.0"/>
<line x1="109.3" y1="140.0" x2="132.7" y2="153.5" stroke="rgb(0,0,0)"  stroke-width="1.0"/>
<line x1="155.2" y1="153.5" x2="178.6" y2="140.0" stroke="rgb(0,0,0)"  stroke-width="1.0"/>
<line x1="178.6" y1="260.0" x2="213.2" y2="280.0" stroke="rgb(0,0,0)"  stroke-width="1.0"/>
<line x1="213.2" y1="280.0" x2="247.8" y2="260.0" stroke="rgb(0,0,0)"  stroke-width="1.0"/>
<line x1="247.8" y1="260.0" x2="247.8" y2="220.0" stroke="rgb(0,0,0)"  stroke-width="1.0"/>
<line x1="247.8" y1="220.0" x2="213.2" y2="200.0" stroke="rgb(0,0,0)"  stroke-width="1.0"/>
<line x1="213.2" y1="200.0" x2="178.6" y2="220.0" stroke="rgb(0,0,0)"  stroke-width="1.0"/>
<line x1="178.6" y1="220.0" x2="178.6" y2="260.0" stroke="rgb(0,0,0)"  stroke-width="1.0"/>
<line x1="443.7" y1="261.6" x2="432.7" y2="286.3" stroke="rgb(0,0,0)"  stroke-width="1.0"/>
<line x1="435.1" y1="308.7" x2="451.0" y2="330.5" stroke="rgb(0,0,0)"  stroke-width="1.0"/>
<line x1="451.0" y1="330.5" x2="490.8" y2="326.4" stroke="rgb(0,0,0)"  stroke-width="1.0"/>
<line x1="490.8" y1="326.4" x2="507.0" y2="289.8" stroke="rgb(0,0,0)"  stroke-width="1.0"/>
<line x1="507.0" y1="289.8" x2="483.5" y2="257.5" stroke="rgb(0,0,0)"  stroke-width="1.0"/>
<line x1="483.5" y1="257.5" x2="443.7" y2="261.6" stroke="rgb(0,0,0)"  stroke-width="1.0"/>
<text x="207.205081" y="168.000000" fill="rgb(255,12,12)"  stroke="rgb(255,12,12)" stroke-width="1" font-size="16" >O</text>
<text x="209.205081" y="88.000000" fill="rgb(12,12,255)"  stroke="rgb(12,12,255)" stroke-width="1" font-size="16" >NH</text>
<text x="233.205081" y="91.680000" fill="rgb(12,12,255)"  stroke="rgb(12,12,255)" stroke-width="1" font-size="13" >2</text>
<text x="137.923048" y="48.000000" fill="rgb(255,12,12)"  stroke="rgb(255,12,12)" stroke-width="1" font-size="16" >OH</text>
<text x="56.641016" y="88.000000" fill="rgb(255,12,12)"  stroke="rgb(255,12,12)" stroke-width="1" font-size="16" >HO</text>
<text x="137.923048" y="168.000000" fill="rgb(255,12,12)"  stroke="rgb(255,12,12)" stroke-width="1" font-size="16" >O</text>
<text x="14.000000" y="148.000000" fill="rgb(12,12,255)"  stroke="rgb(12,12,255)" stroke-width="1" font-size="16" >H</text>
<text x="26.000000" y="151.680000" fill="rgb(12,12,255)"  stroke="rgb(12,12,255)" stroke-width="1" font-size="13" >2</text>
<text x="32.500000" y="148.000000" fill="rgb(12,12,255)"  stroke="rgb(12,12,255)" stroke-width="1" font-size="16" >N</text>
<text x="209.205081" y="328.000000" fill="rgb(12,12,255)"  stroke="rgb(12,12,255)" stroke-width="1" font-size="16" >NH</text>
<text x="233.205081" y="331.680000" fill="rgb(12,12,255)"  stroke="rgb(12,12,255)" stroke-width="1" font-size="13" >2</text>
<text x="117.923048" y="208.000000" fill="rgb(12,12,255)"  stroke="rgb(12,12,255)" stroke-width="1" font-size="16" >H</text>
<text x="129.923048" y="211.680000" fill="rgb(12,12,255)"  stroke="rgb(12,12,255)" stroke-width="1" font-size="13" >2</text>
<text x="136.423048" y="208.000000" fill="rgb(12,12,255)"  stroke="rgb(12,12,255)" stroke-width="1" font-size="16" >N</text>
<text x="276.487113" y="208.000000" fill="rgb(255,12,12)"  stroke="rgb(255,12,12)" stroke-width="1" font-size="16" >O</text>
<text x="276.487113" y="288.000000" fill="rgb(255,12,12)"  stroke="rgb(255,12,12)" stroke-width="1" font-size="16" >OH</text>
<text x="355.986415" y="172.604630" fill="rgb(255,12,12)"  stroke="rgb(255,12,12)" stroke-width="1" font-size="16" >OH</text>
<text x="315.309268" y="267.780876" fill="rgb(255,12,12)"  stroke="rgb(255,12,12)" stroke-width="1" font-size="16" >O</text>
<text x="335.193227" y="344.999842" fill="rgb(255,12,12)"  stroke="rgb(255,12,12)" stroke-width="1" font-size="16" >HO</text>
<text x="414.216048" y="237.275189" fill="rgb(255,12,12)"  stroke="rgb(255,12,12)" stroke-width="1" font-size="16" >O</text>
<text x="454.211346" y="407.440865" fill="rgb(12,12,255)"  stroke="rgb(12,12,255)" stroke-width="1" font-size="16" >NH</text>
<text x="478.211346" y="411.120865" fill="rgb(12,12,255)"  stroke="rgb(12,12,255)" stroke-width="1" font-size="13" >2</text>
<text x="540.800619" y="293.634271" fill="rgb(255,12,12)"  stroke="rgb(255,12,12)" stroke-width="1" font-size="16" >OH</text>
<text x="508.261688" y="366.717908" fill="rgb(255,12,12)"  stroke="rgb(255,12,12)" stroke-width="1" font-size="16" >OH</text>
<text x="421.457992" y="306.177687" fill="rgb(255,12,12)"  stroke="rgb(255,12,12)" stroke-width="1" font-size="16" >O</text>
<text x="495.777799" y="228.912912" fill="rgb(12,12,255)"  stroke="rgb(12,12,255)" stroke-width="1" font-size="16" >NH</text>
<text x="519.777799" y="232.592912" fill="rgb(12,12,255)"  stroke="rgb(12,12,255)" stroke-width="1" font-size="13" >2</text>
<text font-size="18.000000" fill ="black" font-family="sans-serif"
x="10.000000" y="20.000000" ></text>
<title> - OBDepict</title>
</svg>
