<?xml version="1.0"?>
<svg xmlns="http://www.w3.org/2000/svg"
xmlns:xlink="http://www.w3.org/1999/xlink" xmlns:cml="http://www.xml-cml.org/schema" width="478.642" height="319.985" x="0" y="0" font-family="sans-serif" stroke="rgb(0,0,0)" stroke-width="1"  stroke-linecap="round">
<rect x="0%" y="0%" width="100%" height="100%" stroke-width="0" fill="rgb(255,255,255)"  />
<polygon points="91.4866 212.217 82.9301 251.495 75.3217 249.023 " stroke-width="1" fill="rgb(0,0,0)"  stroke="rgb(0,0,0)" />
<line x1="91.5" y1="212.2" x2="130.6" y2="203.9" stroke="rgb(0,0,0)"  stroke-width="1.0"/>
<line x1="91.5" y1="212.2" x2="73.4" y2="192.2" stroke="rgb(0,0,0)"  stroke-width="1.0"/>
<line x1="52.1" y1="252.9" x2="78.5" y2="247.3" stroke="rgb(0,0,0)"  stroke-width="1.0"/>
<line x1="53.3" y1="258.8" x2="79.7" y2="253.2" stroke="rgb(0,0,0)"  stroke-width="1.0"/>
<line x1="97.2" y1="270.3" x2="79.1" y2="250.3" stroke="rgb(0,0,0)"  stroke-width="1.0"/>
<line x1="127.8" y1="203.0" x2="140.1" y2="164.9" stroke="rgb(0,0,0)"  stroke-width="1.0"/>
<line x1="133.5" y1="204.8" x2="145.8" y2="166.8" stroke="rgb(0,0,0)"  stroke-width="1.0"/>
<polygon points="169.187523 160.285997 143.804814 169.770621 142.141521 161.945440 " stroke-width="1.000000" fill="rgb(0,0,0)"  stroke="rgb(0,0,0)" />
<line x1="190.8" y1="167.2" x2="200.2" y2="177.6" stroke="rgb(0,0,0)"  stroke-width="1.0"/>
<line x1="186.1" y1="145.2" x2="194.5" y2="119.5" stroke="rgb(0,0,0)"  stroke-width="1.0"/>
<line x1="225.9" y1="113.6" x2="225.6" y2="112.1" stroke="rgb(0,0,0)"  stroke-width="1.0"/>
<line x1="219.8" y1="115.6" x2="219.2" y2="112.8" stroke="rgb(0,0,0)"  stroke-width="1.0"/>
<line x1="213.7" y1="117.5" x2="212.8" y2="113.5" stroke="rgb(0,0,0)"  stroke-width="1.0"/>
<line x1="207.5" y1="119.5" x2="206.4" y2="114.2" stroke="rgb(0,0,0)"  stroke-width="1.0"/>
<line x1="201.4" y1="121.5" x2="200.0" y2="114.9" stroke="rgb(0,0,0)"  stroke-width="1.0"/>
<line x1="195.3" y1="123.4" x2="193.6" y2="115.6" stroke="rgb(0,0,0)"  stroke-width="1.0"/>
<polygon points="249.855121 74.641016 232.991020 53.431535 239.919223 49.431535 " stroke-width="1.000000" fill="rgb(0,0,0)"  stroke="rgb(0,0,0)" />
<polygon points="289.635997 78.822155 304.596118 56.229351 310.541277 61.582396 " stroke-width="1.000000" fill="rgb(0,0,0)"  stroke="rgb(0,0,0)" />
<line x1="303.2" y1="119.4" x2="302.5" y2="120.9" stroke="rgb(0,0,0)"  stroke-width="1.0"/>
<line x1="307.4" y1="120.6" x2="306.2" y2="123.2" stroke="rgb(0,0,0)"  stroke-width="1.0"/>
<line x1="311.5" y1="121.7" x2="309.8" y2="125.5" stroke="rgb(0,0,0)"  stroke-width="1.0"/>
<line x1="315.7" y1="122.9" x2="313.5" y2="127.8" stroke="rgb(0,0,0)"  stroke-width="1.0"/>
<line x1="319.9" y1="124.0" x2="317.2" y2="130.2" stroke="rgb(0,0,0)"  stroke-width="1.0"/>
<line x1="324.1" y1="125.2" x2="320.8" y2="132.5" stroke="rgb(0,0,0)"  stroke-width="1.0"/>
<line x1="425.7" y1="216.9" x2="398.9" y2="214.1" stroke="rgb(0,0,0)"  stroke-width="1.0"/>
<line x1="233.6" y1="111.2" x2="253.7" y2="129.2" stroke="rgb(0,0,0)"  stroke-width="1.0"/>
<line x1="274.6" y1="131.4" x2="298.0" y2="117.9" stroke="rgb(0,0,0)"  stroke-width="1.0"/>
<line x1="298.0" y1="117.9" x2="289.6" y2="78.8" stroke="rgb(0,0,0)"  stroke-width="1.0"/>
<line x1="289.6" y1="78.8" x2="249.9" y2="74.6" stroke="rgb(0,0,0)"  stroke-width="1.0"/>
<line x1="249.9" y1="74.6" x2="233.6" y2="111.2" stroke="rgb(0,0,0)"  stroke-width="1.0"/>
<line x1="337.2" y1="146.9" x2="342.8" y2="173.3" stroke="rgb(0,0,0)"  stroke-width="1.0"/>
<line x1="342.8" y1="173.3" x2="382.6" y2="177.5" stroke="rgb(0,0,0)"  stroke-width="1.0"/>
<line x1="349.5" y1="166.8" x2="377.4" y2="169.7" stroke="rgb(0,0,0)"  stroke-width="1.0"/>
<line x1="382.6" y1="177.5" x2="393.6" y2="152.9" stroke="rgb(0,0,0)"  stroke-width="1.0"/>
<line x1="389.1" y1="132.2" x2="369.1" y2="114.2" stroke="rgb(0,0,0)"  stroke-width="1.0"/>
<line x1="382.7" y1="136.2" x2="368.8" y2="123.6" stroke="rgb(0,0,0)"  stroke-width="1.0"/>
<line x1="369.1" y1="114.2" x2="345.8" y2="127.7" stroke="rgb(0,0,0)"  stroke-width="1.0"/>
<line x1="398.9" y1="214.1" x2="382.6" y2="177.5" stroke="rgb(0,0,0)"  stroke-width="1.0"/>
<line x1="342.8" y1="173.3" x2="326.9" y2="195.2" stroke="rgb(0,0,0)"  stroke-width="1.0"/>
<line x1="324.7" y1="217.8" x2="335.6" y2="242.2" stroke="rgb(0,0,0)"  stroke-width="1.0"/>
<line x1="332.1" y1="216.7" x2="339.7" y2="233.8" stroke="rgb(0,0,0)"  stroke-width="1.0"/>
<line x1="335.6" y1="242.2" x2="362.4" y2="245.1" stroke="rgb(0,0,0)"  stroke-width="1.0"/>
<line x1="383.1" y1="235.7" x2="398.9" y2="214.1" stroke="rgb(0,0,0)"  stroke-width="1.0"/>
<line x1="378.5" y1="229.9" x2="389.5" y2="214.7" stroke="rgb(0,0,0)"  stroke-width="1.0"/>
<text x="38.721360" y="190.490966" fill="rgb(12,12,255)"  stroke="rgb(12,12,255)" stroke-width="1" font-size="16" >H</text>
<text x="50.721360" y="194.170966" fill="rgb(12,12,255)"  stroke="rgb(12,12,255)" stroke-width="1" font-size="13" >2</text>
<text x="57.221360" y="190.490966" fill="rgb(12,12,255)"  stroke="rgb(12,12,255)" stroke-width="1" font-size="16" >N</text>
<text x="34.000000" y="266.575487" fill="rgb(255,12,12)"  stroke="rgb(255,12,12)" stroke-width="1" font-size="16" >O</text>
<text x="99.891128" y="287.984812" fill="rgb(255,12,12)"  stroke="rgb(255,12,12)" stroke-width="1" font-size="16" >OH</text>
<text x="176.099072" y="165.541563" fill="rgb(178,178,0)"  stroke="rgb(178,178,0)" stroke-width="1" font-size="16" >S</text>
<text x="204.864296" y="195.267356" fill="rgb(102,102,102)"  stroke="rgb(102,102,102)" stroke-width="1" font-size="16" >CH</text>
<text x="228.864296" y="198.947356" fill="rgb(102,102,102)"  stroke="rgb(102,102,102)" stroke-width="1" font-size="13" >3</text>
<text x="257.311448" y="145.948059" fill="rgb(255,12,12)"  stroke="rgb(255,12,12)" stroke-width="1" font-size="16" >O</text>
<text x="211.855121" y="48.000000" fill="rgb(255,12,12)"  stroke="rgb(255,12,12)" stroke-width="1" font-size="16" >HO</text>
<text x="310.401221" y="57.096362" fill="rgb(255,12,12)"  stroke="rgb(255,12,12)" stroke-width="1" font-size="16" >OH</text>
<text x="328.494283" y="142.217524" fill="rgb(12,12,255)"  stroke="rgb(12,12,255)" stroke-width="1" font-size="16" >N</text>
<text x="392.861092" y="148.982749" fill="rgb(12,12,255)"  stroke="rgb(12,12,255)" stroke-width="1" font-size="16" >N</text>
<text x="434.641968" y="226.247524" fill="rgb(12,12,255)"  stroke="rgb(12,12,255)" stroke-width="1" font-size="16" >NH</text>
<text x="458.641968" y="229.927524" fill="rgb(12,12,255)"  stroke="rgb(12,12,255)" stroke-width="1" font-size="13" >2</text>
<text x="369.349682" y="254.427065" fill="rgb(12,12,255)"  stroke="rgb(12,12,255)" stroke-width="1" font-size="16" >N</text>
<text x="313.299340" y="213.704108" fill="rgb(12,12,255)"  stroke="rgb(12,12,255)" stroke-width="1" font-size="16" >N</text>
<text font-size="18.000000" fill ="black" font-family="sans-serif"
x="10.000000" y="20.000000" ></text>
<title> - OBDepict</title>
</svg>
