<?xml version="1.0"?>
<svg xmlns="http://www.w3.org/2000/svg"
xmlns:xlink="http://www.w3.org/1999/xlink" xmlns:cml="http://www.xml-cml.org/schema" width="572.317" height="476.834" x="0" y="0" font-family="sans-serif" stroke="rgb(0,0,0)" stroke-width="1"  stroke-linecap="round">
<rect x="0%" y="0%" width="100%" height="100%" stroke-width="0" fill="rgb(255,255,255)"  />
<polygon points="178.564 239.834 203.774 249.77 199.774 256.698 " stroke-width="1" fill="rgb(0,0,0)"  stroke="rgb(0,0,0)" />
<line x1="214.0" y1="385.2" x2="212.4" y2="385.2" stroke="rgb(0,0,0)"  stroke-width="1.0"/>
<line x1="214.6" y1="389.5" x2="211.8" y2="389.5" stroke="rgb(0,0,0)"  stroke-width="1.0"/>
<line x1="215.3" y1="393.8" x2="211.1" y2="393.8" stroke="rgb(0,0,0)"  stroke-width="1.0"/>
<line x1="215.9" y1="398.1" x2="210.5" y2="398.1" stroke="rgb(0,0,0)"  stroke-width="1.0"/>
<line x1="216.6" y1="402.3" x2="209.8" y2="402.3" stroke="rgb(0,0,0)"  stroke-width="1.0"/>
<line x1="217.2" y1="406.6" x2="209.2" y2="406.6" stroke="rgb(0,0,0)"  stroke-width="1.0"/>
<polygon points="317.128129 319.833979 291.918648 309.898080 295.918648 302.969877 " stroke-width="1.000000" fill="rgb(0,0,0)"  stroke="rgb(0,0,0)" />
<polygon points="436.485513 292.567349 429.239153 318.677314 421.930789 315.423421 " stroke-width="1.000000" fill="rgb(0,0,0)"  stroke="rgb(0,0,0)" />
<polygon points="178.564065 199.833979 199.773545 182.969877 203.773545 189.898080 " stroke-width="1.000000" fill="rgb(0,0,0)"  stroke="rgb(0,0,0)" />
<line x1="354.0" y1="298.2" x2="355.6" y2="298.5" stroke="rgb(0,0,0)"  stroke-width="1.0"/>
<line x1="354.3" y1="293.8" x2="357.1" y2="294.4" stroke="rgb(0,0,0)"  stroke-width="1.0"/>
<line x1="354.5" y1="289.5" x2="358.6" y2="290.4" stroke="rgb(0,0,0)"  stroke-width="1.0"/>
<line x1="354.8" y1="285.2" x2="360.1" y2="286.3" stroke="rgb(0,0,0)"  stroke-width="1.0"/>
<line x1="355.1" y1="280.8" x2="361.6" y2="282.2" stroke="rgb(0,0,0)"  stroke-width="1.0"/>
<line x1="355.3" y1="276.5" x2="363.2" y2="278.2" stroke="rgb(0,0,0)"  stroke-width="1.0"/>
<line x1="352.3" y1="255.7" x2="332.3" y2="237.7" stroke="rgb(0,0,0)"  stroke-width="1.0"/>
<polygon points="476.266389 288.386211 495.255102 307.716725 488.782966 312.419007 " stroke-width="1.000000" fill="rgb(0,0,0)"  stroke="rgb(0,0,0)" />
<line x1="143.1" y1="174.5" x2="144.7" y2="174.5" stroke="rgb(0,0,0)"  stroke-width="1.0"/>
<line x1="142.5" y1="170.2" x2="145.4" y2="170.2" stroke="rgb(0,0,0)"  stroke-width="1.0"/>
<line x1="141.8" y1="165.9" x2="146.0" y2="165.9" stroke="rgb(0,0,0)"  stroke-width="1.0"/>
<line x1="141.2" y1="161.6" x2="146.6" y2="161.6" stroke="rgb(0,0,0)"  stroke-width="1.0"/>
<line x1="140.6" y1="157.3" x2="147.3" y2="157.3" stroke="rgb(0,0,0)"  stroke-width="1.0"/>
<line x1="139.9" y1="153.0" x2="147.9" y2="153.0" stroke="rgb(0,0,0)"  stroke-width="1.0"/>
<line x1="173.5" y1="317.8" x2="174.3" y2="316.5" stroke="rgb(0,0,0)"  stroke-width="1.0"/>
<line x1="169.5" y1="316.3" x2="170.9" y2="313.8" stroke="rgb(0,0,0)"  stroke-width="1.0"/>
<line x1="165.5" y1="314.7" x2="167.5" y2="311.1" stroke="rgb(0,0,0)"  stroke-width="1.0"/>
<line x1="161.4" y1="313.1" x2="164.1" y2="308.4" stroke="rgb(0,0,0)"  stroke-width="1.0"/>
<line x1="157.4" y1="311.5" x2="160.7" y2="305.7" stroke="rgb(0,0,0)"  stroke-width="1.0"/>
<line x1="153.4" y1="309.9" x2="157.4" y2="303.0" stroke="rgb(0,0,0)"  stroke-width="1.0"/>
<line x1="385.7" y1="331.9" x2="385.8" y2="333.5" stroke="rgb(0,0,0)"  stroke-width="1.0"/>
<line x1="389.9" y1="330.8" x2="390.2" y2="333.7" stroke="rgb(0,0,0)"  stroke-width="1.0"/>
<line x1="394.1" y1="329.8" x2="394.5" y2="333.9" stroke="rgb(0,0,0)"  stroke-width="1.0"/>
<line x1="398.3" y1="328.7" x2="398.8" y2="334.1" stroke="rgb(0,0,0)"  stroke-width="1.0"/>
<line x1="402.5" y1="327.6" x2="403.2" y2="334.3" stroke="rgb(0,0,0)"  stroke-width="1.0"/>
<line x1="406.7" y1="326.5" x2="407.5" y2="334.5" stroke="rgb(0,0,0)"  stroke-width="1.0"/>
<line x1="497.8" y1="250.5" x2="498.0" y2="252.1" stroke="rgb(0,0,0)"  stroke-width="1.0"/>
<line x1="502.0" y1="249.4" x2="502.3" y2="252.3" stroke="rgb(0,0,0)"  stroke-width="1.0"/>
<line x1="506.2" y1="248.3" x2="506.6" y2="252.5" stroke="rgb(0,0,0)"  stroke-width="1.0"/>
<line x1="510.4" y1="247.2" x2="510.9" y2="252.6" stroke="rgb(0,0,0)"  stroke-width="1.0"/>
<line x1="514.6" y1="246.1" x2="515.3" y2="252.8" stroke="rgb(0,0,0)"  stroke-width="1.0"/>
<line x1="518.8" y1="245.1" x2="519.6" y2="253.0" stroke="rgb(0,0,0)"  stroke-width="1.0"/>
<polygon points="109.282032 199.833979 84.072551 189.898080 88.072551 182.969877 " stroke-width="1.000000" fill="rgb(0,0,0)"  stroke="rgb(0,0,0)" />
<polygon points="213.205081 299.833979 209.205081 273.033979 217.205081 273.033979 " stroke-width="1.000000" fill="rgb(0,0,0)"  stroke="rgb(0,0,0)" />
<polygon points="360.435172 367.931322 380.358819 402.846194 373.050456 406.100087 " stroke-width="1.000000" fill="rgb(0,0,0)"  stroke="rgb(0,0,0)" />
<polygon points="469.024445 219.483713 476.270805 193.373748 483.579169 196.627641 " stroke-width="1.000000" fill="rgb(0,0,0)"  stroke="rgb(0,0,0)" />
<line x1="102.8" y1="244.5" x2="102.0" y2="243.1" stroke="rgb(0,0,0)"  stroke-width="1.0"/>
<line x1="97.5" y1="248.3" x2="96.1" y2="245.8" stroke="rgb(0,0,0)"  stroke-width="1.0"/>
<line x1="92.3" y1="252.0" x2="90.2" y2="248.4" stroke="rgb(0,0,0)"  stroke-width="1.0"/>
<line x1="87.1" y1="255.8" x2="84.4" y2="251.1" stroke="rgb(0,0,0)"  stroke-width="1.0"/>
<line x1="81.9" y1="259.5" x2="78.5" y2="253.7" stroke="rgb(0,0,0)"  stroke-width="1.0"/>
<line x1="76.6" y1="263.3" x2="72.6" y2="256.4" stroke="rgb(0,0,0)"  stroke-width="1.0"/>
<line x1="252.1" y1="316.5" x2="252.9" y2="317.8" stroke="rgb(0,0,0)"  stroke-width="1.0"/>
<line x1="255.5" y1="313.8" x2="256.9" y2="316.3" stroke="rgb(0,0,0)"  stroke-width="1.0"/>
<line x1="258.9" y1="311.1" x2="261.0" y2="314.7" stroke="rgb(0,0,0)"  stroke-width="1.0"/>
<line x1="262.3" y1="308.4" x2="265.0" y2="313.1" stroke="rgb(0,0,0)"  stroke-width="1.0"/>
<line x1="265.7" y1="305.7" x2="269.0" y2="311.5" stroke="rgb(0,0,0)"  stroke-width="1.0"/>
<line x1="269.1" y1="303.0" x2="273.1" y2="309.9" stroke="rgb(0,0,0)"  stroke-width="1.0"/>
<line x1="376.7" y1="404.5" x2="360.8" y2="426.3" stroke="rgb(0,0,0)"  stroke-width="1.0"/>
<polygon points="429.243569 223.664851 402.496091 193.655312 408.968227 188.953030 " stroke-width="1.000000" fill="rgb(0,0,0)"  stroke="rgb(0,0,0)" />
<line x1="74.6" y1="259.8" x2="51.3" y2="246.3" stroke="rgb(0,0,0)"  stroke-width="1.0"/>
<polygon points="247.846097 359.833979 273.055578 369.769877 269.055578 376.698080 " stroke-width="1.000000" fill="rgb(0,0,0)"  stroke="rgb(0,0,0)" />
<line x1="332.3" y1="237.7" x2="340.6" y2="198.5" stroke="rgb(0,0,0)"  stroke-width="1.0"/>
<line x1="405.7" y1="191.3" x2="378.9" y2="194.1" stroke="rgb(0,0,0)"  stroke-width="1.0"/>
<line x1="340.6" y1="198.5" x2="320.5" y2="180.5" stroke="rgb(0,0,0)"  stroke-width="1.0"/>
<line x1="313.6" y1="159.1" x2="319.2" y2="132.7" stroke="rgb(0,0,0)"  stroke-width="1.0"/>
<line x1="319.2" y1="132.7" x2="289.4" y2="105.9" stroke="rgb(0,0,0)"  stroke-width="1.0"/>
<line x1="317.1" y1="319.8" x2="353.7" y2="303.6" stroke="rgb(0,0,0)"  stroke-width="1.0"/>
<line x1="353.7" y1="303.6" x2="380.4" y2="333.3" stroke="rgb(0,0,0)"  stroke-width="1.0"/>
<line x1="380.4" y1="333.3" x2="360.4" y2="367.9" stroke="rgb(0,0,0)"  stroke-width="1.0"/>
<line x1="360.4" y1="367.9" x2="334.0" y2="362.3" stroke="rgb(0,0,0)"  stroke-width="1.0"/>
<line x1="320.0" y1="346.7" x2="317.1" y2="319.8" stroke="rgb(0,0,0)"  stroke-width="1.0"/>
<line x1="178.6" y1="359.8" x2="213.2" y2="379.8" stroke="rgb(0,0,0)"  stroke-width="1.0"/>
<line x1="213.2" y1="379.8" x2="247.8" y2="359.8" stroke="rgb(0,0,0)"  stroke-width="1.0"/>
<line x1="247.8" y1="359.8" x2="247.8" y2="319.8" stroke="rgb(0,0,0)"  stroke-width="1.0"/>
<line x1="247.8" y1="319.8" x2="213.2" y2="299.8" stroke="rgb(0,0,0)"  stroke-width="1.0"/>
<line x1="213.2" y1="299.8" x2="178.6" y2="319.8" stroke="rgb(0,0,0)"  stroke-width="1.0"/>
<line x1="178.6" y1="319.8" x2="178.6" y2="359.8" stroke="rgb(0,0,0)"  stroke-width="1.0"/>
<line x1="289.4" y1="105.9" x2="297.8" y2="66.8" stroke="rgb(0,0,0)"  stroke-width="1.0"/>
<line x1="283.6" y1="98.5" x2="289.5" y2="71.1" stroke="rgb(0,0,0)"  stroke-width="1.0"/>
<line x1="297.8" y1="66.8" x2="277.7" y2="48.7" stroke="rgb(0,0,0)"  stroke-width="1.0"/>
<line x1="255.5" y1="44.1" x2="230.0" y2="52.4" stroke="rgb(0,0,0)"  stroke-width="1.0"/>
<line x1="255.8" y1="51.5" x2="237.9" y2="57.4" stroke="rgb(0,0,0)"  stroke-width="1.0"/>
<line x1="230.0" y1="52.4" x2="221.7" y2="91.5" stroke="rgb(0,0,0)"  stroke-width="1.0"/>
<line x1="221.7" y1="91.5" x2="251.4" y2="118.3" stroke="rgb(0,0,0)"  stroke-width="1.0"/>
<line x1="231.0" y1="90.2" x2="251.8" y2="108.9" stroke="rgb(0,0,0)"  stroke-width="1.0"/>
<line x1="251.4" y1="118.3" x2="289.4" y2="105.9" stroke="rgb(0,0,0)"  stroke-width="1.0"/>
<line x1="178.6" y1="239.8" x2="178.6" y2="199.8" stroke="rgb(0,0,0)"  stroke-width="1.0"/>
<line x1="178.6" y1="199.8" x2="143.9" y2="179.8" stroke="rgb(0,0,0)"  stroke-width="1.0"/>
<line x1="143.9" y1="179.8" x2="109.3" y2="199.8" stroke="rgb(0,0,0)"  stroke-width="1.0"/>
<line x1="109.3" y1="199.8" x2="109.3" y2="239.8" stroke="rgb(0,0,0)"  stroke-width="1.0"/>
<line x1="109.3" y1="239.8" x2="132.7" y2="253.3" stroke="rgb(0,0,0)"  stroke-width="1.0"/>
<line x1="155.2" y1="253.3" x2="178.6" y2="239.8" stroke="rgb(0,0,0)"  stroke-width="1.0"/>
<line x1="436.5" y1="292.6" x2="476.3" y2="288.4" stroke="rgb(0,0,0)"  stroke-width="1.0"/>
<line x1="476.3" y1="288.4" x2="492.5" y2="251.8" stroke="rgb(0,0,0)"  stroke-width="1.0"/>
<line x1="492.5" y1="251.8" x2="469.0" y2="219.5" stroke="rgb(0,0,0)"  stroke-width="1.0"/>
<line x1="469.0" y1="219.5" x2="429.2" y2="223.7" stroke="rgb(0,0,0)"  stroke-width="1.0"/>
<line x1="429.2" y1="223.7" x2="418.3" y2="248.3" stroke="rgb(0,0,0)"  stroke-width="1.0"/>
<line x1="420.6" y1="270.7" x2="436.5" y2="292.6" stroke="rgb(0,0,0)"  stroke-width="1.0"/>
<text x="207.205081" y="267.833979" fill="rgb(255,12,12)"  stroke="rgb(255,12,12)" stroke-width="1" font-size="16" >O</text>
<text x="209.205081" y="427.833979" fill="rgb(12,12,255)"  stroke="rgb(12,12,255)" stroke-width="1" font-size="16" >NH</text>
<text x="233.205081" y="431.513979" fill="rgb(12,12,255)"  stroke="rgb(12,12,255)" stroke-width="1" font-size="13" >2</text>
<text x="315.309268" y="367.614855" fill="rgb(255,12,12)"  stroke="rgb(255,12,12)" stroke-width="1" font-size="16" >O</text>
<text x="209.205081" y="187.833979" fill="rgb(12,12,255)"  stroke="rgb(12,12,255)" stroke-width="1" font-size="16" >NH</text>
<text x="233.205081" y="191.513979" fill="rgb(12,12,255)"  stroke="rgb(12,12,255)" stroke-width="1" font-size="13" >2</text>
<text x="355.986415" y="272.438609" fill="rgb(255,12,12)"  stroke="rgb(255,12,12)" stroke-width="1" font-size="16" >O</text>
<text x="495.777799" y="328.746891" fill="rgb(12,12,255)"  stroke="rgb(12,12,255)" stroke-width="1" font-size="16" >NH</text>
<text x="519.777799" y="332.426891" fill="rgb(12,12,255)"  stroke="rgb(12,12,255)" stroke-width="1" font-size="13" >2</text>
<text x="262.032646" y="48.000000" fill="rgb(12,12,255)"  stroke="rgb(12,12,255)" stroke-width="1" font-size="16" >N</text>
<text x="137.923048" y="147.833979" fill="rgb(255,12,12)"  stroke="rgb(255,12,12)" stroke-width="1" font-size="16" >OH</text>
<text x="117.923048" y="307.833979" fill="rgb(12,12,255)"  stroke="rgb(12,12,255)" stroke-width="1" font-size="16" >H</text>
<text x="129.923048" y="311.513979" fill="rgb(12,12,255)"  stroke="rgb(12,12,255)" stroke-width="1" font-size="13" >2</text>
<text x="136.423048" y="307.833979" fill="rgb(12,12,255)"  stroke="rgb(12,12,255)" stroke-width="1" font-size="16" >N</text>
<text x="414.216048" y="337.109168" fill="rgb(255,12,12)"  stroke="rgb(255,12,12)" stroke-width="1" font-size="16" >O</text>
<text x="526.316731" y="255.663254" fill="rgb(255,12,12)"  stroke="rgb(255,12,12)" stroke-width="1" font-size="16" >OH</text>
<text x="56.641016" y="187.833979" fill="rgb(255,12,12)"  stroke="rgb(255,12,12)" stroke-width="1" font-size="16" >HO</text>
<text x="479.293910" y="190.941894" fill="rgb(255,12,12)"  stroke="rgb(255,12,12)" stroke-width="1" font-size="16" >OH</text>
<text x="137.923048" y="267.833979" fill="rgb(255,12,12)"  stroke="rgb(255,12,12)" stroke-width="1" font-size="16" >O</text>
<text x="276.487113" y="307.833979" fill="rgb(255,12,12)"  stroke="rgb(255,12,12)" stroke-width="1" font-size="16" >O</text>
<text x="335.193227" y="444.833820" fill="rgb(255,12,12)"  stroke="rgb(255,12,12)" stroke-width="1" font-size="16" >HO</text>
<text x="406.974103" y="268.206670" fill="rgb(255,12,12)"  stroke="rgb(255,12,12)" stroke-width="1" font-size="16" >O</text>
<text x="22.000000" y="247.833979" fill="rgb(255,12,12)"  stroke="rgb(255,12,12)" stroke-width="1" font-size="16" >HO</text>
<text x="276.487113" y="387.833979" fill="rgb(255,12,12)"  stroke="rgb(255,12,12)" stroke-width="1" font-size="16" >OH</text>
<text x="339.951283" y="203.485310" fill="rgb(12,12,255)"  stroke="rgb(12,12,255)" stroke-width="1" font-size="16" >H</text>
<text x="351.951283" y="207.165310" fill="rgb(12,12,255)"  stroke="rgb(12,12,255)" stroke-width="1" font-size="13" >2</text>
<text x="358.451283" y="203.485310" fill="rgb(12,12,255)"  stroke="rgb(12,12,255)" stroke-width="1" font-size="16" >N</text>
<text x="292.851297" y="179.782257" fill="rgb(12,12,255)"  stroke="rgb(12,12,255)" stroke-width="1" font-size="16" >HN</text>
<text font-size="18.000000" fill ="black" font-family="sans-serif"
x="10.000000" y="20.000000" ></text>
<title> - OBDepict</title>
</svg>
