<?xml version="1.0"?>
<svg xmlns="http://www.w3.org/2000/svg"
xmlns:xlink="http://www.w3.org/1999/xlink" xmlns:cml="http://www.xml-cml.org/schema" width="376.774" height="372.37" x="0" y="0" font-family="sans-serif" stroke="rgb(0,0,0)" stroke-width="1"  stroke-linecap="round">
<rect x="0%" y="0%" width="100%" height="100%" stroke-width="0" fill="rgb(255,255,255)"  />
<line x1="83.0" y1="305.4" x2="83.0" y2="319.4" stroke="rgb(0,0,0)"  stroke-width="1.0"/>
<line x1="77.0" y1="305.4" x2="77.0" y2="319.4" stroke="rgb(0,0,0)"  stroke-width="1.0"/>
<line x1="80.0" y1="279.4" x2="80.0" y2="265.4" stroke="rgb(0,0,0)"  stroke-width="1.0"/>
<line x1="67.0" y1="292.4" x2="53.0" y2="292.4" stroke="rgb(0,0,0)"  stroke-width="1.0"/>
<line x1="107.0" y1="292.4" x2="93.0" y2="292.4" stroke="rgb(0,0,0)"  stroke-width="1.0"/>
<polygon points="160.000000 305.569951 164.000000 319.169951 156.000000 319.169951 " stroke-width="1.000000" fill="rgb(0,0,0)"  stroke="rgb(0,0,0)" />
<line x1="160.0" y1="279.4" x2="160.0" y2="265.4" stroke="rgb(0,0,0)"  stroke-width="1.0"/>
<line x1="147.0" y1="292.4" x2="133.0" y2="292.4" stroke="rgb(0,0,0)"  stroke-width="1.0"/>
<line x1="173.0" y1="292.4" x2="187.0" y2="292.4" stroke="rgb(0,0,0)"  stroke-width="1.0"/>
<polygon points="173.200000 212.369951 186.800000 208.369951 186.800000 216.369951 " stroke-width="1.000000" fill="rgb(0,0,0)"  stroke="rgb(0,0,0)" />
<line x1="160.0" y1="199.4" x2="160.0" y2="185.4" stroke="rgb(0,0,0)"  stroke-width="1.0"/>
<line x1="147.0" y1="212.4" x2="133.0" y2="212.4" stroke="rgb(0,0,0)"  stroke-width="1.0"/>
<line x1="160.0" y1="225.4" x2="160.0" y2="239.4" stroke="rgb(0,0,0)"  stroke-width="1.0"/>
<line x1="113.5" y1="201.1" x2="100.0" y2="177.7" stroke="rgb(0,0,0)"  stroke-width="1.0"/>
<line x1="116.7" y1="150.4" x2="115.3" y2="149.6" stroke="rgb(0,0,0)"  stroke-width="1.0"/>
<line x1="114.0" y1="156.3" x2="111.6" y2="154.8" stroke="rgb(0,0,0)"  stroke-width="1.0"/>
<line x1="111.4" y1="162.1" x2="107.8" y2="160.1" stroke="rgb(0,0,0)"  stroke-width="1.0"/>
<line x1="108.8" y1="168.0" x2="104.0" y2="165.3" stroke="rgb(0,0,0)"  stroke-width="1.0"/>
<line x1="106.1" y1="173.9" x2="100.3" y2="170.5" stroke="rgb(0,0,0)"  stroke-width="1.0"/>
<line x1="103.5" y1="179.7" x2="96.5" y2="175.7" stroke="rgb(0,0,0)"  stroke-width="1.0"/>
<polygon points="103.730534 106.546100 76.684532 104.886657 78.347825 97.061476 " stroke-width="1.000000" fill="rgb(0,0,0)"  stroke="rgb(0,0,0)" />
<polygon points="133.456327 79.780876 126.676877 53.545803 134.633052 52.709575 " stroke-width="1.000000" fill="rgb(0,0,0)"  stroke="rgb(0,0,0)" />
<line x1="172.7" y1="96.9" x2="173.3" y2="98.3" stroke="rgb(0,0,0)"  stroke-width="1.0"/>
<line x1="176.3" y1="94.5" x2="177.5" y2="97.2" stroke="rgb(0,0,0)"  stroke-width="1.0"/>
<line x1="180.0" y1="92.2" x2="181.7" y2="96.0" stroke="rgb(0,0,0)"  stroke-width="1.0"/>
<line x1="183.6" y1="89.9" x2="185.9" y2="94.9" stroke="rgb(0,0,0)"  stroke-width="1.0"/>
<line x1="187.3" y1="87.6" x2="190.0" y2="93.7" stroke="rgb(0,0,0)"  stroke-width="1.0"/>
<line x1="191.0" y1="85.2" x2="194.2" y2="92.5" stroke="rgb(0,0,0)"  stroke-width="1.0"/>
<line x1="305.0" y1="86.9" x2="325.1" y2="68.8" stroke="rgb(0,0,0)"  stroke-width="1.0"/>
<line x1="309.1" y1="91.3" x2="329.1" y2="73.3" stroke="rgb(0,0,0)"  stroke-width="1.0"/>
<line x1="285.6" y1="155.0" x2="291.3" y2="181.4" stroke="rgb(0,0,0)"  stroke-width="1.0"/>
<line x1="120.0" y1="143.1" x2="103.7" y2="106.5" stroke="rgb(0,0,0)"  stroke-width="1.0"/>
<line x1="103.7" y1="106.5" x2="133.5" y2="79.8" stroke="rgb(0,0,0)"  stroke-width="1.0"/>
<line x1="133.5" y1="79.8" x2="168.1" y2="99.8" stroke="rgb(0,0,0)"  stroke-width="1.0"/>
<line x1="168.1" y1="99.8" x2="162.5" y2="126.2" stroke="rgb(0,0,0)"  stroke-width="1.0"/>
<line x1="146.9" y1="140.3" x2="120.0" y2="143.1" stroke="rgb(0,0,0)"  stroke-width="1.0"/>
<line x1="207.3" y1="70.8" x2="213.0" y2="44.4" stroke="rgb(0,0,0)"  stroke-width="1.0"/>
<line x1="213.0" y1="44.4" x2="239.6" y2="41.6" stroke="rgb(0,0,0)"  stroke-width="1.0"/>
<line x1="219.7" y1="50.9" x2="238.4" y2="49.0" stroke="rgb(0,0,0)"  stroke-width="1.0"/>
<line x1="258.0" y1="52.1" x2="269.0" y2="76.7" stroke="rgb(0,0,0)"  stroke-width="1.0"/>
<line x1="269.0" y1="76.7" x2="239.3" y2="103.5" stroke="rgb(0,0,0)"  stroke-width="1.0"/>
<line x1="259.7" y1="75.4" x2="238.9" y2="94.1" stroke="rgb(0,0,0)"  stroke-width="1.0"/>
<line x1="239.3" y1="103.5" x2="215.9" y2="90.0" stroke="rgb(0,0,0)"  stroke-width="1.0"/>
<line x1="307.0" y1="89.1" x2="312.7" y2="115.5" stroke="rgb(0,0,0)"  stroke-width="1.0"/>
<line x1="305.7" y1="136.9" x2="285.6" y2="155.0" stroke="rgb(0,0,0)"  stroke-width="1.0"/>
<line x1="285.6" y1="155.0" x2="260.2" y2="146.7" stroke="rgb(0,0,0)"  stroke-width="1.0"/>
<line x1="282.2" y1="146.3" x2="264.3" y2="140.5" stroke="rgb(0,0,0)"  stroke-width="1.0"/>
<line x1="244.9" y1="129.9" x2="239.3" y2="103.5" stroke="rgb(0,0,0)"  stroke-width="1.0"/>
<line x1="269.0" y1="76.7" x2="307.0" y2="89.1" stroke="rgb(0,0,0)"  stroke-width="1.0"/>
<text x="74.000000" y="300.369951" fill="rgb(255,127,0)"  stroke="rgb(255,127,0)" stroke-width="1" font-size="16" >P</text>
<text x="74.000000" y="340.369951" fill="rgb(255,12,12)"  stroke="rgb(255,12,12)" stroke-width="1" font-size="16" >O</text>
<text x="22.000000" y="300.369951" fill="rgb(255,12,12)"  stroke="rgb(255,12,12)" stroke-width="1" font-size="16" >HO</text>
<text x="74.000000" y="260.369951" fill="rgb(255,12,12)"  stroke="rgb(255,12,12)" stroke-width="1" font-size="16" >OH</text>
<text x="114.000000" y="300.369951" fill="rgb(255,12,12)"  stroke="rgb(255,12,12)" stroke-width="1" font-size="16" >O</text>
<text x="154.000000" y="300.369951" fill="rgb(255,127,0)"  stroke="rgb(255,127,0)" stroke-width="1" font-size="16" >P</text>
<text x="154.000000" y="340.369951" fill="rgb(255,12,12)"  stroke="rgb(255,12,12)" stroke-width="1" font-size="16" >O</text>
<text x="194.000000" y="300.369951" fill="rgb(255,12,12)"  stroke="rgb(255,12,12)" stroke-width="1" font-size="16" >OH</text>
<text x="154.000000" y="260.369951" fill="rgb(255,12,12)"  stroke="rgb(255,12,12)" stroke-width="1" font-size="16" >O</text>
<text x="154.000000" y="220.369951" fill="rgb(255,127,0)"  stroke="rgb(255,127,0)" stroke-width="1" font-size="16" >P</text>
<text x="194.000000" y="220.369951" fill="rgb(255,12,12)"  stroke="rgb(255,12,12)" stroke-width="1" font-size="16" >O</text>
<text x="154.000000" y="180.369951" fill="rgb(255,12,12)"  stroke="rgb(255,12,12)" stroke-width="1" font-size="16" >OH</text>
<text x="114.000000" y="220.369951" fill="rgb(255,12,12)"  stroke="rgb(255,12,12)" stroke-width="1" font-size="16" >O</text>
<text x="153.780876" y="146.906780" fill="rgb(255,12,12)"  stroke="rgb(255,12,12)" stroke-width="1" font-size="16" >O</text>
<text x="46.604630" y="106.229632" fill="rgb(255,12,12)"  stroke="rgb(255,12,12)" stroke-width="1" font-size="16" >HO</text>
<text x="111.275189" y="48.000000" fill="rgb(255,12,12)"  stroke="rgb(255,12,12)" stroke-width="1" font-size="16" >HO</text>
<text x="198.639162" y="91.511410" fill="rgb(12,12,255)"  stroke="rgb(12,12,255)" stroke-width="1" font-size="16" >N</text>
<text x="246.736505" y="48.204368" fill="rgb(12,12,255)"  stroke="rgb(12,12,255)" stroke-width="1" font-size="16" >N</text>
<text x="330.774025" y="70.341641" fill="rgb(255,12,12)"  stroke="rgb(255,12,12)" stroke-width="1" font-size="16" >O</text>
<text x="309.364699" y="136.232770" fill="rgb(12,12,255)"  stroke="rgb(12,12,255)" stroke-width="1" font-size="16" >NH</text>
<text x="289.955374" y="202.123898" fill="rgb(12,12,255)"  stroke="rgb(12,12,255)" stroke-width="1" font-size="16" >NH</text>
<text x="313.955374" y="205.803898" fill="rgb(12,12,255)"  stroke="rgb(12,12,255)" stroke-width="1" font-size="13" >2</text>
<text x="241.596646" y="150.637314" fill="rgb(12,12,255)"  stroke="rgb(12,12,255)" stroke-width="1" font-size="16" >N</text>
<text font-size="18.000000" fill ="black" font-family="sans-serif"
x="10.000000" y="20.000000" ></text>
<title> - OBDepict</title>
</svg>
