<?xml version="1.0"?>
<svg xmlns="http://www.w3.org/2000/svg"
xmlns:xlink="http://www.w3.org/1999/xlink" xmlns:cml="http://www.xml-cml.org/schema" width="322.487" height="280" x="0" y="0" font-family="sans-serif" stroke="rgb(0,0,0)" stroke-width="1"  stroke-linecap="round">
<rect x="0%" y="0%" width="100%" height="100%" stroke-width="0" fill="rgb(255,255,255)"  />
<line x1="143.9" y1="73.0" x2="143.9" y2="100.0" stroke="rgb(0,0,0)"  stroke-width="1.0"/>
<line x1="98.0" y1="166.5" x2="74.6" y2="180.0" stroke="rgb(0,0,0)"  stroke-width="1.0"/>
<line x1="248.6" y1="135.9" x2="247.0" y2="135.9" stroke="rgb(0,0,0)"  stroke-width="1.0"/>
<line x1="249.3" y1="138.1" x2="246.4" y2="138.1" stroke="rgb(0,0,0)"  stroke-width="1.0"/>
<line x1="249.9" y1="140.3" x2="245.8" y2="140.3" stroke="rgb(0,0,0)"  stroke-width="1.0"/>
<line x1="250.6" y1="142.4" x2="245.1" y2="142.4" stroke="rgb(0,0,0)"  stroke-width="1.0"/>
<line x1="251.2" y1="144.6" x2="244.5" y2="144.6" stroke="rgb(0,0,0)"  stroke-width="1.0"/>
<line x1="251.8" y1="146.8" x2="243.8" y2="146.8" stroke="rgb(0,0,0)"  stroke-width="1.0"/>
<line x1="257.6" y1="110.9" x2="269.7" y2="103.9" stroke="rgb(0,0,0)"  stroke-width="1.0"/>
<line x1="260.6" y1="116.1" x2="272.7" y2="109.1" stroke="rgb(0,0,0)"  stroke-width="1.0"/>
<line x1="236.6" y1="113.5" x2="224.5" y2="106.5" stroke="rgb(0,0,0)"  stroke-width="1.0"/>
<line x1="213.2" y1="87.0" x2="213.2" y2="60.0" stroke="rgb(0,0,0)"  stroke-width="1.0"/>
<line x1="213.2" y1="60.0" x2="178.6" y2="40.0" stroke="rgb(0,0,0)"  stroke-width="1.0"/>
<line x1="109.3" y1="147.0" x2="109.3" y2="120.0" stroke="rgb(0,0,0)"  stroke-width="1.0"/>
<line x1="109.3" y1="120.0" x2="143.9" y2="100.0" stroke="rgb(0,0,0)"  stroke-width="1.0"/>
<line x1="51.3" y1="233.5" x2="74.6" y2="220.0" stroke="rgb(0,0,0)"  stroke-width="1.0"/>
<line x1="74.6" y1="220.0" x2="74.6" y2="180.0" stroke="rgb(0,0,0)"  stroke-width="1.0"/>
<line x1="155.2" y1="53.5" x2="178.6" y2="40.0" stroke="rgb(0,0,0)"  stroke-width="1.0"/>
<text x="137.923048" y="68.000000" fill="rgb(255,12,12)"  stroke="rgb(255,12,12)" stroke-width="1" font-size="16" >O</text>
<text x="103.282032" y="168.000000" fill="rgb(255,12,12)"  stroke="rgb(255,12,12)" stroke-width="1" font-size="16" >O</text>
<text x="241.846097" y="128.000000" fill="rgb(255,127,0)"  stroke="rgb(255,127,0)" stroke-width="1" font-size="16" >PH</text>
<text x="252.646097" y="155.968000" fill="rgb(255,12,12)"  stroke="rgb(255,12,12)" stroke-width="1" font-size="32" >-</text>
<text x="241.846097" y="168.000000" fill="rgb(255,12,12)"  stroke="rgb(255,12,12)" stroke-width="1" font-size="16" >O</text>
<text x="276.487113" y="108.000000" fill="rgb(255,12,12)"  stroke="rgb(255,12,12)" stroke-width="1" font-size="16" >O</text>
<text x="207.205081" y="108.000000" fill="rgb(255,12,12)"  stroke="rgb(255,12,12)" stroke-width="1" font-size="16" >O</text>
<text x="22.000000" y="248.000000" fill="rgb(255,12,12)"  stroke="rgb(255,12,12)" stroke-width="1" font-size="16" >HO</text>
<text font-size="18.000000" fill ="black" font-family="sans-serif"
x="10.000000" y="20.000000" ></text>
<title> - OBDepict</title>
</svg>
