<?xml version="1.0"?>
<svg xmlns="http://www.w3.org/2000/svg"
xmlns:xlink="http://www.w3.org/1999/xlink" xmlns:cml="http://www.xml-cml.org/schema" width="273.452" height="200" x="0" y="0" font-family="sans-serif" stroke="rgb(0,0,0)" stroke-width="1"  stroke-linecap="round">
<rect x="0%" y="0%" width="100%" height="100%" stroke-width="0" fill="rgb(255,255,255)"  />
<line x1="167.2" y1="120.0" x2="167.2" y2="147.0" stroke="rgb(0,0,0)"  stroke-width="1.0"/>
<line x1="161.2" y1="120.0" x2="161.2" y2="147.0" stroke="rgb(0,0,0)"  stroke-width="1.0"/>
<line x1="91.5" y1="112.4" x2="79.1" y2="150.4" stroke="rgb(0,0,0)"  stroke-width="1.0"/>
<line x1="52.7" y1="156.0" x2="79.1" y2="150.4" stroke="rgb(0,0,0)"  stroke-width="1.0"/>
<line x1="222.2" y1="46.5" x2="198.8" y2="60.0" stroke="rgb(0,0,0)"  stroke-width="1.0"/>
<line x1="68.0" y1="80.0" x2="91.5" y2="112.4" stroke="rgb(0,0,0)"  stroke-width="1.0"/>
<line x1="77.3" y1="80.6" x2="93.8" y2="103.3" stroke="rgb(0,0,0)"  stroke-width="1.0"/>
<line x1="91.5" y1="112.4" x2="129.5" y2="100.0" stroke="rgb(0,0,0)"  stroke-width="1.0"/>
<line x1="129.5" y1="100.0" x2="129.5" y2="60.0" stroke="rgb(0,0,0)"  stroke-width="1.0"/>
<line x1="122.3" y1="94.0" x2="122.3" y2="66.0" stroke="rgb(0,0,0)"  stroke-width="1.0"/>
<line x1="129.5" y1="60.0" x2="103.9" y2="51.7" stroke="rgb(0,0,0)"  stroke-width="1.0"/>
<line x1="83.8" y1="58.2" x2="68.0" y2="80.0" stroke="rgb(0,0,0)"  stroke-width="1.0"/>
<line x1="198.8" y1="87.0" x2="198.8" y2="60.0" stroke="rgb(0,0,0)"  stroke-width="1.0"/>
<line x1="198.8" y1="60.0" x2="175.6" y2="46.6" stroke="rgb(0,0,0)"  stroke-width="1.0"/>
<line x1="190.0" y1="63.2" x2="173.7" y2="53.8" stroke="rgb(0,0,0)"  stroke-width="1.0"/>
<line x1="152.9" y1="46.5" x2="129.5" y2="60.0" stroke="rgb(0,0,0)"  stroke-width="1.0"/>
<line x1="129.5" y1="100.0" x2="164.2" y2="120.0" stroke="rgb(0,0,0)"  stroke-width="1.0"/>
<line x1="164.2" y1="120.0" x2="187.6" y2="106.5" stroke="rgb(0,0,0)"  stroke-width="1.0"/>
<text x="192.810877" y="108.000000" fill="rgb(12,12,255)"  stroke="rgb(12,12,255)" stroke-width="1" font-size="16" >NH</text>
<text x="158.169861" y="48.000000" fill="rgb(12,12,255)"  stroke="rgb(12,12,255)" stroke-width="1" font-size="16" >N</text>
<text x="158.169861" y="168.000000" fill="rgb(255,12,12)"  stroke="rgb(255,12,12)" stroke-width="1" font-size="16" >O</text>
<text x="14.000000" y="166.719408" fill="rgb(12,12,255)"  stroke="rgb(12,12,255)" stroke-width="1" font-size="16" >H</text>
<text x="26.000000" y="170.399408" fill="rgb(12,12,255)"  stroke="rgb(12,12,255)" stroke-width="1" font-size="13" >2</text>
<text x="32.500000" y="166.719408" fill="rgb(12,12,255)"  stroke="rgb(12,12,255)" stroke-width="1" font-size="16" >N</text>
<text x="85.486584" y="55.639320" fill="rgb(12,12,255)"  stroke="rgb(12,12,255)" stroke-width="1" font-size="16" >N</text>
<text x="85.486584" y="39.639320" fill="rgb(12,12,255)"  stroke="rgb(12,12,255)" stroke-width="1" font-size="16" >H</text>
<text x="229.451893" y="48.000000" fill="rgb(12,12,255)"  stroke="rgb(12,12,255)" stroke-width="1" font-size="16" >NH</text>
<text x="253.451893" y="51.680000" fill="rgb(12,12,255)"  stroke="rgb(12,12,255)" stroke-width="1" font-size="13" >2</text>
<text font-size="18.000000" fill ="black" font-family="sans-serif"
x="10.000000" y="20.000000" ></text>
<title> - OBDepict</title>
</svg>
