<?xml version="1.0"?>
<svg xmlns="http://www.w3.org/2000/svg"
xmlns:xlink="http://www.w3.org/1999/xlink" xmlns:cml="http://www.xml-cml.org/schema" width="495.692" height="260" x="0" y="0" font-family="sans-serif" stroke="rgb(0,0,0)" stroke-width="1"  stroke-linecap="round">
<rect x="0%" y="0%" width="100%" height="100%" stroke-width="0" fill="rgb(255,255,255)"  />
<line x1="114.3" y1="162.0" x2="113.5" y2="163.4" stroke="rgb(0,0,0)"  stroke-width="1.0"/>
<line x1="118.4" y1="163.6" x2="116.9" y2="166.1" stroke="rgb(0,0,0)"  stroke-width="1.0"/>
<line x1="122.4" y1="165.2" x2="120.3" y2="168.8" stroke="rgb(0,0,0)"  stroke-width="1.0"/>
<line x1="126.4" y1="166.8" x2="123.7" y2="171.5" stroke="rgb(0,0,0)"  stroke-width="1.0"/>
<line x1="130.5" y1="168.3" x2="127.1" y2="174.2" stroke="rgb(0,0,0)"  stroke-width="1.0"/>
<line x1="134.5" y1="169.9" x2="130.5" y2="176.9" stroke="rgb(0,0,0)"  stroke-width="1.0"/>
<polygon points="247.846097 120.000000 269.055578 103.135898 273.055578 110.064102 " stroke-width="1.000000" fill="rgb(0,0,0)"  stroke="rgb(0,0,0)" />
<polygon points="317.128129 160.000000 295.918648 176.864102 291.918648 169.935898 " stroke-width="1.000000" fill="rgb(0,0,0)"  stroke="rgb(0,0,0)" />
<line x1="75.4" y1="185.4" x2="73.8" y2="185.4" stroke="rgb(0,0,0)"  stroke-width="1.0"/>
<line x1="76.1" y1="189.6" x2="73.2" y2="189.6" stroke="rgb(0,0,0)"  stroke-width="1.0"/>
<line x1="76.7" y1="193.9" x2="72.6" y2="193.9" stroke="rgb(0,0,0)"  stroke-width="1.0"/>
<line x1="77.4" y1="198.2" x2="71.9" y2="198.2" stroke="rgb(0,0,0)"  stroke-width="1.0"/>
<line x1="78.0" y1="202.5" x2="71.3" y2="202.5" stroke="rgb(0,0,0)"  stroke-width="1.0"/>
<line x1="78.6" y1="206.8" x2="70.6" y2="206.8" stroke="rgb(0,0,0)"  stroke-width="1.0"/>
<polygon points="351.769145 180.000000 355.769145 206.800000 347.769145 206.800000 " stroke-width="1.000000" fill="rgb(0,0,0)"  stroke="rgb(0,0,0)" />
<polygon points="178.564065 120.000000 153.354584 110.064102 157.354584 103.135898 " stroke-width="1.000000" fill="rgb(0,0,0)"  stroke="rgb(0,0,0)" />
<line x1="391.5" y1="162.0" x2="390.7" y2="163.4" stroke="rgb(0,0,0)"  stroke-width="1.0"/>
<line x1="395.5" y1="163.6" x2="394.0" y2="166.1" stroke="rgb(0,0,0)"  stroke-width="1.0"/>
<line x1="399.5" y1="165.2" x2="397.4" y2="168.8" stroke="rgb(0,0,0)"  stroke-width="1.0"/>
<line x1="403.6" y1="166.8" x2="400.8" y2="171.5" stroke="rgb(0,0,0)"  stroke-width="1.0"/>
<line x1="407.6" y1="168.3" x2="404.2" y2="174.2" stroke="rgb(0,0,0)"  stroke-width="1.0"/>
<line x1="411.6" y1="169.9" x2="407.6" y2="176.9" stroke="rgb(0,0,0)"  stroke-width="1.0"/>
<line x1="174.3" y1="163.4" x2="173.5" y2="162.0" stroke="rgb(0,0,0)"  stroke-width="1.0"/>
<line x1="170.9" y1="166.1" x2="169.5" y2="163.6" stroke="rgb(0,0,0)"  stroke-width="1.0"/>
<line x1="167.5" y1="168.8" x2="165.5" y2="165.2" stroke="rgb(0,0,0)"  stroke-width="1.0"/>
<line x1="164.1" y1="171.5" x2="161.4" y2="166.8" stroke="rgb(0,0,0)"  stroke-width="1.0"/>
<line x1="160.7" y1="174.2" x2="157.4" y2="168.3" stroke="rgb(0,0,0)"  stroke-width="1.0"/>
<line x1="157.4" y1="176.9" x2="153.4" y2="169.9" stroke="rgb(0,0,0)"  stroke-width="1.0"/>
<line x1="388.4" y1="115.0" x2="389.8" y2="115.8" stroke="rgb(0,0,0)"  stroke-width="1.0"/>
<line x1="390.0" y1="110.9" x2="392.5" y2="112.4" stroke="rgb(0,0,0)"  stroke-width="1.0"/>
<line x1="391.6" y1="106.9" x2="395.2" y2="109.0" stroke="rgb(0,0,0)"  stroke-width="1.0"/>
<line x1="393.2" y1="102.9" x2="397.9" y2="105.6" stroke="rgb(0,0,0)"  stroke-width="1.0"/>
<line x1="394.8" y1="98.8" x2="400.6" y2="102.2" stroke="rgb(0,0,0)"  stroke-width="1.0"/>
<line x1="396.3" y1="94.8" x2="403.3" y2="98.8" stroke="rgb(0,0,0)"  stroke-width="1.0"/>
<line x1="386.4" y1="120.0" x2="413.4" y2="120.0" stroke="rgb(0,0,0)"  stroke-width="1.0"/>
<line x1="73.8" y1="92.0" x2="75.4" y2="92.0" stroke="rgb(0,0,0)"  stroke-width="1.0"/>
<line x1="73.2" y1="85.6" x2="76.1" y2="85.6" stroke="rgb(0,0,0)"  stroke-width="1.0"/>
<line x1="72.6" y1="79.2" x2="76.7" y2="79.2" stroke="rgb(0,0,0)"  stroke-width="1.0"/>
<line x1="71.9" y1="72.8" x2="77.4" y2="72.8" stroke="rgb(0,0,0)"  stroke-width="1.0"/>
<line x1="71.3" y1="66.4" x2="78.0" y2="66.4" stroke="rgb(0,0,0)"  stroke-width="1.0"/>
<line x1="70.6" y1="60.0" x2="78.6" y2="60.0" stroke="rgb(0,0,0)"  stroke-width="1.0"/>
<polygon points="213.205081 180.000000 217.205081 206.800000 209.205081 206.800000 " stroke-width="1.000000" fill="rgb(0,0,0)"  stroke="rgb(0,0,0)" />
<line x1="74.6" y1="60.0" x2="98.0" y2="46.5" stroke="rgb(0,0,0)"  stroke-width="1.0"/>
<line x1="252.9" y1="162.0" x2="252.1" y2="163.4" stroke="rgb(0,0,0)"  stroke-width="1.0"/>
<line x1="256.9" y1="163.6" x2="255.5" y2="166.1" stroke="rgb(0,0,0)"  stroke-width="1.0"/>
<line x1="261.0" y1="165.2" x2="258.9" y2="168.8" stroke="rgb(0,0,0)"  stroke-width="1.0"/>
<line x1="265.0" y1="166.8" x2="262.3" y2="171.5" stroke="rgb(0,0,0)"  stroke-width="1.0"/>
<line x1="269.0" y1="168.3" x2="265.7" y2="174.2" stroke="rgb(0,0,0)"  stroke-width="1.0"/>
<line x1="273.1" y1="169.9" x2="269.1" y2="176.9" stroke="rgb(0,0,0)"  stroke-width="1.0"/>
<line x1="432.3" y1="173.5" x2="444.4" y2="166.5" stroke="rgb(0,0,0)"  stroke-width="1.0"/>
<line x1="213.2" y1="100.0" x2="247.8" y2="120.0" stroke="rgb(0,0,0)"  stroke-width="1.0"/>
<line x1="247.8" y1="120.0" x2="247.8" y2="160.0" stroke="rgb(0,0,0)"  stroke-width="1.0"/>
<line x1="247.8" y1="160.0" x2="213.2" y2="180.0" stroke="rgb(0,0,0)"  stroke-width="1.0"/>
<line x1="213.2" y1="180.0" x2="178.6" y2="160.0" stroke="rgb(0,0,0)"  stroke-width="1.0"/>
<line x1="178.6" y1="160.0" x2="178.6" y2="120.0" stroke="rgb(0,0,0)"  stroke-width="1.0"/>
<line x1="178.6" y1="120.0" x2="213.2" y2="100.0" stroke="rgb(0,0,0)"  stroke-width="1.0"/>
<line x1="109.3" y1="160.0" x2="74.6" y2="180.0" stroke="rgb(0,0,0)"  stroke-width="1.0"/>
<line x1="74.6" y1="180.0" x2="40.0" y2="160.0" stroke="rgb(0,0,0)"  stroke-width="1.0"/>
<line x1="40.0" y1="160.0" x2="40.0" y2="120.0" stroke="rgb(0,0,0)"  stroke-width="1.0"/>
<line x1="40.0" y1="120.0" x2="74.6" y2="100.0" stroke="rgb(0,0,0)"  stroke-width="1.0"/>
<line x1="74.6" y1="100.0" x2="98.0" y2="113.5" stroke="rgb(0,0,0)"  stroke-width="1.0"/>
<line x1="109.3" y1="133.0" x2="109.3" y2="160.0" stroke="rgb(0,0,0)"  stroke-width="1.0"/>
<line x1="317.1" y1="160.0" x2="351.8" y2="180.0" stroke="rgb(0,0,0)"  stroke-width="1.0"/>
<line x1="351.8" y1="180.0" x2="386.4" y2="160.0" stroke="rgb(0,0,0)"  stroke-width="1.0"/>
<line x1="386.4" y1="160.0" x2="386.4" y2="120.0" stroke="rgb(0,0,0)"  stroke-width="1.0"/>
<line x1="386.4" y1="120.0" x2="351.8" y2="100.0" stroke="rgb(0,0,0)"  stroke-width="1.0"/>
<line x1="351.8" y1="100.0" x2="328.4" y2="113.5" stroke="rgb(0,0,0)"  stroke-width="1.0"/>
<line x1="317.1" y1="133.0" x2="317.1" y2="160.0" stroke="rgb(0,0,0)"  stroke-width="1.0"/>
<text x="137.923048" y="188.000000" fill="rgb(255,12,12)"  stroke="rgb(255,12,12)" stroke-width="1" font-size="16" >O</text>
<text x="278.487113" y="108.000000" fill="rgb(12,12,255)"  stroke="rgb(12,12,255)" stroke-width="1" font-size="16" >NH</text>
<text x="302.487113" y="111.680000" fill="rgb(12,12,255)"  stroke="rgb(12,12,255)" stroke-width="1" font-size="13" >2</text>
<text x="70.641016" y="228.000000" fill="rgb(12,12,255)"  stroke="rgb(12,12,255)" stroke-width="1" font-size="16" >NH</text>
<text x="94.641016" y="231.680000" fill="rgb(12,12,255)"  stroke="rgb(12,12,255)" stroke-width="1" font-size="13" >2</text>
<text x="345.769145" y="228.000000" fill="rgb(255,12,12)"  stroke="rgb(255,12,12)" stroke-width="1" font-size="16" >OH</text>
<text x="117.923048" y="108.000000" fill="rgb(12,12,255)"  stroke="rgb(12,12,255)" stroke-width="1" font-size="16" >H</text>
<text x="129.923048" y="111.680000" fill="rgb(12,12,255)"  stroke="rgb(12,12,255)" stroke-width="1" font-size="13" >2</text>
<text x="136.423048" y="108.000000" fill="rgb(12,12,255)"  stroke="rgb(12,12,255)" stroke-width="1" font-size="16" >N</text>
<text x="415.051178" y="188.000000" fill="rgb(12,12,255)"  stroke="rgb(12,12,255)" stroke-width="1" font-size="16" >N</text>
<text x="415.051178" y="204.000000" fill="rgb(12,12,255)"  stroke="rgb(12,12,255)" stroke-width="1" font-size="16" >H</text>
<text x="400.410162" y="93.358984" fill="rgb(255,12,12)"  stroke="rgb(255,12,12)" stroke-width="1" font-size="16" >OH</text>
<text x="103.282032" y="128.000000" fill="rgb(255,12,12)"  stroke="rgb(255,12,12)" stroke-width="1" font-size="16" >O</text>
<text x="207.205081" y="228.000000" fill="rgb(255,12,12)"  stroke="rgb(255,12,12)" stroke-width="1" font-size="16" >OH</text>
<text x="311.128129" y="128.000000" fill="rgb(255,12,12)"  stroke="rgb(255,12,12)" stroke-width="1" font-size="16" >O</text>
<text x="103.282032" y="48.000000" fill="rgb(255,12,12)"  stroke="rgb(255,12,12)" stroke-width="1" font-size="16" >OH</text>
<text x="276.487113" y="188.000000" fill="rgb(255,12,12)"  stroke="rgb(255,12,12)" stroke-width="1" font-size="16" >O</text>
<text x="422.410162" y="128.000000" fill="rgb(102,102,102)"  stroke="rgb(102,102,102)" stroke-width="1" font-size="16" >CH</text>
<text x="446.410162" y="131.680000" fill="rgb(102,102,102)"  stroke="rgb(102,102,102)" stroke-width="1" font-size="13" >3</text>
<text x="451.692194" y="168.000000" fill="rgb(102,102,102)"  stroke="rgb(102,102,102)" stroke-width="1" font-size="16" >CH</text>
<text x="475.692194" y="171.680000" fill="rgb(102,102,102)"  stroke="rgb(102,102,102)" stroke-width="1" font-size="13" >3</text>
<text font-size="18.000000" fill ="black" font-family="sans-serif"
x="10.000000" y="20.000000" ></text>
<title> - OBDepict</title>
</svg>
