<?xml version="1.0"?>
<svg xmlns="http://www.w3.org/2000/svg"
xmlns:xlink="http://www.w3.org/1999/xlink" xmlns:cml="http://www.xml-cml.org/schema" width="343.274" height="247.23" x="0" y="0" font-family="sans-serif" stroke="rgb(0,0,0)" stroke-width="1"  stroke-linecap="round">
<rect x="0%" y="0%" width="100%" height="100%" stroke-width="0" fill="rgb(255,255,255)"  />
<line x1="263.3" y1="74.6" x2="249.8" y2="98.0" stroke="rgb(0,0,0)"  stroke-width="1.0"/>
<line x1="263.3" y1="71.6" x2="290.3" y2="71.6" stroke="rgb(0,0,0)"  stroke-width="1.0"/>
<line x1="263.3" y1="77.6" x2="290.3" y2="77.6" stroke="rgb(0,0,0)"  stroke-width="1.0"/>
<line x1="263.3" y1="74.6" x2="243.3" y2="40.0" stroke="rgb(0,0,0)"  stroke-width="1.0"/>
<line x1="243.3" y1="40.0" x2="203.3" y2="40.0" stroke="rgb(0,0,0)"  stroke-width="1.0"/>
<line x1="203.3" y1="40.0" x2="183.3" y2="74.6" stroke="rgb(0,0,0)"  stroke-width="1.0"/>
<line x1="183.3" y1="74.6" x2="203.3" y2="109.3" stroke="rgb(0,0,0)"  stroke-width="1.0"/>
<line x1="186.6" y1="136.6" x2="188.0" y2="137.4" stroke="rgb(0,0,0)"  stroke-width="1.0"/>
<line x1="189.2" y1="130.7" x2="191.7" y2="132.2" stroke="rgb(0,0,0)"  stroke-width="1.0"/>
<line x1="191.9" y1="124.9" x2="195.5" y2="126.9" stroke="rgb(0,0,0)"  stroke-width="1.0"/>
<line x1="194.5" y1="119.0" x2="199.2" y2="121.7" stroke="rgb(0,0,0)"  stroke-width="1.0"/>
<line x1="197.2" y1="113.1" x2="203.0" y2="116.5" stroke="rgb(0,0,0)"  stroke-width="1.0"/>
<line x1="199.8" y1="107.3" x2="206.7" y2="111.3" stroke="rgb(0,0,0)"  stroke-width="1.0"/>
<line x1="142.5" y1="190.5" x2="141.7" y2="191.9" stroke="rgb(0,0,0)"  stroke-width="1.0"/>
<line x1="148.4" y1="193.2" x2="146.9" y2="195.7" stroke="rgb(0,0,0)"  stroke-width="1.0"/>
<line x1="154.2" y1="195.8" x2="152.1" y2="199.4" stroke="rgb(0,0,0)"  stroke-width="1.0"/>
<line x1="160.1" y1="198.5" x2="157.4" y2="203.2" stroke="rgb(0,0,0)"  stroke-width="1.0"/>
<line x1="166.0" y1="201.1" x2="162.6" y2="206.9" stroke="rgb(0,0,0)"  stroke-width="1.0"/>
<line x1="171.8" y1="203.8" x2="167.8" y2="210.7" stroke="rgb(0,0,0)"  stroke-width="1.0"/>
<line x1="78.5" y1="157.8" x2="52.1" y2="152.2" stroke="rgb(0,0,0)"  stroke-width="1.0"/>
<line x1="79.7" y1="151.9" x2="53.3" y2="146.3" stroke="rgb(0,0,0)"  stroke-width="1.0"/>
<line x1="138.5" y1="146.1" x2="139.3" y2="144.7" stroke="rgb(0,0,0)"  stroke-width="1.0"/>
<line x1="134.4" y1="144.5" x2="135.9" y2="142.0" stroke="rgb(0,0,0)"  stroke-width="1.0"/>
<line x1="130.4" y1="142.9" x2="132.5" y2="139.3" stroke="rgb(0,0,0)"  stroke-width="1.0"/>
<line x1="126.4" y1="141.3" x2="129.1" y2="136.6" stroke="rgb(0,0,0)"  stroke-width="1.0"/>
<line x1="122.3" y1="139.8" x2="125.7" y2="133.9" stroke="rgb(0,0,0)"  stroke-width="1.0"/>
<line x1="118.3" y1="138.2" x2="122.3" y2="131.2" stroke="rgb(0,0,0)"  stroke-width="1.0"/>
<line x1="183.3" y1="143.9" x2="194.3" y2="168.6" stroke="rgb(0,0,0)"  stroke-width="1.0"/>
<line x1="189.9" y1="189.2" x2="169.8" y2="207.2" stroke="rgb(0,0,0)"  stroke-width="1.0"/>
<line x1="169.8" y1="207.2" x2="135.2" y2="187.2" stroke="rgb(0,0,0)"  stroke-width="1.0"/>
<line x1="135.2" y1="187.2" x2="143.5" y2="148.1" stroke="rgb(0,0,0)"  stroke-width="1.0"/>
<line x1="143.5" y1="148.1" x2="183.3" y2="143.9" stroke="rgb(0,0,0)"  stroke-width="1.0"/>
<line x1="90.1" y1="179.5" x2="79.1" y2="154.9" stroke="rgb(0,0,0)"  stroke-width="1.0"/>
<line x1="79.1" y1="154.9" x2="99.2" y2="136.8" stroke="rgb(0,0,0)"  stroke-width="1.0"/>
<line x1="120.1" y1="134.6" x2="143.5" y2="148.1" stroke="rgb(0,0,0)"  stroke-width="1.0"/>
<line x1="135.2" y1="187.2" x2="108.3" y2="190.1" stroke="rgb(0,0,0)"  stroke-width="1.0"/>
<text x="248.073589" y="105.250032" fill="rgb(255,12,12)"  stroke="rgb(255,12,12)" stroke-width="1" font-size="32" >-</text>
<text x="237.273589" y="117.282032" fill="rgb(255,12,12)"  stroke="rgb(255,12,12)" stroke-width="1" font-size="16" >O</text>
<text x="297.273589" y="82.641016" fill="rgb(255,12,12)"  stroke="rgb(255,12,12)" stroke-width="1" font-size="16" >O</text>
<text x="193.543055" y="188.464867" fill="rgb(178,178,0)"  stroke="rgb(178,178,0)" stroke-width="1" font-size="16" >S</text>
<text x="89.395370" y="199.411230" fill="rgb(12,12,255)"  stroke="rgb(12,12,255)" stroke-width="1" font-size="16" >N</text>
<text x="89.395370" y="215.411230" fill="rgb(12,12,255)"  stroke="rgb(12,12,255)" stroke-width="1" font-size="16" >H</text>
<text x="34.000000" y="154.552944" fill="rgb(255,12,12)"  stroke="rgb(255,12,12)" stroke-width="1" font-size="16" >O</text>
<text x="102.851697" y="136.104187" fill="rgb(12,12,255)"  stroke="rgb(12,12,255)" stroke-width="1" font-size="16" >N</text>
<text x="102.851697" y="120.104187" fill="rgb(12,12,255)"  stroke="rgb(12,12,255)" stroke-width="1" font-size="16" >H</text>
<text font-size="18.000000" fill ="black" font-family="sans-serif"
x="10.000000" y="20.000000" >1f27 biotin aptamer (Xray 1.3A)</text>
<title>1f27 biotin aptamer (Xray 1.3A) - OBDepict</title>
</svg>
