<?xml version="1.0"?>
<svg xmlns="http://www.w3.org/2000/svg"
xmlns:xlink="http://www.w3.org/1999/xlink" xmlns:cml="http://www.xml-cml.org/schema" width="586.801" height="411.261" x="0" y="0" font-family="sans-serif" stroke="rgb(0,0,0)" stroke-width="1"  stroke-linecap="round">
<rect x="0%" y="0%" width="100%" height="100%" stroke-width="0" fill="rgb(255,255,255)"  />
<line x1="408.2" y1="140.0" x2="384.9" y2="153.5" stroke="rgb(0,0,0)"  stroke-width="1.0"/>
<line x1="373.6" y1="173.0" x2="373.6" y2="200.0" stroke="rgb(0,0,0)"  stroke-width="1.0"/>
<line x1="408.2" y1="100.0" x2="384.9" y2="86.5" stroke="rgb(0,0,0)"  stroke-width="1.0"/>
<line x1="442.9" y1="80.0" x2="442.9" y2="53.0" stroke="rgb(0,0,0)"  stroke-width="1.0"/>
<line x1="477.5" y1="100.0" x2="500.9" y2="86.5" stroke="rgb(0,0,0)"  stroke-width="1.0"/>
<line x1="477.5" y1="140.0" x2="512.2" y2="160.0" stroke="rgb(0,0,0)"  stroke-width="1.0"/>
<line x1="512.2" y1="160.0" x2="535.5" y2="146.5" stroke="rgb(0,0,0)"  stroke-width="1.0"/>
<line x1="373.6" y1="280.0" x2="373.6" y2="307.0" stroke="rgb(0,0,0)"  stroke-width="1.0"/>
<line x1="408.2" y1="220.0" x2="431.6" y2="206.5" stroke="rgb(0,0,0)"  stroke-width="1.0"/>
<line x1="339.0" y1="220.0" x2="315.6" y2="206.5" stroke="rgb(0,0,0)"  stroke-width="1.0"/>
<line x1="293.1" y1="206.5" x2="269.7" y2="220.0" stroke="rgb(0,0,0)"  stroke-width="1.0"/>
<line x1="339.0" y1="260.0" x2="315.6" y2="273.5" stroke="rgb(0,0,0)"  stroke-width="1.0"/>
<line x1="233.1" y1="203.7" x2="227.5" y2="177.3" stroke="rgb(0,0,0)"  stroke-width="1.0"/>
<line x1="206.4" y1="233.5" x2="179.5" y2="230.6" stroke="rgb(0,0,0)"  stroke-width="1.0"/>
<line x1="158.9" y1="239.8" x2="143.1" y2="261.6" stroke="rgb(0,0,0)"  stroke-width="1.0"/>
<line x1="226.4" y1="268.1" x2="210.1" y2="304.6" stroke="rgb(0,0,0)"  stroke-width="1.0"/>
<line x1="210.1" y1="304.6" x2="226.0" y2="326.5" stroke="rgb(0,0,0)"  stroke-width="1.0"/>
<line x1="103.3" y1="257.5" x2="92.3" y2="232.8" stroke="rgb(0,0,0)"  stroke-width="1.0"/>
<line x1="79.8" y1="289.8" x2="52.9" y2="287.0" stroke="rgb(0,0,0)"  stroke-width="1.0"/>
<line x1="96.1" y1="326.4" x2="80.2" y2="348.2" stroke="rgb(0,0,0)"  stroke-width="1.0"/>
<line x1="135.8" y1="330.5" x2="152.1" y2="367.1" stroke="rgb(0,0,0)"  stroke-width="1.0"/>
<line x1="152.1" y1="367.1" x2="179.0" y2="369.9" stroke="rgb(0,0,0)"  stroke-width="1.0"/>
<line x1="269.7" y1="220.0" x2="233.1" y2="203.7" stroke="rgb(0,0,0)"  stroke-width="1.0"/>
<line x1="233.1" y1="203.7" x2="206.4" y2="233.5" stroke="rgb(0,0,0)"  stroke-width="1.0"/>
<line x1="206.4" y1="233.5" x2="226.4" y2="268.1" stroke="rgb(0,0,0)"  stroke-width="1.0"/>
<line x1="226.4" y1="268.1" x2="252.8" y2="262.5" stroke="rgb(0,0,0)"  stroke-width="1.0"/>
<line x1="266.9" y1="246.9" x2="269.7" y2="220.0" stroke="rgb(0,0,0)"  stroke-width="1.0"/>
<line x1="408.2" y1="140.0" x2="408.2" y2="100.0" stroke="rgb(0,0,0)"  stroke-width="1.0"/>
<line x1="408.2" y1="100.0" x2="442.9" y2="80.0" stroke="rgb(0,0,0)"  stroke-width="1.0"/>
<line x1="442.9" y1="80.0" x2="477.5" y2="100.0" stroke="rgb(0,0,0)"  stroke-width="1.0"/>
<line x1="477.5" y1="100.0" x2="477.5" y2="140.0" stroke="rgb(0,0,0)"  stroke-width="1.0"/>
<line x1="477.5" y1="140.0" x2="454.1" y2="153.5" stroke="rgb(0,0,0)"  stroke-width="1.0"/>
<line x1="431.6" y1="153.5" x2="408.2" y2="140.0" stroke="rgb(0,0,0)"  stroke-width="1.0"/>
<line x1="408.2" y1="260.0" x2="373.6" y2="280.0" stroke="rgb(0,0,0)"  stroke-width="1.0"/>
<line x1="373.6" y1="280.0" x2="339.0" y2="260.0" stroke="rgb(0,0,0)"  stroke-width="1.0"/>
<line x1="339.0" y1="260.0" x2="339.0" y2="220.0" stroke="rgb(0,0,0)"  stroke-width="1.0"/>
<line x1="339.0" y1="220.0" x2="373.6" y2="200.0" stroke="rgb(0,0,0)"  stroke-width="1.0"/>
<line x1="373.6" y1="200.0" x2="408.2" y2="220.0" stroke="rgb(0,0,0)"  stroke-width="1.0"/>
<line x1="408.2" y1="220.0" x2="408.2" y2="260.0" stroke="rgb(0,0,0)"  stroke-width="1.0"/>
<line x1="143.1" y1="261.6" x2="103.3" y2="257.5" stroke="rgb(0,0,0)"  stroke-width="1.0"/>
<line x1="103.3" y1="257.5" x2="79.8" y2="289.8" stroke="rgb(0,0,0)"  stroke-width="1.0"/>
<line x1="79.8" y1="289.8" x2="96.1" y2="326.4" stroke="rgb(0,0,0)"  stroke-width="1.0"/>
<line x1="96.1" y1="326.4" x2="135.8" y2="330.5" stroke="rgb(0,0,0)"  stroke-width="1.0"/>
<line x1="135.8" y1="330.5" x2="151.7" y2="308.7" stroke="rgb(0,0,0)"  stroke-width="1.0"/>
<line x1="154.1" y1="286.3" x2="143.1" y2="261.6" stroke="rgb(0,0,0)"  stroke-width="1.0"/>
<text x="367.595539" y="168.000000" fill="rgb(255,12,12)"  stroke="rgb(255,12,12)" stroke-width="1" font-size="16" >O</text>
<text x="347.595539" y="88.000000" fill="rgb(12,12,255)"  stroke="rgb(12,12,255)" stroke-width="1" font-size="16" >H</text>
<text x="359.595539" y="91.680000" fill="rgb(12,12,255)"  stroke="rgb(12,12,255)" stroke-width="1" font-size="13" >2</text>
<text x="366.095539" y="88.000000" fill="rgb(12,12,255)"  stroke="rgb(12,12,255)" stroke-width="1" font-size="16" >N</text>
<text x="436.877571" y="48.000000" fill="rgb(255,12,12)"  stroke="rgb(255,12,12)" stroke-width="1" font-size="16" >OH</text>
<text x="506.159603" y="88.000000" fill="rgb(255,12,12)"  stroke="rgb(255,12,12)" stroke-width="1" font-size="16" >OH</text>
<text x="436.877571" y="168.000000" fill="rgb(255,12,12)"  stroke="rgb(255,12,12)" stroke-width="1" font-size="16" >O</text>
<text x="540.800619" y="148.000000" fill="rgb(255,12,12)"  stroke="rgb(255,12,12)" stroke-width="1" font-size="16" >OH</text>
<text x="369.595539" y="328.000000" fill="rgb(12,12,255)"  stroke="rgb(12,12,255)" stroke-width="1" font-size="16" >NH</text>
<text x="393.595539" y="331.680000" fill="rgb(12,12,255)"  stroke="rgb(12,12,255)" stroke-width="1" font-size="13" >2</text>
<text x="438.877571" y="208.000000" fill="rgb(12,12,255)"  stroke="rgb(12,12,255)" stroke-width="1" font-size="16" >NH</text>
<text x="462.877571" y="211.680000" fill="rgb(12,12,255)"  stroke="rgb(12,12,255)" stroke-width="1" font-size="13" >2</text>
<text x="298.313506" y="208.000000" fill="rgb(255,12,12)"  stroke="rgb(255,12,12)" stroke-width="1" font-size="16" >O</text>
<text x="286.313506" y="288.000000" fill="rgb(255,12,12)"  stroke="rgb(255,12,12)" stroke-width="1" font-size="16" >HO</text>
<text x="206.814204" y="172.604630" fill="rgb(255,12,12)"  stroke="rgb(255,12,12)" stroke-width="1" font-size="16" >HO</text>
<text x="160.584572" y="237.275189" fill="rgb(255,12,12)"  stroke="rgb(255,12,12)" stroke-width="1" font-size="16" >O</text>
<text x="259.491352" y="267.780876" fill="rgb(255,12,12)"  stroke="rgb(255,12,12)" stroke-width="1" font-size="16" >O</text>
<text x="227.607392" y="344.999842" fill="rgb(255,12,12)"  stroke="rgb(255,12,12)" stroke-width="1" font-size="16" >OH</text>
<text x="61.022820" y="228.912912" fill="rgb(12,12,255)"  stroke="rgb(12,12,255)" stroke-width="1" font-size="16" >H</text>
<text x="73.022820" y="232.592912" fill="rgb(12,12,255)"  stroke="rgb(12,12,255)" stroke-width="1" font-size="13" >2</text>
<text x="79.522820" y="228.912912" fill="rgb(12,12,255)"  stroke="rgb(12,12,255)" stroke-width="1" font-size="16" >N</text>
<text x="22.000000" y="293.634271" fill="rgb(255,12,12)"  stroke="rgb(255,12,12)" stroke-width="1" font-size="16" >HO</text>
<text x="54.538931" y="366.717908" fill="rgb(255,12,12)"  stroke="rgb(255,12,12)" stroke-width="1" font-size="16" >HO</text>
<text x="153.342627" y="306.177687" fill="rgb(255,12,12)"  stroke="rgb(255,12,12)" stroke-width="1" font-size="16" >O</text>
<text x="187.881559" y="379.261323" fill="rgb(12,12,255)"  stroke="rgb(12,12,255)" stroke-width="1" font-size="16" >NH</text>
<text x="211.881559" y="382.941323" fill="rgb(12,12,255)"  stroke="rgb(12,12,255)" stroke-width="1" font-size="13" >2</text>
<text font-size="18.000000" fill ="black" font-family="sans-serif"
x="10.000000" y="20.000000" >1j7t</text>
<title>1j7t - OBDepict</title>
</svg>
