<?xml version="1.0"?>
<svg xmlns="http://www.w3.org/2000/svg"
xmlns:xlink="http://www.w3.org/1999/xlink" xmlns:cml="http://www.xml-cml.org/schema" width="340.118" height="327.846" x="0" y="0" font-family="sans-serif" stroke="rgb(0,0,0)" stroke-width="1"  stroke-linecap="round">
<rect x="0%" y="0%" width="100%" height="100%" stroke-width="0" fill="rgb(255,255,255)"  />
<line x1="286.6" y1="51.3" x2="300.1" y2="74.6" stroke="rgb(0,0,0)"  stroke-width="1.0"/>
<line x1="300.1" y1="74.6" x2="280.1" y2="109.3" stroke="rgb(0,0,0)"  stroke-width="1.0"/>
<line x1="150.4" y1="276.6" x2="163.9" y2="253.2" stroke="rgb(0,0,0)"  stroke-width="1.0"/>
<line x1="163.9" y1="253.2" x2="143.9" y2="218.6" stroke="rgb(0,0,0)"  stroke-width="1.0"/>
<line x1="136.6" y1="215.3" x2="137.4" y2="213.9" stroke="rgb(0,0,0)"  stroke-width="1.0"/>
<line x1="130.7" y1="212.6" x2="132.2" y2="210.1" stroke="rgb(0,0,0)"  stroke-width="1.0"/>
<line x1="124.9" y1="210.0" x2="126.9" y2="206.4" stroke="rgb(0,0,0)"  stroke-width="1.0"/>
<line x1="119.0" y1="207.3" x2="121.7" y2="202.6" stroke="rgb(0,0,0)"  stroke-width="1.0"/>
<line x1="113.1" y1="204.7" x2="116.5" y2="198.9" stroke="rgb(0,0,0)"  stroke-width="1.0"/>
<line x1="107.3" y1="202.0" x2="111.3" y2="195.1" stroke="rgb(0,0,0)"  stroke-width="1.0"/>
<line x1="137.4" y1="143.3" x2="136.6" y2="141.9" stroke="rgb(0,0,0)"  stroke-width="1.0"/>
<line x1="132.2" y1="147.0" x2="130.7" y2="144.5" stroke="rgb(0,0,0)"  stroke-width="1.0"/>
<line x1="126.9" y1="150.8" x2="124.9" y2="147.2" stroke="rgb(0,0,0)"  stroke-width="1.0"/>
<line x1="121.7" y1="154.5" x2="119.0" y2="149.8" stroke="rgb(0,0,0)"  stroke-width="1.0"/>
<line x1="116.5" y1="158.3" x2="113.1" y2="152.5" stroke="rgb(0,0,0)"  stroke-width="1.0"/>
<line x1="111.3" y1="162.0" x2="107.3" y2="155.1" stroke="rgb(0,0,0)"  stroke-width="1.0"/>
<line x1="280.1" y1="109.3" x2="300.1" y2="143.9" stroke="rgb(0,0,0)"  stroke-width="1.0"/>
<line x1="300.1" y1="143.9" x2="280.1" y2="178.6" stroke="rgb(0,0,0)"  stroke-width="1.0"/>
<line x1="227.8" y1="121.5" x2="219.5" y2="147.1" stroke="rgb(0,0,0)"  stroke-width="1.0"/>
<line x1="222.1" y1="119.6" x2="213.8" y2="145.3" stroke="rgb(0,0,0)"  stroke-width="1.0"/>
<line x1="185.9" y1="155.3" x2="186.4" y2="156.9" stroke="rgb(0,0,0)"  stroke-width="1.0"/>
<line x1="191.8" y1="152.7" x2="192.7" y2="155.5" stroke="rgb(0,0,0)"  stroke-width="1.0"/>
<line x1="197.7" y1="150.2" x2="199.0" y2="154.1" stroke="rgb(0,0,0)"  stroke-width="1.0"/>
<line x1="203.6" y1="147.6" x2="205.3" y2="152.7" stroke="rgb(0,0,0)"  stroke-width="1.0"/>
<line x1="209.5" y1="145.0" x2="211.6" y2="151.4" stroke="rgb(0,0,0)"  stroke-width="1.0"/>
<line x1="215.4" y1="142.4" x2="217.8" y2="150.0" stroke="rgb(0,0,0)"  stroke-width="1.0"/>
<line x1="280.1" y1="178.6" x2="253.1" y2="178.6" stroke="rgb(0,0,0)"  stroke-width="1.0"/>
<line x1="222.1" y1="237.5" x2="213.8" y2="211.9" stroke="rgb(0,0,0)"  stroke-width="1.0"/>
<line x1="227.8" y1="235.7" x2="219.5" y2="210.0" stroke="rgb(0,0,0)"  stroke-width="1.0"/>
<line x1="186.4" y1="200.3" x2="185.9" y2="201.8" stroke="rgb(0,0,0)"  stroke-width="1.0"/>
<line x1="192.7" y1="201.6" x2="191.8" y2="204.4" stroke="rgb(0,0,0)"  stroke-width="1.0"/>
<line x1="199.0" y1="203.0" x2="197.7" y2="207.0" stroke="rgb(0,0,0)"  stroke-width="1.0"/>
<line x1="205.3" y1="204.4" x2="203.6" y2="209.6" stroke="rgb(0,0,0)"  stroke-width="1.0"/>
<line x1="211.6" y1="205.8" x2="209.5" y2="212.1" stroke="rgb(0,0,0)"  stroke-width="1.0"/>
<line x1="217.8" y1="207.1" x2="215.4" y2="214.7" stroke="rgb(0,0,0)"  stroke-width="1.0"/>
<line x1="232.5" y1="168.0" x2="216.6" y2="146.2" stroke="rgb(0,0,0)"  stroke-width="1.0"/>
<line x1="216.6" y1="146.2" x2="178.6" y2="158.6" stroke="rgb(0,0,0)"  stroke-width="1.0"/>
<line x1="178.6" y1="158.6" x2="178.6" y2="198.6" stroke="rgb(0,0,0)"  stroke-width="1.0"/>
<line x1="178.6" y1="198.6" x2="216.6" y2="210.9" stroke="rgb(0,0,0)"  stroke-width="1.0"/>
<line x1="216.6" y1="210.9" x2="232.5" y2="189.1" stroke="rgb(0,0,0)"  stroke-width="1.0"/>
<line x1="74.6" y1="138.6" x2="40.0" y2="158.6" stroke="rgb(0,0,0)"  stroke-width="1.0"/>
<line x1="73.0" y1="147.8" x2="48.8" y2="161.8" stroke="rgb(0,0,0)"  stroke-width="1.0"/>
<line x1="40.0" y1="158.6" x2="40.0" y2="198.6" stroke="rgb(0,0,0)"  stroke-width="1.0"/>
<line x1="40.0" y1="198.6" x2="74.6" y2="218.6" stroke="rgb(0,0,0)"  stroke-width="1.0"/>
<line x1="48.8" y1="195.3" x2="73.0" y2="209.3" stroke="rgb(0,0,0)"  stroke-width="1.0"/>
<line x1="74.6" y1="218.6" x2="109.3" y2="198.6" stroke="rgb(0,0,0)"  stroke-width="1.0"/>
<line x1="109.3" y1="198.6" x2="109.3" y2="158.6" stroke="rgb(0,0,0)"  stroke-width="1.0"/>
<line x1="102.1" y1="192.6" x2="102.1" y2="164.6" stroke="rgb(0,0,0)"  stroke-width="1.0"/>
<line x1="109.3" y1="158.6" x2="74.6" y2="138.6" stroke="rgb(0,0,0)"  stroke-width="1.0"/>
<line x1="143.9" y1="218.6" x2="109.3" y2="198.6" stroke="rgb(0,0,0)"  stroke-width="1.0"/>
<line x1="109.3" y1="158.6" x2="143.9" y2="138.6" stroke="rgb(0,0,0)"  stroke-width="1.0"/>
<line x1="143.9" y1="138.6" x2="109.3" y2="158.6" stroke="rgb(0,0,0)"  stroke-width="1.0"/>
<line x1="109.3" y1="158.6" x2="109.3" y2="198.6" stroke="rgb(0,0,0)"  stroke-width="1.0"/>
<line x1="109.3" y1="198.6" x2="143.9" y2="218.6" stroke="rgb(0,0,0)"  stroke-width="1.0"/>
<line x1="178.6" y1="198.6" x2="143.9" y2="218.6" stroke="rgb(0,0,0)"  stroke-width="1.0"/>
<line x1="143.9" y1="138.6" x2="178.6" y2="158.6" stroke="rgb(0,0,0)"  stroke-width="1.0"/>
<line x1="74.6" y1="138.6" x2="109.3" y2="158.6" stroke="rgb(0,0,0)"  stroke-width="1.0"/>
<line x1="76.2" y1="147.8" x2="100.5" y2="161.8" stroke="rgb(0,0,0)"  stroke-width="1.0"/>
<line x1="109.3" y1="198.6" x2="74.6" y2="218.6" stroke="rgb(0,0,0)"  stroke-width="1.0"/>
<line x1="100.5" y1="195.3" x2="76.2" y2="209.3" stroke="rgb(0,0,0)"  stroke-width="1.0"/>
<line x1="74.6" y1="218.6" x2="40.0" y2="198.6" stroke="rgb(0,0,0)"  stroke-width="1.0"/>
<line x1="40.0" y1="198.6" x2="40.0" y2="158.6" stroke="rgb(0,0,0)"  stroke-width="1.0"/>
<line x1="47.2" y1="192.6" x2="47.2" y2="164.6" stroke="rgb(0,0,0)"  stroke-width="1.0"/>
<line x1="40.0" y1="158.6" x2="74.6" y2="138.6" stroke="rgb(0,0,0)"  stroke-width="1.0"/>
<text x="254.117735" y="48.000000" fill="rgb(102,102,102)"  stroke="rgb(102,102,102)" stroke-width="1" font-size="16" >H</text>
<text x="266.117735" y="51.680000" fill="rgb(102,102,102)"  stroke="rgb(102,102,102)" stroke-width="1" font-size="13" >3</text>
<text x="272.617735" y="48.000000" fill="rgb(102,102,102)"  stroke="rgb(102,102,102)" stroke-width="1" font-size="16" >C</text>
<text x="125.923048" y="295.846097" fill="rgb(255,12,12)"  stroke="rgb(255,12,12)" stroke-width="1" font-size="16" >HO</text>
<text x="222.967005" y="256.967005" fill="rgb(255,12,12)"  stroke="rgb(255,12,12)" stroke-width="1" font-size="16" >O</text>
<text x="222.967005" y="116.161124" fill="rgb(255,12,12)"  stroke="rgb(255,12,12)" stroke-width="1" font-size="16" >O</text>
<text x="234.117735" y="186.564065" fill="rgb(12,12,255)"  stroke="rgb(12,12,255)" stroke-width="1" font-size="16" >N</text>
<text font-size="18.000000" fill ="black" font-family="sans-serif"
x="10.000000" y="20.000000" >ligand</text>
<title>ligand - OBDepict</title>
</svg>
