<?xml version="1.0"?>
<svg xmlns="http://www.w3.org/2000/svg"
xmlns:xlink="http://www.w3.org/1999/xlink" xmlns:cml="http://www.xml-cml.org/schema" width="460.216" height="377" x="0" y="0" font-family="sans-serif" stroke="rgb(0,0,0)" stroke-width="1"  stroke-linecap="round">
<rect x="0%" y="0%" width="100%" height="100%" stroke-width="0" fill="rgb(255,255,255)"  />
<polygon points="99.7809 108.902 79.8572 73.9876 87.1656 70.7337 " stroke-width="1" fill="rgb(0,0,0)"  stroke="rgb(0,0,0)" />
<line x1="83.5" y1="72.4" x2="99.4" y2="50.5" stroke="rgb(0,0,0)"  stroke-width="1.0"/>
<polygon points="143.087918 156.999842 168.297399 166.935740 164.297399 173.863943 " stroke-width="1.000000" fill="rgb(0,0,0)"  stroke="rgb(0,0,0)" />
<line x1="208.1" y1="160.4" x2="207.3" y2="159.0" stroke="rgb(0,0,0)"  stroke-width="1.0"/>
<line x1="204.7" y1="163.1" x2="203.3" y2="160.6" stroke="rgb(0,0,0)"  stroke-width="1.0"/>
<line x1="201.3" y1="165.8" x2="199.3" y2="162.2" stroke="rgb(0,0,0)"  stroke-width="1.0"/>
<line x1="197.9" y1="168.5" x2="195.2" y2="163.8" stroke="rgb(0,0,0)"  stroke-width="1.0"/>
<line x1="194.6" y1="171.2" x2="191.2" y2="165.3" stroke="rgb(0,0,0)"  stroke-width="1.0"/>
<line x1="191.2" y1="173.9" x2="187.2" y2="166.9" stroke="rgb(0,0,0)"  stroke-width="1.0"/>
<polygon points="212.369951 116.999842 187.160470 107.063943 191.160470 100.135740 " stroke-width="1.000000" fill="rgb(0,0,0)"  stroke="rgb(0,0,0)" />
<polygon points="281.651983 236.999842 256.442502 227.063943 260.442502 220.135740 " stroke-width="1.000000" fill="rgb(0,0,0)"  stroke="rgb(0,0,0)" />
<line x1="246.2" y1="91.6" x2="247.8" y2="91.6" stroke="rgb(0,0,0)"  stroke-width="1.0"/>
<line x1="245.6" y1="87.4" x2="248.5" y2="87.4" stroke="rgb(0,0,0)"  stroke-width="1.0"/>
<line x1="244.9" y1="83.1" x2="249.1" y2="83.1" stroke="rgb(0,0,0)"  stroke-width="1.0"/>
<line x1="244.3" y1="78.8" x2="249.7" y2="78.8" stroke="rgb(0,0,0)"  stroke-width="1.0"/>
<line x1="243.7" y1="74.5" x2="250.4" y2="74.5" stroke="rgb(0,0,0)"  stroke-width="1.0"/>
<line x1="243.0" y1="70.2" x2="251.0" y2="70.2" stroke="rgb(0,0,0)"  stroke-width="1.0"/>
<line x1="286.7" y1="159.0" x2="285.9" y2="160.4" stroke="rgb(0,0,0)"  stroke-width="1.0"/>
<line x1="290.7" y1="160.6" x2="289.3" y2="163.1" stroke="rgb(0,0,0)"  stroke-width="1.0"/>
<line x1="294.8" y1="162.2" x2="292.7" y2="165.8" stroke="rgb(0,0,0)"  stroke-width="1.0"/>
<line x1="298.8" y1="163.8" x2="296.1" y2="168.5" stroke="rgb(0,0,0)"  stroke-width="1.0"/>
<line x1="302.8" y1="165.3" x2="299.5" y2="171.2" stroke="rgb(0,0,0)"  stroke-width="1.0"/>
<line x1="306.9" y1="166.9" x2="302.9" y2="173.9" stroke="rgb(0,0,0)"  stroke-width="1.0"/>
<polygon points="247.010967 176.999842 251.010967 203.799842 243.010967 203.799842 " stroke-width="1.000000" fill="rgb(0,0,0)"  stroke="rgb(0,0,0)" />
<line x1="357.5" y1="232.3" x2="358.3" y2="233.7" stroke="rgb(0,0,0)"  stroke-width="1.0"/>
<line x1="362.7" y1="228.6" x2="364.1" y2="231.0" stroke="rgb(0,0,0)"  stroke-width="1.0"/>
<line x1="367.9" y1="224.8" x2="370.0" y2="228.4" stroke="rgb(0,0,0)"  stroke-width="1.0"/>
<line x1="373.1" y1="221.0" x2="375.8" y2="225.8" stroke="rgb(0,0,0)"  stroke-width="1.0"/>
<line x1="378.4" y1="217.3" x2="381.7" y2="223.1" stroke="rgb(0,0,0)"  stroke-width="1.0"/>
<line x1="383.6" y1="213.5" x2="387.6" y2="220.5" stroke="rgb(0,0,0)"  stroke-width="1.0"/>
<line x1="409.0" y1="230.5" x2="385.6" y2="217.0" stroke="rgb(0,0,0)"  stroke-width="1.0"/>
<polygon points="350.934015 276.999842 376.143496 286.935740 372.143496 293.863943 " stroke-width="1.000000" fill="rgb(0,0,0)"  stroke="rgb(0,0,0)" />
<line x1="317.1" y1="302.4" x2="315.5" y2="302.4" stroke="rgb(0,0,0)"  stroke-width="1.0"/>
<line x1="317.7" y1="306.6" x2="314.9" y2="306.6" stroke="rgb(0,0,0)"  stroke-width="1.0"/>
<line x1="318.4" y1="310.9" x2="314.2" y2="310.9" stroke="rgb(0,0,0)"  stroke-width="1.0"/>
<line x1="319.0" y1="315.2" x2="313.6" y2="315.2" stroke="rgb(0,0,0)"  stroke-width="1.0"/>
<line x1="319.7" y1="319.5" x2="312.9" y2="319.5" stroke="rgb(0,0,0)"  stroke-width="1.0"/>
<line x1="320.3" y1="323.8" x2="312.3" y2="323.8" stroke="rgb(0,0,0)"  stroke-width="1.0"/>
<polygon points="281.651983 276.999842 260.442502 293.863943 256.442502 286.935740 " stroke-width="1.000000" fill="rgb(0,0,0)"  stroke="rgb(0,0,0)" />
<line x1="106.2" y1="178.7" x2="104.6" y2="178.3" stroke="rgb(0,0,0)"  stroke-width="1.0"/>
<line x1="105.9" y1="183.0" x2="103.1" y2="182.4" stroke="rgb(0,0,0)"  stroke-width="1.0"/>
<line x1="105.7" y1="187.3" x2="101.6" y2="186.5" stroke="rgb(0,0,0)"  stroke-width="1.0"/>
<line x1="105.4" y1="191.7" x2="100.1" y2="190.5" stroke="rgb(0,0,0)"  stroke-width="1.0"/>
<line x1="105.2" y1="196.0" x2="98.6" y2="194.6" stroke="rgb(0,0,0)"  stroke-width="1.0"/>
<line x1="104.9" y1="200.3" x2="97.1" y2="198.7" stroke="rgb(0,0,0)"  stroke-width="1.0"/>
<line x1="74.5" y1="144.9" x2="74.4" y2="143.3" stroke="rgb(0,0,0)"  stroke-width="1.0"/>
<line x1="70.3" y1="146.0" x2="70.0" y2="143.1" stroke="rgb(0,0,0)"  stroke-width="1.0"/>
<line x1="66.1" y1="147.1" x2="65.7" y2="142.9" stroke="rgb(0,0,0)"  stroke-width="1.0"/>
<line x1="61.9" y1="148.2" x2="61.4" y2="142.7" stroke="rgb(0,0,0)"  stroke-width="1.0"/>
<line x1="57.7" y1="149.2" x2="57.0" y2="142.6" stroke="rgb(0,0,0)"  stroke-width="1.0"/>
<line x1="53.5" y1="150.3" x2="52.7" y2="142.4" stroke="rgb(0,0,0)"  stroke-width="1.0"/>
<line x1="99.8" y1="108.9" x2="126.2" y2="114.5" stroke="rgb(0,0,0)"  stroke-width="1.0"/>
<line x1="140.3" y1="130.1" x2="143.1" y2="157.0" stroke="rgb(0,0,0)"  stroke-width="1.0"/>
<line x1="143.1" y1="157.0" x2="106.5" y2="173.3" stroke="rgb(0,0,0)"  stroke-width="1.0"/>
<line x1="106.5" y1="173.3" x2="79.8" y2="143.5" stroke="rgb(0,0,0)"  stroke-width="1.0"/>
<line x1="79.8" y1="143.5" x2="99.8" y2="108.9" stroke="rgb(0,0,0)"  stroke-width="1.0"/>
<line x1="212.4" y1="157.0" x2="212.4" y2="117.0" stroke="rgb(0,0,0)"  stroke-width="1.0"/>
<line x1="212.4" y1="117.0" x2="247.0" y2="97.0" stroke="rgb(0,0,0)"  stroke-width="1.0"/>
<line x1="247.0" y1="97.0" x2="281.7" y2="117.0" stroke="rgb(0,0,0)"  stroke-width="1.0"/>
<line x1="281.7" y1="117.0" x2="281.7" y2="157.0" stroke="rgb(0,0,0)"  stroke-width="1.0"/>
<line x1="281.7" y1="157.0" x2="247.0" y2="177.0" stroke="rgb(0,0,0)"  stroke-width="1.0"/>
<line x1="247.0" y1="177.0" x2="212.4" y2="157.0" stroke="rgb(0,0,0)"  stroke-width="1.0"/>
<line x1="327.6" y1="223.5" x2="350.9" y2="237.0" stroke="rgb(0,0,0)"  stroke-width="1.0"/>
<line x1="350.9" y1="237.0" x2="350.9" y2="277.0" stroke="rgb(0,0,0)"  stroke-width="1.0"/>
<line x1="350.9" y1="277.0" x2="316.3" y2="297.0" stroke="rgb(0,0,0)"  stroke-width="1.0"/>
<line x1="316.3" y1="297.0" x2="281.7" y2="277.0" stroke="rgb(0,0,0)"  stroke-width="1.0"/>
<line x1="281.7" y1="277.0" x2="281.7" y2="237.0" stroke="rgb(0,0,0)"  stroke-width="1.0"/>
<line x1="281.7" y1="237.0" x2="305.0" y2="223.5" stroke="rgb(0,0,0)"  stroke-width="1.0"/>
<text x="243.010967" y="64.999842" fill="rgb(12,12,255)"  stroke="rgb(12,12,255)" stroke-width="1" font-size="16" >NH</text>
<text x="267.010967" y="68.679842" fill="rgb(12,12,255)"  stroke="rgb(12,12,255)" stroke-width="1" font-size="13" >2</text>
<text x="101.022820" y="48.000000" fill="rgb(255,12,12)"  stroke="rgb(255,12,12)" stroke-width="1" font-size="16" >OH</text>
<text x="312.292999" y="184.999842" fill="rgb(12,12,255)"  stroke="rgb(12,12,255)" stroke-width="1" font-size="16" >NH</text>
<text x="336.292999" y="188.679842" fill="rgb(12,12,255)"  stroke="rgb(12,12,255)" stroke-width="1" font-size="13" >2</text>
<text x="132.906780" y="125.218966" fill="rgb(255,12,12)"  stroke="rgb(255,12,12)" stroke-width="1" font-size="16" >O</text>
<text x="416.216048" y="244.999842" fill="rgb(12,12,255)"  stroke="rgb(12,12,255)" stroke-width="1" font-size="16" >NH</text>
<text x="440.216048" y="248.679842" fill="rgb(12,12,255)"  stroke="rgb(12,12,255)" stroke-width="1" font-size="13" >2</text>
<text x="171.728935" y="184.999842" fill="rgb(255,12,12)"  stroke="rgb(255,12,12)" stroke-width="1" font-size="16" >O</text>
<text x="221.010967" y="304.999842" fill="rgb(12,12,255)"  stroke="rgb(12,12,255)" stroke-width="1" font-size="16" >H</text>
<text x="233.010967" y="308.679842" fill="rgb(12,12,255)"  stroke="rgb(12,12,255)" stroke-width="1" font-size="13" >2</text>
<text x="239.510967" y="304.999842" fill="rgb(12,12,255)"  stroke="rgb(12,12,255)" stroke-width="1" font-size="16" >N</text>
<text x="159.728935" y="104.999842" fill="rgb(255,12,12)"  stroke="rgb(255,12,12)" stroke-width="1" font-size="16" >HO</text>
<text x="241.010967" y="224.999842" fill="rgb(255,12,12)"  stroke="rgb(255,12,12)" stroke-width="1" font-size="16" >O</text>
<text x="310.292999" y="224.999842" fill="rgb(255,12,12)"  stroke="rgb(255,12,12)" stroke-width="1" font-size="16" >O</text>
<text x="379.575031" y="304.999842" fill="rgb(255,12,12)"  stroke="rgb(255,12,12)" stroke-width="1" font-size="16" >OH</text>
<text x="310.292999" y="344.999842" fill="rgb(255,12,12)"  stroke="rgb(255,12,12)" stroke-width="1" font-size="16" >OH</text>
<text x="80.229632" y="220.395211" fill="rgb(255,12,12)"  stroke="rgb(255,12,12)" stroke-width="1" font-size="16" >HO</text>
<text x="22.000000" y="155.724653" fill="rgb(255,12,12)"  stroke="rgb(255,12,12)" stroke-width="1" font-size="16" >HO</text>
<text font-size="18.000000" fill ="black" font-family="sans-serif"
x="10.000000" y="20.000000" ></text>
<title> - OBDepict</title>
</svg>
