<?xml version="1.0"?>
<svg xmlns="http://www.w3.org/2000/svg"
xmlns:xlink="http://www.w3.org/1999/xlink" xmlns:cml="http://www.xml-cml.org/schema" width="374.716" height="243.307" x="0" y="0" font-family="sans-serif" stroke="rgb(0,0,0)" stroke-width="1"  stroke-linecap="round">
<rect x="0%" y="0%" width="100%" height="100%" stroke-width="0" fill="rgb(255,255,255)"  />
<polygon points="105.891 126.088 76.1533 99.0388 82.0985 93.6858 " stroke-width="1" fill="rgb(0,0,0)"  stroke="rgb(0,0,0)" />
<line x1="79.1" y1="96.4" x2="52.7" y2="102.0" stroke="rgb(0,0,0)"  stroke-width="1.0"/>
<polygon points="161.941470 158.448757 147.386746 135.592685 154.695110 132.338792 " stroke-width="1.000000" fill="rgb(0,0,0)"  stroke="rgb(0,0,0)" />
<line x1="93.0" y1="168.1" x2="92.4" y2="166.7" stroke="rgb(0,0,0)"  stroke-width="1.0"/>
<line x1="89.3" y1="170.5" x2="88.2" y2="167.8" stroke="rgb(0,0,0)"  stroke-width="1.0"/>
<line x1="85.7" y1="172.8" x2="84.0" y2="169.0" stroke="rgb(0,0,0)"  stroke-width="1.0"/>
<line x1="82.0" y1="175.1" x2="79.8" y2="170.1" stroke="rgb(0,0,0)"  stroke-width="1.0"/>
<line x1="78.4" y1="177.4" x2="75.6" y2="171.3" stroke="rgb(0,0,0)"  stroke-width="1.0"/>
<line x1="74.7" y1="179.8" x2="71.5" y2="172.5" stroke="rgb(0,0,0)"  stroke-width="1.0"/>
<line x1="161.9" y1="158.4" x2="188.4" y2="164.1" stroke="rgb(0,0,0)"  stroke-width="1.0"/>
<polygon points="265.434183 80.000000 261.434183 53.200000 269.434183 53.200000 " stroke-width="1.000000" fill="rgb(0,0,0)"  stroke="rgb(0,0,0)" />
<polygon points="230.793167 140.000000 226.793167 113.200000 234.793167 113.200000 " stroke-width="1.000000" fill="rgb(0,0,0)"  stroke="rgb(0,0,0)" />
<polygon points="265.434183 160.000000 298.075199 136.535898 302.075199 143.464102 " stroke-width="1.000000" fill="rgb(0,0,0)"  stroke="rgb(0,0,0)" />
<line x1="301.6" y1="137.4" x2="325.0" y2="150.9" stroke="rgb(0,0,0)"  stroke-width="1.0"/>
<line x1="298.6" y1="142.6" x2="322.0" y2="156.1" stroke="rgb(0,0,0)"  stroke-width="1.0"/>
<polygon points="206.436298 178.824024 220.991021 201.680096 213.682658 204.933989 " stroke-width="1.000000" fill="rgb(0,0,0)"  stroke="rgb(0,0,0)" />
<line x1="105.9" y1="126.1" x2="97.6" y2="165.2" stroke="rgb(0,0,0)"  stroke-width="1.0"/>
<line x1="97.6" y1="165.2" x2="132.2" y2="185.2" stroke="rgb(0,0,0)"  stroke-width="1.0"/>
<line x1="132.2" y1="185.2" x2="161.9" y2="158.4" stroke="rgb(0,0,0)"  stroke-width="1.0"/>
<line x1="161.9" y1="158.4" x2="151.0" y2="133.8" stroke="rgb(0,0,0)"  stroke-width="1.0"/>
<line x1="132.7" y1="123.3" x2="105.9" y2="126.1" stroke="rgb(0,0,0)"  stroke-width="1.0"/>
<line x1="217.3" y1="203.3" x2="206.4" y2="178.6" stroke="rgb(0,0,0)"  stroke-width="1.0"/>
<line x1="210.7" y1="158.1" x2="230.8" y2="140.0" stroke="rgb(0,0,0)"  stroke-width="1.0"/>
<line x1="230.8" y1="140.0" x2="265.4" y2="160.0" stroke="rgb(0,0,0)"  stroke-width="1.0"/>
<line x1="265.4" y1="160.0" x2="259.8" y2="186.4" stroke="rgb(0,0,0)"  stroke-width="1.0"/>
<line x1="244.2" y1="200.5" x2="217.3" y2="203.3" stroke="rgb(0,0,0)"  stroke-width="1.0"/>
<line x1="265.4" y1="80.0" x2="288.8" y2="93.5" stroke="rgb(0,0,0)"  stroke-width="1.0"/>
<line x1="300.1" y1="113.0" x2="300.1" y2="140.0" stroke="rgb(0,0,0)"  stroke-width="1.0"/>
<line x1="300.1" y1="140.0" x2="265.4" y2="160.0" stroke="rgb(0,0,0)"  stroke-width="1.0"/>
<line x1="230.8" y1="140.0" x2="230.8" y2="113.0" stroke="rgb(0,0,0)"  stroke-width="1.0"/>
<line x1="242.1" y1="93.5" x2="265.4" y2="80.0" stroke="rgb(0,0,0)"  stroke-width="1.0"/>
<text x="22.000000" y="112.678751" fill="rgb(255,12,12)"  stroke="rgb(255,12,12)" stroke-width="1" font-size="16" >HO</text>
<text x="139.672004" y="129.906938" fill="rgb(255,12,12)"  stroke="rgb(255,12,12)" stroke-width="1" font-size="16" >O</text>
<text x="43.032842" y="189.483447" fill="rgb(255,12,12)"  stroke="rgb(255,12,12)" stroke-width="1" font-size="16" >HO</text>
<text x="294.075199" y="108.000000" fill="rgb(12,12,255)"  stroke="rgb(12,12,255)" stroke-width="1" font-size="16" >NH</text>
<text x="261.434183" y="48.000000" fill="rgb(12,12,255)"  stroke="rgb(12,12,255)" stroke-width="1" font-size="16" >NH</text>
<text x="285.434183" y="51.680000" fill="rgb(12,12,255)"  stroke="rgb(12,12,255)" stroke-width="1" font-size="13" >2</text>
<text x="212.793167" y="108.000000" fill="rgb(12,12,255)"  stroke="rgb(12,12,255)" stroke-width="1" font-size="16" >HN</text>
<text x="328.716215" y="168.000000" fill="rgb(255,12,12)"  stroke="rgb(255,12,12)" stroke-width="1" font-size="16" >O</text>
<text x="251.117715" y="207.125904" fill="rgb(12,12,255)"  stroke="rgb(12,12,255)" stroke-width="1" font-size="16" >N</text>
<text x="251.117715" y="223.125904" fill="rgb(12,12,255)"  stroke="rgb(12,12,255)" stroke-width="1" font-size="16" >H</text>
<text x="195.067374" y="174.765224" fill="rgb(12,12,255)"  stroke="rgb(12,12,255)" stroke-width="1" font-size="16" >N</text>
<text font-size="18.000000" fill ="black" font-family="sans-serif"
x="10.000000" y="20.000000" ></text>
<title> - OBDepict</title>
</svg>
