<?xml version="1.0"?>
<svg xmlns="http://www.w3.org/2000/svg"
xmlns:xlink="http://www.w3.org/1999/xlink" xmlns:cml="http://www.xml-cml.org/schema" width="397.128" height="380" x="0" y="0" font-family="sans-serif" stroke="rgb(0,0,0)" stroke-width="1"  stroke-linecap="round">
<rect x="0%" y="0%" width="100%" height="100%" stroke-width="0" fill="rgb(255,255,255)"  />
<polygon points="330.328 100 343.928 96 343.928 104 " stroke-width="1" fill="rgb(0,0,0)"  stroke="rgb(0,0,0)" />
<line x1="317.1" y1="113.0" x2="317.1" y2="127.0" stroke="rgb(0,0,0)"  stroke-width="1.0"/>
<line x1="304.1" y1="103.0" x2="290.1" y2="103.0" stroke="rgb(0,0,0)"  stroke-width="1.0"/>
<line x1="304.1" y1="97.0" x2="290.1" y2="97.0" stroke="rgb(0,0,0)"  stroke-width="1.0"/>
<line x1="282.5" y1="40.0" x2="305.9" y2="53.5" stroke="rgb(0,0,0)"  stroke-width="1.0"/>
<line x1="317.1" y1="87.0" x2="317.1" y2="73.0" stroke="rgb(0,0,0)"  stroke-width="1.0"/>
<line x1="254.4" y1="55.3" x2="255.2" y2="56.7" stroke="rgb(0,0,0)"  stroke-width="1.0"/>
<line x1="259.6" y1="51.6" x2="261.0" y2="54.0" stroke="rgb(0,0,0)"  stroke-width="1.0"/>
<line x1="264.8" y1="47.8" x2="266.9" y2="51.4" stroke="rgb(0,0,0)"  stroke-width="1.0"/>
<line x1="270.0" y1="44.0" x2="272.8" y2="48.8" stroke="rgb(0,0,0)"  stroke-width="1.0"/>
<line x1="275.3" y1="40.3" x2="278.6" y2="46.1" stroke="rgb(0,0,0)"  stroke-width="1.0"/>
<line x1="280.5" y1="36.5" x2="284.5" y2="43.5" stroke="rgb(0,0,0)"  stroke-width="1.0"/>
<line x1="247.8" y1="60.0" x2="224.5" y2="46.5" stroke="rgb(0,0,0)"  stroke-width="1.0"/>
<line x1="247.8" y1="60.0" x2="247.8" y2="100.0" stroke="rgb(0,0,0)"  stroke-width="1.0"/>
<polygon points="247.846097 100.000000 273.055578 109.935898 269.055578 116.864102 " stroke-width="1.000000" fill="rgb(0,0,0)"  stroke="rgb(0,0,0)" />
<line x1="247.8" y1="100.0" x2="213.2" y2="120.0" stroke="rgb(0,0,0)"  stroke-width="1.0"/>
<line x1="208.2" y1="118.0" x2="209.0" y2="116.6" stroke="rgb(0,0,0)"  stroke-width="1.0"/>
<line x1="204.1" y1="116.4" x2="205.6" y2="113.9" stroke="rgb(0,0,0)"  stroke-width="1.0"/>
<line x1="200.1" y1="114.8" x2="202.2" y2="111.2" stroke="rgb(0,0,0)"  stroke-width="1.0"/>
<line x1="196.1" y1="113.2" x2="198.8" y2="108.5" stroke="rgb(0,0,0)"  stroke-width="1.0"/>
<line x1="192.0" y1="111.7" x2="195.4" y2="105.8" stroke="rgb(0,0,0)"  stroke-width="1.0"/>
<line x1="188.0" y1="110.1" x2="192.0" y2="103.1" stroke="rgb(0,0,0)"  stroke-width="1.0"/>
<line x1="213.2" y1="120.0" x2="213.2" y2="160.0" stroke="rgb(0,0,0)"  stroke-width="1.0"/>
<polygon points="143.923048 160.000000 139.923048 133.200000 147.923048 133.200000 " stroke-width="1.000000" fill="rgb(0,0,0)"  stroke="rgb(0,0,0)" />
<line x1="106.3" y1="100.0" x2="106.3" y2="73.0" stroke="rgb(0,0,0)"  stroke-width="1.0"/>
<line x1="112.3" y1="100.0" x2="112.3" y2="73.0" stroke="rgb(0,0,0)"  stroke-width="1.0"/>
<line x1="102.0" y1="176.7" x2="102.8" y2="175.3" stroke="rgb(0,0,0)"  stroke-width="1.0"/>
<line x1="96.1" y1="174.0" x2="97.5" y2="171.6" stroke="rgb(0,0,0)"  stroke-width="1.0"/>
<line x1="90.2" y1="171.4" x2="92.3" y2="167.8" stroke="rgb(0,0,0)"  stroke-width="1.0"/>
<line x1="84.4" y1="168.8" x2="87.1" y2="164.0" stroke="rgb(0,0,0)"  stroke-width="1.0"/>
<line x1="78.5" y1="166.1" x2="81.9" y2="160.3" stroke="rgb(0,0,0)"  stroke-width="1.0"/>
<line x1="72.6" y1="163.5" x2="76.6" y2="156.5" stroke="rgb(0,0,0)"  stroke-width="1.0"/>
<line x1="76.1" y1="162.6" x2="52.8" y2="176.1" stroke="rgb(0,0,0)"  stroke-width="1.0"/>
<line x1="73.1" y1="157.4" x2="49.8" y2="170.9" stroke="rgb(0,0,0)"  stroke-width="1.0"/>
<polygon points="143.923048 240.000000 147.923048 280.000000 139.923048 280.000000 " stroke-width="1.000000" fill="rgb(0,0,0)"  stroke="rgb(0,0,0)" />
<line x1="179.4" y1="305.4" x2="177.8" y2="305.4" stroke="rgb(0,0,0)"  stroke-width="1.0"/>
<line x1="180.0" y1="309.6" x2="177.1" y2="309.6" stroke="rgb(0,0,0)"  stroke-width="1.0"/>
<line x1="180.6" y1="313.9" x2="176.5" y2="313.9" stroke="rgb(0,0,0)"  stroke-width="1.0"/>
<line x1="181.3" y1="318.2" x2="175.8" y2="318.2" stroke="rgb(0,0,0)"  stroke-width="1.0"/>
<line x1="181.9" y1="322.5" x2="175.2" y2="322.5" stroke="rgb(0,0,0)"  stroke-width="1.0"/>
<line x1="182.6" y1="326.8" x2="174.6" y2="326.8" stroke="rgb(0,0,0)"  stroke-width="1.0"/>
<line x1="218.2" y1="282.0" x2="217.4" y2="283.4" stroke="rgb(0,0,0)"  stroke-width="1.0"/>
<line x1="222.3" y1="283.6" x2="220.8" y2="286.1" stroke="rgb(0,0,0)"  stroke-width="1.0"/>
<line x1="226.3" y1="285.2" x2="224.2" y2="288.8" stroke="rgb(0,0,0)"  stroke-width="1.0"/>
<line x1="230.3" y1="286.8" x2="227.6" y2="291.5" stroke="rgb(0,0,0)"  stroke-width="1.0"/>
<line x1="234.4" y1="288.3" x2="231.0" y2="294.2" stroke="rgb(0,0,0)"  stroke-width="1.0"/>
<line x1="238.4" y1="289.9" x2="234.4" y2="296.9" stroke="rgb(0,0,0)"  stroke-width="1.0"/>
<polygon points="178.564065 220.000000 215.205081 236.535898 211.205081 243.464102 " stroke-width="1.000000" fill="rgb(0,0,0)"  stroke="rgb(0,0,0)" />
<line x1="213.2" y1="160.0" x2="189.8" y2="173.5" stroke="rgb(0,0,0)"  stroke-width="1.0"/>
<line x1="132.7" y1="113.5" x2="109.3" y2="100.0" stroke="rgb(0,0,0)"  stroke-width="1.0"/>
<line x1="109.3" y1="100.0" x2="85.9" y2="113.5" stroke="rgb(0,0,0)"  stroke-width="1.0"/>
<line x1="74.6" y1="133.0" x2="74.6" y2="160.0" stroke="rgb(0,0,0)"  stroke-width="1.0"/>
<line x1="74.6" y1="160.0" x2="109.3" y2="180.0" stroke="rgb(0,0,0)"  stroke-width="1.0"/>
<line x1="109.3" y1="180.0" x2="143.9" y2="160.0" stroke="rgb(0,0,0)"  stroke-width="1.0"/>
<line x1="143.9" y1="160.0" x2="143.9" y2="133.0" stroke="rgb(0,0,0)"  stroke-width="1.0"/>
<line x1="213.2" y1="280.0" x2="213.2" y2="240.0" stroke="rgb(0,0,0)"  stroke-width="1.0"/>
<line x1="213.2" y1="240.0" x2="178.6" y2="220.0" stroke="rgb(0,0,0)"  stroke-width="1.0"/>
<line x1="178.6" y1="220.0" x2="143.9" y2="240.0" stroke="rgb(0,0,0)"  stroke-width="1.0"/>
<line x1="143.9" y1="240.0" x2="143.9" y2="280.0" stroke="rgb(0,0,0)"  stroke-width="1.0"/>
<line x1="143.9" y1="280.0" x2="178.6" y2="300.0" stroke="rgb(0,0,0)"  stroke-width="1.0"/>
<line x1="178.6" y1="300.0" x2="213.2" y2="280.0" stroke="rgb(0,0,0)"  stroke-width="1.0"/>
<line x1="178.6" y1="220.0" x2="178.6" y2="193.0" stroke="rgb(0,0,0)"  stroke-width="1.0"/>
<line x1="167.3" y1="173.5" x2="143.9" y2="160.0" stroke="rgb(0,0,0)"  stroke-width="1.0"/>
<line x1="109.3" y1="180.0" x2="109.3" y2="207.0" stroke="rgb(0,0,0)"  stroke-width="1.0"/>
<line x1="120.5" y1="226.5" x2="143.9" y2="240.0" stroke="rgb(0,0,0)"  stroke-width="1.0"/>
<text x="311.128129" y="108.000000" fill="rgb(255,127,0)"  stroke="rgb(255,127,0)" stroke-width="1" font-size="16" >P</text>
<text x="351.128129" y="108.000000" fill="rgb(255,12,12)"  stroke="rgb(255,12,12)" stroke-width="1" font-size="16" >OH</text>
<text x="321.928129" y="135.968000" fill="rgb(255,12,12)"  stroke="rgb(255,12,12)" stroke-width="1" font-size="32" >-</text>
<text x="311.128129" y="148.000000" fill="rgb(255,12,12)"  stroke="rgb(255,12,12)" stroke-width="1" font-size="16" >O</text>
<text x="271.128129" y="108.000000" fill="rgb(255,12,12)"  stroke="rgb(255,12,12)" stroke-width="1" font-size="16" >O</text>
<text x="311.128129" y="68.000000" fill="rgb(255,12,12)"  stroke="rgb(255,12,12)" stroke-width="1" font-size="16" >O</text>
<text x="195.205081" y="48.000000" fill="rgb(255,12,12)"  stroke="rgb(255,12,12)" stroke-width="1" font-size="16" >HO</text>
<text x="276.487113" y="128.000000" fill="rgb(255,12,12)"  stroke="rgb(255,12,12)" stroke-width="1" font-size="16" >OH</text>
<text x="160.564065" y="108.000000" fill="rgb(255,12,12)"  stroke="rgb(255,12,12)" stroke-width="1" font-size="16" >HO</text>
<text x="137.923048" y="128.000000" fill="rgb(12,12,255)"  stroke="rgb(12,12,255)" stroke-width="1" font-size="16" >NH</text>
<text x="103.282032" y="68.000000" fill="rgb(255,12,12)"  stroke="rgb(255,12,12)" stroke-width="1" font-size="16" >O</text>
<text x="56.641016" y="128.000000" fill="rgb(12,12,255)"  stroke="rgb(12,12,255)" stroke-width="1" font-size="16" >HN</text>
<text x="34.000000" y="188.000000" fill="rgb(255,12,12)"  stroke="rgb(255,12,12)" stroke-width="1" font-size="16" >O</text>
<text x="91.282032" y="228.000000" fill="rgb(12,12,255)"  stroke="rgb(12,12,255)" stroke-width="1" font-size="16" >HN</text>
<text x="174.564065" y="348.000000" fill="rgb(102,102,102)"  stroke="rgb(102,102,102)" stroke-width="1" font-size="16" >CH</text>
<text x="198.564065" y="351.680000" fill="rgb(102,102,102)"  stroke="rgb(102,102,102)" stroke-width="1" font-size="13" >3</text>
<text x="243.846097" y="308.000000" fill="rgb(102,102,102)"  stroke="rgb(102,102,102)" stroke-width="1" font-size="16" >CH</text>
<text x="267.846097" y="311.680000" fill="rgb(102,102,102)"  stroke="rgb(102,102,102)" stroke-width="1" font-size="13" >3</text>
<text x="172.564065" y="188.000000" fill="rgb(12,12,255)"  stroke="rgb(12,12,255)" stroke-width="1" font-size="16" >N</text>
<text font-size="18.000000" fill ="black" font-family="sans-serif"
x="10.000000" y="20.000000" ></text>
<title> - OBDepict</title>
</svg>
