<?xml version="1.0"?>
<svg xmlns="http://www.w3.org/2000/svg"
xmlns:xlink="http://www.w3.org/1999/xlink" xmlns:cml="http://www.xml-cml.org/schema" width="357.128" height="364.639" x="0" y="0" font-family="sans-serif" stroke="rgb(0,0,0)" stroke-width="1"  stroke-linecap="round">
<rect x="0%" y="0%" width="100%" height="100%" stroke-width="0" fill="rgb(255,255,255)"  />
<line x1="94.2" y1="271.1" x2="110.1" y2="249.3" stroke="rgb(0,0,0)"  stroke-width="1.0"/>
<polygon points="149.898038 253.456327 109.699049 253.253276 110.535276 245.297101 " stroke-width="1.000000" fill="rgb(0,0,0)"  stroke="rgb(0,0,0)" />
<polygon points="213.205081 240.000000 234.414562 223.135898 238.414562 230.064102 " stroke-width="1.000000" fill="rgb(0,0,0)"  stroke="rgb(0,0,0)" />
<polygon points="247.846097 180.000000 251.846097 206.800000 243.846097 206.800000 " stroke-width="1.000000" fill="rgb(0,0,0)"  stroke="rgb(0,0,0)" />
<line x1="287.5" y1="162.0" x2="286.7" y2="163.4" stroke="rgb(0,0,0)"  stroke-width="1.0"/>
<line x1="291.6" y1="163.6" x2="290.1" y2="166.1" stroke="rgb(0,0,0)"  stroke-width="1.0"/>
<line x1="295.6" y1="165.2" x2="293.5" y2="168.8" stroke="rgb(0,0,0)"  stroke-width="1.0"/>
<line x1="299.6" y1="166.8" x2="296.9" y2="171.5" stroke="rgb(0,0,0)"  stroke-width="1.0"/>
<line x1="303.7" y1="168.3" x2="300.3" y2="174.2" stroke="rgb(0,0,0)"  stroke-width="1.0"/>
<line x1="307.7" y1="169.9" x2="303.7" y2="176.9" stroke="rgb(0,0,0)"  stroke-width="1.0"/>
<polygon points="282.487113 120.000000 303.696594 103.135898 307.696594 110.064102 " stroke-width="1.000000" fill="rgb(0,0,0)"  stroke="rgb(0,0,0)" />
<polygon points="213.205081 120.000000 187.995600 110.064102 191.995600 103.135898 " stroke-width="1.000000" fill="rgb(0,0,0)"  stroke="rgb(0,0,0)" />
<line x1="209.0" y1="163.4" x2="208.2" y2="162.0" stroke="rgb(0,0,0)"  stroke-width="1.0"/>
<line x1="205.6" y1="166.1" x2="204.1" y2="163.6" stroke="rgb(0,0,0)"  stroke-width="1.0"/>
<line x1="202.2" y1="168.8" x2="200.1" y2="165.2" stroke="rgb(0,0,0)"  stroke-width="1.0"/>
<line x1="198.8" y1="171.5" x2="196.1" y2="166.8" stroke="rgb(0,0,0)"  stroke-width="1.0"/>
<line x1="195.4" y1="174.2" x2="192.0" y2="168.3" stroke="rgb(0,0,0)"  stroke-width="1.0"/>
<line x1="192.0" y1="176.9" x2="188.0" y2="169.9" stroke="rgb(0,0,0)"  stroke-width="1.0"/>
<line x1="149.0" y1="162.0" x2="148.2" y2="163.4" stroke="rgb(0,0,0)"  stroke-width="1.0"/>
<line x1="153.0" y1="163.6" x2="151.6" y2="166.1" stroke="rgb(0,0,0)"  stroke-width="1.0"/>
<line x1="157.0" y1="165.2" x2="155.0" y2="168.8" stroke="rgb(0,0,0)"  stroke-width="1.0"/>
<line x1="161.1" y1="166.8" x2="158.3" y2="171.5" stroke="rgb(0,0,0)"  stroke-width="1.0"/>
<line x1="165.1" y1="168.3" x2="161.7" y2="174.2" stroke="rgb(0,0,0)"  stroke-width="1.0"/>
<line x1="169.1" y1="169.9" x2="165.1" y2="176.9" stroke="rgb(0,0,0)"  stroke-width="1.0"/>
<polygon points="109.282032 100.000000 105.282032 60.000000 113.282032 60.000000 " stroke-width="1.000000" fill="rgb(0,0,0)"  stroke="rgb(0,0,0)" />
<line x1="109.3" y1="60.0" x2="132.7" y2="46.5" stroke="rgb(0,0,0)"  stroke-width="1.0"/>
<line x1="69.6" y1="118.0" x2="70.4" y2="116.6" stroke="rgb(0,0,0)"  stroke-width="1.0"/>
<line x1="65.6" y1="116.4" x2="67.0" y2="113.9" stroke="rgb(0,0,0)"  stroke-width="1.0"/>
<line x1="61.5" y1="114.8" x2="63.6" y2="111.2" stroke="rgb(0,0,0)"  stroke-width="1.0"/>
<line x1="57.5" y1="113.2" x2="60.2" y2="108.5" stroke="rgb(0,0,0)"  stroke-width="1.0"/>
<line x1="53.5" y1="111.7" x2="56.8" y2="105.8" stroke="rgb(0,0,0)"  stroke-width="1.0"/>
<line x1="49.4" y1="110.1" x2="53.4" y2="103.1" stroke="rgb(0,0,0)"  stroke-width="1.0"/>
<polygon points="74.641016 160.000000 53.431535 176.864102 49.431535 169.935898 " stroke-width="1.000000" fill="rgb(0,0,0)"  stroke="rgb(0,0,0)" />
<line x1="110.1" y1="185.4" x2="108.5" y2="185.4" stroke="rgb(0,0,0)"  stroke-width="1.0"/>
<line x1="110.7" y1="189.6" x2="107.8" y2="189.6" stroke="rgb(0,0,0)"  stroke-width="1.0"/>
<line x1="111.4" y1="193.9" x2="107.2" y2="193.9" stroke="rgb(0,0,0)"  stroke-width="1.0"/>
<line x1="112.0" y1="198.2" x2="106.6" y2="198.2" stroke="rgb(0,0,0)"  stroke-width="1.0"/>
<line x1="112.6" y1="202.5" x2="105.9" y2="202.5" stroke="rgb(0,0,0)"  stroke-width="1.0"/>
<line x1="113.3" y1="206.8" x2="105.3" y2="206.8" stroke="rgb(0,0,0)"  stroke-width="1.0"/>
<line x1="213.5" y1="282.8" x2="212.5" y2="284.0" stroke="rgb(0,0,0)"  stroke-width="1.0"/>
<line x1="217.2" y1="285.2" x2="215.2" y2="287.3" stroke="rgb(0,0,0)"  stroke-width="1.0"/>
<line x1="220.8" y1="287.6" x2="218.0" y2="290.7" stroke="rgb(0,0,0)"  stroke-width="1.0"/>
<line x1="224.4" y1="290.0" x2="220.7" y2="294.0" stroke="rgb(0,0,0)"  stroke-width="1.0"/>
<line x1="228.0" y1="292.3" x2="223.5" y2="297.3" stroke="rgb(0,0,0)"  stroke-width="1.0"/>
<line x1="231.6" y1="294.7" x2="226.3" y2="300.7" stroke="rgb(0,0,0)"  stroke-width="1.0"/>
<line x1="168.4" y1="293.3" x2="167.0" y2="292.7" stroke="rgb(0,0,0)"  stroke-width="1.0"/>
<line x1="167.3" y1="297.5" x2="164.7" y2="296.3" stroke="rgb(0,0,0)"  stroke-width="1.0"/>
<line x1="166.1" y1="301.7" x2="162.3" y2="300.0" stroke="rgb(0,0,0)"  stroke-width="1.0"/>
<line x1="165.0" y1="305.9" x2="160.0" y2="303.6" stroke="rgb(0,0,0)"  stroke-width="1.0"/>
<line x1="163.8" y1="310.0" x2="157.7" y2="307.3" stroke="rgb(0,0,0)"  stroke-width="1.0"/>
<line x1="162.7" y1="314.2" x2="155.3" y2="311.0" stroke="rgb(0,0,0)"  stroke-width="1.0"/>
<line x1="149.9" y1="253.5" x2="168.0" y2="233.4" stroke="rgb(0,0,0)"  stroke-width="1.0"/>
<line x1="188.5" y1="229.0" x2="213.2" y2="240.0" stroke="rgb(0,0,0)"  stroke-width="1.0"/>
<line x1="213.2" y1="240.0" x2="209.0" y2="279.8" stroke="rgb(0,0,0)"  stroke-width="1.0"/>
<line x1="209.0" y1="279.8" x2="169.9" y2="288.1" stroke="rgb(0,0,0)"  stroke-width="1.0"/>
<line x1="169.9" y1="288.1" x2="149.9" y2="253.5" stroke="rgb(0,0,0)"  stroke-width="1.0"/>
<line x1="247.8" y1="180.0" x2="282.5" y2="160.0" stroke="rgb(0,0,0)"  stroke-width="1.0"/>
<line x1="282.5" y1="160.0" x2="282.5" y2="120.0" stroke="rgb(0,0,0)"  stroke-width="1.0"/>
<line x1="282.5" y1="120.0" x2="247.8" y2="100.0" stroke="rgb(0,0,0)"  stroke-width="1.0"/>
<line x1="247.8" y1="100.0" x2="213.2" y2="120.0" stroke="rgb(0,0,0)"  stroke-width="1.0"/>
<line x1="213.2" y1="120.0" x2="213.2" y2="160.0" stroke="rgb(0,0,0)"  stroke-width="1.0"/>
<line x1="213.2" y1="160.0" x2="247.8" y2="180.0" stroke="rgb(0,0,0)"  stroke-width="1.0"/>
<line x1="132.7" y1="113.5" x2="109.3" y2="100.0" stroke="rgb(0,0,0)"  stroke-width="1.0"/>
<line x1="109.3" y1="100.0" x2="74.6" y2="120.0" stroke="rgb(0,0,0)"  stroke-width="1.0"/>
<line x1="74.6" y1="120.0" x2="74.6" y2="160.0" stroke="rgb(0,0,0)"  stroke-width="1.0"/>
<line x1="74.6" y1="160.0" x2="109.3" y2="180.0" stroke="rgb(0,0,0)"  stroke-width="1.0"/>
<line x1="109.3" y1="180.0" x2="143.9" y2="160.0" stroke="rgb(0,0,0)"  stroke-width="1.0"/>
<line x1="143.9" y1="160.0" x2="143.9" y2="133.0" stroke="rgb(0,0,0)"  stroke-width="1.0"/>
<text x="313.128129" y="108.000000" fill="rgb(12,12,255)"  stroke="rgb(12,12,255)" stroke-width="1" font-size="16" >NH</text>
<text x="337.128129" y="111.680000" fill="rgb(12,12,255)"  stroke="rgb(12,12,255)" stroke-width="1" font-size="13" >2</text>
<text x="68.605752" y="289.635869" fill="rgb(255,12,12)"  stroke="rgb(255,12,12)" stroke-width="1" font-size="16" >HO</text>
<text x="152.564065" y="108.000000" fill="rgb(12,12,255)"  stroke="rgb(12,12,255)" stroke-width="1" font-size="16" >H</text>
<text x="164.564065" y="111.680000" fill="rgb(12,12,255)"  stroke="rgb(12,12,255)" stroke-width="1" font-size="13" >2</text>
<text x="171.064065" y="108.000000" fill="rgb(12,12,255)"  stroke="rgb(12,12,255)" stroke-width="1" font-size="16" >N</text>
<text x="170.663262" y="231.730534" fill="rgb(255,12,12)"  stroke="rgb(255,12,12)" stroke-width="1" font-size="16" >O</text>
<text x="139.923048" y="48.000000" fill="rgb(12,12,255)"  stroke="rgb(12,12,255)" stroke-width="1" font-size="16" >NH</text>
<text x="163.923048" y="51.680000" fill="rgb(12,12,255)"  stroke="rgb(12,12,255)" stroke-width="1" font-size="13" >2</text>
<text x="241.846097" y="228.000000" fill="rgb(255,12,12)"  stroke="rgb(255,12,12)" stroke-width="1" font-size="16" >O</text>
<text x="105.282032" y="228.000000" fill="rgb(12,12,255)"  stroke="rgb(12,12,255)" stroke-width="1" font-size="16" >NH</text>
<text x="129.282032" y="231.680000" fill="rgb(12,12,255)"  stroke="rgb(12,12,255)" stroke-width="1" font-size="13" >2</text>
<text x="311.128129" y="188.000000" fill="rgb(255,12,12)"  stroke="rgb(255,12,12)" stroke-width="1" font-size="16" >OH</text>
<text x="172.564065" y="188.000000" fill="rgb(255,12,12)"  stroke="rgb(255,12,12)" stroke-width="1" font-size="16" >O</text>
<text x="137.923048" y="128.000000" fill="rgb(255,12,12)"  stroke="rgb(255,12,12)" stroke-width="1" font-size="16" >O</text>
<text x="22.000000" y="108.000000" fill="rgb(255,12,12)"  stroke="rgb(255,12,12)" stroke-width="1" font-size="16" >HO</text>
<text x="22.000000" y="188.000000" fill="rgb(255,12,12)"  stroke="rgb(255,12,12)" stroke-width="1" font-size="16" >HO</text>
<text x="232.749735" y="314.546100" fill="rgb(255,12,12)"  stroke="rgb(255,12,12)" stroke-width="1" font-size="16" >OH</text>
<text x="135.628572" y="332.639162" fill="rgb(255,12,12)"  stroke="rgb(255,12,12)" stroke-width="1" font-size="16" >HO</text>
<text font-size="18.000000" fill ="black" font-family="sans-serif"
x="10.000000" y="20.000000" ></text>
<title> - OBDepict</title>
</svg>
