<?xml version="1.0"?>
<svg xmlns="http://www.w3.org/2000/svg"
xmlns:xlink="http://www.w3.org/1999/xlink" xmlns:cml="http://www.xml-cml.org/schema" width="357.128" height="260" x="0" y="0" font-family="sans-serif" stroke="rgb(0,0,0)" stroke-width="1"  stroke-linecap="round">
<rect x="0%" y="0%" width="100%" height="100%" stroke-width="0" fill="rgb(255,255,255)"  />
<polygon points="213.205 140 191.996 156.864 187.996 149.936 " stroke-width="1" fill="rgb(0,0,0)"  stroke="rgb(0,0,0)" />
<line x1="248.6" y1="165.4" x2="247.0" y2="165.4" stroke="rgb(0,0,0)"  stroke-width="1.0"/>
<line x1="249.3" y1="169.6" x2="246.4" y2="169.6" stroke="rgb(0,0,0)"  stroke-width="1.0"/>
<line x1="249.9" y1="173.9" x2="245.8" y2="173.9" stroke="rgb(0,0,0)"  stroke-width="1.0"/>
<line x1="250.6" y1="178.2" x2="245.1" y2="178.2" stroke="rgb(0,0,0)"  stroke-width="1.0"/>
<line x1="251.2" y1="182.5" x2="244.5" y2="182.5" stroke="rgb(0,0,0)"  stroke-width="1.0"/>
<line x1="251.8" y1="186.8" x2="243.8" y2="186.8" stroke="rgb(0,0,0)"  stroke-width="1.0"/>
<polygon points="282.487113 140.000000 307.696594 149.935898 303.696594 156.864102 " stroke-width="1.000000" fill="rgb(0,0,0)"  stroke="rgb(0,0,0)" />
<polygon points="247.846097 80.000000 243.846097 53.200000 251.846097 53.200000 " stroke-width="1.000000" fill="rgb(0,0,0)"  stroke="rgb(0,0,0)" />
<line x1="208.2" y1="98.0" x2="209.0" y2="96.6" stroke="rgb(0,0,0)"  stroke-width="1.0"/>
<line x1="204.1" y1="96.4" x2="205.6" y2="93.9" stroke="rgb(0,0,0)"  stroke-width="1.0"/>
<line x1="200.1" y1="94.8" x2="202.2" y2="91.2" stroke="rgb(0,0,0)"  stroke-width="1.0"/>
<line x1="196.1" y1="93.2" x2="198.8" y2="88.5" stroke="rgb(0,0,0)"  stroke-width="1.0"/>
<line x1="192.0" y1="91.7" x2="195.4" y2="85.8" stroke="rgb(0,0,0)"  stroke-width="1.0"/>
<line x1="188.0" y1="90.1" x2="192.0" y2="83.1" stroke="rgb(0,0,0)"  stroke-width="1.0"/>
<polygon points="143.923048 100.000000 165.132529 83.135898 169.132529 90.064102 " stroke-width="1.000000" fill="rgb(0,0,0)"  stroke="rgb(0,0,0)" />
<line x1="110.1" y1="168.0" x2="108.5" y2="168.0" stroke="rgb(0,0,0)"  stroke-width="1.0"/>
<line x1="110.7" y1="174.4" x2="107.8" y2="174.4" stroke="rgb(0,0,0)"  stroke-width="1.0"/>
<line x1="111.4" y1="180.8" x2="107.2" y2="180.8" stroke="rgb(0,0,0)"  stroke-width="1.0"/>
<line x1="112.0" y1="187.2" x2="106.6" y2="187.2" stroke="rgb(0,0,0)"  stroke-width="1.0"/>
<line x1="112.6" y1="193.6" x2="105.9" y2="193.6" stroke="rgb(0,0,0)"  stroke-width="1.0"/>
<line x1="113.3" y1="200.0" x2="105.3" y2="200.0" stroke="rgb(0,0,0)"  stroke-width="1.0"/>
<line x1="109.3" y1="200.0" x2="85.9" y2="213.5" stroke="rgb(0,0,0)"  stroke-width="1.0"/>
<polygon points="74.641016 140.000000 53.431535 156.864102 49.431535 149.935898 " stroke-width="1.000000" fill="rgb(0,0,0)"  stroke="rgb(0,0,0)" />
<line x1="69.6" y1="98.0" x2="70.4" y2="96.6" stroke="rgb(0,0,0)"  stroke-width="1.0"/>
<line x1="65.6" y1="96.4" x2="67.0" y2="93.9" stroke="rgb(0,0,0)"  stroke-width="1.0"/>
<line x1="61.5" y1="94.8" x2="63.6" y2="91.2" stroke="rgb(0,0,0)"  stroke-width="1.0"/>
<line x1="57.5" y1="93.2" x2="60.2" y2="88.5" stroke="rgb(0,0,0)"  stroke-width="1.0"/>
<line x1="53.5" y1="91.7" x2="56.8" y2="85.8" stroke="rgb(0,0,0)"  stroke-width="1.0"/>
<line x1="49.4" y1="90.1" x2="53.4" y2="83.1" stroke="rgb(0,0,0)"  stroke-width="1.0"/>
<polygon points="109.282032 80.000000 105.282032 53.200000 113.282032 53.200000 " stroke-width="1.000000" fill="rgb(0,0,0)"  stroke="rgb(0,0,0)" />
<line x1="213.2" y1="140.0" x2="247.8" y2="160.0" stroke="rgb(0,0,0)"  stroke-width="1.0"/>
<line x1="247.8" y1="160.0" x2="282.5" y2="140.0" stroke="rgb(0,0,0)"  stroke-width="1.0"/>
<line x1="282.5" y1="140.0" x2="282.5" y2="100.0" stroke="rgb(0,0,0)"  stroke-width="1.0"/>
<line x1="282.5" y1="100.0" x2="247.8" y2="80.0" stroke="rgb(0,0,0)"  stroke-width="1.0"/>
<line x1="247.8" y1="80.0" x2="213.2" y2="100.0" stroke="rgb(0,0,0)"  stroke-width="1.0"/>
<line x1="213.2" y1="100.0" x2="213.2" y2="140.0" stroke="rgb(0,0,0)"  stroke-width="1.0"/>
<line x1="132.7" y1="146.5" x2="109.3" y2="160.0" stroke="rgb(0,0,0)"  stroke-width="1.0"/>
<line x1="109.3" y1="160.0" x2="74.6" y2="140.0" stroke="rgb(0,0,0)"  stroke-width="1.0"/>
<line x1="74.6" y1="140.0" x2="74.6" y2="100.0" stroke="rgb(0,0,0)"  stroke-width="1.0"/>
<line x1="74.6" y1="100.0" x2="109.3" y2="80.0" stroke="rgb(0,0,0)"  stroke-width="1.0"/>
<line x1="109.3" y1="80.0" x2="143.9" y2="100.0" stroke="rgb(0,0,0)"  stroke-width="1.0"/>
<line x1="143.9" y1="100.0" x2="143.9" y2="127.0" stroke="rgb(0,0,0)"  stroke-width="1.0"/>
<text x="313.128129" y="168.000000" fill="rgb(12,12,255)"  stroke="rgb(12,12,255)" stroke-width="1" font-size="16" >NH</text>
<text x="337.128129" y="171.680000" fill="rgb(12,12,255)"  stroke="rgb(12,12,255)" stroke-width="1" font-size="13" >2</text>
<text x="243.846097" y="48.000000" fill="rgb(12,12,255)"  stroke="rgb(12,12,255)" stroke-width="1" font-size="16" >NH</text>
<text x="267.846097" y="51.680000" fill="rgb(12,12,255)"  stroke="rgb(12,12,255)" stroke-width="1" font-size="13" >2</text>
<text x="48.641016" y="228.000000" fill="rgb(12,12,255)"  stroke="rgb(12,12,255)" stroke-width="1" font-size="16" >H</text>
<text x="60.641016" y="231.680000" fill="rgb(12,12,255)"  stroke="rgb(12,12,255)" stroke-width="1" font-size="13" >2</text>
<text x="67.141016" y="228.000000" fill="rgb(12,12,255)"  stroke="rgb(12,12,255)" stroke-width="1" font-size="16" >N</text>
<text x="160.564065" y="168.000000" fill="rgb(255,12,12)"  stroke="rgb(255,12,12)" stroke-width="1" font-size="16" >HO</text>
<text x="105.282032" y="48.000000" fill="rgb(12,12,255)"  stroke="rgb(12,12,255)" stroke-width="1" font-size="16" >NH</text>
<text x="129.282032" y="51.680000" fill="rgb(12,12,255)"  stroke="rgb(12,12,255)" stroke-width="1" font-size="13" >2</text>
<text x="241.846097" y="208.000000" fill="rgb(255,12,12)"  stroke="rgb(255,12,12)" stroke-width="1" font-size="16" >OH</text>
<text x="172.564065" y="88.000000" fill="rgb(255,12,12)"  stroke="rgb(255,12,12)" stroke-width="1" font-size="16" >O</text>
<text x="137.923048" y="148.000000" fill="rgb(255,12,12)"  stroke="rgb(255,12,12)" stroke-width="1" font-size="16" >O</text>
<text x="22.000000" y="168.000000" fill="rgb(255,12,12)"  stroke="rgb(255,12,12)" stroke-width="1" font-size="16" >HO</text>
<text x="22.000000" y="88.000000" fill="rgb(255,12,12)"  stroke="rgb(255,12,12)" stroke-width="1" font-size="16" >HO</text>
<text font-size="18.000000" fill ="black" font-family="sans-serif"
x="10.000000" y="20.000000" >2f4s_lig</text>
<title>2f4s_lig - OBDepict</title>
</svg>
