<?xml version="1.0"?>
<svg xmlns="http://www.w3.org/2000/svg"
xmlns:xlink="http://www.w3.org/1999/xlink" xmlns:cml="http://www.xml-cml.org/schema" width="672.352" height="508.343" x="0" y="0" font-family="sans-serif" stroke="rgb(0,0,0)" stroke-width="1"  stroke-linecap="round">
<rect x="0%" y="0%" width="100%" height="100%" stroke-width="0" fill="rgb(255,255,255)"  />
<polygon points="247.846 140 273.056 149.936 269.056 156.864 " stroke-width="1" fill="rgb(0,0,0)"  stroke="rgb(0,0,0)" />
<line x1="252.1" y1="96.6" x2="252.9" y2="98.0" stroke="rgb(0,0,0)"  stroke-width="1.0"/>
<line x1="255.5" y1="93.9" x2="256.9" y2="96.4" stroke="rgb(0,0,0)"  stroke-width="1.0"/>
<line x1="258.9" y1="91.2" x2="261.0" y2="94.8" stroke="rgb(0,0,0)"  stroke-width="1.0"/>
<line x1="262.3" y1="88.5" x2="265.0" y2="93.2" stroke="rgb(0,0,0)"  stroke-width="1.0"/>
<line x1="265.7" y1="85.8" x2="269.0" y2="91.7" stroke="rgb(0,0,0)"  stroke-width="1.0"/>
<line x1="269.1" y1="83.1" x2="273.1" y2="90.1" stroke="rgb(0,0,0)"  stroke-width="1.0"/>
<polygon points="213.205081 80.000000 209.205081 53.200000 217.205081 53.200000 " stroke-width="1.000000" fill="rgb(0,0,0)"  stroke="rgb(0,0,0)" />
<line x1="173.5" y1="98.0" x2="174.3" y2="96.6" stroke="rgb(0,0,0)"  stroke-width="1.0"/>
<line x1="169.5" y1="96.4" x2="170.9" y2="93.9" stroke="rgb(0,0,0)"  stroke-width="1.0"/>
<line x1="165.5" y1="94.8" x2="167.5" y2="91.2" stroke="rgb(0,0,0)"  stroke-width="1.0"/>
<line x1="161.4" y1="93.2" x2="164.1" y2="88.5" stroke="rgb(0,0,0)"  stroke-width="1.0"/>
<line x1="157.4" y1="91.7" x2="160.7" y2="85.8" stroke="rgb(0,0,0)"  stroke-width="1.0"/>
<line x1="153.4" y1="90.1" x2="157.4" y2="83.1" stroke="rgb(0,0,0)"  stroke-width="1.0"/>
<polygon points="178.564065 140.000000 145.923048 163.464102 141.923048 156.535898 " stroke-width="1.000000" fill="rgb(0,0,0)"  stroke="rgb(0,0,0)" />
<line x1="143.9" y1="160.0" x2="120.5" y2="146.5" stroke="rgb(0,0,0)"  stroke-width="1.0"/>
<line x1="293.7" y1="86.5" x2="317.1" y2="100.0" stroke="rgb(0,0,0)"  stroke-width="1.0"/>
<line x1="317.1" y1="100.0" x2="340.5" y2="86.5" stroke="rgb(0,0,0)"  stroke-width="1.0"/>
<line x1="317.1" y1="100.0" x2="317.1" y2="127.0" stroke="rgb(0,0,0)"  stroke-width="1.0"/>
<line x1="98.0" y1="146.5" x2="74.6" y2="160.0" stroke="rgb(0,0,0)"  stroke-width="1.0"/>
<line x1="74.6" y1="160.0" x2="51.3" y2="146.5" stroke="rgb(0,0,0)"  stroke-width="1.0"/>
<line x1="74.6" y1="160.0" x2="74.6" y2="187.0" stroke="rgb(0,0,0)"  stroke-width="1.0"/>
<line x1="281.7" y1="194.6" x2="283.3" y2="194.6" stroke="rgb(0,0,0)"  stroke-width="1.0"/>
<line x1="281.0" y1="190.4" x2="283.9" y2="190.4" stroke="rgb(0,0,0)"  stroke-width="1.0"/>
<line x1="280.4" y1="186.1" x2="284.6" y2="186.1" stroke="rgb(0,0,0)"  stroke-width="1.0"/>
<line x1="279.8" y1="181.8" x2="285.2" y2="181.8" stroke="rgb(0,0,0)"  stroke-width="1.0"/>
<line x1="279.1" y1="177.5" x2="285.8" y2="177.5" stroke="rgb(0,0,0)"  stroke-width="1.0"/>
<line x1="278.5" y1="173.2" x2="286.5" y2="173.2" stroke="rgb(0,0,0)"  stroke-width="1.0"/>
<line x1="283.3" y1="285.4" x2="281.7" y2="285.4" stroke="rgb(0,0,0)"  stroke-width="1.0"/>
<line x1="283.9" y1="289.6" x2="281.0" y2="289.6" stroke="rgb(0,0,0)"  stroke-width="1.0"/>
<line x1="284.6" y1="293.9" x2="280.4" y2="293.9" stroke="rgb(0,0,0)"  stroke-width="1.0"/>
<line x1="285.2" y1="298.2" x2="279.8" y2="298.2" stroke="rgb(0,0,0)"  stroke-width="1.0"/>
<line x1="285.8" y1="302.5" x2="279.1" y2="302.5" stroke="rgb(0,0,0)"  stroke-width="1.0"/>
<line x1="286.5" y1="306.8" x2="278.5" y2="306.8" stroke="rgb(0,0,0)"  stroke-width="1.0"/>
<line x1="242.8" y1="218.0" x2="243.6" y2="216.6" stroke="rgb(0,0,0)"  stroke-width="1.0"/>
<line x1="238.8" y1="216.4" x2="240.2" y2="213.9" stroke="rgb(0,0,0)"  stroke-width="1.0"/>
<line x1="234.7" y1="214.8" x2="236.8" y2="211.2" stroke="rgb(0,0,0)"  stroke-width="1.0"/>
<line x1="230.7" y1="213.2" x2="233.4" y2="208.5" stroke="rgb(0,0,0)"  stroke-width="1.0"/>
<line x1="226.7" y1="211.7" x2="230.0" y2="205.8" stroke="rgb(0,0,0)"  stroke-width="1.0"/>
<line x1="222.6" y1="210.1" x2="226.6" y2="203.1" stroke="rgb(0,0,0)"  stroke-width="1.0"/>
<line x1="321.4" y1="216.6" x2="322.2" y2="218.0" stroke="rgb(0,0,0)"  stroke-width="1.0"/>
<line x1="324.8" y1="213.9" x2="326.2" y2="216.4" stroke="rgb(0,0,0)"  stroke-width="1.0"/>
<line x1="328.2" y1="211.2" x2="330.2" y2="214.8" stroke="rgb(0,0,0)"  stroke-width="1.0"/>
<line x1="331.6" y1="208.5" x2="334.3" y2="213.2" stroke="rgb(0,0,0)"  stroke-width="1.0"/>
<line x1="334.9" y1="205.8" x2="338.3" y2="211.7" stroke="rgb(0,0,0)"  stroke-width="1.0"/>
<line x1="338.3" y1="203.1" x2="342.3" y2="210.1" stroke="rgb(0,0,0)"  stroke-width="1.0"/>
<polygon points="317.128129 260.000000 342.337610 269.935898 338.337610 276.864102 " stroke-width="1.000000" fill="rgb(0,0,0)"  stroke="rgb(0,0,0)" />
<line x1="271.2" y1="326.5" x2="247.8" y2="340.0" stroke="rgb(0,0,0)"  stroke-width="1.0"/>
<line x1="247.8" y1="340.0" x2="224.5" y2="326.5" stroke="rgb(0,0,0)"  stroke-width="1.0"/>
<line x1="247.8" y1="340.0" x2="247.8" y2="367.0" stroke="rgb(0,0,0)"  stroke-width="1.0"/>
<line x1="201.9" y1="206.5" x2="178.6" y2="220.0" stroke="rgb(0,0,0)"  stroke-width="1.0"/>
<line x1="178.6" y1="220.0" x2="155.2" y2="206.5" stroke="rgb(0,0,0)"  stroke-width="1.0"/>
<line x1="178.6" y1="220.0" x2="178.6" y2="247.0" stroke="rgb(0,0,0)"  stroke-width="1.0"/>
<polygon points="386.410162 220.000000 361.200681 210.064102 365.200681 203.135898 " stroke-width="1.000000" fill="rgb(0,0,0)"  stroke="rgb(0,0,0)" />
<polygon points="422.951980 203.730534 424.611423 176.684532 432.436604 178.347825 " stroke-width="1.000000" fill="rgb(0,0,0)"  stroke="rgb(0,0,0)" />
<line x1="455.0" y1="232.1" x2="455.1" y2="233.7" stroke="rgb(0,0,0)"  stroke-width="1.0"/>
<line x1="459.2" y1="231.0" x2="459.5" y2="233.9" stroke="rgb(0,0,0)"  stroke-width="1.0"/>
<line x1="463.4" y1="229.9" x2="463.8" y2="234.1" stroke="rgb(0,0,0)"  stroke-width="1.0"/>
<line x1="467.6" y1="228.8" x2="468.1" y2="234.3" stroke="rgb(0,0,0)"  stroke-width="1.0"/>
<line x1="471.8" y1="227.8" x2="472.5" y2="234.4" stroke="rgb(0,0,0)"  stroke-width="1.0"/>
<line x1="476.0" y1="226.7" x2="476.8" y2="234.6" stroke="rgb(0,0,0)"  stroke-width="1.0"/>
<polygon points="429.717204 268.097343 449.640852 303.012215 442.332488 306.266108 " stroke-width="1.000000" fill="rgb(0,0,0)"  stroke="rgb(0,0,0)" />
<line x1="446.0" y1="304.6" x2="430.1" y2="326.5" stroke="rgb(0,0,0)"  stroke-width="1.0"/>
<line x1="509.2" y1="257.8" x2="510.5" y2="256.8" stroke="rgb(0,0,0)"  stroke-width="1.0"/>
<line x1="506.2" y1="254.7" x2="508.5" y2="253.0" stroke="rgb(0,0,0)"  stroke-width="1.0"/>
<line x1="503.1" y1="251.6" x2="506.5" y2="249.1" stroke="rgb(0,0,0)"  stroke-width="1.0"/>
<line x1="500.1" y1="248.5" x2="504.5" y2="245.3" stroke="rgb(0,0,0)"  stroke-width="1.0"/>
<line x1="497.1" y1="245.4" x2="502.5" y2="241.4" stroke="rgb(0,0,0)"  stroke-width="1.0"/>
<line x1="494.0" y1="242.3" x2="500.5" y2="237.6" stroke="rgb(0,0,0)"  stroke-width="1.0"/>
<polygon points="552.790366 257.454730 560.036726 231.344765 567.345090 234.598658 " stroke-width="1.000000" fill="rgb(0,0,0)"  stroke="rgb(0,0,0)" />
<line x1="581.5" y1="288.5" x2="581.7" y2="290.1" stroke="rgb(0,0,0)"  stroke-width="1.0"/>
<line x1="585.7" y1="287.4" x2="586.0" y2="290.2" stroke="rgb(0,0,0)"  stroke-width="1.0"/>
<line x1="589.9" y1="286.3" x2="590.4" y2="290.4" stroke="rgb(0,0,0)"  stroke-width="1.0"/>
<line x1="594.1" y1="285.2" x2="594.7" y2="290.6" stroke="rgb(0,0,0)"  stroke-width="1.0"/>
<line x1="598.3" y1="284.1" x2="599.0" y2="290.8" stroke="rgb(0,0,0)"  stroke-width="1.0"/>
<line x1="602.5" y1="283.0" x2="603.4" y2="291.0" stroke="rgb(0,0,0)"  stroke-width="1.0"/>
<polygon points="560.032310 326.357228 579.021023 345.687743 572.548887 350.390025 " stroke-width="1.000000" fill="rgb(0,0,0)"  stroke="rgb(0,0,0)" />
<line x1="517.7" y1="338.2" x2="516.3" y2="337.5" stroke="rgb(0,0,0)"  stroke-width="1.0"/>
<line x1="515.7" y1="344.3" x2="513.1" y2="343.1" stroke="rgb(0,0,0)"  stroke-width="1.0"/>
<line x1="513.7" y1="350.4" x2="509.9" y2="348.7" stroke="rgb(0,0,0)"  stroke-width="1.0"/>
<line x1="511.7" y1="356.5" x2="506.7" y2="354.3" stroke="rgb(0,0,0)"  stroke-width="1.0"/>
<line x1="509.7" y1="362.6" x2="503.5" y2="359.9" stroke="rgb(0,0,0)"  stroke-width="1.0"/>
<line x1="507.6" y1="368.7" x2="500.3" y2="365.5" stroke="rgb(0,0,0)"  stroke-width="1.0"/>
<line x1="504.0" y1="367.1" x2="519.9" y2="388.9" stroke="rgb(0,0,0)"  stroke-width="1.0"/>
<line x1="582.0" y1="219.6" x2="608.8" y2="216.7" stroke="rgb(0,0,0)"  stroke-width="1.0"/>
<line x1="608.8" y1="216.7" x2="619.8" y2="192.1" stroke="rgb(0,0,0)"  stroke-width="1.0"/>
<line x1="608.8" y1="216.7" x2="624.7" y2="238.6" stroke="rgb(0,0,0)"  stroke-width="1.0"/>
<line x1="522.2" y1="411.3" x2="511.2" y2="436.0" stroke="rgb(0,0,0)"  stroke-width="1.0"/>
<line x1="511.2" y1="436.0" x2="484.4" y2="438.8" stroke="rgb(0,0,0)"  stroke-width="1.0"/>
<line x1="511.2" y1="436.0" x2="527.1" y2="457.8" stroke="rgb(0,0,0)"  stroke-width="1.0"/>
<line x1="386.4" y1="220.0" x2="423.0" y2="203.7" stroke="rgb(0,0,0)"  stroke-width="1.0"/>
<line x1="423.0" y1="203.7" x2="449.7" y2="233.5" stroke="rgb(0,0,0)"  stroke-width="1.0"/>
<line x1="449.7" y1="233.5" x2="429.7" y2="268.1" stroke="rgb(0,0,0)"  stroke-width="1.0"/>
<line x1="429.7" y1="268.1" x2="403.3" y2="262.5" stroke="rgb(0,0,0)"  stroke-width="1.0"/>
<line x1="389.2" y1="246.9" x2="386.4" y2="220.0" stroke="rgb(0,0,0)"  stroke-width="1.0"/>
<line x1="247.8" y1="140.0" x2="247.8" y2="100.0" stroke="rgb(0,0,0)"  stroke-width="1.0"/>
<line x1="247.8" y1="100.0" x2="213.2" y2="80.0" stroke="rgb(0,0,0)"  stroke-width="1.0"/>
<line x1="213.2" y1="80.0" x2="178.6" y2="100.0" stroke="rgb(0,0,0)"  stroke-width="1.0"/>
<line x1="178.6" y1="100.0" x2="178.6" y2="140.0" stroke="rgb(0,0,0)"  stroke-width="1.0"/>
<line x1="178.6" y1="140.0" x2="201.9" y2="153.5" stroke="rgb(0,0,0)"  stroke-width="1.0"/>
<line x1="224.5" y1="153.5" x2="247.8" y2="140.0" stroke="rgb(0,0,0)"  stroke-width="1.0"/>
<line x1="247.8" y1="260.0" x2="282.5" y2="280.0" stroke="rgb(0,0,0)"  stroke-width="1.0"/>
<line x1="282.5" y1="280.0" x2="317.1" y2="260.0" stroke="rgb(0,0,0)"  stroke-width="1.0"/>
<line x1="317.1" y1="260.0" x2="317.1" y2="220.0" stroke="rgb(0,0,0)"  stroke-width="1.0"/>
<line x1="317.1" y1="220.0" x2="282.5" y2="200.0" stroke="rgb(0,0,0)"  stroke-width="1.0"/>
<line x1="282.5" y1="200.0" x2="247.8" y2="220.0" stroke="rgb(0,0,0)"  stroke-width="1.0"/>
<line x1="247.8" y1="220.0" x2="247.8" y2="260.0" stroke="rgb(0,0,0)"  stroke-width="1.0"/>
<line x1="513.0" y1="261.6" x2="502.0" y2="286.3" stroke="rgb(0,0,0)"  stroke-width="1.0"/>
<line x1="504.4" y1="308.7" x2="520.3" y2="330.5" stroke="rgb(0,0,0)"  stroke-width="1.0"/>
<line x1="520.3" y1="330.5" x2="560.0" y2="326.4" stroke="rgb(0,0,0)"  stroke-width="1.0"/>
<line x1="560.0" y1="326.4" x2="576.3" y2="289.8" stroke="rgb(0,0,0)"  stroke-width="1.0"/>
<line x1="576.3" y1="289.8" x2="552.8" y2="257.5" stroke="rgb(0,0,0)"  stroke-width="1.0"/>
<line x1="552.8" y1="257.5" x2="513.0" y2="261.6" stroke="rgb(0,0,0)"  stroke-width="1.0"/>
<text x="207.205081" y="168.000000" fill="rgb(255,12,12)"  stroke="rgb(255,12,12)" stroke-width="1" font-size="16" >O</text>
<text x="276.487113" y="88.000000" fill="rgb(12,12,255)"  stroke="rgb(12,12,255)" stroke-width="1" font-size="16" >N</text>
<text x="276.487113" y="72.000000" fill="rgb(12,12,255)"  stroke="rgb(12,12,255)" stroke-width="1" font-size="16" >H</text>
<text x="347.769145" y="88.000000" fill="rgb(12,12,255)"  stroke="rgb(12,12,255)" stroke-width="1" font-size="16" >NH</text>
<text x="371.769145" y="91.680000" fill="rgb(12,12,255)"  stroke="rgb(12,12,255)" stroke-width="1" font-size="13" >2</text>
<text x="313.128129" y="148.000000" fill="rgb(12,12,255)"  stroke="rgb(12,12,255)" stroke-width="1" font-size="16" >NH</text>
<text x="337.128129" y="151.680000" fill="rgb(12,12,255)"  stroke="rgb(12,12,255)" stroke-width="1" font-size="13" >2</text>
<text x="103.282032" y="148.000000" fill="rgb(12,12,255)"  stroke="rgb(12,12,255)" stroke-width="1" font-size="16" >N</text>
<text x="103.282032" y="132.000000" fill="rgb(12,12,255)"  stroke="rgb(12,12,255)" stroke-width="1" font-size="16" >H</text>
<text x="14.000000" y="148.000000" fill="rgb(12,12,255)"  stroke="rgb(12,12,255)" stroke-width="1" font-size="16" >H</text>
<text x="26.000000" y="151.680000" fill="rgb(12,12,255)"  stroke="rgb(12,12,255)" stroke-width="1" font-size="13" >2</text>
<text x="32.500000" y="148.000000" fill="rgb(12,12,255)"  stroke="rgb(12,12,255)" stroke-width="1" font-size="16" >N</text>
<text x="70.641016" y="208.000000" fill="rgb(12,12,255)"  stroke="rgb(12,12,255)" stroke-width="1" font-size="16" >NH</text>
<text x="94.641016" y="211.680000" fill="rgb(12,12,255)"  stroke="rgb(12,12,255)" stroke-width="1" font-size="13" >2</text>
<text x="207.205081" y="48.000000" fill="rgb(255,12,12)"  stroke="rgb(255,12,12)" stroke-width="1" font-size="16" >OH</text>
<text x="125.923048" y="88.000000" fill="rgb(255,12,12)"  stroke="rgb(255,12,12)" stroke-width="1" font-size="16" >HO</text>
<text x="276.487113" y="168.000000" fill="rgb(255,12,12)"  stroke="rgb(255,12,12)" stroke-width="1" font-size="16" >O</text>
<text x="276.487113" y="328.000000" fill="rgb(12,12,255)"  stroke="rgb(12,12,255)" stroke-width="1" font-size="16" >NH</text>
<text x="187.205081" y="328.000000" fill="rgb(12,12,255)"  stroke="rgb(12,12,255)" stroke-width="1" font-size="16" >H</text>
<text x="199.205081" y="331.680000" fill="rgb(12,12,255)"  stroke="rgb(12,12,255)" stroke-width="1" font-size="13" >2</text>
<text x="205.705081" y="328.000000" fill="rgb(12,12,255)"  stroke="rgb(12,12,255)" stroke-width="1" font-size="16" >N</text>
<text x="243.846097" y="388.000000" fill="rgb(12,12,255)"  stroke="rgb(12,12,255)" stroke-width="1" font-size="16" >NH</text>
<text x="267.846097" y="391.680000" fill="rgb(12,12,255)"  stroke="rgb(12,12,255)" stroke-width="1" font-size="13" >2</text>
<text x="207.205081" y="208.000000" fill="rgb(12,12,255)"  stroke="rgb(12,12,255)" stroke-width="1" font-size="16" >N</text>
<text x="207.205081" y="192.000000" fill="rgb(12,12,255)"  stroke="rgb(12,12,255)" stroke-width="1" font-size="16" >H</text>
<text x="117.923048" y="208.000000" fill="rgb(12,12,255)"  stroke="rgb(12,12,255)" stroke-width="1" font-size="16" >H</text>
<text x="129.923048" y="211.680000" fill="rgb(12,12,255)"  stroke="rgb(12,12,255)" stroke-width="1" font-size="13" >2</text>
<text x="136.423048" y="208.000000" fill="rgb(12,12,255)"  stroke="rgb(12,12,255)" stroke-width="1" font-size="16" >N</text>
<text x="174.564065" y="268.000000" fill="rgb(12,12,255)"  stroke="rgb(12,12,255)" stroke-width="1" font-size="16" >NH</text>
<text x="198.564065" y="271.680000" fill="rgb(12,12,255)"  stroke="rgb(12,12,255)" stroke-width="1" font-size="13" >2</text>
<text x="345.769145" y="288.000000" fill="rgb(255,12,12)"  stroke="rgb(255,12,12)" stroke-width="1" font-size="16" >OH</text>
<text x="345.769145" y="208.000000" fill="rgb(255,12,12)"  stroke="rgb(255,12,12)" stroke-width="1" font-size="16" >O</text>
<text x="384.591300" y="267.780876" fill="rgb(255,12,12)"  stroke="rgb(255,12,12)" stroke-width="1" font-size="16" >O</text>
<text x="425.268447" y="172.604630" fill="rgb(255,12,12)"  stroke="rgb(255,12,12)" stroke-width="1" font-size="16" >OH</text>
<text x="404.475260" y="344.999842" fill="rgb(255,12,12)"  stroke="rgb(255,12,12)" stroke-width="1" font-size="16" >HO</text>
<text x="483.498080" y="237.275189" fill="rgb(255,12,12)"  stroke="rgb(255,12,12)" stroke-width="1" font-size="16" >O</text>
<text x="490.740024" y="306.177687" fill="rgb(255,12,12)"  stroke="rgb(255,12,12)" stroke-width="1" font-size="16" >O</text>
<text x="563.059832" y="228.912912" fill="rgb(12,12,255)"  stroke="rgb(12,12,255)" stroke-width="1" font-size="16" >N</text>
<text x="563.059832" y="212.912912" fill="rgb(12,12,255)"  stroke="rgb(12,12,255)" stroke-width="1" font-size="16" >H</text>
<text x="621.110173" y="188.189955" fill="rgb(12,12,255)"  stroke="rgb(12,12,255)" stroke-width="1" font-size="16" >NH</text>
<text x="645.110173" y="191.869955" fill="rgb(12,12,255)"  stroke="rgb(12,12,255)" stroke-width="1" font-size="13" >2</text>
<text x="628.352117" y="257.092453" fill="rgb(12,12,255)"  stroke="rgb(12,12,255)" stroke-width="1" font-size="16" >NH</text>
<text x="652.352117" y="260.772453" fill="rgb(12,12,255)"  stroke="rgb(12,12,255)" stroke-width="1" font-size="13" >2</text>
<text x="521.493379" y="407.440865" fill="rgb(12,12,255)"  stroke="rgb(12,12,255)" stroke-width="1" font-size="16" >NH</text>
<text x="445.443037" y="448.163822" fill="rgb(12,12,255)"  stroke="rgb(12,12,255)" stroke-width="1" font-size="16" >H</text>
<text x="457.443037" y="451.843822" fill="rgb(12,12,255)"  stroke="rgb(12,12,255)" stroke-width="1" font-size="13" >2</text>
<text x="463.943037" y="448.163822" fill="rgb(12,12,255)"  stroke="rgb(12,12,255)" stroke-width="1" font-size="16" >N</text>
<text x="530.735323" y="476.343363" fill="rgb(12,12,255)"  stroke="rgb(12,12,255)" stroke-width="1" font-size="16" >NH</text>
<text x="554.735323" y="480.023363" fill="rgb(12,12,255)"  stroke="rgb(12,12,255)" stroke-width="1" font-size="13" >2</text>
<text x="610.082652" y="293.634271" fill="rgb(255,12,12)"  stroke="rgb(255,12,12)" stroke-width="1" font-size="16" >OH</text>
<text x="577.543720" y="366.717908" fill="rgb(255,12,12)"  stroke="rgb(255,12,12)" stroke-width="1" font-size="16" >OH</text>
<text font-size="18.000000" fill ="black" font-family="sans-serif"
x="10.000000" y="20.000000" >2juk_lig</text>
<title>2juk_lig - OBDepict</title>
</svg>
