<?xml version="1.0"?>
<svg xmlns="http://www.w3.org/2000/svg"
xmlns:xlink="http://www.w3.org/1999/xlink" xmlns:cml="http://www.xml-cml.org/schema" width="518.859" height="230.042" x="0" y="0" font-family="sans-serif" stroke="rgb(0,0,0)" stroke-width="1"  stroke-linecap="round">
<rect x="0%" y="0%" width="100%" height="100%" stroke-width="0" fill="rgb(255,255,255)"  />
<polygon points="105.891 143.683 120.851 121.09 126.796 126.443 " stroke-width="1" fill="rgb(0,0,0)"  stroke="rgb(0,0,0)" />
<line x1="105.9" y1="143.7" x2="118.3" y2="181.7" stroke="rgb(0,0,0)"  stroke-width="1.0"/>
<line x1="105.9" y1="143.7" x2="66.8" y2="135.4" stroke="rgb(0,0,0)"  stroke-width="1.0"/>
<line x1="66.8" y1="135.4" x2="48.7" y2="155.4" stroke="rgb(0,0,0)"  stroke-width="1.0"/>
<line x1="66.8" y1="135.4" x2="58.4" y2="109.7" stroke="rgb(0,0,0)"  stroke-width="1.0"/>
<line x1="118.3" y1="181.7" x2="157.4" y2="190.0" stroke="rgb(0,0,0)"  stroke-width="1.0"/>
<line x1="172.3" y1="174.6" x2="171.1" y2="173.6" stroke="rgb(0,0,0)"  stroke-width="1.0"/>
<line x1="169.9" y1="178.3" x2="167.8" y2="176.3" stroke="rgb(0,0,0)"  stroke-width="1.0"/>
<line x1="167.5" y1="181.9" x2="164.4" y2="179.1" stroke="rgb(0,0,0)"  stroke-width="1.0"/>
<line x1="165.1" y1="185.5" x2="161.1" y2="181.8" stroke="rgb(0,0,0)"  stroke-width="1.0"/>
<line x1="162.7" y1="189.1" x2="157.7" y2="184.6" stroke="rgb(0,0,0)"  stroke-width="1.0"/>
<line x1="160.4" y1="192.7" x2="154.4" y2="187.4" stroke="rgb(0,0,0)"  stroke-width="1.0"/>
<line x1="175.8" y1="134.6" x2="180.1" y2="148.0" stroke="rgb(0,0,0)"  stroke-width="1.0"/>
<line x1="196.9" y1="163.0" x2="223.3" y2="168.6" stroke="rgb(0,0,0)"  stroke-width="1.0"/>
<line x1="245.3" y1="145.4" x2="244.1" y2="144.3" stroke="rgb(0,0,0)"  stroke-width="1.0"/>
<line x1="241.5" y1="150.6" x2="239.3" y2="148.6" stroke="rgb(0,0,0)"  stroke-width="1.0"/>
<line x1="237.7" y1="155.8" x2="234.6" y2="153.0" stroke="rgb(0,0,0)"  stroke-width="1.0"/>
<line x1="233.9" y1="160.9" x2="229.8" y2="157.3" stroke="rgb(0,0,0)"  stroke-width="1.0"/>
<line x1="230.0" y1="166.1" x2="225.1" y2="161.6" stroke="rgb(0,0,0)"  stroke-width="1.0"/>
<line x1="226.2" y1="171.3" x2="220.3" y2="166.0" stroke="rgb(0,0,0)"  stroke-width="1.0"/>
<polygon points="241.717597 99.780876 215.607632 92.534516 218.861525 85.226152 " stroke-width="1.000000" fill="rgb(0,0,0)"  stroke="rgb(0,0,0)" />
<polygon points="276.358613 79.780876 275.181888 52.709575 283.138064 53.545803 " stroke-width="1.000000" fill="rgb(0,0,0)"  stroke="rgb(0,0,0)" />
<line x1="311.2" y1="104.6" x2="311.5" y2="106.2" stroke="rgb(0,0,0)"  stroke-width="1.0"/>
<line x1="315.2" y1="103.1" x2="315.8" y2="105.9" stroke="rgb(0,0,0)"  stroke-width="1.0"/>
<line x1="319.3" y1="101.6" x2="320.1" y2="105.7" stroke="rgb(0,0,0)"  stroke-width="1.0"/>
<line x1="323.3" y1="100.1" x2="324.5" y2="105.4" stroke="rgb(0,0,0)"  stroke-width="1.0"/>
<line x1="327.4" y1="98.6" x2="328.8" y2="105.2" stroke="rgb(0,0,0)"  stroke-width="1.0"/>
<line x1="331.5" y1="97.1" x2="333.1" y2="104.9" stroke="rgb(0,0,0)"  stroke-width="1.0"/>
<line x1="444.2" y1="125.0" x2="467.6" y2="111.5" stroke="rgb(0,0,0)"  stroke-width="1.0"/>
<line x1="250.0" y1="138.9" x2="241.7" y2="99.8" stroke="rgb(0,0,0)"  stroke-width="1.0"/>
<line x1="241.7" y1="99.8" x2="276.4" y2="79.8" stroke="rgb(0,0,0)"  stroke-width="1.0"/>
<line x1="276.4" y1="79.8" x2="306.1" y2="106.5" stroke="rgb(0,0,0)"  stroke-width="1.0"/>
<line x1="306.1" y1="106.5" x2="295.1" y2="131.2" stroke="rgb(0,0,0)"  stroke-width="1.0"/>
<line x1="276.9" y1="141.7" x2="250.0" y2="138.9" stroke="rgb(0,0,0)"  stroke-width="1.0"/>
<line x1="361.5" y1="61.7" x2="350.5" y2="86.4" stroke="rgb(0,0,0)"  stroke-width="1.0"/>
<line x1="354.9" y1="106.9" x2="374.9" y2="125.0" stroke="rgb(0,0,0)"  stroke-width="1.0"/>
<line x1="374.9" y1="125.0" x2="409.6" y2="105.0" stroke="rgb(0,0,0)"  stroke-width="1.0"/>
<line x1="376.5" y1="115.8" x2="400.8" y2="101.8" stroke="rgb(0,0,0)"  stroke-width="1.0"/>
<line x1="409.6" y1="105.0" x2="404.0" y2="78.6" stroke="rgb(0,0,0)"  stroke-width="1.0"/>
<line x1="388.1" y1="64.5" x2="361.5" y2="61.7" stroke="rgb(0,0,0)"  stroke-width="1.0"/>
<line x1="385.4" y1="71.4" x2="366.7" y2="69.5" stroke="rgb(0,0,0)"  stroke-width="1.0"/>
<line x1="409.6" y1="185.0" x2="433.0" y2="171.5" stroke="rgb(0,0,0)"  stroke-width="1.0"/>
<line x1="444.2" y1="151.8" x2="444.2" y2="125.0" stroke="rgb(0,0,0)"  stroke-width="1.0"/>
<line x1="437.0" y1="149.8" x2="437.0" y2="131.0" stroke="rgb(0,0,0)"  stroke-width="1.0"/>
<line x1="444.2" y1="125.0" x2="409.6" y2="105.0" stroke="rgb(0,0,0)"  stroke-width="1.0"/>
<line x1="374.9" y1="125.0" x2="374.9" y2="152.0" stroke="rgb(0,0,0)"  stroke-width="1.0"/>
<line x1="386.4" y1="171.6" x2="409.6" y2="185.0" stroke="rgb(0,0,0)"  stroke-width="1.0"/>
<line x1="391.7" y1="166.4" x2="408.0" y2="175.8" stroke="rgb(0,0,0)"  stroke-width="1.0"/>
<text x="128.656353" y="121.957377" fill="rgb(12,12,255)"  stroke="rgb(12,12,255)" stroke-width="1" font-size="16" >NH</text>
<text x="152.656353" y="125.637377" fill="rgb(12,12,255)"  stroke="rgb(12,12,255)" stroke-width="1" font-size="13" >2</text>
<text x="36.404544" y="105.324442" fill="rgb(255,12,12)"  stroke="rgb(255,12,12)" stroke-width="1" font-size="16" >HO</text>
<text x="145.782257" y="130.273845" fill="rgb(102,102,102)"  stroke="rgb(102,102,102)" stroke-width="1" font-size="16" >H</text>
<text x="157.782257" y="133.953845" fill="rgb(102,102,102)"  stroke="rgb(102,102,102)" stroke-width="1" font-size="13" >3</text>
<text x="164.282257" y="130.273845" fill="rgb(102,102,102)"  stroke="rgb(102,102,102)" stroke-width="1" font-size="16" >C</text>
<text x="178.142936" y="168.316105" fill="rgb(255,160,0)"  stroke="rgb(255,160,0)" stroke-width="1" font-size="16" >Se</text>
<text x="283.814940" y="151.087918" fill="rgb(255,12,12)"  stroke="rgb(255,12,12)" stroke-width="1" font-size="16" >O</text>
<text x="187.175779" y="91.511410" fill="rgb(255,12,12)"  stroke="rgb(255,12,12)" stroke-width="1" font-size="16" >HO</text>
<text x="274.539752" y="48.000000" fill="rgb(255,12,12)"  stroke="rgb(255,12,12)" stroke-width="1" font-size="16" >OH</text>
<text x="22.000000" y="173.092495" fill="rgb(255,12,12)"  stroke="rgb(255,12,12)" stroke-width="1" font-size="16" >HO</text>
<text x="438.218136" y="172.994857" fill="rgb(12,12,255)"  stroke="rgb(12,12,255)" stroke-width="1" font-size="16" >N</text>
<text x="368.936103" y="172.994857" fill="rgb(12,12,255)"  stroke="rgb(12,12,255)" stroke-width="1" font-size="16" >N</text>
<text x="474.859152" y="112.994857" fill="rgb(12,12,255)"  stroke="rgb(12,12,255)" stroke-width="1" font-size="16" >NH</text>
<text x="498.859152" y="116.674857" fill="rgb(12,12,255)"  stroke="rgb(12,12,255)" stroke-width="1" font-size="13" >2</text>
<text x="395.260652" y="73.868953" fill="rgb(12,12,255)"  stroke="rgb(12,12,255)" stroke-width="1" font-size="16" >N</text>
<text x="339.210310" y="106.229632" fill="rgb(12,12,255)"  stroke="rgb(12,12,255)" stroke-width="1" font-size="16" >N</text>
<text font-size="18.000000" fill ="black" font-family="sans-serif"
x="10.000000" y="20.000000" >ligand</text>
<title>ligand - OBDepict</title>
</svg>
