<?xml version="1.0"?>
<svg xmlns="http://www.w3.org/2000/svg"
xmlns:xlink="http://www.w3.org/1999/xlink" xmlns:cml="http://www.xml-cml.org/schema" width="547.02" height="440" x="0" y="0" font-family="sans-serif" stroke="rgb(0,0,0)" stroke-width="1"  stroke-linecap="round">
<rect x="0%" y="0%" width="100%" height="100%" stroke-width="0" fill="rgb(255,255,255)"  />
<polygon points="368.456 340 343.246 330.064 347.246 323.136 " stroke-width="1" fill="rgb(0,0,0)"  stroke="rgb(0,0,0)" />
<polygon points="333.815 280 337.815 306.8 329.815 306.8 " stroke-width="1" fill="rgb(0,0,0)"  stroke="rgb(0,0,0)" />
<line x1="294.9" y1="263.4" x2="294.1" y2="262.0" stroke="rgb(0,0,0)"  stroke-width="1.0"/>
<line x1="291.5" y1="266.1" x2="290.1" y2="263.6" stroke="rgb(0,0,0)"  stroke-width="1.0"/>
<line x1="288.1" y1="268.8" x2="286.1" y2="265.2" stroke="rgb(0,0,0)"  stroke-width="1.0"/>
<line x1="284.8" y1="271.5" x2="282.0" y2="266.8" stroke="rgb(0,0,0)"  stroke-width="1.0"/>
<line x1="281.4" y1="274.2" x2="278.0" y2="268.3" stroke="rgb(0,0,0)"  stroke-width="1.0"/>
<line x1="278.0" y1="276.9" x2="274.0" y2="269.9" stroke="rgb(0,0,0)"  stroke-width="1.0"/>
<polygon points="299.173647 220.000000 273.964166 210.064102 277.964166 203.135898 " stroke-width="1.000000" fill="rgb(0,0,0)"  stroke="rgb(0,0,0)" />
<polygon points="229.891614 260.000000 255.101095 269.935898 251.101095 276.864102 " stroke-width="1.000000" fill="rgb(0,0,0)"  stroke="rgb(0,0,0)" />
<line x1="193.0" y1="281.7" x2="191.5" y2="281.3" stroke="rgb(0,0,0)"  stroke-width="1.0"/>
<line x1="192.8" y1="286.0" x2="189.9" y2="285.4" stroke="rgb(0,0,0)"  stroke-width="1.0"/>
<line x1="192.5" y1="290.3" x2="188.4" y2="289.5" stroke="rgb(0,0,0)"  stroke-width="1.0"/>
<line x1="192.2" y1="294.7" x2="186.9" y2="293.5" stroke="rgb(0,0,0)"  stroke-width="1.0"/>
<line x1="192.0" y1="299.0" x2="185.4" y2="297.6" stroke="rgb(0,0,0)"  stroke-width="1.0"/>
<line x1="191.7" y1="303.3" x2="183.9" y2="301.7" stroke="rgb(0,0,0)"  stroke-width="1.0"/>
<line x1="161.3" y1="247.9" x2="161.2" y2="246.3" stroke="rgb(0,0,0)"  stroke-width="1.0"/>
<line x1="157.1" y1="249.0" x2="156.8" y2="246.1" stroke="rgb(0,0,0)"  stroke-width="1.0"/>
<line x1="152.9" y1="250.1" x2="152.5" y2="245.9" stroke="rgb(0,0,0)"  stroke-width="1.0"/>
<line x1="148.7" y1="251.2" x2="148.2" y2="245.7" stroke="rgb(0,0,0)"  stroke-width="1.0"/>
<line x1="144.5" y1="252.2" x2="143.8" y2="245.6" stroke="rgb(0,0,0)"  stroke-width="1.0"/>
<line x1="140.3" y1="253.3" x2="139.5" y2="245.4" stroke="rgb(0,0,0)"  stroke-width="1.0"/>
<polygon points="186.584572 211.902657 166.660924 176.987785 173.969288 173.733892 " stroke-width="1.000000" fill="rgb(0,0,0)"  stroke="rgb(0,0,0)" />
<line x1="107.1" y1="222.2" x2="105.8" y2="223.2" stroke="rgb(0,0,0)"  stroke-width="1.0"/>
<line x1="110.1" y1="225.3" x2="107.8" y2="227.0" stroke="rgb(0,0,0)"  stroke-width="1.0"/>
<line x1="113.2" y1="228.4" x2="109.8" y2="230.9" stroke="rgb(0,0,0)"  stroke-width="1.0"/>
<line x1="116.2" y1="231.5" x2="111.8" y2="234.7" stroke="rgb(0,0,0)"  stroke-width="1.0"/>
<line x1="119.2" y1="234.6" x2="113.8" y2="238.6" stroke="rgb(0,0,0)"  stroke-width="1.0"/>
<line x1="122.3" y1="237.7" x2="115.8" y2="242.4" stroke="rgb(0,0,0)"  stroke-width="1.0"/>
<line x1="62.1" y1="227.8" x2="60.6" y2="227.1" stroke="rgb(0,0,0)"  stroke-width="1.0"/>
<line x1="60.9" y1="231.9" x2="58.3" y2="230.8" stroke="rgb(0,0,0)"  stroke-width="1.0"/>
<line x1="59.7" y1="236.1" x2="55.9" y2="234.4" stroke="rgb(0,0,0)"  stroke-width="1.0"/>
<line x1="58.6" y1="240.3" x2="53.6" y2="238.1" stroke="rgb(0,0,0)"  stroke-width="1.0"/>
<line x1="57.4" y1="244.5" x2="51.3" y2="241.7" stroke="rgb(0,0,0)"  stroke-width="1.0"/>
<line x1="56.3" y1="248.7" x2="49.0" y2="245.4" stroke="rgb(0,0,0)"  stroke-width="1.0"/>
<polygon points="368.455679 380.000000 347.246198 396.864102 343.246198 389.935898 " stroke-width="1.000000" fill="rgb(0,0,0)"  stroke="rgb(0,0,0)" />
<line x1="98.6" y1="141.8" x2="100.0" y2="142.5" stroke="rgb(0,0,0)"  stroke-width="1.0"/>
<line x1="100.6" y1="135.7" x2="103.2" y2="136.9" stroke="rgb(0,0,0)"  stroke-width="1.0"/>
<line x1="102.6" y1="129.6" x2="106.4" y2="131.3" stroke="rgb(0,0,0)"  stroke-width="1.0"/>
<line x1="104.6" y1="123.5" x2="109.6" y2="125.7" stroke="rgb(0,0,0)"  stroke-width="1.0"/>
<line x1="106.6" y1="117.4" x2="112.8" y2="120.1" stroke="rgb(0,0,0)"  stroke-width="1.0"/>
<line x1="108.7" y1="111.3" x2="116.0" y2="114.5" stroke="rgb(0,0,0)"  stroke-width="1.0"/>
<polygon points="333.814663 80.000000 301.173647 103.464102 297.173647 96.535898 " stroke-width="1.000000" fill="rgb(0,0,0)"  stroke="rgb(0,0,0)" />
<line x1="333.8" y1="80.0" x2="333.8" y2="53.0" stroke="rgb(0,0,0)"  stroke-width="1.0"/>
<line x1="368.5" y1="140.0" x2="345.1" y2="153.5" stroke="rgb(0,0,0)"  stroke-width="1.0"/>
<line x1="299.2" y1="100.0" x2="299.2" y2="127.0" stroke="rgb(0,0,0)"  stroke-width="1.0"/>
<line x1="369.3" y1="108.0" x2="367.7" y2="108.0" stroke="rgb(0,0,0)"  stroke-width="1.0"/>
<line x1="369.9" y1="114.4" x2="367.0" y2="114.4" stroke="rgb(0,0,0)"  stroke-width="1.0"/>
<line x1="370.5" y1="120.8" x2="366.4" y2="120.8" stroke="rgb(0,0,0)"  stroke-width="1.0"/>
<line x1="371.2" y1="127.2" x2="365.7" y2="127.2" stroke="rgb(0,0,0)"  stroke-width="1.0"/>
<line x1="371.8" y1="133.6" x2="365.1" y2="133.6" stroke="rgb(0,0,0)"  stroke-width="1.0"/>
<line x1="372.5" y1="140.0" x2="364.5" y2="140.0" stroke="rgb(0,0,0)"  stroke-width="1.0"/>
<line x1="368.5" y1="100.0" x2="333.8" y2="80.0" stroke="rgb(0,0,0)"  stroke-width="1.0"/>
<line x1="368.5" y1="100.0" x2="391.8" y2="86.5" stroke="rgb(0,0,0)"  stroke-width="1.0"/>
<line x1="444.3" y1="335.3" x2="445.1" y2="336.7" stroke="rgb(0,0,0)"  stroke-width="1.0"/>
<line x1="449.5" y1="331.6" x2="450.9" y2="334.0" stroke="rgb(0,0,0)"  stroke-width="1.0"/>
<line x1="454.7" y1="327.8" x2="456.8" y2="331.4" stroke="rgb(0,0,0)"  stroke-width="1.0"/>
<line x1="459.9" y1="324.0" x2="462.7" y2="328.8" stroke="rgb(0,0,0)"  stroke-width="1.0"/>
<line x1="465.2" y1="320.3" x2="468.5" y2="326.1" stroke="rgb(0,0,0)"  stroke-width="1.0"/>
<line x1="470.4" y1="316.5" x2="474.4" y2="323.5" stroke="rgb(0,0,0)"  stroke-width="1.0"/>
<line x1="472.4" y1="320.0" x2="495.8" y2="333.5" stroke="rgb(0,0,0)"  stroke-width="1.0"/>
<line x1="333.0" y1="194.6" x2="334.6" y2="194.6" stroke="rgb(0,0,0)"  stroke-width="1.0"/>
<line x1="332.4" y1="190.4" x2="335.3" y2="190.4" stroke="rgb(0,0,0)"  stroke-width="1.0"/>
<line x1="331.7" y1="186.1" x2="335.9" y2="186.1" stroke="rgb(0,0,0)"  stroke-width="1.0"/>
<line x1="331.1" y1="181.8" x2="336.5" y2="181.8" stroke="rgb(0,0,0)"  stroke-width="1.0"/>
<line x1="330.5" y1="177.5" x2="337.2" y2="177.5" stroke="rgb(0,0,0)"  stroke-width="1.0"/>
<line x1="329.8" y1="173.2" x2="337.8" y2="173.2" stroke="rgb(0,0,0)"  stroke-width="1.0"/>
<line x1="373.5" y1="262.0" x2="372.7" y2="263.4" stroke="rgb(0,0,0)"  stroke-width="1.0"/>
<line x1="377.5" y1="263.6" x2="376.1" y2="266.1" stroke="rgb(0,0,0)"  stroke-width="1.0"/>
<line x1="381.6" y1="265.2" x2="379.5" y2="268.8" stroke="rgb(0,0,0)"  stroke-width="1.0"/>
<line x1="385.6" y1="266.8" x2="382.9" y2="271.5" stroke="rgb(0,0,0)"  stroke-width="1.0"/>
<line x1="389.6" y1="268.3" x2="386.3" y2="274.2" stroke="rgb(0,0,0)"  stroke-width="1.0"/>
<line x1="393.7" y1="269.9" x2="389.7" y2="276.9" stroke="rgb(0,0,0)"  stroke-width="1.0"/>
<line x1="139.2" y1="110.1" x2="112.3" y2="112.9" stroke="rgb(0,0,0)"  stroke-width="1.0"/>
<line x1="186.2" y1="153.5" x2="170.3" y2="175.4" stroke="rgb(0,0,0)"  stroke-width="1.0"/>
<line x1="390.3" y1="156.1" x2="367.0" y2="142.6" stroke="rgb(0,0,0)"  stroke-width="1.0"/>
<line x1="393.3" y1="150.9" x2="370.0" y2="137.4" stroke="rgb(0,0,0)"  stroke-width="1.0"/>
<line x1="229.9" y1="260.0" x2="227.1" y2="233.1" stroke="rgb(0,0,0)"  stroke-width="1.0"/>
<line x1="213.0" y1="217.5" x2="186.6" y2="211.9" stroke="rgb(0,0,0)"  stroke-width="1.0"/>
<line x1="186.6" y1="211.9" x2="166.6" y2="246.5" stroke="rgb(0,0,0)"  stroke-width="1.0"/>
<line x1="166.6" y1="246.5" x2="193.3" y2="276.3" stroke="rgb(0,0,0)"  stroke-width="1.0"/>
<line x1="193.3" y1="276.3" x2="229.9" y2="260.0" stroke="rgb(0,0,0)"  stroke-width="1.0"/>
<line x1="103.3" y1="218.4" x2="114.3" y2="193.7" stroke="rgb(0,0,0)"  stroke-width="1.0"/>
<line x1="111.9" y1="171.3" x2="96.1" y2="149.5" stroke="rgb(0,0,0)"  stroke-width="1.0"/>
<line x1="96.1" y1="149.5" x2="56.3" y2="153.6" stroke="rgb(0,0,0)"  stroke-width="1.0"/>
<line x1="56.3" y1="153.6" x2="40.0" y2="190.2" stroke="rgb(0,0,0)"  stroke-width="1.0"/>
<line x1="40.0" y1="190.2" x2="63.5" y2="222.5" stroke="rgb(0,0,0)"  stroke-width="1.0"/>
<line x1="63.5" y1="222.5" x2="103.3" y2="218.4" stroke="rgb(0,0,0)"  stroke-width="1.0"/>
<line x1="368.5" y1="340.0" x2="368.5" y2="380.0" stroke="rgb(0,0,0)"  stroke-width="1.0"/>
<line x1="368.5" y1="380.0" x2="403.1" y2="400.0" stroke="rgb(0,0,0)"  stroke-width="1.0"/>
<line x1="403.1" y1="400.0" x2="437.7" y2="380.0" stroke="rgb(0,0,0)"  stroke-width="1.0"/>
<line x1="437.7" y1="380.0" x2="437.7" y2="340.0" stroke="rgb(0,0,0)"  stroke-width="1.0"/>
<line x1="437.7" y1="340.0" x2="414.4" y2="326.5" stroke="rgb(0,0,0)"  stroke-width="1.0"/>
<line x1="391.8" y1="326.5" x2="368.5" y2="340.0" stroke="rgb(0,0,0)"  stroke-width="1.0"/>
<line x1="333.8" y1="280.0" x2="368.5" y2="260.0" stroke="rgb(0,0,0)"  stroke-width="1.0"/>
<line x1="368.5" y1="260.0" x2="368.5" y2="220.0" stroke="rgb(0,0,0)"  stroke-width="1.0"/>
<line x1="368.5" y1="220.0" x2="333.8" y2="200.0" stroke="rgb(0,0,0)"  stroke-width="1.0"/>
<line x1="333.8" y1="200.0" x2="299.2" y2="220.0" stroke="rgb(0,0,0)"  stroke-width="1.0"/>
<line x1="299.2" y1="220.0" x2="299.2" y2="260.0" stroke="rgb(0,0,0)"  stroke-width="1.0"/>
<line x1="299.2" y1="260.0" x2="333.8" y2="280.0" stroke="rgb(0,0,0)"  stroke-width="1.0"/>
<text x="327.814663" y="48.000000" fill="rgb(127,178,255)"  stroke="rgb(127,178,255)" stroke-width="1" font-size="16" >F</text>
<text x="148.100683" y="116.738677" fill="rgb(12,12,255)"  stroke="rgb(12,12,255)" stroke-width="1" font-size="16" >NH</text>
<text x="172.100683" y="120.418677" fill="rgb(12,12,255)"  stroke="rgb(12,12,255)" stroke-width="1" font-size="13" >2</text>
<text x="307.814663" y="408.000000" fill="rgb(12,12,255)"  stroke="rgb(12,12,255)" stroke-width="1" font-size="16" >H</text>
<text x="319.814663" y="411.680000" fill="rgb(12,12,255)"  stroke="rgb(12,12,255)" stroke-width="1" font-size="13" >2</text>
<text x="326.314663" y="408.000000" fill="rgb(12,12,255)"  stroke="rgb(12,12,255)" stroke-width="1" font-size="16" >N</text>
<text x="21.241944" y="267.087088" fill="rgb(12,12,255)"  stroke="rgb(12,12,255)" stroke-width="1" font-size="16" >H</text>
<text x="33.241944" y="270.767088" fill="rgb(12,12,255)"  stroke="rgb(12,12,255)" stroke-width="1" font-size="13" >2</text>
<text x="39.741944" y="267.087088" fill="rgb(12,12,255)"  stroke="rgb(12,12,255)" stroke-width="1" font-size="16" >N</text>
<text x="295.173647" y="148.000000" fill="rgb(12,12,255)"  stroke="rgb(12,12,255)" stroke-width="1" font-size="16" >NH</text>
<text x="319.173647" y="151.680000" fill="rgb(12,12,255)"  stroke="rgb(12,12,255)" stroke-width="1" font-size="13" >2</text>
<text x="503.019744" y="348.000000" fill="rgb(12,12,255)"  stroke="rgb(12,12,255)" stroke-width="1" font-size="16" >NH</text>
<text x="527.019744" y="351.680000" fill="rgb(12,12,255)"  stroke="rgb(12,12,255)" stroke-width="1" font-size="13" >2</text>
<text x="315.814663" y="168.000000" fill="rgb(12,12,255)"  stroke="rgb(12,12,255)" stroke-width="1" font-size="16" >HN</text>
<text x="399.096695" y="288.000000" fill="rgb(12,12,255)"  stroke="rgb(12,12,255)" stroke-width="1" font-size="16" >NH</text>
<text x="423.096695" y="291.680000" fill="rgb(12,12,255)"  stroke="rgb(12,12,255)" stroke-width="1" font-size="13" >2</text>
<text x="327.814663" y="328.000000" fill="rgb(255,12,12)"  stroke="rgb(255,12,12)" stroke-width="1" font-size="16" >O</text>
<text x="258.532631" y="288.000000" fill="rgb(255,12,12)"  stroke="rgb(255,12,12)" stroke-width="1" font-size="16" >O</text>
<text x="246.532631" y="208.000000" fill="rgb(255,12,12)"  stroke="rgb(255,12,12)" stroke-width="1" font-size="16" >HO</text>
<text x="167.033328" y="323.395370" fill="rgb(255,12,12)"  stroke="rgb(255,12,12)" stroke-width="1" font-size="16" >HO</text>
<text x="219.710476" y="228.219124" fill="rgb(255,12,12)"  stroke="rgb(255,12,12)" stroke-width="1" font-size="16" >O</text>
<text x="187.826516" y="151.000158" fill="rgb(255,12,12)"  stroke="rgb(255,12,12)" stroke-width="1" font-size="16" >OH</text>
<text x="120.803696" y="258.724811" fill="rgb(255,12,12)"  stroke="rgb(255,12,12)" stroke-width="1" font-size="16" >O</text>
<text x="397.096695" y="88.000000" fill="rgb(255,12,12)"  stroke="rgb(255,12,12)" stroke-width="1" font-size="16" >OH</text>
<text x="397.096695" y="168.000000" fill="rgb(255,12,12)"  stroke="rgb(255,12,12)" stroke-width="1" font-size="16" >O</text>
<text x="113.561752" y="189.822313" fill="rgb(255,12,12)"  stroke="rgb(255,12,12)" stroke-width="1" font-size="16" >O</text>
<text x="397.096695" y="328.000000" fill="rgb(255,12,12)"  stroke="rgb(255,12,12)" stroke-width="1" font-size="16" >O</text>
<text font-size="18.000000" fill ="black" font-family="sans-serif"
x="10.000000" y="20.000000" ></text>
<title> - OBDepict</title>
</svg>
