<?xml version="1.0"?>
<svg xmlns="http://www.w3.org/2000/svg"
xmlns:xlink="http://www.w3.org/1999/xlink" xmlns:cml="http://www.xml-cml.org/schema" width="564.974" height="280" x="0" y="0" font-family="sans-serif" stroke="rgb(0,0,0)" stroke-width="1"  stroke-linecap="round">
<rect x="0%" y="0%" width="100%" height="100%" stroke-width="0" fill="rgb(255,255,255)"  />
<line x1="486.1" y1="103.4" x2="485.3" y2="102.0" stroke="rgb(0,0,0)"  stroke-width="1.0"/>
<line x1="482.7" y1="106.1" x2="481.3" y2="103.6" stroke="rgb(0,0,0)"  stroke-width="1.0"/>
<line x1="479.3" y1="108.8" x2="477.2" y2="105.2" stroke="rgb(0,0,0)"  stroke-width="1.0"/>
<line x1="475.9" y1="111.5" x2="473.2" y2="106.8" stroke="rgb(0,0,0)"  stroke-width="1.0"/>
<line x1="472.5" y1="114.2" x2="469.2" y2="108.3" stroke="rgb(0,0,0)"  stroke-width="1.0"/>
<line x1="469.1" y1="116.9" x2="465.1" y2="109.9" stroke="rgb(0,0,0)"  stroke-width="1.0"/>
<line x1="490.3" y1="100.0" x2="525.0" y2="120.0" stroke="rgb(0,0,0)"  stroke-width="1.0"/>
<line x1="490.3" y1="100.0" x2="490.3" y2="60.0" stroke="rgb(0,0,0)"  stroke-width="1.0"/>
<line x1="444.4" y1="113.5" x2="421.1" y2="100.0" stroke="rgb(0,0,0)"  stroke-width="1.0"/>
<line x1="418.1" y1="100.0" x2="418.1" y2="73.0" stroke="rgb(0,0,0)"  stroke-width="1.0"/>
<line x1="424.1" y1="100.0" x2="424.1" y2="73.0" stroke="rgb(0,0,0)"  stroke-width="1.0"/>
<line x1="525.0" y1="120.0" x2="525.0" y2="160.0" stroke="rgb(0,0,0)"  stroke-width="1.0"/>
<line x1="525.0" y1="160.0" x2="490.3" y2="180.0" stroke="rgb(0,0,0)"  stroke-width="1.0"/>
<line x1="490.3" y1="180.0" x2="467.0" y2="166.5" stroke="rgb(0,0,0)"  stroke-width="1.0"/>
<line x1="490.3" y1="180.0" x2="490.3" y2="207.0" stroke="rgb(0,0,0)"  stroke-width="1.0"/>
<line x1="51.3" y1="233.5" x2="74.6" y2="220.0" stroke="rgb(0,0,0)"  stroke-width="1.0"/>
<line x1="106.3" y1="160.0" x2="106.3" y2="133.0" stroke="rgb(0,0,0)"  stroke-width="1.0"/>
<line x1="112.3" y1="160.0" x2="112.3" y2="133.0" stroke="rgb(0,0,0)"  stroke-width="1.0"/>
<line x1="178.6" y1="120.0" x2="155.2" y2="106.5" stroke="rgb(0,0,0)"  stroke-width="1.0"/>
<line x1="178.6" y1="120.0" x2="178.6" y2="147.0" stroke="rgb(0,0,0)"  stroke-width="1.0"/>
<polygon points="213.205081 180.000000 245.846097 156.535898 249.846097 163.464102 " stroke-width="1.000000" fill="rgb(0,0,0)"  stroke="rgb(0,0,0)" />
<line x1="247.8" y1="160.0" x2="271.2" y2="173.5" stroke="rgb(0,0,0)"  stroke-width="1.0"/>
<line x1="293.7" y1="173.5" x2="317.1" y2="160.0" stroke="rgb(0,0,0)"  stroke-width="1.0"/>
<line x1="421.1" y1="100.0" x2="386.4" y2="120.0" stroke="rgb(0,0,0)"  stroke-width="1.0"/>
<line x1="513.7" y1="46.5" x2="490.3" y2="60.0" stroke="rgb(0,0,0)"  stroke-width="1.0"/>
<line x1="467.0" y1="46.5" x2="490.3" y2="60.0" stroke="rgb(0,0,0)"  stroke-width="1.0"/>
<line x1="85.9" y1="173.5" x2="109.3" y2="160.0" stroke="rgb(0,0,0)"  stroke-width="1.0"/>
<line x1="109.3" y1="160.0" x2="143.9" y2="180.0" stroke="rgb(0,0,0)"  stroke-width="1.0"/>
<line x1="143.9" y1="180.0" x2="143.9" y2="220.0" stroke="rgb(0,0,0)"  stroke-width="1.0"/>
<line x1="136.7" y1="186.0" x2="136.7" y2="214.0" stroke="rgb(0,0,0)"  stroke-width="1.0"/>
<line x1="143.9" y1="220.0" x2="120.5" y2="233.5" stroke="rgb(0,0,0)"  stroke-width="1.0"/>
<line x1="97.9" y1="233.4" x2="74.6" y2="220.0" stroke="rgb(0,0,0)"  stroke-width="1.0"/>
<line x1="99.7" y1="226.2" x2="83.4" y2="216.8" stroke="rgb(0,0,0)"  stroke-width="1.0"/>
<line x1="74.6" y1="220.0" x2="74.6" y2="193.0" stroke="rgb(0,0,0)"  stroke-width="1.0"/>
<line x1="213.2" y1="220.0" x2="189.8" y2="233.5" stroke="rgb(0,0,0)"  stroke-width="1.0"/>
<line x1="167.3" y1="233.5" x2="143.9" y2="220.0" stroke="rgb(0,0,0)"  stroke-width="1.0"/>
<line x1="143.9" y1="180.0" x2="167.3" y2="166.5" stroke="rgb(0,0,0)"  stroke-width="1.0"/>
<line x1="189.8" y1="166.5" x2="213.2" y2="180.0" stroke="rgb(0,0,0)"  stroke-width="1.0"/>
<line x1="213.2" y1="180.0" x2="213.2" y2="220.0" stroke="rgb(0,0,0)"  stroke-width="1.0"/>
<line x1="386.4" y1="120.0" x2="386.4" y2="160.0" stroke="rgb(0,0,0)"  stroke-width="1.0"/>
<line x1="379.2" y1="126.0" x2="379.2" y2="154.0" stroke="rgb(0,0,0)"  stroke-width="1.0"/>
<line x1="386.4" y1="160.0" x2="351.8" y2="180.0" stroke="rgb(0,0,0)"  stroke-width="1.0"/>
<line x1="351.8" y1="180.0" x2="317.1" y2="160.0" stroke="rgb(0,0,0)"  stroke-width="1.0"/>
<line x1="350.2" y1="170.8" x2="325.9" y2="156.8" stroke="rgb(0,0,0)"  stroke-width="1.0"/>
<line x1="317.1" y1="160.0" x2="317.1" y2="120.0" stroke="rgb(0,0,0)"  stroke-width="1.0"/>
<line x1="317.1" y1="120.0" x2="351.8" y2="100.0" stroke="rgb(0,0,0)"  stroke-width="1.0"/>
<line x1="325.9" y1="123.2" x2="350.2" y2="109.2" stroke="rgb(0,0,0)"  stroke-width="1.0"/>
<line x1="351.8" y1="100.0" x2="386.4" y2="120.0" stroke="rgb(0,0,0)"  stroke-width="1.0"/>
<text x="449.692194" y="128.000000" fill="rgb(12,12,255)"  stroke="rgb(12,12,255)" stroke-width="1" font-size="16" >N</text>
<text x="449.692194" y="144.000000" fill="rgb(12,12,255)"  stroke="rgb(12,12,255)" stroke-width="1" font-size="16" >H</text>
<text x="415.051178" y="68.000000" fill="rgb(255,12,12)"  stroke="rgb(255,12,12)" stroke-width="1" font-size="16" >O</text>
<text x="14.000000" y="248.000000" fill="rgb(12,12,255)"  stroke="rgb(12,12,255)" stroke-width="1" font-size="16" >H</text>
<text x="26.000000" y="251.680000" fill="rgb(12,12,255)"  stroke="rgb(12,12,255)" stroke-width="1" font-size="13" >2</text>
<text x="32.500000" y="248.000000" fill="rgb(12,12,255)"  stroke="rgb(12,12,255)" stroke-width="1" font-size="16" >N</text>
<text x="437.692194" y="168.000000" fill="rgb(255,12,12)"  stroke="rgb(255,12,12)" stroke-width="1" font-size="16" >HO</text>
<text x="484.333210" y="228.000000" fill="rgb(255,12,12)"  stroke="rgb(255,12,12)" stroke-width="1" font-size="16" >OH</text>
<text x="103.282032" y="248.000000" fill="rgb(12,12,255)"  stroke="rgb(12,12,255)" stroke-width="1" font-size="16" >N</text>
<text x="518.974226" y="48.000000" fill="rgb(255,12,12)"  stroke="rgb(255,12,12)" stroke-width="1" font-size="16" >OH</text>
<text x="437.692194" y="48.000000" fill="rgb(255,12,12)"  stroke="rgb(255,12,12)" stroke-width="1" font-size="16" >HO</text>
<text x="56.641016" y="188.000000" fill="rgb(12,12,255)"  stroke="rgb(12,12,255)" stroke-width="1" font-size="16" >HN</text>
<text x="103.282032" y="128.000000" fill="rgb(255,12,12)"  stroke="rgb(255,12,12)" stroke-width="1" font-size="16" >O</text>
<text x="172.564065" y="168.000000" fill="rgb(12,12,255)"  stroke="rgb(12,12,255)" stroke-width="1" font-size="16" >N</text>
<text x="125.923048" y="108.000000" fill="rgb(255,12,12)"  stroke="rgb(255,12,12)" stroke-width="1" font-size="16" >HO</text>
<text x="172.564065" y="248.000000" fill="rgb(12,12,255)"  stroke="rgb(12,12,255)" stroke-width="1" font-size="16" >N</text>
<text x="172.564065" y="264.000000" fill="rgb(12,12,255)"  stroke="rgb(12,12,255)" stroke-width="1" font-size="16" >H</text>
<text x="276.487113" y="188.000000" fill="rgb(12,12,255)"  stroke="rgb(12,12,255)" stroke-width="1" font-size="16" >N</text>
<text x="276.487113" y="204.000000" fill="rgb(12,12,255)"  stroke="rgb(12,12,255)" stroke-width="1" font-size="16" >H</text>
<text font-size="18.000000" fill ="black" font-family="sans-serif"
x="10.000000" y="20.000000" ></text>
<title> - OBDepict</title>
</svg>
