<?xml version="1.0"?>
<svg xmlns="http://www.w3.org/2000/svg"
xmlns:xlink="http://www.w3.org/1999/xlink" xmlns:cml="http://www.xml-cml.org/schema" width="525.122" height="398.636" x="0" y="0" font-family="sans-serif" stroke="rgb(0,0,0)" stroke-width="1"  stroke-linecap="round">
<rect x="0%" y="0%" width="100%" height="100%" stroke-width="0" fill="rgb(255,255,255)"  />
<line x1="342.3" y1="182.0" x2="341.5" y2="180.6" stroke="rgb(0,0,0)"  stroke-width="1.0"/>
<line x1="338.9" y1="184.7" x2="337.5" y2="182.2" stroke="rgb(0,0,0)"  stroke-width="1.0"/>
<line x1="335.5" y1="187.4" x2="333.4" y2="183.8" stroke="rgb(0,0,0)"  stroke-width="1.0"/>
<line x1="332.1" y1="190.1" x2="329.4" y2="185.4" stroke="rgb(0,0,0)"  stroke-width="1.0"/>
<line x1="328.7" y1="192.8" x2="325.4" y2="187.0" stroke="rgb(0,0,0)"  stroke-width="1.0"/>
<line x1="325.3" y1="195.5" x2="321.3" y2="188.6" stroke="rgb(0,0,0)"  stroke-width="1.0"/>
<line x1="341.5" y1="136.6" x2="342.3" y2="135.3" stroke="rgb(0,0,0)"  stroke-width="1.0"/>
<line x1="337.5" y1="135.1" x2="338.9" y2="132.6" stroke="rgb(0,0,0)"  stroke-width="1.0"/>
<line x1="333.4" y1="133.5" x2="335.5" y2="129.9" stroke="rgb(0,0,0)"  stroke-width="1.0"/>
<line x1="329.4" y1="131.9" x2="332.1" y2="127.2" stroke="rgb(0,0,0)"  stroke-width="1.0"/>
<line x1="325.4" y1="130.3" x2="328.7" y2="124.5" stroke="rgb(0,0,0)"  stroke-width="1.0"/>
<line x1="321.3" y1="128.7" x2="325.3" y2="121.8" stroke="rgb(0,0,0)"  stroke-width="1.0"/>
<polygon points="381.198978 118.635710 377.198978 91.835710 385.198978 91.835710 " stroke-width="1.000000" fill="rgb(0,0,0)"  stroke="rgb(0,0,0)" />
<line x1="420.1" y1="135.3" x2="420.9" y2="136.6" stroke="rgb(0,0,0)"  stroke-width="1.0"/>
<line x1="423.5" y1="132.6" x2="424.9" y2="135.1" stroke="rgb(0,0,0)"  stroke-width="1.0"/>
<line x1="426.9" y1="129.9" x2="428.9" y2="133.5" stroke="rgb(0,0,0)"  stroke-width="1.0"/>
<line x1="430.3" y1="127.2" x2="433.0" y2="131.9" stroke="rgb(0,0,0)"  stroke-width="1.0"/>
<line x1="433.7" y1="124.5" x2="437.0" y2="130.3" stroke="rgb(0,0,0)"  stroke-width="1.0"/>
<line x1="437.0" y1="121.8" x2="441.0" y2="128.7" stroke="rgb(0,0,0)"  stroke-width="1.0"/>
<polygon points="415.839994 178.635710 452.481010 195.171608 448.481010 202.099812 " stroke-width="1.000000" fill="rgb(0,0,0)"  stroke="rgb(0,0,0)" />
<line x1="473.9" y1="185.1" x2="450.5" y2="198.6" stroke="rgb(0,0,0)"  stroke-width="1.0"/>
<polygon points="311.916946 318.635710 315.916946 345.435710 307.916946 345.435710 " stroke-width="1.000000" fill="rgb(0,0,0)"  stroke="rgb(0,0,0)" />
<polygon points="346.557962 258.635710 367.767443 241.771608 371.767443 248.699812 " stroke-width="1.000000" fill="rgb(0,0,0)"  stroke="rgb(0,0,0)" />
<line x1="311.1" y1="233.3" x2="312.7" y2="233.3" stroke="rgb(0,0,0)"  stroke-width="1.0"/>
<line x1="310.5" y1="229.0" x2="313.4" y2="229.0" stroke="rgb(0,0,0)"  stroke-width="1.0"/>
<line x1="309.8" y1="224.7" x2="314.0" y2="224.7" stroke="rgb(0,0,0)"  stroke-width="1.0"/>
<line x1="309.2" y1="220.4" x2="314.6" y2="220.4" stroke="rgb(0,0,0)"  stroke-width="1.0"/>
<line x1="308.6" y1="216.1" x2="315.3" y2="216.1" stroke="rgb(0,0,0)"  stroke-width="1.0"/>
<line x1="307.9" y1="211.8" x2="315.9" y2="211.8" stroke="rgb(0,0,0)"  stroke-width="1.0"/>
<polygon points="277.275930 258.635710 252.066449 248.699812 256.066449 241.771608 " stroke-width="1.000000" fill="rgb(0,0,0)"  stroke="rgb(0,0,0)" />
<line x1="273.0" y1="302.0" x2="272.2" y2="300.6" stroke="rgb(0,0,0)"  stroke-width="1.0"/>
<line x1="269.6" y1="304.7" x2="268.2" y2="302.2" stroke="rgb(0,0,0)"  stroke-width="1.0"/>
<line x1="266.2" y1="307.4" x2="264.2" y2="303.8" stroke="rgb(0,0,0)"  stroke-width="1.0"/>
<line x1="262.9" y1="310.1" x2="260.1" y2="305.4" stroke="rgb(0,0,0)"  stroke-width="1.0"/>
<line x1="259.5" y1="312.8" x2="256.1" y2="307.0" stroke="rgb(0,0,0)"  stroke-width="1.0"/>
<line x1="256.1" y1="315.5" x2="252.1" y2="308.6" stroke="rgb(0,0,0)"  stroke-width="1.0"/>
<polygon points="242.634913 198.635710 246.634913 225.435710 238.634913 225.435710 " stroke-width="1.000000" fill="rgb(0,0,0)"  stroke="rgb(0,0,0)" />
<line x1="205.4" y1="177.5" x2="204.9" y2="176.0" stroke="rgb(0,0,0)"  stroke-width="1.0"/>
<line x1="201.5" y1="179.5" x2="200.7" y2="176.7" stroke="rgb(0,0,0)"  stroke-width="1.0"/>
<line x1="197.7" y1="181.4" x2="196.4" y2="177.5" stroke="rgb(0,0,0)"  stroke-width="1.0"/>
<line x1="193.8" y1="183.3" x2="192.1" y2="178.2" stroke="rgb(0,0,0)"  stroke-width="1.0"/>
<line x1="189.9" y1="185.3" x2="187.8" y2="178.9" stroke="rgb(0,0,0)"  stroke-width="1.0"/>
<line x1="186.0" y1="187.2" x2="183.5" y2="179.6" stroke="rgb(0,0,0)"  stroke-width="1.0"/>
<line x1="218.8" y1="133.2" x2="220.1" y2="132.3" stroke="rgb(0,0,0)"  stroke-width="1.0"/>
<line x1="215.8" y1="130.1" x2="218.1" y2="128.4" stroke="rgb(0,0,0)"  stroke-width="1.0"/>
<line x1="212.8" y1="127.0" x2="216.1" y2="124.6" stroke="rgb(0,0,0)"  stroke-width="1.0"/>
<line x1="209.7" y1="123.9" x2="214.1" y2="120.7" stroke="rgb(0,0,0)"  stroke-width="1.0"/>
<line x1="206.7" y1="120.8" x2="212.1" y2="116.9" stroke="rgb(0,0,0)"  stroke-width="1.0"/>
<line x1="203.6" y1="117.8" x2="210.1" y2="113.0" stroke="rgb(0,0,0)"  stroke-width="1.0"/>
<polygon points="262.634913 137.082039 282.910255 102.370219 289.382391 107.072501 " stroke-width="1.000000" fill="rgb(0,0,0)"  stroke="rgb(0,0,0)" />
<line x1="286.1" y1="104.7" x2="275.2" y2="80.1" stroke="rgb(0,0,0)"  stroke-width="1.0"/>
<polygon points="159.342627 108.902498 185.577700 102.123048 186.413928 110.079223 " stroke-width="1.000000" fill="rgb(0,0,0)"  stroke="rgb(0,0,0)" />
<polygon points="135.831217 76.541818 143.077578 50.431853 150.385941 53.685747 " stroke-width="1.000000" fill="rgb(0,0,0)"  stroke="rgb(0,0,0)" />
<line x1="92.3" y1="76.9" x2="93.5" y2="75.9" stroke="rgb(0,0,0)"  stroke-width="1.0"/>
<line x1="89.2" y1="73.8" x2="91.5" y2="72.1" stroke="rgb(0,0,0)"  stroke-width="1.0"/>
<line x1="86.2" y1="70.7" x2="89.5" y2="68.2" stroke="rgb(0,0,0)"  stroke-width="1.0"/>
<line x1="83.1" y1="67.6" x2="87.5" y2="64.4" stroke="rgb(0,0,0)"  stroke-width="1.0"/>
<line x1="80.1" y1="64.5" x2="85.5" y2="60.5" stroke="rgb(0,0,0)"  stroke-width="1.0"/>
<line x1="77.1" y1="61.4" x2="83.5" y2="56.7" stroke="rgb(0,0,0)"  stroke-width="1.0"/>
<polygon points="79.780876 117.264775 53.545803 124.044226 52.709575 116.088050 " stroke-width="1.000000" fill="rgb(0,0,0)"  stroke="rgb(0,0,0)" />
<polygon points="103.292286 149.625455 90.677002 187.794220 83.368638 184.540327 " stroke-width="1.000000" fill="rgb(0,0,0)"  stroke="rgb(0,0,0)" />
<line x1="87.0" y1="186.2" x2="60.2" y2="189.0" stroke="rgb(0,0,0)"  stroke-width="1.0"/>
<line x1="242.6" y1="198.6" x2="210.3" y2="175.1" stroke="rgb(0,0,0)"  stroke-width="1.0"/>
<line x1="210.3" y1="175.1" x2="222.6" y2="137.1" stroke="rgb(0,0,0)"  stroke-width="1.0"/>
<line x1="222.6" y1="137.1" x2="262.6" y2="137.1" stroke="rgb(0,0,0)"  stroke-width="1.0"/>
<line x1="262.6" y1="137.1" x2="271.0" y2="162.8" stroke="rgb(0,0,0)"  stroke-width="1.0"/>
<line x1="264.5" y1="182.8" x2="242.6" y2="198.6" stroke="rgb(0,0,0)"  stroke-width="1.0"/>
<line x1="346.6" y1="178.6" x2="369.9" y2="192.1" stroke="rgb(0,0,0)"  stroke-width="1.0"/>
<line x1="392.5" y1="192.1" x2="415.8" y2="178.6" stroke="rgb(0,0,0)"  stroke-width="1.0"/>
<line x1="415.8" y1="178.6" x2="415.8" y2="138.6" stroke="rgb(0,0,0)"  stroke-width="1.0"/>
<line x1="415.8" y1="138.6" x2="381.2" y2="118.6" stroke="rgb(0,0,0)"  stroke-width="1.0"/>
<line x1="381.2" y1="118.6" x2="346.6" y2="138.6" stroke="rgb(0,0,0)"  stroke-width="1.0"/>
<line x1="346.6" y1="138.6" x2="346.6" y2="178.6" stroke="rgb(0,0,0)"  stroke-width="1.0"/>
<line x1="346.6" y1="258.6" x2="346.6" y2="298.6" stroke="rgb(0,0,0)"  stroke-width="1.0"/>
<line x1="346.6" y1="298.6" x2="311.9" y2="318.6" stroke="rgb(0,0,0)"  stroke-width="1.0"/>
<line x1="311.9" y1="318.6" x2="277.3" y2="298.6" stroke="rgb(0,0,0)"  stroke-width="1.0"/>
<line x1="277.3" y1="298.6" x2="277.3" y2="258.6" stroke="rgb(0,0,0)"  stroke-width="1.0"/>
<line x1="277.3" y1="258.6" x2="311.9" y2="238.6" stroke="rgb(0,0,0)"  stroke-width="1.0"/>
<line x1="311.9" y1="238.6" x2="346.6" y2="258.6" stroke="rgb(0,0,0)"  stroke-width="1.0"/>
<line x1="159.3" y1="108.9" x2="135.8" y2="76.5" stroke="rgb(0,0,0)"  stroke-width="1.0"/>
<line x1="135.8" y1="76.5" x2="96.1" y2="80.7" stroke="rgb(0,0,0)"  stroke-width="1.0"/>
<line x1="96.1" y1="80.7" x2="79.8" y2="117.3" stroke="rgb(0,0,0)"  stroke-width="1.0"/>
<line x1="79.8" y1="117.3" x2="103.3" y2="149.6" stroke="rgb(0,0,0)"  stroke-width="1.0"/>
<line x1="103.3" y1="149.6" x2="130.1" y2="146.8" stroke="rgb(0,0,0)"  stroke-width="1.0"/>
<line x1="148.4" y1="133.6" x2="159.3" y2="108.9" stroke="rgb(0,0,0)"  stroke-width="1.0"/>
<text x="305.916946" y="206.635710" fill="rgb(255,12,12)"  stroke="rgb(255,12,12)" stroke-width="1" font-size="16" >O</text>
<text x="285.916946" y="126.635710" fill="rgb(12,12,255)"  stroke="rgb(12,12,255)" stroke-width="1" font-size="16" >H</text>
<text x="297.916946" y="130.315710" fill="rgb(12,12,255)"  stroke="rgb(12,12,255)" stroke-width="1" font-size="13" >2</text>
<text x="304.416946" y="126.635710" fill="rgb(12,12,255)"  stroke="rgb(12,12,255)" stroke-width="1" font-size="16" >N</text>
<text x="375.198978" y="86.635710" fill="rgb(255,12,12)"  stroke="rgb(255,12,12)" stroke-width="1" font-size="16" >OH</text>
<text x="444.481010" y="126.635710" fill="rgb(255,12,12)"  stroke="rgb(255,12,12)" stroke-width="1" font-size="16" >OH</text>
<text x="375.198978" y="206.635710" fill="rgb(255,12,12)"  stroke="rgb(255,12,12)" stroke-width="1" font-size="16" >O</text>
<text x="479.122026" y="186.635710" fill="rgb(255,12,12)"  stroke="rgb(255,12,12)" stroke-width="1" font-size="16" >OH</text>
<text x="307.916946" y="366.635710" fill="rgb(12,12,255)"  stroke="rgb(12,12,255)" stroke-width="1" font-size="16" >NH</text>
<text x="331.916946" y="370.315710" fill="rgb(12,12,255)"  stroke="rgb(12,12,255)" stroke-width="1" font-size="13" >2</text>
<text x="377.198978" y="246.635710" fill="rgb(12,12,255)"  stroke="rgb(12,12,255)" stroke-width="1" font-size="16" >NH</text>
<text x="401.198978" y="250.315710" fill="rgb(12,12,255)"  stroke="rgb(12,12,255)" stroke-width="1" font-size="13" >2</text>
<text x="236.634913" y="246.635710" fill="rgb(255,12,12)"  stroke="rgb(255,12,12)" stroke-width="1" font-size="16" >O</text>
<text x="224.634913" y="326.635710" fill="rgb(255,12,12)"  stroke="rgb(255,12,12)" stroke-width="1" font-size="16" >HO</text>
<text x="154.231973" y="195.484980" fill="rgb(255,12,12)"  stroke="rgb(255,12,12)" stroke-width="1" font-size="16" >HO</text>
<text x="193.123503" y="112.721360" fill="rgb(255,12,12)"  stroke="rgb(255,12,12)" stroke-width="1" font-size="16" >O</text>
<text x="268.995593" y="183.124300" fill="rgb(255,12,12)"  stroke="rgb(255,12,12)" stroke-width="1" font-size="16" >O</text>
<text x="251.876858" y="76.179541" fill="rgb(255,12,12)"  stroke="rgb(255,12,12)" stroke-width="1" font-size="16" >HO</text>
<text x="148.100683" y="48.000000" fill="rgb(12,12,255)"  stroke="rgb(12,12,255)" stroke-width="1" font-size="16" >NH</text>
<text x="172.100683" y="51.680000" fill="rgb(12,12,255)"  stroke="rgb(12,12,255)" stroke-width="1" font-size="13" >2</text>
<text x="54.538931" y="56.362277" fill="rgb(255,12,12)"  stroke="rgb(255,12,12)" stroke-width="1" font-size="16" >HO</text>
<text x="22.000000" y="129.445914" fill="rgb(255,12,12)"  stroke="rgb(255,12,12)" stroke-width="1" font-size="16" >HO</text>
<text x="137.073162" y="153.444316" fill="rgb(255,12,12)"  stroke="rgb(255,12,12)" stroke-width="1" font-size="16" >O</text>
<text x="21.241944" y="198.348412" fill="rgb(12,12,255)"  stroke="rgb(12,12,255)" stroke-width="1" font-size="16" >H</text>
<text x="33.241944" y="202.028412" fill="rgb(12,12,255)"  stroke="rgb(12,12,255)" stroke-width="1" font-size="13" >2</text>
<text x="39.741944" y="198.348412" fill="rgb(12,12,255)"  stroke="rgb(12,12,255)" stroke-width="1" font-size="16" >N</text>
<text font-size="18.000000" fill ="black" font-family="sans-serif"
x="10.000000" y="20.000000" ></text>
<title> - OBDepict</title>
</svg>
