<?xml version="1.0"?>
<svg xmlns="http://www.w3.org/2000/svg"
xmlns:xlink="http://www.w3.org/1999/xlink" xmlns:cml="http://www.xml-cml.org/schema" width="740.784" height="307.08" x="0" y="0" font-family="sans-serif" stroke="rgb(0,0,0)" stroke-width="1"  stroke-linecap="round">
<rect x="0%" y="0%" width="100%" height="100%" stroke-width="0" fill="rgb(255,255,255)"  />
<polygon points="166.585 116.732 193.656 115.555 192.82 123.511 " stroke-width="1" fill="rgb(0,0,0)"  stroke="rgb(0,0,0)" />
<line x1="258.1" y1="235.1" x2="256.6" y2="235.8" stroke="rgb(0,0,0)"  stroke-width="1.0"/>
<line x1="260.4" y1="238.8" x2="257.8" y2="239.9" stroke="rgb(0,0,0)"  stroke-width="1.0"/>
<line x1="262.7" y1="242.4" x2="258.9" y2="244.1" stroke="rgb(0,0,0)"  stroke-width="1.0"/>
<line x1="265.1" y1="246.1" x2="260.1" y2="248.3" stroke="rgb(0,0,0)"  stroke-width="1.0"/>
<line x1="267.4" y1="249.7" x2="261.3" y2="252.5" stroke="rgb(0,0,0)"  stroke-width="1.0"/>
<line x1="269.7" y1="253.4" x2="262.4" y2="256.6" stroke="rgb(0,0,0)"  stroke-width="1.0"/>
<polygon points="325.708075 133.456327 298.636774 134.633052 299.473002 126.676877 " stroke-width="1.000000" fill="rgb(0,0,0)"  stroke="rgb(0,0,0)" />
<line x1="453.3" y1="118.0" x2="454.1" y2="116.6" stroke="rgb(0,0,0)"  stroke-width="1.0"/>
<line x1="449.2" y1="116.4" x2="450.7" y2="113.9" stroke="rgb(0,0,0)"  stroke-width="1.0"/>
<line x1="445.2" y1="114.8" x2="447.3" y2="111.2" stroke="rgb(0,0,0)"  stroke-width="1.0"/>
<line x1="441.2" y1="113.2" x2="443.9" y2="108.5" stroke="rgb(0,0,0)"  stroke-width="1.0"/>
<line x1="437.1" y1="111.7" x2="440.5" y2="105.8" stroke="rgb(0,0,0)"  stroke-width="1.0"/>
<line x1="433.1" y1="110.1" x2="437.1" y2="103.1" stroke="rgb(0,0,0)"  stroke-width="1.0"/>
<polygon points="596.861215 160.000000 575.651734 176.864102 571.651734 169.935898 " stroke-width="1.000000" fill="rgb(0,0,0)"  stroke="rgb(0,0,0)" />
<polygon points="150.315106 80.189955 162.831683 56.157158 169.303819 60.859440 " stroke-width="1.000000" fill="rgb(0,0,0)"  stroke="rgb(0,0,0)" />
<line x1="350.6" y1="98.7" x2="352.1" y2="98.3" stroke="rgb(0,0,0)"  stroke-width="1.0"/>
<line x1="349.1" y1="94.6" x2="351.9" y2="94.0" stroke="rgb(0,0,0)"  stroke-width="1.0"/>
<line x1="347.5" y1="90.5" x2="351.6" y2="89.7" stroke="rgb(0,0,0)"  stroke-width="1.0"/>
<line x1="346.0" y1="86.5" x2="351.3" y2="85.3" stroke="rgb(0,0,0)"  stroke-width="1.0"/>
<line x1="344.5" y1="82.4" x2="351.1" y2="81.0" stroke="rgb(0,0,0)"  stroke-width="1.0"/>
<line x1="343.0" y1="78.3" x2="350.8" y2="76.7" stroke="rgb(0,0,0)"  stroke-width="1.0"/>
<line x1="492.1" y1="94.6" x2="493.7" y2="94.6" stroke="rgb(0,0,0)"  stroke-width="1.0"/>
<line x1="491.5" y1="90.4" x2="494.4" y2="90.4" stroke="rgb(0,0,0)"  stroke-width="1.0"/>
<line x1="490.9" y1="86.1" x2="495.0" y2="86.1" stroke="rgb(0,0,0)"  stroke-width="1.0"/>
<line x1="490.2" y1="81.8" x2="495.7" y2="81.8" stroke="rgb(0,0,0)"  stroke-width="1.0"/>
<line x1="489.6" y1="77.5" x2="496.3" y2="77.5" stroke="rgb(0,0,0)"  stroke-width="1.0"/>
<line x1="488.9" y1="73.2" x2="496.9" y2="73.2" stroke="rgb(0,0,0)"  stroke-width="1.0"/>
<line x1="632.3" y1="185.4" x2="630.7" y2="185.4" stroke="rgb(0,0,0)"  stroke-width="1.0"/>
<line x1="632.9" y1="189.6" x2="630.1" y2="189.6" stroke="rgb(0,0,0)"  stroke-width="1.0"/>
<line x1="633.6" y1="193.9" x2="629.4" y2="193.9" stroke="rgb(0,0,0)"  stroke-width="1.0"/>
<line x1="634.2" y1="198.2" x2="628.8" y2="198.2" stroke="rgb(0,0,0)"  stroke-width="1.0"/>
<line x1="634.9" y1="202.5" x2="628.1" y2="202.5" stroke="rgb(0,0,0)"  stroke-width="1.0"/>
<line x1="635.5" y1="206.8" x2="627.5" y2="206.8" stroke="rgb(0,0,0)"  stroke-width="1.0"/>
<line x1="193.7" y1="190.1" x2="193.9" y2="188.5" stroke="rgb(0,0,0)"  stroke-width="1.0"/>
<line x1="189.4" y1="190.2" x2="189.7" y2="187.4" stroke="rgb(0,0,0)"  stroke-width="1.0"/>
<line x1="185.0" y1="190.4" x2="185.5" y2="186.3" stroke="rgb(0,0,0)"  stroke-width="1.0"/>
<line x1="180.7" y1="190.6" x2="181.3" y2="185.2" stroke="rgb(0,0,0)"  stroke-width="1.0"/>
<line x1="176.4" y1="190.8" x2="177.1" y2="184.1" stroke="rgb(0,0,0)"  stroke-width="1.0"/>
<line x1="172.1" y1="191.0" x2="172.9" y2="183.0" stroke="rgb(0,0,0)"  stroke-width="1.0"/>
<line x1="393.3" y1="116.6" x2="394.1" y2="118.0" stroke="rgb(0,0,0)"  stroke-width="1.0"/>
<line x1="396.7" y1="113.9" x2="398.1" y2="116.4" stroke="rgb(0,0,0)"  stroke-width="1.0"/>
<line x1="400.0" y1="111.2" x2="402.1" y2="114.8" stroke="rgb(0,0,0)"  stroke-width="1.0"/>
<line x1="403.4" y1="108.5" x2="406.2" y2="113.2" stroke="rgb(0,0,0)"  stroke-width="1.0"/>
<line x1="406.8" y1="105.8" x2="410.2" y2="111.7" stroke="rgb(0,0,0)"  stroke-width="1.0"/>
<line x1="410.2" y1="103.1" x2="414.2" y2="110.1" stroke="rgb(0,0,0)"  stroke-width="1.0"/>
<polygon points="527.579182 120.000000 548.788663 103.135898 552.788663 110.064102 " stroke-width="1.000000" fill="rgb(0,0,0)"  stroke="rgb(0,0,0)" />
<line x1="671.2" y1="162.0" x2="670.4" y2="163.4" stroke="rgb(0,0,0)"  stroke-width="1.0"/>
<line x1="675.2" y1="163.6" x2="673.8" y2="166.1" stroke="rgb(0,0,0)"  stroke-width="1.0"/>
<line x1="679.3" y1="165.2" x2="677.2" y2="168.8" stroke="rgb(0,0,0)"  stroke-width="1.0"/>
<line x1="683.3" y1="166.8" x2="680.6" y2="171.5" stroke="rgb(0,0,0)"  stroke-width="1.0"/>
<line x1="687.3" y1="168.3" x2="684.0" y2="174.2" stroke="rgb(0,0,0)"  stroke-width="1.0"/>
<line x1="691.4" y1="169.9" x2="687.4" y2="176.9" stroke="rgb(0,0,0)"  stroke-width="1.0"/>
<polygon points="87.022820 108.369496 59.951520 109.546221 60.787747 101.590046 " stroke-width="1.000000" fill="rgb(0,0,0)"  stroke="rgb(0,0,0)" />
<polygon points="222.634913 157.454730 208.080189 134.598658 215.388553 131.344765 " stroke-width="1.000000" fill="rgb(0,0,0)"  stroke="rgb(0,0,0)" />
<polygon points="384.833979 159.780876 417.236295 183.573521 411.883250 189.518679 " stroke-width="1.000000" fill="rgb(0,0,0)"  stroke="rgb(0,0,0)" />
<line x1="532.6" y1="162.0" x2="531.8" y2="163.4" stroke="rgb(0,0,0)"  stroke-width="1.0"/>
<line x1="536.7" y1="163.6" x2="535.2" y2="166.1" stroke="rgb(0,0,0)"  stroke-width="1.0"/>
<line x1="540.7" y1="165.2" x2="538.6" y2="168.8" stroke="rgb(0,0,0)"  stroke-width="1.0"/>
<line x1="544.7" y1="166.8" x2="542.0" y2="171.5" stroke="rgb(0,0,0)"  stroke-width="1.0"/>
<line x1="548.8" y1="168.3" x2="545.4" y2="174.2" stroke="rgb(0,0,0)"  stroke-width="1.0"/>
<line x1="552.8" y1="169.9" x2="548.8" y2="176.9" stroke="rgb(0,0,0)"  stroke-width="1.0"/>
<polygon points="666.143247 120.000000 687.352728 103.135898 691.352728 110.064102 " stroke-width="1.000000" fill="rgb(0,0,0)"  stroke="rgb(0,0,0)" />
<line x1="99.2" y1="151.9" x2="97.9" y2="150.9" stroke="rgb(0,0,0)"  stroke-width="1.0"/>
<line x1="96.0" y1="157.4" x2="93.7" y2="155.7" stroke="rgb(0,0,0)"  stroke-width="1.0"/>
<line x1="92.7" y1="163.0" x2="89.4" y2="160.5" stroke="rgb(0,0,0)"  stroke-width="1.0"/>
<line x1="89.5" y1="168.5" x2="85.1" y2="165.3" stroke="rgb(0,0,0)"  stroke-width="1.0"/>
<line x1="86.3" y1="174.1" x2="80.8" y2="170.1" stroke="rgb(0,0,0)"  stroke-width="1.0"/>
<line x1="83.0" y1="179.6" x2="76.5" y2="174.9" stroke="rgb(0,0,0)"  stroke-width="1.0"/>
<line x1="264.9" y1="156.8" x2="266.2" y2="157.8" stroke="rgb(0,0,0)"  stroke-width="1.0"/>
<line x1="266.9" y1="153.0" x2="269.3" y2="154.7" stroke="rgb(0,0,0)"  stroke-width="1.0"/>
<line x1="268.9" y1="149.1" x2="272.3" y2="151.6" stroke="rgb(0,0,0)"  stroke-width="1.0"/>
<line x1="270.9" y1="145.3" x2="275.3" y2="148.5" stroke="rgb(0,0,0)"  stroke-width="1.0"/>
<line x1="272.9" y1="141.4" x2="278.4" y2="145.4" stroke="rgb(0,0,0)"  stroke-width="1.0"/>
<line x1="274.9" y1="137.6" x2="281.4" y2="142.3" stroke="rgb(0,0,0)"  stroke-width="1.0"/>
<line x1="414.6" y1="186.5" x2="408.9" y2="213.0" stroke="rgb(0,0,0)"  stroke-width="1.0"/>
<line x1="493.7" y1="188.0" x2="492.1" y2="188.0" stroke="rgb(0,0,0)"  stroke-width="1.0"/>
<line x1="494.4" y1="194.4" x2="491.5" y2="194.4" stroke="rgb(0,0,0)"  stroke-width="1.0"/>
<line x1="495.0" y1="200.8" x2="490.9" y2="200.8" stroke="rgb(0,0,0)"  stroke-width="1.0"/>
<line x1="495.7" y1="207.2" x2="490.2" y2="207.2" stroke="rgb(0,0,0)"  stroke-width="1.0"/>
<line x1="496.3" y1="213.6" x2="489.6" y2="213.6" stroke="rgb(0,0,0)"  stroke-width="1.0"/>
<line x1="496.9" y1="220.0" x2="488.9" y2="220.0" stroke="rgb(0,0,0)"  stroke-width="1.0"/>
<line x1="630.7" y1="92.0" x2="632.3" y2="92.0" stroke="rgb(0,0,0)"  stroke-width="1.0"/>
<line x1="630.1" y1="85.6" x2="632.9" y2="85.6" stroke="rgb(0,0,0)"  stroke-width="1.0"/>
<line x1="629.4" y1="79.2" x2="633.6" y2="79.2" stroke="rgb(0,0,0)"  stroke-width="1.0"/>
<line x1="628.8" y1="72.8" x2="634.2" y2="72.8" stroke="rgb(0,0,0)"  stroke-width="1.0"/>
<line x1="628.1" y1="66.4" x2="634.9" y2="66.4" stroke="rgb(0,0,0)"  stroke-width="1.0"/>
<line x1="627.5" y1="60.0" x2="635.5" y2="60.0" stroke="rgb(0,0,0)"  stroke-width="1.0"/>
<line x1="79.8" y1="177.3" x2="52.9" y2="174.4" stroke="rgb(0,0,0)"  stroke-width="1.0"/>
<polygon points="278.685255 198.177687 305.756556 197.000962 304.920328 204.957137 " stroke-width="1.000000" fill="rgb(0,0,0)"  stroke="rgb(0,0,0)" />
<line x1="492.9" y1="220.0" x2="516.3" y2="233.5" stroke="rgb(0,0,0)"  stroke-width="1.0"/>
<line x1="631.5" y1="60.0" x2="654.9" y2="46.5" stroke="rgb(0,0,0)"  stroke-width="1.0"/>
<line x1="325.7" y1="133.5" x2="352.5" y2="103.7" stroke="rgb(0,0,0)"  stroke-width="1.0"/>
<line x1="352.5" y1="103.7" x2="389.0" y2="120.0" stroke="rgb(0,0,0)"  stroke-width="1.0"/>
<line x1="389.0" y1="120.0" x2="384.8" y2="159.8" stroke="rgb(0,0,0)"  stroke-width="1.0"/>
<line x1="384.8" y1="159.8" x2="358.4" y2="165.4" stroke="rgb(0,0,0)"  stroke-width="1.0"/>
<line x1="339.2" y1="156.8" x2="325.7" y2="133.5" stroke="rgb(0,0,0)"  stroke-width="1.0"/>
<line x1="215.4" y1="226.4" x2="255.2" y2="230.5" stroke="rgb(0,0,0)"  stroke-width="1.0"/>
<line x1="255.2" y1="230.5" x2="278.7" y2="198.2" stroke="rgb(0,0,0)"  stroke-width="1.0"/>
<line x1="278.7" y1="198.2" x2="262.4" y2="161.6" stroke="rgb(0,0,0)"  stroke-width="1.0"/>
<line x1="262.4" y1="161.6" x2="222.6" y2="157.5" stroke="rgb(0,0,0)"  stroke-width="1.0"/>
<line x1="222.6" y1="157.5" x2="199.1" y2="189.8" stroke="rgb(0,0,0)"  stroke-width="1.0"/>
<line x1="199.1" y1="189.8" x2="215.4" y2="226.4" stroke="rgb(0,0,0)"  stroke-width="1.0"/>
<line x1="166.6" y1="116.7" x2="150.3" y2="80.2" stroke="rgb(0,0,0)"  stroke-width="1.0"/>
<line x1="150.3" y1="80.2" x2="110.5" y2="76.0" stroke="rgb(0,0,0)"  stroke-width="1.0"/>
<line x1="110.5" y1="76.0" x2="87.0" y2="108.4" stroke="rgb(0,0,0)"  stroke-width="1.0"/>
<line x1="87.0" y1="108.4" x2="103.3" y2="144.9" stroke="rgb(0,0,0)"  stroke-width="1.0"/>
<line x1="103.3" y1="144.9" x2="130.1" y2="147.7" stroke="rgb(0,0,0)"  stroke-width="1.0"/>
<line x1="150.7" y1="138.6" x2="166.6" y2="116.7" stroke="rgb(0,0,0)"  stroke-width="1.0"/>
<line x1="458.3" y1="120.0" x2="458.3" y2="147.0" stroke="rgb(0,0,0)"  stroke-width="1.0"/>
<line x1="469.6" y1="166.5" x2="492.9" y2="180.0" stroke="rgb(0,0,0)"  stroke-width="1.0"/>
<line x1="492.9" y1="180.0" x2="527.6" y2="160.0" stroke="rgb(0,0,0)"  stroke-width="1.0"/>
<line x1="527.6" y1="160.0" x2="527.6" y2="120.0" stroke="rgb(0,0,0)"  stroke-width="1.0"/>
<line x1="527.6" y1="120.0" x2="492.9" y2="100.0" stroke="rgb(0,0,0)"  stroke-width="1.0"/>
<line x1="492.9" y1="100.0" x2="458.3" y2="120.0" stroke="rgb(0,0,0)"  stroke-width="1.0"/>
<line x1="596.9" y1="160.0" x2="631.5" y2="180.0" stroke="rgb(0,0,0)"  stroke-width="1.0"/>
<line x1="631.5" y1="180.0" x2="666.1" y2="160.0" stroke="rgb(0,0,0)"  stroke-width="1.0"/>
<line x1="666.1" y1="160.0" x2="666.1" y2="120.0" stroke="rgb(0,0,0)"  stroke-width="1.0"/>
<line x1="666.1" y1="120.0" x2="631.5" y2="100.0" stroke="rgb(0,0,0)"  stroke-width="1.0"/>
<line x1="631.5" y1="100.0" x2="608.1" y2="113.5" stroke="rgb(0,0,0)"  stroke-width="1.0"/>
<line x1="596.9" y1="133.0" x2="596.9" y2="160.0" stroke="rgb(0,0,0)"  stroke-width="1.0"/>
<text x="200.365448" y="128.912912" fill="rgb(255,12,12)"  stroke="rgb(255,12,12)" stroke-width="1" font-size="16" >O</text>
<text x="267.443311" y="275.080185" fill="rgb(12,12,255)"  stroke="rgb(12,12,255)" stroke-width="1" font-size="16" >NH</text>
<text x="291.443311" y="278.760185" fill="rgb(12,12,255)"  stroke="rgb(12,12,255)" stroke-width="1" font-size="13" >2</text>
<text x="169.826516" y="55.829275" fill="rgb(12,12,255)"  stroke="rgb(12,12,255)" stroke-width="1" font-size="16" >NH</text>
<text x="193.826516" y="59.509275" fill="rgb(12,12,255)"  stroke="rgb(12,12,255)" stroke-width="1" font-size="13" >2</text>
<text x="326.156832" y="72.604630" fill="rgb(255,12,12)"  stroke="rgb(255,12,12)" stroke-width="1" font-size="16" >HO</text>
<text x="488.938166" y="68.000000" fill="rgb(12,12,255)"  stroke="rgb(12,12,255)" stroke-width="1" font-size="16" >NH</text>
<text x="512.938166" y="71.680000" fill="rgb(12,12,255)"  stroke="rgb(12,12,255)" stroke-width="1" font-size="13" >2</text>
<text x="625.502231" y="228.000000" fill="rgb(255,12,12)"  stroke="rgb(255,12,12)" stroke-width="1" font-size="16" >OH</text>
<text x="133.342627" y="193.634271" fill="rgb(12,12,255)"  stroke="rgb(12,12,255)" stroke-width="1" font-size="16" >H</text>
<text x="145.342627" y="197.314271" fill="rgb(12,12,255)"  stroke="rgb(12,12,255)" stroke-width="1" font-size="13" >2</text>
<text x="151.842627" y="193.634271" fill="rgb(12,12,255)"  stroke="rgb(12,12,255)" stroke-width="1" font-size="16" >N</text>
<text x="417.656134" y="108.000000" fill="rgb(255,12,12)"  stroke="rgb(255,12,12)" stroke-width="1" font-size="16" >O</text>
<text x="556.220198" y="108.000000" fill="rgb(255,12,12)"  stroke="rgb(255,12,12)" stroke-width="1" font-size="16" >OH</text>
<text x="694.784263" y="188.000000" fill="rgb(255,12,12)"  stroke="rgb(255,12,12)" stroke-width="1" font-size="16" >OH</text>
<text x="29.241944" y="112.188358" fill="rgb(255,12,12)"  stroke="rgb(255,12,12)" stroke-width="1" font-size="16" >HO</text>
<text x="339.708075" y="176.097343" fill="rgb(255,12,12)"  stroke="rgb(255,12,12)" stroke-width="1" font-size="16" >O</text>
<text x="556.220198" y="188.000000" fill="rgb(255,12,12)"  stroke="rgb(255,12,12)" stroke-width="1" font-size="16" >O</text>
<text x="694.784263" y="108.000000" fill="rgb(255,12,12)"  stroke="rgb(255,12,12)" stroke-width="1" font-size="16" >OH</text>
<text x="137.073162" y="157.092453" fill="rgb(255,12,12)"  stroke="rgb(255,12,12)" stroke-width="1" font-size="16" >O</text>
<text x="279.927199" y="137.275189" fill="rgb(255,12,12)"  stroke="rgb(255,12,12)" stroke-width="1" font-size="16" >O</text>
<text x="388.243304" y="233.672004" fill="rgb(255,12,12)"  stroke="rgb(255,12,12)" stroke-width="1" font-size="16" >HO</text>
<text x="452.297150" y="168.000000" fill="rgb(255,12,12)"  stroke="rgb(255,12,12)" stroke-width="1" font-size="16" >O</text>
<text x="590.861215" y="128.000000" fill="rgb(255,12,12)"  stroke="rgb(255,12,12)" stroke-width="1" font-size="16" >O</text>
<text x="22.000000" y="181.090856" fill="rgb(255,12,12)"  stroke="rgb(255,12,12)" stroke-width="1" font-size="16" >HO</text>
<text x="312.466131" y="210.358825" fill="rgb(255,12,12)"  stroke="rgb(255,12,12)" stroke-width="1" font-size="16" >OH</text>
<text x="523.579182" y="248.000000" fill="rgb(12,12,255)"  stroke="rgb(12,12,255)" stroke-width="1" font-size="16" >NH</text>
<text x="547.579182" y="251.680000" fill="rgb(12,12,255)"  stroke="rgb(12,12,255)" stroke-width="1" font-size="13" >2</text>
<text x="660.143247" y="48.000000" fill="rgb(255,12,12)"  stroke="rgb(255,12,12)" stroke-width="1" font-size="16" >OH</text>
<text font-size="18.000000" fill ="black" font-family="sans-serif"
x="10.000000" y="20.000000" ></text>
<title> - OBDepict</title>
</svg>
